G75*
%MOIN*%
%OFA0B0*%
%FSLAX25Y25*%
%IPPOS*%
%LPD*%
%AMOC8*
5,1,8,0,0,1.08239X$1,22.5*
%
%ADD10C,0.06146*%
%ADD11C,0.07591*%
%ADD12C,0.05162*%
%ADD13C,0.06343*%
%ADD14C,0.06737*%
D10*
X0029357Y0139370D03*
X0049043Y0139370D03*
D11*
X0052980Y0150000D03*
X0025420Y0150000D03*
D12*
X0023200Y0015700D03*
X0023200Y0010700D03*
X0028200Y0010700D03*
X0028200Y0015700D03*
X0033200Y0015700D03*
X0033200Y0010700D03*
X0038200Y0010700D03*
X0038200Y0015700D03*
X0043200Y0015700D03*
X0043200Y0010700D03*
D13*
X0060100Y0110400D03*
X0060100Y0120400D03*
X0060100Y0130400D03*
X0070100Y0130400D03*
X0070100Y0120400D03*
X0070100Y0110400D03*
D14*
X0010100Y0010400D03*
X0010100Y0020400D03*
X0010100Y0030400D03*
X0010100Y0040400D03*
X0010100Y0050400D03*
X0010100Y0060400D03*
X0010100Y0070400D03*
X0010100Y0080400D03*
X0010100Y0090400D03*
X0010100Y0100400D03*
X0010100Y0110400D03*
X0010100Y0120400D03*
X0010100Y0130400D03*
X0010100Y0140400D03*
X0010100Y0150400D03*
X0080100Y0150400D03*
X0080100Y0140400D03*
X0080100Y0130400D03*
X0080100Y0120400D03*
X0080100Y0110400D03*
X0080100Y0100400D03*
X0080100Y0090400D03*
X0080100Y0080400D03*
X0080100Y0070400D03*
X0080100Y0060400D03*
X0080100Y0050400D03*
X0080100Y0040400D03*
X0080100Y0030400D03*
X0080100Y0020400D03*
X0080100Y0010400D03*
M02*
