%
M48
M72
T01C0.01300
T02C0.02362
T03C0.03346
T04C0.03543
T05C0.03937
T06C0.04528
%
T01
X24000Y45400
X34000Y30800
X37600Y21700
X55500Y34800
X62300Y25900
X67100Y39000
X56500Y67400
X59500Y70400
X50500Y61400
X47500Y58400
X39000Y66900
X35500Y70400
X38500Y73400
X41500Y76400
X44500Y79400
X47500Y82400
X49200Y95900
X52800Y95900
X56400Y95900
X67800Y95900
X71400Y78000
X74900Y77900
X56200Y141000
X37600Y91900
X34000Y92000
X30300Y92100
T02
X28200Y15700
X28200Y10700
X33200Y10700
X33200Y15700
X38200Y15700
X38200Y10700
X43200Y10700
X43200Y15700
X23200Y15700
X23200Y10700
T03
X29357Y139370
X49043Y139370
T04
X60100Y130400
X60100Y120400
X60100Y110400
X70100Y110400
X70100Y120400
X70100Y130400
T05
X10100Y10400
X10100Y20400
X10100Y30400
X10100Y40400
X10100Y50400
X10100Y60400
X10100Y70400
X10100Y80400
X10100Y90400
X10100Y100400
X10100Y110400
X10100Y120400
X10100Y130400
X10100Y140400
X10100Y150400
X80100Y150400
X80100Y140400
X80100Y130400
X80100Y120400
X80100Y110400
X80100Y100400
X80100Y90400
X80100Y80400
X80100Y70400
X80100Y60400
X80100Y50400
X80100Y40400
X80100Y30400
X80100Y20400
X80100Y10400
T06
X52980Y150000
X25420Y150000
M30
