G75*
%MOIN*%
%OFA0B0*%
%FSLAX25Y25*%
%IPPOS*%
%LPD*%
%AMOC8*
5,1,8,0,0,1.08239X$1,22.5*
%
%ADD10R,0.01981X0.06706*%
%ADD11R,0.06706X0.01981*%
%ADD12R,0.05131X0.04737*%
%ADD13R,0.05918X0.08280*%
%ADD14R,0.04343X0.03556*%
%ADD15R,0.02375X0.06115*%
%ADD16C,0.06146*%
%ADD17R,0.07690X0.06902*%
%ADD18C,0.07591*%
%ADD19C,0.05162*%
%ADD20C,0.06343*%
%ADD21C,0.06737*%
%ADD22R,0.02769X0.01902*%
%ADD23R,0.04343X0.07099*%
%ADD24R,0.03556X0.04343*%
%ADD25R,0.04737X0.05131*%
%ADD26R,0.01981X0.02965*%
%ADD27C,0.03700*%
D10*
G36*
X0038283Y0062906D02*
X0036883Y0061506D01*
X0032143Y0066246D01*
X0033543Y0067646D01*
X0038283Y0062906D01*
G37*
G36*
X0039675Y0064298D02*
X0038275Y0062898D01*
X0033535Y0067638D01*
X0034935Y0069038D01*
X0039675Y0064298D01*
G37*
G36*
X0041067Y0065690D02*
X0039667Y0064290D01*
X0034927Y0069030D01*
X0036327Y0070430D01*
X0041067Y0065690D01*
G37*
G36*
X0042459Y0067082D02*
X0041059Y0065682D01*
X0036319Y0070422D01*
X0037719Y0071822D01*
X0042459Y0067082D01*
G37*
G36*
X0043851Y0068474D02*
X0042451Y0067074D01*
X0037711Y0071814D01*
X0039111Y0073214D01*
X0043851Y0068474D01*
G37*
G36*
X0045243Y0069866D02*
X0043843Y0068466D01*
X0039103Y0073206D01*
X0040503Y0074606D01*
X0045243Y0069866D01*
G37*
G36*
X0046634Y0071257D02*
X0045234Y0069857D01*
X0040494Y0074597D01*
X0041894Y0075997D01*
X0046634Y0071257D01*
G37*
G36*
X0048026Y0072649D02*
X0046626Y0071249D01*
X0041886Y0075989D01*
X0043286Y0077389D01*
X0048026Y0072649D01*
G37*
G36*
X0049418Y0074041D02*
X0048018Y0072641D01*
X0043278Y0077381D01*
X0044678Y0078781D01*
X0049418Y0074041D01*
G37*
G36*
X0050810Y0075433D02*
X0049410Y0074033D01*
X0044670Y0078773D01*
X0046070Y0080173D01*
X0050810Y0075433D01*
G37*
G36*
X0052202Y0076825D02*
X0050802Y0075425D01*
X0046062Y0080165D01*
X0047462Y0081565D01*
X0052202Y0076825D01*
G37*
G36*
X0053594Y0078217D02*
X0052194Y0076817D01*
X0047454Y0081557D01*
X0048854Y0082957D01*
X0053594Y0078217D01*
G37*
G36*
X0074473Y0051770D02*
X0073073Y0050370D01*
X0068333Y0055110D01*
X0069733Y0056510D01*
X0074473Y0051770D01*
G37*
G36*
X0075865Y0053162D02*
X0074465Y0051762D01*
X0069725Y0056502D01*
X0071125Y0057902D01*
X0075865Y0053162D01*
G37*
G36*
X0077257Y0054554D02*
X0075857Y0053154D01*
X0071117Y0057894D01*
X0072517Y0059294D01*
X0077257Y0054554D01*
G37*
G36*
X0073081Y0050378D02*
X0071681Y0048978D01*
X0066941Y0053718D01*
X0068341Y0055118D01*
X0073081Y0050378D01*
G37*
G36*
X0071689Y0048986D02*
X0070289Y0047586D01*
X0065549Y0052326D01*
X0066949Y0053726D01*
X0071689Y0048986D01*
G37*
G36*
X0070297Y0047594D02*
X0068897Y0046194D01*
X0064157Y0050934D01*
X0065557Y0052334D01*
X0070297Y0047594D01*
G37*
G36*
X0068906Y0046203D02*
X0067506Y0044803D01*
X0062766Y0049543D01*
X0064166Y0050943D01*
X0068906Y0046203D01*
G37*
G36*
X0067514Y0044811D02*
X0066114Y0043411D01*
X0061374Y0048151D01*
X0062774Y0049551D01*
X0067514Y0044811D01*
G37*
G36*
X0066122Y0043419D02*
X0064722Y0042019D01*
X0059982Y0046759D01*
X0061382Y0048159D01*
X0066122Y0043419D01*
G37*
G36*
X0064730Y0042027D02*
X0063330Y0040627D01*
X0058590Y0045367D01*
X0059990Y0046767D01*
X0064730Y0042027D01*
G37*
G36*
X0063338Y0040635D02*
X0061938Y0039235D01*
X0057198Y0043975D01*
X0058598Y0045375D01*
X0063338Y0040635D01*
G37*
G36*
X0061946Y0039243D02*
X0060546Y0037843D01*
X0055806Y0042583D01*
X0057206Y0043983D01*
X0061946Y0039243D01*
G37*
D11*
G36*
X0053594Y0042583D02*
X0048854Y0037843D01*
X0047454Y0039243D01*
X0052194Y0043983D01*
X0053594Y0042583D01*
G37*
G36*
X0052202Y0043975D02*
X0047462Y0039235D01*
X0046062Y0040635D01*
X0050802Y0045375D01*
X0052202Y0043975D01*
G37*
G36*
X0050810Y0045367D02*
X0046070Y0040627D01*
X0044670Y0042027D01*
X0049410Y0046767D01*
X0050810Y0045367D01*
G37*
G36*
X0049418Y0046759D02*
X0044678Y0042019D01*
X0043278Y0043419D01*
X0048018Y0048159D01*
X0049418Y0046759D01*
G37*
G36*
X0048026Y0048151D02*
X0043286Y0043411D01*
X0041886Y0044811D01*
X0046626Y0049551D01*
X0048026Y0048151D01*
G37*
G36*
X0046634Y0049543D02*
X0041894Y0044803D01*
X0040494Y0046203D01*
X0045234Y0050943D01*
X0046634Y0049543D01*
G37*
G36*
X0045243Y0050934D02*
X0040503Y0046194D01*
X0039103Y0047594D01*
X0043843Y0052334D01*
X0045243Y0050934D01*
G37*
G36*
X0043851Y0052326D02*
X0039111Y0047586D01*
X0037711Y0048986D01*
X0042451Y0053726D01*
X0043851Y0052326D01*
G37*
G36*
X0042459Y0053718D02*
X0037719Y0048978D01*
X0036319Y0050378D01*
X0041059Y0055118D01*
X0042459Y0053718D01*
G37*
G36*
X0041067Y0055110D02*
X0036327Y0050370D01*
X0034927Y0051770D01*
X0039667Y0056510D01*
X0041067Y0055110D01*
G37*
G36*
X0039675Y0056502D02*
X0034935Y0051762D01*
X0033535Y0053162D01*
X0038275Y0057902D01*
X0039675Y0056502D01*
G37*
G36*
X0038283Y0057894D02*
X0033543Y0053154D01*
X0032143Y0054554D01*
X0036883Y0059294D01*
X0038283Y0057894D01*
G37*
G36*
X0061946Y0081557D02*
X0057206Y0076817D01*
X0055806Y0078217D01*
X0060546Y0082957D01*
X0061946Y0081557D01*
G37*
G36*
X0063338Y0080165D02*
X0058598Y0075425D01*
X0057198Y0076825D01*
X0061938Y0081565D01*
X0063338Y0080165D01*
G37*
G36*
X0064730Y0078773D02*
X0059990Y0074033D01*
X0058590Y0075433D01*
X0063330Y0080173D01*
X0064730Y0078773D01*
G37*
G36*
X0066122Y0077381D02*
X0061382Y0072641D01*
X0059982Y0074041D01*
X0064722Y0078781D01*
X0066122Y0077381D01*
G37*
G36*
X0067514Y0075989D02*
X0062774Y0071249D01*
X0061374Y0072649D01*
X0066114Y0077389D01*
X0067514Y0075989D01*
G37*
G36*
X0068906Y0074597D02*
X0064166Y0069857D01*
X0062766Y0071257D01*
X0067506Y0075997D01*
X0068906Y0074597D01*
G37*
G36*
X0070297Y0073206D02*
X0065557Y0068466D01*
X0064157Y0069866D01*
X0068897Y0074606D01*
X0070297Y0073206D01*
G37*
G36*
X0071689Y0071814D02*
X0066949Y0067074D01*
X0065549Y0068474D01*
X0070289Y0073214D01*
X0071689Y0071814D01*
G37*
G36*
X0073081Y0070422D02*
X0068341Y0065682D01*
X0066941Y0067082D01*
X0071681Y0071822D01*
X0073081Y0070422D01*
G37*
G36*
X0074473Y0069030D02*
X0069733Y0064290D01*
X0068333Y0065690D01*
X0073073Y0070430D01*
X0074473Y0069030D01*
G37*
G36*
X0075865Y0067638D02*
X0071125Y0062898D01*
X0069725Y0064298D01*
X0074465Y0069038D01*
X0075865Y0067638D01*
G37*
G36*
X0077257Y0066246D02*
X0072517Y0061506D01*
X0071117Y0062906D01*
X0075857Y0067646D01*
X0077257Y0066246D01*
G37*
D12*
X0077746Y0025700D03*
X0071054Y0025700D03*
X0064946Y0021000D03*
X0064946Y0012300D03*
X0058254Y0012300D03*
X0058254Y0021000D03*
X0040046Y0109900D03*
X0033354Y0109900D03*
D13*
X0028173Y0027099D03*
X0028173Y0014501D03*
X0049827Y0014501D03*
X0049827Y0027099D03*
D14*
X0041000Y0035341D03*
X0041000Y0040459D03*
X0035900Y0040459D03*
X0035900Y0035341D03*
X0029800Y0065641D03*
X0029800Y0070759D03*
X0060300Y0034359D03*
X0060300Y0029241D03*
X0065500Y0029241D03*
X0065500Y0034359D03*
X0072000Y0033441D03*
X0072000Y0038559D03*
X0076500Y0038559D03*
X0076500Y0033441D03*
X0073900Y0076641D03*
X0073900Y0081759D03*
D15*
X0042318Y0129770D03*
X0039759Y0129770D03*
X0037200Y0129770D03*
X0034641Y0129770D03*
X0032082Y0129770D03*
D16*
X0027357Y0129770D03*
X0047043Y0129770D03*
D17*
X0041629Y0140400D03*
X0032771Y0140400D03*
D18*
X0023420Y0140400D03*
X0050980Y0140400D03*
D19*
X0056000Y0132800D03*
X0056000Y0127800D03*
X0061000Y0127800D03*
X0061000Y0132800D03*
X0066000Y0132800D03*
X0066000Y0127800D03*
X0071000Y0127800D03*
X0071000Y0132800D03*
X0076000Y0132800D03*
X0076000Y0127800D03*
D20*
X0069700Y0120400D03*
X0069700Y0110400D03*
X0069700Y0100400D03*
X0059700Y0100400D03*
X0059700Y0110400D03*
X0059700Y0120400D03*
D21*
X0009700Y0010400D03*
X0009700Y0020400D03*
X0009700Y0030400D03*
X0009700Y0040400D03*
X0009700Y0050400D03*
X0009700Y0060400D03*
X0009700Y0070400D03*
X0009700Y0080400D03*
X0009700Y0090400D03*
X0009700Y0100400D03*
X0009700Y0110400D03*
X0009700Y0120400D03*
X0009700Y0130400D03*
X0009700Y0140400D03*
X0022200Y0060400D03*
X0022200Y0050400D03*
X0089700Y0050400D03*
X0089700Y0060400D03*
X0089700Y0070400D03*
X0089700Y0080400D03*
X0089700Y0090400D03*
X0089700Y0100400D03*
X0089700Y0110400D03*
X0089700Y0120400D03*
X0089700Y0130400D03*
X0089700Y0140400D03*
X0089700Y0040400D03*
X0089700Y0030400D03*
X0089700Y0020400D03*
X0089700Y0010400D03*
D22*
X0039680Y0115794D03*
X0039680Y0117763D03*
X0039680Y0119731D03*
X0039680Y0121700D03*
X0032200Y0121700D03*
X0032200Y0119731D03*
X0032200Y0117763D03*
X0032200Y0115794D03*
D23*
X0035940Y0118747D03*
D24*
X0034141Y0103500D03*
X0039259Y0103500D03*
X0023859Y0118000D03*
X0018741Y0118000D03*
D25*
X0046800Y0119846D03*
X0046800Y0113154D03*
D26*
X0029459Y0121800D03*
X0026900Y0121800D03*
D27*
X0021400Y0124800D03*
X0026100Y0111500D03*
X0027600Y0103000D03*
X0026100Y0097700D03*
X0029900Y0095000D03*
X0030100Y0091100D03*
X0029100Y0082100D03*
X0032000Y0078900D03*
X0037000Y0077800D03*
X0042400Y0079500D03*
X0045000Y0082000D03*
X0051300Y0083500D03*
X0051400Y0073500D03*
X0048000Y0064300D03*
X0053200Y0057500D03*
X0049908Y0055000D03*
X0047700Y0051700D03*
X0052400Y0052000D03*
X0052400Y0048400D03*
X0057900Y0049300D03*
X0064900Y0039000D03*
X0055500Y0029100D03*
X0042000Y0059300D03*
X0061200Y0067500D03*
X0071500Y0089400D03*
X0069400Y0092700D03*
X0072300Y0095900D03*
X0062600Y0090300D03*
X0060000Y0094100D03*
X0078900Y0079400D03*
X0079100Y0075900D03*
X0077900Y0061600D03*
X0080600Y0058400D03*
X0079500Y0054900D03*
X0041500Y0124300D03*
X0037900Y0124300D03*
X0020100Y0095000D03*
M02*
