G75*
%MOIN*%
%OFA0B0*%
%FSLAX25Y25*%
%IPPOS*%
%LPD*%
%AMOC8*
5,1,8,0,0,1.08239X$1,22.5*
%
%ADD10R,0.01981X0.06706*%
%ADD11R,0.06706X0.01981*%
%ADD12R,0.05131X0.04737*%
%ADD13R,0.05918X0.08280*%
%ADD14R,0.04343X0.03556*%
%ADD15R,0.02375X0.06115*%
%ADD16C,0.06146*%
%ADD17R,0.07690X0.06902*%
%ADD18C,0.07591*%
%ADD19C,0.05162*%
%ADD20C,0.06343*%
%ADD21C,0.06737*%
%ADD22R,0.01902X0.02769*%
%ADD23R,0.07099X0.04343*%
%ADD24R,0.04737X0.05131*%
%ADD25R,0.02965X0.01981*%
D10*
G36*
X0031183Y0072906D02*
X0029783Y0071506D01*
X0025043Y0076246D01*
X0026443Y0077646D01*
X0031183Y0072906D01*
G37*
G36*
X0032575Y0074298D02*
X0031175Y0072898D01*
X0026435Y0077638D01*
X0027835Y0079038D01*
X0032575Y0074298D01*
G37*
G36*
X0033967Y0075690D02*
X0032567Y0074290D01*
X0027827Y0079030D01*
X0029227Y0080430D01*
X0033967Y0075690D01*
G37*
G36*
X0035359Y0077082D02*
X0033959Y0075682D01*
X0029219Y0080422D01*
X0030619Y0081822D01*
X0035359Y0077082D01*
G37*
G36*
X0036751Y0078474D02*
X0035351Y0077074D01*
X0030611Y0081814D01*
X0032011Y0083214D01*
X0036751Y0078474D01*
G37*
G36*
X0038143Y0079866D02*
X0036743Y0078466D01*
X0032003Y0083206D01*
X0033403Y0084606D01*
X0038143Y0079866D01*
G37*
G36*
X0039534Y0081257D02*
X0038134Y0079857D01*
X0033394Y0084597D01*
X0034794Y0085997D01*
X0039534Y0081257D01*
G37*
G36*
X0040926Y0082649D02*
X0039526Y0081249D01*
X0034786Y0085989D01*
X0036186Y0087389D01*
X0040926Y0082649D01*
G37*
G36*
X0042318Y0084041D02*
X0040918Y0082641D01*
X0036178Y0087381D01*
X0037578Y0088781D01*
X0042318Y0084041D01*
G37*
G36*
X0043710Y0085433D02*
X0042310Y0084033D01*
X0037570Y0088773D01*
X0038970Y0090173D01*
X0043710Y0085433D01*
G37*
G36*
X0045102Y0086825D02*
X0043702Y0085425D01*
X0038962Y0090165D01*
X0040362Y0091565D01*
X0045102Y0086825D01*
G37*
G36*
X0046494Y0088217D02*
X0045094Y0086817D01*
X0040354Y0091557D01*
X0041754Y0092957D01*
X0046494Y0088217D01*
G37*
G36*
X0064589Y0058986D02*
X0063189Y0057586D01*
X0058449Y0062326D01*
X0059849Y0063726D01*
X0064589Y0058986D01*
G37*
G36*
X0065981Y0060378D02*
X0064581Y0058978D01*
X0059841Y0063718D01*
X0061241Y0065118D01*
X0065981Y0060378D01*
G37*
G36*
X0067373Y0061770D02*
X0065973Y0060370D01*
X0061233Y0065110D01*
X0062633Y0066510D01*
X0067373Y0061770D01*
G37*
G36*
X0068765Y0063162D02*
X0067365Y0061762D01*
X0062625Y0066502D01*
X0064025Y0067902D01*
X0068765Y0063162D01*
G37*
G36*
X0070157Y0064554D02*
X0068757Y0063154D01*
X0064017Y0067894D01*
X0065417Y0069294D01*
X0070157Y0064554D01*
G37*
G36*
X0063197Y0057594D02*
X0061797Y0056194D01*
X0057057Y0060934D01*
X0058457Y0062334D01*
X0063197Y0057594D01*
G37*
G36*
X0061806Y0056203D02*
X0060406Y0054803D01*
X0055666Y0059543D01*
X0057066Y0060943D01*
X0061806Y0056203D01*
G37*
G36*
X0060414Y0054811D02*
X0059014Y0053411D01*
X0054274Y0058151D01*
X0055674Y0059551D01*
X0060414Y0054811D01*
G37*
G36*
X0059022Y0053419D02*
X0057622Y0052019D01*
X0052882Y0056759D01*
X0054282Y0058159D01*
X0059022Y0053419D01*
G37*
G36*
X0057630Y0052027D02*
X0056230Y0050627D01*
X0051490Y0055367D01*
X0052890Y0056767D01*
X0057630Y0052027D01*
G37*
G36*
X0056238Y0050635D02*
X0054838Y0049235D01*
X0050098Y0053975D01*
X0051498Y0055375D01*
X0056238Y0050635D01*
G37*
G36*
X0054846Y0049243D02*
X0053446Y0047843D01*
X0048706Y0052583D01*
X0050106Y0053983D01*
X0054846Y0049243D01*
G37*
D11*
G36*
X0046494Y0052583D02*
X0041754Y0047843D01*
X0040354Y0049243D01*
X0045094Y0053983D01*
X0046494Y0052583D01*
G37*
G36*
X0045102Y0053975D02*
X0040362Y0049235D01*
X0038962Y0050635D01*
X0043702Y0055375D01*
X0045102Y0053975D01*
G37*
G36*
X0043710Y0055367D02*
X0038970Y0050627D01*
X0037570Y0052027D01*
X0042310Y0056767D01*
X0043710Y0055367D01*
G37*
G36*
X0042318Y0056759D02*
X0037578Y0052019D01*
X0036178Y0053419D01*
X0040918Y0058159D01*
X0042318Y0056759D01*
G37*
G36*
X0040926Y0058151D02*
X0036186Y0053411D01*
X0034786Y0054811D01*
X0039526Y0059551D01*
X0040926Y0058151D01*
G37*
G36*
X0039534Y0059543D02*
X0034794Y0054803D01*
X0033394Y0056203D01*
X0038134Y0060943D01*
X0039534Y0059543D01*
G37*
G36*
X0038143Y0060934D02*
X0033403Y0056194D01*
X0032003Y0057594D01*
X0036743Y0062334D01*
X0038143Y0060934D01*
G37*
G36*
X0036751Y0062326D02*
X0032011Y0057586D01*
X0030611Y0058986D01*
X0035351Y0063726D01*
X0036751Y0062326D01*
G37*
G36*
X0035359Y0063718D02*
X0030619Y0058978D01*
X0029219Y0060378D01*
X0033959Y0065118D01*
X0035359Y0063718D01*
G37*
G36*
X0033967Y0065110D02*
X0029227Y0060370D01*
X0027827Y0061770D01*
X0032567Y0066510D01*
X0033967Y0065110D01*
G37*
G36*
X0032575Y0066502D02*
X0027835Y0061762D01*
X0026435Y0063162D01*
X0031175Y0067902D01*
X0032575Y0066502D01*
G37*
G36*
X0031183Y0067894D02*
X0026443Y0063154D01*
X0025043Y0064554D01*
X0029783Y0069294D01*
X0031183Y0067894D01*
G37*
G36*
X0054846Y0091557D02*
X0050106Y0086817D01*
X0048706Y0088217D01*
X0053446Y0092957D01*
X0054846Y0091557D01*
G37*
G36*
X0056238Y0090165D02*
X0051498Y0085425D01*
X0050098Y0086825D01*
X0054838Y0091565D01*
X0056238Y0090165D01*
G37*
G36*
X0057630Y0088773D02*
X0052890Y0084033D01*
X0051490Y0085433D01*
X0056230Y0090173D01*
X0057630Y0088773D01*
G37*
G36*
X0059022Y0087381D02*
X0054282Y0082641D01*
X0052882Y0084041D01*
X0057622Y0088781D01*
X0059022Y0087381D01*
G37*
G36*
X0060414Y0085989D02*
X0055674Y0081249D01*
X0054274Y0082649D01*
X0059014Y0087389D01*
X0060414Y0085989D01*
G37*
G36*
X0061806Y0084597D02*
X0057066Y0079857D01*
X0055666Y0081257D01*
X0060406Y0085997D01*
X0061806Y0084597D01*
G37*
G36*
X0063197Y0083206D02*
X0058457Y0078466D01*
X0057057Y0079866D01*
X0061797Y0084606D01*
X0063197Y0083206D01*
G37*
G36*
X0064589Y0081814D02*
X0059849Y0077074D01*
X0058449Y0078474D01*
X0063189Y0083214D01*
X0064589Y0081814D01*
G37*
G36*
X0065981Y0080422D02*
X0061241Y0075682D01*
X0059841Y0077082D01*
X0064581Y0081822D01*
X0065981Y0080422D01*
G37*
G36*
X0067373Y0079030D02*
X0062633Y0074290D01*
X0061233Y0075690D01*
X0065973Y0080430D01*
X0067373Y0079030D01*
G37*
G36*
X0068765Y0077638D02*
X0064025Y0072898D01*
X0062625Y0074298D01*
X0067365Y0079038D01*
X0068765Y0077638D01*
G37*
G36*
X0070157Y0076246D02*
X0065417Y0071506D01*
X0064017Y0072906D01*
X0068757Y0077646D01*
X0070157Y0076246D01*
G37*
D12*
X0070346Y0033100D03*
X0063654Y0033100D03*
X0058046Y0030000D03*
X0058046Y0021900D03*
X0051354Y0021900D03*
X0051354Y0030000D03*
X0061254Y0141000D03*
X0061254Y0150000D03*
X0067946Y0150000D03*
X0067946Y0141000D03*
D13*
X0043827Y0038599D03*
X0043827Y0026001D03*
X0022173Y0026001D03*
X0022173Y0038599D03*
D14*
X0028500Y0045441D03*
X0028500Y0050559D03*
X0033200Y0050559D03*
X0033200Y0045441D03*
X0021500Y0071841D03*
X0021500Y0076959D03*
X0021500Y0084041D03*
X0021500Y0089159D03*
X0021500Y0096241D03*
X0021500Y0101359D03*
X0021500Y0108441D03*
X0021500Y0113559D03*
X0021500Y0120741D03*
X0021500Y0125859D03*
X0064100Y0048459D03*
X0064100Y0043341D03*
X0069700Y0043341D03*
X0069700Y0048459D03*
X0058500Y0044359D03*
X0058500Y0039241D03*
X0052600Y0039241D03*
X0052600Y0044359D03*
X0067800Y0085941D03*
X0067800Y0091059D03*
D15*
X0044318Y0139370D03*
X0041759Y0139370D03*
X0039200Y0139370D03*
X0036641Y0139370D03*
X0034082Y0139370D03*
D16*
X0029357Y0139370D03*
X0049043Y0139370D03*
D17*
X0043629Y0150000D03*
X0034771Y0150000D03*
D18*
X0025420Y0150000D03*
X0052980Y0150000D03*
D19*
X0043200Y0015700D03*
X0043200Y0010700D03*
X0038200Y0010700D03*
X0038200Y0015700D03*
X0033200Y0015700D03*
X0033200Y0010700D03*
X0028200Y0010700D03*
X0028200Y0015700D03*
X0023200Y0015700D03*
X0023200Y0010700D03*
D20*
X0060100Y0110400D03*
X0060100Y0120400D03*
X0060100Y0130400D03*
X0070100Y0130400D03*
X0070100Y0120400D03*
X0070100Y0110400D03*
D21*
X0010100Y0010400D03*
X0010100Y0020400D03*
X0010100Y0030400D03*
X0010100Y0040400D03*
X0010100Y0050400D03*
X0010100Y0060400D03*
X0010100Y0070400D03*
X0010100Y0080400D03*
X0010100Y0090400D03*
X0010100Y0100400D03*
X0010100Y0110400D03*
X0010100Y0120400D03*
X0010100Y0130400D03*
X0010100Y0140400D03*
X0010100Y0150400D03*
X0080100Y0150400D03*
X0080100Y0140400D03*
X0080100Y0130400D03*
X0080100Y0120400D03*
X0080100Y0110400D03*
X0080100Y0100400D03*
X0080100Y0090400D03*
X0080100Y0080400D03*
X0080100Y0070400D03*
X0080100Y0060400D03*
X0080100Y0050400D03*
X0080100Y0040400D03*
X0080100Y0030400D03*
X0080100Y0020400D03*
X0080100Y0010400D03*
D22*
X0034200Y0116320D03*
X0032231Y0116320D03*
X0030263Y0116320D03*
X0028294Y0116320D03*
X0028294Y0123800D03*
X0030263Y0123800D03*
X0032231Y0123800D03*
X0034200Y0123800D03*
D23*
X0031247Y0120060D03*
D24*
X0030500Y0108346D03*
X0030500Y0101654D03*
D25*
X0032300Y0128441D03*
X0032300Y0131000D03*
X0028500Y0131000D03*
X0028500Y0128441D03*
M02*
