G75*
%MOIN*%
%OFA0B0*%
%FSLAX25Y25*%
%IPPOS*%
%LPD*%
%AMOC8*
5,1,8,0,0,1.08239X$1,22.5*
%
%ADD10C,0.00000*%
%ADD11R,0.01181X0.05906*%
%ADD12R,0.05906X0.01181*%
%ADD13R,0.04331X0.03937*%
%ADD14R,0.03543X0.02756*%
%ADD15R,0.01575X0.05315*%
%ADD16R,0.06890X0.06102*%
%ADD17R,0.04331X0.07480*%
%ADD18R,0.03937X0.04331*%
%ADD19R,0.03937X0.03937*%
%ADD20R,0.00709X0.01772*%
%ADD21R,0.03701X0.01181*%
D10*
X0005100Y0005400D02*
X0005100Y0155361D01*
X0085000Y0155361D01*
X0085100Y0005400D01*
X0005100Y0005400D01*
D11*
G36*
X0030618Y0072906D02*
X0029783Y0072071D01*
X0025608Y0076246D01*
X0026443Y0077081D01*
X0030618Y0072906D01*
G37*
G36*
X0032010Y0074298D02*
X0031175Y0073463D01*
X0027000Y0077638D01*
X0027835Y0078473D01*
X0032010Y0074298D01*
G37*
G36*
X0033402Y0075690D02*
X0032567Y0074855D01*
X0028392Y0079030D01*
X0029227Y0079865D01*
X0033402Y0075690D01*
G37*
G36*
X0034794Y0077082D02*
X0033959Y0076247D01*
X0029784Y0080422D01*
X0030619Y0081257D01*
X0034794Y0077082D01*
G37*
G36*
X0036186Y0078474D02*
X0035351Y0077639D01*
X0031176Y0081814D01*
X0032011Y0082649D01*
X0036186Y0078474D01*
G37*
G36*
X0037578Y0079866D02*
X0036743Y0079031D01*
X0032568Y0083206D01*
X0033403Y0084041D01*
X0037578Y0079866D01*
G37*
G36*
X0038969Y0081257D02*
X0038134Y0080422D01*
X0033959Y0084597D01*
X0034794Y0085432D01*
X0038969Y0081257D01*
G37*
G36*
X0040361Y0082649D02*
X0039526Y0081814D01*
X0035351Y0085989D01*
X0036186Y0086824D01*
X0040361Y0082649D01*
G37*
G36*
X0041753Y0084041D02*
X0040918Y0083206D01*
X0036743Y0087381D01*
X0037578Y0088216D01*
X0041753Y0084041D01*
G37*
G36*
X0043145Y0085433D02*
X0042310Y0084598D01*
X0038135Y0088773D01*
X0038970Y0089608D01*
X0043145Y0085433D01*
G37*
G36*
X0044537Y0086825D02*
X0043702Y0085990D01*
X0039527Y0090165D01*
X0040362Y0091000D01*
X0044537Y0086825D01*
G37*
G36*
X0045929Y0088217D02*
X0045094Y0087382D01*
X0040919Y0091557D01*
X0041754Y0092392D01*
X0045929Y0088217D01*
G37*
G36*
X0064024Y0058986D02*
X0063189Y0058151D01*
X0059014Y0062326D01*
X0059849Y0063161D01*
X0064024Y0058986D01*
G37*
G36*
X0065416Y0060378D02*
X0064581Y0059543D01*
X0060406Y0063718D01*
X0061241Y0064553D01*
X0065416Y0060378D01*
G37*
G36*
X0066808Y0061770D02*
X0065973Y0060935D01*
X0061798Y0065110D01*
X0062633Y0065945D01*
X0066808Y0061770D01*
G37*
G36*
X0068200Y0063162D02*
X0067365Y0062327D01*
X0063190Y0066502D01*
X0064025Y0067337D01*
X0068200Y0063162D01*
G37*
G36*
X0069592Y0064554D02*
X0068757Y0063719D01*
X0064582Y0067894D01*
X0065417Y0068729D01*
X0069592Y0064554D01*
G37*
G36*
X0062632Y0057594D02*
X0061797Y0056759D01*
X0057622Y0060934D01*
X0058457Y0061769D01*
X0062632Y0057594D01*
G37*
G36*
X0061241Y0056203D02*
X0060406Y0055368D01*
X0056231Y0059543D01*
X0057066Y0060378D01*
X0061241Y0056203D01*
G37*
G36*
X0059849Y0054811D02*
X0059014Y0053976D01*
X0054839Y0058151D01*
X0055674Y0058986D01*
X0059849Y0054811D01*
G37*
G36*
X0058457Y0053419D02*
X0057622Y0052584D01*
X0053447Y0056759D01*
X0054282Y0057594D01*
X0058457Y0053419D01*
G37*
G36*
X0057065Y0052027D02*
X0056230Y0051192D01*
X0052055Y0055367D01*
X0052890Y0056202D01*
X0057065Y0052027D01*
G37*
G36*
X0055673Y0050635D02*
X0054838Y0049800D01*
X0050663Y0053975D01*
X0051498Y0054810D01*
X0055673Y0050635D01*
G37*
G36*
X0054281Y0049243D02*
X0053446Y0048408D01*
X0049271Y0052583D01*
X0050106Y0053418D01*
X0054281Y0049243D01*
G37*
D12*
G36*
X0045929Y0052583D02*
X0041754Y0048408D01*
X0040919Y0049243D01*
X0045094Y0053418D01*
X0045929Y0052583D01*
G37*
G36*
X0044537Y0053975D02*
X0040362Y0049800D01*
X0039527Y0050635D01*
X0043702Y0054810D01*
X0044537Y0053975D01*
G37*
G36*
X0043145Y0055367D02*
X0038970Y0051192D01*
X0038135Y0052027D01*
X0042310Y0056202D01*
X0043145Y0055367D01*
G37*
G36*
X0041753Y0056759D02*
X0037578Y0052584D01*
X0036743Y0053419D01*
X0040918Y0057594D01*
X0041753Y0056759D01*
G37*
G36*
X0040361Y0058151D02*
X0036186Y0053976D01*
X0035351Y0054811D01*
X0039526Y0058986D01*
X0040361Y0058151D01*
G37*
G36*
X0038969Y0059543D02*
X0034794Y0055368D01*
X0033959Y0056203D01*
X0038134Y0060378D01*
X0038969Y0059543D01*
G37*
G36*
X0037578Y0060934D02*
X0033403Y0056759D01*
X0032568Y0057594D01*
X0036743Y0061769D01*
X0037578Y0060934D01*
G37*
G36*
X0036186Y0062326D02*
X0032011Y0058151D01*
X0031176Y0058986D01*
X0035351Y0063161D01*
X0036186Y0062326D01*
G37*
G36*
X0034794Y0063718D02*
X0030619Y0059543D01*
X0029784Y0060378D01*
X0033959Y0064553D01*
X0034794Y0063718D01*
G37*
G36*
X0033402Y0065110D02*
X0029227Y0060935D01*
X0028392Y0061770D01*
X0032567Y0065945D01*
X0033402Y0065110D01*
G37*
G36*
X0032010Y0066502D02*
X0027835Y0062327D01*
X0027000Y0063162D01*
X0031175Y0067337D01*
X0032010Y0066502D01*
G37*
G36*
X0030618Y0067894D02*
X0026443Y0063719D01*
X0025608Y0064554D01*
X0029783Y0068729D01*
X0030618Y0067894D01*
G37*
G36*
X0054281Y0091557D02*
X0050106Y0087382D01*
X0049271Y0088217D01*
X0053446Y0092392D01*
X0054281Y0091557D01*
G37*
G36*
X0055673Y0090165D02*
X0051498Y0085990D01*
X0050663Y0086825D01*
X0054838Y0091000D01*
X0055673Y0090165D01*
G37*
G36*
X0057065Y0088773D02*
X0052890Y0084598D01*
X0052055Y0085433D01*
X0056230Y0089608D01*
X0057065Y0088773D01*
G37*
G36*
X0058457Y0087381D02*
X0054282Y0083206D01*
X0053447Y0084041D01*
X0057622Y0088216D01*
X0058457Y0087381D01*
G37*
G36*
X0059849Y0085989D02*
X0055674Y0081814D01*
X0054839Y0082649D01*
X0059014Y0086824D01*
X0059849Y0085989D01*
G37*
G36*
X0061241Y0084597D02*
X0057066Y0080422D01*
X0056231Y0081257D01*
X0060406Y0085432D01*
X0061241Y0084597D01*
G37*
G36*
X0062632Y0083206D02*
X0058457Y0079031D01*
X0057622Y0079866D01*
X0061797Y0084041D01*
X0062632Y0083206D01*
G37*
G36*
X0064024Y0081814D02*
X0059849Y0077639D01*
X0059014Y0078474D01*
X0063189Y0082649D01*
X0064024Y0081814D01*
G37*
G36*
X0065416Y0080422D02*
X0061241Y0076247D01*
X0060406Y0077082D01*
X0064581Y0081257D01*
X0065416Y0080422D01*
G37*
G36*
X0066808Y0079030D02*
X0062633Y0074855D01*
X0061798Y0075690D01*
X0065973Y0079865D01*
X0066808Y0079030D01*
G37*
G36*
X0068200Y0077638D02*
X0064025Y0073463D01*
X0063190Y0074298D01*
X0067365Y0078473D01*
X0068200Y0077638D01*
G37*
G36*
X0069592Y0076246D02*
X0065417Y0072071D01*
X0064582Y0072906D01*
X0068757Y0077081D01*
X0069592Y0076246D01*
G37*
D13*
X0066454Y0040100D03*
X0073146Y0040100D03*
X0067946Y0141000D03*
X0067946Y0150000D03*
X0061254Y0150000D03*
X0061254Y0141000D03*
D14*
X0067800Y0091059D03*
X0067800Y0085941D03*
X0065900Y0053659D03*
X0065900Y0048541D03*
X0061017Y0047290D03*
X0061017Y0042172D03*
X0056141Y0044593D03*
X0056141Y0039475D03*
X0070700Y0048541D03*
X0070700Y0053659D03*
X0033200Y0050559D03*
X0033200Y0045441D03*
X0028500Y0045441D03*
X0028500Y0050559D03*
X0021500Y0071841D03*
X0021500Y0076959D03*
X0021500Y0084041D03*
X0021500Y0089159D03*
X0021500Y0096241D03*
X0021500Y0101359D03*
X0019850Y0115591D03*
X0019850Y0120709D03*
X0032850Y0119591D03*
X0032850Y0124709D03*
D15*
X0034082Y0139370D03*
X0036641Y0139370D03*
X0039200Y0139370D03*
X0041759Y0139370D03*
X0044318Y0139370D03*
D16*
X0043629Y0150000D03*
X0034771Y0150000D03*
D17*
X0040979Y0042300D03*
X0050821Y0042300D03*
D18*
X0049900Y0034846D03*
X0049900Y0028154D03*
X0041100Y0028154D03*
X0041100Y0034846D03*
D19*
X0019901Y0127910D03*
X0019901Y0135390D03*
X0029350Y0131650D03*
D20*
X0028350Y0120636D03*
X0026775Y0120636D03*
X0025200Y0120636D03*
X0025200Y0116109D03*
X0026775Y0116109D03*
X0028350Y0116109D03*
D21*
X0026775Y0118372D03*
M02*
