G75*
%MOIN*%
%OFA0B0*%
%FSLAX25Y25*%
%IPPOS*%
%LPD*%
%AMOC8*
5,1,8,0,0,1.08239X$1,22.5*
%
%ADD10C,0.00000*%
%ADD11R,0.01181X0.05906*%
%ADD12R,0.05906X0.01181*%
%ADD13R,0.04331X0.03937*%
%ADD14R,0.03543X0.02756*%
%ADD15R,0.01575X0.05315*%
%ADD16C,0.05346*%
%ADD17R,0.06890X0.06102*%
%ADD18C,0.06791*%
%ADD19C,0.04362*%
%ADD20C,0.05543*%
%ADD21C,0.05937*%
%ADD22R,0.04331X0.07480*%
%ADD23R,0.03937X0.04331*%
%ADD24R,0.03937X0.03937*%
%ADD25R,0.00709X0.01772*%
%ADD26R,0.03701X0.01181*%
%ADD27C,0.00600*%
%ADD28C,0.02900*%
D10*
X0005100Y0005400D02*
X0005100Y0155361D01*
X0085000Y0155361D01*
X0085100Y0005400D01*
X0005100Y0005400D01*
D11*
G36*
X0030618Y0072906D02*
X0029783Y0072071D01*
X0025608Y0076246D01*
X0026443Y0077081D01*
X0030618Y0072906D01*
G37*
G36*
X0032010Y0074298D02*
X0031175Y0073463D01*
X0027000Y0077638D01*
X0027835Y0078473D01*
X0032010Y0074298D01*
G37*
G36*
X0033402Y0075690D02*
X0032567Y0074855D01*
X0028392Y0079030D01*
X0029227Y0079865D01*
X0033402Y0075690D01*
G37*
G36*
X0034794Y0077082D02*
X0033959Y0076247D01*
X0029784Y0080422D01*
X0030619Y0081257D01*
X0034794Y0077082D01*
G37*
G36*
X0036186Y0078474D02*
X0035351Y0077639D01*
X0031176Y0081814D01*
X0032011Y0082649D01*
X0036186Y0078474D01*
G37*
G36*
X0037578Y0079866D02*
X0036743Y0079031D01*
X0032568Y0083206D01*
X0033403Y0084041D01*
X0037578Y0079866D01*
G37*
G36*
X0038969Y0081257D02*
X0038134Y0080422D01*
X0033959Y0084597D01*
X0034794Y0085432D01*
X0038969Y0081257D01*
G37*
G36*
X0040361Y0082649D02*
X0039526Y0081814D01*
X0035351Y0085989D01*
X0036186Y0086824D01*
X0040361Y0082649D01*
G37*
G36*
X0041753Y0084041D02*
X0040918Y0083206D01*
X0036743Y0087381D01*
X0037578Y0088216D01*
X0041753Y0084041D01*
G37*
G36*
X0043145Y0085433D02*
X0042310Y0084598D01*
X0038135Y0088773D01*
X0038970Y0089608D01*
X0043145Y0085433D01*
G37*
G36*
X0044537Y0086825D02*
X0043702Y0085990D01*
X0039527Y0090165D01*
X0040362Y0091000D01*
X0044537Y0086825D01*
G37*
G36*
X0045929Y0088217D02*
X0045094Y0087382D01*
X0040919Y0091557D01*
X0041754Y0092392D01*
X0045929Y0088217D01*
G37*
G36*
X0064024Y0058986D02*
X0063189Y0058151D01*
X0059014Y0062326D01*
X0059849Y0063161D01*
X0064024Y0058986D01*
G37*
G36*
X0065416Y0060378D02*
X0064581Y0059543D01*
X0060406Y0063718D01*
X0061241Y0064553D01*
X0065416Y0060378D01*
G37*
G36*
X0066808Y0061770D02*
X0065973Y0060935D01*
X0061798Y0065110D01*
X0062633Y0065945D01*
X0066808Y0061770D01*
G37*
G36*
X0068200Y0063162D02*
X0067365Y0062327D01*
X0063190Y0066502D01*
X0064025Y0067337D01*
X0068200Y0063162D01*
G37*
G36*
X0069592Y0064554D02*
X0068757Y0063719D01*
X0064582Y0067894D01*
X0065417Y0068729D01*
X0069592Y0064554D01*
G37*
G36*
X0062632Y0057594D02*
X0061797Y0056759D01*
X0057622Y0060934D01*
X0058457Y0061769D01*
X0062632Y0057594D01*
G37*
G36*
X0061241Y0056203D02*
X0060406Y0055368D01*
X0056231Y0059543D01*
X0057066Y0060378D01*
X0061241Y0056203D01*
G37*
G36*
X0059849Y0054811D02*
X0059014Y0053976D01*
X0054839Y0058151D01*
X0055674Y0058986D01*
X0059849Y0054811D01*
G37*
G36*
X0058457Y0053419D02*
X0057622Y0052584D01*
X0053447Y0056759D01*
X0054282Y0057594D01*
X0058457Y0053419D01*
G37*
G36*
X0057065Y0052027D02*
X0056230Y0051192D01*
X0052055Y0055367D01*
X0052890Y0056202D01*
X0057065Y0052027D01*
G37*
G36*
X0055673Y0050635D02*
X0054838Y0049800D01*
X0050663Y0053975D01*
X0051498Y0054810D01*
X0055673Y0050635D01*
G37*
G36*
X0054281Y0049243D02*
X0053446Y0048408D01*
X0049271Y0052583D01*
X0050106Y0053418D01*
X0054281Y0049243D01*
G37*
D12*
G36*
X0045929Y0052583D02*
X0041754Y0048408D01*
X0040919Y0049243D01*
X0045094Y0053418D01*
X0045929Y0052583D01*
G37*
G36*
X0044537Y0053975D02*
X0040362Y0049800D01*
X0039527Y0050635D01*
X0043702Y0054810D01*
X0044537Y0053975D01*
G37*
G36*
X0043145Y0055367D02*
X0038970Y0051192D01*
X0038135Y0052027D01*
X0042310Y0056202D01*
X0043145Y0055367D01*
G37*
G36*
X0041753Y0056759D02*
X0037578Y0052584D01*
X0036743Y0053419D01*
X0040918Y0057594D01*
X0041753Y0056759D01*
G37*
G36*
X0040361Y0058151D02*
X0036186Y0053976D01*
X0035351Y0054811D01*
X0039526Y0058986D01*
X0040361Y0058151D01*
G37*
G36*
X0038969Y0059543D02*
X0034794Y0055368D01*
X0033959Y0056203D01*
X0038134Y0060378D01*
X0038969Y0059543D01*
G37*
G36*
X0037578Y0060934D02*
X0033403Y0056759D01*
X0032568Y0057594D01*
X0036743Y0061769D01*
X0037578Y0060934D01*
G37*
G36*
X0036186Y0062326D02*
X0032011Y0058151D01*
X0031176Y0058986D01*
X0035351Y0063161D01*
X0036186Y0062326D01*
G37*
G36*
X0034794Y0063718D02*
X0030619Y0059543D01*
X0029784Y0060378D01*
X0033959Y0064553D01*
X0034794Y0063718D01*
G37*
G36*
X0033402Y0065110D02*
X0029227Y0060935D01*
X0028392Y0061770D01*
X0032567Y0065945D01*
X0033402Y0065110D01*
G37*
G36*
X0032010Y0066502D02*
X0027835Y0062327D01*
X0027000Y0063162D01*
X0031175Y0067337D01*
X0032010Y0066502D01*
G37*
G36*
X0030618Y0067894D02*
X0026443Y0063719D01*
X0025608Y0064554D01*
X0029783Y0068729D01*
X0030618Y0067894D01*
G37*
G36*
X0054281Y0091557D02*
X0050106Y0087382D01*
X0049271Y0088217D01*
X0053446Y0092392D01*
X0054281Y0091557D01*
G37*
G36*
X0055673Y0090165D02*
X0051498Y0085990D01*
X0050663Y0086825D01*
X0054838Y0091000D01*
X0055673Y0090165D01*
G37*
G36*
X0057065Y0088773D02*
X0052890Y0084598D01*
X0052055Y0085433D01*
X0056230Y0089608D01*
X0057065Y0088773D01*
G37*
G36*
X0058457Y0087381D02*
X0054282Y0083206D01*
X0053447Y0084041D01*
X0057622Y0088216D01*
X0058457Y0087381D01*
G37*
G36*
X0059849Y0085989D02*
X0055674Y0081814D01*
X0054839Y0082649D01*
X0059014Y0086824D01*
X0059849Y0085989D01*
G37*
G36*
X0061241Y0084597D02*
X0057066Y0080422D01*
X0056231Y0081257D01*
X0060406Y0085432D01*
X0061241Y0084597D01*
G37*
G36*
X0062632Y0083206D02*
X0058457Y0079031D01*
X0057622Y0079866D01*
X0061797Y0084041D01*
X0062632Y0083206D01*
G37*
G36*
X0064024Y0081814D02*
X0059849Y0077639D01*
X0059014Y0078474D01*
X0063189Y0082649D01*
X0064024Y0081814D01*
G37*
G36*
X0065416Y0080422D02*
X0061241Y0076247D01*
X0060406Y0077082D01*
X0064581Y0081257D01*
X0065416Y0080422D01*
G37*
G36*
X0066808Y0079030D02*
X0062633Y0074855D01*
X0061798Y0075690D01*
X0065973Y0079865D01*
X0066808Y0079030D01*
G37*
G36*
X0068200Y0077638D02*
X0064025Y0073463D01*
X0063190Y0074298D01*
X0067365Y0078473D01*
X0068200Y0077638D01*
G37*
G36*
X0069592Y0076246D02*
X0065417Y0072071D01*
X0064582Y0072906D01*
X0068757Y0077081D01*
X0069592Y0076246D01*
G37*
D13*
X0066454Y0040100D03*
X0073146Y0040100D03*
X0067946Y0141000D03*
X0067946Y0150000D03*
X0061254Y0150000D03*
X0061254Y0141000D03*
D14*
X0067800Y0091059D03*
X0067800Y0085941D03*
X0065900Y0053659D03*
X0065900Y0048541D03*
X0061017Y0047290D03*
X0061017Y0042172D03*
X0056141Y0044593D03*
X0056141Y0039475D03*
X0070700Y0048541D03*
X0070700Y0053659D03*
X0033200Y0050559D03*
X0033200Y0045441D03*
X0028500Y0045441D03*
X0028500Y0050559D03*
X0021500Y0071841D03*
X0021500Y0076959D03*
X0021500Y0084041D03*
X0021500Y0089159D03*
X0021500Y0096241D03*
X0021500Y0101359D03*
X0019850Y0115591D03*
X0019850Y0120709D03*
X0032850Y0119591D03*
X0032850Y0124709D03*
D15*
X0034082Y0139370D03*
X0036641Y0139370D03*
X0039200Y0139370D03*
X0041759Y0139370D03*
X0044318Y0139370D03*
D16*
X0049043Y0139370D03*
X0029357Y0139370D03*
D17*
X0034771Y0150000D03*
X0043629Y0150000D03*
D18*
X0052980Y0150000D03*
X0025420Y0150000D03*
D19*
X0023200Y0015700D03*
X0023200Y0010700D03*
X0028200Y0010700D03*
X0028200Y0015700D03*
X0033200Y0015700D03*
X0033200Y0010700D03*
X0038200Y0010700D03*
X0038200Y0015700D03*
X0043200Y0015700D03*
X0043200Y0010700D03*
D20*
X0060100Y0110400D03*
X0060100Y0120400D03*
X0060100Y0130400D03*
X0070100Y0130400D03*
X0070100Y0120400D03*
X0070100Y0110400D03*
D21*
X0080100Y0110400D03*
X0080100Y0100400D03*
X0080100Y0090400D03*
X0080100Y0080400D03*
X0080100Y0070400D03*
X0080100Y0060400D03*
X0080100Y0050400D03*
X0080100Y0040400D03*
X0080100Y0030400D03*
X0080100Y0020400D03*
X0080100Y0010400D03*
X0052100Y0015900D03*
X0010100Y0020400D03*
X0010100Y0010400D03*
X0010100Y0030400D03*
X0010100Y0040400D03*
X0010100Y0050400D03*
X0010100Y0060400D03*
X0010100Y0070400D03*
X0010100Y0080400D03*
X0010100Y0090400D03*
X0010100Y0100400D03*
X0010100Y0110400D03*
X0010100Y0120400D03*
X0010100Y0130400D03*
X0010100Y0140400D03*
X0010100Y0150400D03*
X0034100Y0110150D03*
X0028850Y0102650D03*
X0041850Y0096400D03*
X0080100Y0120400D03*
X0080100Y0130400D03*
X0080100Y0140400D03*
X0080100Y0150400D03*
D22*
X0050821Y0042300D03*
X0040979Y0042300D03*
D23*
X0041100Y0034846D03*
X0041100Y0028154D03*
X0049900Y0028154D03*
X0049900Y0034846D03*
D24*
X0019901Y0127910D03*
X0019901Y0135390D03*
X0029350Y0131650D03*
D25*
X0028350Y0120636D03*
X0026775Y0120636D03*
X0025200Y0120636D03*
X0025200Y0116109D03*
X0026775Y0116109D03*
X0028350Y0116109D03*
D26*
X0026775Y0118372D03*
D27*
X0027253Y0118850D01*
X0029077Y0118850D01*
X0029818Y0119591D01*
X0032850Y0119591D01*
X0032550Y0119716D02*
X0029692Y0119716D01*
X0029666Y0119761D02*
X0029604Y0119823D01*
X0029604Y0121895D01*
X0029077Y0122422D01*
X0027623Y0122422D01*
X0027563Y0122362D01*
X0027502Y0122422D01*
X0026400Y0122422D01*
X0026400Y0123562D01*
X0029350Y0126512D01*
X0030178Y0125684D01*
X0030178Y0122958D01*
X0030706Y0122431D01*
X0034994Y0122431D01*
X0035441Y0122878D01*
X0035441Y0121988D01*
X0035420Y0122009D01*
X0035123Y0122180D01*
X0034793Y0122269D01*
X0033150Y0122269D01*
X0033150Y0119891D01*
X0032550Y0119891D01*
X0032550Y0122269D01*
X0030907Y0122269D01*
X0030577Y0122180D01*
X0030280Y0122009D01*
X0030038Y0121767D01*
X0029867Y0121471D01*
X0029778Y0121140D01*
X0029778Y0119891D01*
X0032550Y0119891D01*
X0032550Y0119291D01*
X0029884Y0119291D01*
X0029837Y0119465D01*
X0029666Y0119761D01*
X0029604Y0120314D02*
X0029778Y0120314D01*
X0029778Y0120913D02*
X0029604Y0120913D01*
X0029604Y0121511D02*
X0029890Y0121511D01*
X0029389Y0122110D02*
X0030454Y0122110D01*
X0030428Y0122708D02*
X0026400Y0122708D01*
X0026400Y0123307D02*
X0030178Y0123307D01*
X0030178Y0123905D02*
X0026743Y0123905D01*
X0027342Y0124504D02*
X0030178Y0124504D01*
X0030178Y0125102D02*
X0027940Y0125102D01*
X0028539Y0125701D02*
X0030161Y0125701D01*
X0029563Y0126299D02*
X0029137Y0126299D01*
X0029350Y0128209D02*
X0032850Y0124709D01*
X0032269Y0126987D02*
X0030550Y0128706D01*
X0030550Y0128781D01*
X0031691Y0128781D01*
X0032218Y0129309D01*
X0032218Y0133991D01*
X0031691Y0134518D01*
X0027009Y0134518D01*
X0026481Y0133991D01*
X0026481Y0129309D01*
X0027009Y0128781D01*
X0028150Y0128781D01*
X0028150Y0128706D01*
X0024000Y0124556D01*
X0024000Y0121949D01*
X0023946Y0121895D01*
X0023946Y0119823D01*
X0023885Y0119761D01*
X0023713Y0119465D01*
X0023625Y0119134D01*
X0023625Y0118600D01*
X0022701Y0118600D01*
X0022833Y0118829D01*
X0022922Y0119160D01*
X0022922Y0120409D01*
X0020150Y0120409D01*
X0020150Y0121009D01*
X0022922Y0121009D01*
X0022922Y0122258D01*
X0022833Y0122589D01*
X0022662Y0122885D01*
X0022420Y0123127D01*
X0022123Y0123298D01*
X0021793Y0123387D01*
X0020150Y0123387D01*
X0020150Y0121009D01*
X0019550Y0121009D01*
X0019550Y0120409D01*
X0016778Y0120409D01*
X0016778Y0119160D01*
X0016867Y0118829D01*
X0016999Y0118600D01*
X0015400Y0118600D01*
X0015550Y0113800D01*
X0012060Y0113776D01*
X0010869Y0114268D01*
X0009330Y0114268D01*
X0008073Y0113748D01*
X0006000Y0113733D01*
X0006000Y0119205D01*
X0006144Y0118761D01*
X0006449Y0118163D01*
X0006844Y0117619D01*
X0007319Y0117144D01*
X0007863Y0116749D01*
X0008461Y0116444D01*
X0009100Y0116237D01*
X0009764Y0116131D01*
X0009800Y0116131D01*
X0009800Y0120100D01*
X0010400Y0120100D01*
X0010400Y0120700D01*
X0009800Y0120700D01*
X0009800Y0124668D01*
X0009764Y0124668D01*
X0009100Y0124563D01*
X0008461Y0124356D01*
X0007863Y0124051D01*
X0007319Y0123656D01*
X0006844Y0123181D01*
X0006449Y0122637D01*
X0006144Y0122039D01*
X0006000Y0121595D01*
X0006000Y0139205D01*
X0006144Y0138761D01*
X0006449Y0138163D01*
X0006844Y0137619D01*
X0007319Y0137144D01*
X0007863Y0136749D01*
X0008461Y0136444D01*
X0009100Y0136237D01*
X0009764Y0136131D01*
X0009800Y0136131D01*
X0009800Y0140100D01*
X0010400Y0140100D01*
X0010400Y0140700D01*
X0009800Y0140700D01*
X0009800Y0144668D01*
X0009764Y0144668D01*
X0009100Y0144563D01*
X0008461Y0144356D01*
X0007863Y0144051D01*
X0007319Y0143656D01*
X0006844Y0143181D01*
X0006449Y0142637D01*
X0006144Y0142039D01*
X0006000Y0141595D01*
X0006000Y0154461D01*
X0049231Y0154461D01*
X0049244Y0152206D01*
X0048684Y0150854D01*
X0048684Y0149146D01*
X0049270Y0147730D01*
X0049298Y0142943D01*
X0048332Y0142943D01*
X0047018Y0142399D01*
X0046013Y0141394D01*
X0046005Y0141375D01*
X0046005Y0142400D01*
X0045518Y0142888D01*
X0045518Y0144797D01*
X0044815Y0145500D01*
X0016697Y0145500D01*
X0013558Y0148639D01*
X0013968Y0149630D01*
X0013968Y0151169D01*
X0013380Y0152591D01*
X0012291Y0153680D01*
X0010869Y0154268D01*
X0009330Y0154268D01*
X0007909Y0153680D01*
X0006820Y0152591D01*
X0006231Y0151169D01*
X0006231Y0149630D01*
X0006820Y0148209D01*
X0007909Y0147120D01*
X0009330Y0146531D01*
X0010869Y0146531D01*
X0011861Y0146942D01*
X0015000Y0143803D01*
X0015000Y0138594D01*
X0017033Y0136562D01*
X0017033Y0133049D01*
X0017560Y0132522D01*
X0022242Y0132522D01*
X0022770Y0133049D01*
X0022770Y0137731D01*
X0022242Y0138259D01*
X0018730Y0138259D01*
X0017400Y0139588D01*
X0017400Y0143100D01*
X0032552Y0143100D01*
X0032496Y0143068D01*
X0032254Y0142826D01*
X0032083Y0142529D01*
X0031994Y0142199D01*
X0031994Y0141786D01*
X0031382Y0142399D01*
X0030068Y0142943D01*
X0028647Y0142943D01*
X0027333Y0142399D01*
X0026328Y0141394D01*
X0025784Y0140081D01*
X0025784Y0138659D01*
X0026328Y0137346D01*
X0027333Y0136341D01*
X0028647Y0135797D01*
X0030068Y0135797D01*
X0031382Y0136341D01*
X0031994Y0136954D01*
X0031994Y0136541D01*
X0032083Y0136211D01*
X0032254Y0135914D01*
X0032496Y0135672D01*
X0032793Y0135501D01*
X0033123Y0135413D01*
X0033988Y0135413D01*
X0033988Y0139276D01*
X0034176Y0139276D01*
X0034176Y0135413D01*
X0034589Y0135413D01*
X0034291Y0135114D01*
X0034291Y0133168D01*
X0035441Y0132018D01*
X0035441Y0126540D01*
X0034994Y0126987D01*
X0032269Y0126987D01*
X0031760Y0127496D02*
X0035441Y0127496D01*
X0035441Y0126898D02*
X0035084Y0126898D01*
X0035441Y0128095D02*
X0031161Y0128095D01*
X0030563Y0128693D02*
X0035441Y0128693D01*
X0035441Y0129292D02*
X0032202Y0129292D01*
X0032218Y0129890D02*
X0035441Y0129890D01*
X0035441Y0130489D02*
X0032218Y0130489D01*
X0032218Y0131087D02*
X0035441Y0131087D01*
X0035441Y0131686D02*
X0032218Y0131686D01*
X0032218Y0132284D02*
X0035174Y0132284D01*
X0034576Y0132883D02*
X0032218Y0132883D01*
X0032218Y0133481D02*
X0034291Y0133481D01*
X0034291Y0134080D02*
X0032130Y0134080D01*
X0032293Y0135875D02*
X0030258Y0135875D01*
X0031515Y0136474D02*
X0032013Y0136474D01*
X0033988Y0136474D02*
X0034176Y0136474D01*
X0034176Y0137072D02*
X0033988Y0137072D01*
X0033988Y0137671D02*
X0034176Y0137671D01*
X0034176Y0138270D02*
X0033988Y0138270D01*
X0033988Y0138868D02*
X0034176Y0138868D01*
X0034176Y0135875D02*
X0033988Y0135875D01*
X0034454Y0135277D02*
X0022770Y0135277D01*
X0022770Y0135875D02*
X0028457Y0135875D01*
X0027200Y0136474D02*
X0022770Y0136474D01*
X0022770Y0137072D02*
X0026602Y0137072D01*
X0026194Y0137671D02*
X0022770Y0137671D01*
X0022770Y0134678D02*
X0034291Y0134678D01*
X0036641Y0134141D02*
X0036641Y0139370D01*
X0039200Y0139370D02*
X0039200Y0102000D01*
X0034500Y0097300D01*
X0028700Y0097300D01*
X0026200Y0094800D01*
X0026200Y0100000D01*
X0028850Y0102650D01*
X0026708Y0105950D02*
X0006000Y0105950D01*
X0006000Y0106548D02*
X0008257Y0106548D01*
X0008461Y0106444D02*
X0009100Y0106237D01*
X0009764Y0106131D01*
X0009800Y0106131D01*
X0009800Y0110100D01*
X0010400Y0110100D01*
X0010400Y0110700D01*
X0014368Y0110700D01*
X0014368Y0110736D01*
X0014263Y0111400D01*
X0014056Y0112039D01*
X0013981Y0112186D01*
X0016800Y0112250D01*
X0016848Y0113781D01*
X0016867Y0113711D01*
X0017038Y0113415D01*
X0017280Y0113173D01*
X0017577Y0113002D01*
X0017907Y0112913D01*
X0019550Y0112913D01*
X0019550Y0115291D01*
X0020150Y0115291D01*
X0020150Y0115891D01*
X0019550Y0115891D01*
X0019550Y0117012D01*
X0020150Y0117015D01*
X0020150Y0115891D01*
X0022922Y0115891D01*
X0022922Y0117028D01*
X0023546Y0117031D01*
X0023546Y0116109D01*
X0025200Y0116109D01*
X0025200Y0116109D01*
X0023546Y0116109D01*
X0023546Y0115052D01*
X0023635Y0114721D01*
X0023806Y0114425D01*
X0024048Y0114183D01*
X0024344Y0114011D01*
X0024675Y0113923D01*
X0025200Y0113923D01*
X0025200Y0114755D01*
X0025200Y0114755D01*
X0025200Y0113923D01*
X0025726Y0113923D01*
X0025988Y0113993D01*
X0026250Y0113923D01*
X0026775Y0113923D01*
X0026775Y0114755D01*
X0026775Y0113923D01*
X0027301Y0113923D01*
X0027631Y0114011D01*
X0027789Y0114102D01*
X0034850Y0114150D01*
X0035441Y0114153D01*
X0035441Y0113782D01*
X0034869Y0114018D01*
X0033330Y0114018D01*
X0031909Y0113430D01*
X0030820Y0112341D01*
X0030231Y0110919D01*
X0030231Y0109380D01*
X0030820Y0107959D01*
X0031909Y0106870D01*
X0033330Y0106281D01*
X0034869Y0106281D01*
X0036291Y0106870D01*
X0037380Y0107959D01*
X0037968Y0109380D01*
X0037968Y0110919D01*
X0037558Y0111911D01*
X0037841Y0112194D01*
X0037841Y0114168D01*
X0038000Y0114169D01*
X0038000Y0102497D01*
X0034003Y0098500D01*
X0028203Y0098500D01*
X0027500Y0097797D01*
X0027400Y0097697D01*
X0027400Y0099063D01*
X0028080Y0098781D01*
X0029619Y0098781D01*
X0031041Y0099370D01*
X0032130Y0100459D01*
X0032718Y0101880D01*
X0032718Y0103419D01*
X0032130Y0104841D01*
X0031041Y0105930D01*
X0029619Y0106518D01*
X0028080Y0106518D01*
X0026659Y0105930D01*
X0025570Y0104841D01*
X0024981Y0103419D01*
X0024981Y0101880D01*
X0025392Y0100889D01*
X0025000Y0100497D01*
X0025000Y0081559D01*
X0026559Y0080000D01*
X0022844Y0080000D01*
X0022081Y0079237D01*
X0019356Y0079237D01*
X0018828Y0078710D01*
X0018828Y0075208D01*
X0019356Y0074681D01*
X0023644Y0074681D01*
X0024172Y0075208D01*
X0024172Y0077600D01*
X0025123Y0077600D01*
X0025106Y0077583D01*
X0028113Y0074576D01*
X0031120Y0071569D01*
X0031659Y0072107D01*
X0031662Y0072113D01*
X0033150Y0070625D01*
X0033150Y0069427D01*
X0034527Y0068050D01*
X0036473Y0068050D01*
X0037850Y0069427D01*
X0037850Y0071050D01*
X0039473Y0071050D01*
X0040850Y0072427D01*
X0040850Y0074050D01*
X0042473Y0074050D01*
X0043850Y0075427D01*
X0043850Y0077050D01*
X0045473Y0077050D01*
X0046850Y0078427D01*
X0046850Y0080050D01*
X0048473Y0080050D01*
X0049300Y0080877D01*
X0049300Y0078897D01*
X0039653Y0069250D01*
X0038027Y0069250D01*
X0036650Y0067873D01*
X0036650Y0065927D01*
X0037377Y0065200D01*
X0036527Y0065200D01*
X0035824Y0064497D01*
X0035556Y0064229D01*
X0034332Y0065454D01*
X0034302Y0065454D01*
X0034302Y0065483D01*
X0032940Y0066846D01*
X0032910Y0066846D01*
X0032910Y0066875D01*
X0031548Y0068238D01*
X0031518Y0068238D01*
X0031518Y0068267D01*
X0030156Y0069630D01*
X0029410Y0069630D01*
X0027205Y0067424D01*
X0022073Y0067424D01*
X0020334Y0069163D01*
X0021200Y0069163D01*
X0021200Y0071541D01*
X0018428Y0071541D01*
X0018428Y0071069D01*
X0012334Y0077163D01*
X0013380Y0078209D01*
X0013968Y0079630D01*
X0013968Y0081169D01*
X0013380Y0082591D01*
X0012291Y0083680D01*
X0010869Y0084268D01*
X0009330Y0084268D01*
X0007909Y0083680D01*
X0006820Y0082591D01*
X0006231Y0081169D01*
X0006231Y0079630D01*
X0006820Y0078209D01*
X0007909Y0077120D01*
X0009330Y0076531D01*
X0009571Y0076531D01*
X0020376Y0065727D01*
X0021079Y0065024D01*
X0024805Y0065024D01*
X0024707Y0064927D01*
X0024707Y0064181D01*
X0025188Y0063700D01*
X0018497Y0063700D01*
X0013558Y0068639D01*
X0013968Y0069630D01*
X0013968Y0071169D01*
X0013380Y0072591D01*
X0012291Y0073680D01*
X0010869Y0074268D01*
X0009330Y0074268D01*
X0007909Y0073680D01*
X0006820Y0072591D01*
X0006231Y0071169D01*
X0006231Y0069630D01*
X0006820Y0068209D01*
X0007909Y0067120D01*
X0009330Y0066531D01*
X0010869Y0066531D01*
X0011861Y0066942D01*
X0017503Y0061300D01*
X0027588Y0061300D01*
X0028716Y0060173D01*
X0017303Y0048760D01*
X0016600Y0048057D01*
X0016600Y0032603D01*
X0017303Y0031900D01*
X0031203Y0031900D01*
X0031650Y0031453D01*
X0031650Y0029827D01*
X0033027Y0028450D01*
X0034973Y0028450D01*
X0035200Y0028677D01*
X0035200Y0025197D01*
X0028784Y0018781D01*
X0027587Y0018781D01*
X0026455Y0018312D01*
X0025700Y0017557D01*
X0024945Y0018312D01*
X0023813Y0018781D01*
X0022587Y0018781D01*
X0021455Y0018312D01*
X0020588Y0017445D01*
X0020119Y0016313D01*
X0020119Y0015087D01*
X0020588Y0013955D01*
X0021076Y0013467D01*
X0020981Y0013404D01*
X0020496Y0012919D01*
X0020115Y0012349D01*
X0019853Y0011715D01*
X0019719Y0011043D01*
X0019719Y0010991D01*
X0022909Y0010991D01*
X0022909Y0010409D01*
X0023491Y0010409D01*
X0023491Y0007219D01*
X0023543Y0007219D01*
X0024215Y0007353D01*
X0024849Y0007615D01*
X0025419Y0007996D01*
X0025904Y0008481D01*
X0025967Y0008576D01*
X0026455Y0008088D01*
X0027587Y0007619D01*
X0028813Y0007619D01*
X0029945Y0008088D01*
X0030700Y0008843D01*
X0031455Y0008088D01*
X0032587Y0007619D01*
X0033813Y0007619D01*
X0034945Y0008088D01*
X0035700Y0008843D01*
X0036455Y0008088D01*
X0037587Y0007619D01*
X0038813Y0007619D01*
X0039945Y0008088D01*
X0040700Y0008843D01*
X0041455Y0008088D01*
X0042587Y0007619D01*
X0043813Y0007619D01*
X0044945Y0008088D01*
X0045812Y0008955D01*
X0046281Y0010087D01*
X0046281Y0011313D01*
X0045812Y0012445D01*
X0045057Y0013200D01*
X0045812Y0013955D01*
X0046121Y0014700D01*
X0048410Y0014700D01*
X0048820Y0013709D01*
X0049909Y0012620D01*
X0051330Y0012031D01*
X0052869Y0012031D01*
X0054291Y0012620D01*
X0055380Y0013709D01*
X0055968Y0015130D01*
X0055968Y0016669D01*
X0055380Y0018091D01*
X0054291Y0019180D01*
X0052869Y0019768D01*
X0051330Y0019768D01*
X0049909Y0019180D01*
X0048820Y0018091D01*
X0048410Y0017100D01*
X0045955Y0017100D01*
X0045812Y0017445D01*
X0044945Y0018312D01*
X0043813Y0018781D01*
X0042587Y0018781D01*
X0041455Y0018312D01*
X0040700Y0017557D01*
X0039945Y0018312D01*
X0038813Y0018781D01*
X0037587Y0018781D01*
X0036455Y0018312D01*
X0035700Y0017557D01*
X0034945Y0018312D01*
X0033813Y0018781D01*
X0032587Y0018781D01*
X0031889Y0018492D01*
X0035250Y0021853D01*
X0035250Y0020727D01*
X0036627Y0019350D01*
X0038573Y0019350D01*
X0039950Y0020727D01*
X0039950Y0022673D01*
X0038800Y0023823D01*
X0038800Y0025088D01*
X0043441Y0025088D01*
X0043968Y0025615D01*
X0043968Y0027671D01*
X0044747Y0028450D01*
X0046053Y0028450D01*
X0047031Y0027471D01*
X0047031Y0025615D01*
X0047559Y0025088D01*
X0052241Y0025088D01*
X0052768Y0025615D01*
X0052768Y0030692D01*
X0052241Y0031219D01*
X0047750Y0031219D01*
X0047750Y0031773D01*
X0047742Y0031781D01*
X0052241Y0031781D01*
X0052768Y0032308D01*
X0052768Y0037385D01*
X0052493Y0037660D01*
X0053359Y0037660D01*
X0053470Y0037770D01*
X0053470Y0037725D01*
X0053997Y0037197D01*
X0058286Y0037197D01*
X0058813Y0037725D01*
X0058813Y0038275D01*
X0058817Y0038275D01*
X0060436Y0039894D01*
X0063162Y0039894D01*
X0063667Y0040400D01*
X0066153Y0040400D01*
X0066153Y0039800D01*
X0062988Y0039800D01*
X0062988Y0037960D01*
X0063077Y0037630D01*
X0063248Y0037333D01*
X0063490Y0037091D01*
X0063786Y0036920D01*
X0064117Y0036831D01*
X0066154Y0036831D01*
X0066154Y0039800D01*
X0066754Y0039800D01*
X0066754Y0040400D01*
X0069919Y0040400D01*
X0069919Y0042240D01*
X0069830Y0042570D01*
X0069659Y0042867D01*
X0069575Y0042951D01*
X0070450Y0043827D01*
X0070450Y0045773D01*
X0069960Y0046263D01*
X0072700Y0046263D01*
X0072700Y0042968D01*
X0070608Y0042968D01*
X0070081Y0042441D01*
X0070081Y0037759D01*
X0070608Y0037231D01*
X0075685Y0037231D01*
X0076212Y0037759D01*
X0076212Y0042441D01*
X0075685Y0042968D01*
X0075100Y0042968D01*
X0075100Y0043703D01*
X0076642Y0042161D01*
X0076231Y0041169D01*
X0076231Y0039630D01*
X0076820Y0038209D01*
X0077909Y0037120D01*
X0079330Y0036531D01*
X0080869Y0036531D01*
X0082291Y0037120D01*
X0083380Y0038209D01*
X0083968Y0039630D01*
X0083968Y0041169D01*
X0083380Y0042591D01*
X0082291Y0043680D01*
X0080869Y0044268D01*
X0079330Y0044268D01*
X0078339Y0043858D01*
X0076900Y0045297D01*
X0076900Y0048129D01*
X0077909Y0047120D01*
X0079330Y0046531D01*
X0080869Y0046531D01*
X0082291Y0047120D01*
X0083380Y0048209D01*
X0083968Y0049630D01*
X0083968Y0051169D01*
X0083380Y0052591D01*
X0082291Y0053680D01*
X0081300Y0054090D01*
X0081300Y0054797D01*
X0080597Y0055500D01*
X0079566Y0056531D01*
X0080869Y0056531D01*
X0082291Y0057120D01*
X0083380Y0058209D01*
X0083968Y0059630D01*
X0083968Y0061169D01*
X0083380Y0062591D01*
X0082291Y0063680D01*
X0080869Y0064268D01*
X0079330Y0064268D01*
X0077909Y0063680D01*
X0076820Y0062591D01*
X0076410Y0061600D01*
X0067912Y0061600D01*
X0069101Y0062789D01*
X0069101Y0062819D01*
X0069130Y0062819D01*
X0070493Y0064181D01*
X0070493Y0064927D01*
X0066219Y0069200D01*
X0076410Y0069200D01*
X0076820Y0068209D01*
X0077909Y0067120D01*
X0079330Y0066531D01*
X0080869Y0066531D01*
X0082291Y0067120D01*
X0083380Y0068209D01*
X0083968Y0069630D01*
X0083968Y0071169D01*
X0083380Y0072591D01*
X0082291Y0073680D01*
X0080869Y0074268D01*
X0079330Y0074268D01*
X0077909Y0073680D01*
X0076820Y0072591D01*
X0076410Y0071600D01*
X0066219Y0071600D01*
X0067995Y0073376D01*
X0072073Y0073376D01*
X0074247Y0075550D01*
X0075873Y0075550D01*
X0077250Y0076927D01*
X0077250Y0077779D01*
X0077909Y0077120D01*
X0079330Y0076531D01*
X0080869Y0076531D01*
X0082291Y0077120D01*
X0083380Y0078209D01*
X0083968Y0079630D01*
X0083968Y0081169D01*
X0083380Y0082591D01*
X0082291Y0083680D01*
X0080869Y0084268D01*
X0079330Y0084268D01*
X0077909Y0083680D01*
X0076820Y0082591D01*
X0076410Y0081600D01*
X0072997Y0081600D01*
X0078339Y0086942D01*
X0079330Y0086531D01*
X0080869Y0086531D01*
X0082291Y0087120D01*
X0083380Y0088209D01*
X0083968Y0089630D01*
X0083968Y0091169D01*
X0083380Y0092591D01*
X0082291Y0093680D01*
X0080869Y0094268D01*
X0079330Y0094268D01*
X0077909Y0093680D01*
X0076820Y0092591D01*
X0076231Y0091169D01*
X0076231Y0089630D01*
X0076642Y0088639D01*
X0071003Y0083000D01*
X0065463Y0083000D01*
X0065069Y0082606D01*
X0065065Y0082612D01*
X0064527Y0083151D01*
X0061520Y0080144D01*
X0061519Y0080144D01*
X0061519Y0080143D01*
X0058512Y0077136D01*
X0059051Y0076598D01*
X0059347Y0076427D01*
X0059678Y0076338D01*
X0059876Y0076338D01*
X0060868Y0075346D01*
X0060898Y0075346D01*
X0060898Y0075317D01*
X0061814Y0074400D01*
X0057103Y0074400D01*
X0056400Y0073697D01*
X0043100Y0060397D01*
X0043100Y0056686D01*
X0042683Y0057102D01*
X0042654Y0057102D01*
X0042654Y0057132D01*
X0041662Y0058124D01*
X0041662Y0058322D01*
X0041573Y0058653D01*
X0041402Y0058949D01*
X0040864Y0059488D01*
X0037857Y0056481D01*
X0037856Y0056481D01*
X0040863Y0059488D01*
X0040325Y0060026D01*
X0040028Y0060197D01*
X0039698Y0060286D01*
X0039500Y0060286D01*
X0038508Y0061278D01*
X0038478Y0061278D01*
X0038478Y0061308D01*
X0037253Y0062532D01*
X0037521Y0062800D01*
X0039997Y0062800D01*
X0052697Y0075500D01*
X0053400Y0076203D01*
X0053400Y0082814D01*
X0053909Y0082306D01*
X0053938Y0082306D01*
X0053938Y0082276D01*
X0055300Y0080914D01*
X0055330Y0080914D01*
X0055330Y0080884D01*
X0056692Y0079522D01*
X0056722Y0079522D01*
X0056722Y0079492D01*
X0057714Y0078500D01*
X0057714Y0078302D01*
X0057803Y0077971D01*
X0057974Y0077675D01*
X0058512Y0077136D01*
X0061519Y0080144D01*
X0064527Y0083151D01*
X0063988Y0083689D01*
X0063982Y0083693D01*
X0064728Y0084439D01*
X0064728Y0084392D01*
X0064817Y0084061D01*
X0064988Y0083765D01*
X0065230Y0083523D01*
X0065527Y0083352D01*
X0065857Y0083263D01*
X0067500Y0083263D01*
X0067500Y0085641D01*
X0068100Y0085641D01*
X0068100Y0086241D01*
X0067500Y0086241D01*
X0067500Y0088619D01*
X0065857Y0088619D01*
X0065800Y0088604D01*
X0065800Y0088781D01*
X0069944Y0088781D01*
X0070472Y0089308D01*
X0070472Y0092810D01*
X0069944Y0093337D01*
X0069000Y0093337D01*
X0069000Y0093777D01*
X0070150Y0094927D01*
X0070150Y0096873D01*
X0069000Y0098023D01*
X0069000Y0106881D01*
X0069370Y0106728D01*
X0070830Y0106728D01*
X0072180Y0107287D01*
X0073213Y0108320D01*
X0073772Y0109670D01*
X0073772Y0111130D01*
X0073213Y0112480D01*
X0072180Y0113513D01*
X0070830Y0114072D01*
X0069370Y0114072D01*
X0068020Y0113513D01*
X0067100Y0112592D01*
X0067100Y0115703D01*
X0068490Y0117093D01*
X0069370Y0116728D01*
X0070830Y0116728D01*
X0072180Y0117287D01*
X0073213Y0118320D01*
X0073772Y0119670D01*
X0073772Y0121130D01*
X0073213Y0122480D01*
X0072180Y0123513D01*
X0070830Y0124072D01*
X0069370Y0124072D01*
X0068020Y0123513D01*
X0066987Y0122480D01*
X0066428Y0121130D01*
X0066428Y0119670D01*
X0066793Y0118790D01*
X0065100Y0117097D01*
X0063407Y0118790D01*
X0063772Y0119670D01*
X0063772Y0121130D01*
X0063213Y0122480D01*
X0062180Y0123513D01*
X0060830Y0124072D01*
X0059370Y0124072D01*
X0058020Y0123513D01*
X0057000Y0122492D01*
X0057000Y0125603D01*
X0058490Y0127093D01*
X0059370Y0126728D01*
X0060830Y0126728D01*
X0062180Y0127287D01*
X0063213Y0128320D01*
X0063772Y0129670D01*
X0063772Y0131130D01*
X0063213Y0132480D01*
X0062180Y0133513D01*
X0060830Y0134072D01*
X0059370Y0134072D01*
X0058020Y0133513D01*
X0056987Y0132480D01*
X0056428Y0131130D01*
X0056428Y0129670D01*
X0056793Y0128790D01*
X0054600Y0126597D01*
X0054600Y0100403D01*
X0055303Y0099700D01*
X0056753Y0098250D01*
X0055427Y0098250D01*
X0054600Y0097423D01*
X0053773Y0098250D01*
X0051827Y0098250D01*
X0051000Y0097423D01*
X0050400Y0098023D01*
X0050400Y0129103D01*
X0055397Y0134100D01*
X0068393Y0134100D01*
X0067966Y0133882D01*
X0067447Y0133506D01*
X0066994Y0133052D01*
X0066618Y0132534D01*
X0066327Y0131963D01*
X0066129Y0131353D01*
X0066028Y0130720D01*
X0066028Y0130700D01*
X0069800Y0130700D01*
X0069800Y0130100D01*
X0070400Y0130100D01*
X0070400Y0130700D01*
X0074172Y0130700D01*
X0074172Y0130720D01*
X0074071Y0131353D01*
X0073873Y0131963D01*
X0073582Y0132534D01*
X0073206Y0133052D01*
X0072752Y0133506D01*
X0072234Y0133882D01*
X0071807Y0134100D01*
X0075497Y0134100D01*
X0078339Y0136942D01*
X0079330Y0136531D01*
X0080869Y0136531D01*
X0082291Y0137120D01*
X0083380Y0138209D01*
X0083968Y0139630D01*
X0083968Y0141169D01*
X0083380Y0142591D01*
X0082291Y0143680D01*
X0080869Y0144268D01*
X0079330Y0144268D01*
X0077909Y0143680D01*
X0076820Y0142591D01*
X0076231Y0141169D01*
X0076231Y0139630D01*
X0076642Y0138639D01*
X0074503Y0136500D01*
X0054403Y0136500D01*
X0053700Y0135797D01*
X0048000Y0130097D01*
X0048000Y0124023D01*
X0047223Y0124800D01*
X0045277Y0124800D01*
X0043900Y0123423D01*
X0043900Y0121477D01*
X0045050Y0120327D01*
X0045050Y0098671D01*
X0044041Y0099680D01*
X0042619Y0100268D01*
X0041366Y0100268D01*
X0042256Y0101159D01*
X0042959Y0101862D01*
X0042959Y0114198D01*
X0043350Y0114200D01*
X0043079Y0135892D01*
X0043158Y0135813D01*
X0045478Y0135813D01*
X0046005Y0136340D01*
X0046005Y0137365D01*
X0046013Y0137346D01*
X0047018Y0136341D01*
X0048332Y0135797D01*
X0049753Y0135797D01*
X0051067Y0136341D01*
X0052072Y0137346D01*
X0052616Y0138659D01*
X0052616Y0140081D01*
X0052072Y0141394D01*
X0051067Y0142399D01*
X0050778Y0142519D01*
X0050761Y0146269D01*
X0052125Y0145704D01*
X0053834Y0145704D01*
X0055413Y0146358D01*
X0056621Y0147567D01*
X0057275Y0149146D01*
X0057275Y0150854D01*
X0056621Y0152433D01*
X0055413Y0153642D01*
X0053834Y0154296D01*
X0052125Y0154296D01*
X0050726Y0153716D01*
X0050723Y0154461D01*
X0084101Y0154461D01*
X0084199Y0006300D01*
X0006000Y0006300D01*
X0006000Y0109205D01*
X0006144Y0108761D01*
X0006449Y0108163D01*
X0006844Y0107619D01*
X0007319Y0107144D01*
X0007863Y0106749D01*
X0008461Y0106444D01*
X0009800Y0106548D02*
X0010400Y0106548D01*
X0010400Y0106131D02*
X0010436Y0106131D01*
X0011100Y0106237D01*
X0011739Y0106444D01*
X0012337Y0106749D01*
X0012881Y0107144D01*
X0013356Y0107619D01*
X0013751Y0108163D01*
X0014056Y0108761D01*
X0014263Y0109400D01*
X0014368Y0110064D01*
X0014368Y0110100D01*
X0010400Y0110100D01*
X0010400Y0106131D01*
X0010400Y0107147D02*
X0009800Y0107147D01*
X0009800Y0107745D02*
X0010400Y0107745D01*
X0010400Y0108344D02*
X0009800Y0108344D01*
X0009800Y0108942D02*
X0010400Y0108942D01*
X0010400Y0109541D02*
X0009800Y0109541D01*
X0010400Y0110139D02*
X0030231Y0110139D01*
X0030231Y0109541D02*
X0014286Y0109541D01*
X0014115Y0108942D02*
X0030413Y0108942D01*
X0030661Y0108344D02*
X0013843Y0108344D01*
X0013447Y0107745D02*
X0031034Y0107745D01*
X0031632Y0107147D02*
X0012883Y0107147D01*
X0011943Y0106548D02*
X0032686Y0106548D01*
X0032166Y0104753D02*
X0038000Y0104753D01*
X0038000Y0105351D02*
X0031619Y0105351D01*
X0030992Y0105950D02*
X0038000Y0105950D01*
X0038000Y0106548D02*
X0035514Y0106548D01*
X0036568Y0107147D02*
X0038000Y0107147D01*
X0038000Y0107745D02*
X0037166Y0107745D01*
X0037539Y0108344D02*
X0038000Y0108344D01*
X0038000Y0108942D02*
X0037787Y0108942D01*
X0037968Y0109541D02*
X0038000Y0109541D01*
X0037968Y0110139D02*
X0038000Y0110139D01*
X0037968Y0110738D02*
X0038000Y0110738D01*
X0038000Y0111337D02*
X0037796Y0111337D01*
X0038000Y0111935D02*
X0037582Y0111935D01*
X0037841Y0112534D02*
X0038000Y0112534D01*
X0038000Y0113132D02*
X0037841Y0113132D01*
X0037841Y0113731D02*
X0038000Y0113731D01*
X0036641Y0112691D02*
X0036641Y0134141D01*
X0031994Y0141861D02*
X0031920Y0141861D01*
X0032064Y0142459D02*
X0031237Y0142459D01*
X0032486Y0143058D02*
X0017400Y0143058D01*
X0017400Y0142459D02*
X0027478Y0142459D01*
X0026795Y0141861D02*
X0017400Y0141861D01*
X0017400Y0141262D02*
X0026274Y0141262D01*
X0026026Y0140664D02*
X0017400Y0140664D01*
X0017400Y0140065D02*
X0025784Y0140065D01*
X0025784Y0139467D02*
X0017522Y0139467D01*
X0018120Y0138868D02*
X0025784Y0138868D01*
X0025946Y0138270D02*
X0018719Y0138270D01*
X0017033Y0136474D02*
X0011797Y0136474D01*
X0011739Y0136444D02*
X0012337Y0136749D01*
X0012881Y0137144D01*
X0013356Y0137619D01*
X0013751Y0138163D01*
X0014056Y0138761D01*
X0014263Y0139400D01*
X0014368Y0140064D01*
X0014368Y0140100D01*
X0010400Y0140100D01*
X0010400Y0136131D01*
X0010436Y0136131D01*
X0011100Y0136237D01*
X0011739Y0136444D01*
X0010400Y0136474D02*
X0009800Y0136474D01*
X0009800Y0137072D02*
X0010400Y0137072D01*
X0010400Y0137671D02*
X0009800Y0137671D01*
X0009800Y0138270D02*
X0010400Y0138270D01*
X0010400Y0138868D02*
X0009800Y0138868D01*
X0009800Y0139467D02*
X0010400Y0139467D01*
X0010400Y0140065D02*
X0009800Y0140065D01*
X0010400Y0140664D02*
X0015000Y0140664D01*
X0015000Y0141262D02*
X0014285Y0141262D01*
X0014263Y0141400D02*
X0014056Y0142039D01*
X0013751Y0142637D01*
X0013356Y0143181D01*
X0012881Y0143656D01*
X0012337Y0144051D01*
X0011739Y0144356D01*
X0011100Y0144563D01*
X0010436Y0144668D01*
X0010400Y0144668D01*
X0010400Y0140700D01*
X0014368Y0140700D01*
X0014368Y0140736D01*
X0014263Y0141400D01*
X0014114Y0141861D02*
X0015000Y0141861D01*
X0015000Y0142459D02*
X0013841Y0142459D01*
X0013445Y0143058D02*
X0015000Y0143058D01*
X0015000Y0143656D02*
X0012880Y0143656D01*
X0011937Y0144255D02*
X0014548Y0144255D01*
X0013950Y0144853D02*
X0006000Y0144853D01*
X0006000Y0144255D02*
X0008263Y0144255D01*
X0007320Y0143656D02*
X0006000Y0143656D01*
X0006000Y0143058D02*
X0006755Y0143058D01*
X0006359Y0142459D02*
X0006000Y0142459D01*
X0006000Y0141861D02*
X0006086Y0141861D01*
X0006110Y0138868D02*
X0006000Y0138868D01*
X0006000Y0138270D02*
X0006395Y0138270D01*
X0006000Y0137671D02*
X0006807Y0137671D01*
X0007418Y0137072D02*
X0006000Y0137072D01*
X0006000Y0136474D02*
X0008403Y0136474D01*
X0009330Y0134268D02*
X0007909Y0133680D01*
X0006820Y0132591D01*
X0006231Y0131169D01*
X0006231Y0129630D01*
X0006820Y0128209D01*
X0007909Y0127120D01*
X0009330Y0126531D01*
X0010869Y0126531D01*
X0012291Y0127120D01*
X0013380Y0128209D01*
X0013968Y0129630D01*
X0013968Y0131169D01*
X0013380Y0132591D01*
X0012291Y0133680D01*
X0010869Y0134268D01*
X0009330Y0134268D01*
X0008875Y0134080D02*
X0006000Y0134080D01*
X0006000Y0134678D02*
X0017033Y0134678D01*
X0017033Y0134080D02*
X0011325Y0134080D01*
X0012489Y0133481D02*
X0017033Y0133481D01*
X0017199Y0132883D02*
X0013088Y0132883D01*
X0013507Y0132284D02*
X0026481Y0132284D01*
X0026481Y0131686D02*
X0013755Y0131686D01*
X0013968Y0131087D02*
X0026481Y0131087D01*
X0026481Y0130489D02*
X0022532Y0130489D01*
X0022770Y0130251D02*
X0022242Y0130778D01*
X0017560Y0130778D01*
X0017033Y0130251D01*
X0017033Y0125569D01*
X0017560Y0125041D01*
X0022242Y0125041D01*
X0022770Y0125569D01*
X0022770Y0130251D01*
X0022770Y0129890D02*
X0026481Y0129890D01*
X0026498Y0129292D02*
X0022770Y0129292D01*
X0022770Y0128693D02*
X0028137Y0128693D01*
X0027539Y0128095D02*
X0022770Y0128095D01*
X0022770Y0127496D02*
X0026940Y0127496D01*
X0026342Y0126898D02*
X0022770Y0126898D01*
X0022770Y0126299D02*
X0025743Y0126299D01*
X0025145Y0125701D02*
X0022770Y0125701D01*
X0022303Y0125102D02*
X0024546Y0125102D01*
X0024000Y0124504D02*
X0011283Y0124504D01*
X0011100Y0124563D02*
X0010436Y0124668D01*
X0010400Y0124668D01*
X0010400Y0120700D01*
X0014368Y0120700D01*
X0014368Y0120736D01*
X0014263Y0121400D01*
X0014056Y0122039D01*
X0013751Y0122637D01*
X0013356Y0123181D01*
X0012881Y0123656D01*
X0012337Y0124051D01*
X0011739Y0124356D01*
X0011100Y0124563D01*
X0010400Y0124504D02*
X0009800Y0124504D01*
X0009800Y0123905D02*
X0010400Y0123905D01*
X0010400Y0123307D02*
X0009800Y0123307D01*
X0009800Y0122708D02*
X0010400Y0122708D01*
X0010400Y0122110D02*
X0009800Y0122110D01*
X0009800Y0121511D02*
X0010400Y0121511D01*
X0010400Y0120913D02*
X0009800Y0120913D01*
X0010400Y0120314D02*
X0016778Y0120314D01*
X0016778Y0119716D02*
X0014313Y0119716D01*
X0014263Y0119400D02*
X0014368Y0120064D01*
X0014368Y0120100D01*
X0010400Y0120100D01*
X0010400Y0116131D01*
X0010436Y0116131D01*
X0011100Y0116237D01*
X0011739Y0116444D01*
X0012337Y0116749D01*
X0012881Y0117144D01*
X0013356Y0117619D01*
X0013751Y0118163D01*
X0014056Y0118761D01*
X0014263Y0119400D01*
X0014171Y0119117D02*
X0016790Y0119117D01*
X0015403Y0118519D02*
X0013932Y0118519D01*
X0013574Y0117920D02*
X0015421Y0117920D01*
X0015440Y0117322D02*
X0013058Y0117322D01*
X0012286Y0116723D02*
X0015459Y0116723D01*
X0015477Y0116125D02*
X0006000Y0116125D01*
X0006000Y0116723D02*
X0007914Y0116723D01*
X0007142Y0117322D02*
X0006000Y0117322D01*
X0006000Y0117920D02*
X0006626Y0117920D01*
X0006268Y0118519D02*
X0006000Y0118519D01*
X0006000Y0119117D02*
X0006029Y0119117D01*
X0006000Y0122110D02*
X0006180Y0122110D01*
X0006000Y0122708D02*
X0006501Y0122708D01*
X0006970Y0123307D02*
X0006000Y0123307D01*
X0006000Y0123905D02*
X0007663Y0123905D01*
X0008917Y0124504D02*
X0006000Y0124504D01*
X0006000Y0125102D02*
X0017499Y0125102D01*
X0017033Y0125701D02*
X0006000Y0125701D01*
X0006000Y0126299D02*
X0017033Y0126299D01*
X0017033Y0126898D02*
X0011754Y0126898D01*
X0012667Y0127496D02*
X0017033Y0127496D01*
X0017033Y0128095D02*
X0013266Y0128095D01*
X0013580Y0128693D02*
X0017033Y0128693D01*
X0017033Y0129292D02*
X0013828Y0129292D01*
X0013968Y0129890D02*
X0017033Y0129890D01*
X0017270Y0130489D02*
X0013968Y0130489D01*
X0017033Y0135277D02*
X0006000Y0135277D01*
X0006000Y0135875D02*
X0017033Y0135875D01*
X0016522Y0137072D02*
X0012782Y0137072D01*
X0013393Y0137671D02*
X0015923Y0137671D01*
X0015325Y0138270D02*
X0013805Y0138270D01*
X0014090Y0138868D02*
X0015000Y0138868D01*
X0015000Y0139467D02*
X0014274Y0139467D01*
X0014368Y0140065D02*
X0015000Y0140065D01*
X0016200Y0139091D02*
X0019901Y0135390D01*
X0022604Y0132883D02*
X0026481Y0132883D01*
X0026481Y0133481D02*
X0022770Y0133481D01*
X0022770Y0134080D02*
X0026570Y0134080D01*
X0029350Y0131650D02*
X0029350Y0128209D01*
X0025200Y0124059D01*
X0025200Y0120636D01*
X0023946Y0120913D02*
X0020150Y0120913D01*
X0019850Y0120709D02*
X0022615Y0120709D01*
X0024473Y0118850D01*
X0026297Y0118850D01*
X0026775Y0118372D01*
X0028350Y0118372D01*
X0028350Y0116109D01*
X0028800Y0116109D02*
X0030004Y0116109D01*
X0030004Y0117166D01*
X0029916Y0117496D01*
X0029902Y0117521D01*
X0029925Y0117610D01*
X0030038Y0117415D01*
X0030280Y0117173D01*
X0030577Y0117002D01*
X0030907Y0116913D01*
X0032550Y0116913D01*
X0032550Y0119291D01*
X0033150Y0119291D01*
X0033150Y0116913D01*
X0034793Y0116913D01*
X0035123Y0117002D01*
X0035420Y0117173D01*
X0035441Y0117194D01*
X0035441Y0115400D01*
X0030004Y0115400D01*
X0030004Y0116109D01*
X0028800Y0116109D01*
X0028800Y0116109D01*
X0030004Y0116125D02*
X0035441Y0116125D01*
X0035441Y0116723D02*
X0030004Y0116723D01*
X0029963Y0117322D02*
X0030131Y0117322D01*
X0030004Y0115526D02*
X0035441Y0115526D01*
X0036641Y0112691D02*
X0034100Y0110150D01*
X0032635Y0113731D02*
X0022838Y0113731D01*
X0022833Y0113711D02*
X0022922Y0114042D01*
X0022922Y0115291D01*
X0020150Y0115291D01*
X0020150Y0112913D01*
X0021793Y0112913D01*
X0022123Y0113002D01*
X0022420Y0113173D01*
X0022662Y0113415D01*
X0022833Y0113711D01*
X0022922Y0114329D02*
X0023901Y0114329D01*
X0023579Y0114928D02*
X0022922Y0114928D01*
X0023546Y0115526D02*
X0020150Y0115526D01*
X0019850Y0115591D02*
X0019850Y0116109D01*
X0025200Y0116109D01*
X0026775Y0116109D01*
X0025201Y0116109D01*
X0025201Y0116109D01*
X0026775Y0116109D01*
X0026775Y0116109D01*
X0026775Y0114755D02*
X0026775Y0114755D01*
X0026775Y0114329D02*
X0026775Y0114329D01*
X0025200Y0114329D02*
X0025200Y0114329D01*
X0023546Y0116125D02*
X0022922Y0116125D01*
X0022922Y0116723D02*
X0023546Y0116723D01*
X0023625Y0119117D02*
X0022910Y0119117D01*
X0022922Y0119716D02*
X0023858Y0119716D01*
X0023946Y0120314D02*
X0022922Y0120314D01*
X0022922Y0121511D02*
X0023946Y0121511D01*
X0024000Y0122110D02*
X0022922Y0122110D01*
X0022764Y0122708D02*
X0024000Y0122708D01*
X0024000Y0123307D02*
X0022092Y0123307D01*
X0020150Y0123307D02*
X0019550Y0123307D01*
X0019550Y0123387D02*
X0017907Y0123387D01*
X0017577Y0123298D01*
X0017280Y0123127D01*
X0017038Y0122885D01*
X0016867Y0122589D01*
X0016778Y0122258D01*
X0016778Y0121009D01*
X0019550Y0121009D01*
X0019550Y0123387D01*
X0019550Y0122708D02*
X0020150Y0122708D01*
X0020150Y0122110D02*
X0019550Y0122110D01*
X0019550Y0121511D02*
X0020150Y0121511D01*
X0019550Y0120913D02*
X0014341Y0120913D01*
X0014227Y0121511D02*
X0016778Y0121511D01*
X0016778Y0122110D02*
X0014020Y0122110D01*
X0013699Y0122708D02*
X0016936Y0122708D01*
X0017608Y0123307D02*
X0013230Y0123307D01*
X0012537Y0123905D02*
X0024000Y0123905D01*
X0020150Y0116723D02*
X0019550Y0116723D01*
X0019550Y0116125D02*
X0020150Y0116125D01*
X0020150Y0114928D02*
X0019550Y0114928D01*
X0019550Y0114329D02*
X0020150Y0114329D01*
X0020150Y0113731D02*
X0019550Y0113731D01*
X0019550Y0113132D02*
X0020150Y0113132D01*
X0022349Y0113132D02*
X0031611Y0113132D01*
X0031013Y0112534D02*
X0016809Y0112534D01*
X0016828Y0113132D02*
X0017351Y0113132D01*
X0016862Y0113731D02*
X0016847Y0113731D01*
X0015533Y0114329D02*
X0006000Y0114329D01*
X0006000Y0114928D02*
X0015515Y0114928D01*
X0015496Y0115526D02*
X0006000Y0115526D01*
X0009800Y0116723D02*
X0010400Y0116723D01*
X0010400Y0117322D02*
X0009800Y0117322D01*
X0009800Y0117920D02*
X0010400Y0117920D01*
X0010400Y0118519D02*
X0009800Y0118519D01*
X0009800Y0119117D02*
X0010400Y0119117D01*
X0010400Y0119716D02*
X0009800Y0119716D01*
X0008446Y0126898D02*
X0006000Y0126898D01*
X0006000Y0127496D02*
X0007533Y0127496D01*
X0006934Y0128095D02*
X0006000Y0128095D01*
X0006000Y0128693D02*
X0006620Y0128693D01*
X0006372Y0129292D02*
X0006000Y0129292D01*
X0006000Y0129890D02*
X0006231Y0129890D01*
X0006231Y0130489D02*
X0006000Y0130489D01*
X0006000Y0131087D02*
X0006231Y0131087D01*
X0006445Y0131686D02*
X0006000Y0131686D01*
X0006000Y0132284D02*
X0006693Y0132284D01*
X0007112Y0132883D02*
X0006000Y0132883D01*
X0006000Y0133481D02*
X0007711Y0133481D01*
X0009800Y0141262D02*
X0010400Y0141262D01*
X0010400Y0141861D02*
X0009800Y0141861D01*
X0009800Y0142459D02*
X0010400Y0142459D01*
X0010400Y0143058D02*
X0009800Y0143058D01*
X0009800Y0143656D02*
X0010400Y0143656D01*
X0010400Y0144255D02*
X0009800Y0144255D01*
X0009048Y0146649D02*
X0006000Y0146649D01*
X0006000Y0147247D02*
X0007782Y0147247D01*
X0007183Y0147846D02*
X0006000Y0147846D01*
X0006000Y0148444D02*
X0006723Y0148444D01*
X0006475Y0149043D02*
X0006000Y0149043D01*
X0006000Y0149641D02*
X0006231Y0149641D01*
X0006231Y0150240D02*
X0006000Y0150240D01*
X0006000Y0150838D02*
X0006231Y0150838D01*
X0006342Y0151437D02*
X0006000Y0151437D01*
X0006000Y0152035D02*
X0006590Y0152035D01*
X0006863Y0152634D02*
X0006000Y0152634D01*
X0006000Y0153232D02*
X0007461Y0153232D01*
X0008274Y0153831D02*
X0006000Y0153831D01*
X0006000Y0154429D02*
X0049231Y0154429D01*
X0049234Y0153831D02*
X0047567Y0153831D01*
X0047447Y0153951D02*
X0039811Y0153951D01*
X0039284Y0153424D01*
X0039284Y0146576D01*
X0039811Y0146049D01*
X0047447Y0146049D01*
X0047974Y0146576D01*
X0047974Y0153424D01*
X0047447Y0153951D01*
X0047974Y0153232D02*
X0049238Y0153232D01*
X0049241Y0152634D02*
X0047974Y0152634D01*
X0047974Y0152035D02*
X0049173Y0152035D01*
X0048925Y0151437D02*
X0047974Y0151437D01*
X0047974Y0150838D02*
X0048684Y0150838D01*
X0048684Y0150240D02*
X0047974Y0150240D01*
X0047974Y0149641D02*
X0048684Y0149641D01*
X0048726Y0149043D02*
X0047974Y0149043D01*
X0047974Y0148444D02*
X0048974Y0148444D01*
X0049222Y0147846D02*
X0047974Y0147846D01*
X0047974Y0147247D02*
X0049273Y0147247D01*
X0049276Y0146649D02*
X0047974Y0146649D01*
X0047448Y0146050D02*
X0049280Y0146050D01*
X0049283Y0145452D02*
X0044863Y0145452D01*
X0045462Y0144853D02*
X0049287Y0144853D01*
X0049290Y0144255D02*
X0045518Y0144255D01*
X0045518Y0143656D02*
X0049294Y0143656D01*
X0049297Y0143058D02*
X0045518Y0143058D01*
X0045947Y0142459D02*
X0047163Y0142459D01*
X0046480Y0141861D02*
X0046005Y0141861D01*
X0044318Y0144300D02*
X0016200Y0144300D01*
X0016200Y0139091D01*
X0016200Y0144300D02*
X0010100Y0150400D01*
X0011152Y0146649D02*
X0012154Y0146649D01*
X0012753Y0146050D02*
X0006000Y0146050D01*
X0006000Y0145452D02*
X0013351Y0145452D01*
X0014950Y0147247D02*
X0022098Y0147247D01*
X0021779Y0147567D02*
X0022987Y0146358D01*
X0024566Y0145704D01*
X0026275Y0145704D01*
X0027854Y0146358D01*
X0029062Y0147567D01*
X0029716Y0149146D01*
X0029716Y0150854D01*
X0029062Y0152433D01*
X0027854Y0153642D01*
X0026275Y0154296D01*
X0024566Y0154296D01*
X0022987Y0153642D01*
X0021779Y0152433D01*
X0021125Y0150854D01*
X0021125Y0149146D01*
X0021779Y0147567D01*
X0021663Y0147846D02*
X0014351Y0147846D01*
X0013753Y0148444D02*
X0021415Y0148444D01*
X0021167Y0149043D02*
X0013725Y0149043D01*
X0013968Y0149641D02*
X0021125Y0149641D01*
X0021125Y0150240D02*
X0013968Y0150240D01*
X0013968Y0150838D02*
X0021125Y0150838D01*
X0021366Y0151437D02*
X0013858Y0151437D01*
X0013610Y0152035D02*
X0021614Y0152035D01*
X0021979Y0152634D02*
X0013337Y0152634D01*
X0012739Y0153232D02*
X0022578Y0153232D01*
X0023444Y0153831D02*
X0011926Y0153831D01*
X0015548Y0146649D02*
X0022697Y0146649D01*
X0023731Y0146050D02*
X0016147Y0146050D01*
X0027110Y0146050D02*
X0030952Y0146050D01*
X0030953Y0146049D02*
X0030426Y0146576D01*
X0030426Y0153424D01*
X0030953Y0153951D01*
X0038589Y0153951D01*
X0039116Y0153424D01*
X0039116Y0146576D01*
X0038589Y0146049D01*
X0030953Y0146049D01*
X0030426Y0146649D02*
X0028144Y0146649D01*
X0028743Y0147247D02*
X0030426Y0147247D01*
X0030426Y0147846D02*
X0029178Y0147846D01*
X0029426Y0148444D02*
X0030426Y0148444D01*
X0030426Y0149043D02*
X0029674Y0149043D01*
X0029716Y0149641D02*
X0030426Y0149641D01*
X0030426Y0150240D02*
X0029716Y0150240D01*
X0029716Y0150838D02*
X0030426Y0150838D01*
X0030426Y0151437D02*
X0029475Y0151437D01*
X0029227Y0152035D02*
X0030426Y0152035D01*
X0030426Y0152634D02*
X0028862Y0152634D01*
X0028263Y0153232D02*
X0030426Y0153232D01*
X0030833Y0153831D02*
X0027397Y0153831D01*
X0038709Y0153831D02*
X0039691Y0153831D01*
X0039284Y0153232D02*
X0039116Y0153232D01*
X0039116Y0152634D02*
X0039284Y0152634D01*
X0039284Y0152035D02*
X0039116Y0152035D01*
X0039116Y0151437D02*
X0039284Y0151437D01*
X0039284Y0150838D02*
X0039116Y0150838D01*
X0039116Y0150240D02*
X0039284Y0150240D01*
X0039284Y0149641D02*
X0039116Y0149641D01*
X0039116Y0149043D02*
X0039284Y0149043D01*
X0039284Y0148444D02*
X0039116Y0148444D01*
X0039116Y0147846D02*
X0039284Y0147846D01*
X0039284Y0147247D02*
X0039116Y0147247D01*
X0039116Y0146649D02*
X0039284Y0146649D01*
X0039810Y0146050D02*
X0038590Y0146050D01*
X0041759Y0139370D02*
X0041759Y0102359D01*
X0035300Y0095900D01*
X0041350Y0095900D01*
X0041850Y0096400D01*
X0043353Y0099965D02*
X0045050Y0099965D01*
X0045050Y0100563D02*
X0041660Y0100563D01*
X0042259Y0101162D02*
X0045050Y0101162D01*
X0045050Y0101760D02*
X0042857Y0101760D01*
X0042959Y0102359D02*
X0045050Y0102359D01*
X0045050Y0102957D02*
X0042959Y0102957D01*
X0042959Y0103556D02*
X0045050Y0103556D01*
X0045050Y0104154D02*
X0042959Y0104154D01*
X0042959Y0104753D02*
X0045050Y0104753D01*
X0045050Y0105351D02*
X0042959Y0105351D01*
X0042959Y0105950D02*
X0045050Y0105950D01*
X0045050Y0106548D02*
X0042959Y0106548D01*
X0042959Y0107147D02*
X0045050Y0107147D01*
X0045050Y0107745D02*
X0042959Y0107745D01*
X0042959Y0108344D02*
X0045050Y0108344D01*
X0045050Y0108942D02*
X0042959Y0108942D01*
X0042959Y0109541D02*
X0045050Y0109541D01*
X0045050Y0110139D02*
X0042959Y0110139D01*
X0042959Y0110738D02*
X0045050Y0110738D01*
X0045050Y0111337D02*
X0042959Y0111337D01*
X0042959Y0111935D02*
X0045050Y0111935D01*
X0045050Y0112534D02*
X0042959Y0112534D01*
X0042959Y0113132D02*
X0045050Y0113132D01*
X0045050Y0113731D02*
X0042959Y0113731D01*
X0043348Y0114329D02*
X0045050Y0114329D01*
X0045050Y0114928D02*
X0043341Y0114928D01*
X0043333Y0115526D02*
X0045050Y0115526D01*
X0045050Y0116125D02*
X0043326Y0116125D01*
X0043318Y0116723D02*
X0045050Y0116723D01*
X0045050Y0117322D02*
X0043311Y0117322D01*
X0043304Y0117920D02*
X0045050Y0117920D01*
X0045050Y0118519D02*
X0043296Y0118519D01*
X0043289Y0119117D02*
X0045050Y0119117D01*
X0045050Y0119716D02*
X0043281Y0119716D01*
X0043274Y0120314D02*
X0045050Y0120314D01*
X0044464Y0120913D02*
X0043266Y0120913D01*
X0043259Y0121511D02*
X0043900Y0121511D01*
X0043900Y0122110D02*
X0043251Y0122110D01*
X0043244Y0122708D02*
X0043900Y0122708D01*
X0043900Y0123307D02*
X0043236Y0123307D01*
X0043229Y0123905D02*
X0044382Y0123905D01*
X0044980Y0124504D02*
X0043221Y0124504D01*
X0043214Y0125102D02*
X0048000Y0125102D01*
X0048000Y0124504D02*
X0047520Y0124504D01*
X0048000Y0125701D02*
X0043206Y0125701D01*
X0043199Y0126299D02*
X0048000Y0126299D01*
X0048000Y0126898D02*
X0043191Y0126898D01*
X0043184Y0127496D02*
X0048000Y0127496D01*
X0048000Y0128095D02*
X0043176Y0128095D01*
X0043169Y0128693D02*
X0048000Y0128693D01*
X0048000Y0129292D02*
X0043161Y0129292D01*
X0043154Y0129890D02*
X0048000Y0129890D01*
X0048392Y0130489D02*
X0043146Y0130489D01*
X0043139Y0131087D02*
X0048990Y0131087D01*
X0049589Y0131686D02*
X0043131Y0131686D01*
X0043124Y0132284D02*
X0050187Y0132284D01*
X0050786Y0132883D02*
X0043116Y0132883D01*
X0043109Y0133481D02*
X0051384Y0133481D01*
X0051983Y0134080D02*
X0043102Y0134080D01*
X0043094Y0134678D02*
X0052581Y0134678D01*
X0053180Y0135277D02*
X0043087Y0135277D01*
X0043079Y0135875D02*
X0043095Y0135875D01*
X0044318Y0139370D02*
X0044318Y0144300D01*
X0046005Y0137072D02*
X0046287Y0137072D01*
X0046005Y0136474D02*
X0046885Y0136474D01*
X0048142Y0135875D02*
X0045541Y0135875D01*
X0049200Y0129600D02*
X0054900Y0135300D01*
X0075000Y0135300D01*
X0080100Y0140400D01*
X0082176Y0137072D02*
X0084112Y0137072D01*
X0084113Y0136474D02*
X0077871Y0136474D01*
X0077273Y0135875D02*
X0084113Y0135875D01*
X0084113Y0135277D02*
X0076674Y0135277D01*
X0076075Y0134678D02*
X0084114Y0134678D01*
X0084114Y0134080D02*
X0081325Y0134080D01*
X0080869Y0134268D02*
X0079330Y0134268D01*
X0077909Y0133680D01*
X0076820Y0132591D01*
X0076231Y0131169D01*
X0076231Y0129630D01*
X0076820Y0128209D01*
X0077909Y0127120D01*
X0079330Y0126531D01*
X0080869Y0126531D01*
X0082291Y0127120D01*
X0083380Y0128209D01*
X0083968Y0129630D01*
X0083968Y0131169D01*
X0083380Y0132591D01*
X0082291Y0133680D01*
X0080869Y0134268D01*
X0082489Y0133481D02*
X0084115Y0133481D01*
X0084115Y0132883D02*
X0083088Y0132883D01*
X0083507Y0132284D02*
X0084115Y0132284D01*
X0084116Y0131686D02*
X0083755Y0131686D01*
X0083968Y0131087D02*
X0084116Y0131087D01*
X0084117Y0130489D02*
X0083968Y0130489D01*
X0083968Y0129890D02*
X0084117Y0129890D01*
X0084117Y0129292D02*
X0083828Y0129292D01*
X0083580Y0128693D02*
X0084118Y0128693D01*
X0084118Y0128095D02*
X0083266Y0128095D01*
X0082667Y0127496D02*
X0084119Y0127496D01*
X0084119Y0126898D02*
X0081754Y0126898D01*
X0080869Y0124268D02*
X0079330Y0124268D01*
X0077909Y0123680D01*
X0076820Y0122591D01*
X0076231Y0121169D01*
X0076231Y0119630D01*
X0076820Y0118209D01*
X0077909Y0117120D01*
X0079330Y0116531D01*
X0080869Y0116531D01*
X0082291Y0117120D01*
X0083380Y0118209D01*
X0083968Y0119630D01*
X0083968Y0121169D01*
X0083380Y0122591D01*
X0082291Y0123680D01*
X0080869Y0124268D01*
X0081746Y0123905D02*
X0084121Y0123905D01*
X0084121Y0123307D02*
X0082664Y0123307D01*
X0083263Y0122708D02*
X0084122Y0122708D01*
X0084122Y0122110D02*
X0083579Y0122110D01*
X0083827Y0121511D02*
X0084123Y0121511D01*
X0084123Y0120913D02*
X0083968Y0120913D01*
X0083968Y0120314D02*
X0084123Y0120314D01*
X0084124Y0119716D02*
X0083968Y0119716D01*
X0084124Y0119117D02*
X0083756Y0119117D01*
X0083508Y0118519D02*
X0084125Y0118519D01*
X0084125Y0117920D02*
X0083091Y0117920D01*
X0082493Y0117322D02*
X0084125Y0117322D01*
X0084126Y0116723D02*
X0081332Y0116723D01*
X0080869Y0114268D02*
X0079330Y0114268D01*
X0077909Y0113680D01*
X0076820Y0112591D01*
X0076231Y0111169D01*
X0076231Y0109630D01*
X0076820Y0108209D01*
X0077909Y0107120D01*
X0079330Y0106531D01*
X0080869Y0106531D01*
X0082291Y0107120D01*
X0083380Y0108209D01*
X0083968Y0109630D01*
X0083968Y0111169D01*
X0083380Y0112591D01*
X0082291Y0113680D01*
X0080869Y0114268D01*
X0082168Y0113731D02*
X0084128Y0113731D01*
X0084127Y0114329D02*
X0067100Y0114329D01*
X0067100Y0113731D02*
X0068546Y0113731D01*
X0067640Y0113132D02*
X0067100Y0113132D01*
X0067100Y0114928D02*
X0084127Y0114928D01*
X0084127Y0115526D02*
X0067100Y0115526D01*
X0067522Y0116125D02*
X0084126Y0116125D01*
X0084128Y0113132D02*
X0082839Y0113132D01*
X0083403Y0112534D02*
X0084129Y0112534D01*
X0084129Y0111935D02*
X0083651Y0111935D01*
X0083899Y0111337D02*
X0084129Y0111337D01*
X0084130Y0110738D02*
X0083968Y0110738D01*
X0083968Y0110139D02*
X0084130Y0110139D01*
X0084131Y0109541D02*
X0083931Y0109541D01*
X0084131Y0108942D02*
X0083683Y0108942D01*
X0083436Y0108344D02*
X0084131Y0108344D01*
X0084132Y0107745D02*
X0082916Y0107745D01*
X0082318Y0107147D02*
X0084132Y0107147D01*
X0084133Y0106548D02*
X0080910Y0106548D01*
X0080869Y0104268D02*
X0079330Y0104268D01*
X0077909Y0103680D01*
X0076820Y0102591D01*
X0076231Y0101169D01*
X0076231Y0099630D01*
X0076820Y0098209D01*
X0077909Y0097120D01*
X0079330Y0096531D01*
X0080869Y0096531D01*
X0082291Y0097120D01*
X0083380Y0098209D01*
X0083968Y0099630D01*
X0083968Y0101169D01*
X0083380Y0102591D01*
X0082291Y0103680D01*
X0080869Y0104268D01*
X0081145Y0104154D02*
X0084134Y0104154D01*
X0084135Y0103556D02*
X0082415Y0103556D01*
X0083014Y0102957D02*
X0084135Y0102957D01*
X0084135Y0102359D02*
X0083476Y0102359D01*
X0083724Y0101760D02*
X0084136Y0101760D01*
X0084136Y0101162D02*
X0083968Y0101162D01*
X0083968Y0100563D02*
X0084137Y0100563D01*
X0084137Y0099965D02*
X0083968Y0099965D01*
X0083859Y0099366D02*
X0084137Y0099366D01*
X0084138Y0098768D02*
X0083611Y0098768D01*
X0083340Y0098169D02*
X0084138Y0098169D01*
X0084139Y0097571D02*
X0082742Y0097571D01*
X0081934Y0096972D02*
X0084139Y0096972D01*
X0084139Y0096374D02*
X0070150Y0096374D01*
X0070150Y0095775D02*
X0084140Y0095775D01*
X0084140Y0095177D02*
X0070150Y0095177D01*
X0069802Y0094578D02*
X0084141Y0094578D01*
X0084141Y0093980D02*
X0081567Y0093980D01*
X0082590Y0093381D02*
X0084141Y0093381D01*
X0084142Y0092783D02*
X0083188Y0092783D01*
X0083548Y0092184D02*
X0084142Y0092184D01*
X0084143Y0091586D02*
X0083796Y0091586D01*
X0083968Y0090987D02*
X0084143Y0090987D01*
X0084143Y0090389D02*
X0083968Y0090389D01*
X0083968Y0089790D02*
X0084144Y0089790D01*
X0084144Y0089192D02*
X0083787Y0089192D01*
X0083539Y0088593D02*
X0084145Y0088593D01*
X0084145Y0087995D02*
X0083165Y0087995D01*
X0082567Y0087396D02*
X0084145Y0087396D01*
X0084146Y0086798D02*
X0081512Y0086798D01*
X0081989Y0083805D02*
X0084148Y0083805D01*
X0084147Y0084403D02*
X0075801Y0084403D01*
X0075202Y0083805D02*
X0078211Y0083805D01*
X0077436Y0083206D02*
X0074604Y0083206D01*
X0074005Y0082608D02*
X0076837Y0082608D01*
X0076579Y0082009D02*
X0073406Y0082009D01*
X0071808Y0083805D02*
X0070635Y0083805D01*
X0070612Y0083765D02*
X0070783Y0084061D01*
X0070872Y0084392D01*
X0070872Y0085641D01*
X0068100Y0085641D01*
X0068100Y0083263D01*
X0069743Y0083263D01*
X0070073Y0083352D01*
X0070370Y0083523D01*
X0070612Y0083765D01*
X0070872Y0084403D02*
X0072406Y0084403D01*
X0073005Y0085002D02*
X0070872Y0085002D01*
X0070872Y0085601D02*
X0073603Y0085601D01*
X0074202Y0086199D02*
X0068100Y0086199D01*
X0068100Y0086241D02*
X0070872Y0086241D01*
X0070872Y0087490D01*
X0070783Y0087821D01*
X0070612Y0088117D01*
X0070370Y0088359D01*
X0070073Y0088530D01*
X0069743Y0088619D01*
X0068100Y0088619D01*
X0068100Y0086241D01*
X0068100Y0086798D02*
X0067500Y0086798D01*
X0067500Y0087396D02*
X0068100Y0087396D01*
X0068100Y0087995D02*
X0067500Y0087995D01*
X0067500Y0088593D02*
X0068100Y0088593D01*
X0069839Y0088593D02*
X0076596Y0088593D01*
X0076413Y0089192D02*
X0070355Y0089192D01*
X0070472Y0089790D02*
X0076231Y0089790D01*
X0076231Y0090389D02*
X0070472Y0090389D01*
X0070472Y0090987D02*
X0076231Y0090987D01*
X0076404Y0091586D02*
X0070472Y0091586D01*
X0070472Y0092184D02*
X0076652Y0092184D01*
X0077012Y0092783D02*
X0070472Y0092783D01*
X0069000Y0093381D02*
X0077610Y0093381D01*
X0078633Y0093980D02*
X0069203Y0093980D01*
X0067800Y0095900D02*
X0067800Y0091059D01*
X0064600Y0092700D02*
X0067800Y0095900D01*
X0067800Y0108100D01*
X0070100Y0110400D01*
X0071654Y0113731D02*
X0078032Y0113731D01*
X0077361Y0113132D02*
X0072560Y0113132D01*
X0073159Y0112534D02*
X0076797Y0112534D01*
X0076549Y0111935D02*
X0073438Y0111935D01*
X0073686Y0111337D02*
X0076301Y0111337D01*
X0076231Y0110738D02*
X0073772Y0110738D01*
X0073772Y0110139D02*
X0076231Y0110139D01*
X0076269Y0109541D02*
X0073718Y0109541D01*
X0073470Y0108942D02*
X0076516Y0108942D01*
X0076764Y0108344D02*
X0073223Y0108344D01*
X0072638Y0107745D02*
X0077284Y0107745D01*
X0077882Y0107147D02*
X0071841Y0107147D01*
X0069000Y0106548D02*
X0079290Y0106548D01*
X0079055Y0104154D02*
X0069000Y0104154D01*
X0069000Y0103556D02*
X0077785Y0103556D01*
X0077186Y0102957D02*
X0069000Y0102957D01*
X0069000Y0102359D02*
X0076724Y0102359D01*
X0076476Y0101760D02*
X0069000Y0101760D01*
X0069000Y0101162D02*
X0076231Y0101162D01*
X0076231Y0100563D02*
X0069000Y0100563D01*
X0069000Y0099965D02*
X0076231Y0099965D01*
X0076341Y0099366D02*
X0069000Y0099366D01*
X0069000Y0098768D02*
X0076589Y0098768D01*
X0076860Y0098169D02*
X0069000Y0098169D01*
X0069453Y0097571D02*
X0077458Y0097571D01*
X0078266Y0096972D02*
X0070051Y0096972D01*
X0065900Y0098800D02*
X0065900Y0116200D01*
X0070100Y0120400D01*
X0068968Y0123905D02*
X0061232Y0123905D01*
X0062386Y0123307D02*
X0067814Y0123307D01*
X0067216Y0122708D02*
X0062984Y0122708D01*
X0063366Y0122110D02*
X0066834Y0122110D01*
X0066586Y0121511D02*
X0063614Y0121511D01*
X0063772Y0120913D02*
X0066428Y0120913D01*
X0066428Y0120314D02*
X0063772Y0120314D01*
X0063772Y0119716D02*
X0066428Y0119716D01*
X0066657Y0119117D02*
X0063543Y0119117D01*
X0063678Y0118519D02*
X0066522Y0118519D01*
X0065923Y0117920D02*
X0064277Y0117920D01*
X0064875Y0117322D02*
X0065325Y0117322D01*
X0064300Y0116200D02*
X0060100Y0120400D01*
X0058968Y0123905D02*
X0057000Y0123905D01*
X0057000Y0123307D02*
X0057814Y0123307D01*
X0057216Y0122708D02*
X0057000Y0122708D01*
X0057000Y0124504D02*
X0084121Y0124504D01*
X0084120Y0125102D02*
X0057000Y0125102D01*
X0057098Y0125701D02*
X0084120Y0125701D01*
X0084119Y0126299D02*
X0057696Y0126299D01*
X0058295Y0126898D02*
X0058961Y0126898D01*
X0061239Y0126898D02*
X0068005Y0126898D01*
X0067966Y0126918D02*
X0068537Y0126627D01*
X0069147Y0126429D01*
X0069780Y0126328D01*
X0069800Y0126328D01*
X0069800Y0130100D01*
X0066028Y0130100D01*
X0066028Y0130080D01*
X0066129Y0129447D01*
X0066327Y0128837D01*
X0066618Y0128266D01*
X0066994Y0127747D01*
X0067447Y0127294D01*
X0067966Y0126918D01*
X0067245Y0127496D02*
X0062389Y0127496D01*
X0062987Y0128095D02*
X0066742Y0128095D01*
X0066400Y0128693D02*
X0063367Y0128693D01*
X0063615Y0129292D02*
X0066179Y0129292D01*
X0066058Y0129890D02*
X0063772Y0129890D01*
X0063772Y0130489D02*
X0069800Y0130489D01*
X0069800Y0129890D02*
X0070400Y0129890D01*
X0070400Y0130100D02*
X0070400Y0126328D01*
X0070420Y0126328D01*
X0071053Y0126429D01*
X0071663Y0126627D01*
X0072234Y0126918D01*
X0072752Y0127294D01*
X0073206Y0127747D01*
X0073582Y0128266D01*
X0073873Y0128837D01*
X0074071Y0129447D01*
X0074172Y0130080D01*
X0074172Y0130100D01*
X0070400Y0130100D01*
X0070400Y0130489D02*
X0076231Y0130489D01*
X0076231Y0131087D02*
X0074114Y0131087D01*
X0073963Y0131686D02*
X0076445Y0131686D01*
X0076693Y0132284D02*
X0073710Y0132284D01*
X0073329Y0132883D02*
X0077112Y0132883D01*
X0077711Y0133481D02*
X0072777Y0133481D01*
X0071846Y0134080D02*
X0078875Y0134080D01*
X0076272Y0138270D02*
X0070623Y0138270D01*
X0070485Y0138131D02*
X0071012Y0138659D01*
X0071012Y0143341D01*
X0070485Y0143868D01*
X0069146Y0143868D01*
X0069146Y0147131D01*
X0070485Y0147131D01*
X0071012Y0147659D01*
X0071012Y0152341D01*
X0070485Y0152868D01*
X0065408Y0152868D01*
X0064881Y0152341D01*
X0064881Y0147659D01*
X0065408Y0147131D01*
X0066746Y0147131D01*
X0066746Y0143868D01*
X0065408Y0143868D01*
X0064881Y0143341D01*
X0064881Y0138659D01*
X0065408Y0138131D01*
X0070485Y0138131D01*
X0071012Y0138868D02*
X0076547Y0138868D01*
X0076299Y0139467D02*
X0071012Y0139467D01*
X0071012Y0140065D02*
X0076231Y0140065D01*
X0076231Y0140664D02*
X0071012Y0140664D01*
X0071012Y0141262D02*
X0076270Y0141262D01*
X0076518Y0141861D02*
X0071012Y0141861D01*
X0071012Y0142459D02*
X0076766Y0142459D01*
X0077287Y0143058D02*
X0071012Y0143058D01*
X0070697Y0143656D02*
X0077885Y0143656D01*
X0079297Y0144255D02*
X0069146Y0144255D01*
X0069146Y0144853D02*
X0084107Y0144853D01*
X0084107Y0144255D02*
X0080903Y0144255D01*
X0082315Y0143656D02*
X0084108Y0143656D01*
X0084108Y0143058D02*
X0082913Y0143058D01*
X0083434Y0142459D02*
X0084109Y0142459D01*
X0084109Y0141861D02*
X0083682Y0141861D01*
X0083930Y0141262D02*
X0084109Y0141262D01*
X0084110Y0140664D02*
X0083968Y0140664D01*
X0083968Y0140065D02*
X0084110Y0140065D01*
X0084111Y0139467D02*
X0083901Y0139467D01*
X0084111Y0138868D02*
X0083653Y0138868D01*
X0083405Y0138270D02*
X0084111Y0138270D01*
X0084112Y0137671D02*
X0082842Y0137671D01*
X0084107Y0145452D02*
X0069146Y0145452D01*
X0069146Y0146050D02*
X0084106Y0146050D01*
X0084106Y0146649D02*
X0081152Y0146649D01*
X0080869Y0146531D02*
X0082291Y0147120D01*
X0083380Y0148209D01*
X0083968Y0149630D01*
X0083968Y0151169D01*
X0083380Y0152591D01*
X0082291Y0153680D01*
X0080869Y0154268D01*
X0079330Y0154268D01*
X0077909Y0153680D01*
X0076820Y0152591D01*
X0076231Y0151169D01*
X0076231Y0149630D01*
X0076820Y0148209D01*
X0077909Y0147120D01*
X0079330Y0146531D01*
X0080869Y0146531D01*
X0082418Y0147247D02*
X0084105Y0147247D01*
X0084105Y0147846D02*
X0083017Y0147846D01*
X0083477Y0148444D02*
X0084105Y0148444D01*
X0084104Y0149043D02*
X0083725Y0149043D01*
X0083968Y0149641D02*
X0084104Y0149641D01*
X0084103Y0150240D02*
X0083968Y0150240D01*
X0083968Y0150838D02*
X0084103Y0150838D01*
X0084103Y0151437D02*
X0083858Y0151437D01*
X0084102Y0152035D02*
X0083610Y0152035D01*
X0083337Y0152634D02*
X0084102Y0152634D01*
X0084101Y0153232D02*
X0082739Y0153232D01*
X0081926Y0153831D02*
X0084101Y0153831D01*
X0084101Y0154429D02*
X0050723Y0154429D01*
X0050726Y0153831D02*
X0051003Y0153831D01*
X0054956Y0153831D02*
X0078274Y0153831D01*
X0077461Y0153232D02*
X0063725Y0153232D01*
X0063590Y0153268D02*
X0061554Y0153268D01*
X0061554Y0150300D01*
X0064719Y0150300D01*
X0064719Y0152140D01*
X0064630Y0152470D01*
X0064459Y0152767D01*
X0064217Y0153009D01*
X0063921Y0153180D01*
X0063590Y0153268D01*
X0064536Y0152634D02*
X0065174Y0152634D01*
X0064881Y0152035D02*
X0064719Y0152035D01*
X0064719Y0151437D02*
X0064881Y0151437D01*
X0064881Y0150838D02*
X0064719Y0150838D01*
X0064881Y0150240D02*
X0061554Y0150240D01*
X0061554Y0150300D02*
X0061554Y0149700D01*
X0064719Y0149700D01*
X0064719Y0147860D01*
X0064630Y0147530D01*
X0064459Y0147233D01*
X0064217Y0146991D01*
X0063921Y0146820D01*
X0063590Y0146731D01*
X0061554Y0146731D01*
X0061554Y0149700D01*
X0060954Y0149700D01*
X0060954Y0146731D01*
X0058917Y0146731D01*
X0058586Y0146820D01*
X0058290Y0146991D01*
X0058048Y0147233D01*
X0057877Y0147530D01*
X0057788Y0147860D01*
X0057788Y0149700D01*
X0060953Y0149700D01*
X0060953Y0150300D01*
X0057788Y0150300D01*
X0057788Y0152140D01*
X0057877Y0152470D01*
X0058048Y0152767D01*
X0058290Y0153009D01*
X0058586Y0153180D01*
X0058917Y0153268D01*
X0060954Y0153268D01*
X0060954Y0150300D01*
X0061554Y0150300D01*
X0061554Y0150838D02*
X0060954Y0150838D01*
X0060953Y0150240D02*
X0057275Y0150240D01*
X0057275Y0150838D02*
X0057788Y0150838D01*
X0057788Y0151437D02*
X0057034Y0151437D01*
X0056786Y0152035D02*
X0057788Y0152035D01*
X0057971Y0152634D02*
X0056421Y0152634D01*
X0055822Y0153232D02*
X0058782Y0153232D01*
X0057788Y0149641D02*
X0057275Y0149641D01*
X0057233Y0149043D02*
X0057788Y0149043D01*
X0057788Y0148444D02*
X0056985Y0148444D01*
X0056737Y0147846D02*
X0057792Y0147846D01*
X0058040Y0147247D02*
X0056302Y0147247D01*
X0055703Y0146649D02*
X0066746Y0146649D01*
X0066746Y0146050D02*
X0054669Y0146050D01*
X0055227Y0143350D02*
X0053850Y0141973D01*
X0053850Y0140027D01*
X0055227Y0138650D01*
X0057173Y0138650D01*
X0058188Y0139665D01*
X0058188Y0138659D01*
X0058715Y0138131D01*
X0063792Y0138131D01*
X0064319Y0138659D01*
X0064319Y0143341D01*
X0063792Y0143868D01*
X0058715Y0143868D01*
X0058188Y0143341D01*
X0058188Y0142335D01*
X0057173Y0143350D01*
X0055227Y0143350D01*
X0054934Y0143058D02*
X0050776Y0143058D01*
X0050773Y0143656D02*
X0058503Y0143656D01*
X0058188Y0143058D02*
X0057466Y0143058D01*
X0058064Y0142459D02*
X0058188Y0142459D01*
X0056200Y0141000D02*
X0061254Y0141000D01*
X0064319Y0141262D02*
X0064881Y0141262D01*
X0064881Y0140664D02*
X0064319Y0140664D01*
X0064319Y0140065D02*
X0064881Y0140065D01*
X0064881Y0139467D02*
X0064319Y0139467D01*
X0064319Y0138868D02*
X0064881Y0138868D01*
X0065270Y0138270D02*
X0063930Y0138270D01*
X0064319Y0141861D02*
X0064881Y0141861D01*
X0064881Y0142459D02*
X0064319Y0142459D01*
X0064319Y0143058D02*
X0064881Y0143058D01*
X0065196Y0143656D02*
X0064004Y0143656D01*
X0066746Y0144255D02*
X0050770Y0144255D01*
X0050767Y0144853D02*
X0066746Y0144853D01*
X0066746Y0145452D02*
X0050765Y0145452D01*
X0050762Y0146050D02*
X0051290Y0146050D01*
X0050922Y0142459D02*
X0054336Y0142459D01*
X0053850Y0141861D02*
X0051605Y0141861D01*
X0052126Y0141262D02*
X0053850Y0141262D01*
X0053850Y0140664D02*
X0052374Y0140664D01*
X0052616Y0140065D02*
X0053850Y0140065D01*
X0054410Y0139467D02*
X0052616Y0139467D01*
X0052616Y0138868D02*
X0055009Y0138868D01*
X0054377Y0136474D02*
X0051200Y0136474D01*
X0051798Y0137072D02*
X0075075Y0137072D01*
X0075674Y0137671D02*
X0052206Y0137671D01*
X0052454Y0138270D02*
X0058577Y0138270D01*
X0058188Y0138868D02*
X0057391Y0138868D01*
X0057990Y0139467D02*
X0058188Y0139467D01*
X0055377Y0134080D02*
X0068354Y0134080D01*
X0067423Y0133481D02*
X0062211Y0133481D01*
X0062810Y0132883D02*
X0066871Y0132883D01*
X0066490Y0132284D02*
X0063294Y0132284D01*
X0063542Y0131686D02*
X0066237Y0131686D01*
X0066086Y0131087D02*
X0063772Y0131087D01*
X0060100Y0130400D02*
X0055800Y0126100D01*
X0055800Y0100900D01*
X0059500Y0097200D01*
X0059500Y0089260D01*
X0055952Y0085711D01*
X0057344Y0084319D02*
X0061300Y0088276D01*
X0061300Y0097200D01*
X0064300Y0100200D01*
X0064300Y0116200D01*
X0068120Y0116723D02*
X0078868Y0116723D01*
X0077707Y0117322D02*
X0072214Y0117322D01*
X0072813Y0117920D02*
X0077109Y0117920D01*
X0076692Y0118519D02*
X0073295Y0118519D01*
X0073543Y0119117D02*
X0076444Y0119117D01*
X0076231Y0119716D02*
X0073772Y0119716D01*
X0073772Y0120314D02*
X0076231Y0120314D01*
X0076231Y0120913D02*
X0073772Y0120913D01*
X0073614Y0121511D02*
X0076373Y0121511D01*
X0076621Y0122110D02*
X0073366Y0122110D01*
X0072984Y0122708D02*
X0076937Y0122708D01*
X0077536Y0123307D02*
X0072386Y0123307D01*
X0071232Y0123905D02*
X0078454Y0123905D01*
X0078446Y0126898D02*
X0072195Y0126898D01*
X0072954Y0127496D02*
X0077533Y0127496D01*
X0076934Y0128095D02*
X0073458Y0128095D01*
X0073800Y0128693D02*
X0076620Y0128693D01*
X0076372Y0129292D02*
X0074021Y0129292D01*
X0074142Y0129890D02*
X0076231Y0129890D01*
X0070400Y0129292D02*
X0069800Y0129292D01*
X0069800Y0128693D02*
X0070400Y0128693D01*
X0070400Y0128095D02*
X0069800Y0128095D01*
X0069800Y0127496D02*
X0070400Y0127496D01*
X0070400Y0126898D02*
X0069800Y0126898D01*
X0067946Y0141000D02*
X0067946Y0150000D01*
X0069146Y0146649D02*
X0079048Y0146649D01*
X0077782Y0147247D02*
X0070600Y0147247D01*
X0071012Y0147846D02*
X0077183Y0147846D01*
X0076723Y0148444D02*
X0071012Y0148444D01*
X0071012Y0149043D02*
X0076475Y0149043D01*
X0076231Y0149641D02*
X0071012Y0149641D01*
X0071012Y0150240D02*
X0076231Y0150240D01*
X0076231Y0150838D02*
X0071012Y0150838D01*
X0071012Y0151437D02*
X0076342Y0151437D01*
X0076590Y0152035D02*
X0071012Y0152035D01*
X0070719Y0152634D02*
X0076863Y0152634D01*
X0065293Y0147247D02*
X0064467Y0147247D01*
X0064715Y0147846D02*
X0064881Y0147846D01*
X0064881Y0148444D02*
X0064719Y0148444D01*
X0064719Y0149043D02*
X0064881Y0149043D01*
X0064881Y0149641D02*
X0064719Y0149641D01*
X0061554Y0149641D02*
X0060954Y0149641D01*
X0060954Y0149043D02*
X0061554Y0149043D01*
X0061554Y0148444D02*
X0060954Y0148444D01*
X0060954Y0147846D02*
X0061554Y0147846D01*
X0061554Y0147247D02*
X0060954Y0147247D01*
X0060954Y0151437D02*
X0061554Y0151437D01*
X0061554Y0152035D02*
X0060954Y0152035D01*
X0060954Y0152634D02*
X0061554Y0152634D01*
X0061554Y0153232D02*
X0060954Y0153232D01*
X0053778Y0135875D02*
X0049943Y0135875D01*
X0052983Y0131686D02*
X0056658Y0131686D01*
X0056428Y0131087D02*
X0052384Y0131087D01*
X0051786Y0130489D02*
X0056428Y0130489D01*
X0056428Y0129890D02*
X0051187Y0129890D01*
X0050589Y0129292D02*
X0056585Y0129292D01*
X0056696Y0128693D02*
X0050400Y0128693D01*
X0050400Y0128095D02*
X0056098Y0128095D01*
X0055499Y0127496D02*
X0050400Y0127496D01*
X0050400Y0126898D02*
X0054901Y0126898D01*
X0054600Y0126299D02*
X0050400Y0126299D01*
X0050400Y0125701D02*
X0054600Y0125701D01*
X0054600Y0125102D02*
X0050400Y0125102D01*
X0050400Y0124504D02*
X0054600Y0124504D01*
X0054600Y0123905D02*
X0050400Y0123905D01*
X0050400Y0123307D02*
X0054600Y0123307D01*
X0054600Y0122708D02*
X0050400Y0122708D01*
X0050400Y0122110D02*
X0054600Y0122110D01*
X0054600Y0121511D02*
X0050400Y0121511D01*
X0050400Y0120913D02*
X0054600Y0120913D01*
X0054600Y0120314D02*
X0050400Y0120314D01*
X0050400Y0119716D02*
X0054600Y0119716D01*
X0054600Y0119117D02*
X0050400Y0119117D01*
X0050400Y0118519D02*
X0054600Y0118519D01*
X0054600Y0117920D02*
X0050400Y0117920D01*
X0050400Y0117322D02*
X0054600Y0117322D01*
X0054600Y0116723D02*
X0050400Y0116723D01*
X0050400Y0116125D02*
X0054600Y0116125D01*
X0054600Y0115526D02*
X0050400Y0115526D01*
X0050400Y0114928D02*
X0054600Y0114928D01*
X0054600Y0114329D02*
X0050400Y0114329D01*
X0050400Y0113731D02*
X0054600Y0113731D01*
X0054600Y0113132D02*
X0050400Y0113132D01*
X0050400Y0112534D02*
X0054600Y0112534D01*
X0054600Y0111935D02*
X0050400Y0111935D01*
X0050400Y0111337D02*
X0054600Y0111337D01*
X0054600Y0110738D02*
X0050400Y0110738D01*
X0050400Y0110139D02*
X0054600Y0110139D01*
X0054600Y0109541D02*
X0050400Y0109541D01*
X0050400Y0108942D02*
X0054600Y0108942D01*
X0054600Y0108344D02*
X0050400Y0108344D01*
X0050400Y0107745D02*
X0054600Y0107745D01*
X0054600Y0107147D02*
X0050400Y0107147D01*
X0050400Y0106548D02*
X0054600Y0106548D01*
X0054600Y0105950D02*
X0050400Y0105950D01*
X0050400Y0105351D02*
X0054600Y0105351D01*
X0054600Y0104753D02*
X0050400Y0104753D01*
X0050400Y0104154D02*
X0054600Y0104154D01*
X0054600Y0103556D02*
X0050400Y0103556D01*
X0050400Y0102957D02*
X0054600Y0102957D01*
X0054600Y0102359D02*
X0050400Y0102359D01*
X0050400Y0101760D02*
X0054600Y0101760D01*
X0054600Y0101162D02*
X0050400Y0101162D01*
X0050400Y0100563D02*
X0054600Y0100563D01*
X0055038Y0099965D02*
X0050400Y0099965D01*
X0050400Y0099366D02*
X0055637Y0099366D01*
X0056235Y0098768D02*
X0050400Y0098768D01*
X0050400Y0098169D02*
X0051746Y0098169D01*
X0051147Y0097571D02*
X0050853Y0097571D01*
X0049200Y0095900D02*
X0049200Y0129600D01*
X0046250Y0122450D02*
X0046250Y0089250D01*
X0052200Y0083300D01*
X0052200Y0076700D01*
X0039500Y0064000D01*
X0037024Y0064000D01*
X0033681Y0060656D01*
X0035073Y0059264D02*
X0031908Y0056100D01*
X0028700Y0056100D01*
X0024000Y0051400D01*
X0024000Y0045400D01*
X0028459Y0045400D01*
X0028500Y0045441D01*
X0033200Y0045441D01*
X0033500Y0047881D02*
X0035143Y0047881D01*
X0035200Y0047896D01*
X0035200Y0047719D01*
X0031056Y0047719D01*
X0030850Y0047513D01*
X0030644Y0047719D01*
X0026356Y0047719D01*
X0025828Y0047192D01*
X0025828Y0046895D01*
X0025200Y0047523D01*
X0025200Y0050903D01*
X0025828Y0051531D01*
X0025828Y0048808D01*
X0026356Y0048281D01*
X0030490Y0048281D01*
X0030630Y0048141D01*
X0030927Y0047970D01*
X0031257Y0047881D01*
X0032900Y0047881D01*
X0032900Y0050259D01*
X0033500Y0050259D01*
X0033500Y0047881D01*
X0033500Y0047894D02*
X0032900Y0047894D01*
X0032900Y0048493D02*
X0033500Y0048493D01*
X0033500Y0049091D02*
X0032900Y0049091D01*
X0032900Y0049690D02*
X0033500Y0049690D01*
X0033200Y0050559D02*
X0033200Y0051824D01*
X0037856Y0056481D01*
X0037856Y0056480D01*
X0034849Y0053473D01*
X0035086Y0053237D01*
X0033526Y0053237D01*
X0033992Y0053703D01*
X0034307Y0054018D01*
X0034311Y0054012D01*
X0034849Y0053473D01*
X0037856Y0056481D01*
X0037649Y0056273D02*
X0037649Y0056273D01*
X0037051Y0055675D02*
X0037051Y0055675D01*
X0036452Y0055076D02*
X0036452Y0055076D01*
X0035854Y0054478D02*
X0035854Y0054478D01*
X0035255Y0053879D02*
X0035255Y0053879D01*
X0035042Y0053281D02*
X0033570Y0053281D01*
X0033500Y0053211D02*
X0033500Y0050859D01*
X0032900Y0050859D01*
X0032900Y0053000D01*
X0033289Y0053000D01*
X0033500Y0053211D01*
X0033500Y0052682D02*
X0032900Y0052682D01*
X0032900Y0052084D02*
X0033500Y0052084D01*
X0033500Y0051485D02*
X0032900Y0051485D01*
X0032900Y0050887D02*
X0033500Y0050887D01*
X0034168Y0053879D02*
X0034443Y0053879D01*
X0032792Y0054200D02*
X0036464Y0057873D01*
X0038248Y0056872D02*
X0038248Y0056872D01*
X0038846Y0057470D02*
X0038846Y0057470D01*
X0039445Y0058069D02*
X0039445Y0058069D01*
X0040043Y0058668D02*
X0040043Y0058668D01*
X0040642Y0059266D02*
X0040642Y0059266D01*
X0041085Y0059266D02*
X0043100Y0059266D01*
X0043100Y0058668D02*
X0041565Y0058668D01*
X0041717Y0058069D02*
X0043100Y0058069D01*
X0043100Y0057470D02*
X0042315Y0057470D01*
X0042914Y0056872D02*
X0043100Y0056872D01*
X0044300Y0054573D02*
X0044300Y0059900D01*
X0057600Y0073200D01*
X0062400Y0073200D01*
X0065200Y0070400D01*
X0080100Y0070400D01*
X0082113Y0067047D02*
X0084159Y0067047D01*
X0084158Y0067645D02*
X0082816Y0067645D01*
X0083394Y0068244D02*
X0084158Y0068244D01*
X0084158Y0068842D02*
X0083642Y0068842D01*
X0083890Y0069441D02*
X0084157Y0069441D01*
X0084157Y0070039D02*
X0083968Y0070039D01*
X0083968Y0070638D02*
X0084156Y0070638D01*
X0084156Y0071236D02*
X0083941Y0071236D01*
X0084156Y0071835D02*
X0083693Y0071835D01*
X0083445Y0072433D02*
X0084155Y0072433D01*
X0084155Y0073032D02*
X0082939Y0073032D01*
X0082341Y0073630D02*
X0084154Y0073630D01*
X0084154Y0074229D02*
X0080965Y0074229D01*
X0079235Y0074229D02*
X0072926Y0074229D01*
X0073524Y0074827D02*
X0084154Y0074827D01*
X0084153Y0075426D02*
X0074123Y0075426D01*
X0072327Y0073630D02*
X0077859Y0073630D01*
X0077261Y0073032D02*
X0067651Y0073032D01*
X0067053Y0072433D02*
X0076755Y0072433D01*
X0076507Y0071835D02*
X0066454Y0071835D01*
X0067087Y0074576D02*
X0071576Y0074576D01*
X0074900Y0077900D01*
X0076348Y0076024D02*
X0084153Y0076024D01*
X0084152Y0076623D02*
X0081090Y0076623D01*
X0082392Y0077221D02*
X0084152Y0077221D01*
X0084152Y0077820D02*
X0082991Y0077820D01*
X0083466Y0078418D02*
X0084151Y0078418D01*
X0084151Y0079017D02*
X0083714Y0079017D01*
X0083962Y0079615D02*
X0084151Y0079615D01*
X0084150Y0080214D02*
X0083968Y0080214D01*
X0083968Y0080812D02*
X0084150Y0080812D01*
X0084149Y0081411D02*
X0083868Y0081411D01*
X0083621Y0082009D02*
X0084149Y0082009D01*
X0084149Y0082608D02*
X0083363Y0082608D01*
X0082764Y0083206D02*
X0084148Y0083206D01*
X0084147Y0085002D02*
X0076399Y0085002D01*
X0076998Y0085601D02*
X0084147Y0085601D01*
X0084146Y0086199D02*
X0077596Y0086199D01*
X0078195Y0086798D02*
X0078688Y0086798D01*
X0080100Y0090400D02*
X0071500Y0081800D01*
X0065960Y0081800D01*
X0062911Y0078752D01*
X0064303Y0077360D02*
X0067344Y0080400D01*
X0080100Y0080400D01*
X0079110Y0076623D02*
X0076946Y0076623D01*
X0077250Y0077221D02*
X0077808Y0077221D01*
X0076558Y0068842D02*
X0066577Y0068842D01*
X0067176Y0068244D02*
X0076806Y0068244D01*
X0077384Y0067645D02*
X0067774Y0067645D01*
X0068373Y0067047D02*
X0078087Y0067047D01*
X0078813Y0064054D02*
X0070366Y0064054D01*
X0070493Y0064653D02*
X0084160Y0064653D01*
X0084160Y0065251D02*
X0070168Y0065251D01*
X0069570Y0065850D02*
X0084160Y0065850D01*
X0084159Y0066448D02*
X0068971Y0066448D01*
X0067087Y0066224D02*
X0062911Y0070400D01*
X0059500Y0070400D01*
X0056500Y0067400D02*
X0063127Y0067400D01*
X0065695Y0064832D01*
X0064303Y0063440D02*
X0067344Y0060400D01*
X0080100Y0060400D01*
X0081691Y0056872D02*
X0084166Y0056872D01*
X0084165Y0057470D02*
X0082641Y0057470D01*
X0083240Y0058069D02*
X0084165Y0058069D01*
X0084164Y0058668D02*
X0083570Y0058668D01*
X0083818Y0059266D02*
X0084164Y0059266D01*
X0084164Y0059865D02*
X0083968Y0059865D01*
X0083968Y0060463D02*
X0084163Y0060463D01*
X0084163Y0061062D02*
X0083968Y0061062D01*
X0084162Y0061660D02*
X0083765Y0061660D01*
X0083517Y0062259D02*
X0084162Y0062259D01*
X0084162Y0062857D02*
X0083114Y0062857D01*
X0082515Y0063456D02*
X0084161Y0063456D01*
X0084161Y0064054D02*
X0081387Y0064054D01*
X0077685Y0063456D02*
X0069767Y0063456D01*
X0069169Y0062857D02*
X0077086Y0062857D01*
X0076683Y0062259D02*
X0068570Y0062259D01*
X0067972Y0061660D02*
X0076435Y0061660D01*
X0075400Y0059000D02*
X0080100Y0054300D01*
X0080100Y0050400D01*
X0081809Y0053879D02*
X0084168Y0053879D01*
X0084168Y0053281D02*
X0082690Y0053281D01*
X0083288Y0052682D02*
X0084168Y0052682D01*
X0084169Y0052084D02*
X0083590Y0052084D01*
X0083838Y0051485D02*
X0084169Y0051485D01*
X0084170Y0050887D02*
X0083968Y0050887D01*
X0083968Y0050288D02*
X0084170Y0050288D01*
X0084170Y0049690D02*
X0083968Y0049690D01*
X0084171Y0049091D02*
X0083745Y0049091D01*
X0083497Y0048493D02*
X0084171Y0048493D01*
X0084172Y0047894D02*
X0083065Y0047894D01*
X0082467Y0047296D02*
X0084172Y0047296D01*
X0084172Y0046697D02*
X0081270Y0046697D01*
X0078930Y0046697D02*
X0076900Y0046697D01*
X0076900Y0046099D02*
X0084173Y0046099D01*
X0084173Y0045500D02*
X0076900Y0045500D01*
X0077295Y0044902D02*
X0084174Y0044902D01*
X0084174Y0044303D02*
X0077894Y0044303D01*
X0076295Y0042508D02*
X0076145Y0042508D01*
X0076212Y0041909D02*
X0076538Y0041909D01*
X0076290Y0041311D02*
X0076212Y0041311D01*
X0076212Y0040712D02*
X0076231Y0040712D01*
X0076212Y0040114D02*
X0076231Y0040114D01*
X0076212Y0039515D02*
X0076279Y0039515D01*
X0076212Y0038917D02*
X0076527Y0038917D01*
X0076775Y0038318D02*
X0076212Y0038318D01*
X0076173Y0037720D02*
X0077309Y0037720D01*
X0077908Y0037121D02*
X0069447Y0037121D01*
X0069417Y0037091D02*
X0069659Y0037333D01*
X0069830Y0037630D01*
X0069919Y0037960D01*
X0069919Y0039800D01*
X0066754Y0039800D01*
X0066754Y0036831D01*
X0068790Y0036831D01*
X0069121Y0036920D01*
X0069417Y0037091D01*
X0069854Y0037720D02*
X0070120Y0037720D01*
X0070081Y0038318D02*
X0069919Y0038318D01*
X0069919Y0038917D02*
X0070081Y0038917D01*
X0070081Y0039515D02*
X0069919Y0039515D01*
X0070081Y0040114D02*
X0066754Y0040114D01*
X0066754Y0040400D02*
X0066754Y0042823D01*
X0065977Y0043600D01*
X0064142Y0043600D01*
X0063835Y0043293D01*
X0064117Y0043368D01*
X0066154Y0043368D01*
X0066154Y0040400D01*
X0066754Y0040400D01*
X0066754Y0040712D02*
X0066154Y0040712D01*
X0066153Y0040114D02*
X0063381Y0040114D01*
X0062988Y0039515D02*
X0060057Y0039515D01*
X0059459Y0038917D02*
X0062988Y0038917D01*
X0062988Y0038318D02*
X0058860Y0038318D01*
X0058808Y0037720D02*
X0063053Y0037720D01*
X0063460Y0037121D02*
X0052768Y0037121D01*
X0052768Y0036523D02*
X0084179Y0036523D01*
X0084179Y0037121D02*
X0082292Y0037121D01*
X0082891Y0037720D02*
X0084178Y0037720D01*
X0084178Y0038318D02*
X0083425Y0038318D01*
X0083673Y0038917D02*
X0084178Y0038917D01*
X0084177Y0039515D02*
X0083921Y0039515D01*
X0083968Y0040114D02*
X0084177Y0040114D01*
X0084176Y0040712D02*
X0083968Y0040712D01*
X0083910Y0041311D02*
X0084176Y0041311D01*
X0084176Y0041909D02*
X0083662Y0041909D01*
X0083414Y0042508D02*
X0084175Y0042508D01*
X0084175Y0043106D02*
X0082865Y0043106D01*
X0082231Y0043705D02*
X0084174Y0043705D01*
X0080100Y0040400D02*
X0075700Y0044800D01*
X0075700Y0055000D01*
X0073100Y0057600D01*
X0064576Y0057600D01*
X0061519Y0060656D01*
X0060127Y0059264D02*
X0054992Y0064400D01*
X0053500Y0064400D01*
X0050947Y0068244D02*
X0045441Y0068244D01*
X0046039Y0068842D02*
X0051545Y0068842D01*
X0052144Y0069441D02*
X0046638Y0069441D01*
X0047236Y0070039D02*
X0052742Y0070039D01*
X0053341Y0070638D02*
X0047835Y0070638D01*
X0048433Y0071236D02*
X0053939Y0071236D01*
X0054538Y0071835D02*
X0049032Y0071835D01*
X0049630Y0072433D02*
X0055136Y0072433D01*
X0055735Y0073032D02*
X0050229Y0073032D01*
X0050827Y0073630D02*
X0056333Y0073630D01*
X0056932Y0074229D02*
X0051426Y0074229D01*
X0052024Y0074827D02*
X0061387Y0074827D01*
X0060789Y0075426D02*
X0052623Y0075426D01*
X0053221Y0076024D02*
X0060190Y0076024D01*
X0059026Y0076623D02*
X0053400Y0076623D01*
X0053400Y0077221D02*
X0058427Y0077221D01*
X0058597Y0077221D02*
X0058597Y0077221D01*
X0059196Y0077820D02*
X0059196Y0077820D01*
X0059794Y0078418D02*
X0059794Y0078418D01*
X0060393Y0079017D02*
X0060393Y0079017D01*
X0060991Y0079615D02*
X0060991Y0079615D01*
X0061590Y0080214D02*
X0061590Y0080214D01*
X0062188Y0080812D02*
X0062188Y0080812D01*
X0062787Y0081411D02*
X0062787Y0081411D01*
X0063385Y0082009D02*
X0063385Y0082009D01*
X0063984Y0082608D02*
X0063984Y0082608D01*
X0064471Y0083206D02*
X0071209Y0083206D01*
X0070872Y0086798D02*
X0074801Y0086798D01*
X0075399Y0087396D02*
X0070872Y0087396D01*
X0070683Y0087995D02*
X0075998Y0087995D01*
X0071400Y0078000D02*
X0067727Y0078000D01*
X0065695Y0075968D01*
X0065068Y0082608D02*
X0065071Y0082608D01*
X0064965Y0083805D02*
X0064094Y0083805D01*
X0064692Y0084403D02*
X0064728Y0084403D01*
X0064600Y0086008D02*
X0064600Y0092700D01*
X0062900Y0095800D02*
X0065900Y0098800D01*
X0062900Y0095800D02*
X0062900Y0087092D01*
X0058736Y0082927D01*
X0060127Y0081536D02*
X0064600Y0086008D01*
X0067500Y0085601D02*
X0068100Y0085601D01*
X0068100Y0085002D02*
X0067500Y0085002D01*
X0067500Y0084403D02*
X0068100Y0084403D01*
X0068100Y0083805D02*
X0067500Y0083805D01*
X0057714Y0078418D02*
X0053400Y0078418D01*
X0053400Y0077820D02*
X0057890Y0077820D01*
X0057198Y0079017D02*
X0053400Y0079017D01*
X0053400Y0079615D02*
X0056599Y0079615D01*
X0056000Y0080214D02*
X0053400Y0080214D01*
X0053400Y0080812D02*
X0055402Y0080812D01*
X0054803Y0081411D02*
X0053400Y0081411D01*
X0053400Y0082009D02*
X0054205Y0082009D01*
X0053606Y0082608D02*
X0053400Y0082608D01*
X0050500Y0082811D02*
X0050500Y0078400D01*
X0039000Y0066900D01*
X0039844Y0069441D02*
X0037850Y0069441D01*
X0037850Y0070039D02*
X0040442Y0070039D01*
X0041041Y0070638D02*
X0037850Y0070638D01*
X0037619Y0068842D02*
X0037266Y0068842D01*
X0037020Y0068244D02*
X0036667Y0068244D01*
X0036650Y0067645D02*
X0032140Y0067645D01*
X0032739Y0067047D02*
X0036650Y0067047D01*
X0036650Y0066448D02*
X0033337Y0066448D01*
X0033936Y0065850D02*
X0036727Y0065850D01*
X0037325Y0065251D02*
X0034534Y0065251D01*
X0035133Y0064653D02*
X0035980Y0064653D01*
X0037527Y0062259D02*
X0044962Y0062259D01*
X0045560Y0062857D02*
X0040054Y0062857D01*
X0040653Y0063456D02*
X0046159Y0063456D01*
X0046757Y0064054D02*
X0041251Y0064054D01*
X0041850Y0064653D02*
X0047356Y0064653D01*
X0047954Y0065251D02*
X0042448Y0065251D01*
X0043047Y0065850D02*
X0048553Y0065850D01*
X0049151Y0066448D02*
X0043645Y0066448D01*
X0044244Y0067047D02*
X0049750Y0067047D01*
X0050348Y0067645D02*
X0044842Y0067645D01*
X0042238Y0071835D02*
X0040258Y0071835D01*
X0040850Y0072433D02*
X0042836Y0072433D01*
X0043435Y0073032D02*
X0040850Y0073032D01*
X0040850Y0073630D02*
X0044033Y0073630D01*
X0044632Y0074229D02*
X0042652Y0074229D01*
X0043251Y0074827D02*
X0045230Y0074827D01*
X0045829Y0075426D02*
X0043849Y0075426D01*
X0043850Y0076024D02*
X0046427Y0076024D01*
X0047026Y0076623D02*
X0043850Y0076623D01*
X0045645Y0077221D02*
X0047624Y0077221D01*
X0048223Y0077820D02*
X0046243Y0077820D01*
X0046842Y0078418D02*
X0048821Y0078418D01*
X0049300Y0079017D02*
X0046850Y0079017D01*
X0046850Y0079615D02*
X0049300Y0079615D01*
X0049300Y0080214D02*
X0048637Y0080214D01*
X0049236Y0080812D02*
X0049300Y0080812D01*
X0050500Y0082811D02*
X0043424Y0089887D01*
X0042032Y0088495D02*
X0038627Y0091900D01*
X0037600Y0091900D01*
X0035300Y0095900D02*
X0029500Y0095900D01*
X0027700Y0094100D01*
X0027700Y0083340D01*
X0032289Y0078752D01*
X0030897Y0077360D02*
X0026200Y0082056D01*
X0026200Y0094800D01*
X0025000Y0094578D02*
X0024541Y0094578D01*
X0024572Y0094692D02*
X0024572Y0095941D01*
X0021800Y0095941D01*
X0021800Y0096541D01*
X0021200Y0096541D01*
X0021200Y0098919D01*
X0019557Y0098919D01*
X0019227Y0098830D01*
X0018930Y0098659D01*
X0018688Y0098417D01*
X0018517Y0098121D01*
X0018428Y0097790D01*
X0018428Y0096541D01*
X0021200Y0096541D01*
X0021200Y0095941D01*
X0018428Y0095941D01*
X0018428Y0094692D01*
X0018517Y0094361D01*
X0018688Y0094065D01*
X0018930Y0093823D01*
X0019227Y0093652D01*
X0019557Y0093563D01*
X0021200Y0093563D01*
X0021200Y0095941D01*
X0021800Y0095941D01*
X0021800Y0093563D01*
X0023443Y0093563D01*
X0023773Y0093652D01*
X0024070Y0093823D01*
X0024312Y0094065D01*
X0024483Y0094361D01*
X0024572Y0094692D01*
X0024572Y0095177D02*
X0025000Y0095177D01*
X0025000Y0095775D02*
X0024572Y0095775D01*
X0025000Y0096374D02*
X0021800Y0096374D01*
X0021800Y0096541D02*
X0024572Y0096541D01*
X0024572Y0097790D01*
X0024483Y0098121D01*
X0024312Y0098417D01*
X0024070Y0098659D01*
X0023773Y0098830D01*
X0023443Y0098919D01*
X0021800Y0098919D01*
X0021800Y0096541D01*
X0021800Y0096972D02*
X0021200Y0096972D01*
X0021200Y0096374D02*
X0006000Y0096374D01*
X0006000Y0096972D02*
X0008266Y0096972D01*
X0007909Y0097120D02*
X0009330Y0096531D01*
X0010869Y0096531D01*
X0012291Y0097120D01*
X0013380Y0098209D01*
X0013968Y0099630D01*
X0013968Y0100159D01*
X0018828Y0100159D01*
X0018828Y0099608D01*
X0019356Y0099081D01*
X0023644Y0099081D01*
X0024172Y0099608D01*
X0024172Y0103110D01*
X0023644Y0103637D01*
X0019356Y0103637D01*
X0018828Y0103110D01*
X0018828Y0102559D01*
X0013393Y0102559D01*
X0013380Y0102591D01*
X0012291Y0103680D01*
X0010869Y0104268D01*
X0009330Y0104268D01*
X0007909Y0103680D01*
X0006820Y0102591D01*
X0006231Y0101169D01*
X0006231Y0099630D01*
X0006820Y0098209D01*
X0007909Y0097120D01*
X0007458Y0097571D02*
X0006000Y0097571D01*
X0006000Y0098169D02*
X0006860Y0098169D01*
X0006589Y0098768D02*
X0006000Y0098768D01*
X0006000Y0099366D02*
X0006341Y0099366D01*
X0006231Y0099965D02*
X0006000Y0099965D01*
X0006000Y0100563D02*
X0006231Y0100563D01*
X0006231Y0101162D02*
X0006000Y0101162D01*
X0006000Y0101760D02*
X0006476Y0101760D01*
X0006724Y0102359D02*
X0006000Y0102359D01*
X0006000Y0102957D02*
X0007186Y0102957D01*
X0007785Y0103556D02*
X0006000Y0103556D01*
X0006000Y0104154D02*
X0009055Y0104154D01*
X0011059Y0101359D02*
X0010100Y0100400D01*
X0011059Y0101359D02*
X0021500Y0101359D01*
X0021200Y0098768D02*
X0021800Y0098768D01*
X0021800Y0098169D02*
X0021200Y0098169D01*
X0021200Y0097571D02*
X0021800Y0097571D01*
X0021800Y0095775D02*
X0021200Y0095775D01*
X0021200Y0095177D02*
X0021800Y0095177D01*
X0021800Y0094578D02*
X0021200Y0094578D01*
X0021200Y0093980D02*
X0021800Y0093980D01*
X0024227Y0093980D02*
X0025000Y0093980D01*
X0025000Y0093381D02*
X0012590Y0093381D01*
X0012291Y0093680D02*
X0010869Y0094268D01*
X0009330Y0094268D01*
X0007909Y0093680D01*
X0006820Y0092591D01*
X0006231Y0091169D01*
X0006231Y0089630D01*
X0006820Y0088209D01*
X0007909Y0087120D01*
X0009330Y0086531D01*
X0010869Y0086531D01*
X0012291Y0087120D01*
X0013130Y0087959D01*
X0018828Y0087959D01*
X0018828Y0087408D01*
X0019356Y0086881D01*
X0023644Y0086881D01*
X0024172Y0087408D01*
X0024172Y0090910D01*
X0023644Y0091437D01*
X0019356Y0091437D01*
X0018828Y0090910D01*
X0018828Y0090359D01*
X0013968Y0090359D01*
X0013968Y0091169D01*
X0013380Y0092591D01*
X0012291Y0093680D01*
X0011567Y0093980D02*
X0018773Y0093980D01*
X0018459Y0094578D02*
X0006000Y0094578D01*
X0006000Y0093980D02*
X0008633Y0093980D01*
X0007610Y0093381D02*
X0006000Y0093381D01*
X0006000Y0092783D02*
X0007012Y0092783D01*
X0006652Y0092184D02*
X0006000Y0092184D01*
X0006000Y0091586D02*
X0006404Y0091586D01*
X0006231Y0090987D02*
X0006000Y0090987D01*
X0006000Y0090389D02*
X0006231Y0090389D01*
X0006231Y0089790D02*
X0006000Y0089790D01*
X0006000Y0089192D02*
X0006413Y0089192D01*
X0006661Y0088593D02*
X0006000Y0088593D01*
X0006000Y0087995D02*
X0007035Y0087995D01*
X0007633Y0087396D02*
X0006000Y0087396D01*
X0006000Y0086798D02*
X0008688Y0086798D01*
X0008211Y0083805D02*
X0006000Y0083805D01*
X0006000Y0084403D02*
X0018428Y0084403D01*
X0018428Y0084341D02*
X0018428Y0085590D01*
X0018517Y0085921D01*
X0018688Y0086217D01*
X0018930Y0086459D01*
X0019227Y0086630D01*
X0019557Y0086719D01*
X0021200Y0086719D01*
X0021200Y0084341D01*
X0021800Y0084341D01*
X0021800Y0086719D01*
X0023443Y0086719D01*
X0023773Y0086630D01*
X0024070Y0086459D01*
X0024312Y0086217D01*
X0024483Y0085921D01*
X0024572Y0085590D01*
X0024572Y0084341D01*
X0021800Y0084341D01*
X0021800Y0083741D01*
X0024572Y0083741D01*
X0024572Y0082492D01*
X0024483Y0082161D01*
X0024312Y0081865D01*
X0024070Y0081623D01*
X0023773Y0081452D01*
X0023443Y0081363D01*
X0021800Y0081363D01*
X0021800Y0083741D01*
X0021200Y0083741D01*
X0018428Y0083741D01*
X0018428Y0082492D01*
X0018517Y0082161D01*
X0018688Y0081865D01*
X0018930Y0081623D01*
X0019227Y0081452D01*
X0019557Y0081363D01*
X0021200Y0081363D01*
X0021200Y0083741D01*
X0021200Y0084341D01*
X0018428Y0084341D01*
X0018428Y0085002D02*
X0006000Y0085002D01*
X0006000Y0085601D02*
X0018431Y0085601D01*
X0018678Y0086199D02*
X0006000Y0086199D01*
X0006000Y0083206D02*
X0007436Y0083206D01*
X0006837Y0082608D02*
X0006000Y0082608D01*
X0006000Y0082009D02*
X0006579Y0082009D01*
X0006332Y0081411D02*
X0006000Y0081411D01*
X0006000Y0080812D02*
X0006231Y0080812D01*
X0006231Y0080214D02*
X0006000Y0080214D01*
X0006000Y0079615D02*
X0006238Y0079615D01*
X0006000Y0079017D02*
X0006486Y0079017D01*
X0006734Y0078418D02*
X0006000Y0078418D01*
X0006000Y0077820D02*
X0007209Y0077820D01*
X0007808Y0077221D02*
X0006000Y0077221D01*
X0006000Y0076623D02*
X0009110Y0076623D01*
X0010079Y0076024D02*
X0006000Y0076024D01*
X0006000Y0075426D02*
X0010677Y0075426D01*
X0011276Y0074827D02*
X0006000Y0074827D01*
X0006000Y0074229D02*
X0009235Y0074229D01*
X0007859Y0073630D02*
X0006000Y0073630D01*
X0006000Y0073032D02*
X0007261Y0073032D01*
X0006755Y0072433D02*
X0006000Y0072433D01*
X0006000Y0071835D02*
X0006507Y0071835D01*
X0006259Y0071236D02*
X0006000Y0071236D01*
X0006000Y0070638D02*
X0006231Y0070638D01*
X0006231Y0070039D02*
X0006000Y0070039D01*
X0006000Y0069441D02*
X0006310Y0069441D01*
X0006558Y0068842D02*
X0006000Y0068842D01*
X0006000Y0068244D02*
X0006806Y0068244D01*
X0007384Y0067645D02*
X0006000Y0067645D01*
X0006000Y0067047D02*
X0008087Y0067047D01*
X0006000Y0066448D02*
X0012355Y0066448D01*
X0012953Y0065850D02*
X0006000Y0065850D01*
X0006000Y0065251D02*
X0013552Y0065251D01*
X0014150Y0064653D02*
X0006000Y0064653D01*
X0006000Y0064054D02*
X0008813Y0064054D01*
X0009330Y0064268D02*
X0007909Y0063680D01*
X0006820Y0062591D01*
X0006231Y0061169D01*
X0006231Y0059630D01*
X0006820Y0058209D01*
X0007909Y0057120D01*
X0009330Y0056531D01*
X0010869Y0056531D01*
X0012291Y0057120D01*
X0013380Y0058209D01*
X0013968Y0059630D01*
X0013968Y0061169D01*
X0013380Y0062591D01*
X0012291Y0063680D01*
X0010869Y0064268D01*
X0009330Y0064268D01*
X0007685Y0063456D02*
X0006000Y0063456D01*
X0006000Y0062857D02*
X0007086Y0062857D01*
X0006683Y0062259D02*
X0006000Y0062259D01*
X0006000Y0061660D02*
X0006435Y0061660D01*
X0006231Y0061062D02*
X0006000Y0061062D01*
X0006000Y0060463D02*
X0006231Y0060463D01*
X0006231Y0059865D02*
X0006000Y0059865D01*
X0006000Y0059266D02*
X0006382Y0059266D01*
X0006630Y0058668D02*
X0006000Y0058668D01*
X0006000Y0058069D02*
X0006960Y0058069D01*
X0007559Y0057470D02*
X0006000Y0057470D01*
X0006000Y0056872D02*
X0008509Y0056872D01*
X0009330Y0054268D02*
X0007909Y0053680D01*
X0006820Y0052591D01*
X0006231Y0051169D01*
X0006231Y0049630D01*
X0006820Y0048209D01*
X0007909Y0047120D01*
X0009330Y0046531D01*
X0010869Y0046531D01*
X0012291Y0047120D01*
X0013380Y0048209D01*
X0013968Y0049630D01*
X0013968Y0051169D01*
X0013380Y0052591D01*
X0012291Y0053680D01*
X0010869Y0054268D01*
X0009330Y0054268D01*
X0008391Y0053879D02*
X0006000Y0053879D01*
X0006000Y0053281D02*
X0007510Y0053281D01*
X0006912Y0052682D02*
X0006000Y0052682D01*
X0006000Y0052084D02*
X0006610Y0052084D01*
X0006362Y0051485D02*
X0006000Y0051485D01*
X0006000Y0050887D02*
X0006231Y0050887D01*
X0006231Y0050288D02*
X0006000Y0050288D01*
X0006000Y0049690D02*
X0006231Y0049690D01*
X0006455Y0049091D02*
X0006000Y0049091D01*
X0006000Y0048493D02*
X0006703Y0048493D01*
X0007135Y0047894D02*
X0006000Y0047894D01*
X0006000Y0047296D02*
X0007733Y0047296D01*
X0008930Y0046697D02*
X0006000Y0046697D01*
X0006000Y0046099D02*
X0016600Y0046099D01*
X0016600Y0046697D02*
X0011270Y0046697D01*
X0012467Y0047296D02*
X0016600Y0047296D01*
X0016600Y0047894D02*
X0013065Y0047894D01*
X0013497Y0048493D02*
X0017036Y0048493D01*
X0017635Y0049091D02*
X0013745Y0049091D01*
X0013968Y0049690D02*
X0018233Y0049690D01*
X0018832Y0050288D02*
X0013968Y0050288D01*
X0013968Y0050887D02*
X0019430Y0050887D01*
X0020029Y0051485D02*
X0013838Y0051485D01*
X0013590Y0052084D02*
X0020627Y0052084D01*
X0021226Y0052682D02*
X0013288Y0052682D01*
X0012690Y0053281D02*
X0021824Y0053281D01*
X0022423Y0053879D02*
X0011809Y0053879D01*
X0011691Y0056872D02*
X0025415Y0056872D01*
X0024817Y0056273D02*
X0006000Y0056273D01*
X0006000Y0055675D02*
X0024218Y0055675D01*
X0023620Y0055076D02*
X0006000Y0055076D01*
X0006000Y0054478D02*
X0023021Y0054478D01*
X0025200Y0050887D02*
X0025828Y0050887D01*
X0025828Y0051485D02*
X0025782Y0051485D01*
X0025828Y0050288D02*
X0025200Y0050288D01*
X0025200Y0049690D02*
X0025828Y0049690D01*
X0025828Y0049091D02*
X0025200Y0049091D01*
X0025200Y0048493D02*
X0026144Y0048493D01*
X0025200Y0047894D02*
X0031208Y0047894D01*
X0028500Y0050559D02*
X0028500Y0051059D01*
X0031641Y0054200D01*
X0032792Y0054200D01*
X0036400Y0052240D02*
X0036400Y0024700D01*
X0028200Y0016500D01*
X0028200Y0015700D01*
X0027071Y0018567D02*
X0024329Y0018567D01*
X0025289Y0017969D02*
X0026111Y0017969D01*
X0029169Y0019166D02*
X0013776Y0019166D01*
X0013968Y0019630D02*
X0013380Y0018209D01*
X0012291Y0017120D01*
X0010869Y0016531D01*
X0009330Y0016531D01*
X0007909Y0017120D01*
X0006820Y0018209D01*
X0006231Y0019630D01*
X0006231Y0021169D01*
X0006820Y0022591D01*
X0007909Y0023680D01*
X0009330Y0024268D01*
X0010869Y0024268D01*
X0012291Y0023680D01*
X0013380Y0022591D01*
X0013968Y0021169D01*
X0013968Y0019630D01*
X0013968Y0019764D02*
X0029767Y0019764D01*
X0030366Y0020363D02*
X0013968Y0020363D01*
X0013968Y0020961D02*
X0030964Y0020961D01*
X0031563Y0021560D02*
X0013807Y0021560D01*
X0013559Y0022158D02*
X0032161Y0022158D01*
X0032760Y0022757D02*
X0013214Y0022757D01*
X0012616Y0023355D02*
X0033358Y0023355D01*
X0033957Y0023954D02*
X0011629Y0023954D01*
X0010869Y0026531D02*
X0009330Y0026531D01*
X0007909Y0027120D01*
X0006820Y0028209D01*
X0006231Y0029630D01*
X0006231Y0031169D01*
X0006820Y0032591D01*
X0007909Y0033680D01*
X0009330Y0034268D01*
X0010869Y0034268D01*
X0012291Y0033680D01*
X0013380Y0032591D01*
X0013968Y0031169D01*
X0013968Y0029630D01*
X0013380Y0028209D01*
X0012291Y0027120D01*
X0010869Y0026531D01*
X0011871Y0026946D02*
X0035200Y0026946D01*
X0035200Y0026348D02*
X0006000Y0026348D01*
X0006000Y0026946D02*
X0008329Y0026946D01*
X0007484Y0027545D02*
X0006000Y0027545D01*
X0006000Y0028143D02*
X0006886Y0028143D01*
X0006600Y0028742D02*
X0006000Y0028742D01*
X0006000Y0029340D02*
X0006352Y0029340D01*
X0006231Y0029939D02*
X0006000Y0029939D01*
X0006000Y0030537D02*
X0006231Y0030537D01*
X0006231Y0031136D02*
X0006000Y0031136D01*
X0006000Y0031734D02*
X0006466Y0031734D01*
X0006713Y0032333D02*
X0006000Y0032333D01*
X0006000Y0032932D02*
X0007161Y0032932D01*
X0007759Y0033530D02*
X0006000Y0033530D01*
X0006000Y0034129D02*
X0008993Y0034129D01*
X0009330Y0036531D02*
X0007909Y0037120D01*
X0006820Y0038209D01*
X0006231Y0039630D01*
X0006231Y0041169D01*
X0006820Y0042591D01*
X0007909Y0043680D01*
X0009330Y0044268D01*
X0010869Y0044268D01*
X0012291Y0043680D01*
X0013380Y0042591D01*
X0013968Y0041169D01*
X0013968Y0039630D01*
X0013380Y0038209D01*
X0012291Y0037120D01*
X0010869Y0036531D01*
X0009330Y0036531D01*
X0007908Y0037121D02*
X0006000Y0037121D01*
X0006000Y0036523D02*
X0016600Y0036523D01*
X0016600Y0037121D02*
X0012292Y0037121D01*
X0012891Y0037720D02*
X0016600Y0037720D01*
X0016600Y0038318D02*
X0013425Y0038318D01*
X0013673Y0038917D02*
X0016600Y0038917D01*
X0016600Y0039515D02*
X0013921Y0039515D01*
X0013968Y0040114D02*
X0016600Y0040114D01*
X0016600Y0040712D02*
X0013968Y0040712D01*
X0013910Y0041311D02*
X0016600Y0041311D01*
X0016600Y0041909D02*
X0013662Y0041909D01*
X0013414Y0042508D02*
X0016600Y0042508D01*
X0016600Y0043106D02*
X0012865Y0043106D01*
X0012231Y0043705D02*
X0016600Y0043705D01*
X0016600Y0044303D02*
X0006000Y0044303D01*
X0006000Y0043705D02*
X0007969Y0043705D01*
X0007335Y0043106D02*
X0006000Y0043106D01*
X0006000Y0042508D02*
X0006786Y0042508D01*
X0006538Y0041909D02*
X0006000Y0041909D01*
X0006000Y0041311D02*
X0006290Y0041311D01*
X0006231Y0040712D02*
X0006000Y0040712D01*
X0006000Y0040114D02*
X0006231Y0040114D01*
X0006279Y0039515D02*
X0006000Y0039515D01*
X0006000Y0038917D02*
X0006527Y0038917D01*
X0006775Y0038318D02*
X0006000Y0038318D01*
X0006000Y0037720D02*
X0007309Y0037720D01*
X0006000Y0035924D02*
X0016600Y0035924D01*
X0016600Y0035326D02*
X0006000Y0035326D01*
X0006000Y0034727D02*
X0016600Y0034727D01*
X0016600Y0034129D02*
X0011207Y0034129D01*
X0012441Y0033530D02*
X0016600Y0033530D01*
X0016600Y0032932D02*
X0013039Y0032932D01*
X0013487Y0032333D02*
X0016870Y0032333D01*
X0017800Y0033100D02*
X0031700Y0033100D01*
X0034000Y0030800D01*
X0032735Y0028742D02*
X0013600Y0028742D01*
X0013848Y0029340D02*
X0032136Y0029340D01*
X0031650Y0029939D02*
X0013968Y0029939D01*
X0013968Y0030537D02*
X0031650Y0030537D01*
X0031650Y0031136D02*
X0013968Y0031136D01*
X0013734Y0031734D02*
X0031368Y0031734D01*
X0035200Y0028143D02*
X0013314Y0028143D01*
X0012716Y0027545D02*
X0035200Y0027545D01*
X0035200Y0025749D02*
X0006000Y0025749D01*
X0006000Y0025151D02*
X0035154Y0025151D01*
X0034555Y0024552D02*
X0006000Y0024552D01*
X0006000Y0023954D02*
X0008571Y0023954D01*
X0007584Y0023355D02*
X0006000Y0023355D01*
X0006000Y0022757D02*
X0006986Y0022757D01*
X0006641Y0022158D02*
X0006000Y0022158D01*
X0006000Y0021560D02*
X0006393Y0021560D01*
X0006231Y0020961D02*
X0006000Y0020961D01*
X0006000Y0020363D02*
X0006231Y0020363D01*
X0006231Y0019764D02*
X0006000Y0019764D01*
X0006000Y0019166D02*
X0006424Y0019166D01*
X0006672Y0018567D02*
X0006000Y0018567D01*
X0006000Y0017969D02*
X0007060Y0017969D01*
X0007659Y0017370D02*
X0006000Y0017370D01*
X0006000Y0016772D02*
X0008751Y0016772D01*
X0009330Y0014268D02*
X0007909Y0013680D01*
X0006820Y0012591D01*
X0006231Y0011169D01*
X0006231Y0009630D01*
X0006820Y0008209D01*
X0007909Y0007120D01*
X0009330Y0006531D01*
X0010869Y0006531D01*
X0012291Y0007120D01*
X0013380Y0008209D01*
X0013968Y0009630D01*
X0013968Y0011169D01*
X0013380Y0012591D01*
X0012291Y0013680D01*
X0010869Y0014268D01*
X0009330Y0014268D01*
X0008149Y0013779D02*
X0006000Y0013779D01*
X0006000Y0013181D02*
X0007410Y0013181D01*
X0006817Y0012582D02*
X0006000Y0012582D01*
X0006000Y0011984D02*
X0006569Y0011984D01*
X0006321Y0011385D02*
X0006000Y0011385D01*
X0006000Y0010787D02*
X0006231Y0010787D01*
X0006231Y0010188D02*
X0006000Y0010188D01*
X0006000Y0009590D02*
X0006248Y0009590D01*
X0006000Y0008991D02*
X0006496Y0008991D01*
X0006744Y0008393D02*
X0006000Y0008393D01*
X0006000Y0007794D02*
X0007235Y0007794D01*
X0007834Y0007196D02*
X0006000Y0007196D01*
X0006000Y0006597D02*
X0009172Y0006597D01*
X0011028Y0006597D02*
X0079172Y0006597D01*
X0079330Y0006531D02*
X0080869Y0006531D01*
X0082291Y0007120D01*
X0083380Y0008209D01*
X0083968Y0009630D01*
X0083968Y0011169D01*
X0083380Y0012591D01*
X0082291Y0013680D01*
X0080869Y0014268D01*
X0079330Y0014268D01*
X0077909Y0013680D01*
X0076820Y0012591D01*
X0076231Y0011169D01*
X0076231Y0009630D01*
X0076820Y0008209D01*
X0077909Y0007120D01*
X0079330Y0006531D01*
X0077834Y0007196D02*
X0012366Y0007196D01*
X0012965Y0007794D02*
X0021283Y0007794D01*
X0021551Y0007615D02*
X0022185Y0007353D01*
X0022857Y0007219D01*
X0022909Y0007219D01*
X0022909Y0010409D01*
X0019719Y0010409D01*
X0019719Y0010357D01*
X0019853Y0009685D01*
X0020115Y0009051D01*
X0020496Y0008481D01*
X0020981Y0007996D01*
X0021551Y0007615D01*
X0020584Y0008393D02*
X0013456Y0008393D01*
X0013704Y0008991D02*
X0020155Y0008991D01*
X0019892Y0009590D02*
X0013952Y0009590D01*
X0013968Y0010188D02*
X0019753Y0010188D01*
X0019787Y0011385D02*
X0013879Y0011385D01*
X0013968Y0010787D02*
X0022909Y0010787D01*
X0022909Y0010188D02*
X0023491Y0010188D01*
X0023491Y0009590D02*
X0022909Y0009590D01*
X0022909Y0008991D02*
X0023491Y0008991D01*
X0023491Y0008393D02*
X0022909Y0008393D01*
X0022909Y0007794D02*
X0023491Y0007794D01*
X0025117Y0007794D02*
X0027164Y0007794D01*
X0026150Y0008393D02*
X0025816Y0008393D01*
X0029236Y0007794D02*
X0032164Y0007794D01*
X0031150Y0008393D02*
X0030250Y0008393D01*
X0034236Y0007794D02*
X0037164Y0007794D01*
X0036150Y0008393D02*
X0035250Y0008393D01*
X0039236Y0007794D02*
X0042164Y0007794D01*
X0041150Y0008393D02*
X0040250Y0008393D01*
X0044236Y0007794D02*
X0077235Y0007794D01*
X0076744Y0008393D02*
X0045250Y0008393D01*
X0045827Y0008991D02*
X0076496Y0008991D01*
X0076248Y0009590D02*
X0046075Y0009590D01*
X0046281Y0010188D02*
X0076231Y0010188D01*
X0076231Y0010787D02*
X0046281Y0010787D01*
X0046251Y0011385D02*
X0076321Y0011385D01*
X0076569Y0011984D02*
X0046003Y0011984D01*
X0045675Y0012582D02*
X0050001Y0012582D01*
X0049348Y0013181D02*
X0045077Y0013181D01*
X0045636Y0013779D02*
X0048791Y0013779D01*
X0048543Y0014378D02*
X0045987Y0014378D01*
X0045843Y0017370D02*
X0048522Y0017370D01*
X0048770Y0017969D02*
X0045289Y0017969D01*
X0044329Y0018567D02*
X0049296Y0018567D01*
X0049895Y0019166D02*
X0032563Y0019166D01*
X0032071Y0018567D02*
X0031964Y0018567D01*
X0033161Y0019764D02*
X0036212Y0019764D01*
X0035614Y0020363D02*
X0033760Y0020363D01*
X0034358Y0020961D02*
X0035250Y0020961D01*
X0035250Y0021560D02*
X0034957Y0021560D01*
X0034329Y0018567D02*
X0037071Y0018567D01*
X0036111Y0017969D02*
X0035289Y0017969D01*
X0037600Y0021700D02*
X0037600Y0050656D01*
X0040640Y0053697D01*
X0039248Y0055089D02*
X0036400Y0052240D01*
X0035200Y0047894D02*
X0035192Y0047894D01*
X0040979Y0042300D02*
X0041100Y0042179D01*
X0041100Y0034846D01*
X0045400Y0030800D02*
X0042754Y0028154D01*
X0041100Y0028154D01*
X0043968Y0027545D02*
X0046958Y0027545D01*
X0047031Y0026946D02*
X0043968Y0026946D01*
X0043968Y0026348D02*
X0047031Y0026348D01*
X0047031Y0025749D02*
X0043968Y0025749D01*
X0043504Y0025151D02*
X0047496Y0025151D01*
X0048046Y0028154D02*
X0045400Y0030800D01*
X0044440Y0028143D02*
X0046360Y0028143D01*
X0048046Y0028154D02*
X0049900Y0028154D01*
X0052324Y0031136D02*
X0076231Y0031136D01*
X0076231Y0031169D02*
X0076231Y0029630D01*
X0076820Y0028209D01*
X0077909Y0027120D01*
X0079330Y0026531D01*
X0080869Y0026531D01*
X0082291Y0027120D01*
X0083380Y0028209D01*
X0083968Y0029630D01*
X0083968Y0031169D01*
X0083380Y0032591D01*
X0082291Y0033680D01*
X0080869Y0034268D01*
X0079330Y0034268D01*
X0077909Y0033680D01*
X0076820Y0032591D01*
X0076231Y0031169D01*
X0076466Y0031734D02*
X0047750Y0031734D01*
X0049900Y0034846D02*
X0049900Y0041379D01*
X0050821Y0042300D01*
X0050821Y0045621D01*
X0052500Y0047300D01*
X0055300Y0047300D01*
X0056000Y0048000D01*
X0056000Y0049473D01*
X0053168Y0052305D01*
X0051776Y0050913D02*
X0049592Y0050913D01*
X0040979Y0042300D01*
X0042032Y0052305D02*
X0044300Y0054573D01*
X0047500Y0058400D02*
X0049856Y0058400D01*
X0054560Y0053697D01*
X0055952Y0055089D02*
X0061017Y0050023D01*
X0061017Y0047290D01*
X0058838Y0047290D01*
X0056141Y0044593D01*
X0056141Y0039475D02*
X0058320Y0039475D01*
X0061017Y0042172D01*
X0063645Y0044800D01*
X0068100Y0044800D01*
X0068100Y0046341D01*
X0065900Y0048541D01*
X0070700Y0048541D01*
X0070125Y0046099D02*
X0072700Y0046099D01*
X0072700Y0045500D02*
X0070450Y0045500D01*
X0070450Y0044902D02*
X0072700Y0044902D01*
X0072700Y0044303D02*
X0070450Y0044303D01*
X0070328Y0043705D02*
X0072700Y0043705D01*
X0072700Y0043106D02*
X0069730Y0043106D01*
X0069847Y0042508D02*
X0070148Y0042508D01*
X0070081Y0041909D02*
X0069919Y0041909D01*
X0069919Y0041311D02*
X0070081Y0041311D01*
X0070081Y0040712D02*
X0069919Y0040712D01*
X0073146Y0040100D02*
X0073900Y0040854D01*
X0073900Y0050459D01*
X0070700Y0053659D01*
X0065900Y0053659D01*
X0062949Y0053659D01*
X0058736Y0057873D01*
X0057344Y0056481D02*
X0065283Y0048541D01*
X0065900Y0048541D01*
X0066154Y0043106D02*
X0066470Y0043106D01*
X0066754Y0042508D02*
X0066154Y0042508D01*
X0066154Y0041909D02*
X0066754Y0041909D01*
X0066754Y0041311D02*
X0066154Y0041311D01*
X0066154Y0039515D02*
X0066754Y0039515D01*
X0066754Y0038917D02*
X0066154Y0038917D01*
X0066154Y0038318D02*
X0066754Y0038318D01*
X0066754Y0037720D02*
X0066154Y0037720D01*
X0066154Y0037121D02*
X0066754Y0037121D01*
X0075100Y0043106D02*
X0075697Y0043106D01*
X0076900Y0047296D02*
X0077733Y0047296D01*
X0077135Y0047894D02*
X0076900Y0047894D01*
X0081300Y0054478D02*
X0084167Y0054478D01*
X0084167Y0055076D02*
X0081021Y0055076D01*
X0080422Y0055675D02*
X0084166Y0055675D01*
X0084166Y0056273D02*
X0079824Y0056273D01*
X0075400Y0059000D02*
X0065960Y0059000D01*
X0062911Y0062048D01*
X0057344Y0056481D02*
X0061200Y0052624D01*
X0055952Y0055089D02*
X0050500Y0060540D01*
X0050500Y0061400D01*
X0044363Y0061660D02*
X0038125Y0061660D01*
X0038724Y0061062D02*
X0043765Y0061062D01*
X0043166Y0060463D02*
X0039323Y0060463D01*
X0040487Y0059865D02*
X0043100Y0059865D01*
X0041639Y0071236D02*
X0039660Y0071236D01*
X0038500Y0073400D02*
X0038500Y0080892D01*
X0036464Y0082927D01*
X0037856Y0084319D02*
X0041500Y0080676D01*
X0041500Y0076400D01*
X0044500Y0079400D02*
X0044500Y0080460D01*
X0039248Y0085711D01*
X0040640Y0087103D02*
X0045344Y0082400D01*
X0047500Y0082400D01*
X0051776Y0089887D02*
X0052800Y0090911D01*
X0052800Y0095900D01*
X0054453Y0097571D02*
X0054747Y0097571D01*
X0055346Y0098169D02*
X0053854Y0098169D01*
X0056400Y0095900D02*
X0056400Y0091727D01*
X0053168Y0088495D01*
X0045050Y0098768D02*
X0044953Y0098768D01*
X0045050Y0099366D02*
X0044355Y0099366D01*
X0037862Y0102359D02*
X0032718Y0102359D01*
X0032718Y0102957D02*
X0038000Y0102957D01*
X0038000Y0103556D02*
X0032662Y0103556D01*
X0032414Y0104154D02*
X0038000Y0104154D01*
X0037263Y0101760D02*
X0032669Y0101760D01*
X0032421Y0101162D02*
X0036665Y0101162D01*
X0036066Y0100563D02*
X0032173Y0100563D01*
X0031636Y0099965D02*
X0035468Y0099965D01*
X0034869Y0099366D02*
X0031031Y0099366D01*
X0034271Y0098768D02*
X0027400Y0098768D01*
X0027400Y0098169D02*
X0027872Y0098169D01*
X0027500Y0097797D02*
X0027500Y0097797D01*
X0025000Y0097571D02*
X0024572Y0097571D01*
X0024572Y0096972D02*
X0025000Y0096972D01*
X0025000Y0098169D02*
X0024455Y0098169D01*
X0025000Y0098768D02*
X0023882Y0098768D01*
X0023930Y0099366D02*
X0025000Y0099366D01*
X0025000Y0099965D02*
X0024172Y0099965D01*
X0024172Y0100563D02*
X0025066Y0100563D01*
X0025279Y0101162D02*
X0024172Y0101162D01*
X0024172Y0101760D02*
X0025031Y0101760D01*
X0024981Y0102359D02*
X0024172Y0102359D01*
X0024172Y0102957D02*
X0024981Y0102957D01*
X0025038Y0103556D02*
X0023726Y0103556D01*
X0025286Y0104154D02*
X0011145Y0104154D01*
X0012415Y0103556D02*
X0019274Y0103556D01*
X0018828Y0102957D02*
X0013014Y0102957D01*
X0013968Y0099965D02*
X0018828Y0099965D01*
X0019070Y0099366D02*
X0013859Y0099366D01*
X0013611Y0098768D02*
X0019118Y0098768D01*
X0018545Y0098169D02*
X0013340Y0098169D01*
X0012742Y0097571D02*
X0018428Y0097571D01*
X0018428Y0096972D02*
X0011934Y0096972D01*
X0013188Y0092783D02*
X0025000Y0092783D01*
X0025000Y0092184D02*
X0013548Y0092184D01*
X0013796Y0091586D02*
X0025000Y0091586D01*
X0025000Y0090987D02*
X0024094Y0090987D01*
X0024172Y0090389D02*
X0025000Y0090389D01*
X0025000Y0089790D02*
X0024172Y0089790D01*
X0024172Y0089192D02*
X0025000Y0089192D01*
X0025000Y0088593D02*
X0024172Y0088593D01*
X0024172Y0087995D02*
X0025000Y0087995D01*
X0025000Y0087396D02*
X0024159Y0087396D01*
X0025000Y0086798D02*
X0011512Y0086798D01*
X0012567Y0087396D02*
X0018841Y0087396D01*
X0018828Y0090389D02*
X0013968Y0090389D01*
X0013968Y0090987D02*
X0018906Y0090987D01*
X0018428Y0095177D02*
X0006000Y0095177D01*
X0006000Y0095775D02*
X0018428Y0095775D01*
X0021500Y0089159D02*
X0011341Y0089159D01*
X0010100Y0090400D01*
X0011989Y0083805D02*
X0021200Y0083805D01*
X0021200Y0084403D02*
X0021800Y0084403D01*
X0021800Y0083805D02*
X0025000Y0083805D01*
X0025000Y0084403D02*
X0024572Y0084403D01*
X0024572Y0085002D02*
X0025000Y0085002D01*
X0025000Y0085601D02*
X0024569Y0085601D01*
X0024322Y0086199D02*
X0025000Y0086199D01*
X0025000Y0083206D02*
X0024572Y0083206D01*
X0024572Y0082608D02*
X0025000Y0082608D01*
X0025000Y0082009D02*
X0024395Y0082009D01*
X0025148Y0081411D02*
X0023622Y0081411D01*
X0021800Y0081411D02*
X0021200Y0081411D01*
X0021200Y0082009D02*
X0021800Y0082009D01*
X0021800Y0082608D02*
X0021200Y0082608D01*
X0021200Y0083206D02*
X0021800Y0083206D01*
X0021800Y0085002D02*
X0021200Y0085002D01*
X0021200Y0085601D02*
X0021800Y0085601D01*
X0021800Y0086199D02*
X0021200Y0086199D01*
X0018428Y0083206D02*
X0012764Y0083206D01*
X0013363Y0082608D02*
X0018428Y0082608D01*
X0018605Y0082009D02*
X0013621Y0082009D01*
X0013868Y0081411D02*
X0019378Y0081411D01*
X0019135Y0079017D02*
X0013714Y0079017D01*
X0013466Y0078418D02*
X0018828Y0078418D01*
X0018828Y0077820D02*
X0012991Y0077820D01*
X0012392Y0077221D02*
X0018828Y0077221D01*
X0018828Y0076623D02*
X0012874Y0076623D01*
X0013473Y0076024D02*
X0018828Y0076024D01*
X0018828Y0075426D02*
X0014071Y0075426D01*
X0014670Y0074827D02*
X0019209Y0074827D01*
X0019227Y0074430D02*
X0018930Y0074259D01*
X0018688Y0074017D01*
X0018517Y0073721D01*
X0018428Y0073390D01*
X0018428Y0072141D01*
X0021200Y0072141D01*
X0021200Y0074519D01*
X0019557Y0074519D01*
X0019227Y0074430D01*
X0018900Y0074229D02*
X0015268Y0074229D01*
X0015867Y0073630D02*
X0018493Y0073630D01*
X0018428Y0073032D02*
X0016465Y0073032D01*
X0017064Y0072433D02*
X0018428Y0072433D01*
X0017662Y0071835D02*
X0021200Y0071835D01*
X0021200Y0071541D02*
X0021200Y0072141D01*
X0021800Y0072141D01*
X0021800Y0074519D01*
X0023443Y0074519D01*
X0023773Y0074430D01*
X0024070Y0074259D01*
X0024312Y0074017D01*
X0024483Y0073721D01*
X0024572Y0073390D01*
X0024572Y0072141D01*
X0021800Y0072141D01*
X0021800Y0071541D01*
X0024572Y0071541D01*
X0024572Y0070292D01*
X0024483Y0069961D01*
X0024312Y0069665D01*
X0024070Y0069423D01*
X0023773Y0069252D01*
X0023443Y0069163D01*
X0021800Y0069163D01*
X0021800Y0071541D01*
X0021200Y0071541D01*
X0021200Y0071236D02*
X0021800Y0071236D01*
X0021800Y0070638D02*
X0021200Y0070638D01*
X0021200Y0070039D02*
X0021800Y0070039D01*
X0021800Y0069441D02*
X0021200Y0069441D01*
X0020655Y0068842D02*
X0028623Y0068842D01*
X0028024Y0068244D02*
X0021253Y0068244D01*
X0021852Y0067645D02*
X0027426Y0067645D01*
X0028113Y0066224D02*
X0021576Y0066224D01*
X0010100Y0077700D01*
X0010100Y0080400D01*
X0013968Y0080214D02*
X0026345Y0080214D01*
X0025747Y0080812D02*
X0013968Y0080812D01*
X0013962Y0079615D02*
X0022459Y0079615D01*
X0023341Y0078800D02*
X0021500Y0076959D01*
X0023341Y0078800D02*
X0026673Y0078800D01*
X0029505Y0075968D01*
X0035073Y0070400D01*
X0035500Y0070400D01*
X0033734Y0068842D02*
X0030943Y0068842D01*
X0031518Y0068244D02*
X0034333Y0068244D01*
X0033150Y0069441D02*
X0030345Y0069441D01*
X0029221Y0069441D02*
X0024088Y0069441D01*
X0024504Y0070039D02*
X0033150Y0070039D01*
X0033138Y0070638D02*
X0024572Y0070638D01*
X0024572Y0071236D02*
X0028779Y0071236D01*
X0028985Y0071030D02*
X0029281Y0070859D01*
X0029612Y0070770D01*
X0029954Y0070770D01*
X0030285Y0070859D01*
X0030581Y0071030D01*
X0031120Y0071569D01*
X0028113Y0074576D01*
X0028113Y0074576D01*
X0028113Y0074576D01*
X0025106Y0077583D01*
X0024567Y0077044D01*
X0024396Y0076748D01*
X0024307Y0076417D01*
X0024307Y0076075D01*
X0024396Y0075744D01*
X0024567Y0075448D01*
X0026776Y0073239D01*
X0028985Y0071030D01*
X0028180Y0071835D02*
X0021800Y0071835D01*
X0021800Y0072433D02*
X0021200Y0072433D01*
X0021200Y0073032D02*
X0021800Y0073032D01*
X0021800Y0073630D02*
X0021200Y0073630D01*
X0021200Y0074229D02*
X0021800Y0074229D01*
X0023791Y0074827D02*
X0025188Y0074827D01*
X0025786Y0074229D02*
X0024100Y0074229D01*
X0024507Y0073630D02*
X0026385Y0073630D01*
X0026776Y0073239D02*
X0028113Y0074576D01*
X0026776Y0073239D01*
X0026983Y0073032D02*
X0024572Y0073032D01*
X0024572Y0072433D02*
X0027582Y0072433D01*
X0027167Y0073630D02*
X0027167Y0073630D01*
X0027766Y0074229D02*
X0027766Y0074229D01*
X0028113Y0074576D02*
X0028113Y0074576D01*
X0027861Y0074827D02*
X0027861Y0074827D01*
X0028460Y0074229D02*
X0028460Y0074229D01*
X0029058Y0073630D02*
X0029058Y0073630D01*
X0029657Y0073032D02*
X0029657Y0073032D01*
X0030255Y0072433D02*
X0030255Y0072433D01*
X0030854Y0071835D02*
X0030854Y0071835D01*
X0031386Y0071835D02*
X0031941Y0071835D01*
X0032539Y0071236D02*
X0030787Y0071236D01*
X0027263Y0075426D02*
X0027263Y0075426D01*
X0026664Y0076024D02*
X0026664Y0076024D01*
X0026066Y0076623D02*
X0026066Y0076623D01*
X0025467Y0077221D02*
X0025467Y0077221D01*
X0024744Y0077221D02*
X0024172Y0077221D01*
X0024172Y0076623D02*
X0024362Y0076623D01*
X0024321Y0076024D02*
X0024172Y0076024D01*
X0024172Y0075426D02*
X0024589Y0075426D01*
X0030300Y0083524D02*
X0030300Y0092100D01*
X0032200Y0090200D02*
X0034000Y0092000D01*
X0032200Y0090200D02*
X0032200Y0084408D01*
X0035073Y0081536D01*
X0033681Y0080144D02*
X0030300Y0083524D01*
X0029505Y0064832D02*
X0027173Y0062500D01*
X0018000Y0062500D01*
X0010100Y0070400D01*
X0010965Y0074229D02*
X0011874Y0074229D01*
X0012341Y0073630D02*
X0012473Y0073630D01*
X0012939Y0073032D02*
X0013071Y0073032D01*
X0013445Y0072433D02*
X0013670Y0072433D01*
X0013693Y0071835D02*
X0014268Y0071835D01*
X0013941Y0071236D02*
X0014867Y0071236D01*
X0015465Y0070638D02*
X0013968Y0070638D01*
X0013968Y0070039D02*
X0016064Y0070039D01*
X0016662Y0069441D02*
X0013890Y0069441D01*
X0013642Y0068842D02*
X0017261Y0068842D01*
X0017859Y0068244D02*
X0013953Y0068244D01*
X0014552Y0067645D02*
X0018458Y0067645D01*
X0019056Y0067047D02*
X0015150Y0067047D01*
X0015749Y0066448D02*
X0019655Y0066448D01*
X0020253Y0065850D02*
X0016347Y0065850D01*
X0016946Y0065251D02*
X0020852Y0065251D01*
X0018143Y0064054D02*
X0024834Y0064054D01*
X0024707Y0064653D02*
X0017544Y0064653D01*
X0015946Y0062857D02*
X0013114Y0062857D01*
X0013517Y0062259D02*
X0016544Y0062259D01*
X0017143Y0061660D02*
X0013765Y0061660D01*
X0013968Y0061062D02*
X0027827Y0061062D01*
X0028425Y0060463D02*
X0013968Y0060463D01*
X0013968Y0059865D02*
X0028408Y0059865D01*
X0027809Y0059266D02*
X0013818Y0059266D01*
X0013570Y0058668D02*
X0027211Y0058668D01*
X0026612Y0058069D02*
X0013240Y0058069D01*
X0012641Y0057470D02*
X0026014Y0057470D01*
X0025932Y0047296D02*
X0025428Y0047296D01*
X0024041Y0045441D02*
X0024000Y0045400D01*
X0017800Y0047560D02*
X0017800Y0033100D01*
X0016600Y0044902D02*
X0006000Y0044902D01*
X0006000Y0045500D02*
X0016600Y0045500D01*
X0017800Y0047560D02*
X0032289Y0062048D01*
X0018428Y0071236D02*
X0018261Y0071236D01*
X0014749Y0064054D02*
X0011387Y0064054D01*
X0012515Y0063456D02*
X0015347Y0063456D01*
X0006000Y0104753D02*
X0025534Y0104753D01*
X0026080Y0105351D02*
X0006000Y0105351D01*
X0006000Y0107147D02*
X0007316Y0107147D01*
X0006752Y0107745D02*
X0006000Y0107745D01*
X0006000Y0108344D02*
X0006357Y0108344D01*
X0006085Y0108942D02*
X0006000Y0108942D01*
X0014368Y0110738D02*
X0030231Y0110738D01*
X0030404Y0111337D02*
X0014273Y0111337D01*
X0014089Y0111935D02*
X0030652Y0111935D01*
X0032550Y0117322D02*
X0033150Y0117322D01*
X0033150Y0117920D02*
X0032550Y0117920D01*
X0032550Y0118519D02*
X0033150Y0118519D01*
X0033150Y0119117D02*
X0032550Y0119117D01*
X0032550Y0120314D02*
X0033150Y0120314D01*
X0033150Y0120913D02*
X0032550Y0120913D01*
X0032550Y0121511D02*
X0033150Y0121511D01*
X0033150Y0122110D02*
X0032550Y0122110D01*
X0035246Y0122110D02*
X0035441Y0122110D01*
X0035441Y0122708D02*
X0035272Y0122708D01*
X0053581Y0132284D02*
X0056906Y0132284D01*
X0057390Y0132883D02*
X0054180Y0132883D01*
X0054778Y0133481D02*
X0057989Y0133481D01*
X0069000Y0105950D02*
X0084133Y0105950D01*
X0084133Y0105351D02*
X0069000Y0105351D01*
X0069000Y0104753D02*
X0084134Y0104753D01*
X0053475Y0037720D02*
X0053419Y0037720D01*
X0052768Y0035924D02*
X0084180Y0035924D01*
X0084180Y0035326D02*
X0052768Y0035326D01*
X0052768Y0034727D02*
X0084180Y0034727D01*
X0084181Y0034129D02*
X0081207Y0034129D01*
X0082441Y0033530D02*
X0084181Y0033530D01*
X0084182Y0032932D02*
X0083039Y0032932D01*
X0083487Y0032333D02*
X0084182Y0032333D01*
X0084182Y0031734D02*
X0083734Y0031734D01*
X0083968Y0031136D02*
X0084183Y0031136D01*
X0084183Y0030537D02*
X0083968Y0030537D01*
X0083968Y0029939D02*
X0084184Y0029939D01*
X0084184Y0029340D02*
X0083848Y0029340D01*
X0083600Y0028742D02*
X0084184Y0028742D01*
X0084185Y0028143D02*
X0083314Y0028143D01*
X0082716Y0027545D02*
X0084185Y0027545D01*
X0084186Y0026946D02*
X0081871Y0026946D01*
X0084186Y0026348D02*
X0052768Y0026348D01*
X0052768Y0026946D02*
X0078329Y0026946D01*
X0077484Y0027545D02*
X0052768Y0027545D01*
X0052768Y0028143D02*
X0076886Y0028143D01*
X0076600Y0028742D02*
X0052768Y0028742D01*
X0052768Y0029340D02*
X0076352Y0029340D01*
X0076231Y0029939D02*
X0052768Y0029939D01*
X0052768Y0030537D02*
X0076231Y0030537D01*
X0076713Y0032333D02*
X0052768Y0032333D01*
X0052768Y0032932D02*
X0077161Y0032932D01*
X0077759Y0033530D02*
X0052768Y0033530D01*
X0052768Y0034129D02*
X0078993Y0034129D01*
X0084186Y0025749D02*
X0052768Y0025749D01*
X0052304Y0025151D02*
X0084187Y0025151D01*
X0084187Y0024552D02*
X0038800Y0024552D01*
X0038800Y0023954D02*
X0078571Y0023954D01*
X0077909Y0023680D02*
X0076820Y0022591D01*
X0076231Y0021169D01*
X0076231Y0019630D01*
X0076820Y0018209D01*
X0077909Y0017120D01*
X0079330Y0016531D01*
X0080869Y0016531D01*
X0082291Y0017120D01*
X0083380Y0018209D01*
X0083968Y0019630D01*
X0083968Y0021169D01*
X0083380Y0022591D01*
X0082291Y0023680D01*
X0080869Y0024268D01*
X0079330Y0024268D01*
X0077909Y0023680D01*
X0077584Y0023355D02*
X0039268Y0023355D01*
X0039867Y0022757D02*
X0076986Y0022757D01*
X0076641Y0022158D02*
X0039950Y0022158D01*
X0039950Y0021560D02*
X0076393Y0021560D01*
X0076231Y0020961D02*
X0039950Y0020961D01*
X0039586Y0020363D02*
X0076231Y0020363D01*
X0076231Y0019764D02*
X0052880Y0019764D01*
X0054305Y0019166D02*
X0076424Y0019166D01*
X0076672Y0018567D02*
X0054904Y0018567D01*
X0055430Y0017969D02*
X0077060Y0017969D01*
X0077659Y0017370D02*
X0055678Y0017370D01*
X0055926Y0016772D02*
X0078751Y0016772D01*
X0078149Y0013779D02*
X0055409Y0013779D01*
X0055657Y0014378D02*
X0084194Y0014378D01*
X0084194Y0014976D02*
X0055905Y0014976D01*
X0055968Y0015575D02*
X0084193Y0015575D01*
X0084193Y0016173D02*
X0055968Y0016173D01*
X0054852Y0013181D02*
X0077410Y0013181D01*
X0076817Y0012582D02*
X0054199Y0012582D01*
X0052100Y0015900D02*
X0043400Y0015900D01*
X0043200Y0015700D01*
X0042071Y0018567D02*
X0039329Y0018567D01*
X0040289Y0017969D02*
X0041111Y0017969D01*
X0038988Y0019764D02*
X0051320Y0019764D01*
X0022071Y0018567D02*
X0013528Y0018567D01*
X0013140Y0017969D02*
X0021111Y0017969D01*
X0020557Y0017370D02*
X0012541Y0017370D01*
X0011449Y0016772D02*
X0020309Y0016772D01*
X0020119Y0016173D02*
X0006000Y0016173D01*
X0006000Y0015575D02*
X0020119Y0015575D01*
X0020165Y0014976D02*
X0006000Y0014976D01*
X0006000Y0014378D02*
X0020413Y0014378D01*
X0020763Y0013779D02*
X0012051Y0013779D01*
X0012790Y0013181D02*
X0020758Y0013181D01*
X0020271Y0012582D02*
X0013383Y0012582D01*
X0013631Y0011984D02*
X0019964Y0011984D01*
X0081028Y0006597D02*
X0084199Y0006597D01*
X0084199Y0007196D02*
X0082366Y0007196D01*
X0082965Y0007794D02*
X0084198Y0007794D01*
X0084198Y0008393D02*
X0083456Y0008393D01*
X0083704Y0008991D02*
X0084198Y0008991D01*
X0084197Y0009590D02*
X0083952Y0009590D01*
X0083968Y0010188D02*
X0084197Y0010188D01*
X0084196Y0010787D02*
X0083968Y0010787D01*
X0083879Y0011385D02*
X0084196Y0011385D01*
X0084196Y0011984D02*
X0083631Y0011984D01*
X0083383Y0012582D02*
X0084195Y0012582D01*
X0084195Y0013181D02*
X0082790Y0013181D01*
X0082051Y0013779D02*
X0084194Y0013779D01*
X0084192Y0016772D02*
X0081449Y0016772D01*
X0082541Y0017370D02*
X0084192Y0017370D01*
X0084192Y0017969D02*
X0083140Y0017969D01*
X0083528Y0018567D02*
X0084191Y0018567D01*
X0084191Y0019166D02*
X0083776Y0019166D01*
X0083968Y0019764D02*
X0084190Y0019764D01*
X0084190Y0020363D02*
X0083968Y0020363D01*
X0083968Y0020961D02*
X0084190Y0020961D01*
X0084189Y0021560D02*
X0083807Y0021560D01*
X0083559Y0022158D02*
X0084189Y0022158D01*
X0084188Y0022757D02*
X0083214Y0022757D01*
X0082616Y0023355D02*
X0084188Y0023355D01*
X0084188Y0023954D02*
X0081629Y0023954D01*
D28*
X0068100Y0044800D03*
X0056500Y0067400D03*
X0053500Y0064400D03*
X0050500Y0061400D03*
X0047500Y0058400D03*
X0039000Y0066900D03*
X0035500Y0070400D03*
X0038500Y0073400D03*
X0041500Y0076400D03*
X0044500Y0079400D03*
X0047500Y0082400D03*
X0049200Y0095900D03*
X0052800Y0095900D03*
X0056400Y0095900D03*
X0067800Y0095900D03*
X0071400Y0078000D03*
X0074900Y0077900D03*
X0059500Y0070400D03*
X0037600Y0091900D03*
X0034000Y0092000D03*
X0030300Y0092100D03*
X0046250Y0122450D03*
X0036641Y0134141D03*
X0056200Y0141000D03*
X0024000Y0045400D03*
X0034000Y0030800D03*
X0037600Y0021700D03*
X0045400Y0030800D03*
M02*
