%
M48
M72
T01C0.01300
T02C0.02362
T03C0.03346
T04C0.03543
T05C0.03937
T06C0.04528
%
T01
X42000Y59300
X48000Y64300
X53200Y57500
X49908Y55000
X47700Y51700
X52400Y52000
X52400Y48400
X57900Y49300
X64900Y39000
X55500Y29100
X77900Y61600
X80600Y58400
X79500Y54900
X79100Y75900
X78900Y79400
X71500Y89400
X69400Y92700
X72300Y95900
X62600Y90300
X60000Y94100
X51300Y83500
X45000Y82000
X42400Y79500
X37000Y77800
X32000Y78900
X29100Y82100
X30100Y91100
X29900Y95000
X26100Y97700
X27600Y103000
X26100Y111500
X21400Y124800
X37900Y124300
X41500Y124300
X20100Y95000
X51400Y73500
X61200Y67500
T02
X61000Y127800
X61000Y132800
X56000Y132800
X56000Y127800
X66000Y127800
X66000Y132800
X71000Y132800
X71000Y127800
X76000Y127800
X76000Y132800
T03
X47043Y129770
X27357Y129770
T04
X59700Y120400
X59700Y110400
X59700Y100400
X69700Y100400
X69700Y110400
X69700Y120400
T05
X9700Y10400
X9700Y20400
X9700Y30400
X9700Y40400
X9700Y50400
X9700Y60400
X9700Y70400
X9700Y80400
X9700Y90400
X9700Y100400
X9700Y110400
X9700Y120400
X9700Y130400
X9700Y140400
X22200Y60400
X22200Y50400
X89700Y50400
X89700Y60400
X89700Y70400
X89700Y80400
X89700Y90400
X89700Y100400
X89700Y110400
X89700Y120400
X89700Y130400
X89700Y140400
X89700Y40400
X89700Y30400
X89700Y20400
X89700Y10400
T06
X50980Y140400
X23420Y140400
M30
