G75*
%MOIN*%
%OFA0B0*%
%FSLAX25Y25*%
%IPPOS*%
%LPD*%
%AMOC8*
5,1,8,0,0,1.08239X$1,22.5*
%
%ADD10C,0.05346*%
%ADD11C,0.06791*%
%ADD12C,0.04362*%
%ADD13C,0.05543*%
%ADD14C,0.05937*%
%ADD15C,0.00600*%
%ADD16C,0.02900*%
D10*
X0027357Y0129770D03*
X0047043Y0129770D03*
D11*
X0050980Y0140400D03*
X0023420Y0140400D03*
D12*
X0056000Y0132800D03*
X0056000Y0127800D03*
X0061000Y0127800D03*
X0061000Y0132800D03*
X0066000Y0132800D03*
X0066000Y0127800D03*
X0071000Y0127800D03*
X0071000Y0132800D03*
X0076000Y0132800D03*
X0076000Y0127800D03*
D13*
X0069700Y0120400D03*
X0069700Y0110400D03*
X0069700Y0100400D03*
X0059700Y0100400D03*
X0059700Y0110400D03*
X0059700Y0120400D03*
D14*
X0089700Y0120400D03*
X0089700Y0110400D03*
X0089700Y0100400D03*
X0089700Y0090400D03*
X0089700Y0080400D03*
X0089700Y0070400D03*
X0089700Y0060400D03*
X0089700Y0050400D03*
X0089700Y0040400D03*
X0089700Y0030400D03*
X0089700Y0020400D03*
X0089700Y0010400D03*
X0022200Y0050400D03*
X0022200Y0060400D03*
X0009700Y0060400D03*
X0009700Y0050400D03*
X0009700Y0040400D03*
X0009700Y0030400D03*
X0009700Y0020400D03*
X0009700Y0010400D03*
X0009700Y0070400D03*
X0009700Y0080400D03*
X0009700Y0090400D03*
X0009700Y0100400D03*
X0009700Y0110400D03*
X0009700Y0120400D03*
X0009700Y0130400D03*
X0009700Y0140400D03*
X0089700Y0140400D03*
X0089700Y0130400D03*
D15*
X0005600Y0109205D02*
X0005600Y0006300D01*
X0093800Y0006300D01*
X0093800Y0144461D01*
X0052401Y0144461D01*
X0053413Y0144042D01*
X0054621Y0142833D01*
X0055275Y0141254D01*
X0055275Y0139546D01*
X0054621Y0137967D01*
X0053413Y0136758D01*
X0051834Y0136104D01*
X0050125Y0136104D01*
X0048546Y0136758D01*
X0047338Y0137967D01*
X0046684Y0139546D01*
X0046684Y0141254D01*
X0047338Y0142833D01*
X0048546Y0144042D01*
X0049558Y0144461D01*
X0024842Y0144461D01*
X0025854Y0144042D01*
X0027062Y0142833D01*
X0027716Y0141254D01*
X0027716Y0139546D01*
X0027062Y0137967D01*
X0025854Y0136758D01*
X0024275Y0136104D01*
X0022566Y0136104D01*
X0020987Y0136758D01*
X0019779Y0137967D01*
X0019125Y0139546D01*
X0019125Y0141254D01*
X0019779Y0142833D01*
X0020987Y0144042D01*
X0021999Y0144461D01*
X0005600Y0144461D01*
X0005600Y0131595D01*
X0005744Y0132039D01*
X0006049Y0132637D01*
X0006444Y0133181D01*
X0006919Y0133656D01*
X0007463Y0134051D01*
X0008061Y0134356D01*
X0008700Y0134563D01*
X0009364Y0134668D01*
X0009400Y0134668D01*
X0009400Y0130700D01*
X0010000Y0130700D01*
X0010000Y0134668D01*
X0010036Y0134668D01*
X0010700Y0134563D01*
X0011339Y0134356D01*
X0011937Y0134051D01*
X0012481Y0133656D01*
X0012956Y0133181D01*
X0013351Y0132637D01*
X0013656Y0132039D01*
X0013863Y0131400D01*
X0013968Y0130736D01*
X0013968Y0130700D01*
X0010000Y0130700D01*
X0010000Y0130100D01*
X0013968Y0130100D01*
X0013968Y0130064D01*
X0013863Y0129400D01*
X0013656Y0128761D01*
X0013351Y0128163D01*
X0012956Y0127619D01*
X0012481Y0127144D01*
X0011937Y0126749D01*
X0011339Y0126444D01*
X0010700Y0126237D01*
X0010036Y0126131D01*
X0010000Y0126131D01*
X0010000Y0130100D01*
X0009400Y0130100D01*
X0009400Y0126131D01*
X0009364Y0126131D01*
X0008700Y0126237D01*
X0008061Y0126444D01*
X0007463Y0126749D01*
X0006919Y0127144D01*
X0006444Y0127619D01*
X0006049Y0128163D01*
X0005744Y0128761D01*
X0005600Y0129205D01*
X0005600Y0111595D01*
X0005744Y0112039D01*
X0006049Y0112637D01*
X0006444Y0113181D01*
X0006919Y0113656D01*
X0007463Y0114051D01*
X0008061Y0114356D01*
X0008700Y0114563D01*
X0009364Y0114668D01*
X0009400Y0114668D01*
X0009400Y0110700D01*
X0010000Y0110700D01*
X0010000Y0114668D01*
X0010036Y0114668D01*
X0010700Y0114563D01*
X0011339Y0114356D01*
X0011937Y0114051D01*
X0012481Y0113656D01*
X0012956Y0113181D01*
X0013351Y0112637D01*
X0013656Y0112039D01*
X0013863Y0111400D01*
X0013968Y0110736D01*
X0013968Y0110700D01*
X0010000Y0110700D01*
X0010000Y0110100D01*
X0013968Y0110100D01*
X0013968Y0110064D01*
X0013863Y0109400D01*
X0013656Y0108761D01*
X0013351Y0108163D01*
X0012956Y0107619D01*
X0012481Y0107144D01*
X0011937Y0106749D01*
X0011339Y0106444D01*
X0010700Y0106237D01*
X0010036Y0106131D01*
X0010000Y0106131D01*
X0010000Y0110100D01*
X0009400Y0110100D01*
X0009400Y0106131D01*
X0009364Y0106131D01*
X0008700Y0106237D01*
X0008061Y0106444D01*
X0007463Y0106749D01*
X0006919Y0107144D01*
X0006444Y0107619D01*
X0006049Y0108163D01*
X0005744Y0108761D01*
X0005600Y0109205D01*
X0005600Y0108942D02*
X0005685Y0108942D01*
X0005600Y0108344D02*
X0005957Y0108344D01*
X0005600Y0107745D02*
X0006352Y0107745D01*
X0006916Y0107147D02*
X0005600Y0107147D01*
X0005600Y0106548D02*
X0007857Y0106548D01*
X0008930Y0104268D02*
X0007509Y0103680D01*
X0006420Y0102591D01*
X0005831Y0101169D01*
X0005831Y0099630D01*
X0006420Y0098209D01*
X0007509Y0097120D01*
X0008930Y0096531D01*
X0010469Y0096531D01*
X0011891Y0097120D01*
X0012980Y0098209D01*
X0013568Y0099630D01*
X0013568Y0101169D01*
X0012980Y0102591D01*
X0011891Y0103680D01*
X0010469Y0104268D01*
X0008930Y0104268D01*
X0008655Y0104154D02*
X0005600Y0104154D01*
X0005600Y0103556D02*
X0007385Y0103556D01*
X0006786Y0102957D02*
X0005600Y0102957D01*
X0005600Y0102359D02*
X0006324Y0102359D01*
X0006076Y0101760D02*
X0005600Y0101760D01*
X0005600Y0101162D02*
X0005831Y0101162D01*
X0005831Y0100563D02*
X0005600Y0100563D01*
X0005600Y0099965D02*
X0005831Y0099965D01*
X0005941Y0099366D02*
X0005600Y0099366D01*
X0005600Y0098768D02*
X0006189Y0098768D01*
X0006460Y0098169D02*
X0005600Y0098169D01*
X0005600Y0097571D02*
X0007058Y0097571D01*
X0007866Y0096972D02*
X0005600Y0096972D01*
X0005600Y0096374D02*
X0018150Y0096374D01*
X0017750Y0095973D02*
X0017750Y0094027D01*
X0019127Y0092650D01*
X0021073Y0092650D01*
X0022223Y0093800D01*
X0027777Y0093800D01*
X0028627Y0092950D01*
X0027977Y0092300D01*
X0013100Y0092300D01*
X0012980Y0092591D01*
X0011891Y0093680D01*
X0010469Y0094268D01*
X0008930Y0094268D01*
X0007509Y0093680D01*
X0006420Y0092591D01*
X0005831Y0091169D01*
X0005831Y0089630D01*
X0006420Y0088209D01*
X0007509Y0087120D01*
X0008930Y0086531D01*
X0010469Y0086531D01*
X0011891Y0087120D01*
X0012980Y0088209D01*
X0013568Y0089630D01*
X0013568Y0089900D01*
X0027977Y0089900D01*
X0029127Y0088750D01*
X0031073Y0088750D01*
X0031400Y0089077D01*
X0031400Y0086097D01*
X0029753Y0084450D01*
X0028127Y0084450D01*
X0026750Y0083073D01*
X0026750Y0081127D01*
X0028127Y0079750D01*
X0029650Y0079750D01*
X0029650Y0077927D01*
X0029977Y0077600D01*
X0014197Y0077600D01*
X0013158Y0078639D01*
X0013568Y0079630D01*
X0013568Y0081169D01*
X0012980Y0082591D01*
X0011891Y0083680D01*
X0010469Y0084268D01*
X0008930Y0084268D01*
X0007509Y0083680D01*
X0006420Y0082591D01*
X0005831Y0081169D01*
X0005831Y0079630D01*
X0006420Y0078209D01*
X0007509Y0077120D01*
X0008930Y0076531D01*
X0010469Y0076531D01*
X0011461Y0076942D01*
X0013003Y0075400D01*
X0011461Y0073858D01*
X0010469Y0074268D01*
X0008930Y0074268D01*
X0007509Y0073680D01*
X0006420Y0072591D01*
X0005831Y0071169D01*
X0005831Y0069630D01*
X0006420Y0068209D01*
X0007509Y0067120D01*
X0008930Y0066531D01*
X0010469Y0066531D01*
X0011891Y0067120D01*
X0012980Y0068209D01*
X0013568Y0069630D01*
X0013568Y0071169D01*
X0013158Y0072161D01*
X0014797Y0073800D01*
X0021403Y0073800D01*
X0011461Y0063858D01*
X0010469Y0064268D01*
X0008930Y0064268D01*
X0007509Y0063680D01*
X0006420Y0062591D01*
X0005831Y0061169D01*
X0005831Y0059630D01*
X0006420Y0058209D01*
X0007509Y0057120D01*
X0008930Y0056531D01*
X0010469Y0056531D01*
X0011891Y0057120D01*
X0012980Y0058209D01*
X0013568Y0059630D01*
X0013568Y0061169D01*
X0013158Y0062161D01*
X0014500Y0063503D01*
X0014500Y0056897D01*
X0011461Y0053858D01*
X0010469Y0054268D01*
X0008930Y0054268D01*
X0007509Y0053680D01*
X0006420Y0052591D01*
X0005831Y0051169D01*
X0005831Y0049630D01*
X0006420Y0048209D01*
X0007509Y0047120D01*
X0008930Y0046531D01*
X0010469Y0046531D01*
X0011891Y0047120D01*
X0012980Y0048209D01*
X0013568Y0049630D01*
X0013568Y0051169D01*
X0013158Y0052161D01*
X0016197Y0055200D01*
X0016200Y0055203D01*
X0016200Y0048597D01*
X0011461Y0043858D01*
X0010469Y0044268D01*
X0008930Y0044268D01*
X0007509Y0043680D01*
X0006420Y0042591D01*
X0005831Y0041169D01*
X0005831Y0039630D01*
X0006420Y0038209D01*
X0007509Y0037120D01*
X0008930Y0036531D01*
X0010469Y0036531D01*
X0011891Y0037120D01*
X0012980Y0038209D01*
X0013568Y0039630D01*
X0013568Y0041169D01*
X0013158Y0042161D01*
X0017897Y0046900D01*
X0018600Y0047603D01*
X0018600Y0048982D01*
X0018920Y0048209D01*
X0020009Y0047120D01*
X0021430Y0046531D01*
X0022969Y0046531D01*
X0024391Y0047120D01*
X0025480Y0048209D01*
X0026068Y0049630D01*
X0026068Y0051169D01*
X0025480Y0052591D01*
X0024391Y0053680D01*
X0022969Y0054268D01*
X0021430Y0054268D01*
X0020009Y0053680D01*
X0018920Y0052591D01*
X0018600Y0051818D01*
X0018600Y0058982D01*
X0018920Y0058209D01*
X0020009Y0057120D01*
X0021430Y0056531D01*
X0022969Y0056531D01*
X0024391Y0057120D01*
X0025480Y0058209D01*
X0026068Y0059630D01*
X0026068Y0061169D01*
X0025480Y0062591D01*
X0024391Y0063680D01*
X0022969Y0064268D01*
X0021430Y0064268D01*
X0020009Y0063680D01*
X0018920Y0062591D01*
X0018600Y0061818D01*
X0018600Y0062503D01*
X0025497Y0069400D01*
X0041297Y0069400D01*
X0044197Y0072300D01*
X0049277Y0072300D01*
X0050427Y0071150D01*
X0052373Y0071150D01*
X0053300Y0072077D01*
X0053300Y0059850D01*
X0052227Y0059850D01*
X0050850Y0058473D01*
X0050850Y0056527D01*
X0052227Y0055150D01*
X0053853Y0055150D01*
X0053053Y0054350D01*
X0051427Y0054350D01*
X0050050Y0052973D01*
X0050050Y0051027D01*
X0050877Y0050200D01*
X0050050Y0049373D01*
X0050050Y0047427D01*
X0051427Y0046050D01*
X0053373Y0046050D01*
X0054750Y0047427D01*
X0054750Y0049053D01*
X0055550Y0049853D01*
X0055550Y0048327D01*
X0056927Y0046950D01*
X0058873Y0046950D01*
X0060023Y0048100D01*
X0064903Y0048100D01*
X0048403Y0031600D01*
X0013390Y0031600D01*
X0012980Y0032591D01*
X0011891Y0033680D01*
X0010469Y0034268D01*
X0008930Y0034268D01*
X0007509Y0033680D01*
X0006420Y0032591D01*
X0005831Y0031169D01*
X0005831Y0029630D01*
X0006420Y0028209D01*
X0007509Y0027120D01*
X0008930Y0026531D01*
X0010469Y0026531D01*
X0011891Y0027120D01*
X0012980Y0028209D01*
X0013390Y0029200D01*
X0048803Y0029200D01*
X0041203Y0021600D01*
X0013390Y0021600D01*
X0012980Y0022591D01*
X0011891Y0023680D01*
X0010469Y0024268D01*
X0008930Y0024268D01*
X0007509Y0023680D01*
X0006420Y0022591D01*
X0005831Y0021169D01*
X0005831Y0019630D01*
X0006420Y0018209D01*
X0007509Y0017120D01*
X0008930Y0016531D01*
X0010469Y0016531D01*
X0011891Y0017120D01*
X0012980Y0018209D01*
X0013390Y0019200D01*
X0042197Y0019200D01*
X0062550Y0039553D01*
X0062550Y0038027D01*
X0063927Y0036650D01*
X0065553Y0036650D01*
X0083003Y0019200D01*
X0086010Y0019200D01*
X0086420Y0018209D01*
X0087509Y0017120D01*
X0088930Y0016531D01*
X0090469Y0016531D01*
X0091891Y0017120D01*
X0092980Y0018209D01*
X0093568Y0019630D01*
X0093568Y0021169D01*
X0092980Y0022591D01*
X0091891Y0023680D01*
X0090469Y0024268D01*
X0088930Y0024268D01*
X0087509Y0023680D01*
X0086420Y0022591D01*
X0086010Y0021600D01*
X0083997Y0021600D01*
X0067250Y0038347D01*
X0067250Y0039973D01*
X0065873Y0041350D01*
X0064347Y0041350D01*
X0075697Y0052700D01*
X0078377Y0052700D01*
X0078527Y0052550D01*
X0080473Y0052550D01*
X0081850Y0053927D01*
X0081850Y0055873D01*
X0081623Y0056100D01*
X0082950Y0057427D01*
X0082950Y0059373D01*
X0081573Y0060750D01*
X0080250Y0060750D01*
X0080250Y0062573D01*
X0078873Y0063950D01*
X0076927Y0063950D01*
X0075550Y0062573D01*
X0075550Y0060947D01*
X0065103Y0050500D01*
X0060023Y0050500D01*
X0058873Y0051650D01*
X0057347Y0051650D01*
X0059400Y0053703D01*
X0059400Y0065977D01*
X0060227Y0065150D01*
X0062173Y0065150D01*
X0063550Y0066527D01*
X0063550Y0068473D01*
X0062400Y0069623D01*
X0062400Y0074603D01*
X0079999Y0092202D01*
X0080001Y0092202D01*
X0080352Y0092555D01*
X0080700Y0092903D01*
X0080700Y0092905D01*
X0080702Y0092907D01*
X0080700Y0093403D01*
X0080700Y0093897D01*
X0080698Y0093899D01*
X0080602Y0121805D01*
X0084297Y0125500D01*
X0085000Y0126203D01*
X0085000Y0134003D01*
X0087939Y0136942D01*
X0088930Y0136531D01*
X0090469Y0136531D01*
X0091891Y0137120D01*
X0092980Y0138209D01*
X0093568Y0139630D01*
X0093568Y0141169D01*
X0092980Y0142591D01*
X0091891Y0143680D01*
X0090469Y0144268D01*
X0088930Y0144268D01*
X0087509Y0143680D01*
X0086420Y0142591D01*
X0085831Y0141169D01*
X0085831Y0139630D01*
X0086242Y0138639D01*
X0083303Y0135700D01*
X0083303Y0135700D01*
X0082600Y0134997D01*
X0082600Y0127197D01*
X0078901Y0123498D01*
X0078899Y0123498D01*
X0078549Y0123146D01*
X0078200Y0122797D01*
X0078200Y0122795D01*
X0078198Y0122793D01*
X0078200Y0122299D01*
X0078200Y0121803D01*
X0078202Y0121801D01*
X0078298Y0093895D01*
X0073850Y0089447D01*
X0073850Y0090053D01*
X0075397Y0091600D01*
X0076100Y0092303D01*
X0076100Y0106797D01*
X0073329Y0109568D01*
X0073372Y0109670D01*
X0073372Y0111130D01*
X0072813Y0112480D01*
X0071792Y0113500D01*
X0074897Y0113500D01*
X0077097Y0115700D01*
X0077800Y0116403D01*
X0077800Y0125243D01*
X0078612Y0126055D01*
X0079081Y0127187D01*
X0079081Y0128413D01*
X0078612Y0129545D01*
X0077857Y0130300D01*
X0078612Y0131055D01*
X0079081Y0132187D01*
X0079081Y0133413D01*
X0078612Y0134545D01*
X0077745Y0135412D01*
X0076613Y0135881D01*
X0075387Y0135881D01*
X0074255Y0135412D01*
X0073767Y0134924D01*
X0073704Y0135019D01*
X0073219Y0135504D01*
X0072649Y0135885D01*
X0072015Y0136147D01*
X0071343Y0136281D01*
X0071291Y0136281D01*
X0071291Y0133091D01*
X0070709Y0133091D01*
X0070709Y0136281D01*
X0070657Y0136281D01*
X0069985Y0136147D01*
X0069351Y0135885D01*
X0068781Y0135504D01*
X0068500Y0135223D01*
X0068219Y0135504D01*
X0067649Y0135885D01*
X0067015Y0136147D01*
X0066343Y0136281D01*
X0066291Y0136281D01*
X0066291Y0133091D01*
X0065709Y0133091D01*
X0065709Y0136281D01*
X0065657Y0136281D01*
X0064985Y0136147D01*
X0064351Y0135885D01*
X0063781Y0135504D01*
X0063296Y0135019D01*
X0063233Y0134924D01*
X0062745Y0135412D01*
X0061613Y0135881D01*
X0060387Y0135881D01*
X0059255Y0135412D01*
X0058767Y0134924D01*
X0058704Y0135019D01*
X0058219Y0135504D01*
X0057649Y0135885D01*
X0057015Y0136147D01*
X0056343Y0136281D01*
X0056291Y0136281D01*
X0056291Y0133091D01*
X0055709Y0133091D01*
X0055709Y0136281D01*
X0055657Y0136281D01*
X0054985Y0136147D01*
X0054351Y0135885D01*
X0053781Y0135504D01*
X0053296Y0135019D01*
X0052915Y0134449D01*
X0052653Y0133815D01*
X0052519Y0133143D01*
X0052519Y0133091D01*
X0055709Y0133091D01*
X0055709Y0132509D01*
X0052519Y0132509D01*
X0052519Y0132457D01*
X0052653Y0131785D01*
X0052915Y0131151D01*
X0053296Y0130581D01*
X0053781Y0130096D01*
X0053876Y0130033D01*
X0053388Y0129545D01*
X0052919Y0128413D01*
X0052919Y0127187D01*
X0053145Y0126642D01*
X0050003Y0123500D01*
X0049300Y0122797D01*
X0049300Y0093903D01*
X0053300Y0089903D01*
X0053300Y0084823D01*
X0052273Y0085850D01*
X0050327Y0085850D01*
X0048950Y0084473D01*
X0048950Y0082847D01*
X0047350Y0081247D01*
X0047350Y0082973D01*
X0045973Y0084350D01*
X0044027Y0084350D01*
X0042877Y0083200D01*
X0041003Y0083200D01*
X0040300Y0082497D01*
X0038200Y0080397D01*
X0038200Y0079923D01*
X0037973Y0080150D01*
X0036027Y0080150D01*
X0034650Y0078773D01*
X0034650Y0077600D01*
X0034023Y0077600D01*
X0034350Y0077927D01*
X0034350Y0079873D01*
X0034331Y0079893D01*
X0034896Y0080598D01*
X0035200Y0080903D01*
X0035200Y0080979D01*
X0035248Y0081038D01*
X0035200Y0081466D01*
X0035200Y0108403D01*
X0041997Y0115200D01*
X0042700Y0115903D01*
X0042700Y0122177D01*
X0043850Y0123327D01*
X0043850Y0125273D01*
X0042473Y0126650D01*
X0040527Y0126650D01*
X0039700Y0125823D01*
X0038873Y0126650D01*
X0036927Y0126650D01*
X0035550Y0125273D01*
X0035550Y0123327D01*
X0036700Y0122177D01*
X0036700Y0116397D01*
X0032103Y0111800D01*
X0031400Y0111097D01*
X0031400Y0096823D01*
X0030873Y0097350D01*
X0028927Y0097350D01*
X0027777Y0096200D01*
X0022223Y0096200D01*
X0021073Y0097350D01*
X0019127Y0097350D01*
X0017750Y0095973D01*
X0017750Y0095775D02*
X0005600Y0095775D01*
X0005600Y0095177D02*
X0017750Y0095177D01*
X0017750Y0094578D02*
X0005600Y0094578D01*
X0005600Y0093980D02*
X0008233Y0093980D01*
X0007210Y0093381D02*
X0005600Y0093381D01*
X0005600Y0092783D02*
X0006612Y0092783D01*
X0006252Y0092184D02*
X0005600Y0092184D01*
X0005600Y0091586D02*
X0006004Y0091586D01*
X0005831Y0090987D02*
X0005600Y0090987D01*
X0005600Y0090389D02*
X0005831Y0090389D01*
X0005831Y0089790D02*
X0005600Y0089790D01*
X0005600Y0089192D02*
X0006013Y0089192D01*
X0006261Y0088593D02*
X0005600Y0088593D01*
X0005600Y0087995D02*
X0006635Y0087995D01*
X0007233Y0087396D02*
X0005600Y0087396D01*
X0005600Y0086798D02*
X0008288Y0086798D01*
X0007811Y0083805D02*
X0005600Y0083805D01*
X0005600Y0084403D02*
X0028080Y0084403D01*
X0027482Y0083805D02*
X0011589Y0083805D01*
X0012364Y0083206D02*
X0026883Y0083206D01*
X0026750Y0082608D02*
X0012963Y0082608D01*
X0013221Y0082009D02*
X0026750Y0082009D01*
X0026750Y0081411D02*
X0013468Y0081411D01*
X0013568Y0080812D02*
X0027064Y0080812D01*
X0027663Y0080214D02*
X0013568Y0080214D01*
X0013562Y0079615D02*
X0029650Y0079615D01*
X0029650Y0079017D02*
X0013314Y0079017D01*
X0013379Y0078418D02*
X0029650Y0078418D01*
X0029757Y0077820D02*
X0013977Y0077820D01*
X0013700Y0076400D02*
X0009700Y0080400D01*
X0010690Y0076623D02*
X0011780Y0076623D01*
X0012379Y0076024D02*
X0005600Y0076024D01*
X0005600Y0075426D02*
X0012977Y0075426D01*
X0012430Y0074827D02*
X0005600Y0074827D01*
X0005600Y0074229D02*
X0008835Y0074229D01*
X0007459Y0073630D02*
X0005600Y0073630D01*
X0005600Y0073032D02*
X0006861Y0073032D01*
X0006355Y0072433D02*
X0005600Y0072433D01*
X0005600Y0071835D02*
X0006107Y0071835D01*
X0005859Y0071236D02*
X0005600Y0071236D01*
X0005600Y0070638D02*
X0005831Y0070638D01*
X0005831Y0070039D02*
X0005600Y0070039D01*
X0005600Y0069441D02*
X0005910Y0069441D01*
X0006158Y0068842D02*
X0005600Y0068842D01*
X0005600Y0068244D02*
X0006406Y0068244D01*
X0006984Y0067645D02*
X0005600Y0067645D01*
X0005600Y0067047D02*
X0007687Y0067047D01*
X0005600Y0066448D02*
X0014051Y0066448D01*
X0013453Y0065850D02*
X0005600Y0065850D01*
X0005600Y0065251D02*
X0012854Y0065251D01*
X0012256Y0064653D02*
X0005600Y0064653D01*
X0005600Y0064054D02*
X0008413Y0064054D01*
X0007285Y0063456D02*
X0005600Y0063456D01*
X0005600Y0062857D02*
X0006686Y0062857D01*
X0006283Y0062259D02*
X0005600Y0062259D01*
X0005600Y0061660D02*
X0006035Y0061660D01*
X0005831Y0061062D02*
X0005600Y0061062D01*
X0005600Y0060463D02*
X0005831Y0060463D01*
X0005831Y0059865D02*
X0005600Y0059865D01*
X0005600Y0059266D02*
X0005982Y0059266D01*
X0006230Y0058668D02*
X0005600Y0058668D01*
X0005600Y0058069D02*
X0006560Y0058069D01*
X0007159Y0057470D02*
X0005600Y0057470D01*
X0005600Y0056872D02*
X0008109Y0056872D01*
X0007991Y0053879D02*
X0005600Y0053879D01*
X0005600Y0053281D02*
X0007110Y0053281D01*
X0006512Y0052682D02*
X0005600Y0052682D01*
X0005600Y0052084D02*
X0006210Y0052084D01*
X0005962Y0051485D02*
X0005600Y0051485D01*
X0005600Y0050887D02*
X0005831Y0050887D01*
X0005831Y0050288D02*
X0005600Y0050288D01*
X0005600Y0049690D02*
X0005831Y0049690D01*
X0006055Y0049091D02*
X0005600Y0049091D01*
X0005600Y0048493D02*
X0006303Y0048493D01*
X0006735Y0047894D02*
X0005600Y0047894D01*
X0005600Y0047296D02*
X0007333Y0047296D01*
X0008530Y0046697D02*
X0005600Y0046697D01*
X0005600Y0046099D02*
X0013702Y0046099D01*
X0014300Y0046697D02*
X0010870Y0046697D01*
X0012067Y0047296D02*
X0014899Y0047296D01*
X0015497Y0047894D02*
X0012665Y0047894D01*
X0013097Y0048493D02*
X0016096Y0048493D01*
X0016200Y0049091D02*
X0013345Y0049091D01*
X0013568Y0049690D02*
X0016200Y0049690D01*
X0016200Y0050288D02*
X0013568Y0050288D01*
X0013568Y0050887D02*
X0016200Y0050887D01*
X0016200Y0051485D02*
X0013438Y0051485D01*
X0013190Y0052084D02*
X0016200Y0052084D01*
X0016200Y0052682D02*
X0013679Y0052682D01*
X0014278Y0053281D02*
X0016200Y0053281D01*
X0016200Y0053879D02*
X0014876Y0053879D01*
X0015475Y0054478D02*
X0016200Y0054478D01*
X0016200Y0055076D02*
X0016073Y0055076D01*
X0015700Y0056400D02*
X0015700Y0063900D01*
X0023700Y0071900D01*
X0039700Y0071900D01*
X0051300Y0083500D01*
X0049479Y0085002D02*
X0035200Y0085002D01*
X0035200Y0084403D02*
X0048950Y0084403D01*
X0048950Y0083805D02*
X0046518Y0083805D01*
X0047117Y0083206D02*
X0048950Y0083206D01*
X0048711Y0082608D02*
X0047350Y0082608D01*
X0047350Y0082009D02*
X0048112Y0082009D01*
X0047514Y0081411D02*
X0047350Y0081411D01*
X0045000Y0082000D02*
X0041500Y0082000D01*
X0039400Y0079900D01*
X0039400Y0076400D01*
X0038000Y0075000D01*
X0014300Y0075000D01*
X0009700Y0070400D01*
X0011713Y0067047D02*
X0014650Y0067047D01*
X0015248Y0067645D02*
X0012416Y0067645D01*
X0012994Y0068244D02*
X0015847Y0068244D01*
X0016445Y0068842D02*
X0013242Y0068842D01*
X0013490Y0069441D02*
X0017044Y0069441D01*
X0017642Y0070039D02*
X0013568Y0070039D01*
X0013568Y0070638D02*
X0018241Y0070638D01*
X0018839Y0071236D02*
X0013541Y0071236D01*
X0013293Y0071835D02*
X0019438Y0071835D01*
X0020036Y0072433D02*
X0013430Y0072433D01*
X0014029Y0073032D02*
X0020635Y0073032D01*
X0021233Y0073630D02*
X0014627Y0073630D01*
X0013700Y0076400D02*
X0035600Y0076400D01*
X0037000Y0077800D01*
X0035492Y0079615D02*
X0034350Y0079615D01*
X0034350Y0079017D02*
X0034893Y0079017D01*
X0034650Y0078418D02*
X0034350Y0078418D01*
X0034243Y0077820D02*
X0034650Y0077820D01*
X0034588Y0080214D02*
X0038200Y0080214D01*
X0038615Y0080812D02*
X0035109Y0080812D01*
X0035206Y0081411D02*
X0039214Y0081411D01*
X0039812Y0082009D02*
X0035200Y0082009D01*
X0035200Y0082608D02*
X0040411Y0082608D01*
X0042883Y0083206D02*
X0035200Y0083206D01*
X0035200Y0083805D02*
X0043482Y0083805D01*
X0042400Y0079500D02*
X0042400Y0077700D01*
X0038100Y0073400D01*
X0022700Y0073400D01*
X0009700Y0060400D01*
X0011291Y0056872D02*
X0014475Y0056872D01*
X0014500Y0057470D02*
X0012241Y0057470D01*
X0012840Y0058069D02*
X0014500Y0058069D01*
X0014500Y0058668D02*
X0013170Y0058668D01*
X0013418Y0059266D02*
X0014500Y0059266D01*
X0014500Y0059865D02*
X0013568Y0059865D01*
X0013568Y0060463D02*
X0014500Y0060463D01*
X0014500Y0061062D02*
X0013568Y0061062D01*
X0013365Y0061660D02*
X0014500Y0061660D01*
X0014500Y0062259D02*
X0013256Y0062259D01*
X0013854Y0062857D02*
X0014500Y0062857D01*
X0014500Y0063456D02*
X0014453Y0063456D01*
X0011657Y0064054D02*
X0010987Y0064054D01*
X0013876Y0056273D02*
X0005600Y0056273D01*
X0005600Y0055675D02*
X0013278Y0055675D01*
X0012679Y0055076D02*
X0005600Y0055076D01*
X0005600Y0054478D02*
X0012081Y0054478D01*
X0011482Y0053879D02*
X0011409Y0053879D01*
X0009700Y0050400D02*
X0015700Y0056400D01*
X0018600Y0056273D02*
X0041429Y0056273D01*
X0041503Y0056200D02*
X0045350Y0052353D01*
X0045350Y0050727D01*
X0046727Y0049350D01*
X0048673Y0049350D01*
X0050050Y0050727D01*
X0050050Y0052673D01*
X0048673Y0054050D01*
X0047047Y0054050D01*
X0043560Y0057537D01*
X0044350Y0058327D01*
X0044350Y0060273D01*
X0042973Y0061650D01*
X0041027Y0061650D01*
X0039650Y0060273D01*
X0039650Y0058327D01*
X0040800Y0057177D01*
X0040800Y0056903D01*
X0041503Y0056200D01*
X0042028Y0055675D02*
X0018600Y0055675D01*
X0018600Y0055076D02*
X0042627Y0055076D01*
X0043225Y0054478D02*
X0018600Y0054478D01*
X0018600Y0053879D02*
X0020491Y0053879D01*
X0019610Y0053281D02*
X0018600Y0053281D01*
X0018600Y0052682D02*
X0019012Y0052682D01*
X0018710Y0052084D02*
X0018600Y0052084D01*
X0018600Y0048493D02*
X0018803Y0048493D01*
X0018600Y0047894D02*
X0019235Y0047894D01*
X0019833Y0047296D02*
X0018293Y0047296D01*
X0017694Y0046697D02*
X0021030Y0046697D01*
X0023370Y0046697D02*
X0050779Y0046697D01*
X0050181Y0047296D02*
X0024567Y0047296D01*
X0025165Y0047894D02*
X0050050Y0047894D01*
X0050050Y0048493D02*
X0025597Y0048493D01*
X0025845Y0049091D02*
X0050050Y0049091D01*
X0050366Y0049690D02*
X0049013Y0049690D01*
X0049612Y0050288D02*
X0050788Y0050288D01*
X0050190Y0050887D02*
X0050050Y0050887D01*
X0050050Y0051485D02*
X0050050Y0051485D01*
X0050050Y0052084D02*
X0050050Y0052084D01*
X0050041Y0052682D02*
X0050050Y0052682D01*
X0050358Y0053281D02*
X0049442Y0053281D01*
X0048844Y0053879D02*
X0050956Y0053879D01*
X0049908Y0055000D02*
X0049908Y0062008D01*
X0047808Y0064108D01*
X0044350Y0059865D02*
X0053300Y0059865D01*
X0053300Y0060463D02*
X0044160Y0060463D01*
X0043562Y0061062D02*
X0053300Y0061062D01*
X0053300Y0061660D02*
X0025865Y0061660D01*
X0026068Y0061062D02*
X0040438Y0061062D01*
X0039840Y0060463D02*
X0026068Y0060463D01*
X0026068Y0059865D02*
X0039650Y0059865D01*
X0039650Y0059266D02*
X0025918Y0059266D01*
X0025670Y0058668D02*
X0039650Y0058668D01*
X0039908Y0058069D02*
X0025340Y0058069D01*
X0024741Y0057470D02*
X0040506Y0057470D01*
X0040831Y0056872D02*
X0023791Y0056872D01*
X0023909Y0053879D02*
X0043824Y0053879D01*
X0044422Y0053281D02*
X0024790Y0053281D01*
X0025388Y0052682D02*
X0045021Y0052682D01*
X0045350Y0052084D02*
X0025690Y0052084D01*
X0025938Y0051485D02*
X0045350Y0051485D01*
X0045350Y0050887D02*
X0026068Y0050887D01*
X0026068Y0050288D02*
X0045788Y0050288D01*
X0046387Y0049690D02*
X0026068Y0049690D01*
X0020609Y0056872D02*
X0018600Y0056872D01*
X0018600Y0057470D02*
X0019659Y0057470D01*
X0019060Y0058069D02*
X0018600Y0058069D01*
X0018600Y0058668D02*
X0018730Y0058668D01*
X0018783Y0062259D02*
X0018600Y0062259D01*
X0018954Y0062857D02*
X0019186Y0062857D01*
X0019553Y0063456D02*
X0019785Y0063456D01*
X0020151Y0064054D02*
X0020913Y0064054D01*
X0020750Y0064653D02*
X0053300Y0064653D01*
X0053300Y0065251D02*
X0021348Y0065251D01*
X0021947Y0065850D02*
X0053300Y0065850D01*
X0053300Y0066448D02*
X0022545Y0066448D01*
X0023144Y0067047D02*
X0053300Y0067047D01*
X0053300Y0067645D02*
X0023742Y0067645D01*
X0024341Y0068244D02*
X0053300Y0068244D01*
X0053300Y0068842D02*
X0024939Y0068842D01*
X0025000Y0070600D02*
X0040800Y0070600D01*
X0043700Y0073500D01*
X0051400Y0073500D01*
X0053058Y0071835D02*
X0053300Y0071835D01*
X0053300Y0071236D02*
X0052460Y0071236D01*
X0053300Y0070638D02*
X0042535Y0070638D01*
X0043133Y0071236D02*
X0050340Y0071236D01*
X0049742Y0071835D02*
X0043732Y0071835D01*
X0041936Y0070039D02*
X0053300Y0070039D01*
X0053300Y0069441D02*
X0041338Y0069441D01*
X0042000Y0059300D02*
X0042000Y0057400D01*
X0047700Y0051700D01*
X0046619Y0054478D02*
X0053181Y0054478D01*
X0053779Y0055076D02*
X0046021Y0055076D01*
X0045422Y0055675D02*
X0051702Y0055675D01*
X0051103Y0056273D02*
X0044824Y0056273D01*
X0044225Y0056872D02*
X0050850Y0056872D01*
X0050850Y0057470D02*
X0043627Y0057470D01*
X0044092Y0058069D02*
X0050850Y0058069D01*
X0051044Y0058668D02*
X0044350Y0058668D01*
X0044350Y0059266D02*
X0051643Y0059266D01*
X0053200Y0057500D02*
X0054500Y0058800D01*
X0054500Y0090400D01*
X0050500Y0094400D01*
X0050500Y0122300D01*
X0056000Y0127800D01*
X0053733Y0129890D02*
X0050616Y0129890D01*
X0050616Y0130481D02*
X0050072Y0131794D01*
X0049067Y0132799D01*
X0047753Y0133343D01*
X0046332Y0133343D01*
X0045018Y0132799D01*
X0044013Y0131794D01*
X0043469Y0130481D01*
X0043469Y0129059D01*
X0044013Y0127746D01*
X0045018Y0126741D01*
X0046332Y0126197D01*
X0047753Y0126197D01*
X0049067Y0126741D01*
X0050072Y0127746D01*
X0050616Y0129059D01*
X0050616Y0130481D01*
X0050612Y0130489D02*
X0053388Y0130489D01*
X0052958Y0131087D02*
X0050365Y0131087D01*
X0050117Y0131686D02*
X0052694Y0131686D01*
X0052553Y0132284D02*
X0049581Y0132284D01*
X0048865Y0132883D02*
X0055709Y0132883D01*
X0056000Y0132800D02*
X0054500Y0134300D01*
X0039700Y0134300D01*
X0030900Y0125500D01*
X0030900Y0116300D01*
X0026100Y0111500D01*
X0027600Y0103000D02*
X0027600Y0099200D01*
X0026100Y0097700D01*
X0027950Y0096374D02*
X0022050Y0096374D01*
X0021451Y0096972D02*
X0028549Y0096972D01*
X0029900Y0095000D02*
X0020100Y0095000D01*
X0018395Y0093381D02*
X0012190Y0093381D01*
X0012788Y0092783D02*
X0018994Y0092783D01*
X0017797Y0093980D02*
X0011167Y0093980D01*
X0010400Y0091100D02*
X0009700Y0090400D01*
X0010400Y0091100D02*
X0030100Y0091100D01*
X0028459Y0092783D02*
X0021206Y0092783D01*
X0021805Y0093381D02*
X0028195Y0093381D01*
X0028086Y0089790D02*
X0013568Y0089790D01*
X0013387Y0089192D02*
X0028685Y0089192D01*
X0030903Y0085601D02*
X0005600Y0085601D01*
X0005600Y0086199D02*
X0031400Y0086199D01*
X0031400Y0086798D02*
X0011112Y0086798D01*
X0012167Y0087396D02*
X0031400Y0087396D01*
X0031400Y0087995D02*
X0012765Y0087995D01*
X0013139Y0088593D02*
X0031400Y0088593D01*
X0032600Y0085600D02*
X0029100Y0082100D01*
X0030305Y0085002D02*
X0005600Y0085002D01*
X0005600Y0083206D02*
X0007036Y0083206D01*
X0006437Y0082608D02*
X0005600Y0082608D01*
X0005600Y0082009D02*
X0006179Y0082009D01*
X0005932Y0081411D02*
X0005600Y0081411D01*
X0005600Y0080812D02*
X0005831Y0080812D01*
X0005831Y0080214D02*
X0005600Y0080214D01*
X0005600Y0079615D02*
X0005838Y0079615D01*
X0005600Y0079017D02*
X0006086Y0079017D01*
X0006334Y0078418D02*
X0005600Y0078418D01*
X0005600Y0077820D02*
X0006809Y0077820D01*
X0007408Y0077221D02*
X0005600Y0077221D01*
X0005600Y0076623D02*
X0008710Y0076623D01*
X0010565Y0074229D02*
X0011832Y0074229D01*
X0017400Y0063000D02*
X0025000Y0070600D01*
X0023487Y0064054D02*
X0053300Y0064054D01*
X0053300Y0063456D02*
X0024615Y0063456D01*
X0025214Y0062857D02*
X0053300Y0062857D01*
X0053300Y0062259D02*
X0025617Y0062259D01*
X0017400Y0063000D02*
X0017400Y0048100D01*
X0009700Y0040400D01*
X0007508Y0037121D02*
X0005600Y0037121D01*
X0005600Y0036523D02*
X0053326Y0036523D01*
X0053924Y0037121D02*
X0011892Y0037121D01*
X0012491Y0037720D02*
X0054523Y0037720D01*
X0055121Y0038318D02*
X0013025Y0038318D01*
X0013273Y0038917D02*
X0055720Y0038917D01*
X0056318Y0039515D02*
X0013521Y0039515D01*
X0013568Y0040114D02*
X0056917Y0040114D01*
X0057515Y0040712D02*
X0013568Y0040712D01*
X0013510Y0041311D02*
X0058114Y0041311D01*
X0058712Y0041909D02*
X0013262Y0041909D01*
X0013505Y0042508D02*
X0059311Y0042508D01*
X0059909Y0043106D02*
X0014103Y0043106D01*
X0014702Y0043705D02*
X0060508Y0043705D01*
X0061106Y0044303D02*
X0015300Y0044303D01*
X0015899Y0044902D02*
X0061705Y0044902D01*
X0062303Y0045500D02*
X0016497Y0045500D01*
X0017096Y0046099D02*
X0051378Y0046099D01*
X0053422Y0046099D02*
X0062902Y0046099D01*
X0063500Y0046697D02*
X0054021Y0046697D01*
X0054619Y0047296D02*
X0056581Y0047296D01*
X0055982Y0047894D02*
X0054750Y0047894D01*
X0054750Y0048493D02*
X0055550Y0048493D01*
X0055550Y0049091D02*
X0054788Y0049091D01*
X0055387Y0049690D02*
X0055550Y0049690D01*
X0057900Y0049300D02*
X0065600Y0049300D01*
X0077900Y0061600D01*
X0079368Y0063456D02*
X0087285Y0063456D01*
X0087509Y0063680D02*
X0086420Y0062591D01*
X0085831Y0061169D01*
X0085831Y0059630D01*
X0086420Y0058209D01*
X0087509Y0057120D01*
X0088930Y0056531D01*
X0090469Y0056531D01*
X0091891Y0057120D01*
X0092980Y0058209D01*
X0093568Y0059630D01*
X0093568Y0061169D01*
X0092980Y0062591D01*
X0091891Y0063680D01*
X0090469Y0064268D01*
X0088930Y0064268D01*
X0087509Y0063680D01*
X0088413Y0064054D02*
X0059400Y0064054D01*
X0059400Y0063456D02*
X0076432Y0063456D01*
X0075834Y0062857D02*
X0059400Y0062857D01*
X0059400Y0062259D02*
X0075550Y0062259D01*
X0075550Y0061660D02*
X0059400Y0061660D01*
X0059400Y0061062D02*
X0075550Y0061062D01*
X0075066Y0060463D02*
X0059400Y0060463D01*
X0059400Y0059865D02*
X0074467Y0059865D01*
X0073869Y0059266D02*
X0059400Y0059266D01*
X0059400Y0058668D02*
X0073270Y0058668D01*
X0072672Y0058069D02*
X0059400Y0058069D01*
X0059400Y0057470D02*
X0072073Y0057470D01*
X0071475Y0056872D02*
X0059400Y0056872D01*
X0059400Y0056273D02*
X0070876Y0056273D01*
X0070278Y0055675D02*
X0059400Y0055675D01*
X0059400Y0055076D02*
X0069679Y0055076D01*
X0069081Y0054478D02*
X0059400Y0054478D01*
X0059400Y0053879D02*
X0068482Y0053879D01*
X0067884Y0053281D02*
X0058978Y0053281D01*
X0058379Y0052682D02*
X0067285Y0052682D01*
X0066687Y0052084D02*
X0057781Y0052084D01*
X0059038Y0051485D02*
X0066088Y0051485D01*
X0065490Y0050887D02*
X0059637Y0050887D01*
X0059818Y0047894D02*
X0064697Y0047894D01*
X0064099Y0047296D02*
X0059219Y0047296D01*
X0052400Y0048400D02*
X0058200Y0054200D01*
X0058200Y0090300D01*
X0053300Y0095200D01*
X0053300Y0114200D01*
X0053800Y0114700D01*
X0074400Y0114700D01*
X0076600Y0116900D01*
X0076600Y0127200D01*
X0076000Y0127800D01*
X0078258Y0125701D02*
X0081104Y0125701D01*
X0081702Y0126299D02*
X0078713Y0126299D01*
X0078961Y0126898D02*
X0082301Y0126898D01*
X0082600Y0127496D02*
X0079081Y0127496D01*
X0079081Y0128095D02*
X0082600Y0128095D01*
X0082600Y0128693D02*
X0078965Y0128693D01*
X0078717Y0129292D02*
X0082600Y0129292D01*
X0082600Y0129890D02*
X0078267Y0129890D01*
X0078046Y0130489D02*
X0082600Y0130489D01*
X0082600Y0131087D02*
X0078626Y0131087D01*
X0078873Y0131686D02*
X0082600Y0131686D01*
X0082600Y0132284D02*
X0079081Y0132284D01*
X0079081Y0132883D02*
X0082600Y0132883D01*
X0082600Y0133481D02*
X0079053Y0133481D01*
X0078805Y0134080D02*
X0082600Y0134080D01*
X0082600Y0134678D02*
X0078479Y0134678D01*
X0077880Y0135277D02*
X0082880Y0135277D01*
X0083478Y0135875D02*
X0076626Y0135875D01*
X0075374Y0135875D02*
X0072663Y0135875D01*
X0073446Y0135277D02*
X0074120Y0135277D01*
X0071291Y0135277D02*
X0070709Y0135277D01*
X0070709Y0135875D02*
X0071291Y0135875D01*
X0071291Y0134678D02*
X0070709Y0134678D01*
X0070709Y0134080D02*
X0071291Y0134080D01*
X0071291Y0133481D02*
X0070709Y0133481D01*
X0070709Y0133091D02*
X0070709Y0132509D01*
X0067519Y0132509D01*
X0066291Y0132509D01*
X0066291Y0133091D01*
X0070709Y0133091D01*
X0070709Y0132883D02*
X0066291Y0132883D01*
X0066291Y0133481D02*
X0065709Y0133481D01*
X0065709Y0134080D02*
X0066291Y0134080D01*
X0066291Y0134678D02*
X0065709Y0134678D01*
X0065709Y0135277D02*
X0066291Y0135277D01*
X0066291Y0135875D02*
X0065709Y0135875D01*
X0064337Y0135875D02*
X0061626Y0135875D01*
X0060374Y0135875D02*
X0057663Y0135875D01*
X0058446Y0135277D02*
X0059120Y0135277D01*
X0056291Y0135277D02*
X0055709Y0135277D01*
X0055709Y0135875D02*
X0056291Y0135875D01*
X0056291Y0134678D02*
X0055709Y0134678D01*
X0055709Y0134080D02*
X0056291Y0134080D01*
X0056291Y0133481D02*
X0055709Y0133481D01*
X0054337Y0135875D02*
X0015922Y0135875D01*
X0016520Y0135277D02*
X0053554Y0135277D01*
X0053068Y0134678D02*
X0017119Y0134678D01*
X0017717Y0134080D02*
X0052762Y0134080D01*
X0052586Y0133481D02*
X0018316Y0133481D01*
X0018914Y0132883D02*
X0025535Y0132883D01*
X0025333Y0132799D02*
X0024328Y0131794D01*
X0023784Y0130481D01*
X0023784Y0129059D01*
X0024328Y0127746D01*
X0025333Y0126741D01*
X0026647Y0126197D01*
X0028068Y0126197D01*
X0029382Y0126741D01*
X0030387Y0127746D01*
X0030931Y0129059D01*
X0030931Y0130481D01*
X0030387Y0131794D01*
X0029382Y0132799D01*
X0028068Y0133343D01*
X0026647Y0133343D01*
X0025333Y0132799D01*
X0024818Y0132284D02*
X0019513Y0132284D01*
X0020111Y0131686D02*
X0024283Y0131686D01*
X0024035Y0131087D02*
X0020710Y0131087D01*
X0021308Y0130489D02*
X0023788Y0130489D01*
X0023784Y0129890D02*
X0021907Y0129890D01*
X0021897Y0129900D02*
X0013158Y0138639D01*
X0013568Y0139630D01*
X0013568Y0141169D01*
X0012980Y0142591D01*
X0011891Y0143680D01*
X0010469Y0144268D01*
X0008930Y0144268D01*
X0007509Y0143680D01*
X0006420Y0142591D01*
X0005831Y0141169D01*
X0005831Y0139630D01*
X0006420Y0138209D01*
X0007509Y0137120D01*
X0008930Y0136531D01*
X0010469Y0136531D01*
X0011461Y0136942D01*
X0020200Y0128203D01*
X0020200Y0126923D01*
X0019050Y0125773D01*
X0019050Y0123827D01*
X0020427Y0122450D01*
X0022373Y0122450D01*
X0023750Y0123827D01*
X0023750Y0125773D01*
X0022600Y0126923D01*
X0022600Y0129197D01*
X0021897Y0129900D01*
X0022505Y0129292D02*
X0023784Y0129292D01*
X0023936Y0128693D02*
X0022600Y0128693D01*
X0022600Y0128095D02*
X0024184Y0128095D01*
X0024578Y0127496D02*
X0022600Y0127496D01*
X0022626Y0126898D02*
X0025176Y0126898D01*
X0026399Y0126299D02*
X0023224Y0126299D01*
X0023750Y0125701D02*
X0035977Y0125701D01*
X0035550Y0125102D02*
X0023750Y0125102D01*
X0023750Y0124504D02*
X0035550Y0124504D01*
X0035550Y0123905D02*
X0023750Y0123905D01*
X0023230Y0123307D02*
X0035570Y0123307D01*
X0036168Y0122708D02*
X0022632Y0122708D01*
X0021400Y0124800D02*
X0021400Y0128700D01*
X0009700Y0140400D01*
X0007624Y0137072D02*
X0005600Y0137072D01*
X0005600Y0136474D02*
X0011929Y0136474D01*
X0012527Y0135875D02*
X0005600Y0135875D01*
X0005600Y0135277D02*
X0013126Y0135277D01*
X0013724Y0134678D02*
X0005600Y0134678D01*
X0005600Y0134080D02*
X0007520Y0134080D01*
X0006745Y0133481D02*
X0005600Y0133481D01*
X0005600Y0132883D02*
X0006228Y0132883D01*
X0005870Y0132284D02*
X0005600Y0132284D01*
X0005600Y0131686D02*
X0005630Y0131686D01*
X0005600Y0128693D02*
X0005779Y0128693D01*
X0005600Y0128095D02*
X0006099Y0128095D01*
X0006567Y0127496D02*
X0005600Y0127496D01*
X0005600Y0126898D02*
X0007258Y0126898D01*
X0008508Y0126299D02*
X0005600Y0126299D01*
X0005600Y0125701D02*
X0019050Y0125701D01*
X0019050Y0125102D02*
X0005600Y0125102D01*
X0005600Y0124504D02*
X0019050Y0124504D01*
X0019050Y0123905D02*
X0011346Y0123905D01*
X0011891Y0123680D02*
X0010469Y0124268D01*
X0008930Y0124268D01*
X0007509Y0123680D01*
X0006420Y0122591D01*
X0005831Y0121169D01*
X0005831Y0119630D01*
X0006420Y0118209D01*
X0007509Y0117120D01*
X0008930Y0116531D01*
X0010469Y0116531D01*
X0011891Y0117120D01*
X0012980Y0118209D01*
X0013568Y0119630D01*
X0013568Y0121169D01*
X0012980Y0122591D01*
X0011891Y0123680D01*
X0012264Y0123307D02*
X0019570Y0123307D01*
X0020168Y0122708D02*
X0012863Y0122708D01*
X0013179Y0122110D02*
X0036700Y0122110D01*
X0036700Y0121511D02*
X0013427Y0121511D01*
X0013568Y0120913D02*
X0036700Y0120913D01*
X0036700Y0120314D02*
X0013568Y0120314D01*
X0013568Y0119716D02*
X0036700Y0119716D01*
X0036700Y0119117D02*
X0013356Y0119117D01*
X0013108Y0118519D02*
X0036700Y0118519D01*
X0036700Y0117920D02*
X0012691Y0117920D01*
X0012093Y0117322D02*
X0036700Y0117322D01*
X0036700Y0116723D02*
X0010932Y0116723D01*
X0011391Y0114329D02*
X0034632Y0114329D01*
X0034034Y0113731D02*
X0012378Y0113731D01*
X0012991Y0113132D02*
X0033435Y0113132D01*
X0032836Y0112534D02*
X0013404Y0112534D01*
X0013689Y0111935D02*
X0032238Y0111935D01*
X0031639Y0111337D02*
X0013873Y0111337D01*
X0013968Y0110738D02*
X0031400Y0110738D01*
X0031400Y0110139D02*
X0010000Y0110139D01*
X0009700Y0110400D02*
X0012000Y0110400D01*
X0015600Y0114000D01*
X0015600Y0124500D01*
X0009700Y0130400D01*
X0010000Y0130489D02*
X0017914Y0130489D01*
X0017316Y0131087D02*
X0013913Y0131087D01*
X0013770Y0131686D02*
X0016717Y0131686D01*
X0016119Y0132284D02*
X0013530Y0132284D01*
X0013172Y0132883D02*
X0015520Y0132883D01*
X0014922Y0133481D02*
X0012655Y0133481D01*
X0011880Y0134080D02*
X0014323Y0134080D01*
X0015323Y0136474D02*
X0021674Y0136474D01*
X0020673Y0137072D02*
X0014725Y0137072D01*
X0014126Y0137671D02*
X0020074Y0137671D01*
X0019653Y0138270D02*
X0013528Y0138270D01*
X0013253Y0138868D02*
X0019405Y0138868D01*
X0019158Y0139467D02*
X0013501Y0139467D01*
X0013568Y0140065D02*
X0019125Y0140065D01*
X0019125Y0140664D02*
X0013568Y0140664D01*
X0013530Y0141262D02*
X0019128Y0141262D01*
X0019376Y0141861D02*
X0013282Y0141861D01*
X0013034Y0142459D02*
X0019624Y0142459D01*
X0020003Y0143058D02*
X0012513Y0143058D01*
X0011915Y0143656D02*
X0020602Y0143656D01*
X0021501Y0144255D02*
X0010503Y0144255D01*
X0008897Y0144255D02*
X0005600Y0144255D01*
X0005600Y0143656D02*
X0007485Y0143656D01*
X0006887Y0143058D02*
X0005600Y0143058D01*
X0005600Y0142459D02*
X0006366Y0142459D01*
X0006118Y0141861D02*
X0005600Y0141861D01*
X0005600Y0141262D02*
X0005870Y0141262D01*
X0005831Y0140664D02*
X0005600Y0140664D01*
X0005600Y0140065D02*
X0005831Y0140065D01*
X0005899Y0139467D02*
X0005600Y0139467D01*
X0005600Y0138868D02*
X0006147Y0138868D01*
X0006395Y0138270D02*
X0005600Y0138270D01*
X0005600Y0137671D02*
X0006958Y0137671D01*
X0009400Y0134080D02*
X0010000Y0134080D01*
X0010000Y0133481D02*
X0009400Y0133481D01*
X0009400Y0132883D02*
X0010000Y0132883D01*
X0010000Y0132284D02*
X0009400Y0132284D01*
X0009400Y0131686D02*
X0010000Y0131686D01*
X0010000Y0131087D02*
X0009400Y0131087D01*
X0009400Y0129890D02*
X0010000Y0129890D01*
X0010000Y0129292D02*
X0009400Y0129292D01*
X0009400Y0128693D02*
X0010000Y0128693D01*
X0010000Y0128095D02*
X0009400Y0128095D01*
X0009400Y0127496D02*
X0010000Y0127496D01*
X0010000Y0126898D02*
X0009400Y0126898D01*
X0009400Y0126299D02*
X0010000Y0126299D01*
X0010892Y0126299D02*
X0019576Y0126299D01*
X0020174Y0126898D02*
X0012142Y0126898D01*
X0012833Y0127496D02*
X0020200Y0127496D01*
X0020200Y0128095D02*
X0013301Y0128095D01*
X0013621Y0128693D02*
X0019710Y0128693D01*
X0019111Y0129292D02*
X0013828Y0129292D01*
X0013941Y0129890D02*
X0018513Y0129890D01*
X0025167Y0136474D02*
X0049233Y0136474D01*
X0048232Y0137072D02*
X0026168Y0137072D01*
X0026766Y0137671D02*
X0047634Y0137671D01*
X0047212Y0138270D02*
X0027188Y0138270D01*
X0027435Y0138868D02*
X0046964Y0138868D01*
X0046717Y0139467D02*
X0027683Y0139467D01*
X0027716Y0140065D02*
X0046684Y0140065D01*
X0046684Y0140664D02*
X0027716Y0140664D01*
X0027713Y0141262D02*
X0046687Y0141262D01*
X0046935Y0141861D02*
X0027465Y0141861D01*
X0027217Y0142459D02*
X0047183Y0142459D01*
X0047562Y0143058D02*
X0026838Y0143058D01*
X0026239Y0143656D02*
X0048161Y0143656D01*
X0049060Y0144255D02*
X0025340Y0144255D01*
X0029180Y0132883D02*
X0045220Y0132883D01*
X0044504Y0132284D02*
X0029896Y0132284D01*
X0030432Y0131686D02*
X0043968Y0131686D01*
X0043721Y0131087D02*
X0030679Y0131087D01*
X0030927Y0130489D02*
X0043473Y0130489D01*
X0043469Y0129890D02*
X0030931Y0129890D01*
X0030931Y0129292D02*
X0043469Y0129292D01*
X0043621Y0128693D02*
X0030779Y0128693D01*
X0030531Y0128095D02*
X0043869Y0128095D01*
X0044263Y0127496D02*
X0030137Y0127496D01*
X0029539Y0126898D02*
X0044861Y0126898D01*
X0046084Y0126299D02*
X0042824Y0126299D01*
X0043423Y0125701D02*
X0052204Y0125701D01*
X0052802Y0126299D02*
X0048001Y0126299D01*
X0049224Y0126898D02*
X0053039Y0126898D01*
X0052919Y0127496D02*
X0049822Y0127496D01*
X0050216Y0128095D02*
X0052919Y0128095D01*
X0053035Y0128693D02*
X0050464Y0128693D01*
X0050616Y0129292D02*
X0053283Y0129292D01*
X0051605Y0125102D02*
X0043850Y0125102D01*
X0043850Y0124504D02*
X0051007Y0124504D01*
X0050408Y0123905D02*
X0043850Y0123905D01*
X0043830Y0123307D02*
X0049810Y0123307D01*
X0049300Y0122708D02*
X0043232Y0122708D01*
X0042700Y0122110D02*
X0049300Y0122110D01*
X0049300Y0121511D02*
X0042700Y0121511D01*
X0042700Y0120913D02*
X0049300Y0120913D01*
X0049300Y0120314D02*
X0042700Y0120314D01*
X0042700Y0119716D02*
X0049300Y0119716D01*
X0049300Y0119117D02*
X0042700Y0119117D01*
X0042700Y0118519D02*
X0049300Y0118519D01*
X0049300Y0117920D02*
X0042700Y0117920D01*
X0042700Y0117322D02*
X0049300Y0117322D01*
X0049300Y0116723D02*
X0042700Y0116723D01*
X0042700Y0116125D02*
X0049300Y0116125D01*
X0049300Y0115526D02*
X0042323Y0115526D01*
X0041725Y0114928D02*
X0049300Y0114928D01*
X0049300Y0114329D02*
X0041126Y0114329D01*
X0040528Y0113731D02*
X0049300Y0113731D01*
X0049300Y0113132D02*
X0039929Y0113132D01*
X0039331Y0112534D02*
X0049300Y0112534D01*
X0049300Y0111935D02*
X0038732Y0111935D01*
X0038134Y0111337D02*
X0049300Y0111337D01*
X0049300Y0110738D02*
X0037535Y0110738D01*
X0036937Y0110139D02*
X0049300Y0110139D01*
X0049300Y0109541D02*
X0036338Y0109541D01*
X0035740Y0108942D02*
X0049300Y0108942D01*
X0049300Y0108344D02*
X0035200Y0108344D01*
X0035200Y0107745D02*
X0049300Y0107745D01*
X0049300Y0107147D02*
X0035200Y0107147D01*
X0035200Y0106548D02*
X0049300Y0106548D01*
X0049300Y0105950D02*
X0035200Y0105950D01*
X0035200Y0105351D02*
X0049300Y0105351D01*
X0049300Y0104753D02*
X0035200Y0104753D01*
X0035200Y0104154D02*
X0049300Y0104154D01*
X0049300Y0103556D02*
X0035200Y0103556D01*
X0035200Y0102957D02*
X0049300Y0102957D01*
X0049300Y0102359D02*
X0035200Y0102359D01*
X0035200Y0101760D02*
X0049300Y0101760D01*
X0049300Y0101162D02*
X0035200Y0101162D01*
X0035200Y0100563D02*
X0049300Y0100563D01*
X0049300Y0099965D02*
X0035200Y0099965D01*
X0035200Y0099366D02*
X0049300Y0099366D01*
X0049300Y0098768D02*
X0035200Y0098768D01*
X0035200Y0098169D02*
X0049300Y0098169D01*
X0049300Y0097571D02*
X0035200Y0097571D01*
X0035200Y0096972D02*
X0049300Y0096972D01*
X0049300Y0096374D02*
X0035200Y0096374D01*
X0035200Y0095775D02*
X0049300Y0095775D01*
X0049300Y0095177D02*
X0035200Y0095177D01*
X0035200Y0094578D02*
X0049300Y0094578D01*
X0049300Y0093980D02*
X0035200Y0093980D01*
X0035200Y0093381D02*
X0049822Y0093381D01*
X0050420Y0092783D02*
X0035200Y0092783D01*
X0035200Y0092184D02*
X0051019Y0092184D01*
X0051617Y0091586D02*
X0035200Y0091586D01*
X0035200Y0090987D02*
X0052216Y0090987D01*
X0052814Y0090389D02*
X0035200Y0090389D01*
X0035200Y0089790D02*
X0053300Y0089790D01*
X0053300Y0089192D02*
X0035200Y0089192D01*
X0035200Y0088593D02*
X0053300Y0088593D01*
X0053300Y0087995D02*
X0035200Y0087995D01*
X0035200Y0087396D02*
X0053300Y0087396D01*
X0053300Y0086798D02*
X0035200Y0086798D01*
X0035200Y0086199D02*
X0053300Y0086199D01*
X0053300Y0085601D02*
X0052523Y0085601D01*
X0053121Y0085002D02*
X0053300Y0085002D01*
X0050077Y0085601D02*
X0035200Y0085601D01*
X0032600Y0085600D02*
X0032600Y0110600D01*
X0037900Y0115900D01*
X0037900Y0124300D01*
X0036576Y0126299D02*
X0028316Y0126299D01*
X0035829Y0115526D02*
X0005600Y0115526D01*
X0005600Y0114928D02*
X0035231Y0114928D01*
X0036428Y0116125D02*
X0005600Y0116125D01*
X0005600Y0116723D02*
X0008468Y0116723D01*
X0007307Y0117322D02*
X0005600Y0117322D01*
X0005600Y0117920D02*
X0006709Y0117920D01*
X0006292Y0118519D02*
X0005600Y0118519D01*
X0005600Y0119117D02*
X0006044Y0119117D01*
X0005831Y0119716D02*
X0005600Y0119716D01*
X0005600Y0120314D02*
X0005831Y0120314D01*
X0005831Y0120913D02*
X0005600Y0120913D01*
X0005600Y0121511D02*
X0005973Y0121511D01*
X0006221Y0122110D02*
X0005600Y0122110D01*
X0005600Y0122708D02*
X0006537Y0122708D01*
X0007136Y0123307D02*
X0005600Y0123307D01*
X0005600Y0123905D02*
X0008054Y0123905D01*
X0008009Y0114329D02*
X0005600Y0114329D01*
X0005600Y0113731D02*
X0007022Y0113731D01*
X0006409Y0113132D02*
X0005600Y0113132D01*
X0005600Y0112534D02*
X0005996Y0112534D01*
X0005711Y0111935D02*
X0005600Y0111935D01*
X0009400Y0111935D02*
X0010000Y0111935D01*
X0010000Y0111337D02*
X0009400Y0111337D01*
X0009400Y0110738D02*
X0010000Y0110738D01*
X0010000Y0109541D02*
X0009400Y0109541D01*
X0009400Y0108942D02*
X0010000Y0108942D01*
X0010000Y0108344D02*
X0009400Y0108344D01*
X0009400Y0107745D02*
X0010000Y0107745D01*
X0010000Y0107147D02*
X0009400Y0107147D01*
X0009400Y0106548D02*
X0010000Y0106548D01*
X0010745Y0104154D02*
X0031400Y0104154D01*
X0031400Y0103556D02*
X0012015Y0103556D01*
X0012614Y0102957D02*
X0031400Y0102957D01*
X0031400Y0102359D02*
X0013076Y0102359D01*
X0013324Y0101760D02*
X0031400Y0101760D01*
X0031400Y0101162D02*
X0013568Y0101162D01*
X0013568Y0100563D02*
X0031400Y0100563D01*
X0031400Y0099965D02*
X0013568Y0099965D01*
X0013459Y0099366D02*
X0031400Y0099366D01*
X0031400Y0098768D02*
X0013211Y0098768D01*
X0012940Y0098169D02*
X0031400Y0098169D01*
X0031400Y0097571D02*
X0012342Y0097571D01*
X0011534Y0096972D02*
X0018749Y0096972D01*
X0012483Y0107147D02*
X0031400Y0107147D01*
X0031400Y0107745D02*
X0013047Y0107745D01*
X0013443Y0108344D02*
X0031400Y0108344D01*
X0031400Y0108942D02*
X0013715Y0108942D01*
X0013886Y0109541D02*
X0031400Y0109541D01*
X0034000Y0108900D02*
X0041500Y0116400D01*
X0041500Y0124300D01*
X0040176Y0126299D02*
X0039224Y0126299D01*
X0034000Y0108900D02*
X0034000Y0081400D01*
X0032000Y0078900D01*
X0031400Y0096972D02*
X0031251Y0096972D01*
X0031400Y0104753D02*
X0005600Y0104753D01*
X0005600Y0105351D02*
X0031400Y0105351D01*
X0031400Y0105950D02*
X0005600Y0105950D01*
X0009400Y0112534D02*
X0010000Y0112534D01*
X0010000Y0113132D02*
X0009400Y0113132D01*
X0009400Y0113731D02*
X0010000Y0113731D01*
X0010000Y0114329D02*
X0009400Y0114329D01*
X0011543Y0106548D02*
X0031400Y0106548D01*
X0051800Y0094900D02*
X0056200Y0090500D01*
X0056200Y0055800D01*
X0052400Y0052000D01*
X0053600Y0052000D01*
X0059400Y0064653D02*
X0093800Y0064653D01*
X0093800Y0065251D02*
X0062275Y0065251D01*
X0062873Y0065850D02*
X0093800Y0065850D01*
X0093800Y0066448D02*
X0063472Y0066448D01*
X0063550Y0067047D02*
X0087687Y0067047D01*
X0087509Y0067120D02*
X0088930Y0066531D01*
X0090469Y0066531D01*
X0091891Y0067120D01*
X0092980Y0068209D01*
X0093568Y0069630D01*
X0093568Y0071169D01*
X0092980Y0072591D01*
X0091891Y0073680D01*
X0090469Y0074268D01*
X0088930Y0074268D01*
X0087509Y0073680D01*
X0086420Y0072591D01*
X0085831Y0071169D01*
X0085831Y0069630D01*
X0086420Y0068209D01*
X0087509Y0067120D01*
X0086984Y0067645D02*
X0063550Y0067645D01*
X0063550Y0068244D02*
X0086406Y0068244D01*
X0086158Y0068842D02*
X0063181Y0068842D01*
X0062583Y0069441D02*
X0085910Y0069441D01*
X0085831Y0070039D02*
X0062400Y0070039D01*
X0062400Y0070638D02*
X0085831Y0070638D01*
X0085859Y0071236D02*
X0062400Y0071236D01*
X0062400Y0071835D02*
X0086107Y0071835D01*
X0086355Y0072433D02*
X0062400Y0072433D01*
X0062400Y0073032D02*
X0086861Y0073032D01*
X0087459Y0073630D02*
X0080154Y0073630D01*
X0080073Y0073550D02*
X0081450Y0074927D01*
X0081450Y0076429D01*
X0084467Y0079200D01*
X0086010Y0079200D01*
X0086420Y0078209D01*
X0087509Y0077120D01*
X0088930Y0076531D01*
X0090469Y0076531D01*
X0091891Y0077120D01*
X0092980Y0078209D01*
X0093568Y0079630D01*
X0093568Y0081169D01*
X0092980Y0082591D01*
X0091891Y0083680D01*
X0090469Y0084268D01*
X0088930Y0084268D01*
X0087509Y0083680D01*
X0086420Y0082591D01*
X0086010Y0081600D01*
X0084025Y0081600D01*
X0083554Y0081620D01*
X0083533Y0081600D01*
X0083503Y0081600D01*
X0083169Y0081267D01*
X0081250Y0079504D01*
X0081250Y0080253D01*
X0087939Y0086942D01*
X0088930Y0086531D01*
X0090469Y0086531D01*
X0091891Y0087120D01*
X0092980Y0088209D01*
X0093568Y0089630D01*
X0093568Y0091169D01*
X0092980Y0092591D01*
X0091891Y0093680D01*
X0090469Y0094268D01*
X0088930Y0094268D01*
X0087509Y0093680D01*
X0086420Y0092591D01*
X0085831Y0091169D01*
X0085831Y0089630D01*
X0086242Y0088639D01*
X0079353Y0081750D01*
X0077927Y0081750D01*
X0076550Y0080373D01*
X0076550Y0078427D01*
X0077427Y0077550D01*
X0076750Y0076873D01*
X0076750Y0074927D01*
X0078127Y0073550D01*
X0080073Y0073550D01*
X0080752Y0074229D02*
X0088835Y0074229D01*
X0090565Y0074229D02*
X0093800Y0074229D01*
X0093800Y0074827D02*
X0081351Y0074827D01*
X0081450Y0075426D02*
X0093800Y0075426D01*
X0093800Y0076024D02*
X0081450Y0076024D01*
X0081661Y0076623D02*
X0088710Y0076623D01*
X0087408Y0077221D02*
X0082313Y0077221D01*
X0082965Y0077820D02*
X0086809Y0077820D01*
X0086334Y0078418D02*
X0083616Y0078418D01*
X0084268Y0079017D02*
X0086086Y0079017D01*
X0084000Y0080400D02*
X0079100Y0075900D01*
X0078046Y0073630D02*
X0062400Y0073630D01*
X0062400Y0074229D02*
X0077448Y0074229D01*
X0076849Y0074827D02*
X0062624Y0074827D01*
X0063223Y0075426D02*
X0076750Y0075426D01*
X0076750Y0076024D02*
X0063821Y0076024D01*
X0064420Y0076623D02*
X0076750Y0076623D01*
X0077098Y0077221D02*
X0065018Y0077221D01*
X0065617Y0077820D02*
X0077157Y0077820D01*
X0076558Y0078418D02*
X0066215Y0078418D01*
X0066814Y0079017D02*
X0076550Y0079017D01*
X0076550Y0079615D02*
X0067412Y0079615D01*
X0068011Y0080214D02*
X0076550Y0080214D01*
X0076989Y0080812D02*
X0068609Y0080812D01*
X0069208Y0081411D02*
X0077588Y0081411D01*
X0078900Y0079600D02*
X0078900Y0079400D01*
X0078900Y0079600D02*
X0089700Y0090400D01*
X0088233Y0093980D02*
X0080698Y0093980D01*
X0080696Y0094578D02*
X0093800Y0094578D01*
X0093800Y0093980D02*
X0091167Y0093980D01*
X0092190Y0093381D02*
X0093800Y0093381D01*
X0093800Y0092783D02*
X0092788Y0092783D01*
X0093148Y0092184D02*
X0093800Y0092184D01*
X0093800Y0091586D02*
X0093396Y0091586D01*
X0093568Y0090987D02*
X0093800Y0090987D01*
X0093800Y0090389D02*
X0093568Y0090389D01*
X0093568Y0089790D02*
X0093800Y0089790D01*
X0093800Y0089192D02*
X0093387Y0089192D01*
X0093139Y0088593D02*
X0093800Y0088593D01*
X0093800Y0087995D02*
X0092765Y0087995D01*
X0092167Y0087396D02*
X0093800Y0087396D01*
X0093800Y0086798D02*
X0091112Y0086798D01*
X0091589Y0083805D02*
X0093800Y0083805D01*
X0093800Y0084403D02*
X0085401Y0084403D01*
X0084802Y0083805D02*
X0087811Y0083805D01*
X0087036Y0083206D02*
X0084204Y0083206D01*
X0083605Y0082608D02*
X0086437Y0082608D01*
X0086179Y0082009D02*
X0083006Y0082009D01*
X0083314Y0081411D02*
X0082408Y0081411D01*
X0082675Y0080812D02*
X0081809Y0080812D01*
X0082023Y0080214D02*
X0081250Y0080214D01*
X0081250Y0079615D02*
X0081372Y0079615D01*
X0079612Y0082009D02*
X0069806Y0082009D01*
X0070405Y0082608D02*
X0080211Y0082608D01*
X0080809Y0083206D02*
X0071004Y0083206D01*
X0071602Y0083805D02*
X0081408Y0083805D01*
X0082006Y0084403D02*
X0072201Y0084403D01*
X0072799Y0085002D02*
X0082605Y0085002D01*
X0083203Y0085601D02*
X0073398Y0085601D01*
X0073996Y0086199D02*
X0083802Y0086199D01*
X0084401Y0086798D02*
X0074595Y0086798D01*
X0075193Y0087396D02*
X0084999Y0087396D01*
X0085598Y0087995D02*
X0075792Y0087995D01*
X0076390Y0088593D02*
X0086196Y0088593D01*
X0086013Y0089192D02*
X0076989Y0089192D01*
X0077587Y0089790D02*
X0085831Y0089790D01*
X0085831Y0090389D02*
X0078186Y0090389D01*
X0078784Y0090987D02*
X0085831Y0090987D01*
X0086004Y0091586D02*
X0079383Y0091586D01*
X0079981Y0092184D02*
X0086252Y0092184D01*
X0086612Y0092783D02*
X0080580Y0092783D01*
X0080700Y0093381D02*
X0087210Y0093381D01*
X0088930Y0096531D02*
X0087509Y0097120D01*
X0086420Y0098209D01*
X0085831Y0099630D01*
X0085831Y0101169D01*
X0086420Y0102591D01*
X0087509Y0103680D01*
X0088930Y0104268D01*
X0090469Y0104268D01*
X0091891Y0103680D01*
X0092980Y0102591D01*
X0093568Y0101169D01*
X0093568Y0099630D01*
X0092980Y0098209D01*
X0091891Y0097120D01*
X0090469Y0096531D01*
X0088930Y0096531D01*
X0087866Y0096972D02*
X0080688Y0096972D01*
X0080690Y0096374D02*
X0093800Y0096374D01*
X0093800Y0096972D02*
X0091534Y0096972D01*
X0092342Y0097571D02*
X0093800Y0097571D01*
X0093800Y0098169D02*
X0092940Y0098169D01*
X0093211Y0098768D02*
X0093800Y0098768D01*
X0093800Y0099366D02*
X0093459Y0099366D01*
X0093568Y0099965D02*
X0093800Y0099965D01*
X0093800Y0100563D02*
X0093568Y0100563D01*
X0093568Y0101162D02*
X0093800Y0101162D01*
X0093800Y0101760D02*
X0093324Y0101760D01*
X0093076Y0102359D02*
X0093800Y0102359D01*
X0093800Y0102957D02*
X0092614Y0102957D01*
X0092015Y0103556D02*
X0093800Y0103556D01*
X0093800Y0104154D02*
X0090745Y0104154D01*
X0090469Y0106531D02*
X0091891Y0107120D01*
X0092980Y0108209D01*
X0093568Y0109630D01*
X0093568Y0111169D01*
X0092980Y0112591D01*
X0091891Y0113680D01*
X0090469Y0114268D01*
X0088930Y0114268D01*
X0087509Y0113680D01*
X0086420Y0112591D01*
X0085831Y0111169D01*
X0085831Y0109630D01*
X0086420Y0108209D01*
X0087509Y0107120D01*
X0088930Y0106531D01*
X0090469Y0106531D01*
X0090510Y0106548D02*
X0093800Y0106548D01*
X0093800Y0105950D02*
X0080657Y0105950D01*
X0080655Y0106548D02*
X0088890Y0106548D01*
X0088655Y0104154D02*
X0080663Y0104154D01*
X0080665Y0103556D02*
X0087385Y0103556D01*
X0086786Y0102957D02*
X0080667Y0102957D01*
X0080669Y0102359D02*
X0086324Y0102359D01*
X0086076Y0101760D02*
X0080671Y0101760D01*
X0080673Y0101162D02*
X0085831Y0101162D01*
X0085831Y0100563D02*
X0080675Y0100563D01*
X0080677Y0099965D02*
X0085831Y0099965D01*
X0085941Y0099366D02*
X0080679Y0099366D01*
X0080681Y0098768D02*
X0086189Y0098768D01*
X0086460Y0098169D02*
X0080684Y0098169D01*
X0080686Y0097571D02*
X0087058Y0097571D01*
X0080692Y0095775D02*
X0093800Y0095775D01*
X0093800Y0095177D02*
X0080694Y0095177D01*
X0079500Y0093400D02*
X0061200Y0075100D01*
X0061200Y0067500D01*
X0059527Y0065850D02*
X0059400Y0065850D01*
X0059400Y0065251D02*
X0060125Y0065251D01*
X0059400Y0069023D02*
X0059400Y0090797D01*
X0058697Y0091500D01*
X0054500Y0095697D01*
X0054500Y0113500D01*
X0057608Y0113500D01*
X0056587Y0112480D01*
X0056028Y0111130D01*
X0056028Y0109670D01*
X0056587Y0108320D01*
X0057620Y0107287D01*
X0058970Y0106728D01*
X0060430Y0106728D01*
X0061780Y0107287D01*
X0062813Y0108320D01*
X0063372Y0109670D01*
X0063372Y0111130D01*
X0062813Y0112480D01*
X0061792Y0113500D01*
X0067608Y0113500D01*
X0066587Y0112480D01*
X0066028Y0111130D01*
X0066028Y0109670D01*
X0066587Y0108320D01*
X0067620Y0107287D01*
X0068970Y0106728D01*
X0070430Y0106728D01*
X0071780Y0107287D01*
X0071998Y0107505D01*
X0073700Y0105803D01*
X0073700Y0101173D01*
X0073671Y0101353D01*
X0073473Y0101963D01*
X0073182Y0102534D01*
X0072806Y0103052D01*
X0072352Y0103506D01*
X0071834Y0103882D01*
X0071263Y0104173D01*
X0070653Y0104371D01*
X0070020Y0104472D01*
X0070000Y0104472D01*
X0070000Y0100700D01*
X0069400Y0100700D01*
X0069400Y0104472D01*
X0069380Y0104472D01*
X0068747Y0104371D01*
X0068137Y0104173D01*
X0067566Y0103882D01*
X0067047Y0103506D01*
X0066594Y0103052D01*
X0066218Y0102534D01*
X0065927Y0101963D01*
X0065729Y0101353D01*
X0065628Y0100720D01*
X0065628Y0100700D01*
X0069400Y0100700D01*
X0069400Y0100100D01*
X0065628Y0100100D01*
X0065628Y0100080D01*
X0065729Y0099447D01*
X0065927Y0098837D01*
X0066218Y0098266D01*
X0066594Y0097747D01*
X0067047Y0097294D01*
X0067315Y0097100D01*
X0061328Y0097100D01*
X0061780Y0097287D01*
X0062813Y0098320D01*
X0063372Y0099670D01*
X0063372Y0101130D01*
X0062813Y0102480D01*
X0061780Y0103513D01*
X0060430Y0104072D01*
X0058970Y0104072D01*
X0057620Y0103513D01*
X0056587Y0102480D01*
X0056028Y0101130D01*
X0056028Y0099670D01*
X0056587Y0098320D01*
X0057620Y0097287D01*
X0058970Y0096728D01*
X0060430Y0096728D01*
X0061286Y0097083D01*
X0060653Y0096450D01*
X0059027Y0096450D01*
X0057650Y0095073D01*
X0057650Y0093127D01*
X0059027Y0091750D01*
X0060727Y0091750D01*
X0060250Y0091273D01*
X0060250Y0089327D01*
X0061627Y0087950D01*
X0063573Y0087950D01*
X0064950Y0089327D01*
X0064950Y0090953D01*
X0065497Y0091500D01*
X0067277Y0091500D01*
X0068427Y0090350D01*
X0069150Y0090350D01*
X0069150Y0088427D01*
X0070527Y0087050D01*
X0071453Y0087050D01*
X0060703Y0076300D01*
X0060703Y0076300D01*
X0060000Y0075597D01*
X0060000Y0069623D01*
X0059400Y0069023D01*
X0059400Y0069441D02*
X0059817Y0069441D01*
X0060000Y0070039D02*
X0059400Y0070039D01*
X0059400Y0070638D02*
X0060000Y0070638D01*
X0060000Y0071236D02*
X0059400Y0071236D01*
X0059400Y0071835D02*
X0060000Y0071835D01*
X0060000Y0072433D02*
X0059400Y0072433D01*
X0059400Y0073032D02*
X0060000Y0073032D01*
X0060000Y0073630D02*
X0059400Y0073630D01*
X0059400Y0074229D02*
X0060000Y0074229D01*
X0060000Y0074827D02*
X0059400Y0074827D01*
X0059400Y0075426D02*
X0060000Y0075426D01*
X0060427Y0076024D02*
X0059400Y0076024D01*
X0059400Y0076623D02*
X0061026Y0076623D01*
X0061624Y0077221D02*
X0059400Y0077221D01*
X0059400Y0077820D02*
X0062223Y0077820D01*
X0062821Y0078418D02*
X0059400Y0078418D01*
X0059400Y0079017D02*
X0063420Y0079017D01*
X0064018Y0079615D02*
X0059400Y0079615D01*
X0059400Y0080214D02*
X0064617Y0080214D01*
X0065215Y0080812D02*
X0059400Y0080812D01*
X0059400Y0081411D02*
X0065814Y0081411D01*
X0066412Y0082009D02*
X0059400Y0082009D01*
X0059400Y0082608D02*
X0067011Y0082608D01*
X0067609Y0083206D02*
X0059400Y0083206D01*
X0059400Y0083805D02*
X0068208Y0083805D01*
X0068806Y0084403D02*
X0059400Y0084403D01*
X0059400Y0085002D02*
X0069405Y0085002D01*
X0070003Y0085601D02*
X0059400Y0085601D01*
X0059400Y0086199D02*
X0070602Y0086199D01*
X0071201Y0086798D02*
X0059400Y0086798D01*
X0059400Y0087396D02*
X0070181Y0087396D01*
X0069582Y0087995D02*
X0063618Y0087995D01*
X0064216Y0088593D02*
X0069150Y0088593D01*
X0069150Y0089192D02*
X0064815Y0089192D01*
X0064950Y0089790D02*
X0069150Y0089790D01*
X0068388Y0090389D02*
X0064950Y0090389D01*
X0064984Y0090987D02*
X0067789Y0090987D01*
X0069400Y0092700D02*
X0065000Y0092700D01*
X0062600Y0090300D01*
X0060984Y0088593D02*
X0059400Y0088593D01*
X0059400Y0087995D02*
X0061582Y0087995D01*
X0060385Y0089192D02*
X0059400Y0089192D01*
X0059400Y0089790D02*
X0060250Y0089790D01*
X0060250Y0090389D02*
X0059400Y0090389D01*
X0059210Y0090987D02*
X0060250Y0090987D01*
X0060562Y0091586D02*
X0058611Y0091586D01*
X0058592Y0092184D02*
X0058013Y0092184D01*
X0057994Y0092783D02*
X0057414Y0092783D01*
X0057650Y0093381D02*
X0056816Y0093381D01*
X0056217Y0093980D02*
X0057650Y0093980D01*
X0057650Y0094578D02*
X0055619Y0094578D01*
X0055020Y0095177D02*
X0057753Y0095177D01*
X0058352Y0095775D02*
X0054500Y0095775D01*
X0054500Y0096374D02*
X0058950Y0096374D01*
X0058381Y0096972D02*
X0054500Y0096972D01*
X0054500Y0097571D02*
X0057337Y0097571D01*
X0056738Y0098169D02*
X0054500Y0098169D01*
X0054500Y0098768D02*
X0056402Y0098768D01*
X0056154Y0099366D02*
X0054500Y0099366D01*
X0054500Y0099965D02*
X0056028Y0099965D01*
X0056028Y0100563D02*
X0054500Y0100563D01*
X0054500Y0101162D02*
X0056041Y0101162D01*
X0056289Y0101760D02*
X0054500Y0101760D01*
X0054500Y0102359D02*
X0056537Y0102359D01*
X0057065Y0102957D02*
X0054500Y0102957D01*
X0054500Y0103556D02*
X0057724Y0103556D01*
X0057959Y0107147D02*
X0054500Y0107147D01*
X0054500Y0107745D02*
X0057162Y0107745D01*
X0056577Y0108344D02*
X0054500Y0108344D01*
X0054500Y0108942D02*
X0056330Y0108942D01*
X0056082Y0109541D02*
X0054500Y0109541D01*
X0054500Y0110139D02*
X0056028Y0110139D01*
X0056028Y0110738D02*
X0054500Y0110738D01*
X0054500Y0111337D02*
X0056114Y0111337D01*
X0056362Y0111935D02*
X0054500Y0111935D01*
X0054500Y0112534D02*
X0056641Y0112534D01*
X0057240Y0113132D02*
X0054500Y0113132D01*
X0054500Y0106548D02*
X0072955Y0106548D01*
X0073553Y0105950D02*
X0054500Y0105950D01*
X0054500Y0105351D02*
X0073700Y0105351D01*
X0073700Y0104753D02*
X0054500Y0104753D01*
X0054500Y0104154D02*
X0068100Y0104154D01*
X0067117Y0103556D02*
X0061676Y0103556D01*
X0062335Y0102957D02*
X0066525Y0102957D01*
X0066128Y0102359D02*
X0062863Y0102359D01*
X0063111Y0101760D02*
X0065861Y0101760D01*
X0065698Y0101162D02*
X0063359Y0101162D01*
X0063372Y0100563D02*
X0069400Y0100563D01*
X0069400Y0101162D02*
X0070000Y0101162D01*
X0070000Y0101760D02*
X0069400Y0101760D01*
X0069400Y0102359D02*
X0070000Y0102359D01*
X0070000Y0102957D02*
X0069400Y0102957D01*
X0069400Y0103556D02*
X0070000Y0103556D01*
X0070000Y0104154D02*
X0069400Y0104154D01*
X0067959Y0107147D02*
X0061441Y0107147D01*
X0062238Y0107745D02*
X0067162Y0107745D01*
X0066577Y0108344D02*
X0062823Y0108344D01*
X0063070Y0108942D02*
X0066330Y0108942D01*
X0066082Y0109541D02*
X0063318Y0109541D01*
X0063372Y0110139D02*
X0066028Y0110139D01*
X0066028Y0110738D02*
X0063372Y0110738D01*
X0063286Y0111337D02*
X0066114Y0111337D01*
X0066362Y0111935D02*
X0063038Y0111935D01*
X0062759Y0112534D02*
X0066641Y0112534D01*
X0067240Y0113132D02*
X0062160Y0113132D01*
X0069700Y0110400D02*
X0070800Y0110400D01*
X0074900Y0106300D01*
X0074900Y0092800D01*
X0071500Y0089400D01*
X0073850Y0089790D02*
X0074193Y0089790D01*
X0074186Y0090389D02*
X0074792Y0090389D01*
X0074784Y0090987D02*
X0075390Y0090987D01*
X0075383Y0091586D02*
X0075989Y0091586D01*
X0075981Y0092184D02*
X0076587Y0092184D01*
X0076100Y0092783D02*
X0077186Y0092783D01*
X0077784Y0093381D02*
X0076100Y0093381D01*
X0076100Y0093980D02*
X0078298Y0093980D01*
X0078296Y0094578D02*
X0076100Y0094578D01*
X0076100Y0095177D02*
X0078294Y0095177D01*
X0078292Y0095775D02*
X0076100Y0095775D01*
X0076100Y0096374D02*
X0078290Y0096374D01*
X0078288Y0096972D02*
X0076100Y0096972D01*
X0076100Y0097571D02*
X0078286Y0097571D01*
X0078283Y0098169D02*
X0076100Y0098169D01*
X0076100Y0098768D02*
X0078281Y0098768D01*
X0078279Y0099366D02*
X0076100Y0099366D01*
X0076100Y0099965D02*
X0078277Y0099965D01*
X0078275Y0100563D02*
X0076100Y0100563D01*
X0076100Y0101162D02*
X0078273Y0101162D01*
X0078271Y0101760D02*
X0076100Y0101760D01*
X0076100Y0102359D02*
X0078269Y0102359D01*
X0078267Y0102957D02*
X0076100Y0102957D01*
X0076100Y0103556D02*
X0078265Y0103556D01*
X0078263Y0104154D02*
X0076100Y0104154D01*
X0076100Y0104753D02*
X0078261Y0104753D01*
X0078259Y0105351D02*
X0076100Y0105351D01*
X0076100Y0105950D02*
X0078257Y0105950D01*
X0078254Y0106548D02*
X0076100Y0106548D01*
X0075750Y0107147D02*
X0078252Y0107147D01*
X0078250Y0107745D02*
X0075152Y0107745D01*
X0074553Y0108344D02*
X0078248Y0108344D01*
X0078246Y0108942D02*
X0073955Y0108942D01*
X0073356Y0109541D02*
X0078244Y0109541D01*
X0078242Y0110139D02*
X0073372Y0110139D01*
X0073372Y0110738D02*
X0078240Y0110738D01*
X0078238Y0111337D02*
X0073286Y0111337D01*
X0073038Y0111935D02*
X0078236Y0111935D01*
X0078234Y0112534D02*
X0072759Y0112534D01*
X0072160Y0113132D02*
X0078232Y0113132D01*
X0078230Y0113731D02*
X0075128Y0113731D01*
X0075726Y0114329D02*
X0078228Y0114329D01*
X0078226Y0114928D02*
X0076325Y0114928D01*
X0076923Y0115526D02*
X0078223Y0115526D01*
X0078221Y0116125D02*
X0077522Y0116125D01*
X0077800Y0116723D02*
X0078219Y0116723D01*
X0078217Y0117322D02*
X0077800Y0117322D01*
X0077800Y0117920D02*
X0078215Y0117920D01*
X0078213Y0118519D02*
X0077800Y0118519D01*
X0077800Y0119117D02*
X0078211Y0119117D01*
X0078209Y0119716D02*
X0077800Y0119716D01*
X0077800Y0120314D02*
X0078207Y0120314D01*
X0078205Y0120913D02*
X0077800Y0120913D01*
X0077800Y0121511D02*
X0078203Y0121511D01*
X0078200Y0122110D02*
X0077800Y0122110D01*
X0077800Y0122708D02*
X0078199Y0122708D01*
X0077800Y0123307D02*
X0078709Y0123307D01*
X0079308Y0123905D02*
X0077800Y0123905D01*
X0077800Y0124504D02*
X0079907Y0124504D01*
X0080505Y0125102D02*
X0077800Y0125102D01*
X0079400Y0122300D02*
X0083800Y0126700D01*
X0083800Y0134500D01*
X0089700Y0140400D01*
X0092442Y0137671D02*
X0093800Y0137671D01*
X0093800Y0138270D02*
X0093005Y0138270D01*
X0093253Y0138868D02*
X0093800Y0138868D01*
X0093800Y0139467D02*
X0093501Y0139467D01*
X0093568Y0140065D02*
X0093800Y0140065D01*
X0093800Y0140664D02*
X0093568Y0140664D01*
X0093530Y0141262D02*
X0093800Y0141262D01*
X0093800Y0141861D02*
X0093282Y0141861D01*
X0093034Y0142459D02*
X0093800Y0142459D01*
X0093800Y0143058D02*
X0092513Y0143058D01*
X0091915Y0143656D02*
X0093800Y0143656D01*
X0093800Y0144255D02*
X0090503Y0144255D01*
X0088897Y0144255D02*
X0052899Y0144255D01*
X0053798Y0143656D02*
X0087485Y0143656D01*
X0086887Y0143058D02*
X0054397Y0143058D01*
X0054776Y0142459D02*
X0086366Y0142459D01*
X0086118Y0141861D02*
X0055024Y0141861D01*
X0055272Y0141262D02*
X0085870Y0141262D01*
X0085831Y0140664D02*
X0055275Y0140664D01*
X0055275Y0140065D02*
X0085831Y0140065D01*
X0085899Y0139467D02*
X0055242Y0139467D01*
X0054995Y0138868D02*
X0086147Y0138868D01*
X0085872Y0138270D02*
X0054747Y0138270D01*
X0054326Y0137671D02*
X0085274Y0137671D01*
X0084675Y0137072D02*
X0053727Y0137072D01*
X0052726Y0136474D02*
X0084077Y0136474D01*
X0085077Y0134080D02*
X0088475Y0134080D01*
X0088930Y0134268D02*
X0087509Y0133680D01*
X0086420Y0132591D01*
X0085831Y0131169D01*
X0085831Y0129630D01*
X0086420Y0128209D01*
X0087509Y0127120D01*
X0088930Y0126531D01*
X0090469Y0126531D01*
X0091891Y0127120D01*
X0092980Y0128209D01*
X0093568Y0129630D01*
X0093568Y0131169D01*
X0092980Y0132591D01*
X0091891Y0133680D01*
X0090469Y0134268D01*
X0088930Y0134268D01*
X0087311Y0133481D02*
X0085000Y0133481D01*
X0085000Y0132883D02*
X0086712Y0132883D01*
X0086293Y0132284D02*
X0085000Y0132284D01*
X0085000Y0131686D02*
X0086045Y0131686D01*
X0085831Y0131087D02*
X0085000Y0131087D01*
X0085000Y0130489D02*
X0085831Y0130489D01*
X0085831Y0129890D02*
X0085000Y0129890D01*
X0085000Y0129292D02*
X0085972Y0129292D01*
X0086220Y0128693D02*
X0085000Y0128693D01*
X0085000Y0128095D02*
X0086534Y0128095D01*
X0087133Y0127496D02*
X0085000Y0127496D01*
X0085000Y0126898D02*
X0088046Y0126898D01*
X0088930Y0124268D02*
X0087509Y0123680D01*
X0086420Y0122591D01*
X0085831Y0121169D01*
X0085831Y0119630D01*
X0086420Y0118209D01*
X0087509Y0117120D01*
X0088930Y0116531D01*
X0090469Y0116531D01*
X0091891Y0117120D01*
X0092980Y0118209D01*
X0093568Y0119630D01*
X0093568Y0121169D01*
X0092980Y0122591D01*
X0091891Y0123680D01*
X0090469Y0124268D01*
X0088930Y0124268D01*
X0088054Y0123905D02*
X0082702Y0123905D01*
X0082104Y0123307D02*
X0087136Y0123307D01*
X0086537Y0122708D02*
X0081505Y0122708D01*
X0080907Y0122110D02*
X0086221Y0122110D01*
X0085973Y0121511D02*
X0080603Y0121511D01*
X0080605Y0120913D02*
X0085831Y0120913D01*
X0085831Y0120314D02*
X0080607Y0120314D01*
X0080609Y0119716D02*
X0085831Y0119716D01*
X0086044Y0119117D02*
X0080611Y0119117D01*
X0080613Y0118519D02*
X0086292Y0118519D01*
X0086709Y0117920D02*
X0080615Y0117920D01*
X0080617Y0117322D02*
X0087307Y0117322D01*
X0088468Y0116723D02*
X0080619Y0116723D01*
X0080621Y0116125D02*
X0093800Y0116125D01*
X0093800Y0116723D02*
X0090932Y0116723D01*
X0092093Y0117322D02*
X0093800Y0117322D01*
X0093800Y0117920D02*
X0092691Y0117920D01*
X0093108Y0118519D02*
X0093800Y0118519D01*
X0093800Y0119117D02*
X0093356Y0119117D01*
X0093568Y0119716D02*
X0093800Y0119716D01*
X0093800Y0120314D02*
X0093568Y0120314D01*
X0093568Y0120913D02*
X0093800Y0120913D01*
X0093800Y0121511D02*
X0093427Y0121511D01*
X0093179Y0122110D02*
X0093800Y0122110D01*
X0093800Y0122708D02*
X0092863Y0122708D01*
X0092264Y0123307D02*
X0093800Y0123307D01*
X0093800Y0123905D02*
X0091346Y0123905D01*
X0091354Y0126898D02*
X0093800Y0126898D01*
X0093800Y0127496D02*
X0092267Y0127496D01*
X0092866Y0128095D02*
X0093800Y0128095D01*
X0093800Y0128693D02*
X0093180Y0128693D01*
X0093428Y0129292D02*
X0093800Y0129292D01*
X0093800Y0129890D02*
X0093568Y0129890D01*
X0093568Y0130489D02*
X0093800Y0130489D01*
X0093800Y0131087D02*
X0093568Y0131087D01*
X0093355Y0131686D02*
X0093800Y0131686D01*
X0093800Y0132284D02*
X0093107Y0132284D01*
X0092688Y0132883D02*
X0093800Y0132883D01*
X0093800Y0133481D02*
X0092089Y0133481D01*
X0090925Y0134080D02*
X0093800Y0134080D01*
X0093800Y0134678D02*
X0085675Y0134678D01*
X0086274Y0135277D02*
X0093800Y0135277D01*
X0093800Y0135875D02*
X0086873Y0135875D01*
X0087471Y0136474D02*
X0093800Y0136474D01*
X0093800Y0137072D02*
X0091776Y0137072D01*
X0093800Y0126299D02*
X0085000Y0126299D01*
X0084498Y0125701D02*
X0093800Y0125701D01*
X0093800Y0125102D02*
X0083899Y0125102D01*
X0083301Y0124504D02*
X0093800Y0124504D01*
X0093800Y0115526D02*
X0080623Y0115526D01*
X0080626Y0114928D02*
X0093800Y0114928D01*
X0093800Y0114329D02*
X0080628Y0114329D01*
X0080630Y0113731D02*
X0087632Y0113731D01*
X0086961Y0113132D02*
X0080632Y0113132D01*
X0080634Y0112534D02*
X0086397Y0112534D01*
X0086149Y0111935D02*
X0080636Y0111935D01*
X0080638Y0111337D02*
X0085901Y0111337D01*
X0085831Y0110738D02*
X0080640Y0110738D01*
X0080642Y0110139D02*
X0085831Y0110139D01*
X0085869Y0109541D02*
X0080644Y0109541D01*
X0080646Y0108942D02*
X0086116Y0108942D01*
X0086364Y0108344D02*
X0080648Y0108344D01*
X0080650Y0107745D02*
X0086884Y0107745D01*
X0087482Y0107147D02*
X0080652Y0107147D01*
X0080659Y0105351D02*
X0093800Y0105351D01*
X0093800Y0104753D02*
X0080661Y0104753D01*
X0073700Y0104154D02*
X0071300Y0104154D01*
X0072283Y0103556D02*
X0073700Y0103556D01*
X0073700Y0102957D02*
X0072875Y0102957D01*
X0073272Y0102359D02*
X0073700Y0102359D01*
X0073700Y0101760D02*
X0073539Y0101760D01*
X0072356Y0107147D02*
X0071441Y0107147D01*
X0065647Y0099965D02*
X0063372Y0099965D01*
X0063246Y0099366D02*
X0065755Y0099366D01*
X0065962Y0098768D02*
X0062998Y0098768D01*
X0062662Y0098169D02*
X0066288Y0098169D01*
X0066771Y0097571D02*
X0062063Y0097571D01*
X0061175Y0096972D02*
X0061019Y0096972D01*
X0061800Y0095900D02*
X0060000Y0094100D01*
X0061800Y0095900D02*
X0072300Y0095900D01*
X0079500Y0093400D02*
X0079400Y0122300D01*
X0071000Y0126400D02*
X0069200Y0124600D01*
X0054700Y0124600D01*
X0051800Y0121700D01*
X0051800Y0094900D01*
X0071000Y0126400D02*
X0071000Y0127800D01*
X0068554Y0135277D02*
X0068446Y0135277D01*
X0067663Y0135875D02*
X0069337Y0135875D01*
X0063554Y0135277D02*
X0062880Y0135277D01*
X0091768Y0113731D02*
X0093800Y0113731D01*
X0093800Y0113132D02*
X0092439Y0113132D01*
X0093003Y0112534D02*
X0093800Y0112534D01*
X0093800Y0111935D02*
X0093251Y0111935D01*
X0093499Y0111337D02*
X0093800Y0111337D01*
X0093800Y0110738D02*
X0093568Y0110738D01*
X0093568Y0110139D02*
X0093800Y0110139D01*
X0093800Y0109541D02*
X0093531Y0109541D01*
X0093283Y0108942D02*
X0093800Y0108942D01*
X0093800Y0108344D02*
X0093036Y0108344D01*
X0092516Y0107745D02*
X0093800Y0107745D01*
X0093800Y0107147D02*
X0091918Y0107147D01*
X0088288Y0086798D02*
X0087795Y0086798D01*
X0087196Y0086199D02*
X0093800Y0086199D01*
X0093800Y0085601D02*
X0086598Y0085601D01*
X0085999Y0085002D02*
X0093800Y0085002D01*
X0093800Y0083206D02*
X0092364Y0083206D01*
X0092963Y0082608D02*
X0093800Y0082608D01*
X0093800Y0082009D02*
X0093221Y0082009D01*
X0093468Y0081411D02*
X0093800Y0081411D01*
X0093800Y0080812D02*
X0093568Y0080812D01*
X0093568Y0080214D02*
X0093800Y0080214D01*
X0093800Y0079615D02*
X0093562Y0079615D01*
X0093800Y0079017D02*
X0093314Y0079017D01*
X0093066Y0078418D02*
X0093800Y0078418D01*
X0093800Y0077820D02*
X0092591Y0077820D01*
X0091992Y0077221D02*
X0093800Y0077221D01*
X0093800Y0076623D02*
X0090690Y0076623D01*
X0091941Y0073630D02*
X0093800Y0073630D01*
X0093800Y0073032D02*
X0092539Y0073032D01*
X0093045Y0072433D02*
X0093800Y0072433D01*
X0093800Y0071835D02*
X0093293Y0071835D01*
X0093541Y0071236D02*
X0093800Y0071236D01*
X0093800Y0070638D02*
X0093568Y0070638D01*
X0093568Y0070039D02*
X0093800Y0070039D01*
X0093800Y0069441D02*
X0093490Y0069441D01*
X0093242Y0068842D02*
X0093800Y0068842D01*
X0093800Y0068244D02*
X0092994Y0068244D01*
X0092416Y0067645D02*
X0093800Y0067645D01*
X0093800Y0067047D02*
X0091713Y0067047D01*
X0090987Y0064054D02*
X0093800Y0064054D01*
X0093800Y0063456D02*
X0092115Y0063456D01*
X0092714Y0062857D02*
X0093800Y0062857D01*
X0093800Y0062259D02*
X0093117Y0062259D01*
X0093365Y0061660D02*
X0093800Y0061660D01*
X0093800Y0061062D02*
X0093568Y0061062D01*
X0093568Y0060463D02*
X0093800Y0060463D01*
X0093800Y0059865D02*
X0093568Y0059865D01*
X0093418Y0059266D02*
X0093800Y0059266D01*
X0093800Y0058668D02*
X0093170Y0058668D01*
X0092840Y0058069D02*
X0093800Y0058069D01*
X0093800Y0057470D02*
X0092241Y0057470D01*
X0091291Y0056872D02*
X0093800Y0056872D01*
X0093800Y0056273D02*
X0081797Y0056273D01*
X0081850Y0055675D02*
X0093800Y0055675D01*
X0093800Y0055076D02*
X0081850Y0055076D01*
X0081850Y0054478D02*
X0093800Y0054478D01*
X0093800Y0053879D02*
X0091409Y0053879D01*
X0091891Y0053680D02*
X0090469Y0054268D01*
X0088930Y0054268D01*
X0087509Y0053680D01*
X0086420Y0052591D01*
X0085831Y0051169D01*
X0085831Y0049630D01*
X0086420Y0048209D01*
X0087509Y0047120D01*
X0088930Y0046531D01*
X0090469Y0046531D01*
X0091891Y0047120D01*
X0092980Y0048209D01*
X0093568Y0049630D01*
X0093568Y0051169D01*
X0092980Y0052591D01*
X0091891Y0053680D01*
X0092290Y0053281D02*
X0093800Y0053281D01*
X0093800Y0052682D02*
X0092888Y0052682D01*
X0093190Y0052084D02*
X0093800Y0052084D01*
X0093800Y0051485D02*
X0093438Y0051485D01*
X0093568Y0050887D02*
X0093800Y0050887D01*
X0093800Y0050288D02*
X0093568Y0050288D01*
X0093568Y0049690D02*
X0093800Y0049690D01*
X0093800Y0049091D02*
X0093345Y0049091D01*
X0093097Y0048493D02*
X0093800Y0048493D01*
X0093800Y0047894D02*
X0092665Y0047894D01*
X0092067Y0047296D02*
X0093800Y0047296D01*
X0093800Y0046697D02*
X0090870Y0046697D01*
X0088530Y0046697D02*
X0069694Y0046697D01*
X0069096Y0046099D02*
X0093800Y0046099D01*
X0093800Y0045500D02*
X0068497Y0045500D01*
X0067899Y0044902D02*
X0093800Y0044902D01*
X0093800Y0044303D02*
X0067300Y0044303D01*
X0066702Y0043705D02*
X0087569Y0043705D01*
X0087509Y0043680D02*
X0086420Y0042591D01*
X0085831Y0041169D01*
X0085831Y0039630D01*
X0086420Y0038209D01*
X0087509Y0037120D01*
X0088930Y0036531D01*
X0090469Y0036531D01*
X0091891Y0037120D01*
X0092980Y0038209D01*
X0093568Y0039630D01*
X0093568Y0041169D01*
X0092980Y0042591D01*
X0091891Y0043680D01*
X0090469Y0044268D01*
X0088930Y0044268D01*
X0087509Y0043680D01*
X0086935Y0043106D02*
X0066103Y0043106D01*
X0065505Y0042508D02*
X0086386Y0042508D01*
X0086138Y0041909D02*
X0064906Y0041909D01*
X0065913Y0041311D02*
X0085890Y0041311D01*
X0085831Y0040712D02*
X0066511Y0040712D01*
X0067110Y0040114D02*
X0085831Y0040114D01*
X0085879Y0039515D02*
X0067250Y0039515D01*
X0067250Y0038917D02*
X0086127Y0038917D01*
X0086375Y0038318D02*
X0067279Y0038318D01*
X0067877Y0037720D02*
X0086909Y0037720D01*
X0087508Y0037121D02*
X0068476Y0037121D01*
X0069074Y0036523D02*
X0093800Y0036523D01*
X0093800Y0037121D02*
X0091892Y0037121D01*
X0092491Y0037720D02*
X0093800Y0037720D01*
X0093800Y0038318D02*
X0093025Y0038318D01*
X0093273Y0038917D02*
X0093800Y0038917D01*
X0093800Y0039515D02*
X0093521Y0039515D01*
X0093568Y0040114D02*
X0093800Y0040114D01*
X0093800Y0040712D02*
X0093568Y0040712D01*
X0093510Y0041311D02*
X0093800Y0041311D01*
X0093800Y0041909D02*
X0093262Y0041909D01*
X0093014Y0042508D02*
X0093800Y0042508D01*
X0093800Y0043106D02*
X0092465Y0043106D01*
X0091831Y0043705D02*
X0093800Y0043705D01*
X0093800Y0035924D02*
X0069673Y0035924D01*
X0070271Y0035326D02*
X0093800Y0035326D01*
X0093800Y0034727D02*
X0070870Y0034727D01*
X0071468Y0034129D02*
X0088593Y0034129D01*
X0088930Y0034268D02*
X0087509Y0033680D01*
X0086420Y0032591D01*
X0085831Y0031169D01*
X0085831Y0029630D01*
X0086420Y0028209D01*
X0087509Y0027120D01*
X0088930Y0026531D01*
X0090469Y0026531D01*
X0091891Y0027120D01*
X0092980Y0028209D01*
X0093568Y0029630D01*
X0093568Y0031169D01*
X0092980Y0032591D01*
X0091891Y0033680D01*
X0090469Y0034268D01*
X0088930Y0034268D01*
X0087359Y0033530D02*
X0072067Y0033530D01*
X0072666Y0032932D02*
X0086761Y0032932D01*
X0086313Y0032333D02*
X0073264Y0032333D01*
X0073863Y0031734D02*
X0086066Y0031734D01*
X0085831Y0031136D02*
X0074461Y0031136D01*
X0075060Y0030537D02*
X0085831Y0030537D01*
X0085831Y0029939D02*
X0075658Y0029939D01*
X0076257Y0029340D02*
X0085952Y0029340D01*
X0086200Y0028742D02*
X0076855Y0028742D01*
X0077454Y0028143D02*
X0086486Y0028143D01*
X0087084Y0027545D02*
X0078052Y0027545D01*
X0078651Y0026946D02*
X0087929Y0026946D01*
X0088171Y0023954D02*
X0081643Y0023954D01*
X0081045Y0024552D02*
X0093800Y0024552D01*
X0093800Y0023954D02*
X0091229Y0023954D01*
X0092216Y0023355D02*
X0093800Y0023355D01*
X0093800Y0022757D02*
X0092814Y0022757D01*
X0093159Y0022158D02*
X0093800Y0022158D01*
X0093800Y0021560D02*
X0093407Y0021560D01*
X0093568Y0020961D02*
X0093800Y0020961D01*
X0093800Y0020363D02*
X0093568Y0020363D01*
X0093568Y0019764D02*
X0093800Y0019764D01*
X0093800Y0019166D02*
X0093376Y0019166D01*
X0093128Y0018567D02*
X0093800Y0018567D01*
X0093800Y0017969D02*
X0092740Y0017969D01*
X0092141Y0017370D02*
X0093800Y0017370D01*
X0093800Y0016772D02*
X0091049Y0016772D01*
X0090469Y0014268D02*
X0088930Y0014268D01*
X0087509Y0013680D01*
X0086420Y0012591D01*
X0086010Y0011600D01*
X0074697Y0011600D01*
X0057850Y0028447D01*
X0057850Y0030073D01*
X0056473Y0031450D01*
X0054527Y0031450D01*
X0053150Y0030073D01*
X0053150Y0028127D01*
X0054527Y0026750D01*
X0056153Y0026750D01*
X0073703Y0009200D01*
X0086010Y0009200D01*
X0086420Y0008209D01*
X0087509Y0007120D01*
X0088930Y0006531D01*
X0090469Y0006531D01*
X0091891Y0007120D01*
X0092980Y0008209D01*
X0093568Y0009630D01*
X0093568Y0011169D01*
X0092980Y0012591D01*
X0091891Y0013680D01*
X0090469Y0014268D01*
X0091651Y0013779D02*
X0093800Y0013779D01*
X0093800Y0013181D02*
X0092390Y0013181D01*
X0092983Y0012582D02*
X0093800Y0012582D01*
X0093800Y0011984D02*
X0093231Y0011984D01*
X0093479Y0011385D02*
X0093800Y0011385D01*
X0093800Y0010787D02*
X0093568Y0010787D01*
X0093568Y0010188D02*
X0093800Y0010188D01*
X0093800Y0009590D02*
X0093552Y0009590D01*
X0093304Y0008991D02*
X0093800Y0008991D01*
X0093800Y0008393D02*
X0093056Y0008393D01*
X0092565Y0007794D02*
X0093800Y0007794D01*
X0093800Y0007196D02*
X0091966Y0007196D01*
X0090628Y0006597D02*
X0093800Y0006597D01*
X0089700Y0010400D02*
X0074200Y0010400D01*
X0055500Y0029100D01*
X0054330Y0026946D02*
X0049943Y0026946D01*
X0049345Y0026348D02*
X0056555Y0026348D01*
X0057154Y0025749D02*
X0048746Y0025749D01*
X0048148Y0025151D02*
X0057752Y0025151D01*
X0058351Y0024552D02*
X0047549Y0024552D01*
X0046951Y0023954D02*
X0058949Y0023954D01*
X0059548Y0023355D02*
X0046352Y0023355D01*
X0045754Y0022757D02*
X0060146Y0022757D01*
X0060745Y0022158D02*
X0045155Y0022158D01*
X0044557Y0021560D02*
X0061343Y0021560D01*
X0061942Y0020961D02*
X0043958Y0020961D01*
X0043360Y0020363D02*
X0062540Y0020363D01*
X0063139Y0019764D02*
X0042761Y0019764D01*
X0041700Y0020400D02*
X0075200Y0053900D01*
X0078500Y0053900D01*
X0079500Y0054900D01*
X0081204Y0053281D02*
X0087110Y0053281D01*
X0086512Y0052682D02*
X0080606Y0052682D01*
X0081803Y0053879D02*
X0087991Y0053879D01*
X0086210Y0052084D02*
X0075081Y0052084D01*
X0075679Y0052682D02*
X0078394Y0052682D01*
X0074482Y0051485D02*
X0085962Y0051485D01*
X0085831Y0050887D02*
X0073884Y0050887D01*
X0073285Y0050288D02*
X0085831Y0050288D01*
X0085831Y0049690D02*
X0072687Y0049690D01*
X0072088Y0049091D02*
X0086055Y0049091D01*
X0086303Y0048493D02*
X0071490Y0048493D01*
X0070891Y0047894D02*
X0086735Y0047894D01*
X0087333Y0047296D02*
X0070293Y0047296D01*
X0064900Y0039000D02*
X0083500Y0020400D01*
X0089700Y0020400D01*
X0088351Y0016772D02*
X0069525Y0016772D01*
X0068927Y0017370D02*
X0087259Y0017370D01*
X0086660Y0017969D02*
X0068328Y0017969D01*
X0067730Y0018567D02*
X0086272Y0018567D01*
X0086024Y0019166D02*
X0067131Y0019166D01*
X0066533Y0019764D02*
X0082439Y0019764D01*
X0081840Y0020363D02*
X0065934Y0020363D01*
X0065336Y0020961D02*
X0081242Y0020961D01*
X0080643Y0021560D02*
X0064737Y0021560D01*
X0064139Y0022158D02*
X0080045Y0022158D01*
X0079446Y0022757D02*
X0063540Y0022757D01*
X0062942Y0023355D02*
X0078848Y0023355D01*
X0078249Y0023954D02*
X0062343Y0023954D01*
X0061745Y0024552D02*
X0077651Y0024552D01*
X0077052Y0025151D02*
X0061146Y0025151D01*
X0060548Y0025749D02*
X0076454Y0025749D01*
X0075855Y0026348D02*
X0059949Y0026348D01*
X0059351Y0026946D02*
X0075257Y0026946D01*
X0074658Y0027545D02*
X0058752Y0027545D01*
X0058154Y0028143D02*
X0074060Y0028143D01*
X0073461Y0028742D02*
X0057850Y0028742D01*
X0057850Y0029340D02*
X0072862Y0029340D01*
X0072264Y0029939D02*
X0057850Y0029939D01*
X0057386Y0030537D02*
X0071665Y0030537D01*
X0071067Y0031136D02*
X0056787Y0031136D01*
X0055330Y0032333D02*
X0069870Y0032333D01*
X0070468Y0031734D02*
X0054732Y0031734D01*
X0054213Y0031136D02*
X0054133Y0031136D01*
X0053614Y0030537D02*
X0053535Y0030537D01*
X0053150Y0029939D02*
X0052936Y0029939D01*
X0053150Y0029340D02*
X0052337Y0029340D01*
X0051739Y0028742D02*
X0053150Y0028742D01*
X0053150Y0028143D02*
X0051140Y0028143D01*
X0050542Y0027545D02*
X0053732Y0027545D01*
X0055929Y0032932D02*
X0069271Y0032932D01*
X0068673Y0033530D02*
X0056527Y0033530D01*
X0057126Y0034129D02*
X0068074Y0034129D01*
X0067476Y0034727D02*
X0057724Y0034727D01*
X0058323Y0035326D02*
X0066877Y0035326D01*
X0066279Y0035924D02*
X0058921Y0035924D01*
X0059520Y0036523D02*
X0065680Y0036523D01*
X0063455Y0037121D02*
X0060118Y0037121D01*
X0060717Y0037720D02*
X0062857Y0037720D01*
X0062550Y0038318D02*
X0061315Y0038318D01*
X0061914Y0038917D02*
X0062550Y0038917D01*
X0062550Y0039515D02*
X0062512Y0039515D01*
X0052727Y0035924D02*
X0005600Y0035924D01*
X0005600Y0035326D02*
X0052129Y0035326D01*
X0051530Y0034727D02*
X0005600Y0034727D01*
X0005600Y0034129D02*
X0008593Y0034129D01*
X0007359Y0033530D02*
X0005600Y0033530D01*
X0005600Y0032932D02*
X0006761Y0032932D01*
X0006313Y0032333D02*
X0005600Y0032333D01*
X0005600Y0031734D02*
X0006066Y0031734D01*
X0005831Y0031136D02*
X0005600Y0031136D01*
X0005600Y0030537D02*
X0005831Y0030537D01*
X0005831Y0029939D02*
X0005600Y0029939D01*
X0005600Y0029340D02*
X0005952Y0029340D01*
X0006200Y0028742D02*
X0005600Y0028742D01*
X0005600Y0028143D02*
X0006486Y0028143D01*
X0007084Y0027545D02*
X0005600Y0027545D01*
X0005600Y0026946D02*
X0007929Y0026946D01*
X0005600Y0026348D02*
X0045951Y0026348D01*
X0046549Y0026946D02*
X0011471Y0026946D01*
X0012316Y0027545D02*
X0047148Y0027545D01*
X0047746Y0028143D02*
X0012914Y0028143D01*
X0013200Y0028742D02*
X0048345Y0028742D01*
X0048900Y0030400D02*
X0076900Y0058400D01*
X0080600Y0058400D01*
X0082395Y0056872D02*
X0088109Y0056872D01*
X0087159Y0057470D02*
X0082950Y0057470D01*
X0082950Y0058069D02*
X0086560Y0058069D01*
X0086230Y0058668D02*
X0082950Y0058668D01*
X0082950Y0059266D02*
X0085982Y0059266D01*
X0085831Y0059865D02*
X0082459Y0059865D01*
X0081860Y0060463D02*
X0085831Y0060463D01*
X0085831Y0061062D02*
X0080250Y0061062D01*
X0080250Y0061660D02*
X0086035Y0061660D01*
X0086283Y0062259D02*
X0080250Y0062259D01*
X0079966Y0062857D02*
X0086686Y0062857D01*
X0084000Y0080400D02*
X0089700Y0080400D01*
X0090807Y0034129D02*
X0093800Y0034129D01*
X0093800Y0033530D02*
X0092041Y0033530D01*
X0092639Y0032932D02*
X0093800Y0032932D01*
X0093800Y0032333D02*
X0093087Y0032333D01*
X0093334Y0031734D02*
X0093800Y0031734D01*
X0093800Y0031136D02*
X0093568Y0031136D01*
X0093568Y0030537D02*
X0093800Y0030537D01*
X0093800Y0029939D02*
X0093568Y0029939D01*
X0093448Y0029340D02*
X0093800Y0029340D01*
X0093800Y0028742D02*
X0093200Y0028742D01*
X0092914Y0028143D02*
X0093800Y0028143D01*
X0093800Y0027545D02*
X0092316Y0027545D01*
X0091471Y0026946D02*
X0093800Y0026946D01*
X0093800Y0026348D02*
X0079249Y0026348D01*
X0079848Y0025749D02*
X0093800Y0025749D01*
X0093800Y0025151D02*
X0080446Y0025151D01*
X0082242Y0023355D02*
X0087184Y0023355D01*
X0086586Y0022757D02*
X0082840Y0022757D01*
X0083439Y0022158D02*
X0086241Y0022158D01*
X0087749Y0013779D02*
X0072518Y0013779D01*
X0073116Y0013181D02*
X0087010Y0013181D01*
X0086417Y0012582D02*
X0073715Y0012582D01*
X0074313Y0011984D02*
X0086169Y0011984D01*
X0086096Y0008991D02*
X0013304Y0008991D01*
X0013552Y0009590D02*
X0073313Y0009590D01*
X0072715Y0010188D02*
X0013568Y0010188D01*
X0013568Y0009630D02*
X0012980Y0008209D01*
X0011891Y0007120D01*
X0010469Y0006531D01*
X0008930Y0006531D01*
X0007509Y0007120D01*
X0006420Y0008209D01*
X0005831Y0009630D01*
X0005831Y0011169D01*
X0006420Y0012591D01*
X0007509Y0013680D01*
X0008930Y0014268D01*
X0010469Y0014268D01*
X0011891Y0013680D01*
X0012980Y0012591D01*
X0013568Y0011169D01*
X0013568Y0009630D01*
X0013568Y0010787D02*
X0072116Y0010787D01*
X0071518Y0011385D02*
X0013479Y0011385D01*
X0013231Y0011984D02*
X0070919Y0011984D01*
X0070321Y0012582D02*
X0012983Y0012582D01*
X0012390Y0013181D02*
X0069722Y0013181D01*
X0069124Y0013779D02*
X0011651Y0013779D01*
X0011049Y0016772D02*
X0066131Y0016772D01*
X0065533Y0017370D02*
X0012141Y0017370D01*
X0012740Y0017969D02*
X0064934Y0017969D01*
X0064336Y0018567D02*
X0013128Y0018567D01*
X0013376Y0019166D02*
X0063737Y0019166D01*
X0066730Y0016173D02*
X0005600Y0016173D01*
X0005600Y0015575D02*
X0067328Y0015575D01*
X0067927Y0014976D02*
X0005600Y0014976D01*
X0005600Y0014378D02*
X0068525Y0014378D01*
X0070124Y0016173D02*
X0093800Y0016173D01*
X0093800Y0015575D02*
X0070722Y0015575D01*
X0071321Y0014976D02*
X0093800Y0014976D01*
X0093800Y0014378D02*
X0071919Y0014378D01*
X0086344Y0008393D02*
X0013056Y0008393D01*
X0012565Y0007794D02*
X0086835Y0007794D01*
X0087434Y0007196D02*
X0011966Y0007196D01*
X0010628Y0006597D02*
X0088772Y0006597D01*
X0050932Y0034129D02*
X0010807Y0034129D01*
X0012041Y0033530D02*
X0050333Y0033530D01*
X0049734Y0032932D02*
X0012639Y0032932D01*
X0013087Y0032333D02*
X0049136Y0032333D01*
X0048537Y0031734D02*
X0013334Y0031734D01*
X0009700Y0030400D02*
X0048900Y0030400D01*
X0045352Y0025749D02*
X0005600Y0025749D01*
X0005600Y0025151D02*
X0044754Y0025151D01*
X0044155Y0024552D02*
X0005600Y0024552D01*
X0005600Y0023954D02*
X0008171Y0023954D01*
X0007184Y0023355D02*
X0005600Y0023355D01*
X0005600Y0022757D02*
X0006586Y0022757D01*
X0006241Y0022158D02*
X0005600Y0022158D01*
X0005600Y0021560D02*
X0005993Y0021560D01*
X0005831Y0020961D02*
X0005600Y0020961D01*
X0005600Y0020363D02*
X0005831Y0020363D01*
X0005831Y0019764D02*
X0005600Y0019764D01*
X0005600Y0019166D02*
X0006024Y0019166D01*
X0006272Y0018567D02*
X0005600Y0018567D01*
X0005600Y0017969D02*
X0006660Y0017969D01*
X0007259Y0017370D02*
X0005600Y0017370D01*
X0005600Y0016772D02*
X0008351Y0016772D01*
X0007749Y0013779D02*
X0005600Y0013779D01*
X0005600Y0013181D02*
X0007010Y0013181D01*
X0006417Y0012582D02*
X0005600Y0012582D01*
X0005600Y0011984D02*
X0006169Y0011984D01*
X0005921Y0011385D02*
X0005600Y0011385D01*
X0005600Y0010787D02*
X0005831Y0010787D01*
X0005831Y0010188D02*
X0005600Y0010188D01*
X0005600Y0009590D02*
X0005848Y0009590D01*
X0005600Y0008991D02*
X0006096Y0008991D01*
X0006344Y0008393D02*
X0005600Y0008393D01*
X0005600Y0007794D02*
X0006835Y0007794D01*
X0007434Y0007196D02*
X0005600Y0007196D01*
X0005600Y0006597D02*
X0008772Y0006597D01*
X0009700Y0020400D02*
X0041700Y0020400D01*
X0041761Y0022158D02*
X0013159Y0022158D01*
X0012814Y0022757D02*
X0042360Y0022757D01*
X0042958Y0023355D02*
X0012216Y0023355D01*
X0011229Y0023954D02*
X0043557Y0023954D01*
X0013103Y0045500D02*
X0005600Y0045500D01*
X0005600Y0044902D02*
X0012505Y0044902D01*
X0011906Y0044303D02*
X0005600Y0044303D01*
X0005600Y0043705D02*
X0007569Y0043705D01*
X0006935Y0043106D02*
X0005600Y0043106D01*
X0005600Y0042508D02*
X0006386Y0042508D01*
X0006138Y0041909D02*
X0005600Y0041909D01*
X0005600Y0041311D02*
X0005890Y0041311D01*
X0005831Y0040712D02*
X0005600Y0040712D01*
X0005600Y0040114D02*
X0005831Y0040114D01*
X0005879Y0039515D02*
X0005600Y0039515D01*
X0005600Y0038917D02*
X0006127Y0038917D01*
X0006375Y0038318D02*
X0005600Y0038318D01*
X0005600Y0037720D02*
X0006909Y0037720D01*
D16*
X0032000Y0078900D03*
X0029100Y0082100D03*
X0030100Y0091100D03*
X0029900Y0095000D03*
X0026100Y0097700D03*
X0027600Y0103000D03*
X0026100Y0111500D03*
X0021400Y0124800D03*
X0037900Y0124300D03*
X0041500Y0124300D03*
X0060000Y0094100D03*
X0062600Y0090300D03*
X0069400Y0092700D03*
X0071500Y0089400D03*
X0072300Y0095900D03*
X0078900Y0079400D03*
X0079100Y0075900D03*
X0077900Y0061600D03*
X0080600Y0058400D03*
X0079500Y0054900D03*
X0064900Y0039000D03*
X0057900Y0049300D03*
X0052400Y0048400D03*
X0052400Y0052000D03*
X0049908Y0055000D03*
X0047700Y0051700D03*
X0053200Y0057500D03*
X0048000Y0064300D03*
X0042000Y0059300D03*
X0051400Y0073500D03*
X0051300Y0083500D03*
X0045000Y0082000D03*
X0042400Y0079500D03*
X0037000Y0077800D03*
X0020100Y0095000D03*
X0061200Y0067500D03*
X0055500Y0029100D03*
M02*
