G75*
%MOIN*%
%OFA0B0*%
%FSLAX25Y25*%
%IPPOS*%
%LPD*%
%AMOC8*
5,1,8,0,0,1.08239X$1,22.5*
%
%ADD10C,0.00600*%
%ADD11C,0.00500*%
%ADD12C,0.00200*%
%ADD13C,0.00300*%
%ADD14C,0.00250*%
D10*
X0053308Y0043012D02*
X0037312Y0059008D01*
X0037312Y0061792D01*
X0053308Y0077788D01*
X0056092Y0077788D01*
X0072088Y0061792D01*
X0072088Y0059008D01*
X0056092Y0043012D01*
X0053308Y0043012D01*
X0052731Y0046481D02*
X0052733Y0046569D01*
X0052739Y0046657D01*
X0052749Y0046745D01*
X0052763Y0046833D01*
X0052780Y0046919D01*
X0052802Y0047005D01*
X0052827Y0047089D01*
X0052857Y0047173D01*
X0052889Y0047255D01*
X0052926Y0047335D01*
X0052966Y0047414D01*
X0053010Y0047491D01*
X0053057Y0047566D01*
X0053107Y0047638D01*
X0053161Y0047709D01*
X0053217Y0047776D01*
X0053277Y0047842D01*
X0053339Y0047904D01*
X0053405Y0047964D01*
X0053472Y0048020D01*
X0053543Y0048074D01*
X0053615Y0048124D01*
X0053690Y0048171D01*
X0053767Y0048215D01*
X0053846Y0048255D01*
X0053926Y0048292D01*
X0054008Y0048324D01*
X0054092Y0048354D01*
X0054176Y0048379D01*
X0054262Y0048401D01*
X0054348Y0048418D01*
X0054436Y0048432D01*
X0054524Y0048442D01*
X0054612Y0048448D01*
X0054700Y0048450D01*
X0054788Y0048448D01*
X0054876Y0048442D01*
X0054964Y0048432D01*
X0055052Y0048418D01*
X0055138Y0048401D01*
X0055224Y0048379D01*
X0055308Y0048354D01*
X0055392Y0048324D01*
X0055474Y0048292D01*
X0055554Y0048255D01*
X0055633Y0048215D01*
X0055710Y0048171D01*
X0055785Y0048124D01*
X0055857Y0048074D01*
X0055928Y0048020D01*
X0055995Y0047964D01*
X0056061Y0047904D01*
X0056123Y0047842D01*
X0056183Y0047776D01*
X0056239Y0047709D01*
X0056293Y0047638D01*
X0056343Y0047566D01*
X0056390Y0047491D01*
X0056434Y0047414D01*
X0056474Y0047335D01*
X0056511Y0047255D01*
X0056543Y0047173D01*
X0056573Y0047089D01*
X0056598Y0047005D01*
X0056620Y0046919D01*
X0056637Y0046833D01*
X0056651Y0046745D01*
X0056661Y0046657D01*
X0056667Y0046569D01*
X0056669Y0046481D01*
X0056667Y0046393D01*
X0056661Y0046305D01*
X0056651Y0046217D01*
X0056637Y0046129D01*
X0056620Y0046043D01*
X0056598Y0045957D01*
X0056573Y0045873D01*
X0056543Y0045789D01*
X0056511Y0045707D01*
X0056474Y0045627D01*
X0056434Y0045548D01*
X0056390Y0045471D01*
X0056343Y0045396D01*
X0056293Y0045324D01*
X0056239Y0045253D01*
X0056183Y0045186D01*
X0056123Y0045120D01*
X0056061Y0045058D01*
X0055995Y0044998D01*
X0055928Y0044942D01*
X0055857Y0044888D01*
X0055785Y0044838D01*
X0055710Y0044791D01*
X0055633Y0044747D01*
X0055554Y0044707D01*
X0055474Y0044670D01*
X0055392Y0044638D01*
X0055308Y0044608D01*
X0055224Y0044583D01*
X0055138Y0044561D01*
X0055052Y0044544D01*
X0054964Y0044530D01*
X0054876Y0044520D01*
X0054788Y0044514D01*
X0054700Y0044512D01*
X0054612Y0044514D01*
X0054524Y0044520D01*
X0054436Y0044530D01*
X0054348Y0044544D01*
X0054262Y0044561D01*
X0054176Y0044583D01*
X0054092Y0044608D01*
X0054008Y0044638D01*
X0053926Y0044670D01*
X0053846Y0044707D01*
X0053767Y0044747D01*
X0053690Y0044791D01*
X0053615Y0044838D01*
X0053543Y0044888D01*
X0053472Y0044942D01*
X0053405Y0044998D01*
X0053339Y0045058D01*
X0053277Y0045120D01*
X0053217Y0045186D01*
X0053161Y0045253D01*
X0053107Y0045324D01*
X0053057Y0045396D01*
X0053010Y0045471D01*
X0052966Y0045548D01*
X0052926Y0045627D01*
X0052889Y0045707D01*
X0052857Y0045789D01*
X0052827Y0045873D01*
X0052802Y0045957D01*
X0052780Y0046043D01*
X0052763Y0046129D01*
X0052749Y0046217D01*
X0052739Y0046305D01*
X0052733Y0046393D01*
X0052731Y0046481D01*
D11*
X0054748Y0027099D02*
X0054748Y0014501D01*
X0023252Y0014501D01*
X0023252Y0027099D01*
X0054748Y0027099D01*
X0040074Y0114613D02*
X0031806Y0114613D01*
X0031806Y0122881D01*
X0031412Y0122881D02*
X0031414Y0122920D01*
X0031420Y0122959D01*
X0031430Y0122997D01*
X0031443Y0123034D01*
X0031460Y0123069D01*
X0031480Y0123103D01*
X0031504Y0123134D01*
X0031531Y0123163D01*
X0031560Y0123189D01*
X0031592Y0123212D01*
X0031626Y0123232D01*
X0031662Y0123248D01*
X0031699Y0123260D01*
X0031738Y0123269D01*
X0031777Y0123274D01*
X0031816Y0123275D01*
X0031855Y0123272D01*
X0031894Y0123265D01*
X0031931Y0123254D01*
X0031968Y0123240D01*
X0032003Y0123222D01*
X0032036Y0123201D01*
X0032067Y0123176D01*
X0032095Y0123149D01*
X0032120Y0123119D01*
X0032142Y0123086D01*
X0032161Y0123052D01*
X0032176Y0123016D01*
X0032188Y0122978D01*
X0032196Y0122940D01*
X0032200Y0122901D01*
X0032200Y0122861D01*
X0032196Y0122822D01*
X0032188Y0122784D01*
X0032176Y0122746D01*
X0032161Y0122710D01*
X0032142Y0122676D01*
X0032120Y0122643D01*
X0032095Y0122613D01*
X0032067Y0122586D01*
X0032036Y0122561D01*
X0032003Y0122540D01*
X0031968Y0122522D01*
X0031931Y0122508D01*
X0031894Y0122497D01*
X0031855Y0122490D01*
X0031816Y0122487D01*
X0031777Y0122488D01*
X0031738Y0122493D01*
X0031699Y0122502D01*
X0031662Y0122514D01*
X0031626Y0122530D01*
X0031592Y0122550D01*
X0031560Y0122573D01*
X0031531Y0122599D01*
X0031504Y0122628D01*
X0031480Y0122659D01*
X0031460Y0122693D01*
X0031443Y0122728D01*
X0031430Y0122765D01*
X0031420Y0122803D01*
X0031414Y0122842D01*
X0031412Y0122881D01*
X0031806Y0122881D02*
X0040074Y0122881D01*
X0040074Y0114613D01*
X0078000Y0135300D02*
X0078002Y0135344D01*
X0078008Y0135388D01*
X0078018Y0135431D01*
X0078031Y0135473D01*
X0078048Y0135514D01*
X0078069Y0135553D01*
X0078093Y0135590D01*
X0078120Y0135625D01*
X0078150Y0135657D01*
X0078183Y0135687D01*
X0078219Y0135713D01*
X0078256Y0135737D01*
X0078296Y0135756D01*
X0078337Y0135773D01*
X0078380Y0135785D01*
X0078423Y0135794D01*
X0078467Y0135799D01*
X0078511Y0135800D01*
X0078555Y0135797D01*
X0078599Y0135790D01*
X0078642Y0135779D01*
X0078684Y0135765D01*
X0078724Y0135747D01*
X0078763Y0135725D01*
X0078799Y0135701D01*
X0078833Y0135673D01*
X0078865Y0135642D01*
X0078894Y0135608D01*
X0078920Y0135572D01*
X0078942Y0135534D01*
X0078961Y0135494D01*
X0078976Y0135452D01*
X0078988Y0135410D01*
X0078996Y0135366D01*
X0079000Y0135322D01*
X0079000Y0135278D01*
X0078996Y0135234D01*
X0078988Y0135190D01*
X0078976Y0135148D01*
X0078961Y0135106D01*
X0078942Y0135066D01*
X0078920Y0135028D01*
X0078894Y0134992D01*
X0078865Y0134958D01*
X0078833Y0134927D01*
X0078799Y0134899D01*
X0078763Y0134875D01*
X0078724Y0134853D01*
X0078684Y0134835D01*
X0078642Y0134821D01*
X0078599Y0134810D01*
X0078555Y0134803D01*
X0078511Y0134800D01*
X0078467Y0134801D01*
X0078423Y0134806D01*
X0078380Y0134815D01*
X0078337Y0134827D01*
X0078296Y0134844D01*
X0078256Y0134863D01*
X0078219Y0134887D01*
X0078183Y0134913D01*
X0078150Y0134943D01*
X0078120Y0134975D01*
X0078093Y0135010D01*
X0078069Y0135047D01*
X0078048Y0135086D01*
X0078031Y0135127D01*
X0078018Y0135169D01*
X0078008Y0135212D01*
X0078002Y0135256D01*
X0078000Y0135300D01*
D12*
X0044625Y0021902D02*
X0044625Y0019700D01*
X0046093Y0019700D01*
X0043883Y0019700D02*
X0043883Y0021168D01*
X0043149Y0021902D01*
X0042415Y0021168D01*
X0042415Y0019700D01*
X0042415Y0020801D02*
X0043883Y0020801D01*
X0041673Y0021902D02*
X0040205Y0021902D01*
X0040939Y0021902D02*
X0040939Y0019700D01*
X0039463Y0020067D02*
X0039463Y0020434D01*
X0039096Y0020801D01*
X0038362Y0020801D01*
X0037995Y0021168D01*
X0037995Y0021535D01*
X0038362Y0021902D01*
X0039096Y0021902D01*
X0039463Y0021535D01*
X0039463Y0020067D02*
X0039096Y0019700D01*
X0038362Y0019700D01*
X0037995Y0020067D01*
X0036519Y0019700D02*
X0036519Y0020801D01*
X0037253Y0021535D01*
X0037253Y0021902D01*
X0036519Y0020801D02*
X0035785Y0021535D01*
X0035785Y0021902D01*
X0035043Y0021535D02*
X0035043Y0020801D01*
X0034676Y0020434D01*
X0033575Y0020434D01*
X0033575Y0019700D02*
X0033575Y0021902D01*
X0034676Y0021902D01*
X0035043Y0021535D01*
X0034309Y0020434D02*
X0035043Y0019700D01*
X0032833Y0020067D02*
X0032466Y0019700D01*
X0031732Y0019700D01*
X0031365Y0020067D01*
X0031365Y0021535D01*
X0031732Y0021902D01*
X0032466Y0021902D01*
X0032833Y0021535D01*
D13*
X0015748Y0011012D02*
X0015748Y0009077D01*
X0015748Y0011012D02*
X0016231Y0011012D01*
X0018166Y0009077D01*
X0018650Y0009077D01*
X0018166Y0019077D02*
X0017683Y0019077D01*
X0017199Y0019560D01*
X0017199Y0020528D01*
X0017683Y0021012D01*
X0018166Y0021012D01*
X0018650Y0020528D01*
X0018650Y0019560D01*
X0018166Y0019077D01*
X0017199Y0019560D02*
X0016715Y0019077D01*
X0016231Y0019077D01*
X0015748Y0019560D01*
X0015748Y0020528D01*
X0016231Y0021012D01*
X0016715Y0021012D01*
X0017199Y0020528D01*
X0016715Y0029077D02*
X0017199Y0029560D01*
X0017199Y0031012D01*
X0018166Y0031012D02*
X0016231Y0031012D01*
X0015748Y0030528D01*
X0015748Y0029560D01*
X0016231Y0029077D01*
X0016715Y0029077D01*
X0018166Y0029077D02*
X0018650Y0029560D01*
X0018650Y0030528D01*
X0018166Y0031012D01*
X0018650Y0037603D02*
X0018650Y0039538D01*
X0018650Y0038571D02*
X0015748Y0038571D01*
X0016715Y0037603D01*
X0016231Y0040550D02*
X0015748Y0041034D01*
X0015748Y0042001D01*
X0016231Y0042485D01*
X0018166Y0040550D01*
X0018650Y0041034D01*
X0018650Y0042001D01*
X0018166Y0042485D01*
X0016231Y0042485D01*
X0016231Y0040550D02*
X0018166Y0040550D01*
X0018650Y0047603D02*
X0018650Y0049538D01*
X0018650Y0048571D02*
X0015748Y0048571D01*
X0016715Y0047603D01*
X0016715Y0050550D02*
X0015748Y0051517D01*
X0018650Y0051517D01*
X0018650Y0050550D02*
X0018650Y0052485D01*
X0018650Y0057603D02*
X0018650Y0059538D01*
X0018650Y0058571D02*
X0015748Y0058571D01*
X0016715Y0057603D01*
X0016231Y0060550D02*
X0015748Y0061034D01*
X0015748Y0062001D01*
X0016231Y0062485D01*
X0016715Y0062485D01*
X0018650Y0060550D01*
X0018650Y0062485D01*
X0018650Y0067603D02*
X0018650Y0069538D01*
X0018650Y0068571D02*
X0015748Y0068571D01*
X0016715Y0067603D01*
X0016231Y0070550D02*
X0015748Y0071034D01*
X0015748Y0072001D01*
X0016231Y0072485D01*
X0016715Y0072485D01*
X0017199Y0072001D01*
X0017683Y0072485D01*
X0018166Y0072485D01*
X0018650Y0072001D01*
X0018650Y0071034D01*
X0018166Y0070550D01*
X0017199Y0071517D02*
X0017199Y0072001D01*
X0016715Y0076130D02*
X0017199Y0076614D01*
X0017199Y0077581D01*
X0017683Y0078065D01*
X0018166Y0078065D01*
X0018650Y0077581D01*
X0018650Y0076614D01*
X0018166Y0076130D01*
X0016715Y0076130D02*
X0016231Y0076130D01*
X0015748Y0076614D01*
X0015748Y0077581D01*
X0016231Y0078065D01*
X0015748Y0079077D02*
X0015748Y0080528D01*
X0016231Y0081012D01*
X0018166Y0081012D01*
X0018650Y0080528D01*
X0018650Y0079077D01*
X0015748Y0079077D01*
X0016715Y0082023D02*
X0015748Y0082991D01*
X0016715Y0083958D01*
X0018650Y0083958D01*
X0017199Y0083958D02*
X0017199Y0082023D01*
X0016715Y0082023D02*
X0018650Y0082023D01*
X0018166Y0086130D02*
X0018650Y0086614D01*
X0018650Y0087581D01*
X0018166Y0088065D01*
X0017683Y0088065D01*
X0017199Y0087581D01*
X0017199Y0086614D01*
X0016715Y0086130D01*
X0016231Y0086130D01*
X0015748Y0086614D01*
X0015748Y0087581D01*
X0016231Y0088065D01*
X0016231Y0089077D02*
X0015748Y0089560D01*
X0015748Y0090528D01*
X0016231Y0091012D01*
X0015748Y0092023D02*
X0018650Y0092023D01*
X0018650Y0093958D01*
X0018166Y0096130D02*
X0018650Y0096614D01*
X0018650Y0097581D01*
X0018166Y0098065D01*
X0017683Y0098065D01*
X0017199Y0097581D01*
X0017199Y0097098D01*
X0017199Y0097581D02*
X0016715Y0098065D01*
X0016231Y0098065D01*
X0015748Y0097581D01*
X0015748Y0096614D01*
X0016231Y0096130D01*
X0015748Y0099077D02*
X0017683Y0099077D01*
X0018650Y0100044D01*
X0017683Y0101012D01*
X0015748Y0101012D01*
X0016231Y0102023D02*
X0015748Y0102507D01*
X0015748Y0103474D01*
X0016231Y0103958D01*
X0016715Y0103958D01*
X0017199Y0103474D01*
X0017683Y0103958D01*
X0018166Y0103958D01*
X0018650Y0103474D01*
X0018650Y0102507D01*
X0018166Y0102023D01*
X0017199Y0102991D02*
X0017199Y0103474D01*
X0016231Y0106130D02*
X0018166Y0106130D01*
X0018650Y0106614D01*
X0018650Y0107581D01*
X0018166Y0108065D01*
X0017199Y0108065D01*
X0017199Y0107098D01*
X0016231Y0108065D02*
X0015748Y0107581D01*
X0015748Y0106614D01*
X0016231Y0106130D01*
X0015748Y0109077D02*
X0018650Y0111012D01*
X0015748Y0111012D01*
X0015748Y0112023D02*
X0015748Y0113474D01*
X0016231Y0113958D01*
X0018166Y0113958D01*
X0018650Y0113474D01*
X0018650Y0112023D01*
X0015748Y0112023D01*
X0015748Y0109077D02*
X0018650Y0109077D01*
X0018166Y0116130D02*
X0015748Y0116130D01*
X0015748Y0118065D02*
X0018166Y0118065D01*
X0018650Y0117581D01*
X0018650Y0116614D01*
X0018166Y0116130D01*
X0018166Y0119077D02*
X0018650Y0119560D01*
X0018650Y0120528D01*
X0018166Y0121012D01*
X0017683Y0121012D01*
X0017199Y0120528D01*
X0017199Y0119560D01*
X0016715Y0119077D01*
X0016231Y0119077D01*
X0015748Y0119560D01*
X0015748Y0120528D01*
X0016231Y0121012D01*
X0015748Y0122023D02*
X0015748Y0123474D01*
X0016231Y0123958D01*
X0016715Y0123958D01*
X0017199Y0123474D01*
X0017199Y0122023D01*
X0018650Y0122023D02*
X0018650Y0123474D01*
X0018166Y0123958D01*
X0017683Y0123958D01*
X0017199Y0123474D01*
X0018650Y0122023D02*
X0015748Y0122023D01*
X0016231Y0126130D02*
X0015748Y0126614D01*
X0015748Y0127581D01*
X0016231Y0128065D01*
X0017199Y0128065D02*
X0017199Y0127098D01*
X0017199Y0128065D02*
X0018166Y0128065D01*
X0018650Y0127581D01*
X0018650Y0126614D01*
X0018166Y0126130D01*
X0016231Y0126130D01*
X0015748Y0129077D02*
X0018650Y0131012D01*
X0015748Y0131012D01*
X0015748Y0132023D02*
X0015748Y0133474D01*
X0016231Y0133958D01*
X0018166Y0133958D01*
X0018650Y0133474D01*
X0018650Y0132023D01*
X0015748Y0132023D01*
X0015748Y0129077D02*
X0018650Y0129077D01*
X0017683Y0136621D02*
X0015748Y0136621D01*
X0017683Y0136621D02*
X0018650Y0137589D01*
X0017683Y0138556D01*
X0015748Y0138556D01*
X0015748Y0139568D02*
X0015748Y0140535D01*
X0015748Y0140052D02*
X0018650Y0140052D01*
X0018650Y0140535D02*
X0018650Y0139568D01*
X0018650Y0141532D02*
X0015748Y0141532D01*
X0018650Y0143467D01*
X0015748Y0143467D01*
X0018166Y0091012D02*
X0018650Y0090528D01*
X0018650Y0089560D01*
X0018166Y0089077D01*
X0016231Y0089077D01*
X0053248Y0097098D02*
X0054215Y0098065D01*
X0056150Y0098065D01*
X0054699Y0098065D02*
X0054699Y0096130D01*
X0054215Y0096130D02*
X0053248Y0097098D01*
X0054215Y0096130D02*
X0056150Y0096130D01*
X0056150Y0100044D02*
X0053248Y0100044D01*
X0053248Y0099077D02*
X0053248Y0101012D01*
X0053248Y0102023D02*
X0056150Y0103958D01*
X0053248Y0103958D01*
X0053248Y0102023D02*
X0056150Y0102023D01*
X0055666Y0106130D02*
X0056150Y0106614D01*
X0056150Y0107581D01*
X0055666Y0108065D01*
X0055183Y0108065D01*
X0054699Y0107581D01*
X0054699Y0106614D01*
X0054215Y0106130D01*
X0053731Y0106130D01*
X0053248Y0106614D01*
X0053248Y0107581D01*
X0053731Y0108065D01*
X0053731Y0109077D02*
X0053248Y0109560D01*
X0053248Y0110528D01*
X0053731Y0111012D01*
X0053248Y0112023D02*
X0056150Y0112023D01*
X0055183Y0112023D02*
X0053248Y0113958D01*
X0053248Y0115148D02*
X0054215Y0116116D01*
X0053248Y0117083D01*
X0056150Y0117083D01*
X0056150Y0118095D02*
X0056150Y0119062D01*
X0056150Y0118578D02*
X0053248Y0118578D01*
X0053248Y0118095D02*
X0053248Y0119062D01*
X0053731Y0120059D02*
X0053248Y0120543D01*
X0053248Y0121510D01*
X0053731Y0121994D01*
X0053731Y0123005D02*
X0053248Y0123489D01*
X0053248Y0124457D01*
X0053731Y0124940D01*
X0055666Y0124940D01*
X0056150Y0124457D01*
X0056150Y0123489D01*
X0055666Y0123005D01*
X0053731Y0123005D01*
X0055183Y0121994D02*
X0055666Y0121994D01*
X0056150Y0121510D01*
X0056150Y0120543D01*
X0055666Y0120059D01*
X0054699Y0120543D02*
X0054699Y0121510D01*
X0055183Y0121994D01*
X0054699Y0120543D02*
X0054215Y0120059D01*
X0053731Y0120059D01*
X0053248Y0115148D02*
X0056150Y0115148D01*
X0056150Y0113958D02*
X0054699Y0112507D01*
X0055666Y0111012D02*
X0056150Y0110528D01*
X0056150Y0109560D01*
X0055666Y0109077D01*
X0053731Y0109077D01*
X0073248Y0109546D02*
X0073248Y0108578D01*
X0073731Y0108095D01*
X0075666Y0108095D01*
X0076150Y0108578D01*
X0076150Y0109546D01*
X0075666Y0110030D01*
X0073731Y0110030D01*
X0073248Y0109546D01*
X0073731Y0111041D02*
X0073248Y0111525D01*
X0073248Y0112492D01*
X0073731Y0112976D01*
X0074699Y0112492D02*
X0074699Y0111525D01*
X0074215Y0111041D01*
X0073731Y0111041D01*
X0074699Y0112492D02*
X0075183Y0112976D01*
X0075666Y0112976D01*
X0076150Y0112492D01*
X0076150Y0111525D01*
X0075666Y0111041D01*
X0076150Y0113988D02*
X0076150Y0114955D01*
X0076150Y0114471D02*
X0073248Y0114471D01*
X0073248Y0113988D02*
X0073248Y0114955D01*
X0073731Y0116130D02*
X0073248Y0116614D01*
X0073248Y0117581D01*
X0073731Y0118065D01*
X0074215Y0118065D01*
X0074699Y0117581D01*
X0075183Y0118065D01*
X0075666Y0118065D01*
X0076150Y0117581D01*
X0076150Y0116614D01*
X0075666Y0116130D01*
X0074699Y0117098D02*
X0074699Y0117581D01*
X0075183Y0119077D02*
X0076150Y0120044D01*
X0075183Y0121012D01*
X0073248Y0121012D01*
X0073731Y0122023D02*
X0073248Y0122507D01*
X0073248Y0123474D01*
X0073731Y0123958D01*
X0074215Y0123958D01*
X0074699Y0123474D01*
X0075183Y0123958D01*
X0075666Y0123958D01*
X0076150Y0123474D01*
X0076150Y0122507D01*
X0075666Y0122023D01*
X0074699Y0122991D02*
X0074699Y0123474D01*
X0075183Y0119077D02*
X0073248Y0119077D01*
X0080748Y0120528D02*
X0082199Y0119077D01*
X0082199Y0121012D01*
X0083650Y0120528D02*
X0080748Y0120528D01*
X0080748Y0129077D02*
X0082199Y0129077D01*
X0081715Y0130044D01*
X0081715Y0130528D01*
X0082199Y0131012D01*
X0083166Y0131012D01*
X0083650Y0130528D01*
X0083650Y0129560D01*
X0083166Y0129077D01*
X0080748Y0129077D02*
X0080748Y0131012D01*
X0082199Y0139077D02*
X0082199Y0140528D01*
X0082683Y0141012D01*
X0083166Y0141012D01*
X0083650Y0140528D01*
X0083650Y0139560D01*
X0083166Y0139077D01*
X0082199Y0139077D01*
X0081231Y0140044D01*
X0080748Y0141012D01*
X0081231Y0111012D02*
X0081715Y0111012D01*
X0082199Y0110528D01*
X0082683Y0111012D01*
X0083166Y0111012D01*
X0083650Y0110528D01*
X0083650Y0109560D01*
X0083166Y0109077D01*
X0082199Y0110044D02*
X0082199Y0110528D01*
X0081231Y0111012D02*
X0080748Y0110528D01*
X0080748Y0109560D01*
X0081231Y0109077D01*
X0076150Y0107083D02*
X0073248Y0107083D01*
X0074215Y0106116D01*
X0073248Y0105148D01*
X0076150Y0105148D01*
X0075666Y0103958D02*
X0073731Y0103958D01*
X0073248Y0103474D01*
X0073248Y0102023D01*
X0076150Y0102023D01*
X0076150Y0103474D01*
X0075666Y0103958D01*
X0076150Y0101012D02*
X0073248Y0101012D01*
X0073248Y0099077D02*
X0076150Y0101012D01*
X0076150Y0099077D02*
X0073248Y0099077D01*
X0073731Y0098065D02*
X0073248Y0097581D01*
X0073248Y0096614D01*
X0073731Y0096130D01*
X0075666Y0096130D01*
X0076150Y0096614D01*
X0076150Y0097581D01*
X0075666Y0098065D01*
X0074699Y0098065D01*
X0074699Y0097098D01*
X0080748Y0099560D02*
X0081231Y0099077D01*
X0080748Y0099560D02*
X0080748Y0100528D01*
X0081231Y0101012D01*
X0081715Y0101012D01*
X0083650Y0099077D01*
X0083650Y0101012D01*
X0083650Y0091012D02*
X0083650Y0089077D01*
X0083650Y0090044D02*
X0080748Y0090044D01*
X0081715Y0089077D01*
X0081231Y0081012D02*
X0083166Y0079077D01*
X0083650Y0079560D01*
X0083650Y0080528D01*
X0083166Y0081012D01*
X0081231Y0081012D01*
X0080748Y0080528D01*
X0080748Y0079560D01*
X0081231Y0079077D01*
X0083166Y0079077D01*
X0083166Y0072485D02*
X0082199Y0072485D01*
X0081715Y0072001D01*
X0081715Y0071517D01*
X0082199Y0070550D01*
X0080748Y0070550D01*
X0080748Y0072485D01*
X0083166Y0072485D02*
X0083650Y0072001D01*
X0083650Y0071034D01*
X0083166Y0070550D01*
X0083650Y0069538D02*
X0081715Y0069538D01*
X0080748Y0068571D01*
X0081715Y0067603D01*
X0083650Y0067603D01*
X0082199Y0067603D02*
X0082199Y0069538D01*
X0082199Y0062485D02*
X0082199Y0060550D01*
X0080748Y0062001D01*
X0083650Y0062001D01*
X0083650Y0059538D02*
X0081715Y0059538D01*
X0080748Y0058571D01*
X0081715Y0057603D01*
X0083650Y0057603D01*
X0082199Y0057603D02*
X0082199Y0059538D01*
X0082683Y0052485D02*
X0082199Y0052001D01*
X0082199Y0051517D01*
X0082199Y0052001D02*
X0081715Y0052485D01*
X0081231Y0052485D01*
X0080748Y0052001D01*
X0080748Y0051034D01*
X0081231Y0050550D01*
X0081715Y0049538D02*
X0080748Y0048571D01*
X0081715Y0047603D01*
X0083650Y0047603D01*
X0083650Y0049538D02*
X0081715Y0049538D01*
X0082199Y0049538D02*
X0082199Y0047603D01*
X0083166Y0050550D02*
X0083650Y0051034D01*
X0083650Y0052001D01*
X0083166Y0052485D01*
X0082683Y0052485D01*
X0083650Y0042485D02*
X0083650Y0040550D01*
X0081715Y0042485D01*
X0081231Y0042485D01*
X0080748Y0042001D01*
X0080748Y0041034D01*
X0081231Y0040550D01*
X0081715Y0039538D02*
X0083650Y0039538D01*
X0083650Y0037603D02*
X0081715Y0037603D01*
X0080748Y0038571D01*
X0081715Y0039538D01*
X0082199Y0039538D02*
X0082199Y0037603D01*
X0083650Y0032485D02*
X0083650Y0030550D01*
X0083650Y0031517D02*
X0080748Y0031517D01*
X0081715Y0030550D01*
X0081715Y0029538D02*
X0083650Y0029538D01*
X0082199Y0029538D02*
X0082199Y0027603D01*
X0081715Y0027603D02*
X0080748Y0028571D01*
X0081715Y0029538D01*
X0081715Y0027603D02*
X0083650Y0027603D01*
X0083166Y0022485D02*
X0081231Y0022485D01*
X0083166Y0020550D01*
X0083650Y0021034D01*
X0083650Y0022001D01*
X0083166Y0022485D01*
X0083166Y0020550D02*
X0081231Y0020550D01*
X0080748Y0021034D01*
X0080748Y0022001D01*
X0081231Y0022485D01*
X0081715Y0019538D02*
X0083650Y0019538D01*
X0083650Y0017603D02*
X0081715Y0017603D01*
X0080748Y0018571D01*
X0081715Y0019538D01*
X0082199Y0019538D02*
X0082199Y0017603D01*
X0080748Y0015431D02*
X0080748Y0013497D01*
X0083650Y0013497D01*
X0083650Y0012485D02*
X0083650Y0010550D01*
X0080748Y0010550D01*
X0080748Y0012485D01*
X0082199Y0011517D02*
X0082199Y0010550D01*
X0082199Y0009538D02*
X0082683Y0009055D01*
X0082683Y0007603D01*
X0083650Y0007603D02*
X0080748Y0007603D01*
X0080748Y0009055D01*
X0081231Y0009538D01*
X0082199Y0009538D01*
X0082683Y0008571D02*
X0083650Y0009538D01*
X0083650Y0006592D02*
X0081715Y0006592D01*
X0080748Y0005624D01*
X0081715Y0004657D01*
X0083650Y0004657D01*
X0082199Y0004657D02*
X0082199Y0006592D01*
X0082199Y0013497D02*
X0082199Y0014464D01*
D14*
X0028575Y0121300D02*
X0028575Y0121800D01*
X0028575Y0122300D01*
X0028575Y0121800D02*
X0027825Y0122300D01*
X0027825Y0121300D01*
X0028575Y0121800D01*
M02*
