G75*
%MOIN*%
%OFA0B0*%
%FSLAX25Y25*%
%IPPOS*%
%LPD*%
%AMOC8*
5,1,8,0,0,1.08239X$1,22.5*
%
%ADD10C,0.00000*%
%ADD11R,0.01181X0.05906*%
%ADD12R,0.05906X0.01181*%
%ADD13R,0.04331X0.03937*%
%ADD14R,0.05118X0.07480*%
%ADD15R,0.03543X0.02756*%
%ADD16R,0.01575X0.05315*%
%ADD17C,0.05346*%
%ADD18R,0.06890X0.06102*%
%ADD19C,0.06791*%
%ADD20C,0.04362*%
%ADD21C,0.05543*%
%ADD22C,0.05937*%
%ADD23R,0.01969X0.01102*%
%ADD24R,0.03543X0.06299*%
%ADD25R,0.02756X0.03543*%
%ADD26R,0.03937X0.04331*%
%ADD27R,0.01181X0.02165*%
%ADD28C,0.00600*%
%ADD29C,0.02900*%
D10*
X0004700Y0005400D02*
X0004700Y0145361D01*
X0094700Y0145361D01*
X0094700Y0005400D01*
X0004700Y0005400D01*
D11*
G36*
X0037718Y0062906D02*
X0036883Y0062071D01*
X0032708Y0066246D01*
X0033543Y0067081D01*
X0037718Y0062906D01*
G37*
G36*
X0039110Y0064298D02*
X0038275Y0063463D01*
X0034100Y0067638D01*
X0034935Y0068473D01*
X0039110Y0064298D01*
G37*
G36*
X0040502Y0065690D02*
X0039667Y0064855D01*
X0035492Y0069030D01*
X0036327Y0069865D01*
X0040502Y0065690D01*
G37*
G36*
X0041894Y0067082D02*
X0041059Y0066247D01*
X0036884Y0070422D01*
X0037719Y0071257D01*
X0041894Y0067082D01*
G37*
G36*
X0043286Y0068474D02*
X0042451Y0067639D01*
X0038276Y0071814D01*
X0039111Y0072649D01*
X0043286Y0068474D01*
G37*
G36*
X0044678Y0069866D02*
X0043843Y0069031D01*
X0039668Y0073206D01*
X0040503Y0074041D01*
X0044678Y0069866D01*
G37*
G36*
X0046069Y0071257D02*
X0045234Y0070422D01*
X0041059Y0074597D01*
X0041894Y0075432D01*
X0046069Y0071257D01*
G37*
G36*
X0047461Y0072649D02*
X0046626Y0071814D01*
X0042451Y0075989D01*
X0043286Y0076824D01*
X0047461Y0072649D01*
G37*
G36*
X0048853Y0074041D02*
X0048018Y0073206D01*
X0043843Y0077381D01*
X0044678Y0078216D01*
X0048853Y0074041D01*
G37*
G36*
X0050245Y0075433D02*
X0049410Y0074598D01*
X0045235Y0078773D01*
X0046070Y0079608D01*
X0050245Y0075433D01*
G37*
G36*
X0051637Y0076825D02*
X0050802Y0075990D01*
X0046627Y0080165D01*
X0047462Y0081000D01*
X0051637Y0076825D01*
G37*
G36*
X0053029Y0078217D02*
X0052194Y0077382D01*
X0048019Y0081557D01*
X0048854Y0082392D01*
X0053029Y0078217D01*
G37*
G36*
X0072516Y0050378D02*
X0071681Y0049543D01*
X0067506Y0053718D01*
X0068341Y0054553D01*
X0072516Y0050378D01*
G37*
G36*
X0073908Y0051770D02*
X0073073Y0050935D01*
X0068898Y0055110D01*
X0069733Y0055945D01*
X0073908Y0051770D01*
G37*
G36*
X0075300Y0053162D02*
X0074465Y0052327D01*
X0070290Y0056502D01*
X0071125Y0057337D01*
X0075300Y0053162D01*
G37*
G36*
X0076692Y0054554D02*
X0075857Y0053719D01*
X0071682Y0057894D01*
X0072517Y0058729D01*
X0076692Y0054554D01*
G37*
G36*
X0071124Y0048986D02*
X0070289Y0048151D01*
X0066114Y0052326D01*
X0066949Y0053161D01*
X0071124Y0048986D01*
G37*
G36*
X0069732Y0047594D02*
X0068897Y0046759D01*
X0064722Y0050934D01*
X0065557Y0051769D01*
X0069732Y0047594D01*
G37*
G36*
X0068341Y0046203D02*
X0067506Y0045368D01*
X0063331Y0049543D01*
X0064166Y0050378D01*
X0068341Y0046203D01*
G37*
G36*
X0066949Y0044811D02*
X0066114Y0043976D01*
X0061939Y0048151D01*
X0062774Y0048986D01*
X0066949Y0044811D01*
G37*
G36*
X0065557Y0043419D02*
X0064722Y0042584D01*
X0060547Y0046759D01*
X0061382Y0047594D01*
X0065557Y0043419D01*
G37*
G36*
X0064165Y0042027D02*
X0063330Y0041192D01*
X0059155Y0045367D01*
X0059990Y0046202D01*
X0064165Y0042027D01*
G37*
G36*
X0062773Y0040635D02*
X0061938Y0039800D01*
X0057763Y0043975D01*
X0058598Y0044810D01*
X0062773Y0040635D01*
G37*
G36*
X0061381Y0039243D02*
X0060546Y0038408D01*
X0056371Y0042583D01*
X0057206Y0043418D01*
X0061381Y0039243D01*
G37*
D12*
G36*
X0053029Y0042583D02*
X0048854Y0038408D01*
X0048019Y0039243D01*
X0052194Y0043418D01*
X0053029Y0042583D01*
G37*
G36*
X0051637Y0043975D02*
X0047462Y0039800D01*
X0046627Y0040635D01*
X0050802Y0044810D01*
X0051637Y0043975D01*
G37*
G36*
X0050245Y0045367D02*
X0046070Y0041192D01*
X0045235Y0042027D01*
X0049410Y0046202D01*
X0050245Y0045367D01*
G37*
G36*
X0048853Y0046759D02*
X0044678Y0042584D01*
X0043843Y0043419D01*
X0048018Y0047594D01*
X0048853Y0046759D01*
G37*
G36*
X0047461Y0048151D02*
X0043286Y0043976D01*
X0042451Y0044811D01*
X0046626Y0048986D01*
X0047461Y0048151D01*
G37*
G36*
X0046069Y0049543D02*
X0041894Y0045368D01*
X0041059Y0046203D01*
X0045234Y0050378D01*
X0046069Y0049543D01*
G37*
G36*
X0044678Y0050934D02*
X0040503Y0046759D01*
X0039668Y0047594D01*
X0043843Y0051769D01*
X0044678Y0050934D01*
G37*
G36*
X0043286Y0052326D02*
X0039111Y0048151D01*
X0038276Y0048986D01*
X0042451Y0053161D01*
X0043286Y0052326D01*
G37*
G36*
X0041894Y0053718D02*
X0037719Y0049543D01*
X0036884Y0050378D01*
X0041059Y0054553D01*
X0041894Y0053718D01*
G37*
G36*
X0040502Y0055110D02*
X0036327Y0050935D01*
X0035492Y0051770D01*
X0039667Y0055945D01*
X0040502Y0055110D01*
G37*
G36*
X0039110Y0056502D02*
X0034935Y0052327D01*
X0034100Y0053162D01*
X0038275Y0057337D01*
X0039110Y0056502D01*
G37*
G36*
X0037718Y0057894D02*
X0033543Y0053719D01*
X0032708Y0054554D01*
X0036883Y0058729D01*
X0037718Y0057894D01*
G37*
G36*
X0061381Y0081557D02*
X0057206Y0077382D01*
X0056371Y0078217D01*
X0060546Y0082392D01*
X0061381Y0081557D01*
G37*
G36*
X0062773Y0080165D02*
X0058598Y0075990D01*
X0057763Y0076825D01*
X0061938Y0081000D01*
X0062773Y0080165D01*
G37*
G36*
X0064165Y0078773D02*
X0059990Y0074598D01*
X0059155Y0075433D01*
X0063330Y0079608D01*
X0064165Y0078773D01*
G37*
G36*
X0065557Y0077381D02*
X0061382Y0073206D01*
X0060547Y0074041D01*
X0064722Y0078216D01*
X0065557Y0077381D01*
G37*
G36*
X0066949Y0075989D02*
X0062774Y0071814D01*
X0061939Y0072649D01*
X0066114Y0076824D01*
X0066949Y0075989D01*
G37*
G36*
X0068341Y0074597D02*
X0064166Y0070422D01*
X0063331Y0071257D01*
X0067506Y0075432D01*
X0068341Y0074597D01*
G37*
G36*
X0069732Y0073206D02*
X0065557Y0069031D01*
X0064722Y0069866D01*
X0068897Y0074041D01*
X0069732Y0073206D01*
G37*
G36*
X0071124Y0071814D02*
X0066949Y0067639D01*
X0066114Y0068474D01*
X0070289Y0072649D01*
X0071124Y0071814D01*
G37*
G36*
X0072516Y0070422D02*
X0068341Y0066247D01*
X0067506Y0067082D01*
X0071681Y0071257D01*
X0072516Y0070422D01*
G37*
G36*
X0073908Y0069030D02*
X0069733Y0064855D01*
X0068898Y0065690D01*
X0073073Y0069865D01*
X0073908Y0069030D01*
G37*
G36*
X0075300Y0067638D02*
X0071125Y0063463D01*
X0070290Y0064298D01*
X0074465Y0068473D01*
X0075300Y0067638D01*
G37*
G36*
X0076692Y0066246D02*
X0072517Y0062071D01*
X0071682Y0062906D01*
X0075857Y0067081D01*
X0076692Y0066246D01*
G37*
D13*
X0077746Y0025700D03*
X0071054Y0025700D03*
X0064946Y0021000D03*
X0064946Y0012300D03*
X0058254Y0012300D03*
X0058254Y0021000D03*
X0040046Y0109900D03*
X0033354Y0109900D03*
D14*
X0028173Y0027099D03*
X0028173Y0014501D03*
X0049827Y0014501D03*
X0049827Y0027099D03*
D15*
X0041000Y0035341D03*
X0041000Y0040459D03*
X0035900Y0040459D03*
X0035900Y0035341D03*
X0029800Y0065641D03*
X0029800Y0070759D03*
X0060300Y0034359D03*
X0060300Y0029241D03*
X0065500Y0029241D03*
X0065500Y0034359D03*
X0072000Y0033441D03*
X0072000Y0038559D03*
X0076500Y0038559D03*
X0076500Y0033441D03*
X0073900Y0076641D03*
X0073900Y0081759D03*
D16*
X0042318Y0129770D03*
X0039759Y0129770D03*
X0037200Y0129770D03*
X0034641Y0129770D03*
X0032082Y0129770D03*
D17*
X0027357Y0129770D03*
X0047043Y0129770D03*
D18*
X0041629Y0140400D03*
X0032771Y0140400D03*
D19*
X0023420Y0140400D03*
X0050980Y0140400D03*
D20*
X0056000Y0132800D03*
X0056000Y0127800D03*
X0061000Y0127800D03*
X0061000Y0132800D03*
X0066000Y0132800D03*
X0066000Y0127800D03*
X0071000Y0127800D03*
X0071000Y0132800D03*
X0076000Y0132800D03*
X0076000Y0127800D03*
D21*
X0069700Y0120400D03*
X0069700Y0110400D03*
X0069700Y0100400D03*
X0059700Y0100400D03*
X0059700Y0110400D03*
X0059700Y0120400D03*
D22*
X0089700Y0120400D03*
X0089700Y0110400D03*
X0089700Y0100400D03*
X0089700Y0090400D03*
X0089700Y0080400D03*
X0089700Y0070400D03*
X0089700Y0060400D03*
X0089700Y0050400D03*
X0089700Y0040400D03*
X0089700Y0030400D03*
X0089700Y0020400D03*
X0089700Y0010400D03*
X0022200Y0050400D03*
X0022200Y0060400D03*
X0009700Y0060400D03*
X0009700Y0050400D03*
X0009700Y0040400D03*
X0009700Y0030400D03*
X0009700Y0020400D03*
X0009700Y0010400D03*
X0009700Y0070400D03*
X0009700Y0080400D03*
X0009700Y0090400D03*
X0009700Y0100400D03*
X0009700Y0110400D03*
X0009700Y0120400D03*
X0009700Y0130400D03*
X0009700Y0140400D03*
X0089700Y0140400D03*
X0089700Y0130400D03*
D23*
X0039680Y0121700D03*
X0039680Y0119731D03*
X0039680Y0117763D03*
X0039680Y0115794D03*
X0032200Y0115794D03*
X0032200Y0117763D03*
X0032200Y0119731D03*
X0032200Y0121700D03*
D24*
X0035940Y0118747D03*
D25*
X0034141Y0103500D03*
X0039259Y0103500D03*
X0023859Y0118000D03*
X0018741Y0118000D03*
D26*
X0046800Y0119846D03*
X0046800Y0113154D03*
D27*
X0029459Y0121800D03*
X0026900Y0121800D03*
D28*
X0011100Y0121800D01*
X0009700Y0120400D01*
X0024200Y0134900D01*
X0041400Y0134900D01*
X0042318Y0133982D01*
X0042318Y0129770D01*
X0044005Y0127765D02*
X0044013Y0127746D01*
X0045018Y0126741D01*
X0046332Y0126197D01*
X0047753Y0126197D01*
X0049067Y0126741D01*
X0050072Y0127746D01*
X0050616Y0129059D01*
X0050616Y0130481D01*
X0050072Y0131794D01*
X0049067Y0132799D01*
X0047753Y0133343D01*
X0046332Y0133343D01*
X0045018Y0132799D01*
X0044013Y0131794D01*
X0044005Y0131775D01*
X0044005Y0132800D01*
X0043518Y0133288D01*
X0043518Y0134479D01*
X0042600Y0135397D01*
X0041897Y0136100D01*
X0023703Y0136100D01*
X0011461Y0123858D01*
X0010469Y0124268D01*
X0008930Y0124268D01*
X0007509Y0123680D01*
X0006420Y0122591D01*
X0005831Y0121169D01*
X0005831Y0119630D01*
X0006420Y0118209D01*
X0007509Y0117120D01*
X0008930Y0116531D01*
X0010469Y0116531D01*
X0011891Y0117120D01*
X0012980Y0118209D01*
X0013568Y0119630D01*
X0013568Y0120600D01*
X0016919Y0120600D01*
X0016463Y0120144D01*
X0016463Y0118860D01*
X0011461Y0113858D01*
X0010469Y0114268D01*
X0008930Y0114268D01*
X0007509Y0113680D01*
X0006420Y0112591D01*
X0005831Y0111169D01*
X0005831Y0109630D01*
X0006420Y0108209D01*
X0007509Y0107120D01*
X0008930Y0106531D01*
X0010469Y0106531D01*
X0011891Y0107120D01*
X0012980Y0108209D01*
X0013568Y0109630D01*
X0013568Y0111169D01*
X0013158Y0112161D01*
X0016658Y0115661D01*
X0016990Y0115328D01*
X0019716Y0115328D01*
X0020641Y0114403D01*
X0021344Y0113700D01*
X0024977Y0113700D01*
X0023750Y0112473D01*
X0023750Y0110527D01*
X0025127Y0109150D01*
X0027073Y0109150D01*
X0028223Y0110300D01*
X0028403Y0110300D01*
X0028800Y0110697D01*
X0028800Y0105997D01*
X0028153Y0105350D01*
X0026627Y0105350D01*
X0025250Y0103973D01*
X0025250Y0102027D01*
X0026627Y0100650D01*
X0028573Y0100650D01*
X0029950Y0102027D01*
X0029950Y0103753D01*
X0030000Y0103803D01*
X0031503Y0102300D01*
X0031863Y0102300D01*
X0031863Y0101356D01*
X0032390Y0100828D01*
X0035892Y0100828D01*
X0036419Y0101356D01*
X0036419Y0105644D01*
X0035892Y0106172D01*
X0032390Y0106172D01*
X0031863Y0105644D01*
X0031863Y0105334D01*
X0031200Y0105997D01*
X0031200Y0107031D01*
X0035892Y0107031D01*
X0036419Y0107559D01*
X0036419Y0111268D01*
X0036581Y0111431D01*
X0036581Y0110200D01*
X0039746Y0110200D01*
X0039746Y0109600D01*
X0036581Y0109600D01*
X0036581Y0107760D01*
X0036670Y0107430D01*
X0036841Y0107133D01*
X0037083Y0106891D01*
X0037379Y0106720D01*
X0037710Y0106631D01*
X0039746Y0106631D01*
X0039746Y0109600D01*
X0040346Y0109600D01*
X0040346Y0106631D01*
X0042383Y0106631D01*
X0042714Y0106720D01*
X0043010Y0106891D01*
X0043252Y0107133D01*
X0043423Y0107430D01*
X0043512Y0107760D01*
X0043512Y0109600D01*
X0040346Y0109600D01*
X0040346Y0110200D01*
X0043512Y0110200D01*
X0043512Y0112040D01*
X0043423Y0112370D01*
X0043252Y0112667D01*
X0043010Y0112909D01*
X0042944Y0112947D01*
X0043400Y0113403D01*
X0043400Y0118260D01*
X0042697Y0118963D01*
X0041952Y0118963D01*
X0041965Y0119009D01*
X0041965Y0119731D01*
X0039680Y0119731D01*
X0043800Y0119731D01*
X0043800Y0114500D01*
X0045146Y0113154D01*
X0046800Y0113154D01*
X0048454Y0113154D01*
X0051100Y0115800D01*
X0051100Y0122000D01*
X0053700Y0124600D01*
X0062600Y0124600D01*
X0066800Y0120400D01*
X0069700Y0120400D01*
X0073300Y0120400D01*
X0079500Y0126600D01*
X0079500Y0130800D01*
X0077500Y0132800D01*
X0076000Y0132800D01*
X0076291Y0132883D02*
X0080100Y0132883D01*
X0080100Y0133003D02*
X0080100Y0126497D01*
X0077403Y0123800D01*
X0076700Y0123097D01*
X0076700Y0115700D01*
X0067103Y0115700D01*
X0066400Y0114997D01*
X0064400Y0112997D01*
X0064400Y0107397D01*
X0063007Y0108790D01*
X0063372Y0109670D01*
X0063372Y0111130D01*
X0062813Y0112480D01*
X0061780Y0113513D01*
X0060430Y0114072D01*
X0058970Y0114072D01*
X0057620Y0113513D01*
X0056587Y0112480D01*
X0056100Y0111303D01*
X0056100Y0112403D01*
X0060425Y0116728D01*
X0060430Y0116728D01*
X0061780Y0117287D01*
X0062813Y0118320D01*
X0063372Y0119670D01*
X0063372Y0121130D01*
X0062813Y0122480D01*
X0061780Y0123513D01*
X0060430Y0124072D01*
X0058970Y0124072D01*
X0057620Y0123513D01*
X0056587Y0122480D01*
X0056028Y0121130D01*
X0056028Y0119670D01*
X0056587Y0118320D01*
X0057605Y0117302D01*
X0054403Y0114100D01*
X0053700Y0113397D01*
X0053700Y0107803D01*
X0055700Y0105803D01*
X0056403Y0105100D01*
X0061403Y0105100D01*
X0061600Y0104903D01*
X0061600Y0103587D01*
X0060430Y0104072D01*
X0058970Y0104072D01*
X0057620Y0103513D01*
X0056587Y0102480D01*
X0056223Y0101600D01*
X0052203Y0101600D01*
X0051500Y0100897D01*
X0039900Y0089297D01*
X0033700Y0095497D01*
X0032997Y0096200D01*
X0032023Y0096200D01*
X0030873Y0097350D01*
X0028927Y0097350D01*
X0028450Y0096873D01*
X0028450Y0098673D01*
X0027073Y0100050D01*
X0025127Y0100050D01*
X0023750Y0098673D01*
X0023750Y0096727D01*
X0024900Y0095577D01*
X0024900Y0073962D01*
X0025603Y0073259D01*
X0027128Y0071734D01*
X0027128Y0069008D01*
X0027656Y0068481D01*
X0031944Y0068481D01*
X0032169Y0068706D01*
X0032750Y0068125D01*
X0032744Y0068122D01*
X0032526Y0067903D01*
X0032370Y0068059D01*
X0032073Y0068230D01*
X0031743Y0068319D01*
X0030100Y0068319D01*
X0030100Y0065941D01*
X0029500Y0065941D01*
X0029500Y0068319D01*
X0027857Y0068319D01*
X0027527Y0068230D01*
X0027230Y0068059D01*
X0026988Y0067817D01*
X0026817Y0067521D01*
X0026728Y0067190D01*
X0026728Y0065941D01*
X0029500Y0065941D01*
X0029500Y0065341D01*
X0026728Y0065341D01*
X0026728Y0064092D01*
X0026817Y0063761D01*
X0026988Y0063465D01*
X0027230Y0063223D01*
X0027527Y0063052D01*
X0027857Y0062963D01*
X0029500Y0062963D01*
X0029500Y0065341D01*
X0030100Y0065341D01*
X0030100Y0062963D01*
X0031743Y0062963D01*
X0032073Y0063052D01*
X0032370Y0063223D01*
X0032612Y0063465D01*
X0032783Y0063761D01*
X0032872Y0064092D01*
X0032872Y0064243D01*
X0033876Y0063239D01*
X0036085Y0061030D01*
X0036381Y0060859D01*
X0036712Y0060770D01*
X0037054Y0060770D01*
X0037385Y0060859D01*
X0037681Y0061030D01*
X0038220Y0061569D01*
X0038759Y0062107D01*
X0038762Y0062113D01*
X0039675Y0061200D01*
X0043797Y0061200D01*
X0045697Y0063100D01*
X0045877Y0063100D01*
X0047027Y0061950D01*
X0048973Y0061950D01*
X0050123Y0063100D01*
X0063397Y0063100D01*
X0064797Y0064500D01*
X0064797Y0064500D01*
X0065500Y0065203D01*
X0065500Y0067249D01*
X0065612Y0067136D01*
X0066151Y0066598D01*
X0066447Y0066427D01*
X0066778Y0066338D01*
X0066976Y0066338D01*
X0067968Y0065346D01*
X0067998Y0065346D01*
X0067998Y0065317D01*
X0069360Y0063954D01*
X0069390Y0063954D01*
X0069390Y0063925D01*
X0070752Y0062562D01*
X0070782Y0062562D01*
X0070782Y0062533D01*
X0072144Y0061170D01*
X0072890Y0061170D01*
X0077593Y0065873D01*
X0077593Y0066284D01*
X0083897Y0072589D01*
X0084600Y0073292D01*
X0084600Y0093603D01*
X0087939Y0096942D01*
X0088930Y0096531D01*
X0090469Y0096531D01*
X0091891Y0097120D01*
X0092980Y0098209D01*
X0093568Y0099630D01*
X0093568Y0101169D01*
X0092980Y0102591D01*
X0091891Y0103680D01*
X0090469Y0104268D01*
X0088930Y0104268D01*
X0087509Y0103680D01*
X0086420Y0102591D01*
X0085831Y0101169D01*
X0085831Y0099630D01*
X0086242Y0098639D01*
X0082800Y0095197D01*
X0082800Y0101803D01*
X0087939Y0106942D01*
X0088930Y0106531D01*
X0090469Y0106531D01*
X0091891Y0107120D01*
X0092980Y0108209D01*
X0093568Y0109630D01*
X0093568Y0111169D01*
X0092980Y0112591D01*
X0091891Y0113680D01*
X0090469Y0114268D01*
X0088930Y0114268D01*
X0087509Y0113680D01*
X0086420Y0112591D01*
X0085831Y0111169D01*
X0085831Y0109630D01*
X0086242Y0108639D01*
X0080400Y0102797D01*
X0080400Y0081223D01*
X0079873Y0081750D01*
X0077927Y0081750D01*
X0076572Y0080395D01*
X0076572Y0083510D01*
X0076044Y0084037D01*
X0071756Y0084037D01*
X0071228Y0083510D01*
X0071228Y0081125D01*
X0070100Y0079997D01*
X0070100Y0086303D01*
X0070847Y0087050D01*
X0072473Y0087050D01*
X0073850Y0088427D01*
X0073850Y0090373D01*
X0072723Y0091500D01*
X0074497Y0091500D01*
X0075200Y0092203D01*
X0077497Y0094500D01*
X0077497Y0094500D01*
X0078200Y0095203D01*
X0078200Y0107203D01*
X0087939Y0116942D01*
X0088930Y0116531D01*
X0090469Y0116531D01*
X0091891Y0117120D01*
X0092980Y0118209D01*
X0093568Y0119630D01*
X0093568Y0121169D01*
X0092980Y0122591D01*
X0091891Y0123680D01*
X0090469Y0124268D01*
X0088930Y0124268D01*
X0087509Y0123680D01*
X0086420Y0122591D01*
X0085831Y0121169D01*
X0085831Y0119630D01*
X0086242Y0118639D01*
X0081300Y0113697D01*
X0081300Y0120303D01*
X0087939Y0126942D01*
X0088930Y0126531D01*
X0090469Y0126531D01*
X0091891Y0127120D01*
X0092980Y0128209D01*
X0093568Y0129630D01*
X0093568Y0131169D01*
X0092980Y0132591D01*
X0091891Y0133680D01*
X0090469Y0134268D01*
X0088930Y0134268D01*
X0087509Y0133680D01*
X0086420Y0132591D01*
X0085831Y0131169D01*
X0085831Y0129630D01*
X0086242Y0128639D01*
X0079603Y0122000D01*
X0079100Y0121497D01*
X0079100Y0122103D01*
X0082500Y0125503D01*
X0082500Y0133997D01*
X0081797Y0134700D01*
X0079097Y0137400D01*
X0072503Y0137400D01*
X0071800Y0136697D01*
X0070984Y0135881D01*
X0070387Y0135881D01*
X0069255Y0135412D01*
X0068500Y0134657D01*
X0067745Y0135412D01*
X0066613Y0135881D01*
X0066016Y0135881D01*
X0064497Y0137400D01*
X0057703Y0137400D01*
X0056184Y0135881D01*
X0055387Y0135881D01*
X0054255Y0135412D01*
X0053388Y0134545D01*
X0052919Y0133413D01*
X0052919Y0132187D01*
X0053388Y0131055D01*
X0054143Y0130300D01*
X0053388Y0129545D01*
X0052919Y0128413D01*
X0052919Y0127187D01*
X0053388Y0126055D01*
X0054255Y0125188D01*
X0055387Y0124719D01*
X0056613Y0124719D01*
X0057745Y0125188D01*
X0058500Y0125943D01*
X0059255Y0125188D01*
X0060387Y0124719D01*
X0061613Y0124719D01*
X0062745Y0125188D01*
X0063500Y0125943D01*
X0064255Y0125188D01*
X0065387Y0124719D01*
X0066613Y0124719D01*
X0067745Y0125188D01*
X0068500Y0125943D01*
X0069255Y0125188D01*
X0070387Y0124719D01*
X0071613Y0124719D01*
X0072745Y0125188D01*
X0073500Y0125943D01*
X0074255Y0125188D01*
X0075387Y0124719D01*
X0076613Y0124719D01*
X0077745Y0125188D01*
X0078612Y0126055D01*
X0079081Y0127187D01*
X0079081Y0128413D01*
X0078612Y0129545D01*
X0078124Y0130033D01*
X0078219Y0130096D01*
X0078704Y0130581D01*
X0079085Y0131151D01*
X0079347Y0131785D01*
X0079481Y0132457D01*
X0079481Y0132509D01*
X0076291Y0132509D01*
X0076291Y0133091D01*
X0079481Y0133091D01*
X0079481Y0133143D01*
X0079362Y0133741D01*
X0080100Y0133003D01*
X0079622Y0133481D02*
X0079414Y0133481D01*
X0079447Y0132284D02*
X0080100Y0132284D01*
X0080100Y0131686D02*
X0079306Y0131686D01*
X0079042Y0131087D02*
X0080100Y0131087D01*
X0080100Y0130489D02*
X0078612Y0130489D01*
X0078267Y0129890D02*
X0080100Y0129890D01*
X0080100Y0129292D02*
X0078717Y0129292D01*
X0078965Y0128693D02*
X0080100Y0128693D01*
X0080100Y0128095D02*
X0079081Y0128095D01*
X0079081Y0127496D02*
X0080100Y0127496D01*
X0080100Y0126898D02*
X0078961Y0126898D01*
X0078713Y0126299D02*
X0079902Y0126299D01*
X0079304Y0125701D02*
X0078258Y0125701D01*
X0078705Y0125102D02*
X0077538Y0125102D01*
X0078107Y0124504D02*
X0043850Y0124504D01*
X0043850Y0125102D02*
X0054462Y0125102D01*
X0053742Y0125701D02*
X0043423Y0125701D01*
X0043478Y0126213D02*
X0042911Y0126213D01*
X0043850Y0125273D01*
X0043850Y0123327D01*
X0043423Y0122900D01*
X0044447Y0122900D01*
X0044459Y0122912D01*
X0049141Y0122912D01*
X0049668Y0122385D01*
X0049668Y0117308D01*
X0049141Y0116781D01*
X0044459Y0116781D01*
X0043931Y0117308D01*
X0043931Y0120500D01*
X0041952Y0120500D01*
X0041965Y0120454D01*
X0041965Y0119732D01*
X0039680Y0119732D01*
X0039680Y0119731D01*
X0039680Y0121700D02*
X0044946Y0121700D01*
X0046800Y0119846D01*
X0046500Y0116619D02*
X0044660Y0116619D01*
X0044330Y0116530D01*
X0044033Y0116359D01*
X0043791Y0116117D01*
X0043620Y0115821D01*
X0043531Y0115490D01*
X0043531Y0113454D01*
X0046500Y0113454D01*
X0046500Y0116619D01*
X0046500Y0116125D02*
X0047100Y0116125D01*
X0047100Y0116619D02*
X0047100Y0113454D01*
X0046500Y0113454D01*
X0046500Y0112854D01*
X0043531Y0112854D01*
X0043531Y0110817D01*
X0043620Y0110486D01*
X0043791Y0110190D01*
X0044033Y0109948D01*
X0044330Y0109777D01*
X0044660Y0109688D01*
X0046500Y0109688D01*
X0046500Y0112853D01*
X0047100Y0112853D01*
X0047100Y0109688D01*
X0048940Y0109688D01*
X0049270Y0109777D01*
X0049567Y0109948D01*
X0049809Y0110190D01*
X0049980Y0110486D01*
X0050068Y0110817D01*
X0050068Y0112854D01*
X0047100Y0112854D01*
X0047100Y0113454D01*
X0050068Y0113454D01*
X0050068Y0115490D01*
X0049980Y0115821D01*
X0049809Y0116117D01*
X0049567Y0116359D01*
X0049270Y0116530D01*
X0048940Y0116619D01*
X0047100Y0116619D01*
X0047100Y0115526D02*
X0046500Y0115526D01*
X0046500Y0114928D02*
X0047100Y0114928D01*
X0047100Y0114329D02*
X0046500Y0114329D01*
X0046500Y0113731D02*
X0047100Y0113731D01*
X0047100Y0113132D02*
X0053700Y0113132D01*
X0053700Y0112534D02*
X0050068Y0112534D01*
X0050068Y0111935D02*
X0053700Y0111935D01*
X0053700Y0111337D02*
X0050068Y0111337D01*
X0050047Y0110738D02*
X0053700Y0110738D01*
X0053700Y0110139D02*
X0049758Y0110139D01*
X0047100Y0110139D02*
X0046500Y0110139D01*
X0046500Y0110738D02*
X0047100Y0110738D01*
X0047100Y0111337D02*
X0046500Y0111337D01*
X0046500Y0111935D02*
X0047100Y0111935D01*
X0047100Y0112534D02*
X0046500Y0112534D01*
X0046500Y0113132D02*
X0043129Y0113132D01*
X0043329Y0112534D02*
X0043531Y0112534D01*
X0043512Y0111935D02*
X0043531Y0111935D01*
X0043512Y0111337D02*
X0043531Y0111337D01*
X0043512Y0110738D02*
X0043553Y0110738D01*
X0043842Y0110139D02*
X0040346Y0110139D01*
X0040046Y0109900D02*
X0040046Y0104287D01*
X0039259Y0103500D01*
X0036159Y0100400D01*
X0023200Y0100400D01*
X0023200Y0072241D01*
X0029800Y0065641D01*
X0030865Y0064576D01*
X0035213Y0064576D01*
X0038220Y0061569D01*
X0035213Y0064576D01*
X0035213Y0064576D01*
X0040489Y0059300D01*
X0042000Y0059300D01*
X0048400Y0059300D01*
X0051400Y0062300D01*
X0064000Y0062300D01*
X0066200Y0064500D01*
X0066200Y0067724D01*
X0068619Y0070144D01*
X0068619Y0070143D01*
X0065612Y0067136D01*
X0068619Y0070144D01*
X0071627Y0073151D01*
X0068620Y0070144D01*
X0068619Y0070144D01*
X0073900Y0075424D01*
X0073900Y0076641D01*
X0074200Y0076941D02*
X0073600Y0076941D01*
X0073600Y0079319D01*
X0072816Y0079319D01*
X0072978Y0079481D01*
X0076044Y0079481D01*
X0076550Y0079987D01*
X0076550Y0078979D01*
X0076470Y0079059D01*
X0076173Y0079230D01*
X0075843Y0079319D01*
X0074200Y0079319D01*
X0074200Y0076941D01*
X0074200Y0077221D02*
X0073600Y0077221D01*
X0073600Y0077820D02*
X0074200Y0077820D01*
X0074200Y0078418D02*
X0073600Y0078418D01*
X0073600Y0079017D02*
X0074200Y0079017D01*
X0074200Y0076341D02*
X0074200Y0073997D01*
X0073103Y0072900D01*
X0072103Y0072900D01*
X0071990Y0072787D01*
X0071627Y0073151D01*
X0071088Y0073689D01*
X0071082Y0073693D01*
X0071097Y0073708D01*
X0071509Y0074120D01*
X0071627Y0074052D01*
X0071957Y0073963D01*
X0073600Y0073963D01*
X0073600Y0076341D01*
X0074200Y0076341D01*
X0074200Y0076024D02*
X0073600Y0076024D01*
X0073600Y0075426D02*
X0074200Y0075426D01*
X0074200Y0074827D02*
X0073600Y0074827D01*
X0073600Y0074229D02*
X0074200Y0074229D01*
X0073833Y0073630D02*
X0071147Y0073630D01*
X0071508Y0073032D02*
X0071508Y0073032D01*
X0071745Y0073032D02*
X0073235Y0073032D01*
X0073600Y0071700D02*
X0072600Y0071700D01*
X0070700Y0069800D01*
X0070700Y0069440D01*
X0070011Y0068752D01*
X0071403Y0067360D02*
X0079100Y0075056D01*
X0079100Y0075900D01*
X0076700Y0074800D02*
X0073600Y0071700D01*
X0070909Y0072433D02*
X0070909Y0072433D01*
X0070311Y0071835D02*
X0070310Y0071835D01*
X0069712Y0071236D02*
X0069712Y0071236D01*
X0069114Y0070638D02*
X0069113Y0070638D01*
X0068515Y0070039D02*
X0068515Y0070039D01*
X0067917Y0069441D02*
X0067916Y0069441D01*
X0067318Y0068842D02*
X0067318Y0068842D01*
X0066720Y0068244D02*
X0066719Y0068244D01*
X0066121Y0067645D02*
X0066121Y0067645D01*
X0065702Y0067047D02*
X0065500Y0067047D01*
X0065500Y0066448D02*
X0066410Y0066448D01*
X0065500Y0065850D02*
X0067465Y0065850D01*
X0068063Y0065251D02*
X0065500Y0065251D01*
X0064950Y0064653D02*
X0068662Y0064653D01*
X0069260Y0064054D02*
X0064351Y0064054D01*
X0063753Y0063456D02*
X0069859Y0063456D01*
X0070457Y0062857D02*
X0049880Y0062857D01*
X0049282Y0062259D02*
X0071056Y0062259D01*
X0071654Y0061660D02*
X0044257Y0061660D01*
X0044856Y0062259D02*
X0046718Y0062259D01*
X0046120Y0062857D02*
X0045454Y0062857D01*
X0045200Y0064300D02*
X0048000Y0064300D01*
X0062900Y0064300D01*
X0064300Y0065700D01*
X0064300Y0068608D01*
X0067227Y0071536D01*
X0070600Y0074908D01*
X0070600Y0078800D01*
X0073559Y0081759D01*
X0073900Y0081759D01*
X0076179Y0079615D02*
X0076550Y0079615D01*
X0076550Y0079017D02*
X0076512Y0079017D01*
X0076700Y0077200D02*
X0078900Y0079400D01*
X0077588Y0081411D02*
X0076572Y0081411D01*
X0076572Y0082009D02*
X0080400Y0082009D01*
X0080400Y0081411D02*
X0080212Y0081411D01*
X0080400Y0082608D02*
X0076572Y0082608D01*
X0076572Y0083206D02*
X0080400Y0083206D01*
X0080400Y0083805D02*
X0076276Y0083805D01*
X0076572Y0080812D02*
X0076989Y0080812D01*
X0076700Y0077200D02*
X0076700Y0074800D01*
X0081348Y0070039D02*
X0085831Y0070039D01*
X0085831Y0069630D02*
X0085831Y0071169D01*
X0086420Y0072591D01*
X0087509Y0073680D01*
X0088930Y0074268D01*
X0090469Y0074268D01*
X0091891Y0073680D01*
X0092980Y0072591D01*
X0093568Y0071169D01*
X0093568Y0069630D01*
X0092980Y0068209D01*
X0091891Y0067120D01*
X0090469Y0066531D01*
X0088930Y0066531D01*
X0087939Y0066942D01*
X0082100Y0061103D01*
X0081660Y0060663D01*
X0082950Y0059373D01*
X0082950Y0057427D01*
X0081623Y0056100D01*
X0081850Y0055873D01*
X0081850Y0054247D01*
X0086242Y0058639D01*
X0085831Y0059630D01*
X0085831Y0061169D01*
X0086420Y0062591D01*
X0087509Y0063680D01*
X0088930Y0064268D01*
X0090469Y0064268D01*
X0091891Y0063680D01*
X0092980Y0062591D01*
X0093568Y0061169D01*
X0093568Y0059630D01*
X0092980Y0058209D01*
X0091891Y0057120D01*
X0090469Y0056531D01*
X0088930Y0056531D01*
X0087939Y0056942D01*
X0080997Y0050000D01*
X0085831Y0050000D01*
X0085831Y0051169D01*
X0086420Y0052591D01*
X0087509Y0053680D01*
X0088930Y0054268D01*
X0090469Y0054268D01*
X0091891Y0053680D01*
X0092980Y0052591D01*
X0093568Y0051169D01*
X0093568Y0049630D01*
X0092980Y0048209D01*
X0091891Y0047120D01*
X0090469Y0046531D01*
X0088930Y0046531D01*
X0087509Y0047120D01*
X0087029Y0047600D01*
X0084197Y0047600D01*
X0087939Y0043858D01*
X0088930Y0044268D01*
X0090469Y0044268D01*
X0091891Y0043680D01*
X0092980Y0042591D01*
X0093568Y0041169D01*
X0093568Y0039630D01*
X0092980Y0038209D01*
X0091891Y0037120D01*
X0090469Y0036531D01*
X0088930Y0036531D01*
X0087509Y0037120D01*
X0086420Y0038209D01*
X0085831Y0039630D01*
X0085831Y0041169D01*
X0086242Y0042161D01*
X0082203Y0046200D01*
X0078097Y0046200D01*
X0090029Y0034268D01*
X0090469Y0034268D01*
X0091891Y0033680D01*
X0092980Y0032591D01*
X0093568Y0031169D01*
X0093568Y0029630D01*
X0092980Y0028209D01*
X0091891Y0027120D01*
X0090469Y0026531D01*
X0088930Y0026531D01*
X0087509Y0027120D01*
X0086420Y0028209D01*
X0085831Y0029630D01*
X0085831Y0031169D01*
X0086420Y0032591D01*
X0087366Y0033537D01*
X0076103Y0044800D01*
X0070605Y0044800D01*
X0072497Y0042908D01*
X0073200Y0042205D01*
X0073200Y0040837D01*
X0074144Y0040837D01*
X0074250Y0040731D01*
X0074356Y0040837D01*
X0078644Y0040837D01*
X0079172Y0040310D01*
X0079172Y0037584D01*
X0079897Y0036859D01*
X0080600Y0036156D01*
X0080600Y0028603D01*
X0080425Y0028428D01*
X0080812Y0028041D01*
X0080812Y0023359D01*
X0080285Y0022831D01*
X0075208Y0022831D01*
X0074681Y0023359D01*
X0074681Y0028041D01*
X0075208Y0028568D01*
X0077171Y0028568D01*
X0077249Y0028646D01*
X0078200Y0029597D01*
X0078200Y0031163D01*
X0074356Y0031163D01*
X0074250Y0031269D01*
X0074144Y0031163D01*
X0069856Y0031163D01*
X0069487Y0031531D01*
X0068172Y0030216D01*
X0068172Y0028756D01*
X0068386Y0028880D01*
X0068717Y0028968D01*
X0070754Y0028968D01*
X0070754Y0026000D01*
X0071354Y0026000D01*
X0074519Y0026000D01*
X0074519Y0027840D01*
X0074430Y0028170D01*
X0074259Y0028467D01*
X0074017Y0028709D01*
X0073721Y0028880D01*
X0073390Y0028968D01*
X0071354Y0028968D01*
X0071354Y0026000D01*
X0071354Y0025400D01*
X0074519Y0025400D01*
X0074519Y0023560D01*
X0074430Y0023230D01*
X0074259Y0022933D01*
X0074017Y0022691D01*
X0073721Y0022520D01*
X0073390Y0022431D01*
X0071354Y0022431D01*
X0071354Y0025400D01*
X0070754Y0025400D01*
X0070754Y0022431D01*
X0068717Y0022431D01*
X0068386Y0022520D01*
X0068090Y0022691D01*
X0068012Y0022769D01*
X0068012Y0018659D01*
X0067485Y0018131D01*
X0066146Y0018131D01*
X0066146Y0015168D01*
X0067485Y0015168D01*
X0068012Y0014641D01*
X0068012Y0009959D01*
X0067485Y0009431D01*
X0062408Y0009431D01*
X0061881Y0009959D01*
X0061881Y0014641D01*
X0062408Y0015168D01*
X0063746Y0015168D01*
X0063746Y0018131D01*
X0062408Y0018131D01*
X0061881Y0018659D01*
X0061881Y0023341D01*
X0062408Y0023868D01*
X0064300Y0023868D01*
X0064300Y0026963D01*
X0063356Y0026963D01*
X0062900Y0027419D01*
X0062444Y0026963D01*
X0058156Y0026963D01*
X0057628Y0027490D01*
X0057628Y0027905D01*
X0056473Y0026750D01*
X0054527Y0026750D01*
X0053286Y0027991D01*
X0053286Y0025337D01*
X0055235Y0023388D01*
X0055715Y0023868D01*
X0060792Y0023868D01*
X0061319Y0023341D01*
X0061319Y0018659D01*
X0060792Y0018131D01*
X0055715Y0018131D01*
X0055188Y0018659D01*
X0055188Y0020041D01*
X0054726Y0020503D01*
X0052764Y0022465D01*
X0052759Y0022459D01*
X0046895Y0022459D01*
X0046368Y0022986D01*
X0046368Y0031171D01*
X0044600Y0029403D01*
X0044600Y0019097D01*
X0046368Y0017329D01*
X0046368Y0018614D01*
X0046895Y0019141D01*
X0052759Y0019141D01*
X0053286Y0018614D01*
X0053286Y0013500D01*
X0055188Y0013500D01*
X0055188Y0014641D01*
X0055715Y0015168D01*
X0060792Y0015168D01*
X0061319Y0014641D01*
X0061319Y0009959D01*
X0060792Y0009431D01*
X0055715Y0009431D01*
X0055188Y0009959D01*
X0055188Y0011100D01*
X0053286Y0011100D01*
X0053286Y0010388D01*
X0052759Y0009861D01*
X0046895Y0009861D01*
X0046368Y0010388D01*
X0046368Y0013935D01*
X0046299Y0014004D01*
X0042200Y0018103D01*
X0042200Y0030397D01*
X0042903Y0031100D01*
X0042903Y0031100D01*
X0053600Y0041797D01*
X0053600Y0041881D01*
X0049227Y0037507D01*
X0048481Y0037507D01*
X0047119Y0038870D01*
X0047119Y0038899D01*
X0047089Y0038899D01*
X0045727Y0040262D01*
X0045727Y0040291D01*
X0045697Y0040291D01*
X0044335Y0041654D01*
X0044335Y0041683D01*
X0044305Y0041683D01*
X0044072Y0041917D01*
X0044072Y0040759D01*
X0041300Y0040759D01*
X0041300Y0040159D01*
X0041300Y0037781D01*
X0042943Y0037781D01*
X0043273Y0037870D01*
X0043570Y0038041D01*
X0043812Y0038283D01*
X0043983Y0038579D01*
X0044072Y0038910D01*
X0044072Y0040159D01*
X0041300Y0040159D01*
X0040700Y0040159D01*
X0040700Y0037781D01*
X0039057Y0037781D01*
X0038727Y0037870D01*
X0038430Y0038041D01*
X0038188Y0038283D01*
X0038173Y0038309D01*
X0038044Y0038181D01*
X0033756Y0038181D01*
X0033600Y0038337D01*
X0033600Y0037463D01*
X0033756Y0037619D01*
X0038044Y0037619D01*
X0038450Y0037213D01*
X0038856Y0037619D01*
X0043144Y0037619D01*
X0043672Y0037092D01*
X0043672Y0033590D01*
X0043144Y0033063D01*
X0038856Y0033063D01*
X0038450Y0033469D01*
X0038044Y0033063D01*
X0033756Y0033063D01*
X0033228Y0033590D01*
X0033228Y0034141D01*
X0033162Y0034141D01*
X0032459Y0034844D01*
X0031200Y0036103D01*
X0031200Y0042897D01*
X0031903Y0043600D01*
X0035503Y0047200D01*
X0038411Y0047200D01*
X0038600Y0047389D01*
X0037375Y0048613D01*
X0037375Y0048643D01*
X0037346Y0048643D01*
X0035983Y0050005D01*
X0035983Y0050035D01*
X0035954Y0050035D01*
X0034729Y0051259D01*
X0033373Y0049903D01*
X0032670Y0049200D01*
X0025890Y0049200D01*
X0025480Y0048209D01*
X0024391Y0047120D01*
X0022969Y0046531D01*
X0021430Y0046531D01*
X0020009Y0047120D01*
X0018920Y0048209D01*
X0018331Y0049630D01*
X0018331Y0051169D01*
X0018920Y0052591D01*
X0020009Y0053680D01*
X0021430Y0054268D01*
X0022969Y0054268D01*
X0024391Y0053680D01*
X0025480Y0052591D01*
X0025890Y0051600D01*
X0031675Y0051600D01*
X0033032Y0052956D01*
X0031807Y0054181D01*
X0031807Y0054927D01*
X0033310Y0056430D01*
X0030540Y0059200D01*
X0025890Y0059200D01*
X0025480Y0058209D01*
X0024391Y0057120D01*
X0022969Y0056531D01*
X0021430Y0056531D01*
X0020009Y0057120D01*
X0018920Y0058209D01*
X0018331Y0059630D01*
X0018331Y0061169D01*
X0018920Y0062591D01*
X0020009Y0063680D01*
X0021430Y0064268D01*
X0022969Y0064268D01*
X0024391Y0063680D01*
X0025480Y0062591D01*
X0025890Y0061600D01*
X0031534Y0061600D01*
X0035007Y0058127D01*
X0036510Y0059630D01*
X0037256Y0059630D01*
X0038618Y0058267D01*
X0038618Y0058238D01*
X0038648Y0058238D01*
X0040010Y0056875D01*
X0040010Y0056846D01*
X0040040Y0056846D01*
X0041394Y0055491D01*
X0043900Y0057997D01*
X0044603Y0058700D01*
X0051077Y0058700D01*
X0052227Y0059850D01*
X0054173Y0059850D01*
X0055550Y0058473D01*
X0055550Y0056527D01*
X0055223Y0056200D01*
X0056421Y0056200D01*
X0057124Y0055497D01*
X0057124Y0055497D01*
X0062568Y0050053D01*
X0063792Y0051278D01*
X0063822Y0051278D01*
X0063822Y0051308D01*
X0065184Y0052670D01*
X0065214Y0052670D01*
X0065214Y0052700D01*
X0066576Y0054062D01*
X0066606Y0054062D01*
X0066606Y0054091D01*
X0067968Y0055454D01*
X0067998Y0055454D01*
X0067998Y0055483D01*
X0069360Y0056846D01*
X0069390Y0056846D01*
X0069390Y0056875D01*
X0070752Y0058238D01*
X0070782Y0058238D01*
X0070782Y0058267D01*
X0072144Y0059630D01*
X0072890Y0059630D01*
X0074393Y0058127D01*
X0075866Y0059600D01*
X0076577Y0059600D01*
X0075550Y0060627D01*
X0075550Y0062573D01*
X0076927Y0063950D01*
X0078873Y0063950D01*
X0080023Y0062800D01*
X0080403Y0062800D01*
X0086242Y0068639D01*
X0085831Y0069630D01*
X0085910Y0069441D02*
X0080749Y0069441D01*
X0080151Y0068842D02*
X0086158Y0068842D01*
X0085847Y0068244D02*
X0079552Y0068244D01*
X0078954Y0067645D02*
X0085248Y0067645D01*
X0084650Y0067047D02*
X0078355Y0067047D01*
X0077757Y0066448D02*
X0084051Y0066448D01*
X0083453Y0065850D02*
X0077569Y0065850D01*
X0076970Y0065251D02*
X0082854Y0065251D01*
X0082256Y0064653D02*
X0076372Y0064653D01*
X0075773Y0064054D02*
X0081657Y0064054D01*
X0081059Y0063456D02*
X0079368Y0063456D01*
X0079966Y0062857D02*
X0080460Y0062857D01*
X0080900Y0061600D02*
X0077900Y0061600D01*
X0075550Y0061660D02*
X0073379Y0061660D01*
X0073978Y0062259D02*
X0075550Y0062259D01*
X0075834Y0062857D02*
X0074576Y0062857D01*
X0075175Y0063456D02*
X0076432Y0063456D01*
X0075550Y0061062D02*
X0037713Y0061062D01*
X0038128Y0061660D02*
X0038129Y0061660D01*
X0038311Y0061660D02*
X0039215Y0061660D01*
X0040173Y0062400D02*
X0043300Y0062400D01*
X0045200Y0064300D01*
X0044570Y0058668D02*
X0038218Y0058668D01*
X0037620Y0059266D02*
X0051643Y0059266D01*
X0053200Y0057500D02*
X0045100Y0057500D01*
X0039648Y0052048D01*
X0039389Y0052048D01*
X0042173Y0049264D02*
X0044700Y0051792D01*
X0044700Y0054200D01*
X0045500Y0055000D01*
X0049908Y0055000D01*
X0055924Y0055000D01*
X0064444Y0046481D01*
X0069100Y0041824D01*
X0069100Y0033500D01*
X0069100Y0032841D01*
X0065500Y0029241D01*
X0065500Y0021554D01*
X0064946Y0021000D01*
X0064946Y0012300D01*
X0061881Y0012582D02*
X0061319Y0012582D01*
X0061319Y0011984D02*
X0061881Y0011984D01*
X0061881Y0011385D02*
X0061319Y0011385D01*
X0061319Y0010787D02*
X0061881Y0010787D01*
X0061881Y0010188D02*
X0061319Y0010188D01*
X0060950Y0009590D02*
X0062250Y0009590D01*
X0061881Y0013181D02*
X0061319Y0013181D01*
X0061319Y0013779D02*
X0061881Y0013779D01*
X0061881Y0014378D02*
X0061319Y0014378D01*
X0060984Y0014976D02*
X0062216Y0014976D01*
X0063746Y0015575D02*
X0053286Y0015575D01*
X0053286Y0016173D02*
X0063746Y0016173D01*
X0063746Y0016772D02*
X0053286Y0016772D01*
X0053286Y0017370D02*
X0063746Y0017370D01*
X0063746Y0017969D02*
X0053286Y0017969D01*
X0053286Y0018567D02*
X0055280Y0018567D01*
X0055188Y0019166D02*
X0044600Y0019166D01*
X0044600Y0019764D02*
X0055188Y0019764D01*
X0054866Y0020363D02*
X0044600Y0020363D01*
X0044600Y0020961D02*
X0054268Y0020961D01*
X0053669Y0021560D02*
X0044600Y0021560D01*
X0044600Y0022158D02*
X0053071Y0022158D01*
X0054071Y0024552D02*
X0064300Y0024552D01*
X0064300Y0023954D02*
X0054669Y0023954D01*
X0053472Y0025151D02*
X0064300Y0025151D01*
X0064300Y0025749D02*
X0053286Y0025749D01*
X0053286Y0026348D02*
X0064300Y0026348D01*
X0064300Y0026946D02*
X0056670Y0026946D01*
X0057268Y0027545D02*
X0057628Y0027545D01*
X0055500Y0029100D02*
X0055500Y0029559D01*
X0060300Y0034359D01*
X0065500Y0034359D01*
X0067600Y0036459D01*
X0067600Y0040540D01*
X0063052Y0045089D01*
X0061660Y0043697D02*
X0064900Y0040456D01*
X0064900Y0039000D01*
X0069100Y0033500D02*
X0071941Y0033500D01*
X0072000Y0033441D01*
X0076500Y0033441D01*
X0078200Y0031136D02*
X0069092Y0031136D01*
X0068494Y0030537D02*
X0078200Y0030537D01*
X0078200Y0029939D02*
X0068172Y0029939D01*
X0068172Y0029340D02*
X0077943Y0029340D01*
X0077345Y0028742D02*
X0073960Y0028742D01*
X0074437Y0028143D02*
X0074783Y0028143D01*
X0074681Y0027545D02*
X0074519Y0027545D01*
X0074519Y0026946D02*
X0074681Y0026946D01*
X0074681Y0026348D02*
X0074519Y0026348D01*
X0074681Y0025749D02*
X0071354Y0025749D01*
X0071354Y0025151D02*
X0070754Y0025151D01*
X0070753Y0025400D02*
X0067588Y0025400D01*
X0067588Y0023765D01*
X0067485Y0023868D01*
X0066700Y0023868D01*
X0066700Y0026963D01*
X0067588Y0026963D01*
X0067588Y0026000D01*
X0070753Y0026000D01*
X0070753Y0025400D01*
X0070753Y0025749D02*
X0066700Y0025749D01*
X0066700Y0025151D02*
X0067588Y0025151D01*
X0067588Y0024552D02*
X0066700Y0024552D01*
X0066700Y0023954D02*
X0067588Y0023954D01*
X0068012Y0022757D02*
X0068024Y0022757D01*
X0068012Y0022158D02*
X0086241Y0022158D01*
X0086420Y0022591D02*
X0085831Y0021169D01*
X0085831Y0019630D01*
X0086420Y0018209D01*
X0087509Y0017120D01*
X0088930Y0016531D01*
X0090469Y0016531D01*
X0091891Y0017120D01*
X0092980Y0018209D01*
X0093568Y0019630D01*
X0093568Y0021169D01*
X0092980Y0022591D01*
X0091891Y0023680D01*
X0090469Y0024268D01*
X0088930Y0024268D01*
X0087509Y0023680D01*
X0086420Y0022591D01*
X0086586Y0022757D02*
X0074083Y0022757D01*
X0074464Y0023355D02*
X0074684Y0023355D01*
X0074681Y0023954D02*
X0074519Y0023954D01*
X0074519Y0024552D02*
X0074681Y0024552D01*
X0074681Y0025151D02*
X0074519Y0025151D01*
X0077746Y0025700D02*
X0077746Y0027446D01*
X0079400Y0029100D01*
X0079400Y0035659D01*
X0076500Y0038559D01*
X0072000Y0038559D01*
X0072000Y0041708D01*
X0065836Y0047873D01*
X0067227Y0049264D02*
X0070492Y0046000D01*
X0076600Y0046000D01*
X0089700Y0032900D01*
X0089700Y0030400D01*
X0092316Y0027545D02*
X0093800Y0027545D01*
X0093800Y0028143D02*
X0092914Y0028143D01*
X0093200Y0028742D02*
X0093800Y0028742D01*
X0093800Y0029340D02*
X0093448Y0029340D01*
X0093568Y0029939D02*
X0093800Y0029939D01*
X0093800Y0030537D02*
X0093568Y0030537D01*
X0093568Y0031136D02*
X0093800Y0031136D01*
X0093800Y0031734D02*
X0093334Y0031734D01*
X0093087Y0032333D02*
X0093800Y0032333D01*
X0093800Y0032932D02*
X0092639Y0032932D01*
X0092041Y0033530D02*
X0093800Y0033530D01*
X0093800Y0034129D02*
X0090807Y0034129D01*
X0089570Y0034727D02*
X0093800Y0034727D01*
X0093800Y0035326D02*
X0088971Y0035326D01*
X0088373Y0035924D02*
X0093800Y0035924D01*
X0093800Y0036523D02*
X0087774Y0036523D01*
X0087508Y0037121D02*
X0087176Y0037121D01*
X0086909Y0037720D02*
X0086577Y0037720D01*
X0086375Y0038318D02*
X0085979Y0038318D01*
X0086127Y0038917D02*
X0085380Y0038917D01*
X0085879Y0039515D02*
X0084782Y0039515D01*
X0084183Y0040114D02*
X0085831Y0040114D01*
X0085831Y0040712D02*
X0083585Y0040712D01*
X0082986Y0041311D02*
X0085890Y0041311D01*
X0086138Y0041909D02*
X0082388Y0041909D01*
X0081789Y0042508D02*
X0085895Y0042508D01*
X0085297Y0043106D02*
X0081191Y0043106D01*
X0080592Y0043705D02*
X0084698Y0043705D01*
X0084100Y0044303D02*
X0079994Y0044303D01*
X0079395Y0044902D02*
X0083501Y0044902D01*
X0082903Y0045500D02*
X0078797Y0045500D01*
X0078198Y0046099D02*
X0082304Y0046099D01*
X0082700Y0047400D02*
X0089700Y0040400D01*
X0092465Y0043106D02*
X0093800Y0043106D01*
X0093800Y0042508D02*
X0093014Y0042508D01*
X0093262Y0041909D02*
X0093800Y0041909D01*
X0093800Y0041311D02*
X0093510Y0041311D01*
X0093568Y0040712D02*
X0093800Y0040712D01*
X0093800Y0040114D02*
X0093568Y0040114D01*
X0093521Y0039515D02*
X0093800Y0039515D01*
X0093800Y0038917D02*
X0093273Y0038917D01*
X0093025Y0038318D02*
X0093800Y0038318D01*
X0093800Y0037720D02*
X0092491Y0037720D01*
X0091892Y0037121D02*
X0093800Y0037121D01*
X0093800Y0043705D02*
X0091831Y0043705D01*
X0093800Y0044303D02*
X0087494Y0044303D01*
X0086895Y0044902D02*
X0093800Y0044902D01*
X0093800Y0045500D02*
X0086297Y0045500D01*
X0085698Y0046099D02*
X0093800Y0046099D01*
X0093800Y0046697D02*
X0090870Y0046697D01*
X0092067Y0047296D02*
X0093800Y0047296D01*
X0093800Y0047894D02*
X0092665Y0047894D01*
X0093097Y0048493D02*
X0093800Y0048493D01*
X0093800Y0049091D02*
X0093345Y0049091D01*
X0093568Y0049690D02*
X0093800Y0049690D01*
X0093800Y0050288D02*
X0093568Y0050288D01*
X0093568Y0050887D02*
X0093800Y0050887D01*
X0093800Y0051485D02*
X0093438Y0051485D01*
X0093190Y0052084D02*
X0093800Y0052084D01*
X0093800Y0052682D02*
X0092888Y0052682D01*
X0092290Y0053281D02*
X0093800Y0053281D01*
X0093800Y0053879D02*
X0091409Y0053879D01*
X0091291Y0056872D02*
X0093800Y0056872D01*
X0093800Y0057470D02*
X0092241Y0057470D01*
X0092840Y0058069D02*
X0093800Y0058069D01*
X0093800Y0058668D02*
X0093170Y0058668D01*
X0093418Y0059266D02*
X0093800Y0059266D01*
X0093800Y0059865D02*
X0093568Y0059865D01*
X0093568Y0060463D02*
X0093800Y0060463D01*
X0093800Y0061062D02*
X0093568Y0061062D01*
X0093365Y0061660D02*
X0093800Y0061660D01*
X0093800Y0062259D02*
X0093117Y0062259D01*
X0092714Y0062857D02*
X0093800Y0062857D01*
X0093800Y0063456D02*
X0092115Y0063456D01*
X0090987Y0064054D02*
X0093800Y0064054D01*
X0093800Y0064653D02*
X0085650Y0064653D01*
X0086248Y0065251D02*
X0093800Y0065251D01*
X0093800Y0065850D02*
X0086847Y0065850D01*
X0087445Y0066448D02*
X0093800Y0066448D01*
X0093800Y0067047D02*
X0091713Y0067047D01*
X0092416Y0067645D02*
X0093800Y0067645D01*
X0093800Y0068244D02*
X0092994Y0068244D01*
X0093242Y0068842D02*
X0093800Y0068842D01*
X0093800Y0069441D02*
X0093490Y0069441D01*
X0093568Y0070039D02*
X0093800Y0070039D01*
X0093800Y0070638D02*
X0093568Y0070638D01*
X0093541Y0071236D02*
X0093800Y0071236D01*
X0093800Y0071835D02*
X0093293Y0071835D01*
X0093045Y0072433D02*
X0093800Y0072433D01*
X0093800Y0073032D02*
X0092539Y0073032D01*
X0091941Y0073630D02*
X0093800Y0073630D01*
X0093800Y0074229D02*
X0090565Y0074229D01*
X0088835Y0074229D02*
X0084600Y0074229D01*
X0084600Y0074827D02*
X0093800Y0074827D01*
X0093800Y0075426D02*
X0084600Y0075426D01*
X0084600Y0076024D02*
X0093800Y0076024D01*
X0093800Y0076623D02*
X0090690Y0076623D01*
X0090469Y0076531D02*
X0091891Y0077120D01*
X0092980Y0078209D01*
X0093568Y0079630D01*
X0093568Y0081169D01*
X0092980Y0082591D01*
X0091891Y0083680D01*
X0090469Y0084268D01*
X0088930Y0084268D01*
X0087509Y0083680D01*
X0086420Y0082591D01*
X0085831Y0081169D01*
X0085831Y0079630D01*
X0086420Y0078209D01*
X0087509Y0077120D01*
X0088930Y0076531D01*
X0090469Y0076531D01*
X0088710Y0076623D02*
X0084600Y0076623D01*
X0084600Y0077221D02*
X0087408Y0077221D01*
X0086809Y0077820D02*
X0084600Y0077820D01*
X0084600Y0078418D02*
X0086334Y0078418D01*
X0086086Y0079017D02*
X0084600Y0079017D01*
X0084600Y0079615D02*
X0085838Y0079615D01*
X0085831Y0080214D02*
X0084600Y0080214D01*
X0084600Y0080812D02*
X0085831Y0080812D01*
X0085932Y0081411D02*
X0084600Y0081411D01*
X0084600Y0082009D02*
X0086179Y0082009D01*
X0086437Y0082608D02*
X0084600Y0082608D01*
X0084600Y0083206D02*
X0087036Y0083206D01*
X0087811Y0083805D02*
X0084600Y0083805D01*
X0084600Y0084403D02*
X0093800Y0084403D01*
X0093800Y0083805D02*
X0091589Y0083805D01*
X0092364Y0083206D02*
X0093800Y0083206D01*
X0093800Y0082608D02*
X0092963Y0082608D01*
X0093221Y0082009D02*
X0093800Y0082009D01*
X0093800Y0081411D02*
X0093468Y0081411D01*
X0093568Y0080812D02*
X0093800Y0080812D01*
X0093800Y0080214D02*
X0093568Y0080214D01*
X0093562Y0079615D02*
X0093800Y0079615D01*
X0093800Y0079017D02*
X0093314Y0079017D01*
X0093066Y0078418D02*
X0093800Y0078418D01*
X0093800Y0077820D02*
X0092591Y0077820D01*
X0091992Y0077221D02*
X0093800Y0077221D01*
X0089700Y0070400D02*
X0080900Y0061600D01*
X0082059Y0061062D02*
X0085831Y0061062D01*
X0085831Y0060463D02*
X0081860Y0060463D01*
X0082459Y0059865D02*
X0085831Y0059865D01*
X0085982Y0059266D02*
X0082950Y0059266D01*
X0082950Y0058668D02*
X0086230Y0058668D01*
X0085672Y0058069D02*
X0082950Y0058069D01*
X0082950Y0057470D02*
X0085073Y0057470D01*
X0084475Y0056872D02*
X0082395Y0056872D01*
X0081797Y0056273D02*
X0083876Y0056273D01*
X0083278Y0055675D02*
X0081850Y0055675D01*
X0081850Y0055076D02*
X0082679Y0055076D01*
X0082081Y0054478D02*
X0081850Y0054478D01*
X0079500Y0054900D02*
X0076900Y0052300D01*
X0075327Y0052300D01*
X0072795Y0054832D01*
X0074187Y0056224D02*
X0076363Y0058400D01*
X0080600Y0058400D01*
X0082657Y0061660D02*
X0086035Y0061660D01*
X0086283Y0062259D02*
X0083256Y0062259D01*
X0083854Y0062857D02*
X0086686Y0062857D01*
X0087285Y0063456D02*
X0084453Y0063456D01*
X0085051Y0064054D02*
X0088413Y0064054D01*
X0089700Y0060400D02*
X0079600Y0050300D01*
X0074544Y0050300D01*
X0071403Y0053440D01*
X0070011Y0052048D02*
X0073260Y0048800D01*
X0088100Y0048800D01*
X0089700Y0050400D01*
X0087991Y0053879D02*
X0084876Y0053879D01*
X0084278Y0053281D02*
X0087110Y0053281D01*
X0086512Y0052682D02*
X0083679Y0052682D01*
X0083081Y0052084D02*
X0086210Y0052084D01*
X0085962Y0051485D02*
X0082482Y0051485D01*
X0081884Y0050887D02*
X0085831Y0050887D01*
X0085831Y0050288D02*
X0081285Y0050288D01*
X0082700Y0047400D02*
X0071876Y0047400D01*
X0068619Y0050656D01*
X0065795Y0053281D02*
X0059340Y0053281D01*
X0058742Y0053879D02*
X0066394Y0053879D01*
X0066992Y0054478D02*
X0058143Y0054478D01*
X0057545Y0055076D02*
X0067591Y0055076D01*
X0068189Y0055675D02*
X0056946Y0055675D01*
X0055550Y0056872D02*
X0069390Y0056872D01*
X0069985Y0057470D02*
X0055550Y0057470D01*
X0055550Y0058069D02*
X0070583Y0058069D01*
X0071182Y0058668D02*
X0055356Y0058668D01*
X0054757Y0059266D02*
X0071780Y0059266D01*
X0073253Y0059266D02*
X0075532Y0059266D01*
X0074934Y0058668D02*
X0073852Y0058668D01*
X0075714Y0060463D02*
X0032671Y0060463D01*
X0033269Y0059865D02*
X0076312Y0059865D01*
X0074187Y0064576D02*
X0083400Y0073789D01*
X0083400Y0094100D01*
X0089700Y0100400D01*
X0092342Y0097571D02*
X0093800Y0097571D01*
X0093800Y0098169D02*
X0092940Y0098169D01*
X0093211Y0098768D02*
X0093800Y0098768D01*
X0093800Y0099366D02*
X0093459Y0099366D01*
X0093568Y0099965D02*
X0093800Y0099965D01*
X0093800Y0100563D02*
X0093568Y0100563D01*
X0093568Y0101162D02*
X0093800Y0101162D01*
X0093800Y0101760D02*
X0093324Y0101760D01*
X0093076Y0102359D02*
X0093800Y0102359D01*
X0093800Y0102957D02*
X0092614Y0102957D01*
X0092015Y0103556D02*
X0093800Y0103556D01*
X0093800Y0104154D02*
X0090745Y0104154D01*
X0090510Y0106548D02*
X0093800Y0106548D01*
X0093800Y0105950D02*
X0086947Y0105950D01*
X0087545Y0106548D02*
X0088890Y0106548D01*
X0088655Y0104154D02*
X0085151Y0104154D01*
X0084553Y0103556D02*
X0087385Y0103556D01*
X0086786Y0102957D02*
X0083954Y0102957D01*
X0083356Y0102359D02*
X0086324Y0102359D01*
X0086076Y0101760D02*
X0082800Y0101760D01*
X0082800Y0101162D02*
X0085831Y0101162D01*
X0085831Y0100563D02*
X0082800Y0100563D01*
X0082800Y0099965D02*
X0085831Y0099965D01*
X0085941Y0099366D02*
X0082800Y0099366D01*
X0082800Y0098768D02*
X0086189Y0098768D01*
X0085772Y0098169D02*
X0082800Y0098169D01*
X0082800Y0097571D02*
X0085174Y0097571D01*
X0084575Y0096972D02*
X0082800Y0096972D01*
X0082800Y0096374D02*
X0083977Y0096374D01*
X0083378Y0095775D02*
X0082800Y0095775D01*
X0084977Y0093980D02*
X0088233Y0093980D01*
X0088930Y0094268D02*
X0087509Y0093680D01*
X0086420Y0092591D01*
X0085831Y0091169D01*
X0085831Y0089630D01*
X0086420Y0088209D01*
X0087509Y0087120D01*
X0088930Y0086531D01*
X0090469Y0086531D01*
X0091891Y0087120D01*
X0092980Y0088209D01*
X0093568Y0089630D01*
X0093568Y0091169D01*
X0092980Y0092591D01*
X0091891Y0093680D01*
X0090469Y0094268D01*
X0088930Y0094268D01*
X0087210Y0093381D02*
X0084600Y0093381D01*
X0084600Y0092783D02*
X0086612Y0092783D01*
X0086252Y0092184D02*
X0084600Y0092184D01*
X0084600Y0091586D02*
X0086004Y0091586D01*
X0085831Y0090987D02*
X0084600Y0090987D01*
X0084600Y0090389D02*
X0085831Y0090389D01*
X0085831Y0089790D02*
X0084600Y0089790D01*
X0084600Y0089192D02*
X0086013Y0089192D01*
X0086261Y0088593D02*
X0084600Y0088593D01*
X0084600Y0087995D02*
X0086635Y0087995D01*
X0087233Y0087396D02*
X0084600Y0087396D01*
X0084600Y0086798D02*
X0088288Y0086798D01*
X0091112Y0086798D02*
X0093800Y0086798D01*
X0093800Y0087396D02*
X0092167Y0087396D01*
X0092765Y0087995D02*
X0093800Y0087995D01*
X0093800Y0088593D02*
X0093139Y0088593D01*
X0093387Y0089192D02*
X0093800Y0089192D01*
X0093800Y0089790D02*
X0093568Y0089790D01*
X0093568Y0090389D02*
X0093800Y0090389D01*
X0093800Y0090987D02*
X0093568Y0090987D01*
X0093396Y0091586D02*
X0093800Y0091586D01*
X0093800Y0092184D02*
X0093148Y0092184D01*
X0092788Y0092783D02*
X0093800Y0092783D01*
X0093800Y0093381D02*
X0092190Y0093381D01*
X0091167Y0093980D02*
X0093800Y0093980D01*
X0093800Y0094578D02*
X0085575Y0094578D01*
X0086174Y0095177D02*
X0093800Y0095177D01*
X0093800Y0095775D02*
X0086772Y0095775D01*
X0087371Y0096374D02*
X0093800Y0096374D01*
X0093800Y0096972D02*
X0091534Y0096972D01*
X0093800Y0104753D02*
X0085750Y0104753D01*
X0086348Y0105351D02*
X0093800Y0105351D01*
X0093800Y0107147D02*
X0091918Y0107147D01*
X0092516Y0107745D02*
X0093800Y0107745D01*
X0093800Y0108344D02*
X0093036Y0108344D01*
X0093283Y0108942D02*
X0093800Y0108942D01*
X0093800Y0109541D02*
X0093531Y0109541D01*
X0093568Y0110139D02*
X0093800Y0110139D01*
X0093800Y0110738D02*
X0093568Y0110738D01*
X0093499Y0111337D02*
X0093800Y0111337D01*
X0093800Y0111935D02*
X0093251Y0111935D01*
X0093003Y0112534D02*
X0093800Y0112534D01*
X0093800Y0113132D02*
X0092439Y0113132D01*
X0091768Y0113731D02*
X0093800Y0113731D01*
X0093800Y0114329D02*
X0085326Y0114329D01*
X0084728Y0113731D02*
X0087632Y0113731D01*
X0086961Y0113132D02*
X0084129Y0113132D01*
X0083531Y0112534D02*
X0086397Y0112534D01*
X0086149Y0111935D02*
X0082932Y0111935D01*
X0082334Y0111337D02*
X0085901Y0111337D01*
X0085831Y0110738D02*
X0081735Y0110738D01*
X0081137Y0110139D02*
X0085831Y0110139D01*
X0085869Y0109541D02*
X0080538Y0109541D01*
X0079939Y0108942D02*
X0086116Y0108942D01*
X0085947Y0108344D02*
X0079341Y0108344D01*
X0078742Y0107745D02*
X0085348Y0107745D01*
X0084750Y0107147D02*
X0078200Y0107147D01*
X0078200Y0106548D02*
X0084151Y0106548D01*
X0083553Y0105950D02*
X0078200Y0105950D01*
X0078200Y0105351D02*
X0082954Y0105351D01*
X0082356Y0104753D02*
X0078200Y0104753D01*
X0078200Y0104154D02*
X0081757Y0104154D01*
X0081159Y0103556D02*
X0078200Y0103556D01*
X0078200Y0102957D02*
X0080560Y0102957D01*
X0080400Y0102359D02*
X0078200Y0102359D01*
X0078200Y0101760D02*
X0080400Y0101760D01*
X0080400Y0101162D02*
X0078200Y0101162D01*
X0078200Y0100563D02*
X0080400Y0100563D01*
X0080400Y0099965D02*
X0078200Y0099965D01*
X0078200Y0099366D02*
X0080400Y0099366D01*
X0080400Y0098768D02*
X0078200Y0098768D01*
X0078200Y0098169D02*
X0080400Y0098169D01*
X0080400Y0097571D02*
X0078200Y0097571D01*
X0078200Y0096972D02*
X0080400Y0096972D01*
X0080400Y0096374D02*
X0078200Y0096374D01*
X0078200Y0095775D02*
X0080400Y0095775D01*
X0080400Y0095177D02*
X0078174Y0095177D01*
X0077575Y0094578D02*
X0080400Y0094578D01*
X0080400Y0093980D02*
X0076977Y0093980D01*
X0076378Y0093381D02*
X0080400Y0093381D01*
X0080400Y0092783D02*
X0075780Y0092783D01*
X0075200Y0092203D02*
X0075200Y0092203D01*
X0075181Y0092184D02*
X0080400Y0092184D01*
X0080400Y0091586D02*
X0074583Y0091586D01*
X0074000Y0092700D02*
X0069400Y0092700D01*
X0071500Y0089400D02*
X0068900Y0086800D01*
X0068900Y0075992D01*
X0065836Y0072927D01*
X0064444Y0074319D02*
X0066900Y0076776D01*
X0066900Y0097000D01*
X0065500Y0098400D01*
X0065500Y0102700D01*
X0064200Y0104000D01*
X0064200Y0105900D01*
X0059700Y0110400D01*
X0058146Y0113731D02*
X0057428Y0113731D01*
X0057240Y0113132D02*
X0056829Y0113132D01*
X0056641Y0112534D02*
X0056231Y0112534D01*
X0056100Y0111935D02*
X0056362Y0111935D01*
X0056114Y0111337D02*
X0056100Y0111337D01*
X0054900Y0112900D02*
X0054900Y0108300D01*
X0056900Y0106300D01*
X0061900Y0106300D01*
X0062800Y0105400D01*
X0062800Y0103600D01*
X0064300Y0102100D01*
X0064300Y0093400D01*
X0065100Y0092600D01*
X0065100Y0077760D01*
X0063052Y0075711D01*
X0060268Y0078495D02*
X0062600Y0080827D01*
X0062600Y0090300D01*
X0060000Y0094100D02*
X0060000Y0081011D01*
X0058876Y0079887D01*
X0051400Y0073500D02*
X0047740Y0077060D01*
X0047740Y0077103D01*
X0046348Y0075711D02*
X0046189Y0075711D01*
X0042400Y0079500D01*
X0045000Y0082000D02*
X0045627Y0082000D01*
X0049132Y0078495D01*
X0050524Y0079887D02*
X0051300Y0080663D01*
X0051300Y0083500D01*
X0044956Y0074319D02*
X0051776Y0067500D01*
X0061200Y0067500D01*
X0055297Y0056273D02*
X0068788Y0056273D01*
X0065214Y0052682D02*
X0059939Y0052682D01*
X0060537Y0052084D02*
X0064598Y0052084D01*
X0064000Y0051485D02*
X0061136Y0051485D01*
X0061734Y0050887D02*
X0063401Y0050887D01*
X0062803Y0050288D02*
X0062333Y0050288D01*
X0057900Y0049300D02*
X0054300Y0045700D01*
X0052527Y0045700D01*
X0049132Y0042305D01*
X0047740Y0043697D02*
X0052400Y0048356D01*
X0052400Y0048400D01*
X0049600Y0049200D02*
X0052400Y0052000D01*
X0050050Y0052084D02*
X0045900Y0052084D01*
X0045900Y0052682D02*
X0048902Y0052682D01*
X0048935Y0052650D02*
X0050050Y0052650D01*
X0050050Y0051347D01*
X0049103Y0050400D01*
X0048400Y0049697D01*
X0048400Y0049051D01*
X0047964Y0049488D01*
X0044957Y0046481D01*
X0044956Y0046481D01*
X0047963Y0049488D01*
X0047425Y0050026D01*
X0047128Y0050197D01*
X0046798Y0050286D01*
X0046600Y0050286D01*
X0045745Y0051140D01*
X0045900Y0051295D01*
X0045900Y0053703D01*
X0045997Y0053800D01*
X0047785Y0053800D01*
X0048935Y0052650D01*
X0048304Y0053281D02*
X0045900Y0053281D01*
X0045900Y0051485D02*
X0050050Y0051485D01*
X0049590Y0050887D02*
X0045999Y0050887D01*
X0046597Y0050288D02*
X0048991Y0050288D01*
X0048400Y0049690D02*
X0047761Y0049690D01*
X0047700Y0049224D02*
X0047700Y0051700D01*
X0047700Y0049224D02*
X0044956Y0046481D01*
X0044956Y0046480D01*
X0041949Y0043473D01*
X0042286Y0043137D01*
X0041300Y0043137D01*
X0041300Y0040759D01*
X0040700Y0040759D01*
X0040700Y0043137D01*
X0040526Y0043137D01*
X0041407Y0044018D01*
X0041411Y0044012D01*
X0041949Y0043473D01*
X0044956Y0046481D01*
X0041000Y0042524D01*
X0041000Y0040459D01*
X0041300Y0040712D02*
X0045276Y0040712D01*
X0044678Y0041311D02*
X0044072Y0041311D01*
X0044072Y0041909D02*
X0044079Y0041909D01*
X0044072Y0040114D02*
X0045875Y0040114D01*
X0046473Y0039515D02*
X0044072Y0039515D01*
X0044072Y0038917D02*
X0047072Y0038917D01*
X0047670Y0038318D02*
X0043832Y0038318D01*
X0043642Y0037121D02*
X0048924Y0037121D01*
X0049439Y0037720D02*
X0049523Y0037720D01*
X0050037Y0038318D02*
X0050121Y0038318D01*
X0050636Y0038917D02*
X0050720Y0038917D01*
X0051234Y0039515D02*
X0051318Y0039515D01*
X0051833Y0040114D02*
X0051917Y0040114D01*
X0052431Y0040712D02*
X0052515Y0040712D01*
X0053030Y0041311D02*
X0053114Y0041311D01*
X0054800Y0041300D02*
X0054800Y0043700D01*
X0056100Y0045000D01*
X0057573Y0045000D01*
X0060268Y0042305D01*
X0058876Y0040913D02*
X0049827Y0031864D01*
X0049827Y0027099D01*
X0055926Y0021000D01*
X0058254Y0021000D01*
X0061319Y0020961D02*
X0061881Y0020961D01*
X0061881Y0020363D02*
X0061319Y0020363D01*
X0061319Y0019764D02*
X0061881Y0019764D01*
X0061881Y0019166D02*
X0061319Y0019166D01*
X0061227Y0018567D02*
X0061973Y0018567D01*
X0061881Y0021560D02*
X0061319Y0021560D01*
X0061319Y0022158D02*
X0061881Y0022158D01*
X0061881Y0022757D02*
X0061319Y0022757D01*
X0061305Y0023355D02*
X0061895Y0023355D01*
X0060300Y0029241D02*
X0065500Y0029241D01*
X0066700Y0026946D02*
X0067588Y0026946D01*
X0067588Y0026348D02*
X0066700Y0026348D01*
X0068012Y0021560D02*
X0085993Y0021560D01*
X0085831Y0020961D02*
X0068012Y0020961D01*
X0068012Y0020363D02*
X0085831Y0020363D01*
X0085831Y0019764D02*
X0068012Y0019764D01*
X0068012Y0019166D02*
X0086024Y0019166D01*
X0086272Y0018567D02*
X0067920Y0018567D01*
X0066146Y0017969D02*
X0086660Y0017969D01*
X0087259Y0017370D02*
X0066146Y0017370D01*
X0066146Y0016772D02*
X0088351Y0016772D01*
X0088930Y0014268D02*
X0087509Y0013680D01*
X0086420Y0012591D01*
X0085831Y0011169D01*
X0085831Y0009630D01*
X0086420Y0008209D01*
X0087509Y0007120D01*
X0088930Y0006531D01*
X0090469Y0006531D01*
X0091891Y0007120D01*
X0092980Y0008209D01*
X0093568Y0009630D01*
X0093568Y0011169D01*
X0092980Y0012591D01*
X0091891Y0013680D01*
X0090469Y0014268D01*
X0088930Y0014268D01*
X0087749Y0013779D02*
X0068012Y0013779D01*
X0068012Y0013181D02*
X0087010Y0013181D01*
X0086417Y0012582D02*
X0068012Y0012582D01*
X0068012Y0011984D02*
X0086169Y0011984D01*
X0085921Y0011385D02*
X0068012Y0011385D01*
X0068012Y0010787D02*
X0085831Y0010787D01*
X0085831Y0010188D02*
X0068012Y0010188D01*
X0067643Y0009590D02*
X0085848Y0009590D01*
X0086096Y0008991D02*
X0013304Y0008991D01*
X0013552Y0009590D02*
X0055557Y0009590D01*
X0055188Y0010188D02*
X0053086Y0010188D01*
X0053286Y0010787D02*
X0055188Y0010787D01*
X0055188Y0013779D02*
X0053286Y0013779D01*
X0053286Y0014378D02*
X0055188Y0014378D01*
X0055523Y0014976D02*
X0053286Y0014976D01*
X0052028Y0012300D02*
X0058254Y0012300D01*
X0052028Y0012300D02*
X0049827Y0014501D01*
X0047499Y0014501D01*
X0043400Y0018600D01*
X0043400Y0029900D01*
X0054800Y0041300D01*
X0049600Y0048400D02*
X0046348Y0045148D01*
X0046348Y0045089D01*
X0046500Y0045240D01*
X0046500Y0045700D01*
X0045772Y0047296D02*
X0045772Y0047296D01*
X0046370Y0047894D02*
X0046370Y0047894D01*
X0046969Y0048493D02*
X0046969Y0048493D01*
X0047567Y0049091D02*
X0047567Y0049091D01*
X0048360Y0049091D02*
X0048400Y0049091D01*
X0049600Y0049200D02*
X0049600Y0048400D01*
X0045173Y0046697D02*
X0045173Y0046697D01*
X0044956Y0046481D02*
X0043176Y0044700D01*
X0043377Y0044902D02*
X0043378Y0044902D01*
X0043976Y0045500D02*
X0043976Y0045500D01*
X0044574Y0046099D02*
X0044575Y0046099D01*
X0043564Y0047873D02*
X0039992Y0044300D01*
X0037700Y0044300D01*
X0035900Y0042500D01*
X0035900Y0040459D01*
X0033619Y0038318D02*
X0033600Y0038318D01*
X0033600Y0037720D02*
X0048269Y0037720D01*
X0048326Y0036523D02*
X0043672Y0036523D01*
X0043672Y0035924D02*
X0047727Y0035924D01*
X0047129Y0035326D02*
X0043672Y0035326D01*
X0043672Y0034727D02*
X0046530Y0034727D01*
X0045932Y0034129D02*
X0043672Y0034129D01*
X0043611Y0033530D02*
X0045333Y0033530D01*
X0044734Y0032932D02*
X0017500Y0032932D01*
X0017500Y0033530D02*
X0033289Y0033530D01*
X0033228Y0034129D02*
X0017500Y0034129D01*
X0017500Y0034727D02*
X0032576Y0034727D01*
X0031977Y0035326D02*
X0017500Y0035326D01*
X0017500Y0035924D02*
X0031379Y0035924D01*
X0031200Y0036523D02*
X0017500Y0036523D01*
X0017500Y0037121D02*
X0031200Y0037121D01*
X0031200Y0037720D02*
X0017500Y0037720D01*
X0017500Y0038318D02*
X0031200Y0038318D01*
X0031200Y0038917D02*
X0017500Y0038917D01*
X0017500Y0039515D02*
X0031200Y0039515D01*
X0031200Y0040114D02*
X0017500Y0040114D01*
X0017500Y0040712D02*
X0031200Y0040712D01*
X0031200Y0041311D02*
X0017500Y0041311D01*
X0017500Y0041909D02*
X0031200Y0041909D01*
X0031200Y0042508D02*
X0017500Y0042508D01*
X0017500Y0043106D02*
X0031409Y0043106D01*
X0032008Y0043705D02*
X0017500Y0043705D01*
X0017500Y0044303D02*
X0032606Y0044303D01*
X0033205Y0044902D02*
X0017500Y0044902D01*
X0017500Y0045500D02*
X0033803Y0045500D01*
X0034402Y0046099D02*
X0017500Y0046099D01*
X0017500Y0046697D02*
X0021030Y0046697D01*
X0019833Y0047296D02*
X0017500Y0047296D01*
X0017500Y0047894D02*
X0019235Y0047894D01*
X0018803Y0048493D02*
X0017500Y0048493D01*
X0017500Y0049091D02*
X0018555Y0049091D01*
X0018331Y0049690D02*
X0017500Y0049690D01*
X0017500Y0050288D02*
X0018331Y0050288D01*
X0018331Y0050887D02*
X0017500Y0050887D01*
X0017500Y0051485D02*
X0018462Y0051485D01*
X0018710Y0052084D02*
X0017500Y0052084D01*
X0017500Y0052682D02*
X0019012Y0052682D01*
X0019610Y0053281D02*
X0017500Y0053281D01*
X0017500Y0053879D02*
X0020491Y0053879D01*
X0020609Y0056872D02*
X0017500Y0056872D01*
X0017500Y0057470D02*
X0019659Y0057470D01*
X0019060Y0058069D02*
X0017500Y0058069D01*
X0017500Y0058668D02*
X0018730Y0058668D01*
X0018482Y0059266D02*
X0017500Y0059266D01*
X0017500Y0059865D02*
X0018331Y0059865D01*
X0018331Y0060463D02*
X0017500Y0060463D01*
X0017500Y0061062D02*
X0018331Y0061062D01*
X0018535Y0061660D02*
X0017500Y0061660D01*
X0017500Y0062259D02*
X0018783Y0062259D01*
X0019186Y0062857D02*
X0017500Y0062857D01*
X0017500Y0063456D02*
X0019785Y0063456D01*
X0020913Y0064054D02*
X0017500Y0064054D01*
X0017500Y0064653D02*
X0026728Y0064653D01*
X0026728Y0065251D02*
X0017500Y0065251D01*
X0017500Y0065850D02*
X0029500Y0065850D01*
X0029500Y0066448D02*
X0030100Y0066448D01*
X0030100Y0067047D02*
X0029500Y0067047D01*
X0029500Y0067645D02*
X0030100Y0067645D01*
X0030100Y0068244D02*
X0029500Y0068244D01*
X0027577Y0068244D02*
X0017500Y0068244D01*
X0017500Y0068842D02*
X0027294Y0068842D01*
X0027128Y0069441D02*
X0017500Y0069441D01*
X0017500Y0070039D02*
X0027128Y0070039D01*
X0027128Y0070638D02*
X0017500Y0070638D01*
X0017500Y0071236D02*
X0027128Y0071236D01*
X0027027Y0071835D02*
X0017500Y0071835D01*
X0017500Y0072433D02*
X0026429Y0072433D01*
X0025830Y0073032D02*
X0017500Y0073032D01*
X0017500Y0073630D02*
X0025232Y0073630D01*
X0024900Y0074229D02*
X0017500Y0074229D01*
X0017500Y0074827D02*
X0024900Y0074827D01*
X0024900Y0075426D02*
X0017500Y0075426D01*
X0017500Y0076024D02*
X0024900Y0076024D01*
X0024900Y0076623D02*
X0017500Y0076623D01*
X0017500Y0077221D02*
X0024900Y0077221D01*
X0024900Y0077820D02*
X0017500Y0077820D01*
X0017500Y0078418D02*
X0024900Y0078418D01*
X0024900Y0079017D02*
X0017500Y0079017D01*
X0017500Y0079615D02*
X0024900Y0079615D01*
X0024900Y0080214D02*
X0017500Y0080214D01*
X0017500Y0080812D02*
X0024900Y0080812D01*
X0024900Y0081411D02*
X0017500Y0081411D01*
X0017500Y0082009D02*
X0024900Y0082009D01*
X0024900Y0082608D02*
X0017500Y0082608D01*
X0017500Y0083206D02*
X0024900Y0083206D01*
X0024900Y0083805D02*
X0017500Y0083805D01*
X0017500Y0084403D02*
X0024900Y0084403D01*
X0024900Y0085002D02*
X0017500Y0085002D01*
X0017500Y0085601D02*
X0024900Y0085601D01*
X0024900Y0086199D02*
X0017500Y0086199D01*
X0017500Y0086798D02*
X0024900Y0086798D01*
X0024900Y0087396D02*
X0017500Y0087396D01*
X0017500Y0087995D02*
X0024900Y0087995D01*
X0024900Y0088593D02*
X0017500Y0088593D01*
X0017500Y0089192D02*
X0024900Y0089192D01*
X0024900Y0089790D02*
X0017500Y0089790D01*
X0017500Y0090389D02*
X0024900Y0090389D01*
X0024900Y0090987D02*
X0017500Y0090987D01*
X0017500Y0091303D02*
X0018987Y0092790D01*
X0019127Y0092650D01*
X0021073Y0092650D01*
X0022450Y0094027D01*
X0022450Y0095973D01*
X0021073Y0097350D01*
X0019127Y0097350D01*
X0017750Y0095973D01*
X0017750Y0094947D01*
X0015100Y0092297D01*
X0015100Y0017497D01*
X0011461Y0013858D01*
X0010469Y0014268D01*
X0008930Y0014268D01*
X0007509Y0013680D01*
X0006420Y0012591D01*
X0005831Y0011169D01*
X0005831Y0009630D01*
X0006420Y0008209D01*
X0007509Y0007120D01*
X0008930Y0006531D01*
X0010469Y0006531D01*
X0011891Y0007120D01*
X0012980Y0008209D01*
X0013568Y0009630D01*
X0013568Y0011169D01*
X0013158Y0012161D01*
X0016797Y0015800D01*
X0017500Y0016503D01*
X0017500Y0091303D01*
X0017783Y0091586D02*
X0024900Y0091586D01*
X0024900Y0092184D02*
X0018381Y0092184D01*
X0018980Y0092783D02*
X0018994Y0092783D01*
X0017381Y0094578D02*
X0005600Y0094578D01*
X0005600Y0093980D02*
X0008233Y0093980D01*
X0008930Y0094268D02*
X0007509Y0093680D01*
X0006420Y0092591D01*
X0005831Y0091169D01*
X0005831Y0089630D01*
X0006420Y0088209D01*
X0007509Y0087120D01*
X0008930Y0086531D01*
X0010469Y0086531D01*
X0011891Y0087120D01*
X0012980Y0088209D01*
X0013568Y0089630D01*
X0013568Y0091169D01*
X0012980Y0092591D01*
X0011891Y0093680D01*
X0010469Y0094268D01*
X0008930Y0094268D01*
X0009364Y0096131D02*
X0008700Y0096237D01*
X0008061Y0096444D01*
X0007463Y0096749D01*
X0006919Y0097144D01*
X0006444Y0097619D01*
X0006049Y0098163D01*
X0005744Y0098761D01*
X0005600Y0099205D01*
X0005600Y0006300D01*
X0093800Y0006300D01*
X0093800Y0144461D01*
X0052401Y0144461D01*
X0053413Y0144042D01*
X0054621Y0142833D01*
X0055275Y0141254D01*
X0055275Y0139546D01*
X0054621Y0137967D01*
X0053413Y0136758D01*
X0051834Y0136104D01*
X0050125Y0136104D01*
X0048546Y0136758D01*
X0047338Y0137967D01*
X0046684Y0139546D01*
X0046684Y0141254D01*
X0047338Y0142833D01*
X0048546Y0144042D01*
X0049558Y0144461D01*
X0024842Y0144461D01*
X0025854Y0144042D01*
X0027062Y0142833D01*
X0027716Y0141254D01*
X0027716Y0139546D01*
X0027062Y0137967D01*
X0025854Y0136758D01*
X0024275Y0136104D01*
X0022566Y0136104D01*
X0020987Y0136758D01*
X0019779Y0137967D01*
X0019125Y0139546D01*
X0019125Y0141254D01*
X0019779Y0142833D01*
X0020987Y0144042D01*
X0021999Y0144461D01*
X0005600Y0144461D01*
X0005600Y0101595D01*
X0005744Y0102039D01*
X0006049Y0102637D01*
X0006444Y0103181D01*
X0006919Y0103656D01*
X0007463Y0104051D01*
X0008061Y0104356D01*
X0008700Y0104563D01*
X0009364Y0104668D01*
X0009400Y0104668D01*
X0009400Y0100700D01*
X0010000Y0100700D01*
X0010000Y0104668D01*
X0010036Y0104668D01*
X0010700Y0104563D01*
X0011339Y0104356D01*
X0011937Y0104051D01*
X0012481Y0103656D01*
X0012956Y0103181D01*
X0013351Y0102637D01*
X0013656Y0102039D01*
X0013863Y0101400D01*
X0013968Y0100736D01*
X0013968Y0100700D01*
X0010000Y0100700D01*
X0010000Y0100100D01*
X0013968Y0100100D01*
X0013968Y0100064D01*
X0013863Y0099400D01*
X0013656Y0098761D01*
X0013351Y0098163D01*
X0012956Y0097619D01*
X0012481Y0097144D01*
X0011937Y0096749D01*
X0011339Y0096444D01*
X0010700Y0096237D01*
X0010036Y0096131D01*
X0010000Y0096131D01*
X0010000Y0100100D01*
X0009400Y0100100D01*
X0009400Y0096131D01*
X0009364Y0096131D01*
X0009400Y0096374D02*
X0010000Y0096374D01*
X0010000Y0096972D02*
X0009400Y0096972D01*
X0009400Y0097571D02*
X0010000Y0097571D01*
X0010000Y0098169D02*
X0009400Y0098169D01*
X0009400Y0098768D02*
X0010000Y0098768D01*
X0010000Y0099366D02*
X0009400Y0099366D01*
X0009400Y0099965D02*
X0010000Y0099965D01*
X0009700Y0100400D02*
X0023200Y0100400D01*
X0024443Y0099366D02*
X0013852Y0099366D01*
X0013953Y0099965D02*
X0025041Y0099965D01*
X0026115Y0101162D02*
X0013901Y0101162D01*
X0013746Y0101760D02*
X0025516Y0101760D01*
X0025250Y0102359D02*
X0013493Y0102359D01*
X0013118Y0102957D02*
X0025250Y0102957D01*
X0025250Y0103556D02*
X0012581Y0103556D01*
X0011734Y0104154D02*
X0025431Y0104154D01*
X0026029Y0104753D02*
X0005600Y0104753D01*
X0005600Y0105351D02*
X0028154Y0105351D01*
X0028753Y0105950D02*
X0005600Y0105950D01*
X0005600Y0106548D02*
X0008890Y0106548D01*
X0007482Y0107147D02*
X0005600Y0107147D01*
X0005600Y0107745D02*
X0006884Y0107745D01*
X0006364Y0108344D02*
X0005600Y0108344D01*
X0005600Y0108942D02*
X0006116Y0108942D01*
X0005869Y0109541D02*
X0005600Y0109541D01*
X0005600Y0110139D02*
X0005831Y0110139D01*
X0005831Y0110738D02*
X0005600Y0110738D01*
X0005600Y0111337D02*
X0005901Y0111337D01*
X0006149Y0111935D02*
X0005600Y0111935D01*
X0005600Y0112534D02*
X0006397Y0112534D01*
X0006961Y0113132D02*
X0005600Y0113132D01*
X0005600Y0113731D02*
X0007632Y0113731D01*
X0005600Y0114329D02*
X0011932Y0114329D01*
X0012531Y0114928D02*
X0005600Y0114928D01*
X0005600Y0115526D02*
X0013129Y0115526D01*
X0013728Y0116125D02*
X0005600Y0116125D01*
X0005600Y0116723D02*
X0008468Y0116723D01*
X0007307Y0117322D02*
X0005600Y0117322D01*
X0005600Y0117920D02*
X0006709Y0117920D01*
X0006292Y0118519D02*
X0005600Y0118519D01*
X0005600Y0119117D02*
X0006044Y0119117D01*
X0005831Y0119716D02*
X0005600Y0119716D01*
X0005600Y0120314D02*
X0005831Y0120314D01*
X0005831Y0120913D02*
X0005600Y0120913D01*
X0005600Y0121511D02*
X0005973Y0121511D01*
X0006221Y0122110D02*
X0005600Y0122110D01*
X0005600Y0122708D02*
X0006537Y0122708D01*
X0007136Y0123307D02*
X0005600Y0123307D01*
X0005600Y0123905D02*
X0008054Y0123905D01*
X0008930Y0126531D02*
X0007509Y0127120D01*
X0006420Y0128209D01*
X0005831Y0129630D01*
X0005831Y0131169D01*
X0006420Y0132591D01*
X0007509Y0133680D01*
X0008930Y0134268D01*
X0010469Y0134268D01*
X0011891Y0133680D01*
X0012980Y0132591D01*
X0013568Y0131169D01*
X0013568Y0129630D01*
X0012980Y0128209D01*
X0011891Y0127120D01*
X0010469Y0126531D01*
X0008930Y0126531D01*
X0008046Y0126898D02*
X0005600Y0126898D01*
X0005600Y0127496D02*
X0007133Y0127496D01*
X0006534Y0128095D02*
X0005600Y0128095D01*
X0005600Y0128693D02*
X0006220Y0128693D01*
X0005972Y0129292D02*
X0005600Y0129292D01*
X0005600Y0129890D02*
X0005831Y0129890D01*
X0005831Y0130489D02*
X0005600Y0130489D01*
X0005600Y0131087D02*
X0005831Y0131087D01*
X0006045Y0131686D02*
X0005600Y0131686D01*
X0005600Y0132284D02*
X0006293Y0132284D01*
X0006712Y0132883D02*
X0005600Y0132883D01*
X0005600Y0133481D02*
X0007311Y0133481D01*
X0008475Y0134080D02*
X0005600Y0134080D01*
X0005600Y0134678D02*
X0022281Y0134678D01*
X0021683Y0134080D02*
X0010925Y0134080D01*
X0010469Y0136531D02*
X0011891Y0137120D01*
X0012980Y0138209D01*
X0013568Y0139630D01*
X0013568Y0141169D01*
X0012980Y0142591D01*
X0011891Y0143680D01*
X0010469Y0144268D01*
X0008930Y0144268D01*
X0007509Y0143680D01*
X0006420Y0142591D01*
X0005831Y0141169D01*
X0005831Y0139630D01*
X0006420Y0138209D01*
X0007509Y0137120D01*
X0008930Y0136531D01*
X0010469Y0136531D01*
X0011776Y0137072D02*
X0020673Y0137072D01*
X0020074Y0137671D02*
X0012442Y0137671D01*
X0013005Y0138270D02*
X0019653Y0138270D01*
X0019405Y0138868D02*
X0013253Y0138868D01*
X0013501Y0139467D02*
X0019158Y0139467D01*
X0019125Y0140065D02*
X0013568Y0140065D01*
X0013568Y0140664D02*
X0019125Y0140664D01*
X0019128Y0141262D02*
X0013530Y0141262D01*
X0013282Y0141861D02*
X0019376Y0141861D01*
X0019624Y0142459D02*
X0013034Y0142459D01*
X0012513Y0143058D02*
X0020003Y0143058D01*
X0020602Y0143656D02*
X0011915Y0143656D01*
X0010503Y0144255D02*
X0021501Y0144255D01*
X0025340Y0144255D02*
X0028857Y0144255D01*
X0028953Y0144351D02*
X0028426Y0143824D01*
X0028426Y0136976D01*
X0028953Y0136449D01*
X0036589Y0136449D01*
X0037116Y0136976D01*
X0037116Y0143824D01*
X0036589Y0144351D01*
X0028953Y0144351D01*
X0028426Y0143656D02*
X0026239Y0143656D01*
X0026838Y0143058D02*
X0028426Y0143058D01*
X0028426Y0142459D02*
X0027217Y0142459D01*
X0027465Y0141861D02*
X0028426Y0141861D01*
X0028426Y0141262D02*
X0027713Y0141262D01*
X0027716Y0140664D02*
X0028426Y0140664D01*
X0028426Y0140065D02*
X0027716Y0140065D01*
X0027683Y0139467D02*
X0028426Y0139467D01*
X0028426Y0138868D02*
X0027435Y0138868D01*
X0027188Y0138270D02*
X0028426Y0138270D01*
X0028426Y0137671D02*
X0026766Y0137671D01*
X0026168Y0137072D02*
X0028426Y0137072D01*
X0028928Y0136474D02*
X0025167Y0136474D01*
X0023478Y0135875D02*
X0005600Y0135875D01*
X0005600Y0135277D02*
X0022880Y0135277D01*
X0021674Y0136474D02*
X0005600Y0136474D01*
X0005600Y0137072D02*
X0007624Y0137072D01*
X0006958Y0137671D02*
X0005600Y0137671D01*
X0005600Y0138270D02*
X0006395Y0138270D01*
X0006147Y0138868D02*
X0005600Y0138868D01*
X0005600Y0139467D02*
X0005899Y0139467D01*
X0005831Y0140065D02*
X0005600Y0140065D01*
X0005600Y0140664D02*
X0005831Y0140664D01*
X0005870Y0141262D02*
X0005600Y0141262D01*
X0005600Y0141861D02*
X0006118Y0141861D01*
X0006366Y0142459D02*
X0005600Y0142459D01*
X0005600Y0143058D02*
X0006887Y0143058D01*
X0007485Y0143656D02*
X0005600Y0143656D01*
X0005600Y0144255D02*
X0008897Y0144255D01*
X0012089Y0133481D02*
X0021084Y0133481D01*
X0020486Y0132883D02*
X0012688Y0132883D01*
X0013107Y0132284D02*
X0019887Y0132284D01*
X0019289Y0131686D02*
X0013355Y0131686D01*
X0013568Y0131087D02*
X0018690Y0131087D01*
X0018092Y0130489D02*
X0013568Y0130489D01*
X0013568Y0129890D02*
X0017493Y0129890D01*
X0016895Y0129292D02*
X0013428Y0129292D01*
X0013180Y0128693D02*
X0016296Y0128693D01*
X0015698Y0128095D02*
X0012866Y0128095D01*
X0012267Y0127496D02*
X0015099Y0127496D01*
X0014501Y0126898D02*
X0011354Y0126898D01*
X0012705Y0125102D02*
X0005600Y0125102D01*
X0005600Y0124504D02*
X0012107Y0124504D01*
X0011508Y0123905D02*
X0011346Y0123905D01*
X0013304Y0125701D02*
X0005600Y0125701D01*
X0005600Y0126299D02*
X0013902Y0126299D01*
X0013568Y0120314D02*
X0016633Y0120314D01*
X0016463Y0119716D02*
X0013568Y0119716D01*
X0013356Y0119117D02*
X0016463Y0119117D01*
X0016122Y0118519D02*
X0013108Y0118519D01*
X0012691Y0117920D02*
X0015523Y0117920D01*
X0014925Y0117322D02*
X0012093Y0117322D01*
X0010932Y0116723D02*
X0014326Y0116723D01*
X0015925Y0114928D02*
X0020116Y0114928D01*
X0020715Y0114329D02*
X0015326Y0114329D01*
X0014728Y0113731D02*
X0021313Y0113731D01*
X0021841Y0114900D02*
X0031306Y0114900D01*
X0032200Y0115794D01*
X0027906Y0111500D01*
X0026100Y0111500D01*
X0024409Y0113132D02*
X0014129Y0113132D01*
X0013531Y0112534D02*
X0023810Y0112534D01*
X0023750Y0111935D02*
X0013251Y0111935D01*
X0013499Y0111337D02*
X0023750Y0111337D01*
X0023750Y0110738D02*
X0013568Y0110738D01*
X0013568Y0110139D02*
X0024137Y0110139D01*
X0024736Y0109541D02*
X0013531Y0109541D01*
X0013283Y0108942D02*
X0028800Y0108942D01*
X0028800Y0108344D02*
X0013036Y0108344D01*
X0012516Y0107745D02*
X0028800Y0107745D01*
X0028800Y0107147D02*
X0011918Y0107147D01*
X0010510Y0106548D02*
X0028800Y0106548D01*
X0030000Y0105500D02*
X0027600Y0103100D01*
X0027600Y0103000D01*
X0029085Y0101162D02*
X0032057Y0101162D01*
X0031863Y0101760D02*
X0029684Y0101760D01*
X0029950Y0102359D02*
X0031444Y0102359D01*
X0030846Y0102957D02*
X0029950Y0102957D01*
X0029950Y0103556D02*
X0030247Y0103556D01*
X0032000Y0103500D02*
X0030000Y0105500D01*
X0030000Y0113594D01*
X0032200Y0115794D01*
X0032200Y0117763D01*
X0034956Y0117763D01*
X0035940Y0118747D01*
X0035940Y0122460D01*
X0032082Y0126318D01*
X0032082Y0129770D01*
X0027800Y0124900D02*
X0029459Y0123241D01*
X0029459Y0121800D01*
X0029459Y0119859D01*
X0027600Y0118000D01*
X0023859Y0118000D01*
X0021841Y0114900D02*
X0018741Y0118000D01*
X0017300Y0118000D01*
X0009700Y0110400D01*
X0009400Y0104154D02*
X0010000Y0104154D01*
X0010000Y0103556D02*
X0009400Y0103556D01*
X0009400Y0102957D02*
X0010000Y0102957D01*
X0010000Y0102359D02*
X0009400Y0102359D01*
X0009400Y0101760D02*
X0010000Y0101760D01*
X0010000Y0101162D02*
X0009400Y0101162D01*
X0010000Y0100563D02*
X0037299Y0100563D01*
X0037379Y0100517D02*
X0037710Y0100428D01*
X0038959Y0100428D01*
X0038959Y0103200D01*
X0036581Y0103200D01*
X0036581Y0101557D01*
X0036670Y0101227D01*
X0036841Y0100930D01*
X0037083Y0100688D01*
X0037379Y0100517D01*
X0036707Y0101162D02*
X0036225Y0101162D01*
X0036419Y0101760D02*
X0036581Y0101760D01*
X0036581Y0102359D02*
X0036419Y0102359D01*
X0036419Y0102957D02*
X0036581Y0102957D01*
X0036419Y0103556D02*
X0038959Y0103556D01*
X0038959Y0103800D02*
X0038959Y0103200D01*
X0039559Y0103200D01*
X0039559Y0100428D01*
X0040808Y0100428D01*
X0041139Y0100517D01*
X0041435Y0100688D01*
X0041677Y0100930D01*
X0041848Y0101227D01*
X0041937Y0101557D01*
X0041937Y0103200D01*
X0039559Y0103200D01*
X0039559Y0103800D01*
X0038959Y0103800D01*
X0036581Y0103800D01*
X0036581Y0105443D01*
X0036670Y0105773D01*
X0036841Y0106070D01*
X0037083Y0106312D01*
X0037379Y0106483D01*
X0037710Y0106572D01*
X0038959Y0106572D01*
X0038959Y0103800D01*
X0038959Y0104154D02*
X0039559Y0104154D01*
X0039559Y0103800D02*
X0039559Y0106572D01*
X0040808Y0106572D01*
X0041139Y0106483D01*
X0041435Y0106312D01*
X0041677Y0106070D01*
X0041848Y0105773D01*
X0041937Y0105443D01*
X0041937Y0103800D01*
X0039559Y0103800D01*
X0039559Y0103556D02*
X0057724Y0103556D01*
X0057065Y0102957D02*
X0041937Y0102957D01*
X0041937Y0102359D02*
X0056537Y0102359D01*
X0056289Y0101760D02*
X0041937Y0101760D01*
X0041811Y0101162D02*
X0051765Y0101162D01*
X0051166Y0100563D02*
X0041219Y0100563D01*
X0039559Y0100563D02*
X0038959Y0100563D01*
X0038959Y0101162D02*
X0039559Y0101162D01*
X0039559Y0101760D02*
X0038959Y0101760D01*
X0038959Y0102359D02*
X0039559Y0102359D01*
X0039559Y0102957D02*
X0038959Y0102957D01*
X0038959Y0104753D02*
X0039559Y0104753D01*
X0039559Y0105351D02*
X0038959Y0105351D01*
X0038959Y0105950D02*
X0039559Y0105950D01*
X0039559Y0106548D02*
X0038959Y0106548D01*
X0039746Y0107147D02*
X0040346Y0107147D01*
X0040346Y0107745D02*
X0039746Y0107745D01*
X0039746Y0108344D02*
X0040346Y0108344D01*
X0040346Y0108942D02*
X0039746Y0108942D01*
X0039746Y0109541D02*
X0040346Y0109541D01*
X0040046Y0109900D02*
X0043546Y0109900D01*
X0046800Y0113154D01*
X0050068Y0113731D02*
X0054034Y0113731D01*
X0054632Y0114329D02*
X0050068Y0114329D01*
X0050068Y0114928D02*
X0055231Y0114928D01*
X0055829Y0115526D02*
X0050059Y0115526D01*
X0049801Y0116125D02*
X0056428Y0116125D01*
X0057026Y0116723D02*
X0043400Y0116723D01*
X0043400Y0116125D02*
X0043799Y0116125D01*
X0043541Y0115526D02*
X0043400Y0115526D01*
X0043400Y0114928D02*
X0043531Y0114928D01*
X0043531Y0114329D02*
X0043400Y0114329D01*
X0043400Y0113731D02*
X0043531Y0113731D01*
X0042200Y0113900D02*
X0042200Y0117763D01*
X0039680Y0117763D01*
X0039680Y0115794D02*
X0035940Y0115794D01*
X0035940Y0118747D01*
X0032200Y0119731D02*
X0032200Y0121700D01*
X0029559Y0121700D01*
X0029459Y0121800D01*
X0027800Y0124900D02*
X0021500Y0124900D01*
X0021400Y0124800D01*
X0016792Y0115526D02*
X0016523Y0115526D01*
X0007666Y0104154D02*
X0005600Y0104154D01*
X0005600Y0103556D02*
X0006819Y0103556D01*
X0006282Y0102957D02*
X0005600Y0102957D01*
X0005600Y0102359D02*
X0005907Y0102359D01*
X0005654Y0101760D02*
X0005600Y0101760D01*
X0005600Y0098768D02*
X0005742Y0098768D01*
X0005600Y0098169D02*
X0006046Y0098169D01*
X0005600Y0097571D02*
X0006493Y0097571D01*
X0007156Y0096972D02*
X0005600Y0096972D01*
X0005600Y0096374D02*
X0008278Y0096374D01*
X0007210Y0093381D02*
X0005600Y0093381D01*
X0005600Y0092783D02*
X0006612Y0092783D01*
X0006252Y0092184D02*
X0005600Y0092184D01*
X0005600Y0091586D02*
X0006004Y0091586D01*
X0005831Y0090987D02*
X0005600Y0090987D01*
X0005600Y0090389D02*
X0005831Y0090389D01*
X0005831Y0089790D02*
X0005600Y0089790D01*
X0005600Y0089192D02*
X0006013Y0089192D01*
X0006261Y0088593D02*
X0005600Y0088593D01*
X0005600Y0087995D02*
X0006635Y0087995D01*
X0007233Y0087396D02*
X0005600Y0087396D01*
X0005600Y0086798D02*
X0008288Y0086798D01*
X0008930Y0084268D02*
X0007509Y0083680D01*
X0006420Y0082591D01*
X0005831Y0081169D01*
X0005831Y0079630D01*
X0006420Y0078209D01*
X0007509Y0077120D01*
X0008930Y0076531D01*
X0010469Y0076531D01*
X0011891Y0077120D01*
X0012980Y0078209D01*
X0013568Y0079630D01*
X0013568Y0081169D01*
X0012980Y0082591D01*
X0011891Y0083680D01*
X0010469Y0084268D01*
X0008930Y0084268D01*
X0007811Y0083805D02*
X0005600Y0083805D01*
X0005600Y0084403D02*
X0015100Y0084403D01*
X0015100Y0083805D02*
X0011589Y0083805D01*
X0012364Y0083206D02*
X0015100Y0083206D01*
X0015100Y0082608D02*
X0012963Y0082608D01*
X0013221Y0082009D02*
X0015100Y0082009D01*
X0015100Y0081411D02*
X0013468Y0081411D01*
X0013568Y0080812D02*
X0015100Y0080812D01*
X0015100Y0080214D02*
X0013568Y0080214D01*
X0013562Y0079615D02*
X0015100Y0079615D01*
X0015100Y0079017D02*
X0013314Y0079017D01*
X0013066Y0078418D02*
X0015100Y0078418D01*
X0015100Y0077820D02*
X0012591Y0077820D01*
X0011992Y0077221D02*
X0015100Y0077221D01*
X0015100Y0076623D02*
X0010690Y0076623D01*
X0008710Y0076623D02*
X0005600Y0076623D01*
X0005600Y0077221D02*
X0007408Y0077221D01*
X0006809Y0077820D02*
X0005600Y0077820D01*
X0005600Y0078418D02*
X0006334Y0078418D01*
X0006086Y0079017D02*
X0005600Y0079017D01*
X0005600Y0079615D02*
X0005838Y0079615D01*
X0005831Y0080214D02*
X0005600Y0080214D01*
X0005600Y0080812D02*
X0005831Y0080812D01*
X0005932Y0081411D02*
X0005600Y0081411D01*
X0005600Y0082009D02*
X0006179Y0082009D01*
X0006437Y0082608D02*
X0005600Y0082608D01*
X0005600Y0083206D02*
X0007036Y0083206D01*
X0005600Y0085002D02*
X0015100Y0085002D01*
X0015100Y0085601D02*
X0005600Y0085601D01*
X0005600Y0086199D02*
X0015100Y0086199D01*
X0015100Y0086798D02*
X0011112Y0086798D01*
X0012167Y0087396D02*
X0015100Y0087396D01*
X0015100Y0087995D02*
X0012765Y0087995D01*
X0013139Y0088593D02*
X0015100Y0088593D01*
X0015100Y0089192D02*
X0013387Y0089192D01*
X0013568Y0089790D02*
X0015100Y0089790D01*
X0015100Y0090389D02*
X0013568Y0090389D01*
X0013568Y0090987D02*
X0015100Y0090987D01*
X0015100Y0091586D02*
X0013396Y0091586D01*
X0013148Y0092184D02*
X0015100Y0092184D01*
X0015586Y0092783D02*
X0012788Y0092783D01*
X0012190Y0093381D02*
X0016184Y0093381D01*
X0016783Y0093980D02*
X0011167Y0093980D01*
X0011122Y0096374D02*
X0018150Y0096374D01*
X0017750Y0095775D02*
X0005600Y0095775D01*
X0005600Y0095177D02*
X0017750Y0095177D01*
X0018749Y0096972D02*
X0012244Y0096972D01*
X0012907Y0097571D02*
X0023750Y0097571D01*
X0023750Y0098169D02*
X0013354Y0098169D01*
X0013658Y0098768D02*
X0023844Y0098768D01*
X0023750Y0096972D02*
X0021451Y0096972D01*
X0022050Y0096374D02*
X0024103Y0096374D01*
X0024701Y0095775D02*
X0022450Y0095775D01*
X0022450Y0095177D02*
X0024900Y0095177D01*
X0024900Y0094578D02*
X0022450Y0094578D01*
X0022403Y0093980D02*
X0024900Y0093980D01*
X0024900Y0093381D02*
X0021805Y0093381D01*
X0021206Y0092783D02*
X0024900Y0092783D01*
X0026100Y0097700D02*
X0026100Y0074459D01*
X0029800Y0070759D01*
X0031813Y0070759D01*
X0036605Y0065968D01*
X0040173Y0062400D01*
X0037530Y0062259D02*
X0037530Y0062259D01*
X0036932Y0062857D02*
X0036931Y0062857D01*
X0036333Y0063456D02*
X0036333Y0063456D01*
X0035735Y0064054D02*
X0035734Y0064054D01*
X0035213Y0064576D02*
X0033876Y0063239D01*
X0035213Y0064576D01*
X0035213Y0064576D01*
X0034691Y0064054D02*
X0034691Y0064054D01*
X0034093Y0063456D02*
X0034092Y0063456D01*
X0033659Y0063456D02*
X0032603Y0063456D01*
X0032862Y0064054D02*
X0033061Y0064054D01*
X0034258Y0062857D02*
X0025214Y0062857D01*
X0025617Y0062259D02*
X0034856Y0062259D01*
X0035455Y0061660D02*
X0025865Y0061660D01*
X0026997Y0063456D02*
X0024615Y0063456D01*
X0023487Y0064054D02*
X0026738Y0064054D01*
X0026728Y0066448D02*
X0017500Y0066448D01*
X0017500Y0067047D02*
X0026728Y0067047D01*
X0026889Y0067645D02*
X0017500Y0067645D01*
X0015100Y0067645D02*
X0012416Y0067645D01*
X0011891Y0067120D02*
X0012980Y0068209D01*
X0013568Y0069630D01*
X0013568Y0071169D01*
X0012980Y0072591D01*
X0011891Y0073680D01*
X0010469Y0074268D01*
X0008930Y0074268D01*
X0007509Y0073680D01*
X0006420Y0072591D01*
X0005831Y0071169D01*
X0005831Y0069630D01*
X0006420Y0068209D01*
X0007509Y0067120D01*
X0008930Y0066531D01*
X0010469Y0066531D01*
X0011891Y0067120D01*
X0011713Y0067047D02*
X0015100Y0067047D01*
X0015100Y0066448D02*
X0005600Y0066448D01*
X0005600Y0065850D02*
X0015100Y0065850D01*
X0015100Y0065251D02*
X0005600Y0065251D01*
X0005600Y0064653D02*
X0015100Y0064653D01*
X0015100Y0064054D02*
X0010987Y0064054D01*
X0010469Y0064268D02*
X0008930Y0064268D01*
X0007509Y0063680D01*
X0006420Y0062591D01*
X0005831Y0061169D01*
X0005831Y0059630D01*
X0006420Y0058209D01*
X0007509Y0057120D01*
X0008930Y0056531D01*
X0010469Y0056531D01*
X0011891Y0057120D01*
X0012980Y0058209D01*
X0013568Y0059630D01*
X0013568Y0061169D01*
X0012980Y0062591D01*
X0011891Y0063680D01*
X0010469Y0064268D01*
X0012115Y0063456D02*
X0015100Y0063456D01*
X0015100Y0062857D02*
X0012714Y0062857D01*
X0013117Y0062259D02*
X0015100Y0062259D01*
X0015100Y0061660D02*
X0013365Y0061660D01*
X0013568Y0061062D02*
X0015100Y0061062D01*
X0015100Y0060463D02*
X0013568Y0060463D01*
X0013568Y0059865D02*
X0015100Y0059865D01*
X0015100Y0059266D02*
X0013418Y0059266D01*
X0013170Y0058668D02*
X0015100Y0058668D01*
X0015100Y0058069D02*
X0012840Y0058069D01*
X0012241Y0057470D02*
X0015100Y0057470D01*
X0015100Y0056872D02*
X0011291Y0056872D01*
X0010469Y0054268D02*
X0008930Y0054268D01*
X0007509Y0053680D01*
X0006420Y0052591D01*
X0005831Y0051169D01*
X0005831Y0049630D01*
X0006420Y0048209D01*
X0007509Y0047120D01*
X0008930Y0046531D01*
X0010469Y0046531D01*
X0011891Y0047120D01*
X0012980Y0048209D01*
X0013568Y0049630D01*
X0013568Y0051169D01*
X0012980Y0052591D01*
X0011891Y0053680D01*
X0010469Y0054268D01*
X0011409Y0053879D02*
X0015100Y0053879D01*
X0015100Y0053281D02*
X0012290Y0053281D01*
X0012888Y0052682D02*
X0015100Y0052682D01*
X0015100Y0052084D02*
X0013190Y0052084D01*
X0013438Y0051485D02*
X0015100Y0051485D01*
X0015100Y0050887D02*
X0013568Y0050887D01*
X0013568Y0050288D02*
X0015100Y0050288D01*
X0015100Y0049690D02*
X0013568Y0049690D01*
X0013345Y0049091D02*
X0015100Y0049091D01*
X0015100Y0048493D02*
X0013097Y0048493D01*
X0012665Y0047894D02*
X0015100Y0047894D01*
X0015100Y0047296D02*
X0012067Y0047296D01*
X0010870Y0046697D02*
X0015100Y0046697D01*
X0015100Y0046099D02*
X0005600Y0046099D01*
X0005600Y0046697D02*
X0008530Y0046697D01*
X0007333Y0047296D02*
X0005600Y0047296D01*
X0005600Y0047894D02*
X0006735Y0047894D01*
X0006303Y0048493D02*
X0005600Y0048493D01*
X0005600Y0049091D02*
X0006055Y0049091D01*
X0005831Y0049690D02*
X0005600Y0049690D01*
X0005600Y0050288D02*
X0005831Y0050288D01*
X0005831Y0050887D02*
X0005600Y0050887D01*
X0005600Y0051485D02*
X0005962Y0051485D01*
X0006210Y0052084D02*
X0005600Y0052084D01*
X0005600Y0052682D02*
X0006512Y0052682D01*
X0007110Y0053281D02*
X0005600Y0053281D01*
X0005600Y0053879D02*
X0007991Y0053879D01*
X0005600Y0054478D02*
X0015100Y0054478D01*
X0015100Y0055076D02*
X0005600Y0055076D01*
X0005600Y0055675D02*
X0015100Y0055675D01*
X0015100Y0056273D02*
X0005600Y0056273D01*
X0005600Y0056872D02*
X0008109Y0056872D01*
X0007159Y0057470D02*
X0005600Y0057470D01*
X0005600Y0058069D02*
X0006560Y0058069D01*
X0006230Y0058668D02*
X0005600Y0058668D01*
X0005600Y0059266D02*
X0005982Y0059266D01*
X0005831Y0059865D02*
X0005600Y0059865D01*
X0005600Y0060463D02*
X0005831Y0060463D01*
X0005831Y0061062D02*
X0005600Y0061062D01*
X0005600Y0061660D02*
X0006035Y0061660D01*
X0006283Y0062259D02*
X0005600Y0062259D01*
X0005600Y0062857D02*
X0006686Y0062857D01*
X0007285Y0063456D02*
X0005600Y0063456D01*
X0005600Y0064054D02*
X0008413Y0064054D01*
X0007687Y0067047D02*
X0005600Y0067047D01*
X0005600Y0067645D02*
X0006984Y0067645D01*
X0006406Y0068244D02*
X0005600Y0068244D01*
X0005600Y0068842D02*
X0006158Y0068842D01*
X0005910Y0069441D02*
X0005600Y0069441D01*
X0005600Y0070039D02*
X0005831Y0070039D01*
X0005831Y0070638D02*
X0005600Y0070638D01*
X0005600Y0071236D02*
X0005859Y0071236D01*
X0006107Y0071835D02*
X0005600Y0071835D01*
X0005600Y0072433D02*
X0006355Y0072433D01*
X0006861Y0073032D02*
X0005600Y0073032D01*
X0005600Y0073630D02*
X0007459Y0073630D01*
X0008835Y0074229D02*
X0005600Y0074229D01*
X0005600Y0074827D02*
X0015100Y0074827D01*
X0015100Y0074229D02*
X0010565Y0074229D01*
X0011941Y0073630D02*
X0015100Y0073630D01*
X0015100Y0073032D02*
X0012539Y0073032D01*
X0013045Y0072433D02*
X0015100Y0072433D01*
X0015100Y0071835D02*
X0013293Y0071835D01*
X0013541Y0071236D02*
X0015100Y0071236D01*
X0015100Y0070638D02*
X0013568Y0070638D01*
X0013568Y0070039D02*
X0015100Y0070039D01*
X0015100Y0069441D02*
X0013490Y0069441D01*
X0013242Y0068842D02*
X0015100Y0068842D01*
X0015100Y0068244D02*
X0012994Y0068244D01*
X0015100Y0075426D02*
X0005600Y0075426D01*
X0005600Y0076024D02*
X0015100Y0076024D01*
X0022200Y0060400D02*
X0031037Y0060400D01*
X0035213Y0056224D01*
X0036605Y0054832D02*
X0032173Y0050400D01*
X0022200Y0050400D01*
X0024790Y0053281D02*
X0032707Y0053281D01*
X0032758Y0052682D02*
X0025388Y0052682D01*
X0025690Y0052084D02*
X0032159Y0052084D01*
X0032109Y0053879D02*
X0023909Y0053879D01*
X0023791Y0056872D02*
X0032868Y0056872D01*
X0033154Y0056273D02*
X0017500Y0056273D01*
X0017500Y0055675D02*
X0032556Y0055675D01*
X0031957Y0055076D02*
X0017500Y0055076D01*
X0017500Y0054478D02*
X0031807Y0054478D01*
X0032269Y0057470D02*
X0024741Y0057470D01*
X0025340Y0058069D02*
X0031671Y0058069D01*
X0031072Y0058668D02*
X0025670Y0058668D01*
X0029500Y0063456D02*
X0030100Y0063456D01*
X0030100Y0064054D02*
X0029500Y0064054D01*
X0029500Y0064653D02*
X0030100Y0064653D01*
X0030100Y0065251D02*
X0029500Y0065251D01*
X0032023Y0068244D02*
X0032632Y0068244D01*
X0032072Y0061062D02*
X0036053Y0061062D01*
X0036147Y0059266D02*
X0033868Y0059266D01*
X0034466Y0058668D02*
X0035548Y0058668D01*
X0038817Y0058069D02*
X0043972Y0058069D01*
X0043373Y0057470D02*
X0039415Y0057470D01*
X0040010Y0056872D02*
X0042775Y0056872D01*
X0042176Y0056273D02*
X0040612Y0056273D01*
X0041211Y0055675D02*
X0041578Y0055675D01*
X0042173Y0049264D02*
X0038908Y0046000D01*
X0036000Y0046000D01*
X0032400Y0042400D01*
X0032400Y0036600D01*
X0033659Y0035341D01*
X0035900Y0035341D01*
X0041000Y0035341D01*
X0040700Y0038318D02*
X0041300Y0038318D01*
X0041300Y0038917D02*
X0040700Y0038917D01*
X0040700Y0039515D02*
X0041300Y0039515D01*
X0041300Y0040114D02*
X0040700Y0040114D01*
X0040700Y0041311D02*
X0041300Y0041311D01*
X0041300Y0041909D02*
X0040700Y0041909D01*
X0040700Y0042508D02*
X0041300Y0042508D01*
X0041300Y0043106D02*
X0040700Y0043106D01*
X0041094Y0043705D02*
X0041718Y0043705D01*
X0042180Y0043705D02*
X0042181Y0043705D01*
X0042779Y0044303D02*
X0042779Y0044303D01*
X0043173Y0047873D02*
X0043564Y0047873D01*
X0038507Y0047296D02*
X0024567Y0047296D01*
X0025165Y0047894D02*
X0038094Y0047894D01*
X0037496Y0048493D02*
X0025597Y0048493D01*
X0025845Y0049091D02*
X0036897Y0049091D01*
X0036299Y0049690D02*
X0033159Y0049690D01*
X0033758Y0050288D02*
X0035700Y0050288D01*
X0035101Y0050887D02*
X0034356Y0050887D01*
X0035000Y0046697D02*
X0023370Y0046697D01*
X0015100Y0045500D02*
X0005600Y0045500D01*
X0005600Y0044902D02*
X0015100Y0044902D01*
X0015100Y0044303D02*
X0005600Y0044303D01*
X0005600Y0043705D02*
X0007569Y0043705D01*
X0007509Y0043680D02*
X0006420Y0042591D01*
X0005831Y0041169D01*
X0005831Y0039630D01*
X0006420Y0038209D01*
X0007509Y0037120D01*
X0008930Y0036531D01*
X0010469Y0036531D01*
X0011891Y0037120D01*
X0012980Y0038209D01*
X0013568Y0039630D01*
X0013568Y0041169D01*
X0012980Y0042591D01*
X0011891Y0043680D01*
X0010469Y0044268D01*
X0008930Y0044268D01*
X0007509Y0043680D01*
X0006935Y0043106D02*
X0005600Y0043106D01*
X0005600Y0042508D02*
X0006386Y0042508D01*
X0006138Y0041909D02*
X0005600Y0041909D01*
X0005600Y0041311D02*
X0005890Y0041311D01*
X0005831Y0040712D02*
X0005600Y0040712D01*
X0005600Y0040114D02*
X0005831Y0040114D01*
X0005879Y0039515D02*
X0005600Y0039515D01*
X0005600Y0038917D02*
X0006127Y0038917D01*
X0006375Y0038318D02*
X0005600Y0038318D01*
X0005600Y0037720D02*
X0006909Y0037720D01*
X0007508Y0037121D02*
X0005600Y0037121D01*
X0005600Y0036523D02*
X0015100Y0036523D01*
X0015100Y0037121D02*
X0011892Y0037121D01*
X0012491Y0037720D02*
X0015100Y0037720D01*
X0015100Y0038318D02*
X0013025Y0038318D01*
X0013273Y0038917D02*
X0015100Y0038917D01*
X0015100Y0039515D02*
X0013521Y0039515D01*
X0013568Y0040114D02*
X0015100Y0040114D01*
X0015100Y0040712D02*
X0013568Y0040712D01*
X0013510Y0041311D02*
X0015100Y0041311D01*
X0015100Y0041909D02*
X0013262Y0041909D01*
X0013014Y0042508D02*
X0015100Y0042508D01*
X0015100Y0043106D02*
X0012465Y0043106D01*
X0011831Y0043705D02*
X0015100Y0043705D01*
X0015100Y0035924D02*
X0005600Y0035924D01*
X0005600Y0035326D02*
X0015100Y0035326D01*
X0015100Y0034727D02*
X0005600Y0034727D01*
X0005600Y0034129D02*
X0008593Y0034129D01*
X0008930Y0034268D02*
X0007509Y0033680D01*
X0006420Y0032591D01*
X0005831Y0031169D01*
X0005831Y0029630D01*
X0006420Y0028209D01*
X0007509Y0027120D01*
X0008930Y0026531D01*
X0010469Y0026531D01*
X0011891Y0027120D01*
X0012980Y0028209D01*
X0013568Y0029630D01*
X0013568Y0031169D01*
X0012980Y0032591D01*
X0011891Y0033680D01*
X0010469Y0034268D01*
X0008930Y0034268D01*
X0007359Y0033530D02*
X0005600Y0033530D01*
X0005600Y0032932D02*
X0006761Y0032932D01*
X0006313Y0032333D02*
X0005600Y0032333D01*
X0005600Y0031734D02*
X0006066Y0031734D01*
X0005831Y0031136D02*
X0005600Y0031136D01*
X0005600Y0030537D02*
X0005831Y0030537D01*
X0005831Y0029939D02*
X0005600Y0029939D01*
X0005600Y0029340D02*
X0005952Y0029340D01*
X0006200Y0028742D02*
X0005600Y0028742D01*
X0005600Y0028143D02*
X0006486Y0028143D01*
X0007084Y0027545D02*
X0005600Y0027545D01*
X0005600Y0026946D02*
X0007929Y0026946D01*
X0005600Y0026348D02*
X0015100Y0026348D01*
X0015100Y0026946D02*
X0011471Y0026946D01*
X0012316Y0027545D02*
X0015100Y0027545D01*
X0015100Y0028143D02*
X0012914Y0028143D01*
X0013200Y0028742D02*
X0015100Y0028742D01*
X0015100Y0029340D02*
X0013448Y0029340D01*
X0013568Y0029939D02*
X0015100Y0029939D01*
X0015100Y0030537D02*
X0013568Y0030537D01*
X0013568Y0031136D02*
X0015100Y0031136D01*
X0015100Y0031734D02*
X0013334Y0031734D01*
X0013087Y0032333D02*
X0015100Y0032333D01*
X0015100Y0032932D02*
X0012639Y0032932D01*
X0012041Y0033530D02*
X0015100Y0033530D01*
X0015100Y0034129D02*
X0010807Y0034129D01*
X0015100Y0025749D02*
X0005600Y0025749D01*
X0005600Y0025151D02*
X0015100Y0025151D01*
X0015100Y0024552D02*
X0005600Y0024552D01*
X0005600Y0023954D02*
X0008171Y0023954D01*
X0007509Y0023680D02*
X0008930Y0024268D01*
X0010469Y0024268D01*
X0011891Y0023680D01*
X0012980Y0022591D01*
X0013568Y0021169D01*
X0013568Y0019630D01*
X0012980Y0018209D01*
X0011891Y0017120D01*
X0010469Y0016531D01*
X0008930Y0016531D01*
X0007509Y0017120D01*
X0006420Y0018209D01*
X0005831Y0019630D01*
X0005831Y0021169D01*
X0006420Y0022591D01*
X0007509Y0023680D01*
X0007184Y0023355D02*
X0005600Y0023355D01*
X0005600Y0022757D02*
X0006586Y0022757D01*
X0006241Y0022158D02*
X0005600Y0022158D01*
X0005600Y0021560D02*
X0005993Y0021560D01*
X0005831Y0020961D02*
X0005600Y0020961D01*
X0005600Y0020363D02*
X0005831Y0020363D01*
X0005831Y0019764D02*
X0005600Y0019764D01*
X0005600Y0019166D02*
X0006024Y0019166D01*
X0006272Y0018567D02*
X0005600Y0018567D01*
X0005600Y0017969D02*
X0006660Y0017969D01*
X0007259Y0017370D02*
X0005600Y0017370D01*
X0005600Y0016772D02*
X0008351Y0016772D01*
X0011049Y0016772D02*
X0014375Y0016772D01*
X0014973Y0017370D02*
X0012141Y0017370D01*
X0012740Y0017969D02*
X0015100Y0017969D01*
X0015100Y0018567D02*
X0013128Y0018567D01*
X0013376Y0019166D02*
X0015100Y0019166D01*
X0015100Y0019764D02*
X0013568Y0019764D01*
X0013568Y0020363D02*
X0015100Y0020363D01*
X0015100Y0020961D02*
X0013568Y0020961D01*
X0013407Y0021560D02*
X0015100Y0021560D01*
X0015100Y0022158D02*
X0013159Y0022158D01*
X0012814Y0022757D02*
X0015100Y0022757D01*
X0015100Y0023355D02*
X0012216Y0023355D01*
X0011229Y0023954D02*
X0015100Y0023954D01*
X0017500Y0023954D02*
X0024714Y0023954D01*
X0024714Y0024552D02*
X0017500Y0024552D01*
X0017500Y0025151D02*
X0024714Y0025151D01*
X0024714Y0025749D02*
X0017500Y0025749D01*
X0017500Y0026348D02*
X0024714Y0026348D01*
X0024714Y0026946D02*
X0017500Y0026946D01*
X0017500Y0027545D02*
X0024714Y0027545D01*
X0024714Y0028143D02*
X0017500Y0028143D01*
X0017500Y0028742D02*
X0024714Y0028742D01*
X0024714Y0029340D02*
X0017500Y0029340D01*
X0017500Y0029939D02*
X0024714Y0029939D01*
X0024714Y0030537D02*
X0017500Y0030537D01*
X0017500Y0031136D02*
X0024714Y0031136D01*
X0024714Y0031212D02*
X0025241Y0031739D01*
X0031105Y0031739D01*
X0031632Y0031212D01*
X0031632Y0022986D01*
X0031105Y0022459D01*
X0025241Y0022459D01*
X0024714Y0022986D01*
X0024714Y0031212D01*
X0025237Y0031734D02*
X0017500Y0031734D01*
X0017500Y0032333D02*
X0044136Y0032333D01*
X0043537Y0031734D02*
X0031110Y0031734D01*
X0031632Y0031136D02*
X0042939Y0031136D01*
X0042340Y0030537D02*
X0031632Y0030537D01*
X0031632Y0029939D02*
X0042200Y0029939D01*
X0042200Y0029340D02*
X0031632Y0029340D01*
X0031632Y0028742D02*
X0042200Y0028742D01*
X0042200Y0028143D02*
X0031632Y0028143D01*
X0031632Y0027545D02*
X0042200Y0027545D01*
X0042200Y0026946D02*
X0031632Y0026946D01*
X0031632Y0026348D02*
X0042200Y0026348D01*
X0042200Y0025749D02*
X0031632Y0025749D01*
X0031632Y0025151D02*
X0042200Y0025151D01*
X0042200Y0024552D02*
X0031632Y0024552D01*
X0031632Y0023954D02*
X0042200Y0023954D01*
X0042200Y0023355D02*
X0031632Y0023355D01*
X0031403Y0022757D02*
X0042200Y0022757D01*
X0042200Y0022158D02*
X0017500Y0022158D01*
X0017500Y0021560D02*
X0042200Y0021560D01*
X0042200Y0020961D02*
X0017500Y0020961D01*
X0017500Y0020363D02*
X0042200Y0020363D01*
X0042200Y0019764D02*
X0017500Y0019764D01*
X0017500Y0019166D02*
X0042200Y0019166D01*
X0042200Y0018567D02*
X0031632Y0018567D01*
X0031632Y0018614D02*
X0031105Y0019141D01*
X0025241Y0019141D01*
X0024714Y0018614D01*
X0024714Y0010388D01*
X0025241Y0009861D01*
X0031105Y0009861D01*
X0031632Y0010388D01*
X0031632Y0018614D01*
X0031632Y0017969D02*
X0042334Y0017969D01*
X0042933Y0017370D02*
X0031632Y0017370D01*
X0031632Y0016772D02*
X0043531Y0016772D01*
X0044130Y0016173D02*
X0031632Y0016173D01*
X0031632Y0015575D02*
X0044728Y0015575D01*
X0045327Y0014976D02*
X0031632Y0014976D01*
X0031632Y0014378D02*
X0045925Y0014378D01*
X0046368Y0013779D02*
X0031632Y0013779D01*
X0031632Y0013181D02*
X0046368Y0013181D01*
X0046368Y0012582D02*
X0031632Y0012582D01*
X0031632Y0011984D02*
X0046368Y0011984D01*
X0046368Y0011385D02*
X0031632Y0011385D01*
X0031632Y0010787D02*
X0046368Y0010787D01*
X0046567Y0010188D02*
X0031433Y0010188D01*
X0024914Y0010188D02*
X0013568Y0010188D01*
X0013568Y0010787D02*
X0024714Y0010787D01*
X0024714Y0011385D02*
X0013479Y0011385D01*
X0013231Y0011984D02*
X0024714Y0011984D01*
X0024714Y0012582D02*
X0013579Y0012582D01*
X0014178Y0013181D02*
X0024714Y0013181D01*
X0024714Y0013779D02*
X0014776Y0013779D01*
X0015375Y0014378D02*
X0024714Y0014378D01*
X0024714Y0014976D02*
X0015973Y0014976D01*
X0016572Y0015575D02*
X0024714Y0015575D01*
X0024714Y0016173D02*
X0017170Y0016173D01*
X0017500Y0016772D02*
X0024714Y0016772D01*
X0024714Y0017370D02*
X0017500Y0017370D01*
X0017500Y0017969D02*
X0024714Y0017969D01*
X0024714Y0018567D02*
X0017500Y0018567D01*
X0016300Y0017000D02*
X0016300Y0091800D01*
X0019500Y0095000D01*
X0020100Y0095000D01*
X0027159Y0099965D02*
X0050568Y0099965D01*
X0049969Y0099366D02*
X0027757Y0099366D01*
X0028356Y0098768D02*
X0049371Y0098768D01*
X0048772Y0098169D02*
X0028450Y0098169D01*
X0028450Y0097571D02*
X0048174Y0097571D01*
X0047575Y0096972D02*
X0031251Y0096972D01*
X0031850Y0096374D02*
X0046977Y0096374D01*
X0046378Y0095775D02*
X0033422Y0095775D01*
X0034020Y0095177D02*
X0045780Y0095177D01*
X0045181Y0094578D02*
X0034619Y0094578D01*
X0035217Y0093980D02*
X0044583Y0093980D01*
X0043984Y0093381D02*
X0035816Y0093381D01*
X0036414Y0092783D02*
X0043386Y0092783D01*
X0042787Y0092184D02*
X0037013Y0092184D01*
X0037611Y0091586D02*
X0042189Y0091586D01*
X0041590Y0090987D02*
X0038210Y0090987D01*
X0038808Y0090389D02*
X0040992Y0090389D01*
X0040393Y0089790D02*
X0039407Y0089790D01*
X0039900Y0087600D02*
X0032500Y0095000D01*
X0029900Y0095000D01*
X0028549Y0096972D02*
X0028450Y0096972D01*
X0030100Y0091100D02*
X0030100Y0085300D01*
X0034600Y0080800D01*
X0034600Y0076324D01*
X0040781Y0070144D01*
X0042173Y0071536D02*
X0037000Y0076708D01*
X0037000Y0077800D01*
X0039900Y0076592D02*
X0043564Y0072927D01*
X0039900Y0076592D02*
X0039900Y0087600D01*
X0052700Y0100400D01*
X0059700Y0100400D01*
X0061600Y0104154D02*
X0041937Y0104154D01*
X0041937Y0104753D02*
X0061600Y0104753D01*
X0064052Y0107745D02*
X0064400Y0107745D01*
X0064400Y0108344D02*
X0063453Y0108344D01*
X0063070Y0108942D02*
X0064400Y0108942D01*
X0064400Y0109541D02*
X0063318Y0109541D01*
X0063372Y0110139D02*
X0064400Y0110139D01*
X0064400Y0110738D02*
X0063372Y0110738D01*
X0063286Y0111337D02*
X0064400Y0111337D01*
X0064400Y0111935D02*
X0063038Y0111935D01*
X0062759Y0112534D02*
X0064400Y0112534D01*
X0064535Y0113132D02*
X0062160Y0113132D01*
X0061254Y0113731D02*
X0065134Y0113731D01*
X0065732Y0114329D02*
X0058026Y0114329D01*
X0058625Y0114928D02*
X0066331Y0114928D01*
X0066929Y0115526D02*
X0059223Y0115526D01*
X0059822Y0116125D02*
X0076700Y0116125D01*
X0076700Y0116723D02*
X0071452Y0116723D01*
X0071263Y0116627D02*
X0071834Y0116918D01*
X0072352Y0117294D01*
X0072806Y0117747D01*
X0073182Y0118266D01*
X0073473Y0118837D01*
X0073671Y0119447D01*
X0073772Y0120080D01*
X0073772Y0120100D01*
X0070000Y0120100D01*
X0070000Y0120700D01*
X0073772Y0120700D01*
X0073772Y0120720D01*
X0073671Y0121353D01*
X0073473Y0121963D01*
X0073182Y0122534D01*
X0072806Y0123052D01*
X0072352Y0123506D01*
X0071834Y0123882D01*
X0071263Y0124173D01*
X0070653Y0124371D01*
X0070020Y0124472D01*
X0070000Y0124472D01*
X0070000Y0120700D01*
X0069400Y0120700D01*
X0069400Y0124472D01*
X0069380Y0124472D01*
X0068747Y0124371D01*
X0068137Y0124173D01*
X0067566Y0123882D01*
X0067047Y0123506D01*
X0066594Y0123052D01*
X0066218Y0122534D01*
X0065927Y0121963D01*
X0065729Y0121353D01*
X0065628Y0120720D01*
X0065628Y0120700D01*
X0069400Y0120700D01*
X0069400Y0120100D01*
X0070000Y0120100D01*
X0070000Y0116328D01*
X0070020Y0116328D01*
X0070653Y0116429D01*
X0071263Y0116627D01*
X0070000Y0116723D02*
X0069400Y0116723D01*
X0069400Y0116328D02*
X0069400Y0120100D01*
X0065628Y0120100D01*
X0065628Y0120080D01*
X0065729Y0119447D01*
X0065927Y0118837D01*
X0066218Y0118266D01*
X0066594Y0117747D01*
X0067047Y0117294D01*
X0067566Y0116918D01*
X0068137Y0116627D01*
X0068747Y0116429D01*
X0069380Y0116328D01*
X0069400Y0116328D01*
X0069400Y0117322D02*
X0070000Y0117322D01*
X0070000Y0117920D02*
X0069400Y0117920D01*
X0069400Y0118519D02*
X0070000Y0118519D01*
X0070000Y0119117D02*
X0069400Y0119117D01*
X0069400Y0119716D02*
X0070000Y0119716D01*
X0070000Y0120314D02*
X0076700Y0120314D01*
X0076700Y0119716D02*
X0073714Y0119716D01*
X0073564Y0119117D02*
X0076700Y0119117D01*
X0076700Y0118519D02*
X0073311Y0118519D01*
X0072931Y0117920D02*
X0076700Y0117920D01*
X0076700Y0117322D02*
X0072380Y0117322D01*
X0073741Y0120913D02*
X0076700Y0120913D01*
X0076700Y0121511D02*
X0073620Y0121511D01*
X0073399Y0122110D02*
X0076700Y0122110D01*
X0076700Y0122708D02*
X0073056Y0122708D01*
X0072551Y0123307D02*
X0076910Y0123307D01*
X0077508Y0123905D02*
X0071789Y0123905D01*
X0072538Y0125102D02*
X0074462Y0125102D01*
X0073742Y0125701D02*
X0073258Y0125701D01*
X0070000Y0123905D02*
X0069400Y0123905D01*
X0069400Y0123307D02*
X0070000Y0123307D01*
X0070000Y0122708D02*
X0069400Y0122708D01*
X0069400Y0122110D02*
X0070000Y0122110D01*
X0070000Y0121511D02*
X0069400Y0121511D01*
X0069400Y0120913D02*
X0070000Y0120913D01*
X0069400Y0120314D02*
X0063372Y0120314D01*
X0063372Y0119716D02*
X0065686Y0119716D01*
X0065836Y0119117D02*
X0063143Y0119117D01*
X0062895Y0118519D02*
X0066089Y0118519D01*
X0066469Y0117920D02*
X0062413Y0117920D01*
X0061814Y0117322D02*
X0067020Y0117322D01*
X0067948Y0116723D02*
X0060420Y0116723D01*
X0059700Y0117700D02*
X0054900Y0112900D01*
X0053700Y0109541D02*
X0043512Y0109541D01*
X0043512Y0108942D02*
X0053700Y0108942D01*
X0053700Y0108344D02*
X0043512Y0108344D01*
X0043508Y0107745D02*
X0053758Y0107745D01*
X0054356Y0107147D02*
X0043260Y0107147D01*
X0041747Y0105950D02*
X0055553Y0105950D01*
X0054955Y0106548D02*
X0040895Y0106548D01*
X0041937Y0105351D02*
X0056152Y0105351D01*
X0057586Y0117322D02*
X0049668Y0117322D01*
X0049668Y0117920D02*
X0056987Y0117920D01*
X0056505Y0118519D02*
X0049668Y0118519D01*
X0049668Y0119117D02*
X0056257Y0119117D01*
X0056028Y0119716D02*
X0049668Y0119716D01*
X0049668Y0120314D02*
X0056028Y0120314D01*
X0056028Y0120913D02*
X0049668Y0120913D01*
X0049668Y0121511D02*
X0056186Y0121511D01*
X0056434Y0122110D02*
X0049668Y0122110D01*
X0049345Y0122708D02*
X0056816Y0122708D01*
X0057414Y0123307D02*
X0043830Y0123307D01*
X0043850Y0123905D02*
X0058568Y0123905D01*
X0059462Y0125102D02*
X0057538Y0125102D01*
X0058258Y0125701D02*
X0058742Y0125701D01*
X0060832Y0123905D02*
X0067611Y0123905D01*
X0066849Y0123307D02*
X0061986Y0123307D01*
X0062584Y0122708D02*
X0066344Y0122708D01*
X0066001Y0122110D02*
X0062966Y0122110D01*
X0063214Y0121511D02*
X0065780Y0121511D01*
X0065659Y0120913D02*
X0063372Y0120913D01*
X0059700Y0120400D02*
X0059700Y0117700D01*
X0062538Y0125102D02*
X0064462Y0125102D01*
X0063742Y0125701D02*
X0063258Y0125701D01*
X0067538Y0125102D02*
X0069462Y0125102D01*
X0068742Y0125701D02*
X0068258Y0125701D01*
X0066000Y0132800D02*
X0071000Y0132800D01*
X0071000Y0134200D01*
X0073000Y0136200D01*
X0078600Y0136200D01*
X0081300Y0133500D01*
X0081300Y0126000D01*
X0077900Y0122600D01*
X0077900Y0114500D01*
X0067600Y0114500D01*
X0065600Y0112500D01*
X0065600Y0104500D01*
X0069700Y0100400D01*
X0072300Y0095900D02*
X0073600Y0095900D01*
X0075500Y0097800D01*
X0075500Y0108700D01*
X0080100Y0113300D01*
X0080100Y0120800D01*
X0089700Y0130400D01*
X0088046Y0126898D02*
X0087895Y0126898D01*
X0087296Y0126299D02*
X0093800Y0126299D01*
X0093800Y0125701D02*
X0086698Y0125701D01*
X0086099Y0125102D02*
X0093800Y0125102D01*
X0093800Y0124504D02*
X0085501Y0124504D01*
X0084902Y0123905D02*
X0088054Y0123905D01*
X0087136Y0123307D02*
X0084304Y0123307D01*
X0083705Y0122708D02*
X0086537Y0122708D01*
X0086221Y0122110D02*
X0083107Y0122110D01*
X0082508Y0121511D02*
X0085973Y0121511D01*
X0085831Y0120913D02*
X0081910Y0120913D01*
X0081311Y0120314D02*
X0085831Y0120314D01*
X0085831Y0119716D02*
X0081300Y0119716D01*
X0081300Y0119117D02*
X0086044Y0119117D01*
X0086122Y0118519D02*
X0081300Y0118519D01*
X0081300Y0117920D02*
X0085523Y0117920D01*
X0084925Y0117322D02*
X0081300Y0117322D01*
X0081300Y0116723D02*
X0084326Y0116723D01*
X0083728Y0116125D02*
X0081300Y0116125D01*
X0081300Y0115526D02*
X0083129Y0115526D01*
X0082531Y0114928D02*
X0081300Y0114928D01*
X0081300Y0114329D02*
X0081932Y0114329D01*
X0081334Y0113731D02*
X0081300Y0113731D01*
X0077000Y0107700D02*
X0077000Y0095700D01*
X0074000Y0092700D01*
X0073236Y0090987D02*
X0080400Y0090987D01*
X0080400Y0090389D02*
X0073835Y0090389D01*
X0073850Y0089790D02*
X0080400Y0089790D01*
X0080400Y0089192D02*
X0073850Y0089192D01*
X0073850Y0088593D02*
X0080400Y0088593D01*
X0080400Y0087995D02*
X0073418Y0087995D01*
X0072819Y0087396D02*
X0080400Y0087396D01*
X0080400Y0086798D02*
X0070595Y0086798D01*
X0070100Y0086199D02*
X0080400Y0086199D01*
X0080400Y0085601D02*
X0070100Y0085601D01*
X0070100Y0085002D02*
X0080400Y0085002D01*
X0080400Y0084403D02*
X0070100Y0084403D01*
X0070100Y0083805D02*
X0071524Y0083805D01*
X0071228Y0083206D02*
X0070100Y0083206D01*
X0070100Y0082608D02*
X0071228Y0082608D01*
X0071228Y0082009D02*
X0070100Y0082009D01*
X0070100Y0081411D02*
X0071228Y0081411D01*
X0070915Y0080812D02*
X0070100Y0080812D01*
X0070100Y0080214D02*
X0070317Y0080214D01*
X0081600Y0074773D02*
X0072795Y0065968D01*
X0081946Y0070638D02*
X0085831Y0070638D01*
X0085859Y0071236D02*
X0082545Y0071236D01*
X0083143Y0071835D02*
X0086107Y0071835D01*
X0086355Y0072433D02*
X0083742Y0072433D01*
X0084340Y0073032D02*
X0086861Y0073032D01*
X0087459Y0073630D02*
X0084600Y0073630D01*
X0081600Y0074773D02*
X0081600Y0102300D01*
X0089700Y0110400D01*
X0086523Y0115526D02*
X0093800Y0115526D01*
X0093800Y0114928D02*
X0085925Y0114928D01*
X0087122Y0116125D02*
X0093800Y0116125D01*
X0093800Y0116723D02*
X0090932Y0116723D01*
X0092093Y0117322D02*
X0093800Y0117322D01*
X0093800Y0117920D02*
X0092691Y0117920D01*
X0093108Y0118519D02*
X0093800Y0118519D01*
X0093800Y0119117D02*
X0093356Y0119117D01*
X0093568Y0119716D02*
X0093800Y0119716D01*
X0093800Y0120314D02*
X0093568Y0120314D01*
X0093568Y0120913D02*
X0093800Y0120913D01*
X0093800Y0121511D02*
X0093427Y0121511D01*
X0093179Y0122110D02*
X0093800Y0122110D01*
X0093800Y0122708D02*
X0092863Y0122708D01*
X0092264Y0123307D02*
X0093800Y0123307D01*
X0093800Y0123905D02*
X0091346Y0123905D01*
X0091354Y0126898D02*
X0093800Y0126898D01*
X0093800Y0127496D02*
X0092267Y0127496D01*
X0092866Y0128095D02*
X0093800Y0128095D01*
X0093800Y0128693D02*
X0093180Y0128693D01*
X0093428Y0129292D02*
X0093800Y0129292D01*
X0093800Y0129890D02*
X0093568Y0129890D01*
X0093568Y0130489D02*
X0093800Y0130489D01*
X0093800Y0131087D02*
X0093568Y0131087D01*
X0093355Y0131686D02*
X0093800Y0131686D01*
X0093800Y0132284D02*
X0093107Y0132284D01*
X0092688Y0132883D02*
X0093800Y0132883D01*
X0093800Y0133481D02*
X0092089Y0133481D01*
X0090925Y0134080D02*
X0093800Y0134080D01*
X0093800Y0134678D02*
X0081819Y0134678D01*
X0082417Y0134080D02*
X0088475Y0134080D01*
X0087311Y0133481D02*
X0082500Y0133481D01*
X0082500Y0132883D02*
X0086712Y0132883D01*
X0086293Y0132284D02*
X0082500Y0132284D01*
X0082500Y0131686D02*
X0086045Y0131686D01*
X0085831Y0131087D02*
X0082500Y0131087D01*
X0082500Y0130489D02*
X0085831Y0130489D01*
X0085831Y0129890D02*
X0082500Y0129890D01*
X0082500Y0129292D02*
X0085972Y0129292D01*
X0086220Y0128693D02*
X0082500Y0128693D01*
X0082500Y0128095D02*
X0085698Y0128095D01*
X0085099Y0127496D02*
X0082500Y0127496D01*
X0082500Y0126898D02*
X0084501Y0126898D01*
X0083902Y0126299D02*
X0082500Y0126299D01*
X0082500Y0125701D02*
X0083304Y0125701D01*
X0082705Y0125102D02*
X0082099Y0125102D01*
X0082107Y0124504D02*
X0081501Y0124504D01*
X0081508Y0123905D02*
X0080902Y0123905D01*
X0080910Y0123307D02*
X0080304Y0123307D01*
X0080311Y0122708D02*
X0079705Y0122708D01*
X0079713Y0122110D02*
X0079107Y0122110D01*
X0079100Y0121511D02*
X0079114Y0121511D01*
X0087720Y0116723D02*
X0088468Y0116723D01*
X0089700Y0120400D02*
X0077000Y0107700D01*
X0084600Y0086199D02*
X0093800Y0086199D01*
X0093800Y0085601D02*
X0084600Y0085601D01*
X0084600Y0085002D02*
X0093800Y0085002D01*
X0088109Y0056872D02*
X0087869Y0056872D01*
X0087270Y0056273D02*
X0093800Y0056273D01*
X0093800Y0055675D02*
X0086672Y0055675D01*
X0086073Y0055076D02*
X0093800Y0055076D01*
X0093800Y0054478D02*
X0085475Y0054478D01*
X0084501Y0047296D02*
X0087333Y0047296D01*
X0088530Y0046697D02*
X0085100Y0046697D01*
X0079592Y0041311D02*
X0073200Y0041311D01*
X0073200Y0041909D02*
X0078994Y0041909D01*
X0078395Y0042508D02*
X0072897Y0042508D01*
X0072299Y0043106D02*
X0077797Y0043106D01*
X0077198Y0043705D02*
X0071700Y0043705D01*
X0071102Y0044303D02*
X0076600Y0044303D01*
X0078769Y0040712D02*
X0080191Y0040712D01*
X0080789Y0040114D02*
X0079172Y0040114D01*
X0079172Y0039515D02*
X0081388Y0039515D01*
X0081986Y0038917D02*
X0079172Y0038917D01*
X0079172Y0038318D02*
X0082585Y0038318D01*
X0083183Y0037720D02*
X0079172Y0037720D01*
X0079635Y0037121D02*
X0083782Y0037121D01*
X0084380Y0036523D02*
X0080234Y0036523D01*
X0080600Y0035924D02*
X0084979Y0035924D01*
X0085577Y0035326D02*
X0080600Y0035326D01*
X0080600Y0034727D02*
X0086176Y0034727D01*
X0086774Y0034129D02*
X0080600Y0034129D01*
X0080600Y0033530D02*
X0087359Y0033530D01*
X0086761Y0032932D02*
X0080600Y0032932D01*
X0080600Y0032333D02*
X0086313Y0032333D01*
X0086066Y0031734D02*
X0080600Y0031734D01*
X0080600Y0031136D02*
X0085831Y0031136D01*
X0085831Y0030537D02*
X0080600Y0030537D01*
X0080600Y0029939D02*
X0085831Y0029939D01*
X0085952Y0029340D02*
X0080600Y0029340D01*
X0080600Y0028742D02*
X0086200Y0028742D01*
X0086486Y0028143D02*
X0080710Y0028143D01*
X0080812Y0027545D02*
X0087084Y0027545D01*
X0087929Y0026946D02*
X0080812Y0026946D01*
X0080812Y0026348D02*
X0093800Y0026348D01*
X0093800Y0026946D02*
X0091471Y0026946D01*
X0091229Y0023954D02*
X0093800Y0023954D01*
X0093800Y0024552D02*
X0080812Y0024552D01*
X0080812Y0023954D02*
X0088171Y0023954D01*
X0087184Y0023355D02*
X0080808Y0023355D01*
X0080812Y0025151D02*
X0093800Y0025151D01*
X0093800Y0025749D02*
X0080812Y0025749D01*
X0071354Y0026348D02*
X0070754Y0026348D01*
X0070754Y0026946D02*
X0071354Y0026946D01*
X0071354Y0027545D02*
X0070754Y0027545D01*
X0070754Y0028143D02*
X0071354Y0028143D01*
X0071354Y0028742D02*
X0070754Y0028742D01*
X0070754Y0024552D02*
X0071354Y0024552D01*
X0071354Y0023954D02*
X0070754Y0023954D01*
X0070754Y0023355D02*
X0071354Y0023355D01*
X0071354Y0022757D02*
X0070754Y0022757D01*
X0066146Y0016173D02*
X0093800Y0016173D01*
X0093800Y0015575D02*
X0066146Y0015575D01*
X0067677Y0014976D02*
X0093800Y0014976D01*
X0093800Y0014378D02*
X0068012Y0014378D01*
X0069159Y0033441D02*
X0069100Y0033500D01*
X0054330Y0026946D02*
X0053286Y0026946D01*
X0053286Y0027545D02*
X0053732Y0027545D01*
X0046368Y0027545D02*
X0044600Y0027545D01*
X0044600Y0028143D02*
X0046368Y0028143D01*
X0046368Y0028742D02*
X0044600Y0028742D01*
X0044600Y0029340D02*
X0046368Y0029340D01*
X0046368Y0029939D02*
X0045136Y0029939D01*
X0045735Y0030537D02*
X0046368Y0030537D01*
X0046368Y0031136D02*
X0046333Y0031136D01*
X0046368Y0026946D02*
X0044600Y0026946D01*
X0044600Y0026348D02*
X0046368Y0026348D01*
X0046368Y0025749D02*
X0044600Y0025749D01*
X0044600Y0025151D02*
X0046368Y0025151D01*
X0046368Y0024552D02*
X0044600Y0024552D01*
X0044600Y0023954D02*
X0046368Y0023954D01*
X0046368Y0023355D02*
X0044600Y0023355D01*
X0044600Y0022757D02*
X0046597Y0022757D01*
X0046368Y0018567D02*
X0045130Y0018567D01*
X0045728Y0017969D02*
X0046368Y0017969D01*
X0046368Y0017370D02*
X0046327Y0017370D01*
X0024944Y0022757D02*
X0017500Y0022757D01*
X0017500Y0023355D02*
X0024714Y0023355D01*
X0016300Y0017000D02*
X0009700Y0010400D01*
X0007749Y0013779D02*
X0005600Y0013779D01*
X0005600Y0013181D02*
X0007010Y0013181D01*
X0006417Y0012582D02*
X0005600Y0012582D01*
X0005600Y0011984D02*
X0006169Y0011984D01*
X0005921Y0011385D02*
X0005600Y0011385D01*
X0005600Y0010787D02*
X0005831Y0010787D01*
X0005831Y0010188D02*
X0005600Y0010188D01*
X0005600Y0009590D02*
X0005848Y0009590D01*
X0005600Y0008991D02*
X0006096Y0008991D01*
X0006344Y0008393D02*
X0005600Y0008393D01*
X0005600Y0007794D02*
X0006835Y0007794D01*
X0007434Y0007196D02*
X0005600Y0007196D01*
X0005600Y0006597D02*
X0008772Y0006597D01*
X0010628Y0006597D02*
X0088772Y0006597D01*
X0087434Y0007196D02*
X0011966Y0007196D01*
X0012565Y0007794D02*
X0086835Y0007794D01*
X0086344Y0008393D02*
X0013056Y0008393D01*
X0011981Y0014378D02*
X0005600Y0014378D01*
X0005600Y0014976D02*
X0012579Y0014976D01*
X0013178Y0015575D02*
X0005600Y0015575D01*
X0005600Y0016173D02*
X0013776Y0016173D01*
X0037997Y0067360D02*
X0029100Y0076256D01*
X0029100Y0082100D01*
X0032000Y0078900D02*
X0032000Y0076140D01*
X0039389Y0068752D01*
X0034141Y0103500D02*
X0032000Y0103500D01*
X0031863Y0105351D02*
X0031846Y0105351D01*
X0032168Y0105950D02*
X0031247Y0105950D01*
X0031200Y0106548D02*
X0037623Y0106548D01*
X0036833Y0107147D02*
X0036007Y0107147D01*
X0036419Y0107745D02*
X0036585Y0107745D01*
X0036581Y0108344D02*
X0036419Y0108344D01*
X0036419Y0108942D02*
X0036581Y0108942D01*
X0036581Y0109541D02*
X0036419Y0109541D01*
X0036419Y0110139D02*
X0039746Y0110139D01*
X0036581Y0110738D02*
X0036419Y0110738D01*
X0036487Y0111337D02*
X0036581Y0111337D01*
X0037354Y0113900D02*
X0033354Y0109900D01*
X0036113Y0105950D02*
X0036772Y0105950D01*
X0036581Y0105351D02*
X0036419Y0105351D01*
X0036419Y0104753D02*
X0036581Y0104753D01*
X0036581Y0104154D02*
X0036419Y0104154D01*
X0037354Y0113900D02*
X0042200Y0113900D01*
X0043400Y0117322D02*
X0043931Y0117322D01*
X0043931Y0117920D02*
X0043400Y0117920D01*
X0043141Y0118519D02*
X0043931Y0118519D01*
X0043931Y0119117D02*
X0041965Y0119117D01*
X0041965Y0119716D02*
X0043931Y0119716D01*
X0043931Y0120314D02*
X0041965Y0120314D01*
X0041500Y0124300D02*
X0039759Y0126041D01*
X0039759Y0129770D01*
X0037200Y0129770D02*
X0037200Y0125000D01*
X0037900Y0124300D01*
X0043478Y0126213D02*
X0044005Y0126740D01*
X0044005Y0127765D01*
X0044005Y0127496D02*
X0044263Y0127496D01*
X0044005Y0126898D02*
X0044861Y0126898D01*
X0046084Y0126299D02*
X0043565Y0126299D01*
X0048001Y0126299D02*
X0053287Y0126299D01*
X0053039Y0126898D02*
X0049224Y0126898D01*
X0049822Y0127496D02*
X0052919Y0127496D01*
X0052919Y0128095D02*
X0050216Y0128095D01*
X0050464Y0128693D02*
X0053035Y0128693D01*
X0053283Y0129292D02*
X0050616Y0129292D01*
X0050616Y0129890D02*
X0053733Y0129890D01*
X0053954Y0130489D02*
X0050612Y0130489D01*
X0050365Y0131087D02*
X0053374Y0131087D01*
X0053127Y0131686D02*
X0050117Y0131686D01*
X0049581Y0132284D02*
X0052919Y0132284D01*
X0052919Y0132883D02*
X0048865Y0132883D01*
X0049233Y0136474D02*
X0045472Y0136474D01*
X0045447Y0136449D02*
X0045974Y0136976D01*
X0045974Y0143824D01*
X0045447Y0144351D01*
X0037811Y0144351D01*
X0037284Y0143824D01*
X0037284Y0136976D01*
X0037811Y0136449D01*
X0045447Y0136449D01*
X0045974Y0137072D02*
X0048232Y0137072D01*
X0047634Y0137671D02*
X0045974Y0137671D01*
X0045974Y0138270D02*
X0047212Y0138270D01*
X0046964Y0138868D02*
X0045974Y0138868D01*
X0045974Y0139467D02*
X0046717Y0139467D01*
X0046684Y0140065D02*
X0045974Y0140065D01*
X0045974Y0140664D02*
X0046684Y0140664D01*
X0046687Y0141262D02*
X0045974Y0141262D01*
X0045974Y0141861D02*
X0046935Y0141861D01*
X0047183Y0142459D02*
X0045974Y0142459D01*
X0045974Y0143058D02*
X0047562Y0143058D01*
X0048161Y0143656D02*
X0045974Y0143656D01*
X0045543Y0144255D02*
X0049060Y0144255D01*
X0052899Y0144255D02*
X0088897Y0144255D01*
X0088930Y0144268D02*
X0087509Y0143680D01*
X0086420Y0142591D01*
X0085831Y0141169D01*
X0085831Y0139630D01*
X0086420Y0138209D01*
X0087509Y0137120D01*
X0088930Y0136531D01*
X0090469Y0136531D01*
X0091891Y0137120D01*
X0092980Y0138209D01*
X0093568Y0139630D01*
X0093568Y0141169D01*
X0092980Y0142591D01*
X0091891Y0143680D01*
X0090469Y0144268D01*
X0088930Y0144268D01*
X0090503Y0144255D02*
X0093800Y0144255D01*
X0093800Y0143656D02*
X0091915Y0143656D01*
X0092513Y0143058D02*
X0093800Y0143058D01*
X0093800Y0142459D02*
X0093034Y0142459D01*
X0093282Y0141861D02*
X0093800Y0141861D01*
X0093800Y0141262D02*
X0093530Y0141262D01*
X0093568Y0140664D02*
X0093800Y0140664D01*
X0093800Y0140065D02*
X0093568Y0140065D01*
X0093501Y0139467D02*
X0093800Y0139467D01*
X0093800Y0138868D02*
X0093253Y0138868D01*
X0093005Y0138270D02*
X0093800Y0138270D01*
X0093800Y0137671D02*
X0092442Y0137671D01*
X0091776Y0137072D02*
X0093800Y0137072D01*
X0093800Y0136474D02*
X0080023Y0136474D01*
X0079425Y0137072D02*
X0087624Y0137072D01*
X0086958Y0137671D02*
X0054326Y0137671D01*
X0054747Y0138270D02*
X0086395Y0138270D01*
X0086147Y0138868D02*
X0054995Y0138868D01*
X0055242Y0139467D02*
X0085899Y0139467D01*
X0085831Y0140065D02*
X0055275Y0140065D01*
X0055275Y0140664D02*
X0085831Y0140664D01*
X0085870Y0141262D02*
X0055272Y0141262D01*
X0055024Y0141861D02*
X0086118Y0141861D01*
X0086366Y0142459D02*
X0054776Y0142459D01*
X0054397Y0143058D02*
X0086887Y0143058D01*
X0087485Y0143656D02*
X0053798Y0143656D01*
X0053727Y0137072D02*
X0057375Y0137072D01*
X0056777Y0136474D02*
X0052726Y0136474D01*
X0054120Y0135277D02*
X0042720Y0135277D01*
X0042122Y0135875D02*
X0055374Y0135875D01*
X0056000Y0134000D02*
X0058200Y0136200D01*
X0064000Y0136200D01*
X0066000Y0134200D01*
X0066000Y0132800D01*
X0067880Y0135277D02*
X0069120Y0135277D01*
X0068521Y0134678D02*
X0068479Y0134678D01*
X0066626Y0135875D02*
X0070374Y0135875D01*
X0071577Y0136474D02*
X0065423Y0136474D01*
X0064825Y0137072D02*
X0072175Y0137072D01*
X0080622Y0135875D02*
X0093800Y0135875D01*
X0093800Y0135277D02*
X0081220Y0135277D01*
X0056000Y0134000D02*
X0056000Y0132800D01*
X0053521Y0134678D02*
X0043319Y0134678D01*
X0043518Y0134080D02*
X0053195Y0134080D01*
X0052947Y0133481D02*
X0043518Y0133481D01*
X0043923Y0132883D02*
X0045220Y0132883D01*
X0044504Y0132284D02*
X0044005Y0132284D01*
X0037786Y0136474D02*
X0036614Y0136474D01*
X0037116Y0137072D02*
X0037284Y0137072D01*
X0037284Y0137671D02*
X0037116Y0137671D01*
X0037116Y0138270D02*
X0037284Y0138270D01*
X0037284Y0138868D02*
X0037116Y0138868D01*
X0037116Y0139467D02*
X0037284Y0139467D01*
X0037284Y0140065D02*
X0037116Y0140065D01*
X0037116Y0140664D02*
X0037284Y0140664D01*
X0037284Y0141262D02*
X0037116Y0141262D01*
X0037116Y0141861D02*
X0037284Y0141861D01*
X0037284Y0142459D02*
X0037116Y0142459D01*
X0037116Y0143058D02*
X0037284Y0143058D01*
X0037284Y0143656D02*
X0037116Y0143656D01*
X0036685Y0144255D02*
X0037715Y0144255D01*
X0028800Y0110139D02*
X0028063Y0110139D01*
X0027464Y0109541D02*
X0028800Y0109541D01*
X0091049Y0016772D02*
X0093800Y0016772D01*
X0093800Y0017370D02*
X0092141Y0017370D01*
X0092740Y0017969D02*
X0093800Y0017969D01*
X0093800Y0018567D02*
X0093128Y0018567D01*
X0093376Y0019166D02*
X0093800Y0019166D01*
X0093800Y0019764D02*
X0093568Y0019764D01*
X0093568Y0020363D02*
X0093800Y0020363D01*
X0093800Y0020961D02*
X0093568Y0020961D01*
X0093407Y0021560D02*
X0093800Y0021560D01*
X0093800Y0022158D02*
X0093159Y0022158D01*
X0092814Y0022757D02*
X0093800Y0022757D01*
X0093800Y0023355D02*
X0092216Y0023355D01*
X0091651Y0013779D02*
X0093800Y0013779D01*
X0093800Y0013181D02*
X0092390Y0013181D01*
X0092983Y0012582D02*
X0093800Y0012582D01*
X0093800Y0011984D02*
X0093231Y0011984D01*
X0093479Y0011385D02*
X0093800Y0011385D01*
X0093800Y0010787D02*
X0093568Y0010787D01*
X0093568Y0010188D02*
X0093800Y0010188D01*
X0093800Y0009590D02*
X0093552Y0009590D01*
X0093304Y0008991D02*
X0093800Y0008991D01*
X0093800Y0008393D02*
X0093056Y0008393D01*
X0092565Y0007794D02*
X0093800Y0007794D01*
X0093800Y0007196D02*
X0091966Y0007196D01*
X0090628Y0006597D02*
X0093800Y0006597D01*
D29*
X0064900Y0039000D03*
X0057900Y0049300D03*
X0052400Y0048400D03*
X0052400Y0052000D03*
X0049908Y0055000D03*
X0047700Y0051700D03*
X0053200Y0057500D03*
X0048000Y0064300D03*
X0042000Y0059300D03*
X0051400Y0073500D03*
X0051300Y0083500D03*
X0045000Y0082000D03*
X0042400Y0079500D03*
X0037000Y0077800D03*
X0032000Y0078900D03*
X0029100Y0082100D03*
X0030100Y0091100D03*
X0029900Y0095000D03*
X0026100Y0097700D03*
X0027600Y0103000D03*
X0026100Y0111500D03*
X0021400Y0124800D03*
X0037900Y0124300D03*
X0041500Y0124300D03*
X0060000Y0094100D03*
X0062600Y0090300D03*
X0069400Y0092700D03*
X0071500Y0089400D03*
X0072300Y0095900D03*
X0078900Y0079400D03*
X0079100Y0075900D03*
X0077900Y0061600D03*
X0080600Y0058400D03*
X0079500Y0054900D03*
X0061200Y0067500D03*
X0055500Y0029100D03*
X0020100Y0095000D03*
M02*
