G75*
%MOIN*%
%OFA0B0*%
%FSLAX25Y25*%
%IPPOS*%
%LPD*%
%AMOC8*
5,1,8,0,0,1.08239X$1,22.5*
%
%ADD10C,0.00000*%
%ADD11R,0.06693X0.06693*%
%ADD12R,0.01339X0.02559*%
%ADD13R,0.02559X0.01339*%
%ADD14R,0.06299X0.07087*%
%ADD15R,0.05906X0.05118*%
%ADD16R,0.22441X0.06299*%
%ADD17R,0.03937X0.04331*%
D10*
X0001000Y0002050D02*
X0001000Y0231459D01*
X0376079Y0231459D01*
X0376079Y0002050D01*
X0001000Y0002050D01*
X0169701Y0037050D02*
X0169703Y0037208D01*
X0169709Y0037366D01*
X0169719Y0037524D01*
X0169733Y0037682D01*
X0169751Y0037839D01*
X0169772Y0037996D01*
X0169798Y0038152D01*
X0169828Y0038308D01*
X0169861Y0038463D01*
X0169899Y0038616D01*
X0169940Y0038769D01*
X0169985Y0038921D01*
X0170034Y0039072D01*
X0170087Y0039221D01*
X0170143Y0039369D01*
X0170203Y0039515D01*
X0170267Y0039660D01*
X0170335Y0039803D01*
X0170406Y0039945D01*
X0170480Y0040085D01*
X0170558Y0040222D01*
X0170640Y0040358D01*
X0170724Y0040492D01*
X0170813Y0040623D01*
X0170904Y0040752D01*
X0170999Y0040879D01*
X0171096Y0041004D01*
X0171197Y0041126D01*
X0171301Y0041245D01*
X0171408Y0041362D01*
X0171518Y0041476D01*
X0171631Y0041587D01*
X0171746Y0041696D01*
X0171864Y0041801D01*
X0171985Y0041903D01*
X0172108Y0042003D01*
X0172234Y0042099D01*
X0172362Y0042192D01*
X0172492Y0042282D01*
X0172625Y0042368D01*
X0172760Y0042452D01*
X0172896Y0042531D01*
X0173035Y0042608D01*
X0173176Y0042680D01*
X0173318Y0042750D01*
X0173462Y0042815D01*
X0173608Y0042877D01*
X0173755Y0042935D01*
X0173904Y0042990D01*
X0174054Y0043041D01*
X0174205Y0043088D01*
X0174357Y0043131D01*
X0174510Y0043170D01*
X0174665Y0043206D01*
X0174820Y0043237D01*
X0174976Y0043265D01*
X0175132Y0043289D01*
X0175289Y0043309D01*
X0175447Y0043325D01*
X0175604Y0043337D01*
X0175763Y0043345D01*
X0175921Y0043349D01*
X0176079Y0043349D01*
X0176237Y0043345D01*
X0176396Y0043337D01*
X0176553Y0043325D01*
X0176711Y0043309D01*
X0176868Y0043289D01*
X0177024Y0043265D01*
X0177180Y0043237D01*
X0177335Y0043206D01*
X0177490Y0043170D01*
X0177643Y0043131D01*
X0177795Y0043088D01*
X0177946Y0043041D01*
X0178096Y0042990D01*
X0178245Y0042935D01*
X0178392Y0042877D01*
X0178538Y0042815D01*
X0178682Y0042750D01*
X0178824Y0042680D01*
X0178965Y0042608D01*
X0179104Y0042531D01*
X0179240Y0042452D01*
X0179375Y0042368D01*
X0179508Y0042282D01*
X0179638Y0042192D01*
X0179766Y0042099D01*
X0179892Y0042003D01*
X0180015Y0041903D01*
X0180136Y0041801D01*
X0180254Y0041696D01*
X0180369Y0041587D01*
X0180482Y0041476D01*
X0180592Y0041362D01*
X0180699Y0041245D01*
X0180803Y0041126D01*
X0180904Y0041004D01*
X0181001Y0040879D01*
X0181096Y0040752D01*
X0181187Y0040623D01*
X0181276Y0040492D01*
X0181360Y0040358D01*
X0181442Y0040222D01*
X0181520Y0040085D01*
X0181594Y0039945D01*
X0181665Y0039803D01*
X0181733Y0039660D01*
X0181797Y0039515D01*
X0181857Y0039369D01*
X0181913Y0039221D01*
X0181966Y0039072D01*
X0182015Y0038921D01*
X0182060Y0038769D01*
X0182101Y0038616D01*
X0182139Y0038463D01*
X0182172Y0038308D01*
X0182202Y0038152D01*
X0182228Y0037996D01*
X0182249Y0037839D01*
X0182267Y0037682D01*
X0182281Y0037524D01*
X0182291Y0037366D01*
X0182297Y0037208D01*
X0182299Y0037050D01*
X0182297Y0036892D01*
X0182291Y0036734D01*
X0182281Y0036576D01*
X0182267Y0036418D01*
X0182249Y0036261D01*
X0182228Y0036104D01*
X0182202Y0035948D01*
X0182172Y0035792D01*
X0182139Y0035637D01*
X0182101Y0035484D01*
X0182060Y0035331D01*
X0182015Y0035179D01*
X0181966Y0035028D01*
X0181913Y0034879D01*
X0181857Y0034731D01*
X0181797Y0034585D01*
X0181733Y0034440D01*
X0181665Y0034297D01*
X0181594Y0034155D01*
X0181520Y0034015D01*
X0181442Y0033878D01*
X0181360Y0033742D01*
X0181276Y0033608D01*
X0181187Y0033477D01*
X0181096Y0033348D01*
X0181001Y0033221D01*
X0180904Y0033096D01*
X0180803Y0032974D01*
X0180699Y0032855D01*
X0180592Y0032738D01*
X0180482Y0032624D01*
X0180369Y0032513D01*
X0180254Y0032404D01*
X0180136Y0032299D01*
X0180015Y0032197D01*
X0179892Y0032097D01*
X0179766Y0032001D01*
X0179638Y0031908D01*
X0179508Y0031818D01*
X0179375Y0031732D01*
X0179240Y0031648D01*
X0179104Y0031569D01*
X0178965Y0031492D01*
X0178824Y0031420D01*
X0178682Y0031350D01*
X0178538Y0031285D01*
X0178392Y0031223D01*
X0178245Y0031165D01*
X0178096Y0031110D01*
X0177946Y0031059D01*
X0177795Y0031012D01*
X0177643Y0030969D01*
X0177490Y0030930D01*
X0177335Y0030894D01*
X0177180Y0030863D01*
X0177024Y0030835D01*
X0176868Y0030811D01*
X0176711Y0030791D01*
X0176553Y0030775D01*
X0176396Y0030763D01*
X0176237Y0030755D01*
X0176079Y0030751D01*
X0175921Y0030751D01*
X0175763Y0030755D01*
X0175604Y0030763D01*
X0175447Y0030775D01*
X0175289Y0030791D01*
X0175132Y0030811D01*
X0174976Y0030835D01*
X0174820Y0030863D01*
X0174665Y0030894D01*
X0174510Y0030930D01*
X0174357Y0030969D01*
X0174205Y0031012D01*
X0174054Y0031059D01*
X0173904Y0031110D01*
X0173755Y0031165D01*
X0173608Y0031223D01*
X0173462Y0031285D01*
X0173318Y0031350D01*
X0173176Y0031420D01*
X0173035Y0031492D01*
X0172896Y0031569D01*
X0172760Y0031648D01*
X0172625Y0031732D01*
X0172492Y0031818D01*
X0172362Y0031908D01*
X0172234Y0032001D01*
X0172108Y0032097D01*
X0171985Y0032197D01*
X0171864Y0032299D01*
X0171746Y0032404D01*
X0171631Y0032513D01*
X0171518Y0032624D01*
X0171408Y0032738D01*
X0171301Y0032855D01*
X0171197Y0032974D01*
X0171096Y0033096D01*
X0170999Y0033221D01*
X0170904Y0033348D01*
X0170813Y0033477D01*
X0170724Y0033608D01*
X0170640Y0033742D01*
X0170558Y0033878D01*
X0170480Y0034015D01*
X0170406Y0034155D01*
X0170335Y0034297D01*
X0170267Y0034440D01*
X0170203Y0034585D01*
X0170143Y0034731D01*
X0170087Y0034879D01*
X0170034Y0035028D01*
X0169985Y0035179D01*
X0169940Y0035331D01*
X0169899Y0035484D01*
X0169861Y0035637D01*
X0169828Y0035792D01*
X0169798Y0035948D01*
X0169772Y0036104D01*
X0169751Y0036261D01*
X0169733Y0036418D01*
X0169719Y0036576D01*
X0169709Y0036734D01*
X0169703Y0036892D01*
X0169701Y0037050D01*
X0324701Y0015050D02*
X0324703Y0015208D01*
X0324709Y0015366D01*
X0324719Y0015524D01*
X0324733Y0015682D01*
X0324751Y0015839D01*
X0324772Y0015996D01*
X0324798Y0016152D01*
X0324828Y0016308D01*
X0324861Y0016463D01*
X0324899Y0016616D01*
X0324940Y0016769D01*
X0324985Y0016921D01*
X0325034Y0017072D01*
X0325087Y0017221D01*
X0325143Y0017369D01*
X0325203Y0017515D01*
X0325267Y0017660D01*
X0325335Y0017803D01*
X0325406Y0017945D01*
X0325480Y0018085D01*
X0325558Y0018222D01*
X0325640Y0018358D01*
X0325724Y0018492D01*
X0325813Y0018623D01*
X0325904Y0018752D01*
X0325999Y0018879D01*
X0326096Y0019004D01*
X0326197Y0019126D01*
X0326301Y0019245D01*
X0326408Y0019362D01*
X0326518Y0019476D01*
X0326631Y0019587D01*
X0326746Y0019696D01*
X0326864Y0019801D01*
X0326985Y0019903D01*
X0327108Y0020003D01*
X0327234Y0020099D01*
X0327362Y0020192D01*
X0327492Y0020282D01*
X0327625Y0020368D01*
X0327760Y0020452D01*
X0327896Y0020531D01*
X0328035Y0020608D01*
X0328176Y0020680D01*
X0328318Y0020750D01*
X0328462Y0020815D01*
X0328608Y0020877D01*
X0328755Y0020935D01*
X0328904Y0020990D01*
X0329054Y0021041D01*
X0329205Y0021088D01*
X0329357Y0021131D01*
X0329510Y0021170D01*
X0329665Y0021206D01*
X0329820Y0021237D01*
X0329976Y0021265D01*
X0330132Y0021289D01*
X0330289Y0021309D01*
X0330447Y0021325D01*
X0330604Y0021337D01*
X0330763Y0021345D01*
X0330921Y0021349D01*
X0331079Y0021349D01*
X0331237Y0021345D01*
X0331396Y0021337D01*
X0331553Y0021325D01*
X0331711Y0021309D01*
X0331868Y0021289D01*
X0332024Y0021265D01*
X0332180Y0021237D01*
X0332335Y0021206D01*
X0332490Y0021170D01*
X0332643Y0021131D01*
X0332795Y0021088D01*
X0332946Y0021041D01*
X0333096Y0020990D01*
X0333245Y0020935D01*
X0333392Y0020877D01*
X0333538Y0020815D01*
X0333682Y0020750D01*
X0333824Y0020680D01*
X0333965Y0020608D01*
X0334104Y0020531D01*
X0334240Y0020452D01*
X0334375Y0020368D01*
X0334508Y0020282D01*
X0334638Y0020192D01*
X0334766Y0020099D01*
X0334892Y0020003D01*
X0335015Y0019903D01*
X0335136Y0019801D01*
X0335254Y0019696D01*
X0335369Y0019587D01*
X0335482Y0019476D01*
X0335592Y0019362D01*
X0335699Y0019245D01*
X0335803Y0019126D01*
X0335904Y0019004D01*
X0336001Y0018879D01*
X0336096Y0018752D01*
X0336187Y0018623D01*
X0336276Y0018492D01*
X0336360Y0018358D01*
X0336442Y0018222D01*
X0336520Y0018085D01*
X0336594Y0017945D01*
X0336665Y0017803D01*
X0336733Y0017660D01*
X0336797Y0017515D01*
X0336857Y0017369D01*
X0336913Y0017221D01*
X0336966Y0017072D01*
X0337015Y0016921D01*
X0337060Y0016769D01*
X0337101Y0016616D01*
X0337139Y0016463D01*
X0337172Y0016308D01*
X0337202Y0016152D01*
X0337228Y0015996D01*
X0337249Y0015839D01*
X0337267Y0015682D01*
X0337281Y0015524D01*
X0337291Y0015366D01*
X0337297Y0015208D01*
X0337299Y0015050D01*
X0337297Y0014892D01*
X0337291Y0014734D01*
X0337281Y0014576D01*
X0337267Y0014418D01*
X0337249Y0014261D01*
X0337228Y0014104D01*
X0337202Y0013948D01*
X0337172Y0013792D01*
X0337139Y0013637D01*
X0337101Y0013484D01*
X0337060Y0013331D01*
X0337015Y0013179D01*
X0336966Y0013028D01*
X0336913Y0012879D01*
X0336857Y0012731D01*
X0336797Y0012585D01*
X0336733Y0012440D01*
X0336665Y0012297D01*
X0336594Y0012155D01*
X0336520Y0012015D01*
X0336442Y0011878D01*
X0336360Y0011742D01*
X0336276Y0011608D01*
X0336187Y0011477D01*
X0336096Y0011348D01*
X0336001Y0011221D01*
X0335904Y0011096D01*
X0335803Y0010974D01*
X0335699Y0010855D01*
X0335592Y0010738D01*
X0335482Y0010624D01*
X0335369Y0010513D01*
X0335254Y0010404D01*
X0335136Y0010299D01*
X0335015Y0010197D01*
X0334892Y0010097D01*
X0334766Y0010001D01*
X0334638Y0009908D01*
X0334508Y0009818D01*
X0334375Y0009732D01*
X0334240Y0009648D01*
X0334104Y0009569D01*
X0333965Y0009492D01*
X0333824Y0009420D01*
X0333682Y0009350D01*
X0333538Y0009285D01*
X0333392Y0009223D01*
X0333245Y0009165D01*
X0333096Y0009110D01*
X0332946Y0009059D01*
X0332795Y0009012D01*
X0332643Y0008969D01*
X0332490Y0008930D01*
X0332335Y0008894D01*
X0332180Y0008863D01*
X0332024Y0008835D01*
X0331868Y0008811D01*
X0331711Y0008791D01*
X0331553Y0008775D01*
X0331396Y0008763D01*
X0331237Y0008755D01*
X0331079Y0008751D01*
X0330921Y0008751D01*
X0330763Y0008755D01*
X0330604Y0008763D01*
X0330447Y0008775D01*
X0330289Y0008791D01*
X0330132Y0008811D01*
X0329976Y0008835D01*
X0329820Y0008863D01*
X0329665Y0008894D01*
X0329510Y0008930D01*
X0329357Y0008969D01*
X0329205Y0009012D01*
X0329054Y0009059D01*
X0328904Y0009110D01*
X0328755Y0009165D01*
X0328608Y0009223D01*
X0328462Y0009285D01*
X0328318Y0009350D01*
X0328176Y0009420D01*
X0328035Y0009492D01*
X0327896Y0009569D01*
X0327760Y0009648D01*
X0327625Y0009732D01*
X0327492Y0009818D01*
X0327362Y0009908D01*
X0327234Y0010001D01*
X0327108Y0010097D01*
X0326985Y0010197D01*
X0326864Y0010299D01*
X0326746Y0010404D01*
X0326631Y0010513D01*
X0326518Y0010624D01*
X0326408Y0010738D01*
X0326301Y0010855D01*
X0326197Y0010974D01*
X0326096Y0011096D01*
X0325999Y0011221D01*
X0325904Y0011348D01*
X0325813Y0011477D01*
X0325724Y0011608D01*
X0325640Y0011742D01*
X0325558Y0011878D01*
X0325480Y0012015D01*
X0325406Y0012155D01*
X0325335Y0012297D01*
X0325267Y0012440D01*
X0325203Y0012585D01*
X0325143Y0012731D01*
X0325087Y0012879D01*
X0325034Y0013028D01*
X0324985Y0013179D01*
X0324940Y0013331D01*
X0324899Y0013484D01*
X0324861Y0013637D01*
X0324828Y0013792D01*
X0324798Y0013948D01*
X0324772Y0014104D01*
X0324751Y0014261D01*
X0324733Y0014418D01*
X0324719Y0014576D01*
X0324709Y0014734D01*
X0324703Y0014892D01*
X0324701Y0015050D01*
X0169701Y0182050D02*
X0169703Y0182208D01*
X0169709Y0182366D01*
X0169719Y0182524D01*
X0169733Y0182682D01*
X0169751Y0182839D01*
X0169772Y0182996D01*
X0169798Y0183152D01*
X0169828Y0183308D01*
X0169861Y0183463D01*
X0169899Y0183616D01*
X0169940Y0183769D01*
X0169985Y0183921D01*
X0170034Y0184072D01*
X0170087Y0184221D01*
X0170143Y0184369D01*
X0170203Y0184515D01*
X0170267Y0184660D01*
X0170335Y0184803D01*
X0170406Y0184945D01*
X0170480Y0185085D01*
X0170558Y0185222D01*
X0170640Y0185358D01*
X0170724Y0185492D01*
X0170813Y0185623D01*
X0170904Y0185752D01*
X0170999Y0185879D01*
X0171096Y0186004D01*
X0171197Y0186126D01*
X0171301Y0186245D01*
X0171408Y0186362D01*
X0171518Y0186476D01*
X0171631Y0186587D01*
X0171746Y0186696D01*
X0171864Y0186801D01*
X0171985Y0186903D01*
X0172108Y0187003D01*
X0172234Y0187099D01*
X0172362Y0187192D01*
X0172492Y0187282D01*
X0172625Y0187368D01*
X0172760Y0187452D01*
X0172896Y0187531D01*
X0173035Y0187608D01*
X0173176Y0187680D01*
X0173318Y0187750D01*
X0173462Y0187815D01*
X0173608Y0187877D01*
X0173755Y0187935D01*
X0173904Y0187990D01*
X0174054Y0188041D01*
X0174205Y0188088D01*
X0174357Y0188131D01*
X0174510Y0188170D01*
X0174665Y0188206D01*
X0174820Y0188237D01*
X0174976Y0188265D01*
X0175132Y0188289D01*
X0175289Y0188309D01*
X0175447Y0188325D01*
X0175604Y0188337D01*
X0175763Y0188345D01*
X0175921Y0188349D01*
X0176079Y0188349D01*
X0176237Y0188345D01*
X0176396Y0188337D01*
X0176553Y0188325D01*
X0176711Y0188309D01*
X0176868Y0188289D01*
X0177024Y0188265D01*
X0177180Y0188237D01*
X0177335Y0188206D01*
X0177490Y0188170D01*
X0177643Y0188131D01*
X0177795Y0188088D01*
X0177946Y0188041D01*
X0178096Y0187990D01*
X0178245Y0187935D01*
X0178392Y0187877D01*
X0178538Y0187815D01*
X0178682Y0187750D01*
X0178824Y0187680D01*
X0178965Y0187608D01*
X0179104Y0187531D01*
X0179240Y0187452D01*
X0179375Y0187368D01*
X0179508Y0187282D01*
X0179638Y0187192D01*
X0179766Y0187099D01*
X0179892Y0187003D01*
X0180015Y0186903D01*
X0180136Y0186801D01*
X0180254Y0186696D01*
X0180369Y0186587D01*
X0180482Y0186476D01*
X0180592Y0186362D01*
X0180699Y0186245D01*
X0180803Y0186126D01*
X0180904Y0186004D01*
X0181001Y0185879D01*
X0181096Y0185752D01*
X0181187Y0185623D01*
X0181276Y0185492D01*
X0181360Y0185358D01*
X0181442Y0185222D01*
X0181520Y0185085D01*
X0181594Y0184945D01*
X0181665Y0184803D01*
X0181733Y0184660D01*
X0181797Y0184515D01*
X0181857Y0184369D01*
X0181913Y0184221D01*
X0181966Y0184072D01*
X0182015Y0183921D01*
X0182060Y0183769D01*
X0182101Y0183616D01*
X0182139Y0183463D01*
X0182172Y0183308D01*
X0182202Y0183152D01*
X0182228Y0182996D01*
X0182249Y0182839D01*
X0182267Y0182682D01*
X0182281Y0182524D01*
X0182291Y0182366D01*
X0182297Y0182208D01*
X0182299Y0182050D01*
X0182297Y0181892D01*
X0182291Y0181734D01*
X0182281Y0181576D01*
X0182267Y0181418D01*
X0182249Y0181261D01*
X0182228Y0181104D01*
X0182202Y0180948D01*
X0182172Y0180792D01*
X0182139Y0180637D01*
X0182101Y0180484D01*
X0182060Y0180331D01*
X0182015Y0180179D01*
X0181966Y0180028D01*
X0181913Y0179879D01*
X0181857Y0179731D01*
X0181797Y0179585D01*
X0181733Y0179440D01*
X0181665Y0179297D01*
X0181594Y0179155D01*
X0181520Y0179015D01*
X0181442Y0178878D01*
X0181360Y0178742D01*
X0181276Y0178608D01*
X0181187Y0178477D01*
X0181096Y0178348D01*
X0181001Y0178221D01*
X0180904Y0178096D01*
X0180803Y0177974D01*
X0180699Y0177855D01*
X0180592Y0177738D01*
X0180482Y0177624D01*
X0180369Y0177513D01*
X0180254Y0177404D01*
X0180136Y0177299D01*
X0180015Y0177197D01*
X0179892Y0177097D01*
X0179766Y0177001D01*
X0179638Y0176908D01*
X0179508Y0176818D01*
X0179375Y0176732D01*
X0179240Y0176648D01*
X0179104Y0176569D01*
X0178965Y0176492D01*
X0178824Y0176420D01*
X0178682Y0176350D01*
X0178538Y0176285D01*
X0178392Y0176223D01*
X0178245Y0176165D01*
X0178096Y0176110D01*
X0177946Y0176059D01*
X0177795Y0176012D01*
X0177643Y0175969D01*
X0177490Y0175930D01*
X0177335Y0175894D01*
X0177180Y0175863D01*
X0177024Y0175835D01*
X0176868Y0175811D01*
X0176711Y0175791D01*
X0176553Y0175775D01*
X0176396Y0175763D01*
X0176237Y0175755D01*
X0176079Y0175751D01*
X0175921Y0175751D01*
X0175763Y0175755D01*
X0175604Y0175763D01*
X0175447Y0175775D01*
X0175289Y0175791D01*
X0175132Y0175811D01*
X0174976Y0175835D01*
X0174820Y0175863D01*
X0174665Y0175894D01*
X0174510Y0175930D01*
X0174357Y0175969D01*
X0174205Y0176012D01*
X0174054Y0176059D01*
X0173904Y0176110D01*
X0173755Y0176165D01*
X0173608Y0176223D01*
X0173462Y0176285D01*
X0173318Y0176350D01*
X0173176Y0176420D01*
X0173035Y0176492D01*
X0172896Y0176569D01*
X0172760Y0176648D01*
X0172625Y0176732D01*
X0172492Y0176818D01*
X0172362Y0176908D01*
X0172234Y0177001D01*
X0172108Y0177097D01*
X0171985Y0177197D01*
X0171864Y0177299D01*
X0171746Y0177404D01*
X0171631Y0177513D01*
X0171518Y0177624D01*
X0171408Y0177738D01*
X0171301Y0177855D01*
X0171197Y0177974D01*
X0171096Y0178096D01*
X0170999Y0178221D01*
X0170904Y0178348D01*
X0170813Y0178477D01*
X0170724Y0178608D01*
X0170640Y0178742D01*
X0170558Y0178878D01*
X0170480Y0179015D01*
X0170406Y0179155D01*
X0170335Y0179297D01*
X0170267Y0179440D01*
X0170203Y0179585D01*
X0170143Y0179731D01*
X0170087Y0179879D01*
X0170034Y0180028D01*
X0169985Y0180179D01*
X0169940Y0180331D01*
X0169899Y0180484D01*
X0169861Y0180637D01*
X0169828Y0180792D01*
X0169798Y0180948D01*
X0169772Y0181104D01*
X0169751Y0181261D01*
X0169733Y0181418D01*
X0169719Y0181576D01*
X0169709Y0181734D01*
X0169703Y0181892D01*
X0169701Y0182050D01*
X0324701Y0217050D02*
X0324703Y0217208D01*
X0324709Y0217366D01*
X0324719Y0217524D01*
X0324733Y0217682D01*
X0324751Y0217839D01*
X0324772Y0217996D01*
X0324798Y0218152D01*
X0324828Y0218308D01*
X0324861Y0218463D01*
X0324899Y0218616D01*
X0324940Y0218769D01*
X0324985Y0218921D01*
X0325034Y0219072D01*
X0325087Y0219221D01*
X0325143Y0219369D01*
X0325203Y0219515D01*
X0325267Y0219660D01*
X0325335Y0219803D01*
X0325406Y0219945D01*
X0325480Y0220085D01*
X0325558Y0220222D01*
X0325640Y0220358D01*
X0325724Y0220492D01*
X0325813Y0220623D01*
X0325904Y0220752D01*
X0325999Y0220879D01*
X0326096Y0221004D01*
X0326197Y0221126D01*
X0326301Y0221245D01*
X0326408Y0221362D01*
X0326518Y0221476D01*
X0326631Y0221587D01*
X0326746Y0221696D01*
X0326864Y0221801D01*
X0326985Y0221903D01*
X0327108Y0222003D01*
X0327234Y0222099D01*
X0327362Y0222192D01*
X0327492Y0222282D01*
X0327625Y0222368D01*
X0327760Y0222452D01*
X0327896Y0222531D01*
X0328035Y0222608D01*
X0328176Y0222680D01*
X0328318Y0222750D01*
X0328462Y0222815D01*
X0328608Y0222877D01*
X0328755Y0222935D01*
X0328904Y0222990D01*
X0329054Y0223041D01*
X0329205Y0223088D01*
X0329357Y0223131D01*
X0329510Y0223170D01*
X0329665Y0223206D01*
X0329820Y0223237D01*
X0329976Y0223265D01*
X0330132Y0223289D01*
X0330289Y0223309D01*
X0330447Y0223325D01*
X0330604Y0223337D01*
X0330763Y0223345D01*
X0330921Y0223349D01*
X0331079Y0223349D01*
X0331237Y0223345D01*
X0331396Y0223337D01*
X0331553Y0223325D01*
X0331711Y0223309D01*
X0331868Y0223289D01*
X0332024Y0223265D01*
X0332180Y0223237D01*
X0332335Y0223206D01*
X0332490Y0223170D01*
X0332643Y0223131D01*
X0332795Y0223088D01*
X0332946Y0223041D01*
X0333096Y0222990D01*
X0333245Y0222935D01*
X0333392Y0222877D01*
X0333538Y0222815D01*
X0333682Y0222750D01*
X0333824Y0222680D01*
X0333965Y0222608D01*
X0334104Y0222531D01*
X0334240Y0222452D01*
X0334375Y0222368D01*
X0334508Y0222282D01*
X0334638Y0222192D01*
X0334766Y0222099D01*
X0334892Y0222003D01*
X0335015Y0221903D01*
X0335136Y0221801D01*
X0335254Y0221696D01*
X0335369Y0221587D01*
X0335482Y0221476D01*
X0335592Y0221362D01*
X0335699Y0221245D01*
X0335803Y0221126D01*
X0335904Y0221004D01*
X0336001Y0220879D01*
X0336096Y0220752D01*
X0336187Y0220623D01*
X0336276Y0220492D01*
X0336360Y0220358D01*
X0336442Y0220222D01*
X0336520Y0220085D01*
X0336594Y0219945D01*
X0336665Y0219803D01*
X0336733Y0219660D01*
X0336797Y0219515D01*
X0336857Y0219369D01*
X0336913Y0219221D01*
X0336966Y0219072D01*
X0337015Y0218921D01*
X0337060Y0218769D01*
X0337101Y0218616D01*
X0337139Y0218463D01*
X0337172Y0218308D01*
X0337202Y0218152D01*
X0337228Y0217996D01*
X0337249Y0217839D01*
X0337267Y0217682D01*
X0337281Y0217524D01*
X0337291Y0217366D01*
X0337297Y0217208D01*
X0337299Y0217050D01*
X0337297Y0216892D01*
X0337291Y0216734D01*
X0337281Y0216576D01*
X0337267Y0216418D01*
X0337249Y0216261D01*
X0337228Y0216104D01*
X0337202Y0215948D01*
X0337172Y0215792D01*
X0337139Y0215637D01*
X0337101Y0215484D01*
X0337060Y0215331D01*
X0337015Y0215179D01*
X0336966Y0215028D01*
X0336913Y0214879D01*
X0336857Y0214731D01*
X0336797Y0214585D01*
X0336733Y0214440D01*
X0336665Y0214297D01*
X0336594Y0214155D01*
X0336520Y0214015D01*
X0336442Y0213878D01*
X0336360Y0213742D01*
X0336276Y0213608D01*
X0336187Y0213477D01*
X0336096Y0213348D01*
X0336001Y0213221D01*
X0335904Y0213096D01*
X0335803Y0212974D01*
X0335699Y0212855D01*
X0335592Y0212738D01*
X0335482Y0212624D01*
X0335369Y0212513D01*
X0335254Y0212404D01*
X0335136Y0212299D01*
X0335015Y0212197D01*
X0334892Y0212097D01*
X0334766Y0212001D01*
X0334638Y0211908D01*
X0334508Y0211818D01*
X0334375Y0211732D01*
X0334240Y0211648D01*
X0334104Y0211569D01*
X0333965Y0211492D01*
X0333824Y0211420D01*
X0333682Y0211350D01*
X0333538Y0211285D01*
X0333392Y0211223D01*
X0333245Y0211165D01*
X0333096Y0211110D01*
X0332946Y0211059D01*
X0332795Y0211012D01*
X0332643Y0210969D01*
X0332490Y0210930D01*
X0332335Y0210894D01*
X0332180Y0210863D01*
X0332024Y0210835D01*
X0331868Y0210811D01*
X0331711Y0210791D01*
X0331553Y0210775D01*
X0331396Y0210763D01*
X0331237Y0210755D01*
X0331079Y0210751D01*
X0330921Y0210751D01*
X0330763Y0210755D01*
X0330604Y0210763D01*
X0330447Y0210775D01*
X0330289Y0210791D01*
X0330132Y0210811D01*
X0329976Y0210835D01*
X0329820Y0210863D01*
X0329665Y0210894D01*
X0329510Y0210930D01*
X0329357Y0210969D01*
X0329205Y0211012D01*
X0329054Y0211059D01*
X0328904Y0211110D01*
X0328755Y0211165D01*
X0328608Y0211223D01*
X0328462Y0211285D01*
X0328318Y0211350D01*
X0328176Y0211420D01*
X0328035Y0211492D01*
X0327896Y0211569D01*
X0327760Y0211648D01*
X0327625Y0211732D01*
X0327492Y0211818D01*
X0327362Y0211908D01*
X0327234Y0212001D01*
X0327108Y0212097D01*
X0326985Y0212197D01*
X0326864Y0212299D01*
X0326746Y0212404D01*
X0326631Y0212513D01*
X0326518Y0212624D01*
X0326408Y0212738D01*
X0326301Y0212855D01*
X0326197Y0212974D01*
X0326096Y0213096D01*
X0325999Y0213221D01*
X0325904Y0213348D01*
X0325813Y0213477D01*
X0325724Y0213608D01*
X0325640Y0213742D01*
X0325558Y0213878D01*
X0325480Y0214015D01*
X0325406Y0214155D01*
X0325335Y0214297D01*
X0325267Y0214440D01*
X0325203Y0214585D01*
X0325143Y0214731D01*
X0325087Y0214879D01*
X0325034Y0215028D01*
X0324985Y0215179D01*
X0324940Y0215331D01*
X0324899Y0215484D01*
X0324861Y0215637D01*
X0324828Y0215792D01*
X0324798Y0215948D01*
X0324772Y0216104D01*
X0324751Y0216261D01*
X0324733Y0216418D01*
X0324719Y0216576D01*
X0324709Y0216734D01*
X0324703Y0216892D01*
X0324701Y0217050D01*
D11*
X0093000Y0021050D03*
X0038000Y0021050D03*
D12*
X0037016Y0026956D03*
X0038984Y0026956D03*
X0040953Y0026956D03*
X0035047Y0026956D03*
X0035047Y0015144D03*
X0037016Y0015144D03*
X0038984Y0015144D03*
X0040953Y0015144D03*
X0090047Y0015144D03*
X0092016Y0015144D03*
X0093984Y0015144D03*
X0095953Y0015144D03*
X0095953Y0026956D03*
X0093984Y0026956D03*
X0092016Y0026956D03*
X0090047Y0026956D03*
D13*
X0087094Y0024003D03*
X0087094Y0022034D03*
X0087094Y0020066D03*
X0087094Y0018097D03*
X0098906Y0018097D03*
X0098906Y0020066D03*
X0098906Y0022034D03*
X0098906Y0024003D03*
X0043906Y0024003D03*
X0043906Y0022034D03*
X0043906Y0020066D03*
X0043906Y0018097D03*
X0032094Y0018097D03*
X0032094Y0020066D03*
X0032094Y0022034D03*
X0032094Y0024003D03*
D14*
X0024512Y0021050D03*
X0013488Y0021050D03*
X0068488Y0021050D03*
X0079512Y0021050D03*
D15*
X0072000Y0046204D03*
X0072000Y0052896D03*
X0017000Y0052396D03*
X0017000Y0045704D03*
D16*
X0038000Y0039298D03*
X0038000Y0057802D03*
X0093000Y0057802D03*
X0093000Y0039298D03*
D17*
X0107000Y0029396D03*
X0107000Y0022704D03*
X0052000Y0022704D03*
X0052000Y0029396D03*
M02*
