%
M48
M72
T01C0.01300
T02C0.03937
T03C0.05118
T04C0.05512
T05C0.12598
%
T01
X21500Y5050
X21500Y8050
X24500Y8050
X24500Y5050
X27500Y5050
X27500Y8050
X30500Y8050
X30500Y5050
X28500Y11550
X36500Y19550
X36500Y22550
X39500Y22550
X39500Y19550
X47500Y22550
X65500Y34550
X69000Y34550
X72500Y34550
X76000Y34550
X76000Y38050
X72500Y38050
X69000Y38050
X65500Y38050
X91500Y22550
X91500Y19550
X94500Y19550
X94500Y22550
X102500Y22550
X84000Y11550
X82500Y8050
X79500Y8050
X79500Y5050
X82500Y5050
X85500Y5050
X85500Y8050
X76500Y8050
X76500Y5050
X21000Y34550
X17500Y34550
X14000Y34550
X10500Y34550
X10500Y38050
X14000Y38050
X17500Y38050
X21000Y38050
X111000Y67050
X146000Y102050
X161000Y107050
X151000Y112050
X153000Y118550
X191000Y115050
X191000Y107050
X211000Y62050
X346000Y92050
X151000Y192050
X169000Y200050
T02
X36000Y217050
X46000Y217050
X56000Y217050
X66000Y217050
X76000Y217050
X86000Y217050
X96000Y217050
X106000Y217050
X116000Y217050
X126000Y217050
X141000Y197050
X141000Y187050
X141000Y177050
X141000Y167050
X141000Y157050
X141000Y147050
X141000Y137050
X141000Y127050
X141000Y117050
X141000Y107050
X141000Y97050
X151000Y97050
X161000Y97050
X171000Y97050
X171000Y87050
X161000Y87050
X151000Y87050
X141000Y87050
X141000Y77050
X141000Y67050
X119500Y84550
X109500Y84550
X99500Y84550
X89500Y84550
X79500Y84550
X69500Y84550
X59500Y84550
X49500Y84550
X49500Y114550
X59500Y114550
X69500Y114550
X79500Y114550
X89500Y114550
X99500Y114550
X109500Y114550
X119500Y114550
X119500Y150050
X109500Y150050
X99500Y150050
X89500Y150050
X79500Y150050
X69500Y150050
X59500Y150050
X49500Y150050
X49500Y180050
X59500Y180050
X69500Y180050
X79500Y180050
X89500Y180050
X99500Y180050
X109500Y180050
X119500Y180050
X201000Y177050
X201000Y187050
X201000Y197050
X201000Y217050
X211000Y217050
X221000Y217050
X231000Y217050
X241000Y217050
X251000Y217050
X261000Y217050
X271000Y217050
X281000Y217050
X361000Y212050
X361000Y202050
X361000Y192050
X361000Y182050
X361000Y172050
X361000Y162050
X361000Y152050
X361000Y142050
X361000Y132050
X326500Y107050
X316500Y107050
X306500Y107050
X296500Y107050
X286500Y107050
X276500Y107050
X266500Y107050
X256500Y107050
X246500Y107050
X236500Y107050
X226500Y107050
X216500Y107050
X201000Y107050
X201000Y117050
X201000Y127050
X201000Y137050
X201000Y147050
X191000Y147050
X191000Y157050
X201000Y157050
X201000Y167050
X191000Y217050
X360500Y100050
X360500Y90050
X360500Y80050
X360500Y70050
X360500Y60050
X360500Y50050
X360500Y40050
X360500Y30050
X326500Y57050
X316500Y57050
X306500Y57050
X296500Y57050
X286500Y57050
X276500Y57050
X266500Y57050
X256500Y57050
X246500Y57050
X236500Y57050
X226500Y57050
X216500Y57050
X216500Y67050
X201000Y67050
X201000Y77050
X201000Y87050
X201000Y97050
X216500Y97050
X216500Y87050
X216500Y77050
X201000Y12050
X211000Y12050
X221000Y12050
X231000Y12050
T03
X269000Y152050
X259000Y152050
X249000Y152050
X239000Y152050
X229000Y152050
X219000Y152050
X219000Y192050
X229000Y192050
X239000Y192050
X249000Y192050
X259000Y192050
X269000Y192050
T04
X15000Y189550
X15000Y179550
X15000Y169550
X15000Y159550
X15000Y149550
X15000Y139550
X15000Y129550
X15000Y119550
X15000Y109550
X15000Y99550
X15000Y89550
X15000Y79550
T05
X176000Y182050
X331000Y217050
X176000Y37050
X331000Y15050
M30
