G75*
%MOIN*%
%OFA0B0*%
%FSLAX25Y25*%
%IPPOS*%
%LPD*%
%AMOC8*
5,1,8,0,0,1.08239X$1,22.5*
%
%ADD10C,0.00000*%
%ADD11C,0.02400*%
%ADD12C,0.00500*%
D10*
X0008974Y0010224D02*
X0375116Y0010224D01*
X0375116Y0325185D01*
X0008974Y0325185D01*
X0008974Y0010224D01*
D11*
X0050004Y0022035D02*
X0050004Y0027106D01*
X0050004Y0031906D02*
X0050004Y0036978D01*
X0050004Y0041778D02*
X0050004Y0046849D01*
X0050778Y0051274D02*
X0055626Y0051274D01*
X0060426Y0051274D02*
X0065274Y0051274D01*
X0070074Y0051274D02*
X0074922Y0051274D01*
X0079722Y0051274D02*
X0084569Y0051274D01*
X0089369Y0051274D02*
X0094217Y0051274D01*
X0095214Y0051649D02*
X0095214Y0056720D01*
X0099017Y0051274D02*
X0103865Y0051274D01*
X0108665Y0051274D02*
X0113513Y0051274D01*
X0118313Y0051274D02*
X0123160Y0051274D01*
X0127960Y0051274D02*
X0132808Y0051274D01*
X0137608Y0051274D02*
X0142456Y0051274D01*
X0140934Y0051649D02*
X0140934Y0056720D01*
X0140934Y0061520D02*
X0140934Y0066591D01*
X0140934Y0071391D02*
X0140934Y0076463D01*
X0140934Y0081263D02*
X0140934Y0086334D01*
X0140934Y0091134D02*
X0140934Y0096205D01*
X0138891Y0094474D02*
X0133934Y0094474D01*
X0129134Y0094474D02*
X0124176Y0094474D01*
X0119376Y0094474D02*
X0114419Y0094474D01*
X0109619Y0094474D02*
X0104662Y0094474D01*
X0099862Y0094474D02*
X0094905Y0094474D01*
X0095214Y0096205D02*
X0095214Y0091134D01*
X0095214Y0086334D02*
X0095214Y0081263D01*
X0095214Y0076463D02*
X0095214Y0071391D01*
X0095214Y0066591D02*
X0095214Y0061520D01*
X0095214Y0046849D02*
X0095214Y0041778D01*
X0095214Y0036978D02*
X0095214Y0031906D01*
X0095214Y0027106D02*
X0095214Y0022035D01*
X0140934Y0022035D02*
X0140934Y0027106D01*
X0140934Y0031906D02*
X0140934Y0036978D01*
X0140934Y0041778D02*
X0140934Y0046849D01*
X0147256Y0051274D02*
X0152104Y0051274D01*
X0156904Y0051274D02*
X0161752Y0051274D01*
X0166552Y0051274D02*
X0171399Y0051274D01*
X0176199Y0051274D02*
X0181047Y0051274D01*
X0185847Y0051274D02*
X0190695Y0051274D01*
X0187194Y0049617D02*
X0187194Y0044648D01*
X0187194Y0039848D02*
X0187194Y0034880D01*
X0187194Y0030080D02*
X0187194Y0025111D01*
X0187194Y0020311D02*
X0187194Y0015342D01*
X0195495Y0051274D02*
X0200343Y0051274D01*
X0205143Y0051274D02*
X0209990Y0051274D01*
X0214790Y0051274D02*
X0219638Y0051274D01*
X0224438Y0051274D02*
X0229286Y0051274D01*
X0234086Y0051274D02*
X0238934Y0051274D01*
X0234504Y0051649D02*
X0234504Y0056720D01*
X0234504Y0061520D02*
X0234504Y0066591D01*
X0234504Y0071391D02*
X0234504Y0076463D01*
X0234504Y0081263D02*
X0234504Y0086334D01*
X0234504Y0091134D02*
X0234504Y0096205D01*
X0236462Y0094474D02*
X0231505Y0094474D01*
X0226705Y0094474D02*
X0221748Y0094474D01*
X0216948Y0094474D02*
X0211991Y0094474D01*
X0207191Y0094474D02*
X0202234Y0094474D01*
X0197434Y0094474D02*
X0192476Y0094474D01*
X0187676Y0094474D02*
X0182719Y0094474D01*
X0187194Y0093492D02*
X0187194Y0098461D01*
X0187194Y0103261D02*
X0187194Y0108230D01*
X0187194Y0113030D02*
X0187194Y0117998D01*
X0187194Y0122798D02*
X0187194Y0127767D01*
X0187194Y0132567D02*
X0187194Y0137536D01*
X0184797Y0139534D02*
X0189645Y0139534D01*
X0187194Y0142336D02*
X0187194Y0147305D01*
X0187194Y0152105D02*
X0187194Y0157073D01*
X0187194Y0161873D02*
X0187194Y0166842D01*
X0187194Y0171642D02*
X0187194Y0176611D01*
X0187194Y0181411D02*
X0187194Y0186380D01*
X0184797Y0185884D02*
X0189645Y0185884D01*
X0194445Y0185884D02*
X0199293Y0185884D01*
X0204093Y0185884D02*
X0208940Y0185884D01*
X0213740Y0185884D02*
X0218588Y0185884D01*
X0223388Y0185884D02*
X0228236Y0185884D01*
X0233036Y0185884D02*
X0237884Y0185884D01*
X0234504Y0185047D02*
X0234504Y0179976D01*
X0234504Y0175176D02*
X0234504Y0170104D01*
X0234504Y0165304D02*
X0234504Y0160233D01*
X0234504Y0155433D02*
X0234504Y0150362D01*
X0234504Y0145562D02*
X0234504Y0140490D01*
X0233036Y0139534D02*
X0237884Y0139534D01*
X0242684Y0139534D02*
X0247531Y0139534D01*
X0252331Y0139534D02*
X0257179Y0139534D01*
X0261979Y0139534D02*
X0266827Y0139534D01*
X0271627Y0139534D02*
X0276475Y0139534D01*
X0280764Y0139136D02*
X0280764Y0134256D01*
X0280764Y0129456D02*
X0280764Y0124576D01*
X0280764Y0119776D02*
X0280764Y0114897D01*
X0280764Y0110097D02*
X0280764Y0105217D01*
X0280764Y0100417D02*
X0280764Y0095537D01*
X0280291Y0094474D02*
X0285248Y0094474D01*
X0290048Y0094474D02*
X0295005Y0094474D01*
X0299805Y0094474D02*
X0304762Y0094474D01*
X0309562Y0094474D02*
X0314519Y0094474D01*
X0319319Y0094474D02*
X0324276Y0094474D01*
X0329076Y0094474D02*
X0334033Y0094474D01*
X0338833Y0094474D02*
X0343790Y0094474D01*
X0348590Y0094474D02*
X0353548Y0094474D01*
X0358348Y0094474D02*
X0363305Y0094474D01*
X0329154Y0096205D02*
X0329154Y0091134D01*
X0329154Y0086334D02*
X0329154Y0081263D01*
X0329154Y0076463D02*
X0329154Y0071391D01*
X0329154Y0066591D02*
X0329154Y0061520D01*
X0329154Y0056720D02*
X0329154Y0051649D01*
X0330564Y0051274D02*
X0335411Y0051274D01*
X0340211Y0051274D02*
X0345059Y0051274D01*
X0349859Y0051274D02*
X0354707Y0051274D01*
X0359507Y0051274D02*
X0364355Y0051274D01*
X0329154Y0046849D02*
X0329154Y0041778D01*
X0329154Y0036978D02*
X0329154Y0031906D01*
X0329154Y0027106D02*
X0329154Y0022035D01*
X0325764Y0051274D02*
X0320916Y0051274D01*
X0316116Y0051274D02*
X0311268Y0051274D01*
X0306468Y0051274D02*
X0301620Y0051274D01*
X0296820Y0051274D02*
X0291973Y0051274D01*
X0287173Y0051274D02*
X0282325Y0051274D01*
X0280764Y0052017D02*
X0280764Y0047138D01*
X0280764Y0042338D02*
X0280764Y0037458D01*
X0280764Y0032658D02*
X0280764Y0027778D01*
X0280764Y0022978D02*
X0280764Y0018098D01*
X0277525Y0051274D02*
X0272677Y0051274D01*
X0267877Y0051274D02*
X0263029Y0051274D01*
X0258229Y0051274D02*
X0253381Y0051274D01*
X0248581Y0051274D02*
X0243734Y0051274D01*
X0234504Y0046849D02*
X0234504Y0041778D01*
X0234504Y0036978D02*
X0234504Y0031906D01*
X0234504Y0027106D02*
X0234504Y0022035D01*
X0187194Y0054417D02*
X0187194Y0059386D01*
X0187194Y0064186D02*
X0187194Y0069155D01*
X0187194Y0073955D02*
X0187194Y0078923D01*
X0187194Y0083723D02*
X0187194Y0088692D01*
X0177919Y0094474D02*
X0172962Y0094474D01*
X0168162Y0094474D02*
X0163205Y0094474D01*
X0158405Y0094474D02*
X0153448Y0094474D01*
X0148648Y0094474D02*
X0143691Y0094474D01*
X0140934Y0101005D02*
X0140934Y0106077D01*
X0140934Y0110877D02*
X0140934Y0115948D01*
X0140934Y0120748D02*
X0140934Y0125819D01*
X0140934Y0130619D02*
X0140934Y0135690D01*
X0141406Y0139534D02*
X0136558Y0139534D01*
X0140934Y0140490D02*
X0140934Y0145562D01*
X0140934Y0150362D02*
X0140934Y0155433D01*
X0140934Y0160233D02*
X0140934Y0165304D01*
X0140934Y0170104D02*
X0140934Y0175176D01*
X0140934Y0179976D02*
X0140934Y0185047D01*
X0141406Y0185884D02*
X0136558Y0185884D01*
X0131758Y0185884D02*
X0126910Y0185884D01*
X0122110Y0185884D02*
X0117263Y0185884D01*
X0112463Y0185884D02*
X0107615Y0185884D01*
X0102815Y0185884D02*
X0097967Y0185884D01*
X0095214Y0185047D02*
X0095214Y0179976D01*
X0095214Y0175176D02*
X0095214Y0170104D01*
X0095214Y0165304D02*
X0095214Y0160233D01*
X0095214Y0155433D02*
X0095214Y0150362D01*
X0095214Y0145562D02*
X0095214Y0140490D01*
X0093167Y0139534D02*
X0088319Y0139534D01*
X0083519Y0139534D02*
X0078672Y0139534D01*
X0073872Y0139534D02*
X0069024Y0139534D01*
X0064224Y0139534D02*
X0059376Y0139534D01*
X0054576Y0139534D02*
X0049728Y0139534D01*
X0050004Y0140490D02*
X0050004Y0145562D01*
X0050004Y0150362D02*
X0050004Y0155433D01*
X0050004Y0160233D02*
X0050004Y0165304D01*
X0050004Y0170104D02*
X0050004Y0175176D01*
X0050004Y0179976D02*
X0050004Y0185047D01*
X0049728Y0185884D02*
X0054576Y0185884D01*
X0059376Y0185884D02*
X0064224Y0185884D01*
X0069024Y0185884D02*
X0073872Y0185884D01*
X0078672Y0185884D02*
X0083519Y0185884D01*
X0088319Y0185884D02*
X0093167Y0185884D01*
X0095214Y0189847D02*
X0095214Y0194918D01*
X0095214Y0199718D02*
X0095214Y0204789D01*
X0095214Y0209589D02*
X0095214Y0214661D01*
X0095214Y0219461D02*
X0095214Y0224532D01*
X0095214Y0229332D02*
X0095214Y0234403D01*
X0093167Y0230614D02*
X0088319Y0230614D01*
X0083519Y0230614D02*
X0078672Y0230614D01*
X0073872Y0230614D02*
X0069024Y0230614D01*
X0064224Y0230614D02*
X0059376Y0230614D01*
X0054576Y0230614D02*
X0049728Y0230614D01*
X0050004Y0229332D02*
X0050004Y0234403D01*
X0050004Y0239203D02*
X0050004Y0244275D01*
X0050004Y0249075D02*
X0050004Y0254146D01*
X0050004Y0258946D02*
X0050004Y0264017D01*
X0050004Y0268817D02*
X0050004Y0273888D01*
X0049728Y0278014D02*
X0054576Y0278014D01*
X0059376Y0278014D02*
X0064224Y0278014D01*
X0069024Y0278014D02*
X0073872Y0278014D01*
X0078672Y0278014D02*
X0083519Y0278014D01*
X0088319Y0278014D02*
X0093167Y0278014D01*
X0095214Y0278688D02*
X0095214Y0283760D01*
X0097967Y0278014D02*
X0102815Y0278014D01*
X0107615Y0278014D02*
X0112463Y0278014D01*
X0117263Y0278014D02*
X0122110Y0278014D01*
X0126910Y0278014D02*
X0131758Y0278014D01*
X0136558Y0278014D02*
X0141406Y0278014D01*
X0140934Y0278688D02*
X0140934Y0283760D01*
X0146206Y0278014D02*
X0151054Y0278014D01*
X0155854Y0278014D02*
X0160702Y0278014D01*
X0165502Y0278014D02*
X0170349Y0278014D01*
X0175149Y0278014D02*
X0179997Y0278014D01*
X0184797Y0278014D02*
X0189645Y0278014D01*
X0187194Y0279099D02*
X0187194Y0284067D01*
X0187194Y0288867D02*
X0187194Y0293836D01*
X0187194Y0298636D02*
X0187194Y0303605D01*
X0187194Y0308405D02*
X0187194Y0313374D01*
X0194445Y0278014D02*
X0199293Y0278014D01*
X0204093Y0278014D02*
X0208940Y0278014D01*
X0213740Y0278014D02*
X0218588Y0278014D01*
X0223388Y0278014D02*
X0228236Y0278014D01*
X0233036Y0278014D02*
X0237884Y0278014D01*
X0234504Y0278688D02*
X0234504Y0283760D01*
X0234504Y0288560D02*
X0234504Y0293631D01*
X0234504Y0298431D02*
X0234504Y0303502D01*
X0234504Y0308302D02*
X0234504Y0313374D01*
X0242684Y0278014D02*
X0247531Y0278014D01*
X0252331Y0278014D02*
X0257179Y0278014D01*
X0261979Y0278014D02*
X0266827Y0278014D01*
X0271627Y0278014D02*
X0276475Y0278014D01*
X0280764Y0279454D02*
X0280764Y0284334D01*
X0280764Y0289134D02*
X0280764Y0294014D01*
X0280764Y0298814D02*
X0280764Y0303694D01*
X0280764Y0308494D02*
X0280764Y0313374D01*
X0281275Y0278014D02*
X0286123Y0278014D01*
X0290923Y0278014D02*
X0295770Y0278014D01*
X0300570Y0278014D02*
X0305418Y0278014D01*
X0310218Y0278014D02*
X0315066Y0278014D01*
X0319866Y0278014D02*
X0324714Y0278014D01*
X0329154Y0278688D02*
X0329154Y0283760D01*
X0329514Y0278014D02*
X0334361Y0278014D01*
X0329154Y0273888D02*
X0329154Y0268817D01*
X0329154Y0264017D02*
X0329154Y0258946D01*
X0329154Y0254146D02*
X0329154Y0249075D01*
X0329154Y0244275D02*
X0329154Y0239203D01*
X0329154Y0234403D02*
X0329154Y0229332D01*
X0329514Y0230614D02*
X0334361Y0230614D01*
X0339161Y0230614D02*
X0344009Y0230614D01*
X0348809Y0230614D02*
X0353657Y0230614D01*
X0358457Y0230614D02*
X0363305Y0230614D01*
X0329154Y0224532D02*
X0329154Y0219461D01*
X0329154Y0214661D02*
X0329154Y0209589D01*
X0329154Y0204789D02*
X0329154Y0199718D01*
X0329154Y0194918D02*
X0329154Y0189847D01*
X0329514Y0185884D02*
X0334361Y0185884D01*
X0329154Y0185047D02*
X0329154Y0179976D01*
X0329154Y0175176D02*
X0329154Y0170104D01*
X0329154Y0165304D02*
X0329154Y0160233D01*
X0329154Y0155433D02*
X0329154Y0150362D01*
X0329154Y0145562D02*
X0329154Y0140490D01*
X0329514Y0139534D02*
X0334361Y0139534D01*
X0329154Y0135690D02*
X0329154Y0130619D01*
X0329154Y0125819D02*
X0329154Y0120748D01*
X0329154Y0115948D02*
X0329154Y0110877D01*
X0329154Y0106077D02*
X0329154Y0101005D01*
X0324714Y0139534D02*
X0319866Y0139534D01*
X0315066Y0139534D02*
X0310218Y0139534D01*
X0305418Y0139534D02*
X0300570Y0139534D01*
X0295770Y0139534D02*
X0290923Y0139534D01*
X0286123Y0139534D02*
X0281275Y0139534D01*
X0280764Y0143936D02*
X0280764Y0148816D01*
X0280764Y0153616D02*
X0280764Y0158496D01*
X0280764Y0163296D02*
X0280764Y0168176D01*
X0280764Y0172976D02*
X0280764Y0177856D01*
X0280764Y0182656D02*
X0280764Y0187535D01*
X0281275Y0185884D02*
X0286123Y0185884D01*
X0290923Y0185884D02*
X0295770Y0185884D01*
X0300570Y0185884D02*
X0305418Y0185884D01*
X0310218Y0185884D02*
X0315066Y0185884D01*
X0319866Y0185884D02*
X0324714Y0185884D01*
X0339161Y0185884D02*
X0344009Y0185884D01*
X0348809Y0185884D02*
X0353657Y0185884D01*
X0358457Y0185884D02*
X0363305Y0185884D01*
X0324714Y0230614D02*
X0319866Y0230614D01*
X0315066Y0230614D02*
X0310218Y0230614D01*
X0305418Y0230614D02*
X0300570Y0230614D01*
X0295770Y0230614D02*
X0290923Y0230614D01*
X0286123Y0230614D02*
X0281275Y0230614D01*
X0280764Y0231055D02*
X0280764Y0235935D01*
X0276475Y0230614D02*
X0271627Y0230614D01*
X0266827Y0230614D02*
X0261979Y0230614D01*
X0257179Y0230614D02*
X0252331Y0230614D01*
X0247531Y0230614D02*
X0242684Y0230614D01*
X0237884Y0230614D02*
X0233036Y0230614D01*
X0234504Y0229332D02*
X0234504Y0234403D01*
X0234504Y0239203D02*
X0234504Y0244275D01*
X0234504Y0249075D02*
X0234504Y0254146D01*
X0234504Y0258946D02*
X0234504Y0264017D01*
X0234504Y0268817D02*
X0234504Y0273888D01*
X0280764Y0274654D02*
X0280764Y0269774D01*
X0280764Y0264974D02*
X0280764Y0260094D01*
X0280764Y0255294D02*
X0280764Y0250415D01*
X0280764Y0245615D02*
X0280764Y0240735D01*
X0280764Y0226255D02*
X0280764Y0221375D01*
X0280764Y0216575D02*
X0280764Y0211695D01*
X0280764Y0206895D02*
X0280764Y0202015D01*
X0280764Y0197215D02*
X0280764Y0192335D01*
X0276475Y0185884D02*
X0271627Y0185884D01*
X0266827Y0185884D02*
X0261979Y0185884D01*
X0257179Y0185884D02*
X0252331Y0185884D01*
X0247531Y0185884D02*
X0242684Y0185884D01*
X0234504Y0189847D02*
X0234504Y0194918D01*
X0234504Y0199718D02*
X0234504Y0204789D01*
X0234504Y0209589D02*
X0234504Y0214661D01*
X0234504Y0219461D02*
X0234504Y0224532D01*
X0228236Y0230614D02*
X0223388Y0230614D01*
X0218588Y0230614D02*
X0213740Y0230614D01*
X0208940Y0230614D02*
X0204093Y0230614D01*
X0199293Y0230614D02*
X0194445Y0230614D01*
X0189645Y0230614D02*
X0184797Y0230614D01*
X0187194Y0230255D02*
X0187194Y0235224D01*
X0187194Y0240024D02*
X0187194Y0244992D01*
X0187194Y0249792D02*
X0187194Y0254761D01*
X0187194Y0259561D02*
X0187194Y0264530D01*
X0187194Y0269330D02*
X0187194Y0274299D01*
X0140934Y0273888D02*
X0140934Y0268817D01*
X0140934Y0264017D02*
X0140934Y0258946D01*
X0140934Y0254146D02*
X0140934Y0249075D01*
X0140934Y0244275D02*
X0140934Y0239203D01*
X0140934Y0234403D02*
X0140934Y0229332D01*
X0141406Y0230614D02*
X0136558Y0230614D01*
X0131758Y0230614D02*
X0126910Y0230614D01*
X0122110Y0230614D02*
X0117263Y0230614D01*
X0112463Y0230614D02*
X0107615Y0230614D01*
X0102815Y0230614D02*
X0097967Y0230614D01*
X0095214Y0239203D02*
X0095214Y0244275D01*
X0095214Y0249075D02*
X0095214Y0254146D01*
X0095214Y0258946D02*
X0095214Y0264017D01*
X0095214Y0268817D02*
X0095214Y0273888D01*
X0095214Y0288560D02*
X0095214Y0293631D01*
X0095214Y0298431D02*
X0095214Y0303502D01*
X0095214Y0308302D02*
X0095214Y0313374D01*
X0050004Y0313374D02*
X0050004Y0308302D01*
X0050004Y0303502D02*
X0050004Y0298431D01*
X0050004Y0293631D02*
X0050004Y0288560D01*
X0050004Y0283760D02*
X0050004Y0278688D01*
X0044928Y0278014D02*
X0040081Y0278014D01*
X0035281Y0278014D02*
X0030433Y0278014D01*
X0025633Y0278014D02*
X0020785Y0278014D01*
X0020785Y0230614D02*
X0025633Y0230614D01*
X0030433Y0230614D02*
X0035281Y0230614D01*
X0040081Y0230614D02*
X0044928Y0230614D01*
X0050004Y0224532D02*
X0050004Y0219461D01*
X0050004Y0214661D02*
X0050004Y0209589D01*
X0050004Y0204789D02*
X0050004Y0199718D01*
X0050004Y0194918D02*
X0050004Y0189847D01*
X0044928Y0185884D02*
X0040081Y0185884D01*
X0035281Y0185884D02*
X0030433Y0185884D01*
X0025633Y0185884D02*
X0020785Y0185884D01*
X0020785Y0139534D02*
X0025633Y0139534D01*
X0030433Y0139534D02*
X0035281Y0139534D01*
X0040081Y0139534D02*
X0044928Y0139534D01*
X0050004Y0135690D02*
X0050004Y0130619D01*
X0050004Y0125819D02*
X0050004Y0120748D01*
X0050004Y0115948D02*
X0050004Y0110877D01*
X0050004Y0106077D02*
X0050004Y0101005D01*
X0050004Y0096205D02*
X0050004Y0091134D01*
X0051077Y0094474D02*
X0046119Y0094474D01*
X0041319Y0094474D02*
X0036362Y0094474D01*
X0031562Y0094474D02*
X0026605Y0094474D01*
X0021805Y0094474D02*
X0016848Y0094474D01*
X0050004Y0086334D02*
X0050004Y0081263D01*
X0050004Y0076463D02*
X0050004Y0071391D01*
X0050004Y0066591D02*
X0050004Y0061520D01*
X0050004Y0056720D02*
X0050004Y0051649D01*
X0045978Y0051274D02*
X0041131Y0051274D01*
X0036331Y0051274D02*
X0031483Y0051274D01*
X0026683Y0051274D02*
X0021835Y0051274D01*
X0055877Y0094474D02*
X0060834Y0094474D01*
X0065634Y0094474D02*
X0070591Y0094474D01*
X0075391Y0094474D02*
X0080348Y0094474D01*
X0085148Y0094474D02*
X0090105Y0094474D01*
X0095214Y0101005D02*
X0095214Y0106077D01*
X0095214Y0110877D02*
X0095214Y0115948D01*
X0095214Y0120748D02*
X0095214Y0125819D01*
X0095214Y0130619D02*
X0095214Y0135690D01*
X0097967Y0139534D02*
X0102815Y0139534D01*
X0107615Y0139534D02*
X0112463Y0139534D01*
X0117263Y0139534D02*
X0122110Y0139534D01*
X0126910Y0139534D02*
X0131758Y0139534D01*
X0146206Y0139534D02*
X0151054Y0139534D01*
X0155854Y0139534D02*
X0160702Y0139534D01*
X0165502Y0139534D02*
X0170349Y0139534D01*
X0175149Y0139534D02*
X0179997Y0139534D01*
X0194445Y0139534D02*
X0199293Y0139534D01*
X0204093Y0139534D02*
X0208940Y0139534D01*
X0213740Y0139534D02*
X0218588Y0139534D01*
X0223388Y0139534D02*
X0228236Y0139534D01*
X0234504Y0135690D02*
X0234504Y0130619D01*
X0234504Y0125819D02*
X0234504Y0120748D01*
X0234504Y0115948D02*
X0234504Y0110877D01*
X0234504Y0106077D02*
X0234504Y0101005D01*
X0241262Y0094474D02*
X0246219Y0094474D01*
X0251019Y0094474D02*
X0255976Y0094474D01*
X0260776Y0094474D02*
X0265733Y0094474D01*
X0270533Y0094474D02*
X0275491Y0094474D01*
X0280764Y0090737D02*
X0280764Y0085857D01*
X0280764Y0081057D02*
X0280764Y0076177D01*
X0280764Y0071377D02*
X0280764Y0066497D01*
X0280764Y0061697D02*
X0280764Y0056817D01*
X0339161Y0139534D02*
X0344009Y0139534D01*
X0348809Y0139534D02*
X0353657Y0139534D01*
X0358457Y0139534D02*
X0363305Y0139534D01*
X0363305Y0278014D02*
X0358457Y0278014D01*
X0353657Y0278014D02*
X0348809Y0278014D01*
X0344009Y0278014D02*
X0339161Y0278014D01*
X0329154Y0288560D02*
X0329154Y0293631D01*
X0329154Y0298431D02*
X0329154Y0303502D01*
X0329154Y0308302D02*
X0329154Y0313374D01*
X0187194Y0225455D02*
X0187194Y0220486D01*
X0187194Y0215686D02*
X0187194Y0210717D01*
X0187194Y0205917D02*
X0187194Y0200949D01*
X0187194Y0196149D02*
X0187194Y0191180D01*
X0179997Y0185884D02*
X0175149Y0185884D01*
X0170349Y0185884D02*
X0165502Y0185884D01*
X0160702Y0185884D02*
X0155854Y0185884D01*
X0151054Y0185884D02*
X0146206Y0185884D01*
X0140934Y0189847D02*
X0140934Y0194918D01*
X0140934Y0199718D02*
X0140934Y0204789D01*
X0140934Y0209589D02*
X0140934Y0214661D01*
X0140934Y0219461D02*
X0140934Y0224532D01*
X0146206Y0230614D02*
X0151054Y0230614D01*
X0155854Y0230614D02*
X0160702Y0230614D01*
X0165502Y0230614D02*
X0170349Y0230614D01*
X0175149Y0230614D02*
X0179997Y0230614D01*
X0140934Y0288560D02*
X0140934Y0293631D01*
X0140934Y0298431D02*
X0140934Y0303502D01*
X0140934Y0308302D02*
X0140934Y0313374D01*
D12*
X0122784Y0311734D02*
X0122786Y0311765D01*
X0122792Y0311796D01*
X0122802Y0311826D01*
X0122815Y0311854D01*
X0122832Y0311881D01*
X0122852Y0311905D01*
X0122875Y0311927D01*
X0122900Y0311945D01*
X0122928Y0311960D01*
X0122957Y0311972D01*
X0122987Y0311980D01*
X0123018Y0311984D01*
X0123050Y0311984D01*
X0123081Y0311980D01*
X0123111Y0311972D01*
X0123140Y0311960D01*
X0123168Y0311945D01*
X0123193Y0311927D01*
X0123216Y0311905D01*
X0123236Y0311881D01*
X0123253Y0311854D01*
X0123266Y0311826D01*
X0123276Y0311796D01*
X0123282Y0311765D01*
X0123284Y0311734D01*
X0123282Y0311703D01*
X0123276Y0311672D01*
X0123266Y0311642D01*
X0123253Y0311614D01*
X0123236Y0311587D01*
X0123216Y0311563D01*
X0123193Y0311541D01*
X0123168Y0311523D01*
X0123140Y0311508D01*
X0123111Y0311496D01*
X0123081Y0311488D01*
X0123050Y0311484D01*
X0123018Y0311484D01*
X0122987Y0311488D01*
X0122957Y0311496D01*
X0122928Y0311508D01*
X0122900Y0311523D01*
X0122875Y0311541D01*
X0122852Y0311563D01*
X0122832Y0311587D01*
X0122815Y0311614D01*
X0122802Y0311642D01*
X0122792Y0311672D01*
X0122786Y0311703D01*
X0122784Y0311734D01*
X0077024Y0312114D02*
X0077026Y0312145D01*
X0077032Y0312176D01*
X0077042Y0312206D01*
X0077055Y0312234D01*
X0077072Y0312261D01*
X0077092Y0312285D01*
X0077115Y0312307D01*
X0077140Y0312325D01*
X0077168Y0312340D01*
X0077197Y0312352D01*
X0077227Y0312360D01*
X0077258Y0312364D01*
X0077290Y0312364D01*
X0077321Y0312360D01*
X0077351Y0312352D01*
X0077380Y0312340D01*
X0077408Y0312325D01*
X0077433Y0312307D01*
X0077456Y0312285D01*
X0077476Y0312261D01*
X0077493Y0312234D01*
X0077506Y0312206D01*
X0077516Y0312176D01*
X0077522Y0312145D01*
X0077524Y0312114D01*
X0077522Y0312083D01*
X0077516Y0312052D01*
X0077506Y0312022D01*
X0077493Y0311994D01*
X0077476Y0311967D01*
X0077456Y0311943D01*
X0077433Y0311921D01*
X0077408Y0311903D01*
X0077380Y0311888D01*
X0077351Y0311876D01*
X0077321Y0311868D01*
X0077290Y0311864D01*
X0077258Y0311864D01*
X0077227Y0311868D01*
X0077197Y0311876D01*
X0077168Y0311888D01*
X0077140Y0311903D01*
X0077115Y0311921D01*
X0077092Y0311943D01*
X0077072Y0311967D01*
X0077055Y0311994D01*
X0077042Y0312022D01*
X0077032Y0312052D01*
X0077026Y0312083D01*
X0077024Y0312114D01*
X0032544Y0312274D02*
X0032546Y0312305D01*
X0032552Y0312336D01*
X0032562Y0312366D01*
X0032575Y0312394D01*
X0032592Y0312421D01*
X0032612Y0312445D01*
X0032635Y0312467D01*
X0032660Y0312485D01*
X0032688Y0312500D01*
X0032717Y0312512D01*
X0032747Y0312520D01*
X0032778Y0312524D01*
X0032810Y0312524D01*
X0032841Y0312520D01*
X0032871Y0312512D01*
X0032900Y0312500D01*
X0032928Y0312485D01*
X0032953Y0312467D01*
X0032976Y0312445D01*
X0032996Y0312421D01*
X0033013Y0312394D01*
X0033026Y0312366D01*
X0033036Y0312336D01*
X0033042Y0312305D01*
X0033044Y0312274D01*
X0033042Y0312243D01*
X0033036Y0312212D01*
X0033026Y0312182D01*
X0033013Y0312154D01*
X0032996Y0312127D01*
X0032976Y0312103D01*
X0032953Y0312081D01*
X0032928Y0312063D01*
X0032900Y0312048D01*
X0032871Y0312036D01*
X0032841Y0312028D01*
X0032810Y0312024D01*
X0032778Y0312024D01*
X0032747Y0312028D01*
X0032717Y0312036D01*
X0032688Y0312048D01*
X0032660Y0312063D01*
X0032635Y0312081D01*
X0032612Y0312103D01*
X0032592Y0312127D01*
X0032575Y0312154D01*
X0032562Y0312182D01*
X0032552Y0312212D01*
X0032546Y0312243D01*
X0032544Y0312274D01*
X0032684Y0263434D02*
X0032686Y0263465D01*
X0032692Y0263496D01*
X0032702Y0263526D01*
X0032715Y0263554D01*
X0032732Y0263581D01*
X0032752Y0263605D01*
X0032775Y0263627D01*
X0032800Y0263645D01*
X0032828Y0263660D01*
X0032857Y0263672D01*
X0032887Y0263680D01*
X0032918Y0263684D01*
X0032950Y0263684D01*
X0032981Y0263680D01*
X0033011Y0263672D01*
X0033040Y0263660D01*
X0033068Y0263645D01*
X0033093Y0263627D01*
X0033116Y0263605D01*
X0033136Y0263581D01*
X0033153Y0263554D01*
X0033166Y0263526D01*
X0033176Y0263496D01*
X0033182Y0263465D01*
X0033184Y0263434D01*
X0033182Y0263403D01*
X0033176Y0263372D01*
X0033166Y0263342D01*
X0033153Y0263314D01*
X0033136Y0263287D01*
X0033116Y0263263D01*
X0033093Y0263241D01*
X0033068Y0263223D01*
X0033040Y0263208D01*
X0033011Y0263196D01*
X0032981Y0263188D01*
X0032950Y0263184D01*
X0032918Y0263184D01*
X0032887Y0263188D01*
X0032857Y0263196D01*
X0032828Y0263208D01*
X0032800Y0263223D01*
X0032775Y0263241D01*
X0032752Y0263263D01*
X0032732Y0263287D01*
X0032715Y0263314D01*
X0032702Y0263342D01*
X0032692Y0263372D01*
X0032686Y0263403D01*
X0032684Y0263434D01*
X0077164Y0263274D02*
X0077166Y0263305D01*
X0077172Y0263336D01*
X0077182Y0263366D01*
X0077195Y0263394D01*
X0077212Y0263421D01*
X0077232Y0263445D01*
X0077255Y0263467D01*
X0077280Y0263485D01*
X0077308Y0263500D01*
X0077337Y0263512D01*
X0077367Y0263520D01*
X0077398Y0263524D01*
X0077430Y0263524D01*
X0077461Y0263520D01*
X0077491Y0263512D01*
X0077520Y0263500D01*
X0077548Y0263485D01*
X0077573Y0263467D01*
X0077596Y0263445D01*
X0077616Y0263421D01*
X0077633Y0263394D01*
X0077646Y0263366D01*
X0077656Y0263336D01*
X0077662Y0263305D01*
X0077664Y0263274D01*
X0077662Y0263243D01*
X0077656Y0263212D01*
X0077646Y0263182D01*
X0077633Y0263154D01*
X0077616Y0263127D01*
X0077596Y0263103D01*
X0077573Y0263081D01*
X0077548Y0263063D01*
X0077520Y0263048D01*
X0077491Y0263036D01*
X0077461Y0263028D01*
X0077430Y0263024D01*
X0077398Y0263024D01*
X0077367Y0263028D01*
X0077337Y0263036D01*
X0077308Y0263048D01*
X0077280Y0263063D01*
X0077255Y0263081D01*
X0077232Y0263103D01*
X0077212Y0263127D01*
X0077195Y0263154D01*
X0077182Y0263182D01*
X0077172Y0263212D01*
X0077166Y0263243D01*
X0077164Y0263274D01*
X0122924Y0262894D02*
X0122926Y0262925D01*
X0122932Y0262956D01*
X0122942Y0262986D01*
X0122955Y0263014D01*
X0122972Y0263041D01*
X0122992Y0263065D01*
X0123015Y0263087D01*
X0123040Y0263105D01*
X0123068Y0263120D01*
X0123097Y0263132D01*
X0123127Y0263140D01*
X0123158Y0263144D01*
X0123190Y0263144D01*
X0123221Y0263140D01*
X0123251Y0263132D01*
X0123280Y0263120D01*
X0123308Y0263105D01*
X0123333Y0263087D01*
X0123356Y0263065D01*
X0123376Y0263041D01*
X0123393Y0263014D01*
X0123406Y0262986D01*
X0123416Y0262956D01*
X0123422Y0262925D01*
X0123424Y0262894D01*
X0123422Y0262863D01*
X0123416Y0262832D01*
X0123406Y0262802D01*
X0123393Y0262774D01*
X0123376Y0262747D01*
X0123356Y0262723D01*
X0123333Y0262701D01*
X0123308Y0262683D01*
X0123280Y0262668D01*
X0123251Y0262656D01*
X0123221Y0262648D01*
X0123190Y0262644D01*
X0123158Y0262644D01*
X0123127Y0262648D01*
X0123097Y0262656D01*
X0123068Y0262668D01*
X0123040Y0262683D01*
X0123015Y0262701D01*
X0122992Y0262723D01*
X0122972Y0262747D01*
X0122955Y0262774D01*
X0122942Y0262802D01*
X0122932Y0262832D01*
X0122926Y0262863D01*
X0122924Y0262894D01*
X0169244Y0263364D02*
X0169246Y0263395D01*
X0169252Y0263426D01*
X0169262Y0263456D01*
X0169275Y0263484D01*
X0169292Y0263511D01*
X0169312Y0263535D01*
X0169335Y0263557D01*
X0169360Y0263575D01*
X0169388Y0263590D01*
X0169417Y0263602D01*
X0169447Y0263610D01*
X0169478Y0263614D01*
X0169510Y0263614D01*
X0169541Y0263610D01*
X0169571Y0263602D01*
X0169600Y0263590D01*
X0169628Y0263575D01*
X0169653Y0263557D01*
X0169676Y0263535D01*
X0169696Y0263511D01*
X0169713Y0263484D01*
X0169726Y0263456D01*
X0169736Y0263426D01*
X0169742Y0263395D01*
X0169744Y0263364D01*
X0169742Y0263333D01*
X0169736Y0263302D01*
X0169726Y0263272D01*
X0169713Y0263244D01*
X0169696Y0263217D01*
X0169676Y0263193D01*
X0169653Y0263171D01*
X0169628Y0263153D01*
X0169600Y0263138D01*
X0169571Y0263126D01*
X0169541Y0263118D01*
X0169510Y0263114D01*
X0169478Y0263114D01*
X0169447Y0263118D01*
X0169417Y0263126D01*
X0169388Y0263138D01*
X0169360Y0263153D01*
X0169335Y0263171D01*
X0169312Y0263193D01*
X0169292Y0263217D01*
X0169275Y0263244D01*
X0169262Y0263272D01*
X0169252Y0263302D01*
X0169246Y0263333D01*
X0169244Y0263364D01*
X0215494Y0264104D02*
X0215496Y0264135D01*
X0215502Y0264166D01*
X0215512Y0264196D01*
X0215525Y0264224D01*
X0215542Y0264251D01*
X0215562Y0264275D01*
X0215585Y0264297D01*
X0215610Y0264315D01*
X0215638Y0264330D01*
X0215667Y0264342D01*
X0215697Y0264350D01*
X0215728Y0264354D01*
X0215760Y0264354D01*
X0215791Y0264350D01*
X0215821Y0264342D01*
X0215850Y0264330D01*
X0215878Y0264315D01*
X0215903Y0264297D01*
X0215926Y0264275D01*
X0215946Y0264251D01*
X0215963Y0264224D01*
X0215976Y0264196D01*
X0215986Y0264166D01*
X0215992Y0264135D01*
X0215994Y0264104D01*
X0215992Y0264073D01*
X0215986Y0264042D01*
X0215976Y0264012D01*
X0215963Y0263984D01*
X0215946Y0263957D01*
X0215926Y0263933D01*
X0215903Y0263911D01*
X0215878Y0263893D01*
X0215850Y0263878D01*
X0215821Y0263866D01*
X0215791Y0263858D01*
X0215760Y0263854D01*
X0215728Y0263854D01*
X0215697Y0263858D01*
X0215667Y0263866D01*
X0215638Y0263878D01*
X0215610Y0263893D01*
X0215585Y0263911D01*
X0215562Y0263933D01*
X0215542Y0263957D01*
X0215525Y0263984D01*
X0215512Y0264012D01*
X0215502Y0264042D01*
X0215496Y0264073D01*
X0215494Y0264104D01*
X0215564Y0220044D02*
X0215566Y0220075D01*
X0215572Y0220106D01*
X0215582Y0220136D01*
X0215595Y0220164D01*
X0215612Y0220191D01*
X0215632Y0220215D01*
X0215655Y0220237D01*
X0215680Y0220255D01*
X0215708Y0220270D01*
X0215737Y0220282D01*
X0215767Y0220290D01*
X0215798Y0220294D01*
X0215830Y0220294D01*
X0215861Y0220290D01*
X0215891Y0220282D01*
X0215920Y0220270D01*
X0215948Y0220255D01*
X0215973Y0220237D01*
X0215996Y0220215D01*
X0216016Y0220191D01*
X0216033Y0220164D01*
X0216046Y0220136D01*
X0216056Y0220106D01*
X0216062Y0220075D01*
X0216064Y0220044D01*
X0216062Y0220013D01*
X0216056Y0219982D01*
X0216046Y0219952D01*
X0216033Y0219924D01*
X0216016Y0219897D01*
X0215996Y0219873D01*
X0215973Y0219851D01*
X0215948Y0219833D01*
X0215920Y0219818D01*
X0215891Y0219806D01*
X0215861Y0219798D01*
X0215830Y0219794D01*
X0215798Y0219794D01*
X0215767Y0219798D01*
X0215737Y0219806D01*
X0215708Y0219818D01*
X0215680Y0219833D01*
X0215655Y0219851D01*
X0215632Y0219873D01*
X0215612Y0219897D01*
X0215595Y0219924D01*
X0215582Y0219952D01*
X0215572Y0219982D01*
X0215566Y0220013D01*
X0215564Y0220044D01*
X0169314Y0219304D02*
X0169316Y0219335D01*
X0169322Y0219366D01*
X0169332Y0219396D01*
X0169345Y0219424D01*
X0169362Y0219451D01*
X0169382Y0219475D01*
X0169405Y0219497D01*
X0169430Y0219515D01*
X0169458Y0219530D01*
X0169487Y0219542D01*
X0169517Y0219550D01*
X0169548Y0219554D01*
X0169580Y0219554D01*
X0169611Y0219550D01*
X0169641Y0219542D01*
X0169670Y0219530D01*
X0169698Y0219515D01*
X0169723Y0219497D01*
X0169746Y0219475D01*
X0169766Y0219451D01*
X0169783Y0219424D01*
X0169796Y0219396D01*
X0169806Y0219366D01*
X0169812Y0219335D01*
X0169814Y0219304D01*
X0169812Y0219273D01*
X0169806Y0219242D01*
X0169796Y0219212D01*
X0169783Y0219184D01*
X0169766Y0219157D01*
X0169746Y0219133D01*
X0169723Y0219111D01*
X0169698Y0219093D01*
X0169670Y0219078D01*
X0169641Y0219066D01*
X0169611Y0219058D01*
X0169580Y0219054D01*
X0169548Y0219054D01*
X0169517Y0219058D01*
X0169487Y0219066D01*
X0169458Y0219078D01*
X0169430Y0219093D01*
X0169405Y0219111D01*
X0169382Y0219133D01*
X0169362Y0219157D01*
X0169345Y0219184D01*
X0169332Y0219212D01*
X0169322Y0219242D01*
X0169316Y0219273D01*
X0169314Y0219304D01*
X0122994Y0218834D02*
X0122996Y0218865D01*
X0123002Y0218896D01*
X0123012Y0218926D01*
X0123025Y0218954D01*
X0123042Y0218981D01*
X0123062Y0219005D01*
X0123085Y0219027D01*
X0123110Y0219045D01*
X0123138Y0219060D01*
X0123167Y0219072D01*
X0123197Y0219080D01*
X0123228Y0219084D01*
X0123260Y0219084D01*
X0123291Y0219080D01*
X0123321Y0219072D01*
X0123350Y0219060D01*
X0123378Y0219045D01*
X0123403Y0219027D01*
X0123426Y0219005D01*
X0123446Y0218981D01*
X0123463Y0218954D01*
X0123476Y0218926D01*
X0123486Y0218896D01*
X0123492Y0218865D01*
X0123494Y0218834D01*
X0123492Y0218803D01*
X0123486Y0218772D01*
X0123476Y0218742D01*
X0123463Y0218714D01*
X0123446Y0218687D01*
X0123426Y0218663D01*
X0123403Y0218641D01*
X0123378Y0218623D01*
X0123350Y0218608D01*
X0123321Y0218596D01*
X0123291Y0218588D01*
X0123260Y0218584D01*
X0123228Y0218584D01*
X0123197Y0218588D01*
X0123167Y0218596D01*
X0123138Y0218608D01*
X0123110Y0218623D01*
X0123085Y0218641D01*
X0123062Y0218663D01*
X0123042Y0218687D01*
X0123025Y0218714D01*
X0123012Y0218742D01*
X0123002Y0218772D01*
X0122996Y0218803D01*
X0122994Y0218834D01*
X0077234Y0219214D02*
X0077236Y0219245D01*
X0077242Y0219276D01*
X0077252Y0219306D01*
X0077265Y0219334D01*
X0077282Y0219361D01*
X0077302Y0219385D01*
X0077325Y0219407D01*
X0077350Y0219425D01*
X0077378Y0219440D01*
X0077407Y0219452D01*
X0077437Y0219460D01*
X0077468Y0219464D01*
X0077500Y0219464D01*
X0077531Y0219460D01*
X0077561Y0219452D01*
X0077590Y0219440D01*
X0077618Y0219425D01*
X0077643Y0219407D01*
X0077666Y0219385D01*
X0077686Y0219361D01*
X0077703Y0219334D01*
X0077716Y0219306D01*
X0077726Y0219276D01*
X0077732Y0219245D01*
X0077734Y0219214D01*
X0077732Y0219183D01*
X0077726Y0219152D01*
X0077716Y0219122D01*
X0077703Y0219094D01*
X0077686Y0219067D01*
X0077666Y0219043D01*
X0077643Y0219021D01*
X0077618Y0219003D01*
X0077590Y0218988D01*
X0077561Y0218976D01*
X0077531Y0218968D01*
X0077500Y0218964D01*
X0077468Y0218964D01*
X0077437Y0218968D01*
X0077407Y0218976D01*
X0077378Y0218988D01*
X0077350Y0219003D01*
X0077325Y0219021D01*
X0077302Y0219043D01*
X0077282Y0219067D01*
X0077265Y0219094D01*
X0077252Y0219122D01*
X0077242Y0219152D01*
X0077236Y0219183D01*
X0077234Y0219214D01*
X0032754Y0219374D02*
X0032756Y0219405D01*
X0032762Y0219436D01*
X0032772Y0219466D01*
X0032785Y0219494D01*
X0032802Y0219521D01*
X0032822Y0219545D01*
X0032845Y0219567D01*
X0032870Y0219585D01*
X0032898Y0219600D01*
X0032927Y0219612D01*
X0032957Y0219620D01*
X0032988Y0219624D01*
X0033020Y0219624D01*
X0033051Y0219620D01*
X0033081Y0219612D01*
X0033110Y0219600D01*
X0033138Y0219585D01*
X0033163Y0219567D01*
X0033186Y0219545D01*
X0033206Y0219521D01*
X0033223Y0219494D01*
X0033236Y0219466D01*
X0033246Y0219436D01*
X0033252Y0219405D01*
X0033254Y0219374D01*
X0033252Y0219343D01*
X0033246Y0219312D01*
X0033236Y0219282D01*
X0033223Y0219254D01*
X0033206Y0219227D01*
X0033186Y0219203D01*
X0033163Y0219181D01*
X0033138Y0219163D01*
X0033110Y0219148D01*
X0033081Y0219136D01*
X0033051Y0219128D01*
X0033020Y0219124D01*
X0032988Y0219124D01*
X0032957Y0219128D01*
X0032927Y0219136D01*
X0032898Y0219148D01*
X0032870Y0219163D01*
X0032845Y0219181D01*
X0032822Y0219203D01*
X0032802Y0219227D01*
X0032785Y0219254D01*
X0032772Y0219282D01*
X0032762Y0219312D01*
X0032756Y0219343D01*
X0032754Y0219374D01*
X0032934Y0172634D02*
X0032936Y0172665D01*
X0032942Y0172696D01*
X0032952Y0172726D01*
X0032965Y0172754D01*
X0032982Y0172781D01*
X0033002Y0172805D01*
X0033025Y0172827D01*
X0033050Y0172845D01*
X0033078Y0172860D01*
X0033107Y0172872D01*
X0033137Y0172880D01*
X0033168Y0172884D01*
X0033200Y0172884D01*
X0033231Y0172880D01*
X0033261Y0172872D01*
X0033290Y0172860D01*
X0033318Y0172845D01*
X0033343Y0172827D01*
X0033366Y0172805D01*
X0033386Y0172781D01*
X0033403Y0172754D01*
X0033416Y0172726D01*
X0033426Y0172696D01*
X0033432Y0172665D01*
X0033434Y0172634D01*
X0033432Y0172603D01*
X0033426Y0172572D01*
X0033416Y0172542D01*
X0033403Y0172514D01*
X0033386Y0172487D01*
X0033366Y0172463D01*
X0033343Y0172441D01*
X0033318Y0172423D01*
X0033290Y0172408D01*
X0033261Y0172396D01*
X0033231Y0172388D01*
X0033200Y0172384D01*
X0033168Y0172384D01*
X0033137Y0172388D01*
X0033107Y0172396D01*
X0033078Y0172408D01*
X0033050Y0172423D01*
X0033025Y0172441D01*
X0033002Y0172463D01*
X0032982Y0172487D01*
X0032965Y0172514D01*
X0032952Y0172542D01*
X0032942Y0172572D01*
X0032936Y0172603D01*
X0032934Y0172634D01*
X0077414Y0172474D02*
X0077416Y0172505D01*
X0077422Y0172536D01*
X0077432Y0172566D01*
X0077445Y0172594D01*
X0077462Y0172621D01*
X0077482Y0172645D01*
X0077505Y0172667D01*
X0077530Y0172685D01*
X0077558Y0172700D01*
X0077587Y0172712D01*
X0077617Y0172720D01*
X0077648Y0172724D01*
X0077680Y0172724D01*
X0077711Y0172720D01*
X0077741Y0172712D01*
X0077770Y0172700D01*
X0077798Y0172685D01*
X0077823Y0172667D01*
X0077846Y0172645D01*
X0077866Y0172621D01*
X0077883Y0172594D01*
X0077896Y0172566D01*
X0077906Y0172536D01*
X0077912Y0172505D01*
X0077914Y0172474D01*
X0077912Y0172443D01*
X0077906Y0172412D01*
X0077896Y0172382D01*
X0077883Y0172354D01*
X0077866Y0172327D01*
X0077846Y0172303D01*
X0077823Y0172281D01*
X0077798Y0172263D01*
X0077770Y0172248D01*
X0077741Y0172236D01*
X0077711Y0172228D01*
X0077680Y0172224D01*
X0077648Y0172224D01*
X0077617Y0172228D01*
X0077587Y0172236D01*
X0077558Y0172248D01*
X0077530Y0172263D01*
X0077505Y0172281D01*
X0077482Y0172303D01*
X0077462Y0172327D01*
X0077445Y0172354D01*
X0077432Y0172382D01*
X0077422Y0172412D01*
X0077416Y0172443D01*
X0077414Y0172474D01*
X0123174Y0172094D02*
X0123176Y0172125D01*
X0123182Y0172156D01*
X0123192Y0172186D01*
X0123205Y0172214D01*
X0123222Y0172241D01*
X0123242Y0172265D01*
X0123265Y0172287D01*
X0123290Y0172305D01*
X0123318Y0172320D01*
X0123347Y0172332D01*
X0123377Y0172340D01*
X0123408Y0172344D01*
X0123440Y0172344D01*
X0123471Y0172340D01*
X0123501Y0172332D01*
X0123530Y0172320D01*
X0123558Y0172305D01*
X0123583Y0172287D01*
X0123606Y0172265D01*
X0123626Y0172241D01*
X0123643Y0172214D01*
X0123656Y0172186D01*
X0123666Y0172156D01*
X0123672Y0172125D01*
X0123674Y0172094D01*
X0123672Y0172063D01*
X0123666Y0172032D01*
X0123656Y0172002D01*
X0123643Y0171974D01*
X0123626Y0171947D01*
X0123606Y0171923D01*
X0123583Y0171901D01*
X0123558Y0171883D01*
X0123530Y0171868D01*
X0123501Y0171856D01*
X0123471Y0171848D01*
X0123440Y0171844D01*
X0123408Y0171844D01*
X0123377Y0171848D01*
X0123347Y0171856D01*
X0123318Y0171868D01*
X0123290Y0171883D01*
X0123265Y0171901D01*
X0123242Y0171923D01*
X0123222Y0171947D01*
X0123205Y0171974D01*
X0123192Y0172002D01*
X0123182Y0172032D01*
X0123176Y0172063D01*
X0123174Y0172094D01*
X0077484Y0128414D02*
X0077486Y0128445D01*
X0077492Y0128476D01*
X0077502Y0128506D01*
X0077515Y0128534D01*
X0077532Y0128561D01*
X0077552Y0128585D01*
X0077575Y0128607D01*
X0077600Y0128625D01*
X0077628Y0128640D01*
X0077657Y0128652D01*
X0077687Y0128660D01*
X0077718Y0128664D01*
X0077750Y0128664D01*
X0077781Y0128660D01*
X0077811Y0128652D01*
X0077840Y0128640D01*
X0077868Y0128625D01*
X0077893Y0128607D01*
X0077916Y0128585D01*
X0077936Y0128561D01*
X0077953Y0128534D01*
X0077966Y0128506D01*
X0077976Y0128476D01*
X0077982Y0128445D01*
X0077984Y0128414D01*
X0077982Y0128383D01*
X0077976Y0128352D01*
X0077966Y0128322D01*
X0077953Y0128294D01*
X0077936Y0128267D01*
X0077916Y0128243D01*
X0077893Y0128221D01*
X0077868Y0128203D01*
X0077840Y0128188D01*
X0077811Y0128176D01*
X0077781Y0128168D01*
X0077750Y0128164D01*
X0077718Y0128164D01*
X0077687Y0128168D01*
X0077657Y0128176D01*
X0077628Y0128188D01*
X0077600Y0128203D01*
X0077575Y0128221D01*
X0077552Y0128243D01*
X0077532Y0128267D01*
X0077515Y0128294D01*
X0077502Y0128322D01*
X0077492Y0128352D01*
X0077486Y0128383D01*
X0077484Y0128414D01*
X0033004Y0128574D02*
X0033006Y0128605D01*
X0033012Y0128636D01*
X0033022Y0128666D01*
X0033035Y0128694D01*
X0033052Y0128721D01*
X0033072Y0128745D01*
X0033095Y0128767D01*
X0033120Y0128785D01*
X0033148Y0128800D01*
X0033177Y0128812D01*
X0033207Y0128820D01*
X0033238Y0128824D01*
X0033270Y0128824D01*
X0033301Y0128820D01*
X0033331Y0128812D01*
X0033360Y0128800D01*
X0033388Y0128785D01*
X0033413Y0128767D01*
X0033436Y0128745D01*
X0033456Y0128721D01*
X0033473Y0128694D01*
X0033486Y0128666D01*
X0033496Y0128636D01*
X0033502Y0128605D01*
X0033504Y0128574D01*
X0033502Y0128543D01*
X0033496Y0128512D01*
X0033486Y0128482D01*
X0033473Y0128454D01*
X0033456Y0128427D01*
X0033436Y0128403D01*
X0033413Y0128381D01*
X0033388Y0128363D01*
X0033360Y0128348D01*
X0033331Y0128336D01*
X0033301Y0128328D01*
X0033270Y0128324D01*
X0033238Y0128324D01*
X0033207Y0128328D01*
X0033177Y0128336D01*
X0033148Y0128348D01*
X0033120Y0128363D01*
X0033095Y0128381D01*
X0033072Y0128403D01*
X0033052Y0128427D01*
X0033035Y0128454D01*
X0033022Y0128482D01*
X0033012Y0128512D01*
X0033006Y0128543D01*
X0033004Y0128574D01*
X0032914Y0084054D02*
X0032916Y0084085D01*
X0032922Y0084116D01*
X0032932Y0084146D01*
X0032945Y0084174D01*
X0032962Y0084201D01*
X0032982Y0084225D01*
X0033005Y0084247D01*
X0033030Y0084265D01*
X0033058Y0084280D01*
X0033087Y0084292D01*
X0033117Y0084300D01*
X0033148Y0084304D01*
X0033180Y0084304D01*
X0033211Y0084300D01*
X0033241Y0084292D01*
X0033270Y0084280D01*
X0033298Y0084265D01*
X0033323Y0084247D01*
X0033346Y0084225D01*
X0033366Y0084201D01*
X0033383Y0084174D01*
X0033396Y0084146D01*
X0033406Y0084116D01*
X0033412Y0084085D01*
X0033414Y0084054D01*
X0033412Y0084023D01*
X0033406Y0083992D01*
X0033396Y0083962D01*
X0033383Y0083934D01*
X0033366Y0083907D01*
X0033346Y0083883D01*
X0033323Y0083861D01*
X0033298Y0083843D01*
X0033270Y0083828D01*
X0033241Y0083816D01*
X0033211Y0083808D01*
X0033180Y0083804D01*
X0033148Y0083804D01*
X0033117Y0083808D01*
X0033087Y0083816D01*
X0033058Y0083828D01*
X0033030Y0083843D01*
X0033005Y0083861D01*
X0032982Y0083883D01*
X0032962Y0083907D01*
X0032945Y0083934D01*
X0032932Y0083962D01*
X0032922Y0083992D01*
X0032916Y0084023D01*
X0032914Y0084054D01*
X0077394Y0083894D02*
X0077396Y0083925D01*
X0077402Y0083956D01*
X0077412Y0083986D01*
X0077425Y0084014D01*
X0077442Y0084041D01*
X0077462Y0084065D01*
X0077485Y0084087D01*
X0077510Y0084105D01*
X0077538Y0084120D01*
X0077567Y0084132D01*
X0077597Y0084140D01*
X0077628Y0084144D01*
X0077660Y0084144D01*
X0077691Y0084140D01*
X0077721Y0084132D01*
X0077750Y0084120D01*
X0077778Y0084105D01*
X0077803Y0084087D01*
X0077826Y0084065D01*
X0077846Y0084041D01*
X0077863Y0084014D01*
X0077876Y0083986D01*
X0077886Y0083956D01*
X0077892Y0083925D01*
X0077894Y0083894D01*
X0077892Y0083863D01*
X0077886Y0083832D01*
X0077876Y0083802D01*
X0077863Y0083774D01*
X0077846Y0083747D01*
X0077826Y0083723D01*
X0077803Y0083701D01*
X0077778Y0083683D01*
X0077750Y0083668D01*
X0077721Y0083656D01*
X0077691Y0083648D01*
X0077660Y0083644D01*
X0077628Y0083644D01*
X0077597Y0083648D01*
X0077567Y0083656D01*
X0077538Y0083668D01*
X0077510Y0083683D01*
X0077485Y0083701D01*
X0077462Y0083723D01*
X0077442Y0083747D01*
X0077425Y0083774D01*
X0077412Y0083802D01*
X0077402Y0083832D01*
X0077396Y0083863D01*
X0077394Y0083894D01*
X0123154Y0083514D02*
X0123156Y0083545D01*
X0123162Y0083576D01*
X0123172Y0083606D01*
X0123185Y0083634D01*
X0123202Y0083661D01*
X0123222Y0083685D01*
X0123245Y0083707D01*
X0123270Y0083725D01*
X0123298Y0083740D01*
X0123327Y0083752D01*
X0123357Y0083760D01*
X0123388Y0083764D01*
X0123420Y0083764D01*
X0123451Y0083760D01*
X0123481Y0083752D01*
X0123510Y0083740D01*
X0123538Y0083725D01*
X0123563Y0083707D01*
X0123586Y0083685D01*
X0123606Y0083661D01*
X0123623Y0083634D01*
X0123636Y0083606D01*
X0123646Y0083576D01*
X0123652Y0083545D01*
X0123654Y0083514D01*
X0123652Y0083483D01*
X0123646Y0083452D01*
X0123636Y0083422D01*
X0123623Y0083394D01*
X0123606Y0083367D01*
X0123586Y0083343D01*
X0123563Y0083321D01*
X0123538Y0083303D01*
X0123510Y0083288D01*
X0123481Y0083276D01*
X0123451Y0083268D01*
X0123420Y0083264D01*
X0123388Y0083264D01*
X0123357Y0083268D01*
X0123327Y0083276D01*
X0123298Y0083288D01*
X0123270Y0083303D01*
X0123245Y0083321D01*
X0123222Y0083343D01*
X0123202Y0083367D01*
X0123185Y0083394D01*
X0123172Y0083422D01*
X0123162Y0083452D01*
X0123156Y0083483D01*
X0123154Y0083514D01*
X0123224Y0039454D02*
X0123226Y0039485D01*
X0123232Y0039516D01*
X0123242Y0039546D01*
X0123255Y0039574D01*
X0123272Y0039601D01*
X0123292Y0039625D01*
X0123315Y0039647D01*
X0123340Y0039665D01*
X0123368Y0039680D01*
X0123397Y0039692D01*
X0123427Y0039700D01*
X0123458Y0039704D01*
X0123490Y0039704D01*
X0123521Y0039700D01*
X0123551Y0039692D01*
X0123580Y0039680D01*
X0123608Y0039665D01*
X0123633Y0039647D01*
X0123656Y0039625D01*
X0123676Y0039601D01*
X0123693Y0039574D01*
X0123706Y0039546D01*
X0123716Y0039516D01*
X0123722Y0039485D01*
X0123724Y0039454D01*
X0123722Y0039423D01*
X0123716Y0039392D01*
X0123706Y0039362D01*
X0123693Y0039334D01*
X0123676Y0039307D01*
X0123656Y0039283D01*
X0123633Y0039261D01*
X0123608Y0039243D01*
X0123580Y0039228D01*
X0123551Y0039216D01*
X0123521Y0039208D01*
X0123490Y0039204D01*
X0123458Y0039204D01*
X0123427Y0039208D01*
X0123397Y0039216D01*
X0123368Y0039228D01*
X0123340Y0039243D01*
X0123315Y0039261D01*
X0123292Y0039283D01*
X0123272Y0039307D01*
X0123255Y0039334D01*
X0123242Y0039362D01*
X0123232Y0039392D01*
X0123226Y0039423D01*
X0123224Y0039454D01*
X0077464Y0039834D02*
X0077466Y0039865D01*
X0077472Y0039896D01*
X0077482Y0039926D01*
X0077495Y0039954D01*
X0077512Y0039981D01*
X0077532Y0040005D01*
X0077555Y0040027D01*
X0077580Y0040045D01*
X0077608Y0040060D01*
X0077637Y0040072D01*
X0077667Y0040080D01*
X0077698Y0040084D01*
X0077730Y0040084D01*
X0077761Y0040080D01*
X0077791Y0040072D01*
X0077820Y0040060D01*
X0077848Y0040045D01*
X0077873Y0040027D01*
X0077896Y0040005D01*
X0077916Y0039981D01*
X0077933Y0039954D01*
X0077946Y0039926D01*
X0077956Y0039896D01*
X0077962Y0039865D01*
X0077964Y0039834D01*
X0077962Y0039803D01*
X0077956Y0039772D01*
X0077946Y0039742D01*
X0077933Y0039714D01*
X0077916Y0039687D01*
X0077896Y0039663D01*
X0077873Y0039641D01*
X0077848Y0039623D01*
X0077820Y0039608D01*
X0077791Y0039596D01*
X0077761Y0039588D01*
X0077730Y0039584D01*
X0077698Y0039584D01*
X0077667Y0039588D01*
X0077637Y0039596D01*
X0077608Y0039608D01*
X0077580Y0039623D01*
X0077555Y0039641D01*
X0077532Y0039663D01*
X0077512Y0039687D01*
X0077495Y0039714D01*
X0077482Y0039742D01*
X0077472Y0039772D01*
X0077466Y0039803D01*
X0077464Y0039834D01*
X0032984Y0039994D02*
X0032986Y0040025D01*
X0032992Y0040056D01*
X0033002Y0040086D01*
X0033015Y0040114D01*
X0033032Y0040141D01*
X0033052Y0040165D01*
X0033075Y0040187D01*
X0033100Y0040205D01*
X0033128Y0040220D01*
X0033157Y0040232D01*
X0033187Y0040240D01*
X0033218Y0040244D01*
X0033250Y0040244D01*
X0033281Y0040240D01*
X0033311Y0040232D01*
X0033340Y0040220D01*
X0033368Y0040205D01*
X0033393Y0040187D01*
X0033416Y0040165D01*
X0033436Y0040141D01*
X0033453Y0040114D01*
X0033466Y0040086D01*
X0033476Y0040056D01*
X0033482Y0040025D01*
X0033484Y0039994D01*
X0033482Y0039963D01*
X0033476Y0039932D01*
X0033466Y0039902D01*
X0033453Y0039874D01*
X0033436Y0039847D01*
X0033416Y0039823D01*
X0033393Y0039801D01*
X0033368Y0039783D01*
X0033340Y0039768D01*
X0033311Y0039756D01*
X0033281Y0039748D01*
X0033250Y0039744D01*
X0033218Y0039744D01*
X0033187Y0039748D01*
X0033157Y0039756D01*
X0033128Y0039768D01*
X0033100Y0039783D01*
X0033075Y0039801D01*
X0033052Y0039823D01*
X0033032Y0039847D01*
X0033015Y0039874D01*
X0033002Y0039902D01*
X0032992Y0039932D01*
X0032986Y0039963D01*
X0032984Y0039994D01*
X0123244Y0128034D02*
X0123246Y0128065D01*
X0123252Y0128096D01*
X0123262Y0128126D01*
X0123275Y0128154D01*
X0123292Y0128181D01*
X0123312Y0128205D01*
X0123335Y0128227D01*
X0123360Y0128245D01*
X0123388Y0128260D01*
X0123417Y0128272D01*
X0123447Y0128280D01*
X0123478Y0128284D01*
X0123510Y0128284D01*
X0123541Y0128280D01*
X0123571Y0128272D01*
X0123600Y0128260D01*
X0123628Y0128245D01*
X0123653Y0128227D01*
X0123676Y0128205D01*
X0123696Y0128181D01*
X0123713Y0128154D01*
X0123726Y0128126D01*
X0123736Y0128096D01*
X0123742Y0128065D01*
X0123744Y0128034D01*
X0123742Y0128003D01*
X0123736Y0127972D01*
X0123726Y0127942D01*
X0123713Y0127914D01*
X0123696Y0127887D01*
X0123676Y0127863D01*
X0123653Y0127841D01*
X0123628Y0127823D01*
X0123600Y0127808D01*
X0123571Y0127796D01*
X0123541Y0127788D01*
X0123510Y0127784D01*
X0123478Y0127784D01*
X0123447Y0127788D01*
X0123417Y0127796D01*
X0123388Y0127808D01*
X0123360Y0127823D01*
X0123335Y0127841D01*
X0123312Y0127863D01*
X0123292Y0127887D01*
X0123275Y0127914D01*
X0123262Y0127942D01*
X0123252Y0127972D01*
X0123246Y0128003D01*
X0123244Y0128034D01*
X0169564Y0128504D02*
X0169566Y0128535D01*
X0169572Y0128566D01*
X0169582Y0128596D01*
X0169595Y0128624D01*
X0169612Y0128651D01*
X0169632Y0128675D01*
X0169655Y0128697D01*
X0169680Y0128715D01*
X0169708Y0128730D01*
X0169737Y0128742D01*
X0169767Y0128750D01*
X0169798Y0128754D01*
X0169830Y0128754D01*
X0169861Y0128750D01*
X0169891Y0128742D01*
X0169920Y0128730D01*
X0169948Y0128715D01*
X0169973Y0128697D01*
X0169996Y0128675D01*
X0170016Y0128651D01*
X0170033Y0128624D01*
X0170046Y0128596D01*
X0170056Y0128566D01*
X0170062Y0128535D01*
X0170064Y0128504D01*
X0170062Y0128473D01*
X0170056Y0128442D01*
X0170046Y0128412D01*
X0170033Y0128384D01*
X0170016Y0128357D01*
X0169996Y0128333D01*
X0169973Y0128311D01*
X0169948Y0128293D01*
X0169920Y0128278D01*
X0169891Y0128266D01*
X0169861Y0128258D01*
X0169830Y0128254D01*
X0169798Y0128254D01*
X0169767Y0128258D01*
X0169737Y0128266D01*
X0169708Y0128278D01*
X0169680Y0128293D01*
X0169655Y0128311D01*
X0169632Y0128333D01*
X0169612Y0128357D01*
X0169595Y0128384D01*
X0169582Y0128412D01*
X0169572Y0128442D01*
X0169566Y0128473D01*
X0169564Y0128504D01*
X0169494Y0172564D02*
X0169496Y0172595D01*
X0169502Y0172626D01*
X0169512Y0172656D01*
X0169525Y0172684D01*
X0169542Y0172711D01*
X0169562Y0172735D01*
X0169585Y0172757D01*
X0169610Y0172775D01*
X0169638Y0172790D01*
X0169667Y0172802D01*
X0169697Y0172810D01*
X0169728Y0172814D01*
X0169760Y0172814D01*
X0169791Y0172810D01*
X0169821Y0172802D01*
X0169850Y0172790D01*
X0169878Y0172775D01*
X0169903Y0172757D01*
X0169926Y0172735D01*
X0169946Y0172711D01*
X0169963Y0172684D01*
X0169976Y0172656D01*
X0169986Y0172626D01*
X0169992Y0172595D01*
X0169994Y0172564D01*
X0169992Y0172533D01*
X0169986Y0172502D01*
X0169976Y0172472D01*
X0169963Y0172444D01*
X0169946Y0172417D01*
X0169926Y0172393D01*
X0169903Y0172371D01*
X0169878Y0172353D01*
X0169850Y0172338D01*
X0169821Y0172326D01*
X0169791Y0172318D01*
X0169760Y0172314D01*
X0169728Y0172314D01*
X0169697Y0172318D01*
X0169667Y0172326D01*
X0169638Y0172338D01*
X0169610Y0172353D01*
X0169585Y0172371D01*
X0169562Y0172393D01*
X0169542Y0172417D01*
X0169525Y0172444D01*
X0169512Y0172472D01*
X0169502Y0172502D01*
X0169496Y0172533D01*
X0169494Y0172564D01*
X0215744Y0173304D02*
X0215746Y0173335D01*
X0215752Y0173366D01*
X0215762Y0173396D01*
X0215775Y0173424D01*
X0215792Y0173451D01*
X0215812Y0173475D01*
X0215835Y0173497D01*
X0215860Y0173515D01*
X0215888Y0173530D01*
X0215917Y0173542D01*
X0215947Y0173550D01*
X0215978Y0173554D01*
X0216010Y0173554D01*
X0216041Y0173550D01*
X0216071Y0173542D01*
X0216100Y0173530D01*
X0216128Y0173515D01*
X0216153Y0173497D01*
X0216176Y0173475D01*
X0216196Y0173451D01*
X0216213Y0173424D01*
X0216226Y0173396D01*
X0216236Y0173366D01*
X0216242Y0173335D01*
X0216244Y0173304D01*
X0216242Y0173273D01*
X0216236Y0173242D01*
X0216226Y0173212D01*
X0216213Y0173184D01*
X0216196Y0173157D01*
X0216176Y0173133D01*
X0216153Y0173111D01*
X0216128Y0173093D01*
X0216100Y0173078D01*
X0216071Y0173066D01*
X0216041Y0173058D01*
X0216010Y0173054D01*
X0215978Y0173054D01*
X0215947Y0173058D01*
X0215917Y0173066D01*
X0215888Y0173078D01*
X0215860Y0173093D01*
X0215835Y0173111D01*
X0215812Y0173133D01*
X0215792Y0173157D01*
X0215775Y0173184D01*
X0215762Y0173212D01*
X0215752Y0173242D01*
X0215746Y0173273D01*
X0215744Y0173304D01*
X0215814Y0129244D02*
X0215816Y0129275D01*
X0215822Y0129306D01*
X0215832Y0129336D01*
X0215845Y0129364D01*
X0215862Y0129391D01*
X0215882Y0129415D01*
X0215905Y0129437D01*
X0215930Y0129455D01*
X0215958Y0129470D01*
X0215987Y0129482D01*
X0216017Y0129490D01*
X0216048Y0129494D01*
X0216080Y0129494D01*
X0216111Y0129490D01*
X0216141Y0129482D01*
X0216170Y0129470D01*
X0216198Y0129455D01*
X0216223Y0129437D01*
X0216246Y0129415D01*
X0216266Y0129391D01*
X0216283Y0129364D01*
X0216296Y0129336D01*
X0216306Y0129306D01*
X0216312Y0129275D01*
X0216314Y0129244D01*
X0216312Y0129213D01*
X0216306Y0129182D01*
X0216296Y0129152D01*
X0216283Y0129124D01*
X0216266Y0129097D01*
X0216246Y0129073D01*
X0216223Y0129051D01*
X0216198Y0129033D01*
X0216170Y0129018D01*
X0216141Y0129006D01*
X0216111Y0128998D01*
X0216080Y0128994D01*
X0216048Y0128994D01*
X0216017Y0128998D01*
X0215987Y0129006D01*
X0215958Y0129018D01*
X0215930Y0129033D01*
X0215905Y0129051D01*
X0215882Y0129073D01*
X0215862Y0129097D01*
X0215845Y0129124D01*
X0215832Y0129152D01*
X0215822Y0129182D01*
X0215816Y0129213D01*
X0215814Y0129244D01*
X0215724Y0084724D02*
X0215726Y0084755D01*
X0215732Y0084786D01*
X0215742Y0084816D01*
X0215755Y0084844D01*
X0215772Y0084871D01*
X0215792Y0084895D01*
X0215815Y0084917D01*
X0215840Y0084935D01*
X0215868Y0084950D01*
X0215897Y0084962D01*
X0215927Y0084970D01*
X0215958Y0084974D01*
X0215990Y0084974D01*
X0216021Y0084970D01*
X0216051Y0084962D01*
X0216080Y0084950D01*
X0216108Y0084935D01*
X0216133Y0084917D01*
X0216156Y0084895D01*
X0216176Y0084871D01*
X0216193Y0084844D01*
X0216206Y0084816D01*
X0216216Y0084786D01*
X0216222Y0084755D01*
X0216224Y0084724D01*
X0216222Y0084693D01*
X0216216Y0084662D01*
X0216206Y0084632D01*
X0216193Y0084604D01*
X0216176Y0084577D01*
X0216156Y0084553D01*
X0216133Y0084531D01*
X0216108Y0084513D01*
X0216080Y0084498D01*
X0216051Y0084486D01*
X0216021Y0084478D01*
X0215990Y0084474D01*
X0215958Y0084474D01*
X0215927Y0084478D01*
X0215897Y0084486D01*
X0215868Y0084498D01*
X0215840Y0084513D01*
X0215815Y0084531D01*
X0215792Y0084553D01*
X0215772Y0084577D01*
X0215755Y0084604D01*
X0215742Y0084632D01*
X0215732Y0084662D01*
X0215726Y0084693D01*
X0215724Y0084724D01*
X0169474Y0083984D02*
X0169476Y0084015D01*
X0169482Y0084046D01*
X0169492Y0084076D01*
X0169505Y0084104D01*
X0169522Y0084131D01*
X0169542Y0084155D01*
X0169565Y0084177D01*
X0169590Y0084195D01*
X0169618Y0084210D01*
X0169647Y0084222D01*
X0169677Y0084230D01*
X0169708Y0084234D01*
X0169740Y0084234D01*
X0169771Y0084230D01*
X0169801Y0084222D01*
X0169830Y0084210D01*
X0169858Y0084195D01*
X0169883Y0084177D01*
X0169906Y0084155D01*
X0169926Y0084131D01*
X0169943Y0084104D01*
X0169956Y0084076D01*
X0169966Y0084046D01*
X0169972Y0084015D01*
X0169974Y0083984D01*
X0169972Y0083953D01*
X0169966Y0083922D01*
X0169956Y0083892D01*
X0169943Y0083864D01*
X0169926Y0083837D01*
X0169906Y0083813D01*
X0169883Y0083791D01*
X0169858Y0083773D01*
X0169830Y0083758D01*
X0169801Y0083746D01*
X0169771Y0083738D01*
X0169740Y0083734D01*
X0169708Y0083734D01*
X0169677Y0083738D01*
X0169647Y0083746D01*
X0169618Y0083758D01*
X0169590Y0083773D01*
X0169565Y0083791D01*
X0169542Y0083813D01*
X0169522Y0083837D01*
X0169505Y0083864D01*
X0169492Y0083892D01*
X0169482Y0083922D01*
X0169476Y0083953D01*
X0169474Y0083984D01*
X0169544Y0039924D02*
X0169546Y0039955D01*
X0169552Y0039986D01*
X0169562Y0040016D01*
X0169575Y0040044D01*
X0169592Y0040071D01*
X0169612Y0040095D01*
X0169635Y0040117D01*
X0169660Y0040135D01*
X0169688Y0040150D01*
X0169717Y0040162D01*
X0169747Y0040170D01*
X0169778Y0040174D01*
X0169810Y0040174D01*
X0169841Y0040170D01*
X0169871Y0040162D01*
X0169900Y0040150D01*
X0169928Y0040135D01*
X0169953Y0040117D01*
X0169976Y0040095D01*
X0169996Y0040071D01*
X0170013Y0040044D01*
X0170026Y0040016D01*
X0170036Y0039986D01*
X0170042Y0039955D01*
X0170044Y0039924D01*
X0170042Y0039893D01*
X0170036Y0039862D01*
X0170026Y0039832D01*
X0170013Y0039804D01*
X0169996Y0039777D01*
X0169976Y0039753D01*
X0169953Y0039731D01*
X0169928Y0039713D01*
X0169900Y0039698D01*
X0169871Y0039686D01*
X0169841Y0039678D01*
X0169810Y0039674D01*
X0169778Y0039674D01*
X0169747Y0039678D01*
X0169717Y0039686D01*
X0169688Y0039698D01*
X0169660Y0039713D01*
X0169635Y0039731D01*
X0169612Y0039753D01*
X0169592Y0039777D01*
X0169575Y0039804D01*
X0169562Y0039832D01*
X0169552Y0039862D01*
X0169546Y0039893D01*
X0169544Y0039924D01*
X0215794Y0040664D02*
X0215796Y0040695D01*
X0215802Y0040726D01*
X0215812Y0040756D01*
X0215825Y0040784D01*
X0215842Y0040811D01*
X0215862Y0040835D01*
X0215885Y0040857D01*
X0215910Y0040875D01*
X0215938Y0040890D01*
X0215967Y0040902D01*
X0215997Y0040910D01*
X0216028Y0040914D01*
X0216060Y0040914D01*
X0216091Y0040910D01*
X0216121Y0040902D01*
X0216150Y0040890D01*
X0216178Y0040875D01*
X0216203Y0040857D01*
X0216226Y0040835D01*
X0216246Y0040811D01*
X0216263Y0040784D01*
X0216276Y0040756D01*
X0216286Y0040726D01*
X0216292Y0040695D01*
X0216294Y0040664D01*
X0216292Y0040633D01*
X0216286Y0040602D01*
X0216276Y0040572D01*
X0216263Y0040544D01*
X0216246Y0040517D01*
X0216226Y0040493D01*
X0216203Y0040471D01*
X0216178Y0040453D01*
X0216150Y0040438D01*
X0216121Y0040426D01*
X0216091Y0040418D01*
X0216060Y0040414D01*
X0216028Y0040414D01*
X0215997Y0040418D01*
X0215967Y0040426D01*
X0215938Y0040438D01*
X0215910Y0040453D01*
X0215885Y0040471D01*
X0215862Y0040493D01*
X0215842Y0040517D01*
X0215825Y0040544D01*
X0215812Y0040572D01*
X0215802Y0040602D01*
X0215796Y0040633D01*
X0215794Y0040664D01*
X0262904Y0040544D02*
X0262906Y0040575D01*
X0262912Y0040606D01*
X0262922Y0040636D01*
X0262935Y0040664D01*
X0262952Y0040691D01*
X0262972Y0040715D01*
X0262995Y0040737D01*
X0263020Y0040755D01*
X0263048Y0040770D01*
X0263077Y0040782D01*
X0263107Y0040790D01*
X0263138Y0040794D01*
X0263170Y0040794D01*
X0263201Y0040790D01*
X0263231Y0040782D01*
X0263260Y0040770D01*
X0263288Y0040755D01*
X0263313Y0040737D01*
X0263336Y0040715D01*
X0263356Y0040691D01*
X0263373Y0040664D01*
X0263386Y0040636D01*
X0263396Y0040606D01*
X0263402Y0040575D01*
X0263404Y0040544D01*
X0263402Y0040513D01*
X0263396Y0040482D01*
X0263386Y0040452D01*
X0263373Y0040424D01*
X0263356Y0040397D01*
X0263336Y0040373D01*
X0263313Y0040351D01*
X0263288Y0040333D01*
X0263260Y0040318D01*
X0263231Y0040306D01*
X0263201Y0040298D01*
X0263170Y0040294D01*
X0263138Y0040294D01*
X0263107Y0040298D01*
X0263077Y0040306D01*
X0263048Y0040318D01*
X0263020Y0040333D01*
X0262995Y0040351D01*
X0262972Y0040373D01*
X0262952Y0040397D01*
X0262935Y0040424D01*
X0262922Y0040452D01*
X0262912Y0040482D01*
X0262906Y0040513D01*
X0262904Y0040544D01*
X0309884Y0040384D02*
X0309886Y0040415D01*
X0309892Y0040446D01*
X0309902Y0040476D01*
X0309915Y0040504D01*
X0309932Y0040531D01*
X0309952Y0040555D01*
X0309975Y0040577D01*
X0310000Y0040595D01*
X0310028Y0040610D01*
X0310057Y0040622D01*
X0310087Y0040630D01*
X0310118Y0040634D01*
X0310150Y0040634D01*
X0310181Y0040630D01*
X0310211Y0040622D01*
X0310240Y0040610D01*
X0310268Y0040595D01*
X0310293Y0040577D01*
X0310316Y0040555D01*
X0310336Y0040531D01*
X0310353Y0040504D01*
X0310366Y0040476D01*
X0310376Y0040446D01*
X0310382Y0040415D01*
X0310384Y0040384D01*
X0310382Y0040353D01*
X0310376Y0040322D01*
X0310366Y0040292D01*
X0310353Y0040264D01*
X0310336Y0040237D01*
X0310316Y0040213D01*
X0310293Y0040191D01*
X0310268Y0040173D01*
X0310240Y0040158D01*
X0310211Y0040146D01*
X0310181Y0040138D01*
X0310150Y0040134D01*
X0310118Y0040134D01*
X0310087Y0040138D01*
X0310057Y0040146D01*
X0310028Y0040158D01*
X0310000Y0040173D01*
X0309975Y0040191D01*
X0309952Y0040213D01*
X0309932Y0040237D01*
X0309915Y0040264D01*
X0309902Y0040292D01*
X0309892Y0040322D01*
X0309886Y0040353D01*
X0309884Y0040384D01*
X0309814Y0084444D02*
X0309816Y0084475D01*
X0309822Y0084506D01*
X0309832Y0084536D01*
X0309845Y0084564D01*
X0309862Y0084591D01*
X0309882Y0084615D01*
X0309905Y0084637D01*
X0309930Y0084655D01*
X0309958Y0084670D01*
X0309987Y0084682D01*
X0310017Y0084690D01*
X0310048Y0084694D01*
X0310080Y0084694D01*
X0310111Y0084690D01*
X0310141Y0084682D01*
X0310170Y0084670D01*
X0310198Y0084655D01*
X0310223Y0084637D01*
X0310246Y0084615D01*
X0310266Y0084591D01*
X0310283Y0084564D01*
X0310296Y0084536D01*
X0310306Y0084506D01*
X0310312Y0084475D01*
X0310314Y0084444D01*
X0310312Y0084413D01*
X0310306Y0084382D01*
X0310296Y0084352D01*
X0310283Y0084324D01*
X0310266Y0084297D01*
X0310246Y0084273D01*
X0310223Y0084251D01*
X0310198Y0084233D01*
X0310170Y0084218D01*
X0310141Y0084206D01*
X0310111Y0084198D01*
X0310080Y0084194D01*
X0310048Y0084194D01*
X0310017Y0084198D01*
X0309987Y0084206D01*
X0309958Y0084218D01*
X0309930Y0084233D01*
X0309905Y0084251D01*
X0309882Y0084273D01*
X0309862Y0084297D01*
X0309845Y0084324D01*
X0309832Y0084352D01*
X0309822Y0084382D01*
X0309816Y0084413D01*
X0309814Y0084444D01*
X0262834Y0084604D02*
X0262836Y0084635D01*
X0262842Y0084666D01*
X0262852Y0084696D01*
X0262865Y0084724D01*
X0262882Y0084751D01*
X0262902Y0084775D01*
X0262925Y0084797D01*
X0262950Y0084815D01*
X0262978Y0084830D01*
X0263007Y0084842D01*
X0263037Y0084850D01*
X0263068Y0084854D01*
X0263100Y0084854D01*
X0263131Y0084850D01*
X0263161Y0084842D01*
X0263190Y0084830D01*
X0263218Y0084815D01*
X0263243Y0084797D01*
X0263266Y0084775D01*
X0263286Y0084751D01*
X0263303Y0084724D01*
X0263316Y0084696D01*
X0263326Y0084666D01*
X0263332Y0084635D01*
X0263334Y0084604D01*
X0263332Y0084573D01*
X0263326Y0084542D01*
X0263316Y0084512D01*
X0263303Y0084484D01*
X0263286Y0084457D01*
X0263266Y0084433D01*
X0263243Y0084411D01*
X0263218Y0084393D01*
X0263190Y0084378D01*
X0263161Y0084366D01*
X0263131Y0084358D01*
X0263100Y0084354D01*
X0263068Y0084354D01*
X0263037Y0084358D01*
X0263007Y0084366D01*
X0262978Y0084378D01*
X0262950Y0084393D01*
X0262925Y0084411D01*
X0262902Y0084433D01*
X0262882Y0084457D01*
X0262865Y0084484D01*
X0262852Y0084512D01*
X0262842Y0084542D01*
X0262836Y0084573D01*
X0262834Y0084604D01*
X0262924Y0129124D02*
X0262926Y0129155D01*
X0262932Y0129186D01*
X0262942Y0129216D01*
X0262955Y0129244D01*
X0262972Y0129271D01*
X0262992Y0129295D01*
X0263015Y0129317D01*
X0263040Y0129335D01*
X0263068Y0129350D01*
X0263097Y0129362D01*
X0263127Y0129370D01*
X0263158Y0129374D01*
X0263190Y0129374D01*
X0263221Y0129370D01*
X0263251Y0129362D01*
X0263280Y0129350D01*
X0263308Y0129335D01*
X0263333Y0129317D01*
X0263356Y0129295D01*
X0263376Y0129271D01*
X0263393Y0129244D01*
X0263406Y0129216D01*
X0263416Y0129186D01*
X0263422Y0129155D01*
X0263424Y0129124D01*
X0263422Y0129093D01*
X0263416Y0129062D01*
X0263406Y0129032D01*
X0263393Y0129004D01*
X0263376Y0128977D01*
X0263356Y0128953D01*
X0263333Y0128931D01*
X0263308Y0128913D01*
X0263280Y0128898D01*
X0263251Y0128886D01*
X0263221Y0128878D01*
X0263190Y0128874D01*
X0263158Y0128874D01*
X0263127Y0128878D01*
X0263097Y0128886D01*
X0263068Y0128898D01*
X0263040Y0128913D01*
X0263015Y0128931D01*
X0262992Y0128953D01*
X0262972Y0128977D01*
X0262955Y0129004D01*
X0262942Y0129032D01*
X0262932Y0129062D01*
X0262926Y0129093D01*
X0262924Y0129124D01*
X0309904Y0128964D02*
X0309906Y0128995D01*
X0309912Y0129026D01*
X0309922Y0129056D01*
X0309935Y0129084D01*
X0309952Y0129111D01*
X0309972Y0129135D01*
X0309995Y0129157D01*
X0310020Y0129175D01*
X0310048Y0129190D01*
X0310077Y0129202D01*
X0310107Y0129210D01*
X0310138Y0129214D01*
X0310170Y0129214D01*
X0310201Y0129210D01*
X0310231Y0129202D01*
X0310260Y0129190D01*
X0310288Y0129175D01*
X0310313Y0129157D01*
X0310336Y0129135D01*
X0310356Y0129111D01*
X0310373Y0129084D01*
X0310386Y0129056D01*
X0310396Y0129026D01*
X0310402Y0128995D01*
X0310404Y0128964D01*
X0310402Y0128933D01*
X0310396Y0128902D01*
X0310386Y0128872D01*
X0310373Y0128844D01*
X0310356Y0128817D01*
X0310336Y0128793D01*
X0310313Y0128771D01*
X0310288Y0128753D01*
X0310260Y0128738D01*
X0310231Y0128726D01*
X0310201Y0128718D01*
X0310170Y0128714D01*
X0310138Y0128714D01*
X0310107Y0128718D01*
X0310077Y0128726D01*
X0310048Y0128738D01*
X0310020Y0128753D01*
X0309995Y0128771D01*
X0309972Y0128793D01*
X0309952Y0128817D01*
X0309935Y0128844D01*
X0309922Y0128872D01*
X0309912Y0128902D01*
X0309906Y0128933D01*
X0309904Y0128964D01*
X0309834Y0173024D02*
X0309836Y0173055D01*
X0309842Y0173086D01*
X0309852Y0173116D01*
X0309865Y0173144D01*
X0309882Y0173171D01*
X0309902Y0173195D01*
X0309925Y0173217D01*
X0309950Y0173235D01*
X0309978Y0173250D01*
X0310007Y0173262D01*
X0310037Y0173270D01*
X0310068Y0173274D01*
X0310100Y0173274D01*
X0310131Y0173270D01*
X0310161Y0173262D01*
X0310190Y0173250D01*
X0310218Y0173235D01*
X0310243Y0173217D01*
X0310266Y0173195D01*
X0310286Y0173171D01*
X0310303Y0173144D01*
X0310316Y0173116D01*
X0310326Y0173086D01*
X0310332Y0173055D01*
X0310334Y0173024D01*
X0310332Y0172993D01*
X0310326Y0172962D01*
X0310316Y0172932D01*
X0310303Y0172904D01*
X0310286Y0172877D01*
X0310266Y0172853D01*
X0310243Y0172831D01*
X0310218Y0172813D01*
X0310190Y0172798D01*
X0310161Y0172786D01*
X0310131Y0172778D01*
X0310100Y0172774D01*
X0310068Y0172774D01*
X0310037Y0172778D01*
X0310007Y0172786D01*
X0309978Y0172798D01*
X0309950Y0172813D01*
X0309925Y0172831D01*
X0309902Y0172853D01*
X0309882Y0172877D01*
X0309865Y0172904D01*
X0309852Y0172932D01*
X0309842Y0172962D01*
X0309836Y0172993D01*
X0309834Y0173024D01*
X0262854Y0173184D02*
X0262856Y0173215D01*
X0262862Y0173246D01*
X0262872Y0173276D01*
X0262885Y0173304D01*
X0262902Y0173331D01*
X0262922Y0173355D01*
X0262945Y0173377D01*
X0262970Y0173395D01*
X0262998Y0173410D01*
X0263027Y0173422D01*
X0263057Y0173430D01*
X0263088Y0173434D01*
X0263120Y0173434D01*
X0263151Y0173430D01*
X0263181Y0173422D01*
X0263210Y0173410D01*
X0263238Y0173395D01*
X0263263Y0173377D01*
X0263286Y0173355D01*
X0263306Y0173331D01*
X0263323Y0173304D01*
X0263336Y0173276D01*
X0263346Y0173246D01*
X0263352Y0173215D01*
X0263354Y0173184D01*
X0263352Y0173153D01*
X0263346Y0173122D01*
X0263336Y0173092D01*
X0263323Y0173064D01*
X0263306Y0173037D01*
X0263286Y0173013D01*
X0263263Y0172991D01*
X0263238Y0172973D01*
X0263210Y0172958D01*
X0263181Y0172946D01*
X0263151Y0172938D01*
X0263120Y0172934D01*
X0263088Y0172934D01*
X0263057Y0172938D01*
X0263027Y0172946D01*
X0262998Y0172958D01*
X0262970Y0172973D01*
X0262945Y0172991D01*
X0262922Y0173013D01*
X0262902Y0173037D01*
X0262885Y0173064D01*
X0262872Y0173092D01*
X0262862Y0173122D01*
X0262856Y0173153D01*
X0262854Y0173184D01*
X0262674Y0219924D02*
X0262676Y0219955D01*
X0262682Y0219986D01*
X0262692Y0220016D01*
X0262705Y0220044D01*
X0262722Y0220071D01*
X0262742Y0220095D01*
X0262765Y0220117D01*
X0262790Y0220135D01*
X0262818Y0220150D01*
X0262847Y0220162D01*
X0262877Y0220170D01*
X0262908Y0220174D01*
X0262940Y0220174D01*
X0262971Y0220170D01*
X0263001Y0220162D01*
X0263030Y0220150D01*
X0263058Y0220135D01*
X0263083Y0220117D01*
X0263106Y0220095D01*
X0263126Y0220071D01*
X0263143Y0220044D01*
X0263156Y0220016D01*
X0263166Y0219986D01*
X0263172Y0219955D01*
X0263174Y0219924D01*
X0263172Y0219893D01*
X0263166Y0219862D01*
X0263156Y0219832D01*
X0263143Y0219804D01*
X0263126Y0219777D01*
X0263106Y0219753D01*
X0263083Y0219731D01*
X0263058Y0219713D01*
X0263030Y0219698D01*
X0263001Y0219686D01*
X0262971Y0219678D01*
X0262940Y0219674D01*
X0262908Y0219674D01*
X0262877Y0219678D01*
X0262847Y0219686D01*
X0262818Y0219698D01*
X0262790Y0219713D01*
X0262765Y0219731D01*
X0262742Y0219753D01*
X0262722Y0219777D01*
X0262705Y0219804D01*
X0262692Y0219832D01*
X0262682Y0219862D01*
X0262676Y0219893D01*
X0262674Y0219924D01*
X0309654Y0219764D02*
X0309656Y0219795D01*
X0309662Y0219826D01*
X0309672Y0219856D01*
X0309685Y0219884D01*
X0309702Y0219911D01*
X0309722Y0219935D01*
X0309745Y0219957D01*
X0309770Y0219975D01*
X0309798Y0219990D01*
X0309827Y0220002D01*
X0309857Y0220010D01*
X0309888Y0220014D01*
X0309920Y0220014D01*
X0309951Y0220010D01*
X0309981Y0220002D01*
X0310010Y0219990D01*
X0310038Y0219975D01*
X0310063Y0219957D01*
X0310086Y0219935D01*
X0310106Y0219911D01*
X0310123Y0219884D01*
X0310136Y0219856D01*
X0310146Y0219826D01*
X0310152Y0219795D01*
X0310154Y0219764D01*
X0310152Y0219733D01*
X0310146Y0219702D01*
X0310136Y0219672D01*
X0310123Y0219644D01*
X0310106Y0219617D01*
X0310086Y0219593D01*
X0310063Y0219571D01*
X0310038Y0219553D01*
X0310010Y0219538D01*
X0309981Y0219526D01*
X0309951Y0219518D01*
X0309920Y0219514D01*
X0309888Y0219514D01*
X0309857Y0219518D01*
X0309827Y0219526D01*
X0309798Y0219538D01*
X0309770Y0219553D01*
X0309745Y0219571D01*
X0309722Y0219593D01*
X0309702Y0219617D01*
X0309685Y0219644D01*
X0309672Y0219672D01*
X0309662Y0219702D01*
X0309656Y0219733D01*
X0309654Y0219764D01*
X0309584Y0263824D02*
X0309586Y0263855D01*
X0309592Y0263886D01*
X0309602Y0263916D01*
X0309615Y0263944D01*
X0309632Y0263971D01*
X0309652Y0263995D01*
X0309675Y0264017D01*
X0309700Y0264035D01*
X0309728Y0264050D01*
X0309757Y0264062D01*
X0309787Y0264070D01*
X0309818Y0264074D01*
X0309850Y0264074D01*
X0309881Y0264070D01*
X0309911Y0264062D01*
X0309940Y0264050D01*
X0309968Y0264035D01*
X0309993Y0264017D01*
X0310016Y0263995D01*
X0310036Y0263971D01*
X0310053Y0263944D01*
X0310066Y0263916D01*
X0310076Y0263886D01*
X0310082Y0263855D01*
X0310084Y0263824D01*
X0310082Y0263793D01*
X0310076Y0263762D01*
X0310066Y0263732D01*
X0310053Y0263704D01*
X0310036Y0263677D01*
X0310016Y0263653D01*
X0309993Y0263631D01*
X0309968Y0263613D01*
X0309940Y0263598D01*
X0309911Y0263586D01*
X0309881Y0263578D01*
X0309850Y0263574D01*
X0309818Y0263574D01*
X0309787Y0263578D01*
X0309757Y0263586D01*
X0309728Y0263598D01*
X0309700Y0263613D01*
X0309675Y0263631D01*
X0309652Y0263653D01*
X0309632Y0263677D01*
X0309615Y0263704D01*
X0309602Y0263732D01*
X0309592Y0263762D01*
X0309586Y0263793D01*
X0309584Y0263824D01*
X0262604Y0263984D02*
X0262606Y0264015D01*
X0262612Y0264046D01*
X0262622Y0264076D01*
X0262635Y0264104D01*
X0262652Y0264131D01*
X0262672Y0264155D01*
X0262695Y0264177D01*
X0262720Y0264195D01*
X0262748Y0264210D01*
X0262777Y0264222D01*
X0262807Y0264230D01*
X0262838Y0264234D01*
X0262870Y0264234D01*
X0262901Y0264230D01*
X0262931Y0264222D01*
X0262960Y0264210D01*
X0262988Y0264195D01*
X0263013Y0264177D01*
X0263036Y0264155D01*
X0263056Y0264131D01*
X0263073Y0264104D01*
X0263086Y0264076D01*
X0263096Y0264046D01*
X0263102Y0264015D01*
X0263104Y0263984D01*
X0263102Y0263953D01*
X0263096Y0263922D01*
X0263086Y0263892D01*
X0263073Y0263864D01*
X0263056Y0263837D01*
X0263036Y0263813D01*
X0263013Y0263791D01*
X0262988Y0263773D01*
X0262960Y0263758D01*
X0262931Y0263746D01*
X0262901Y0263738D01*
X0262870Y0263734D01*
X0262838Y0263734D01*
X0262807Y0263738D01*
X0262777Y0263746D01*
X0262748Y0263758D01*
X0262720Y0263773D01*
X0262695Y0263791D01*
X0262672Y0263813D01*
X0262652Y0263837D01*
X0262635Y0263864D01*
X0262622Y0263892D01*
X0262612Y0263922D01*
X0262606Y0263953D01*
X0262604Y0263984D01*
X0262464Y0312824D02*
X0262466Y0312855D01*
X0262472Y0312886D01*
X0262482Y0312916D01*
X0262495Y0312944D01*
X0262512Y0312971D01*
X0262532Y0312995D01*
X0262555Y0313017D01*
X0262580Y0313035D01*
X0262608Y0313050D01*
X0262637Y0313062D01*
X0262667Y0313070D01*
X0262698Y0313074D01*
X0262730Y0313074D01*
X0262761Y0313070D01*
X0262791Y0313062D01*
X0262820Y0313050D01*
X0262848Y0313035D01*
X0262873Y0313017D01*
X0262896Y0312995D01*
X0262916Y0312971D01*
X0262933Y0312944D01*
X0262946Y0312916D01*
X0262956Y0312886D01*
X0262962Y0312855D01*
X0262964Y0312824D01*
X0262962Y0312793D01*
X0262956Y0312762D01*
X0262946Y0312732D01*
X0262933Y0312704D01*
X0262916Y0312677D01*
X0262896Y0312653D01*
X0262873Y0312631D01*
X0262848Y0312613D01*
X0262820Y0312598D01*
X0262791Y0312586D01*
X0262761Y0312578D01*
X0262730Y0312574D01*
X0262698Y0312574D01*
X0262667Y0312578D01*
X0262637Y0312586D01*
X0262608Y0312598D01*
X0262580Y0312613D01*
X0262555Y0312631D01*
X0262532Y0312653D01*
X0262512Y0312677D01*
X0262495Y0312704D01*
X0262482Y0312732D01*
X0262472Y0312762D01*
X0262466Y0312793D01*
X0262464Y0312824D01*
X0309444Y0312664D02*
X0309446Y0312695D01*
X0309452Y0312726D01*
X0309462Y0312756D01*
X0309475Y0312784D01*
X0309492Y0312811D01*
X0309512Y0312835D01*
X0309535Y0312857D01*
X0309560Y0312875D01*
X0309588Y0312890D01*
X0309617Y0312902D01*
X0309647Y0312910D01*
X0309678Y0312914D01*
X0309710Y0312914D01*
X0309741Y0312910D01*
X0309771Y0312902D01*
X0309800Y0312890D01*
X0309828Y0312875D01*
X0309853Y0312857D01*
X0309876Y0312835D01*
X0309896Y0312811D01*
X0309913Y0312784D01*
X0309926Y0312756D01*
X0309936Y0312726D01*
X0309942Y0312695D01*
X0309944Y0312664D01*
X0309942Y0312633D01*
X0309936Y0312602D01*
X0309926Y0312572D01*
X0309913Y0312544D01*
X0309896Y0312517D01*
X0309876Y0312493D01*
X0309853Y0312471D01*
X0309828Y0312453D01*
X0309800Y0312438D01*
X0309771Y0312426D01*
X0309741Y0312418D01*
X0309710Y0312414D01*
X0309678Y0312414D01*
X0309647Y0312418D01*
X0309617Y0312426D01*
X0309588Y0312438D01*
X0309560Y0312453D01*
X0309535Y0312471D01*
X0309512Y0312493D01*
X0309492Y0312517D01*
X0309475Y0312544D01*
X0309462Y0312572D01*
X0309452Y0312602D01*
X0309446Y0312633D01*
X0309444Y0312664D01*
X0358954Y0313534D02*
X0358956Y0313565D01*
X0358962Y0313596D01*
X0358972Y0313626D01*
X0358985Y0313654D01*
X0359002Y0313681D01*
X0359022Y0313705D01*
X0359045Y0313727D01*
X0359070Y0313745D01*
X0359098Y0313760D01*
X0359127Y0313772D01*
X0359157Y0313780D01*
X0359188Y0313784D01*
X0359220Y0313784D01*
X0359251Y0313780D01*
X0359281Y0313772D01*
X0359310Y0313760D01*
X0359338Y0313745D01*
X0359363Y0313727D01*
X0359386Y0313705D01*
X0359406Y0313681D01*
X0359423Y0313654D01*
X0359436Y0313626D01*
X0359446Y0313596D01*
X0359452Y0313565D01*
X0359454Y0313534D01*
X0359452Y0313503D01*
X0359446Y0313472D01*
X0359436Y0313442D01*
X0359423Y0313414D01*
X0359406Y0313387D01*
X0359386Y0313363D01*
X0359363Y0313341D01*
X0359338Y0313323D01*
X0359310Y0313308D01*
X0359281Y0313296D01*
X0359251Y0313288D01*
X0359220Y0313284D01*
X0359188Y0313284D01*
X0359157Y0313288D01*
X0359127Y0313296D01*
X0359098Y0313308D01*
X0359070Y0313323D01*
X0359045Y0313341D01*
X0359022Y0313363D01*
X0359002Y0313387D01*
X0358985Y0313414D01*
X0358972Y0313442D01*
X0358962Y0313472D01*
X0358956Y0313503D01*
X0358954Y0313534D01*
X0359094Y0264694D02*
X0359096Y0264725D01*
X0359102Y0264756D01*
X0359112Y0264786D01*
X0359125Y0264814D01*
X0359142Y0264841D01*
X0359162Y0264865D01*
X0359185Y0264887D01*
X0359210Y0264905D01*
X0359238Y0264920D01*
X0359267Y0264932D01*
X0359297Y0264940D01*
X0359328Y0264944D01*
X0359360Y0264944D01*
X0359391Y0264940D01*
X0359421Y0264932D01*
X0359450Y0264920D01*
X0359478Y0264905D01*
X0359503Y0264887D01*
X0359526Y0264865D01*
X0359546Y0264841D01*
X0359563Y0264814D01*
X0359576Y0264786D01*
X0359586Y0264756D01*
X0359592Y0264725D01*
X0359594Y0264694D01*
X0359592Y0264663D01*
X0359586Y0264632D01*
X0359576Y0264602D01*
X0359563Y0264574D01*
X0359546Y0264547D01*
X0359526Y0264523D01*
X0359503Y0264501D01*
X0359478Y0264483D01*
X0359450Y0264468D01*
X0359421Y0264456D01*
X0359391Y0264448D01*
X0359360Y0264444D01*
X0359328Y0264444D01*
X0359297Y0264448D01*
X0359267Y0264456D01*
X0359238Y0264468D01*
X0359210Y0264483D01*
X0359185Y0264501D01*
X0359162Y0264523D01*
X0359142Y0264547D01*
X0359125Y0264574D01*
X0359112Y0264602D01*
X0359102Y0264632D01*
X0359096Y0264663D01*
X0359094Y0264694D01*
X0359164Y0220634D02*
X0359166Y0220665D01*
X0359172Y0220696D01*
X0359182Y0220726D01*
X0359195Y0220754D01*
X0359212Y0220781D01*
X0359232Y0220805D01*
X0359255Y0220827D01*
X0359280Y0220845D01*
X0359308Y0220860D01*
X0359337Y0220872D01*
X0359367Y0220880D01*
X0359398Y0220884D01*
X0359430Y0220884D01*
X0359461Y0220880D01*
X0359491Y0220872D01*
X0359520Y0220860D01*
X0359548Y0220845D01*
X0359573Y0220827D01*
X0359596Y0220805D01*
X0359616Y0220781D01*
X0359633Y0220754D01*
X0359646Y0220726D01*
X0359656Y0220696D01*
X0359662Y0220665D01*
X0359664Y0220634D01*
X0359662Y0220603D01*
X0359656Y0220572D01*
X0359646Y0220542D01*
X0359633Y0220514D01*
X0359616Y0220487D01*
X0359596Y0220463D01*
X0359573Y0220441D01*
X0359548Y0220423D01*
X0359520Y0220408D01*
X0359491Y0220396D01*
X0359461Y0220388D01*
X0359430Y0220384D01*
X0359398Y0220384D01*
X0359367Y0220388D01*
X0359337Y0220396D01*
X0359308Y0220408D01*
X0359280Y0220423D01*
X0359255Y0220441D01*
X0359232Y0220463D01*
X0359212Y0220487D01*
X0359195Y0220514D01*
X0359182Y0220542D01*
X0359172Y0220572D01*
X0359166Y0220603D01*
X0359164Y0220634D01*
X0359344Y0173894D02*
X0359346Y0173925D01*
X0359352Y0173956D01*
X0359362Y0173986D01*
X0359375Y0174014D01*
X0359392Y0174041D01*
X0359412Y0174065D01*
X0359435Y0174087D01*
X0359460Y0174105D01*
X0359488Y0174120D01*
X0359517Y0174132D01*
X0359547Y0174140D01*
X0359578Y0174144D01*
X0359610Y0174144D01*
X0359641Y0174140D01*
X0359671Y0174132D01*
X0359700Y0174120D01*
X0359728Y0174105D01*
X0359753Y0174087D01*
X0359776Y0174065D01*
X0359796Y0174041D01*
X0359813Y0174014D01*
X0359826Y0173986D01*
X0359836Y0173956D01*
X0359842Y0173925D01*
X0359844Y0173894D01*
X0359842Y0173863D01*
X0359836Y0173832D01*
X0359826Y0173802D01*
X0359813Y0173774D01*
X0359796Y0173747D01*
X0359776Y0173723D01*
X0359753Y0173701D01*
X0359728Y0173683D01*
X0359700Y0173668D01*
X0359671Y0173656D01*
X0359641Y0173648D01*
X0359610Y0173644D01*
X0359578Y0173644D01*
X0359547Y0173648D01*
X0359517Y0173656D01*
X0359488Y0173668D01*
X0359460Y0173683D01*
X0359435Y0173701D01*
X0359412Y0173723D01*
X0359392Y0173747D01*
X0359375Y0173774D01*
X0359362Y0173802D01*
X0359352Y0173832D01*
X0359346Y0173863D01*
X0359344Y0173894D01*
X0359414Y0129834D02*
X0359416Y0129865D01*
X0359422Y0129896D01*
X0359432Y0129926D01*
X0359445Y0129954D01*
X0359462Y0129981D01*
X0359482Y0130005D01*
X0359505Y0130027D01*
X0359530Y0130045D01*
X0359558Y0130060D01*
X0359587Y0130072D01*
X0359617Y0130080D01*
X0359648Y0130084D01*
X0359680Y0130084D01*
X0359711Y0130080D01*
X0359741Y0130072D01*
X0359770Y0130060D01*
X0359798Y0130045D01*
X0359823Y0130027D01*
X0359846Y0130005D01*
X0359866Y0129981D01*
X0359883Y0129954D01*
X0359896Y0129926D01*
X0359906Y0129896D01*
X0359912Y0129865D01*
X0359914Y0129834D01*
X0359912Y0129803D01*
X0359906Y0129772D01*
X0359896Y0129742D01*
X0359883Y0129714D01*
X0359866Y0129687D01*
X0359846Y0129663D01*
X0359823Y0129641D01*
X0359798Y0129623D01*
X0359770Y0129608D01*
X0359741Y0129596D01*
X0359711Y0129588D01*
X0359680Y0129584D01*
X0359648Y0129584D01*
X0359617Y0129588D01*
X0359587Y0129596D01*
X0359558Y0129608D01*
X0359530Y0129623D01*
X0359505Y0129641D01*
X0359482Y0129663D01*
X0359462Y0129687D01*
X0359445Y0129714D01*
X0359432Y0129742D01*
X0359422Y0129772D01*
X0359416Y0129803D01*
X0359414Y0129834D01*
X0359324Y0085314D02*
X0359326Y0085345D01*
X0359332Y0085376D01*
X0359342Y0085406D01*
X0359355Y0085434D01*
X0359372Y0085461D01*
X0359392Y0085485D01*
X0359415Y0085507D01*
X0359440Y0085525D01*
X0359468Y0085540D01*
X0359497Y0085552D01*
X0359527Y0085560D01*
X0359558Y0085564D01*
X0359590Y0085564D01*
X0359621Y0085560D01*
X0359651Y0085552D01*
X0359680Y0085540D01*
X0359708Y0085525D01*
X0359733Y0085507D01*
X0359756Y0085485D01*
X0359776Y0085461D01*
X0359793Y0085434D01*
X0359806Y0085406D01*
X0359816Y0085376D01*
X0359822Y0085345D01*
X0359824Y0085314D01*
X0359822Y0085283D01*
X0359816Y0085252D01*
X0359806Y0085222D01*
X0359793Y0085194D01*
X0359776Y0085167D01*
X0359756Y0085143D01*
X0359733Y0085121D01*
X0359708Y0085103D01*
X0359680Y0085088D01*
X0359651Y0085076D01*
X0359621Y0085068D01*
X0359590Y0085064D01*
X0359558Y0085064D01*
X0359527Y0085068D01*
X0359497Y0085076D01*
X0359468Y0085088D01*
X0359440Y0085103D01*
X0359415Y0085121D01*
X0359392Y0085143D01*
X0359372Y0085167D01*
X0359355Y0085194D01*
X0359342Y0085222D01*
X0359332Y0085252D01*
X0359326Y0085283D01*
X0359324Y0085314D01*
X0359394Y0041254D02*
X0359396Y0041285D01*
X0359402Y0041316D01*
X0359412Y0041346D01*
X0359425Y0041374D01*
X0359442Y0041401D01*
X0359462Y0041425D01*
X0359485Y0041447D01*
X0359510Y0041465D01*
X0359538Y0041480D01*
X0359567Y0041492D01*
X0359597Y0041500D01*
X0359628Y0041504D01*
X0359660Y0041504D01*
X0359691Y0041500D01*
X0359721Y0041492D01*
X0359750Y0041480D01*
X0359778Y0041465D01*
X0359803Y0041447D01*
X0359826Y0041425D01*
X0359846Y0041401D01*
X0359863Y0041374D01*
X0359876Y0041346D01*
X0359886Y0041316D01*
X0359892Y0041285D01*
X0359894Y0041254D01*
X0359892Y0041223D01*
X0359886Y0041192D01*
X0359876Y0041162D01*
X0359863Y0041134D01*
X0359846Y0041107D01*
X0359826Y0041083D01*
X0359803Y0041061D01*
X0359778Y0041043D01*
X0359750Y0041028D01*
X0359721Y0041016D01*
X0359691Y0041008D01*
X0359660Y0041004D01*
X0359628Y0041004D01*
X0359597Y0041008D01*
X0359567Y0041016D01*
X0359538Y0041028D01*
X0359510Y0041043D01*
X0359485Y0041061D01*
X0359462Y0041083D01*
X0359442Y0041107D01*
X0359425Y0041134D01*
X0359412Y0041162D01*
X0359402Y0041192D01*
X0359396Y0041223D01*
X0359394Y0041254D01*
X0215354Y0312944D02*
X0215356Y0312975D01*
X0215362Y0313006D01*
X0215372Y0313036D01*
X0215385Y0313064D01*
X0215402Y0313091D01*
X0215422Y0313115D01*
X0215445Y0313137D01*
X0215470Y0313155D01*
X0215498Y0313170D01*
X0215527Y0313182D01*
X0215557Y0313190D01*
X0215588Y0313194D01*
X0215620Y0313194D01*
X0215651Y0313190D01*
X0215681Y0313182D01*
X0215710Y0313170D01*
X0215738Y0313155D01*
X0215763Y0313137D01*
X0215786Y0313115D01*
X0215806Y0313091D01*
X0215823Y0313064D01*
X0215836Y0313036D01*
X0215846Y0313006D01*
X0215852Y0312975D01*
X0215854Y0312944D01*
X0215852Y0312913D01*
X0215846Y0312882D01*
X0215836Y0312852D01*
X0215823Y0312824D01*
X0215806Y0312797D01*
X0215786Y0312773D01*
X0215763Y0312751D01*
X0215738Y0312733D01*
X0215710Y0312718D01*
X0215681Y0312706D01*
X0215651Y0312698D01*
X0215620Y0312694D01*
X0215588Y0312694D01*
X0215557Y0312698D01*
X0215527Y0312706D01*
X0215498Y0312718D01*
X0215470Y0312733D01*
X0215445Y0312751D01*
X0215422Y0312773D01*
X0215402Y0312797D01*
X0215385Y0312824D01*
X0215372Y0312852D01*
X0215362Y0312882D01*
X0215356Y0312913D01*
X0215354Y0312944D01*
X0169104Y0312204D02*
X0169106Y0312235D01*
X0169112Y0312266D01*
X0169122Y0312296D01*
X0169135Y0312324D01*
X0169152Y0312351D01*
X0169172Y0312375D01*
X0169195Y0312397D01*
X0169220Y0312415D01*
X0169248Y0312430D01*
X0169277Y0312442D01*
X0169307Y0312450D01*
X0169338Y0312454D01*
X0169370Y0312454D01*
X0169401Y0312450D01*
X0169431Y0312442D01*
X0169460Y0312430D01*
X0169488Y0312415D01*
X0169513Y0312397D01*
X0169536Y0312375D01*
X0169556Y0312351D01*
X0169573Y0312324D01*
X0169586Y0312296D01*
X0169596Y0312266D01*
X0169602Y0312235D01*
X0169604Y0312204D01*
X0169602Y0312173D01*
X0169596Y0312142D01*
X0169586Y0312112D01*
X0169573Y0312084D01*
X0169556Y0312057D01*
X0169536Y0312033D01*
X0169513Y0312011D01*
X0169488Y0311993D01*
X0169460Y0311978D01*
X0169431Y0311966D01*
X0169401Y0311958D01*
X0169370Y0311954D01*
X0169338Y0311954D01*
X0169307Y0311958D01*
X0169277Y0311966D01*
X0169248Y0311978D01*
X0169220Y0311993D01*
X0169195Y0312011D01*
X0169172Y0312033D01*
X0169152Y0312057D01*
X0169135Y0312084D01*
X0169122Y0312112D01*
X0169112Y0312142D01*
X0169106Y0312173D01*
X0169104Y0312204D01*
M02*
