%
M48
M72
T01C0.04331
%
T01
X14554Y18764
X23314Y18764
X32064Y18764
X40824Y18764
X59034Y18604
X67794Y18604
X76544Y18604
X85304Y18604
X104794Y18224
X113554Y18224
X122304Y18224
X131064Y18224
X151114Y18694
X159874Y18694
X168624Y18694
X177384Y18694
X197364Y19434
X206124Y19434
X214874Y19434
X223634Y19434
X244474Y19314
X253234Y19314
X261984Y19314
X270744Y19314
X291454Y19154
X300214Y19154
X308964Y19154
X317724Y19154
X340964Y20024
X349724Y20024
X358474Y20024
X367234Y20024
X367164Y64084
X358404Y64084
X349654Y64084
X340894Y64084
X317654Y63214
X308894Y63214
X300144Y63214
X291384Y63214
X270674Y63374
X261914Y63374
X253164Y63374
X244404Y63374
X223564Y63494
X214804Y63494
X206054Y63494
X197294Y63494
X177314Y62754
X168554Y62754
X159804Y62754
X151044Y62754
X130994Y62284
X122234Y62284
X113484Y62284
X104724Y62284
X85234Y62664
X76474Y62664
X67724Y62664
X58964Y62664
X40754Y62824
X31994Y62824
X23244Y62824
X14484Y62824
X14574Y107344
X23334Y107344
X32084Y107344
X40844Y107344
X59054Y107184
X67814Y107184
X76564Y107184
X85324Y107184
X104814Y106804
X113574Y106804
X122324Y106804
X131084Y106804
X151134Y107274
X159894Y107274
X168644Y107274
X177404Y107274
X197384Y108014
X206144Y108014
X214894Y108014
X223654Y108014
X244494Y107894
X253254Y107894
X262004Y107894
X270764Y107894
X291474Y107734
X300234Y107734
X308984Y107734
X317744Y107734
X340984Y108604
X349744Y108604
X358494Y108604
X367254Y108604
X367184Y152664
X358424Y152664
X349674Y152664
X340914Y152664
X317674Y151794
X308914Y151794
X300164Y151794
X291404Y151794
X270694Y151954
X261934Y151954
X253184Y151954
X244424Y151954
X223584Y152074
X214824Y152074
X206074Y152074
X197314Y152074
X177334Y151334
X168574Y151334
X159824Y151334
X151064Y151334
X131014Y150864
X122254Y150864
X113504Y150864
X104744Y150864
X85254Y151244
X76494Y151244
X67744Y151244
X58984Y151244
X40774Y151404
X32014Y151404
X23264Y151404
X14504Y151404
X14324Y198144
X23084Y198144
X31834Y198144
X40594Y198144
X58804Y197984
X67564Y197984
X76314Y197984
X85074Y197984
X104564Y197604
X113324Y197604
X122074Y197604
X130834Y197604
X150884Y198074
X159644Y198074
X168394Y198074
X177154Y198074
X197134Y198814
X205894Y198814
X214644Y198814
X223404Y198814
X244244Y198694
X253004Y198694
X261754Y198694
X270514Y198694
X291224Y198534
X299984Y198534
X308734Y198534
X317494Y198534
X340734Y199404
X349494Y199404
X358244Y199404
X367004Y199404
X366934Y243464
X358174Y243464
X349424Y243464
X340664Y243464
X317424Y242594
X308664Y242594
X299914Y242594
X291154Y242594
X270444Y242754
X261684Y242754
X252934Y242754
X244174Y242754
X223334Y242874
X214574Y242874
X205824Y242874
X197064Y242874
X177084Y242134
X168324Y242134
X159574Y242134
X150814Y242134
X130764Y241664
X122004Y241664
X113254Y241664
X104494Y241664
X85004Y242044
X76244Y242044
X67494Y242044
X58734Y242044
X40524Y242204
X31764Y242204
X23014Y242204
X14254Y242204
X14114Y291044
X22874Y291044
X31624Y291044
X40384Y291044
X58594Y290884
X67354Y290884
X76104Y290884
X84864Y290884
X104354Y290504
X113114Y290504
X121864Y290504
X130624Y290504
X150674Y290974
X159434Y290974
X168184Y290974
X176944Y290974
X196924Y291714
X205684Y291714
X214434Y291714
X223194Y291714
X244034Y291594
X252794Y291594
X261544Y291594
X270304Y291594
X291014Y291434
X299774Y291434
X308524Y291434
X317284Y291434
X340524Y292304
X349284Y292304
X358034Y292304
X366794Y292304
M30
