G75*
%MOIN*%
%OFA0B0*%
%FSLAX25Y25*%
%IPPOS*%
%LPD*%
%AMOC8*
5,1,8,0,0,1.08239X$1,22.5*
%
%ADD10C,0.00000*%
%ADD11C,0.00300*%
D10*
X0008974Y0010224D02*
X0375116Y0010224D01*
X0375116Y0325185D01*
X0008974Y0325185D01*
X0008974Y0010224D01*
D11*
X0017838Y0025594D02*
X0017838Y0029297D01*
X0019052Y0027446D02*
X0021521Y0027446D01*
X0020287Y0028680D02*
X0020287Y0026211D01*
X0016610Y0027446D02*
X0014141Y0027446D01*
X0014148Y0031594D02*
X0014148Y0035297D01*
X0015382Y0035297D02*
X0012914Y0035297D01*
X0016597Y0035297D02*
X0016597Y0032211D01*
X0017214Y0031594D01*
X0018448Y0031594D01*
X0019066Y0032211D01*
X0019066Y0035297D01*
X0018697Y0035674D02*
X0018697Y0037526D01*
X0019314Y0038143D01*
X0020548Y0038143D01*
X0021165Y0037526D01*
X0022380Y0038143D02*
X0024231Y0038143D01*
X0024849Y0037526D01*
X0024849Y0036291D01*
X0024231Y0035674D01*
X0022380Y0035674D01*
X0022132Y0035297D02*
X0022749Y0034680D01*
X0022749Y0032211D01*
X0022132Y0031594D01*
X0020897Y0031594D01*
X0020280Y0032211D01*
X0020280Y0034680D01*
X0020897Y0035297D01*
X0022132Y0035297D01*
X0021165Y0035674D02*
X0021165Y0039377D01*
X0021159Y0040474D02*
X0021776Y0041091D01*
X0021776Y0043560D01*
X0022393Y0042943D02*
X0021159Y0042943D01*
X0019938Y0042943D02*
X0019321Y0042943D01*
X0019321Y0040474D01*
X0019938Y0040474D02*
X0018703Y0040474D01*
X0017482Y0041091D02*
X0016865Y0040474D01*
X0015014Y0040474D01*
X0015014Y0042943D02*
X0016865Y0042943D01*
X0017482Y0042326D01*
X0017482Y0041091D01*
X0019321Y0044177D02*
X0019321Y0044794D01*
X0023608Y0042326D02*
X0023608Y0041708D01*
X0026076Y0041708D01*
X0026076Y0041091D02*
X0026076Y0042326D01*
X0025459Y0042943D01*
X0024225Y0042943D01*
X0023608Y0042326D01*
X0024225Y0040474D02*
X0025459Y0040474D01*
X0026076Y0041091D01*
X0027291Y0040474D02*
X0027291Y0042326D01*
X0027908Y0042943D01*
X0029759Y0042943D01*
X0029759Y0040474D01*
X0029142Y0039994D02*
X0029142Y0039377D01*
X0029142Y0038143D02*
X0029142Y0035674D01*
X0029759Y0035674D02*
X0028525Y0035674D01*
X0026687Y0036291D02*
X0026687Y0038760D01*
X0027304Y0038143D02*
X0026070Y0038143D01*
X0026687Y0036291D02*
X0026070Y0035674D01*
X0029142Y0038143D02*
X0029759Y0038143D01*
X0030974Y0038143D02*
X0030974Y0036291D01*
X0031591Y0035674D01*
X0032208Y0036291D01*
X0032825Y0035674D01*
X0033443Y0036291D01*
X0033443Y0038143D01*
X0034657Y0038760D02*
X0035274Y0039377D01*
X0036509Y0039377D01*
X0037126Y0038760D01*
X0037126Y0038143D01*
X0036509Y0037526D01*
X0035274Y0037526D01*
X0034657Y0036908D01*
X0034657Y0036291D01*
X0035274Y0035674D01*
X0036509Y0035674D01*
X0037126Y0036291D01*
X0037139Y0035237D02*
X0038373Y0035237D01*
X0037756Y0035237D02*
X0037756Y0031534D01*
X0038373Y0031534D02*
X0037139Y0031534D01*
X0035918Y0031534D02*
X0035918Y0035237D01*
X0033449Y0031534D01*
X0033449Y0035237D01*
X0032208Y0039240D02*
X0031591Y0039240D01*
X0030974Y0039857D01*
X0030974Y0042943D01*
X0032825Y0042943D01*
X0033443Y0042326D01*
X0033443Y0041091D01*
X0032825Y0040474D01*
X0030974Y0040474D01*
X0034657Y0040474D02*
X0036509Y0040474D01*
X0037126Y0041091D01*
X0036509Y0041708D01*
X0034657Y0041708D01*
X0034657Y0042326D02*
X0034657Y0040474D01*
X0034657Y0042326D02*
X0035274Y0042943D01*
X0036509Y0042943D01*
X0038340Y0044177D02*
X0038340Y0040474D01*
X0040809Y0040474D02*
X0040809Y0044177D01*
X0039575Y0042943D01*
X0038340Y0044177D01*
X0035918Y0029237D02*
X0035918Y0025534D01*
X0037132Y0027386D02*
X0039601Y0027386D01*
X0038367Y0028620D02*
X0038367Y0026151D01*
X0034690Y0027386D02*
X0032221Y0027386D01*
X0057394Y0035137D02*
X0059862Y0035137D01*
X0061077Y0035137D02*
X0061077Y0032051D01*
X0061694Y0031434D01*
X0062928Y0031434D01*
X0063546Y0032051D01*
X0063546Y0035137D01*
X0063177Y0035514D02*
X0063177Y0037366D01*
X0063794Y0037983D01*
X0065028Y0037983D01*
X0065645Y0037366D01*
X0066860Y0037983D02*
X0068711Y0037983D01*
X0069329Y0037366D01*
X0069329Y0036131D01*
X0068711Y0035514D01*
X0066860Y0035514D01*
X0066612Y0035137D02*
X0067229Y0034520D01*
X0067229Y0032051D01*
X0066612Y0031434D01*
X0065377Y0031434D01*
X0064760Y0032051D01*
X0064760Y0034520D01*
X0065377Y0035137D01*
X0066612Y0035137D01*
X0065645Y0035514D02*
X0065645Y0039217D01*
X0065639Y0040314D02*
X0066256Y0040931D01*
X0066256Y0043400D01*
X0066873Y0042783D02*
X0065639Y0042783D01*
X0064418Y0042783D02*
X0063801Y0042783D01*
X0063801Y0040314D01*
X0064418Y0040314D02*
X0063183Y0040314D01*
X0061962Y0040931D02*
X0061345Y0040314D01*
X0059494Y0040314D01*
X0059494Y0042783D02*
X0061345Y0042783D01*
X0061962Y0042166D01*
X0061962Y0040931D01*
X0063801Y0044017D02*
X0063801Y0044634D01*
X0068088Y0042166D02*
X0068088Y0041548D01*
X0070556Y0041548D01*
X0070556Y0040931D02*
X0070556Y0042166D01*
X0069939Y0042783D01*
X0068705Y0042783D01*
X0068088Y0042166D01*
X0068705Y0040314D02*
X0069939Y0040314D01*
X0070556Y0040931D01*
X0071771Y0040314D02*
X0071771Y0042166D01*
X0072388Y0042783D01*
X0074239Y0042783D01*
X0074239Y0040314D01*
X0073622Y0039834D02*
X0073622Y0039217D01*
X0073622Y0037983D02*
X0073622Y0035514D01*
X0074239Y0035514D02*
X0073005Y0035514D01*
X0071167Y0036131D02*
X0070550Y0035514D01*
X0071167Y0036131D02*
X0071167Y0038600D01*
X0071784Y0037983D02*
X0070550Y0037983D01*
X0073622Y0037983D02*
X0074239Y0037983D01*
X0075454Y0037983D02*
X0075454Y0036131D01*
X0076071Y0035514D01*
X0076688Y0036131D01*
X0077305Y0035514D01*
X0077923Y0036131D01*
X0077923Y0037983D01*
X0079137Y0038600D02*
X0079754Y0039217D01*
X0080989Y0039217D01*
X0081606Y0038600D01*
X0081606Y0037983D01*
X0080989Y0037366D01*
X0079754Y0037366D01*
X0079137Y0036748D01*
X0079137Y0036131D01*
X0079754Y0035514D01*
X0080989Y0035514D01*
X0081606Y0036131D01*
X0081619Y0035077D02*
X0082853Y0035077D01*
X0082236Y0035077D02*
X0082236Y0031374D01*
X0082853Y0031374D02*
X0081619Y0031374D01*
X0080398Y0031374D02*
X0080398Y0035077D01*
X0077929Y0031374D01*
X0077929Y0035077D01*
X0076688Y0039080D02*
X0076071Y0039080D01*
X0075454Y0039697D01*
X0075454Y0042783D01*
X0077305Y0042783D01*
X0077923Y0042166D01*
X0077923Y0040931D01*
X0077305Y0040314D01*
X0075454Y0040314D01*
X0079137Y0040314D02*
X0079137Y0042166D01*
X0079754Y0042783D01*
X0080989Y0042783D01*
X0080989Y0041548D02*
X0079137Y0041548D01*
X0079137Y0040314D02*
X0080989Y0040314D01*
X0081606Y0040931D01*
X0080989Y0041548D01*
X0082820Y0040314D02*
X0082820Y0044017D01*
X0084055Y0042783D01*
X0085289Y0044017D01*
X0085289Y0040314D01*
X0082847Y0028460D02*
X0082847Y0025991D01*
X0084081Y0027226D02*
X0081612Y0027226D01*
X0080398Y0029077D02*
X0080398Y0025374D01*
X0079170Y0027226D02*
X0076701Y0027226D01*
X0066001Y0027286D02*
X0063532Y0027286D01*
X0064767Y0028520D02*
X0064767Y0026051D01*
X0062318Y0025434D02*
X0062318Y0029137D01*
X0061090Y0027286D02*
X0058621Y0027286D01*
X0058628Y0031434D02*
X0058628Y0035137D01*
X0062248Y0069494D02*
X0062248Y0073197D01*
X0063462Y0071346D02*
X0065931Y0071346D01*
X0064697Y0072580D02*
X0064697Y0070111D01*
X0061020Y0071346D02*
X0058551Y0071346D01*
X0058558Y0075494D02*
X0058558Y0079197D01*
X0059792Y0079197D02*
X0057324Y0079197D01*
X0061007Y0079197D02*
X0061007Y0076111D01*
X0061624Y0075494D01*
X0062858Y0075494D01*
X0063476Y0076111D01*
X0063476Y0079197D01*
X0063107Y0079574D02*
X0063107Y0081426D01*
X0063724Y0082043D01*
X0064958Y0082043D01*
X0065575Y0081426D01*
X0066790Y0082043D02*
X0068641Y0082043D01*
X0069259Y0081426D01*
X0069259Y0080191D01*
X0068641Y0079574D01*
X0066790Y0079574D01*
X0066542Y0079197D02*
X0067159Y0078580D01*
X0067159Y0076111D01*
X0066542Y0075494D01*
X0065307Y0075494D01*
X0064690Y0076111D01*
X0064690Y0078580D01*
X0065307Y0079197D01*
X0066542Y0079197D01*
X0065575Y0079574D02*
X0065575Y0083277D01*
X0065569Y0084374D02*
X0066186Y0084991D01*
X0066186Y0087460D01*
X0066803Y0086843D02*
X0065569Y0086843D01*
X0064348Y0086843D02*
X0063731Y0086843D01*
X0063731Y0084374D01*
X0064348Y0084374D02*
X0063113Y0084374D01*
X0061892Y0084991D02*
X0061275Y0084374D01*
X0059424Y0084374D01*
X0059424Y0086843D02*
X0061275Y0086843D01*
X0061892Y0086226D01*
X0061892Y0084991D01*
X0063731Y0088077D02*
X0063731Y0088694D01*
X0068018Y0086226D02*
X0068018Y0085608D01*
X0070486Y0085608D01*
X0070486Y0084991D02*
X0070486Y0086226D01*
X0069869Y0086843D01*
X0068635Y0086843D01*
X0068018Y0086226D01*
X0068635Y0084374D02*
X0069869Y0084374D01*
X0070486Y0084991D01*
X0071701Y0084374D02*
X0071701Y0086226D01*
X0072318Y0086843D01*
X0074169Y0086843D01*
X0074169Y0084374D01*
X0073552Y0083894D02*
X0073552Y0083277D01*
X0073552Y0082043D02*
X0073552Y0079574D01*
X0074169Y0079574D02*
X0072935Y0079574D01*
X0071097Y0080191D02*
X0070480Y0079574D01*
X0071097Y0080191D02*
X0071097Y0082660D01*
X0071714Y0082043D02*
X0070480Y0082043D01*
X0073552Y0082043D02*
X0074169Y0082043D01*
X0075384Y0082043D02*
X0075384Y0080191D01*
X0076001Y0079574D01*
X0076618Y0080191D01*
X0077235Y0079574D01*
X0077853Y0080191D01*
X0077853Y0082043D01*
X0079067Y0082660D02*
X0079684Y0083277D01*
X0080919Y0083277D01*
X0081536Y0082660D01*
X0081536Y0082043D01*
X0080919Y0081426D01*
X0079684Y0081426D01*
X0079067Y0080808D01*
X0079067Y0080191D01*
X0079684Y0079574D01*
X0080919Y0079574D01*
X0081536Y0080191D01*
X0081549Y0079137D02*
X0082783Y0079137D01*
X0082166Y0079137D02*
X0082166Y0075434D01*
X0082783Y0075434D02*
X0081549Y0075434D01*
X0080328Y0075434D02*
X0080328Y0079137D01*
X0077859Y0075434D01*
X0077859Y0079137D01*
X0076618Y0083140D02*
X0076001Y0083140D01*
X0075384Y0083757D01*
X0075384Y0086843D01*
X0077235Y0086843D01*
X0077853Y0086226D01*
X0077853Y0084991D01*
X0077235Y0084374D01*
X0075384Y0084374D01*
X0079067Y0084374D02*
X0079067Y0086226D01*
X0079684Y0086843D01*
X0080919Y0086843D01*
X0080919Y0085608D02*
X0079067Y0085608D01*
X0079067Y0084374D02*
X0080919Y0084374D01*
X0081536Y0084991D01*
X0080919Y0085608D01*
X0082750Y0084374D02*
X0082750Y0088077D01*
X0083984Y0086843D01*
X0085219Y0088077D01*
X0085219Y0084374D01*
X0082777Y0072520D02*
X0082777Y0070051D01*
X0084011Y0071286D02*
X0081542Y0071286D01*
X0080328Y0073137D02*
X0080328Y0069434D01*
X0079100Y0071286D02*
X0076631Y0071286D01*
X0103084Y0078817D02*
X0105552Y0078817D01*
X0106767Y0078817D02*
X0106767Y0075731D01*
X0107384Y0075114D01*
X0108618Y0075114D01*
X0109236Y0075731D01*
X0109236Y0078817D01*
X0108867Y0079194D02*
X0108867Y0081046D01*
X0109484Y0081663D01*
X0110718Y0081663D01*
X0111335Y0081046D01*
X0112550Y0081663D02*
X0114401Y0081663D01*
X0115019Y0081046D01*
X0115019Y0079811D01*
X0114401Y0079194D01*
X0112550Y0079194D01*
X0112302Y0078817D02*
X0112919Y0078200D01*
X0112919Y0075731D01*
X0112302Y0075114D01*
X0111067Y0075114D01*
X0110450Y0075731D01*
X0110450Y0078200D01*
X0111067Y0078817D01*
X0112302Y0078817D01*
X0111335Y0079194D02*
X0111335Y0082897D01*
X0111329Y0083994D02*
X0111946Y0084611D01*
X0111946Y0087080D01*
X0112563Y0086463D02*
X0111329Y0086463D01*
X0110108Y0086463D02*
X0109491Y0086463D01*
X0109491Y0083994D01*
X0110108Y0083994D02*
X0108873Y0083994D01*
X0107652Y0084611D02*
X0107035Y0083994D01*
X0105184Y0083994D01*
X0105184Y0086463D02*
X0107035Y0086463D01*
X0107652Y0085846D01*
X0107652Y0084611D01*
X0109491Y0087697D02*
X0109491Y0088314D01*
X0113778Y0085846D02*
X0113778Y0085228D01*
X0116246Y0085228D01*
X0116246Y0084611D02*
X0116246Y0085846D01*
X0115629Y0086463D01*
X0114395Y0086463D01*
X0113778Y0085846D01*
X0114395Y0083994D02*
X0115629Y0083994D01*
X0116246Y0084611D01*
X0117461Y0083994D02*
X0117461Y0085846D01*
X0118078Y0086463D01*
X0119929Y0086463D01*
X0119929Y0083994D01*
X0119312Y0083514D02*
X0119312Y0082897D01*
X0119312Y0081663D02*
X0119312Y0079194D01*
X0119929Y0079194D02*
X0118695Y0079194D01*
X0116857Y0079811D02*
X0116240Y0079194D01*
X0116857Y0079811D02*
X0116857Y0082280D01*
X0117474Y0081663D02*
X0116240Y0081663D01*
X0119312Y0081663D02*
X0119929Y0081663D01*
X0121144Y0081663D02*
X0121144Y0079811D01*
X0121761Y0079194D01*
X0122378Y0079811D01*
X0122995Y0079194D01*
X0123613Y0079811D01*
X0123613Y0081663D01*
X0124827Y0082280D02*
X0125444Y0082897D01*
X0126679Y0082897D01*
X0127296Y0082280D01*
X0127296Y0081663D01*
X0126679Y0081046D01*
X0125444Y0081046D01*
X0124827Y0080428D01*
X0124827Y0079811D01*
X0125444Y0079194D01*
X0126679Y0079194D01*
X0127296Y0079811D01*
X0127309Y0078757D02*
X0128543Y0078757D01*
X0127926Y0078757D02*
X0127926Y0075054D01*
X0128543Y0075054D02*
X0127309Y0075054D01*
X0126088Y0075054D02*
X0126088Y0078757D01*
X0123619Y0075054D01*
X0123619Y0078757D01*
X0122378Y0082760D02*
X0121761Y0082760D01*
X0121144Y0083377D01*
X0121144Y0086463D01*
X0122995Y0086463D01*
X0123613Y0085846D01*
X0123613Y0084611D01*
X0122995Y0083994D01*
X0121144Y0083994D01*
X0124827Y0083994D02*
X0124827Y0085846D01*
X0125444Y0086463D01*
X0126679Y0086463D01*
X0126679Y0085228D02*
X0124827Y0085228D01*
X0124827Y0083994D02*
X0126679Y0083994D01*
X0127296Y0084611D01*
X0126679Y0085228D01*
X0128510Y0083994D02*
X0128510Y0087697D01*
X0129745Y0086463D01*
X0130979Y0087697D01*
X0130979Y0083994D01*
X0128537Y0072140D02*
X0128537Y0069671D01*
X0129771Y0070906D02*
X0127302Y0070906D01*
X0126088Y0072757D02*
X0126088Y0069054D01*
X0124860Y0070906D02*
X0122391Y0070906D01*
X0111691Y0070966D02*
X0109222Y0070966D01*
X0110457Y0072200D02*
X0110457Y0069731D01*
X0108008Y0069114D02*
X0108008Y0072817D01*
X0106780Y0070966D02*
X0104311Y0070966D01*
X0104318Y0075114D02*
X0104318Y0078817D01*
X0109561Y0044254D02*
X0109561Y0043637D01*
X0109561Y0042403D02*
X0109561Y0039934D01*
X0110178Y0039934D02*
X0108943Y0039934D01*
X0107722Y0040551D02*
X0107105Y0039934D01*
X0105254Y0039934D01*
X0105254Y0042403D02*
X0107105Y0042403D01*
X0107722Y0041786D01*
X0107722Y0040551D01*
X0109561Y0042403D02*
X0110178Y0042403D01*
X0111399Y0042403D02*
X0112633Y0042403D01*
X0112016Y0043020D02*
X0112016Y0040551D01*
X0111399Y0039934D01*
X0111405Y0038837D02*
X0111405Y0035134D01*
X0111137Y0034757D02*
X0110520Y0034140D01*
X0110520Y0031671D01*
X0111137Y0031054D01*
X0112372Y0031054D01*
X0112989Y0031671D01*
X0112989Y0034140D01*
X0112372Y0034757D01*
X0111137Y0034757D01*
X0112620Y0035134D02*
X0114471Y0035134D01*
X0115089Y0035751D01*
X0115089Y0036986D01*
X0114471Y0037603D01*
X0112620Y0037603D01*
X0111405Y0036986D02*
X0110788Y0037603D01*
X0109554Y0037603D01*
X0108937Y0036986D01*
X0108937Y0035134D01*
X0109306Y0034757D02*
X0109306Y0031671D01*
X0108688Y0031054D01*
X0107454Y0031054D01*
X0106837Y0031671D01*
X0106837Y0034757D01*
X0105622Y0034757D02*
X0103154Y0034757D01*
X0104388Y0034757D02*
X0104388Y0031054D01*
X0108078Y0028757D02*
X0108078Y0025054D01*
X0109292Y0026906D02*
X0111761Y0026906D01*
X0110527Y0028140D02*
X0110527Y0025671D01*
X0106850Y0026906D02*
X0104381Y0026906D01*
X0116310Y0035134D02*
X0116927Y0035751D01*
X0116927Y0038220D01*
X0117544Y0037603D02*
X0116310Y0037603D01*
X0115699Y0039934D02*
X0116316Y0040551D01*
X0116316Y0041786D01*
X0115699Y0042403D01*
X0114465Y0042403D01*
X0113848Y0041786D01*
X0113848Y0041168D01*
X0116316Y0041168D01*
X0117531Y0041786D02*
X0117531Y0039934D01*
X0115699Y0039934D02*
X0114465Y0039934D01*
X0117531Y0041786D02*
X0118148Y0042403D01*
X0119999Y0042403D01*
X0119999Y0039934D01*
X0119382Y0039454D02*
X0119382Y0038837D01*
X0119382Y0037603D02*
X0119382Y0035134D01*
X0119999Y0035134D02*
X0118765Y0035134D01*
X0121214Y0035751D02*
X0121214Y0037603D01*
X0119999Y0037603D02*
X0119382Y0037603D01*
X0121214Y0039317D02*
X0121214Y0042403D01*
X0123065Y0042403D01*
X0123683Y0041786D01*
X0123683Y0040551D01*
X0123065Y0039934D01*
X0121214Y0039934D01*
X0121214Y0039317D02*
X0121831Y0038700D01*
X0122448Y0038700D01*
X0123683Y0037603D02*
X0123683Y0035751D01*
X0123065Y0035134D01*
X0122448Y0035751D01*
X0121831Y0035134D01*
X0121214Y0035751D01*
X0123689Y0034697D02*
X0123689Y0030994D01*
X0126158Y0034697D01*
X0126158Y0030994D01*
X0127379Y0030994D02*
X0128613Y0030994D01*
X0127996Y0030994D02*
X0127996Y0034697D01*
X0128613Y0034697D02*
X0127379Y0034697D01*
X0126749Y0035134D02*
X0127366Y0035751D01*
X0126749Y0035134D02*
X0125514Y0035134D01*
X0124897Y0035751D01*
X0124897Y0036368D01*
X0125514Y0036986D01*
X0126749Y0036986D01*
X0127366Y0037603D01*
X0127366Y0038220D01*
X0126749Y0038837D01*
X0125514Y0038837D01*
X0124897Y0038220D01*
X0124897Y0039934D02*
X0126749Y0039934D01*
X0127366Y0040551D01*
X0126749Y0041168D01*
X0124897Y0041168D01*
X0124897Y0041786D02*
X0124897Y0039934D01*
X0124897Y0041786D02*
X0125514Y0042403D01*
X0126749Y0042403D01*
X0128580Y0043637D02*
X0128580Y0039934D01*
X0131049Y0039934D02*
X0131049Y0043637D01*
X0129815Y0042403D01*
X0128580Y0043637D01*
X0126158Y0028697D02*
X0126158Y0024994D01*
X0127372Y0026846D02*
X0129841Y0026846D01*
X0128607Y0028080D02*
X0128607Y0025611D01*
X0124930Y0026846D02*
X0122461Y0026846D01*
X0149474Y0035227D02*
X0151942Y0035227D01*
X0153157Y0035227D02*
X0153157Y0032141D01*
X0153774Y0031524D01*
X0155008Y0031524D01*
X0155626Y0032141D01*
X0155626Y0035227D01*
X0155257Y0035604D02*
X0155257Y0037456D01*
X0155874Y0038073D01*
X0157108Y0038073D01*
X0157725Y0037456D01*
X0158940Y0038073D02*
X0160791Y0038073D01*
X0161409Y0037456D01*
X0161409Y0036221D01*
X0160791Y0035604D01*
X0158940Y0035604D01*
X0158692Y0035227D02*
X0159309Y0034610D01*
X0159309Y0032141D01*
X0158692Y0031524D01*
X0157457Y0031524D01*
X0156840Y0032141D01*
X0156840Y0034610D01*
X0157457Y0035227D01*
X0158692Y0035227D01*
X0157725Y0035604D02*
X0157725Y0039307D01*
X0157719Y0040404D02*
X0158336Y0041021D01*
X0158336Y0043490D01*
X0158953Y0042873D02*
X0157719Y0042873D01*
X0156498Y0042873D02*
X0155881Y0042873D01*
X0155881Y0040404D01*
X0156498Y0040404D02*
X0155263Y0040404D01*
X0154042Y0041021D02*
X0153425Y0040404D01*
X0151574Y0040404D01*
X0151574Y0042873D02*
X0153425Y0042873D01*
X0154042Y0042256D01*
X0154042Y0041021D01*
X0155881Y0044107D02*
X0155881Y0044724D01*
X0160168Y0042256D02*
X0160168Y0041638D01*
X0162636Y0041638D01*
X0162636Y0041021D02*
X0162636Y0042256D01*
X0162019Y0042873D01*
X0160785Y0042873D01*
X0160168Y0042256D01*
X0160785Y0040404D02*
X0162019Y0040404D01*
X0162636Y0041021D01*
X0163851Y0040404D02*
X0163851Y0042256D01*
X0164468Y0042873D01*
X0166319Y0042873D01*
X0166319Y0040404D01*
X0165702Y0039924D02*
X0165702Y0039307D01*
X0165702Y0038073D02*
X0165702Y0035604D01*
X0166319Y0035604D02*
X0165085Y0035604D01*
X0163247Y0036221D02*
X0162630Y0035604D01*
X0163247Y0036221D02*
X0163247Y0038690D01*
X0163864Y0038073D02*
X0162630Y0038073D01*
X0165702Y0038073D02*
X0166319Y0038073D01*
X0167534Y0038073D02*
X0167534Y0036221D01*
X0168151Y0035604D01*
X0168768Y0036221D01*
X0169385Y0035604D01*
X0170003Y0036221D01*
X0170003Y0038073D01*
X0171217Y0038690D02*
X0171834Y0039307D01*
X0173069Y0039307D01*
X0173686Y0038690D01*
X0173686Y0038073D01*
X0173069Y0037456D01*
X0171834Y0037456D01*
X0171217Y0036838D01*
X0171217Y0036221D01*
X0171834Y0035604D01*
X0173069Y0035604D01*
X0173686Y0036221D01*
X0173699Y0035167D02*
X0174933Y0035167D01*
X0174316Y0035167D02*
X0174316Y0031464D01*
X0174933Y0031464D02*
X0173699Y0031464D01*
X0172478Y0031464D02*
X0172478Y0035167D01*
X0170009Y0031464D01*
X0170009Y0035167D01*
X0168768Y0039170D02*
X0168151Y0039170D01*
X0167534Y0039787D01*
X0167534Y0042873D01*
X0169385Y0042873D01*
X0170003Y0042256D01*
X0170003Y0041021D01*
X0169385Y0040404D01*
X0167534Y0040404D01*
X0171217Y0040404D02*
X0171217Y0042256D01*
X0171834Y0042873D01*
X0173069Y0042873D01*
X0173069Y0041638D02*
X0171217Y0041638D01*
X0171217Y0040404D02*
X0173069Y0040404D01*
X0173686Y0041021D01*
X0173069Y0041638D01*
X0174900Y0040404D02*
X0174900Y0044107D01*
X0176135Y0042873D01*
X0177369Y0044107D01*
X0177369Y0040404D01*
X0174927Y0028550D02*
X0174927Y0026081D01*
X0176161Y0027316D02*
X0173692Y0027316D01*
X0172478Y0029167D02*
X0172478Y0025464D01*
X0171250Y0027316D02*
X0168781Y0027316D01*
X0158081Y0027376D02*
X0155612Y0027376D01*
X0156847Y0028610D02*
X0156847Y0026141D01*
X0154398Y0025524D02*
X0154398Y0029227D01*
X0153170Y0027376D02*
X0150701Y0027376D01*
X0150708Y0031524D02*
X0150708Y0035227D01*
X0154328Y0069584D02*
X0154328Y0073287D01*
X0155542Y0071436D02*
X0158011Y0071436D01*
X0156777Y0072670D02*
X0156777Y0070201D01*
X0153100Y0071436D02*
X0150631Y0071436D01*
X0150638Y0075584D02*
X0150638Y0079287D01*
X0151872Y0079287D02*
X0149404Y0079287D01*
X0153087Y0079287D02*
X0153087Y0076201D01*
X0153704Y0075584D01*
X0154938Y0075584D01*
X0155556Y0076201D01*
X0155556Y0079287D01*
X0155187Y0079664D02*
X0155187Y0081516D01*
X0155804Y0082133D01*
X0157038Y0082133D01*
X0157655Y0081516D01*
X0158870Y0082133D02*
X0160721Y0082133D01*
X0161339Y0081516D01*
X0161339Y0080281D01*
X0160721Y0079664D01*
X0158870Y0079664D01*
X0158622Y0079287D02*
X0159239Y0078670D01*
X0159239Y0076201D01*
X0158622Y0075584D01*
X0157387Y0075584D01*
X0156770Y0076201D01*
X0156770Y0078670D01*
X0157387Y0079287D01*
X0158622Y0079287D01*
X0157655Y0079664D02*
X0157655Y0083367D01*
X0157649Y0084464D02*
X0158266Y0085081D01*
X0158266Y0087550D01*
X0158883Y0086933D02*
X0157649Y0086933D01*
X0156428Y0086933D02*
X0155811Y0086933D01*
X0155811Y0084464D01*
X0156428Y0084464D02*
X0155193Y0084464D01*
X0153972Y0085081D02*
X0153355Y0084464D01*
X0151504Y0084464D01*
X0151504Y0086933D02*
X0153355Y0086933D01*
X0153972Y0086316D01*
X0153972Y0085081D01*
X0155811Y0088167D02*
X0155811Y0088784D01*
X0160098Y0086316D02*
X0160098Y0085698D01*
X0162566Y0085698D01*
X0162566Y0085081D02*
X0162566Y0086316D01*
X0161949Y0086933D01*
X0160715Y0086933D01*
X0160098Y0086316D01*
X0160715Y0084464D02*
X0161949Y0084464D01*
X0162566Y0085081D01*
X0163781Y0084464D02*
X0163781Y0086316D01*
X0164398Y0086933D01*
X0166249Y0086933D01*
X0166249Y0084464D01*
X0165632Y0083984D02*
X0165632Y0083367D01*
X0165632Y0082133D02*
X0165632Y0079664D01*
X0166249Y0079664D02*
X0165015Y0079664D01*
X0163177Y0080281D02*
X0162560Y0079664D01*
X0163177Y0080281D02*
X0163177Y0082750D01*
X0163794Y0082133D02*
X0162560Y0082133D01*
X0165632Y0082133D02*
X0166249Y0082133D01*
X0167464Y0082133D02*
X0167464Y0080281D01*
X0168081Y0079664D01*
X0168698Y0080281D01*
X0169315Y0079664D01*
X0169933Y0080281D01*
X0169933Y0082133D01*
X0171147Y0082750D02*
X0171764Y0083367D01*
X0172999Y0083367D01*
X0173616Y0082750D01*
X0173616Y0082133D01*
X0172999Y0081516D01*
X0171764Y0081516D01*
X0171147Y0080898D01*
X0171147Y0080281D01*
X0171764Y0079664D01*
X0172999Y0079664D01*
X0173616Y0080281D01*
X0173629Y0079227D02*
X0174863Y0079227D01*
X0174246Y0079227D02*
X0174246Y0075524D01*
X0174863Y0075524D02*
X0173629Y0075524D01*
X0172408Y0075524D02*
X0172408Y0079227D01*
X0169939Y0075524D01*
X0169939Y0079227D01*
X0168698Y0083230D02*
X0168081Y0083230D01*
X0167464Y0083847D01*
X0167464Y0086933D01*
X0169315Y0086933D01*
X0169933Y0086316D01*
X0169933Y0085081D01*
X0169315Y0084464D01*
X0167464Y0084464D01*
X0171147Y0084464D02*
X0171147Y0086316D01*
X0171764Y0086933D01*
X0172999Y0086933D01*
X0172999Y0085698D02*
X0171147Y0085698D01*
X0171147Y0084464D02*
X0172999Y0084464D01*
X0173616Y0085081D01*
X0172999Y0085698D01*
X0174830Y0084464D02*
X0174830Y0088167D01*
X0176065Y0086933D01*
X0177299Y0088167D01*
X0177299Y0084464D01*
X0174857Y0072610D02*
X0174857Y0070141D01*
X0176091Y0071376D02*
X0173622Y0071376D01*
X0172408Y0073227D02*
X0172408Y0069524D01*
X0171180Y0071376D02*
X0168711Y0071376D01*
X0195654Y0080027D02*
X0198122Y0080027D01*
X0199337Y0080027D02*
X0199337Y0076941D01*
X0199954Y0076324D01*
X0201188Y0076324D01*
X0201806Y0076941D01*
X0201806Y0080027D01*
X0201437Y0080404D02*
X0201437Y0082256D01*
X0202054Y0082873D01*
X0203288Y0082873D01*
X0203905Y0082256D01*
X0205120Y0082873D02*
X0206971Y0082873D01*
X0207589Y0082256D01*
X0207589Y0081021D01*
X0206971Y0080404D01*
X0205120Y0080404D01*
X0204872Y0080027D02*
X0205489Y0079410D01*
X0205489Y0076941D01*
X0204872Y0076324D01*
X0203637Y0076324D01*
X0203020Y0076941D01*
X0203020Y0079410D01*
X0203637Y0080027D01*
X0204872Y0080027D01*
X0203905Y0080404D02*
X0203905Y0084107D01*
X0203899Y0085204D02*
X0204516Y0085821D01*
X0204516Y0088290D01*
X0205133Y0087673D02*
X0203899Y0087673D01*
X0202678Y0087673D02*
X0202061Y0087673D01*
X0202061Y0085204D01*
X0202678Y0085204D02*
X0201443Y0085204D01*
X0200222Y0085821D02*
X0199605Y0085204D01*
X0197754Y0085204D01*
X0197754Y0087673D02*
X0199605Y0087673D01*
X0200222Y0087056D01*
X0200222Y0085821D01*
X0202061Y0088907D02*
X0202061Y0089524D01*
X0206348Y0087056D02*
X0206348Y0086438D01*
X0208816Y0086438D01*
X0208816Y0085821D02*
X0208816Y0087056D01*
X0208199Y0087673D01*
X0206965Y0087673D01*
X0206348Y0087056D01*
X0206965Y0085204D02*
X0208199Y0085204D01*
X0208816Y0085821D01*
X0210031Y0085204D02*
X0210031Y0087056D01*
X0210648Y0087673D01*
X0212499Y0087673D01*
X0212499Y0085204D01*
X0211882Y0084724D02*
X0211882Y0084107D01*
X0211882Y0082873D02*
X0211882Y0080404D01*
X0212499Y0080404D02*
X0211265Y0080404D01*
X0209427Y0081021D02*
X0208810Y0080404D01*
X0209427Y0081021D02*
X0209427Y0083490D01*
X0210044Y0082873D02*
X0208810Y0082873D01*
X0211882Y0082873D02*
X0212499Y0082873D01*
X0213714Y0082873D02*
X0213714Y0081021D01*
X0214331Y0080404D01*
X0214948Y0081021D01*
X0215565Y0080404D01*
X0216183Y0081021D01*
X0216183Y0082873D01*
X0217397Y0083490D02*
X0218014Y0084107D01*
X0219249Y0084107D01*
X0219866Y0083490D01*
X0219866Y0082873D01*
X0219249Y0082256D01*
X0218014Y0082256D01*
X0217397Y0081638D01*
X0217397Y0081021D01*
X0218014Y0080404D01*
X0219249Y0080404D01*
X0219866Y0081021D01*
X0219879Y0079967D02*
X0221113Y0079967D01*
X0220496Y0079967D02*
X0220496Y0076264D01*
X0221113Y0076264D02*
X0219879Y0076264D01*
X0218658Y0076264D02*
X0218658Y0079967D01*
X0216189Y0076264D01*
X0216189Y0079967D01*
X0214948Y0083970D02*
X0214331Y0083970D01*
X0213714Y0084587D01*
X0213714Y0087673D01*
X0215565Y0087673D01*
X0216183Y0087056D01*
X0216183Y0085821D01*
X0215565Y0085204D01*
X0213714Y0085204D01*
X0217397Y0085204D02*
X0219249Y0085204D01*
X0219866Y0085821D01*
X0219249Y0086438D01*
X0217397Y0086438D01*
X0217397Y0087056D02*
X0217397Y0085204D01*
X0217397Y0087056D02*
X0218014Y0087673D01*
X0219249Y0087673D01*
X0221080Y0088907D02*
X0221080Y0085204D01*
X0223549Y0085204D02*
X0223549Y0088907D01*
X0222315Y0087673D01*
X0221080Y0088907D01*
X0218658Y0073967D02*
X0218658Y0070264D01*
X0219872Y0072116D02*
X0222341Y0072116D01*
X0221107Y0073350D02*
X0221107Y0070881D01*
X0217430Y0072116D02*
X0214961Y0072116D01*
X0204261Y0072176D02*
X0201792Y0072176D01*
X0203027Y0073410D02*
X0203027Y0070941D01*
X0200578Y0070324D02*
X0200578Y0074027D01*
X0199350Y0072176D02*
X0196881Y0072176D01*
X0196888Y0076324D02*
X0196888Y0080027D01*
X0202131Y0045464D02*
X0202131Y0044847D01*
X0202131Y0043613D02*
X0202131Y0041144D01*
X0202748Y0041144D02*
X0201513Y0041144D01*
X0200292Y0041761D02*
X0199675Y0041144D01*
X0197824Y0041144D01*
X0197824Y0043613D02*
X0199675Y0043613D01*
X0200292Y0042996D01*
X0200292Y0041761D01*
X0202131Y0043613D02*
X0202748Y0043613D01*
X0203969Y0043613D02*
X0205203Y0043613D01*
X0204586Y0044230D02*
X0204586Y0041761D01*
X0203969Y0041144D01*
X0203975Y0040047D02*
X0203975Y0036344D01*
X0203707Y0035967D02*
X0203090Y0035350D01*
X0203090Y0032881D01*
X0203707Y0032264D01*
X0204942Y0032264D01*
X0205559Y0032881D01*
X0205559Y0035350D01*
X0204942Y0035967D01*
X0203707Y0035967D01*
X0205190Y0036344D02*
X0207041Y0036344D01*
X0207659Y0036961D01*
X0207659Y0038196D01*
X0207041Y0038813D01*
X0205190Y0038813D01*
X0203975Y0038196D02*
X0203358Y0038813D01*
X0202124Y0038813D01*
X0201507Y0038196D01*
X0201507Y0036344D01*
X0201876Y0035967D02*
X0201876Y0032881D01*
X0201258Y0032264D01*
X0200024Y0032264D01*
X0199407Y0032881D01*
X0199407Y0035967D01*
X0198192Y0035967D02*
X0195724Y0035967D01*
X0196958Y0035967D02*
X0196958Y0032264D01*
X0196951Y0028116D02*
X0199420Y0028116D01*
X0200648Y0029967D02*
X0200648Y0026264D01*
X0201862Y0028116D02*
X0204331Y0028116D01*
X0203097Y0029350D02*
X0203097Y0026881D01*
X0208880Y0036344D02*
X0209497Y0036961D01*
X0209497Y0039430D01*
X0210114Y0038813D02*
X0208880Y0038813D01*
X0208269Y0041144D02*
X0207035Y0041144D01*
X0208269Y0041144D02*
X0208886Y0041761D01*
X0208886Y0042996D01*
X0208269Y0043613D01*
X0207035Y0043613D01*
X0206418Y0042996D01*
X0206418Y0042378D01*
X0208886Y0042378D01*
X0210101Y0042996D02*
X0210101Y0041144D01*
X0210101Y0042996D02*
X0210718Y0043613D01*
X0212569Y0043613D01*
X0212569Y0041144D01*
X0211952Y0040664D02*
X0211952Y0040047D01*
X0211952Y0038813D02*
X0211952Y0036344D01*
X0212569Y0036344D02*
X0211335Y0036344D01*
X0213784Y0036961D02*
X0213784Y0038813D01*
X0212569Y0038813D02*
X0211952Y0038813D01*
X0213784Y0040527D02*
X0213784Y0043613D01*
X0215635Y0043613D01*
X0216253Y0042996D01*
X0216253Y0041761D01*
X0215635Y0041144D01*
X0213784Y0041144D01*
X0213784Y0040527D02*
X0214401Y0039910D01*
X0215018Y0039910D01*
X0216253Y0038813D02*
X0216253Y0036961D01*
X0215635Y0036344D01*
X0215018Y0036961D01*
X0214401Y0036344D01*
X0213784Y0036961D01*
X0216259Y0035907D02*
X0216259Y0032204D01*
X0218728Y0035907D01*
X0218728Y0032204D01*
X0219949Y0032204D02*
X0221183Y0032204D01*
X0220566Y0032204D02*
X0220566Y0035907D01*
X0221183Y0035907D02*
X0219949Y0035907D01*
X0219319Y0036344D02*
X0219936Y0036961D01*
X0219319Y0036344D02*
X0218084Y0036344D01*
X0217467Y0036961D01*
X0217467Y0037578D01*
X0218084Y0038196D01*
X0219319Y0038196D01*
X0219936Y0038813D01*
X0219936Y0039430D01*
X0219319Y0040047D01*
X0218084Y0040047D01*
X0217467Y0039430D01*
X0217467Y0041144D02*
X0219319Y0041144D01*
X0219936Y0041761D01*
X0219319Y0042378D01*
X0217467Y0042378D01*
X0217467Y0042996D02*
X0217467Y0041144D01*
X0217467Y0042996D02*
X0218084Y0043613D01*
X0219319Y0043613D01*
X0221150Y0044847D02*
X0221150Y0041144D01*
X0223619Y0041144D02*
X0223619Y0044847D01*
X0222385Y0043613D01*
X0221150Y0044847D01*
X0218728Y0029907D02*
X0218728Y0026204D01*
X0219942Y0028056D02*
X0222411Y0028056D01*
X0221177Y0029290D02*
X0221177Y0026821D01*
X0217500Y0028056D02*
X0215031Y0028056D01*
X0242834Y0035847D02*
X0245302Y0035847D01*
X0246517Y0035847D02*
X0246517Y0032761D01*
X0247134Y0032144D01*
X0248368Y0032144D01*
X0248986Y0032761D01*
X0248986Y0035847D01*
X0248617Y0036224D02*
X0248617Y0038076D01*
X0249234Y0038693D01*
X0250468Y0038693D01*
X0251085Y0038076D01*
X0252300Y0038693D02*
X0254151Y0038693D01*
X0254769Y0038076D01*
X0254769Y0036841D01*
X0254151Y0036224D01*
X0252300Y0036224D01*
X0252052Y0035847D02*
X0252669Y0035230D01*
X0252669Y0032761D01*
X0252052Y0032144D01*
X0250817Y0032144D01*
X0250200Y0032761D01*
X0250200Y0035230D01*
X0250817Y0035847D01*
X0252052Y0035847D01*
X0251085Y0036224D02*
X0251085Y0039927D01*
X0251079Y0041024D02*
X0251696Y0041641D01*
X0251696Y0044110D01*
X0252313Y0043493D02*
X0251079Y0043493D01*
X0249858Y0043493D02*
X0249241Y0043493D01*
X0249241Y0041024D01*
X0249858Y0041024D02*
X0248623Y0041024D01*
X0247402Y0041641D02*
X0246785Y0041024D01*
X0244934Y0041024D01*
X0244934Y0043493D02*
X0246785Y0043493D01*
X0247402Y0042876D01*
X0247402Y0041641D01*
X0249241Y0044727D02*
X0249241Y0045344D01*
X0253528Y0042876D02*
X0253528Y0042258D01*
X0255996Y0042258D01*
X0255996Y0041641D02*
X0255996Y0042876D01*
X0255379Y0043493D01*
X0254145Y0043493D01*
X0253528Y0042876D01*
X0254145Y0041024D02*
X0255379Y0041024D01*
X0255996Y0041641D01*
X0257211Y0041024D02*
X0257211Y0042876D01*
X0257828Y0043493D01*
X0259679Y0043493D01*
X0259679Y0041024D01*
X0259062Y0040544D02*
X0259062Y0039927D01*
X0259062Y0038693D02*
X0259062Y0036224D01*
X0259679Y0036224D02*
X0258445Y0036224D01*
X0256607Y0036841D02*
X0256607Y0039310D01*
X0257224Y0038693D02*
X0255990Y0038693D01*
X0256607Y0036841D02*
X0255990Y0036224D01*
X0259062Y0038693D02*
X0259679Y0038693D01*
X0260894Y0038693D02*
X0260894Y0036841D01*
X0261511Y0036224D01*
X0262128Y0036841D01*
X0262745Y0036224D01*
X0263363Y0036841D01*
X0263363Y0038693D01*
X0264577Y0039310D02*
X0265194Y0039927D01*
X0266429Y0039927D01*
X0267046Y0039310D01*
X0267046Y0038693D01*
X0266429Y0038076D01*
X0265194Y0038076D01*
X0264577Y0037458D01*
X0264577Y0036841D01*
X0265194Y0036224D01*
X0266429Y0036224D01*
X0267046Y0036841D01*
X0267059Y0035787D02*
X0268293Y0035787D01*
X0267676Y0035787D02*
X0267676Y0032084D01*
X0268293Y0032084D02*
X0267059Y0032084D01*
X0265838Y0032084D02*
X0265838Y0035787D01*
X0263369Y0032084D01*
X0263369Y0035787D01*
X0262128Y0039790D02*
X0261511Y0039790D01*
X0260894Y0040407D01*
X0260894Y0043493D01*
X0262745Y0043493D01*
X0263363Y0042876D01*
X0263363Y0041641D01*
X0262745Y0041024D01*
X0260894Y0041024D01*
X0264577Y0041024D02*
X0266429Y0041024D01*
X0267046Y0041641D01*
X0266429Y0042258D01*
X0264577Y0042258D01*
X0264577Y0042876D02*
X0264577Y0041024D01*
X0264577Y0042876D02*
X0265194Y0043493D01*
X0266429Y0043493D01*
X0268260Y0044727D02*
X0268260Y0041024D01*
X0270729Y0041024D02*
X0270729Y0044727D01*
X0269495Y0043493D01*
X0268260Y0044727D01*
X0265838Y0029787D02*
X0265838Y0026084D01*
X0267052Y0027936D02*
X0269521Y0027936D01*
X0268287Y0029170D02*
X0268287Y0026701D01*
X0264610Y0027936D02*
X0262141Y0027936D01*
X0251441Y0027996D02*
X0248972Y0027996D01*
X0250207Y0029230D02*
X0250207Y0026761D01*
X0247758Y0026144D02*
X0247758Y0029847D01*
X0246530Y0027996D02*
X0244061Y0027996D01*
X0244068Y0032144D02*
X0244068Y0035847D01*
X0247688Y0070204D02*
X0247688Y0073907D01*
X0248902Y0072056D02*
X0251371Y0072056D01*
X0250137Y0073290D02*
X0250137Y0070821D01*
X0246460Y0072056D02*
X0243991Y0072056D01*
X0243998Y0076204D02*
X0243998Y0079907D01*
X0245232Y0079907D02*
X0242764Y0079907D01*
X0246447Y0079907D02*
X0246447Y0076821D01*
X0247064Y0076204D01*
X0248298Y0076204D01*
X0248916Y0076821D01*
X0248916Y0079907D01*
X0248547Y0080284D02*
X0248547Y0082136D01*
X0249164Y0082753D01*
X0250398Y0082753D01*
X0251015Y0082136D01*
X0252230Y0082753D02*
X0254081Y0082753D01*
X0254699Y0082136D01*
X0254699Y0080901D01*
X0254081Y0080284D01*
X0252230Y0080284D01*
X0251982Y0079907D02*
X0252599Y0079290D01*
X0252599Y0076821D01*
X0251982Y0076204D01*
X0250747Y0076204D01*
X0250130Y0076821D01*
X0250130Y0079290D01*
X0250747Y0079907D01*
X0251982Y0079907D01*
X0251015Y0080284D02*
X0251015Y0083987D01*
X0251009Y0085084D02*
X0251626Y0085701D01*
X0251626Y0088170D01*
X0252243Y0087553D02*
X0251009Y0087553D01*
X0249788Y0087553D02*
X0249171Y0087553D01*
X0249171Y0085084D01*
X0249788Y0085084D02*
X0248553Y0085084D01*
X0247332Y0085701D02*
X0246715Y0085084D01*
X0244864Y0085084D01*
X0244864Y0087553D02*
X0246715Y0087553D01*
X0247332Y0086936D01*
X0247332Y0085701D01*
X0249171Y0088787D02*
X0249171Y0089404D01*
X0253458Y0086936D02*
X0253458Y0086318D01*
X0255926Y0086318D01*
X0255926Y0085701D02*
X0255926Y0086936D01*
X0255309Y0087553D01*
X0254075Y0087553D01*
X0253458Y0086936D01*
X0254075Y0085084D02*
X0255309Y0085084D01*
X0255926Y0085701D01*
X0257141Y0085084D02*
X0257141Y0086936D01*
X0257758Y0087553D01*
X0259609Y0087553D01*
X0259609Y0085084D01*
X0258992Y0084604D02*
X0258992Y0083987D01*
X0258992Y0082753D02*
X0258992Y0080284D01*
X0259609Y0080284D02*
X0258375Y0080284D01*
X0256537Y0080901D02*
X0256537Y0083370D01*
X0257154Y0082753D02*
X0255920Y0082753D01*
X0256537Y0080901D02*
X0255920Y0080284D01*
X0258992Y0082753D02*
X0259609Y0082753D01*
X0260824Y0082753D02*
X0260824Y0080901D01*
X0261441Y0080284D01*
X0262058Y0080901D01*
X0262675Y0080284D01*
X0263293Y0080901D01*
X0263293Y0082753D01*
X0264507Y0083370D02*
X0265124Y0083987D01*
X0266359Y0083987D01*
X0266976Y0083370D01*
X0266976Y0082753D01*
X0266359Y0082136D01*
X0265124Y0082136D01*
X0264507Y0081518D01*
X0264507Y0080901D01*
X0265124Y0080284D01*
X0266359Y0080284D01*
X0266976Y0080901D01*
X0266989Y0079847D02*
X0268223Y0079847D01*
X0267606Y0079847D02*
X0267606Y0076144D01*
X0268223Y0076144D02*
X0266989Y0076144D01*
X0265768Y0076144D02*
X0265768Y0079847D01*
X0263299Y0076144D01*
X0263299Y0079847D01*
X0262058Y0083850D02*
X0261441Y0083850D01*
X0260824Y0084467D01*
X0260824Y0087553D01*
X0262675Y0087553D01*
X0263293Y0086936D01*
X0263293Y0085701D01*
X0262675Y0085084D01*
X0260824Y0085084D01*
X0264507Y0085084D02*
X0266359Y0085084D01*
X0266976Y0085701D01*
X0266359Y0086318D01*
X0264507Y0086318D01*
X0264507Y0086936D02*
X0264507Y0085084D01*
X0264507Y0086936D02*
X0265124Y0087553D01*
X0266359Y0087553D01*
X0268190Y0088787D02*
X0268190Y0085084D01*
X0270659Y0085084D02*
X0270659Y0088787D01*
X0269425Y0087553D01*
X0268190Y0088787D01*
X0265768Y0073847D02*
X0265768Y0070144D01*
X0266982Y0071996D02*
X0269451Y0071996D01*
X0268217Y0073230D02*
X0268217Y0070761D01*
X0264540Y0071996D02*
X0262071Y0071996D01*
X0289744Y0079747D02*
X0292212Y0079747D01*
X0293427Y0079747D02*
X0293427Y0076661D01*
X0294044Y0076044D01*
X0295278Y0076044D01*
X0295896Y0076661D01*
X0295896Y0079747D01*
X0295527Y0080124D02*
X0295527Y0081976D01*
X0296144Y0082593D01*
X0297378Y0082593D01*
X0297995Y0081976D01*
X0299210Y0082593D02*
X0301061Y0082593D01*
X0301679Y0081976D01*
X0301679Y0080741D01*
X0301061Y0080124D01*
X0299210Y0080124D01*
X0298962Y0079747D02*
X0299579Y0079130D01*
X0299579Y0076661D01*
X0298962Y0076044D01*
X0297727Y0076044D01*
X0297110Y0076661D01*
X0297110Y0079130D01*
X0297727Y0079747D01*
X0298962Y0079747D01*
X0297995Y0080124D02*
X0297995Y0083827D01*
X0297989Y0084924D02*
X0298606Y0085541D01*
X0298606Y0088010D01*
X0299223Y0087393D02*
X0297989Y0087393D01*
X0296768Y0087393D02*
X0296151Y0087393D01*
X0296151Y0084924D01*
X0296768Y0084924D02*
X0295533Y0084924D01*
X0294312Y0085541D02*
X0293695Y0084924D01*
X0291844Y0084924D01*
X0291844Y0087393D02*
X0293695Y0087393D01*
X0294312Y0086776D01*
X0294312Y0085541D01*
X0296151Y0088627D02*
X0296151Y0089244D01*
X0300438Y0086776D02*
X0300438Y0086158D01*
X0302906Y0086158D01*
X0302906Y0085541D02*
X0302906Y0086776D01*
X0302289Y0087393D01*
X0301055Y0087393D01*
X0300438Y0086776D01*
X0301055Y0084924D02*
X0302289Y0084924D01*
X0302906Y0085541D01*
X0304121Y0084924D02*
X0304121Y0086776D01*
X0304738Y0087393D01*
X0306589Y0087393D01*
X0306589Y0084924D01*
X0305972Y0084444D02*
X0305972Y0083827D01*
X0305972Y0082593D02*
X0305972Y0080124D01*
X0306589Y0080124D02*
X0305355Y0080124D01*
X0303517Y0080741D02*
X0303517Y0083210D01*
X0304134Y0082593D02*
X0302900Y0082593D01*
X0303517Y0080741D02*
X0302900Y0080124D01*
X0305972Y0082593D02*
X0306589Y0082593D01*
X0307804Y0082593D02*
X0307804Y0080741D01*
X0308421Y0080124D01*
X0309038Y0080741D01*
X0309655Y0080124D01*
X0310273Y0080741D01*
X0310273Y0082593D01*
X0311487Y0083210D02*
X0312104Y0083827D01*
X0313339Y0083827D01*
X0313956Y0083210D01*
X0313956Y0082593D01*
X0313339Y0081976D01*
X0312104Y0081976D01*
X0311487Y0081358D01*
X0311487Y0080741D01*
X0312104Y0080124D01*
X0313339Y0080124D01*
X0313956Y0080741D01*
X0313969Y0079687D02*
X0315203Y0079687D01*
X0314586Y0079687D02*
X0314586Y0075984D01*
X0315203Y0075984D02*
X0313969Y0075984D01*
X0312748Y0075984D02*
X0312748Y0079687D01*
X0310279Y0075984D01*
X0310279Y0079687D01*
X0309038Y0083690D02*
X0308421Y0083690D01*
X0307804Y0084307D01*
X0307804Y0087393D01*
X0309655Y0087393D01*
X0310273Y0086776D01*
X0310273Y0085541D01*
X0309655Y0084924D01*
X0307804Y0084924D01*
X0311487Y0084924D02*
X0313339Y0084924D01*
X0313956Y0085541D01*
X0313339Y0086158D01*
X0311487Y0086158D01*
X0311487Y0086776D02*
X0311487Y0084924D01*
X0311487Y0086776D02*
X0312104Y0087393D01*
X0313339Y0087393D01*
X0315170Y0088627D02*
X0315170Y0084924D01*
X0317639Y0084924D02*
X0317639Y0088627D01*
X0316405Y0087393D01*
X0315170Y0088627D01*
X0312748Y0073687D02*
X0312748Y0069984D01*
X0313962Y0071836D02*
X0316431Y0071836D01*
X0315197Y0073070D02*
X0315197Y0070601D01*
X0311520Y0071836D02*
X0309051Y0071836D01*
X0298351Y0071896D02*
X0295882Y0071896D01*
X0297117Y0073130D02*
X0297117Y0070661D01*
X0294668Y0070044D02*
X0294668Y0073747D01*
X0293440Y0071896D02*
X0290971Y0071896D01*
X0290978Y0076044D02*
X0290978Y0079747D01*
X0296221Y0045184D02*
X0296221Y0044567D01*
X0296221Y0043333D02*
X0296221Y0040864D01*
X0296838Y0040864D02*
X0295603Y0040864D01*
X0294382Y0041481D02*
X0293765Y0040864D01*
X0291914Y0040864D01*
X0291914Y0043333D02*
X0293765Y0043333D01*
X0294382Y0042716D01*
X0294382Y0041481D01*
X0296221Y0043333D02*
X0296838Y0043333D01*
X0298059Y0043333D02*
X0299293Y0043333D01*
X0298676Y0043950D02*
X0298676Y0041481D01*
X0298059Y0040864D01*
X0298065Y0039767D02*
X0298065Y0036064D01*
X0297797Y0035687D02*
X0297180Y0035070D01*
X0297180Y0032601D01*
X0297797Y0031984D01*
X0299032Y0031984D01*
X0299649Y0032601D01*
X0299649Y0035070D01*
X0299032Y0035687D01*
X0297797Y0035687D01*
X0299280Y0036064D02*
X0301131Y0036064D01*
X0301749Y0036681D01*
X0301749Y0037916D01*
X0301131Y0038533D01*
X0299280Y0038533D01*
X0298065Y0037916D02*
X0297448Y0038533D01*
X0296214Y0038533D01*
X0295597Y0037916D01*
X0295597Y0036064D01*
X0295966Y0035687D02*
X0295966Y0032601D01*
X0295348Y0031984D01*
X0294114Y0031984D01*
X0293497Y0032601D01*
X0293497Y0035687D01*
X0292282Y0035687D02*
X0289814Y0035687D01*
X0291048Y0035687D02*
X0291048Y0031984D01*
X0291041Y0027836D02*
X0293510Y0027836D01*
X0294738Y0029687D02*
X0294738Y0025984D01*
X0295952Y0027836D02*
X0298421Y0027836D01*
X0297187Y0029070D02*
X0297187Y0026601D01*
X0302970Y0036064D02*
X0303587Y0036681D01*
X0303587Y0039150D01*
X0304204Y0038533D02*
X0302970Y0038533D01*
X0302359Y0040864D02*
X0302976Y0041481D01*
X0302976Y0042716D01*
X0302359Y0043333D01*
X0301125Y0043333D01*
X0300508Y0042716D01*
X0300508Y0042098D01*
X0302976Y0042098D01*
X0304191Y0042716D02*
X0304191Y0040864D01*
X0302359Y0040864D02*
X0301125Y0040864D01*
X0304191Y0042716D02*
X0304808Y0043333D01*
X0306659Y0043333D01*
X0306659Y0040864D01*
X0306042Y0040384D02*
X0306042Y0039767D01*
X0306042Y0038533D02*
X0306042Y0036064D01*
X0306659Y0036064D02*
X0305425Y0036064D01*
X0307874Y0036681D02*
X0307874Y0038533D01*
X0306659Y0038533D02*
X0306042Y0038533D01*
X0307874Y0040247D02*
X0307874Y0043333D01*
X0309725Y0043333D01*
X0310343Y0042716D01*
X0310343Y0041481D01*
X0309725Y0040864D01*
X0307874Y0040864D01*
X0307874Y0040247D02*
X0308491Y0039630D01*
X0309108Y0039630D01*
X0310343Y0038533D02*
X0310343Y0036681D01*
X0309725Y0036064D01*
X0309108Y0036681D01*
X0308491Y0036064D01*
X0307874Y0036681D01*
X0310349Y0035627D02*
X0310349Y0031924D01*
X0312818Y0035627D01*
X0312818Y0031924D01*
X0314039Y0031924D02*
X0315273Y0031924D01*
X0314656Y0031924D02*
X0314656Y0035627D01*
X0315273Y0035627D02*
X0314039Y0035627D01*
X0313409Y0036064D02*
X0314026Y0036681D01*
X0313409Y0036064D02*
X0312174Y0036064D01*
X0311557Y0036681D01*
X0311557Y0037298D01*
X0312174Y0037916D01*
X0313409Y0037916D01*
X0314026Y0038533D01*
X0314026Y0039150D01*
X0313409Y0039767D01*
X0312174Y0039767D01*
X0311557Y0039150D01*
X0311557Y0040864D02*
X0313409Y0040864D01*
X0314026Y0041481D01*
X0313409Y0042098D01*
X0311557Y0042098D01*
X0311557Y0042716D02*
X0311557Y0040864D01*
X0311557Y0042716D02*
X0312174Y0043333D01*
X0313409Y0043333D01*
X0315240Y0044567D02*
X0315240Y0040864D01*
X0317709Y0040864D02*
X0317709Y0044567D01*
X0316475Y0043333D01*
X0315240Y0044567D01*
X0312818Y0029627D02*
X0312818Y0025924D01*
X0314032Y0027776D02*
X0316501Y0027776D01*
X0315267Y0029010D02*
X0315267Y0026541D01*
X0311590Y0027776D02*
X0309121Y0027776D01*
X0340551Y0028706D02*
X0343020Y0028706D01*
X0344248Y0030557D02*
X0344248Y0026854D01*
X0345462Y0028706D02*
X0347931Y0028706D01*
X0346697Y0029940D02*
X0346697Y0027471D01*
X0347307Y0032854D02*
X0346690Y0033471D01*
X0346690Y0035940D01*
X0347307Y0036557D01*
X0348542Y0036557D01*
X0349159Y0035940D01*
X0349159Y0033471D01*
X0348542Y0032854D01*
X0347307Y0032854D01*
X0345476Y0033471D02*
X0345476Y0036557D01*
X0345107Y0036934D02*
X0345107Y0038786D01*
X0345724Y0039403D01*
X0346958Y0039403D01*
X0347575Y0038786D01*
X0348790Y0039403D02*
X0350641Y0039403D01*
X0351259Y0038786D01*
X0351259Y0037551D01*
X0350641Y0036934D01*
X0348790Y0036934D01*
X0347575Y0036934D02*
X0347575Y0040637D01*
X0347569Y0041734D02*
X0348186Y0042351D01*
X0348186Y0044820D01*
X0348803Y0044203D02*
X0347569Y0044203D01*
X0346348Y0044203D02*
X0345731Y0044203D01*
X0345731Y0041734D01*
X0346348Y0041734D02*
X0345113Y0041734D01*
X0343892Y0042351D02*
X0343275Y0041734D01*
X0341424Y0041734D01*
X0341424Y0044203D02*
X0343275Y0044203D01*
X0343892Y0043586D01*
X0343892Y0042351D01*
X0345731Y0045437D02*
X0345731Y0046054D01*
X0350018Y0043586D02*
X0350018Y0042968D01*
X0352486Y0042968D01*
X0352486Y0042351D02*
X0352486Y0043586D01*
X0351869Y0044203D01*
X0350635Y0044203D01*
X0350018Y0043586D01*
X0350635Y0041734D02*
X0351869Y0041734D01*
X0352486Y0042351D01*
X0353701Y0041734D02*
X0353701Y0043586D01*
X0354318Y0044203D01*
X0356169Y0044203D01*
X0356169Y0041734D01*
X0355552Y0041254D02*
X0355552Y0040637D01*
X0355552Y0039403D02*
X0355552Y0036934D01*
X0356169Y0036934D02*
X0354935Y0036934D01*
X0353097Y0037551D02*
X0352480Y0036934D01*
X0353097Y0037551D02*
X0353097Y0040020D01*
X0353714Y0039403D02*
X0352480Y0039403D01*
X0355552Y0039403D02*
X0356169Y0039403D01*
X0357384Y0039403D02*
X0357384Y0037551D01*
X0358001Y0036934D01*
X0358618Y0037551D01*
X0359235Y0036934D01*
X0359853Y0037551D01*
X0359853Y0039403D01*
X0361067Y0040020D02*
X0361684Y0040637D01*
X0362919Y0040637D01*
X0363536Y0040020D01*
X0363536Y0039403D01*
X0362919Y0038786D01*
X0361684Y0038786D01*
X0361067Y0038168D01*
X0361067Y0037551D01*
X0361684Y0036934D01*
X0362919Y0036934D01*
X0363536Y0037551D01*
X0363549Y0036497D02*
X0364783Y0036497D01*
X0364166Y0036497D02*
X0364166Y0032794D01*
X0364783Y0032794D02*
X0363549Y0032794D01*
X0362328Y0032794D02*
X0362328Y0036497D01*
X0359859Y0032794D01*
X0359859Y0036497D01*
X0358618Y0040500D02*
X0358001Y0040500D01*
X0357384Y0041117D01*
X0357384Y0044203D01*
X0359235Y0044203D01*
X0359853Y0043586D01*
X0359853Y0042351D01*
X0359235Y0041734D01*
X0357384Y0041734D01*
X0361067Y0041734D02*
X0362919Y0041734D01*
X0363536Y0042351D01*
X0362919Y0042968D01*
X0361067Y0042968D01*
X0361067Y0043586D02*
X0361067Y0041734D01*
X0361067Y0043586D02*
X0361684Y0044203D01*
X0362919Y0044203D01*
X0364750Y0045437D02*
X0364750Y0041734D01*
X0367219Y0041734D02*
X0367219Y0045437D01*
X0365985Y0044203D01*
X0364750Y0045437D01*
X0362328Y0030497D02*
X0362328Y0026794D01*
X0363542Y0028646D02*
X0366011Y0028646D01*
X0364777Y0029880D02*
X0364777Y0027411D01*
X0361100Y0028646D02*
X0358631Y0028646D01*
X0345476Y0033471D02*
X0344858Y0032854D01*
X0343624Y0032854D01*
X0343007Y0033471D01*
X0343007Y0036557D01*
X0341792Y0036557D02*
X0339324Y0036557D01*
X0340558Y0036557D02*
X0340558Y0032854D01*
X0344178Y0070914D02*
X0344178Y0074617D01*
X0345392Y0072766D02*
X0347861Y0072766D01*
X0346627Y0074000D02*
X0346627Y0071531D01*
X0342950Y0072766D02*
X0340481Y0072766D01*
X0340488Y0076914D02*
X0340488Y0080617D01*
X0341722Y0080617D02*
X0339254Y0080617D01*
X0342937Y0080617D02*
X0342937Y0077531D01*
X0343554Y0076914D01*
X0344788Y0076914D01*
X0345406Y0077531D01*
X0345406Y0080617D01*
X0345037Y0080994D02*
X0345037Y0082846D01*
X0345654Y0083463D01*
X0346888Y0083463D01*
X0347505Y0082846D01*
X0348720Y0083463D02*
X0350571Y0083463D01*
X0351189Y0082846D01*
X0351189Y0081611D01*
X0350571Y0080994D01*
X0348720Y0080994D01*
X0348472Y0080617D02*
X0349089Y0080000D01*
X0349089Y0077531D01*
X0348472Y0076914D01*
X0347237Y0076914D01*
X0346620Y0077531D01*
X0346620Y0080000D01*
X0347237Y0080617D01*
X0348472Y0080617D01*
X0347505Y0080994D02*
X0347505Y0084697D01*
X0347499Y0085794D02*
X0348116Y0086411D01*
X0348116Y0088880D01*
X0348733Y0088263D02*
X0347499Y0088263D01*
X0346278Y0088263D02*
X0345661Y0088263D01*
X0345661Y0085794D01*
X0346278Y0085794D02*
X0345043Y0085794D01*
X0343822Y0086411D02*
X0343205Y0085794D01*
X0341354Y0085794D01*
X0341354Y0088263D02*
X0343205Y0088263D01*
X0343822Y0087646D01*
X0343822Y0086411D01*
X0345661Y0089497D02*
X0345661Y0090114D01*
X0349948Y0087646D02*
X0349948Y0087028D01*
X0352416Y0087028D01*
X0352416Y0086411D02*
X0352416Y0087646D01*
X0351799Y0088263D01*
X0350565Y0088263D01*
X0349948Y0087646D01*
X0350565Y0085794D02*
X0351799Y0085794D01*
X0352416Y0086411D01*
X0353631Y0085794D02*
X0353631Y0087646D01*
X0354248Y0088263D01*
X0356099Y0088263D01*
X0356099Y0085794D01*
X0355482Y0085314D02*
X0355482Y0084697D01*
X0355482Y0083463D02*
X0355482Y0080994D01*
X0356099Y0080994D02*
X0354865Y0080994D01*
X0353027Y0081611D02*
X0352410Y0080994D01*
X0353027Y0081611D02*
X0353027Y0084080D01*
X0353644Y0083463D02*
X0352410Y0083463D01*
X0355482Y0083463D02*
X0356099Y0083463D01*
X0357314Y0083463D02*
X0357314Y0081611D01*
X0357931Y0080994D01*
X0358548Y0081611D01*
X0359165Y0080994D01*
X0359783Y0081611D01*
X0359783Y0083463D01*
X0360997Y0084080D02*
X0361614Y0084697D01*
X0362849Y0084697D01*
X0363466Y0084080D01*
X0363466Y0083463D01*
X0362849Y0082846D01*
X0361614Y0082846D01*
X0360997Y0082228D01*
X0360997Y0081611D01*
X0361614Y0080994D01*
X0362849Y0080994D01*
X0363466Y0081611D01*
X0363479Y0080557D02*
X0364713Y0080557D01*
X0364096Y0080557D02*
X0364096Y0076854D01*
X0364713Y0076854D02*
X0363479Y0076854D01*
X0362258Y0076854D02*
X0362258Y0080557D01*
X0359789Y0076854D01*
X0359789Y0080557D01*
X0362258Y0074557D02*
X0362258Y0070854D01*
X0363472Y0072706D02*
X0365941Y0072706D01*
X0364707Y0073940D02*
X0364707Y0071471D01*
X0361030Y0072706D02*
X0358561Y0072706D01*
X0358548Y0084560D02*
X0357931Y0084560D01*
X0357314Y0085177D01*
X0357314Y0088263D01*
X0359165Y0088263D01*
X0359783Y0087646D01*
X0359783Y0086411D01*
X0359165Y0085794D01*
X0357314Y0085794D01*
X0360997Y0085794D02*
X0362849Y0085794D01*
X0363466Y0086411D01*
X0362849Y0087028D01*
X0360997Y0087028D01*
X0360997Y0087646D02*
X0360997Y0085794D01*
X0360997Y0087646D02*
X0361614Y0088263D01*
X0362849Y0088263D01*
X0364680Y0089497D02*
X0364680Y0085794D01*
X0367149Y0085794D02*
X0367149Y0089497D01*
X0365915Y0088263D01*
X0364680Y0089497D01*
X0362348Y0115374D02*
X0362348Y0119077D01*
X0363562Y0117226D02*
X0366031Y0117226D01*
X0364797Y0118460D02*
X0364797Y0115991D01*
X0361120Y0117226D02*
X0358651Y0117226D01*
X0359879Y0121374D02*
X0359879Y0125077D01*
X0359255Y0125514D02*
X0358638Y0126131D01*
X0358021Y0125514D01*
X0357404Y0126131D01*
X0357404Y0127983D01*
X0356189Y0127983D02*
X0355572Y0127983D01*
X0355572Y0125514D01*
X0356189Y0125514D02*
X0354955Y0125514D01*
X0353117Y0126131D02*
X0353117Y0128600D01*
X0353734Y0127983D02*
X0352500Y0127983D01*
X0351279Y0127366D02*
X0351279Y0126131D01*
X0350661Y0125514D01*
X0348810Y0125514D01*
X0348562Y0125137D02*
X0349179Y0124520D01*
X0349179Y0122051D01*
X0348562Y0121434D01*
X0347327Y0121434D01*
X0346710Y0122051D01*
X0346710Y0124520D01*
X0347327Y0125137D01*
X0348562Y0125137D01*
X0347595Y0125514D02*
X0347595Y0129217D01*
X0347589Y0130314D02*
X0348206Y0130931D01*
X0348206Y0133400D01*
X0348823Y0132783D02*
X0347589Y0132783D01*
X0346368Y0132783D02*
X0345751Y0132783D01*
X0345751Y0130314D01*
X0346368Y0130314D02*
X0345133Y0130314D01*
X0343912Y0130931D02*
X0343295Y0130314D01*
X0341444Y0130314D01*
X0341444Y0132783D02*
X0343295Y0132783D01*
X0343912Y0132166D01*
X0343912Y0130931D01*
X0345744Y0127983D02*
X0345127Y0127366D01*
X0345127Y0125514D01*
X0345496Y0125137D02*
X0345496Y0122051D01*
X0344878Y0121434D01*
X0343644Y0121434D01*
X0343027Y0122051D01*
X0343027Y0125137D01*
X0341812Y0125137D02*
X0339344Y0125137D01*
X0340578Y0125137D02*
X0340578Y0121434D01*
X0340571Y0117286D02*
X0343040Y0117286D01*
X0344268Y0119137D02*
X0344268Y0115434D01*
X0345482Y0117286D02*
X0347951Y0117286D01*
X0346717Y0118520D02*
X0346717Y0116051D01*
X0352500Y0125514D02*
X0353117Y0126131D01*
X0351279Y0127366D02*
X0350661Y0127983D01*
X0348810Y0127983D01*
X0347595Y0127366D02*
X0346978Y0127983D01*
X0345744Y0127983D01*
X0350655Y0130314D02*
X0351889Y0130314D01*
X0352506Y0130931D01*
X0352506Y0132166D01*
X0351889Y0132783D01*
X0350655Y0132783D01*
X0350038Y0132166D01*
X0350038Y0131548D01*
X0352506Y0131548D01*
X0353721Y0132166D02*
X0353721Y0130314D01*
X0353721Y0132166D02*
X0354338Y0132783D01*
X0356189Y0132783D01*
X0356189Y0130314D01*
X0355572Y0129834D02*
X0355572Y0129217D01*
X0357404Y0129697D02*
X0357404Y0132783D01*
X0359255Y0132783D01*
X0359873Y0132166D01*
X0359873Y0130931D01*
X0359255Y0130314D01*
X0357404Y0130314D01*
X0357404Y0129697D02*
X0358021Y0129080D01*
X0358638Y0129080D01*
X0359873Y0127983D02*
X0359873Y0126131D01*
X0359255Y0125514D01*
X0361087Y0126131D02*
X0361704Y0125514D01*
X0362939Y0125514D01*
X0363556Y0126131D01*
X0363569Y0125077D02*
X0364803Y0125077D01*
X0364186Y0125077D02*
X0364186Y0121374D01*
X0364803Y0121374D02*
X0363569Y0121374D01*
X0362348Y0121374D02*
X0362348Y0125077D01*
X0359879Y0121374D01*
X0361087Y0126131D02*
X0361087Y0126748D01*
X0361704Y0127366D01*
X0362939Y0127366D01*
X0363556Y0127983D01*
X0363556Y0128600D01*
X0362939Y0129217D01*
X0361704Y0129217D01*
X0361087Y0128600D01*
X0361087Y0130314D02*
X0362939Y0130314D01*
X0363556Y0130931D01*
X0362939Y0131548D01*
X0361087Y0131548D01*
X0361087Y0132166D02*
X0361087Y0130314D01*
X0361087Y0132166D02*
X0361704Y0132783D01*
X0362939Y0132783D01*
X0364770Y0134017D02*
X0364770Y0130314D01*
X0367239Y0130314D02*
X0367239Y0134017D01*
X0366005Y0132783D01*
X0364770Y0134017D01*
X0345751Y0134017D02*
X0345751Y0134634D01*
X0317729Y0133147D02*
X0317729Y0129444D01*
X0315260Y0129444D02*
X0315260Y0133147D01*
X0316495Y0131913D01*
X0317729Y0133147D01*
X0313429Y0131913D02*
X0312194Y0131913D01*
X0311577Y0131296D01*
X0311577Y0129444D01*
X0313429Y0129444D01*
X0314046Y0130061D01*
X0313429Y0130678D01*
X0311577Y0130678D01*
X0310363Y0130061D02*
X0309745Y0129444D01*
X0307894Y0129444D01*
X0307894Y0128827D02*
X0307894Y0131913D01*
X0309745Y0131913D01*
X0310363Y0131296D01*
X0310363Y0130061D01*
X0309128Y0128210D02*
X0308511Y0128210D01*
X0307894Y0128827D01*
X0306679Y0129444D02*
X0306679Y0131913D01*
X0304828Y0131913D01*
X0304211Y0131296D01*
X0304211Y0129444D01*
X0302996Y0130061D02*
X0302996Y0131296D01*
X0302379Y0131913D01*
X0301145Y0131913D01*
X0300528Y0131296D01*
X0300528Y0130678D01*
X0302996Y0130678D01*
X0302996Y0130061D02*
X0302379Y0129444D01*
X0301145Y0129444D01*
X0301151Y0127113D02*
X0299300Y0127113D01*
X0298085Y0126496D02*
X0297468Y0127113D01*
X0296234Y0127113D01*
X0295617Y0126496D01*
X0295617Y0124644D01*
X0295986Y0124267D02*
X0295986Y0121181D01*
X0295368Y0120564D01*
X0294134Y0120564D01*
X0293517Y0121181D01*
X0293517Y0124267D01*
X0292302Y0124267D02*
X0289834Y0124267D01*
X0291068Y0124267D02*
X0291068Y0120564D01*
X0291061Y0116416D02*
X0293530Y0116416D01*
X0294758Y0118267D02*
X0294758Y0114564D01*
X0295972Y0116416D02*
X0298441Y0116416D01*
X0297207Y0117650D02*
X0297207Y0115181D01*
X0297817Y0120564D02*
X0297200Y0121181D01*
X0297200Y0123650D01*
X0297817Y0124267D01*
X0299052Y0124267D01*
X0299669Y0123650D01*
X0299669Y0121181D01*
X0299052Y0120564D01*
X0297817Y0120564D01*
X0298085Y0124644D02*
X0298085Y0128347D01*
X0298079Y0129444D02*
X0298696Y0130061D01*
X0298696Y0132530D01*
X0299313Y0131913D02*
X0298079Y0131913D01*
X0296858Y0131913D02*
X0296241Y0131913D01*
X0296241Y0129444D01*
X0296858Y0129444D02*
X0295623Y0129444D01*
X0294402Y0130061D02*
X0293785Y0129444D01*
X0291934Y0129444D01*
X0291934Y0131913D02*
X0293785Y0131913D01*
X0294402Y0131296D01*
X0294402Y0130061D01*
X0296241Y0133147D02*
X0296241Y0133764D01*
X0301151Y0127113D02*
X0301769Y0126496D01*
X0301769Y0125261D01*
X0301151Y0124644D01*
X0299300Y0124644D01*
X0302990Y0124644D02*
X0303607Y0125261D01*
X0303607Y0127730D01*
X0304224Y0127113D02*
X0302990Y0127113D01*
X0306062Y0127113D02*
X0306062Y0124644D01*
X0306679Y0124644D02*
X0305445Y0124644D01*
X0307894Y0125261D02*
X0307894Y0127113D01*
X0306679Y0127113D02*
X0306062Y0127113D01*
X0306062Y0128347D02*
X0306062Y0128964D01*
X0307894Y0125261D02*
X0308511Y0124644D01*
X0309128Y0125261D01*
X0309745Y0124644D01*
X0310363Y0125261D01*
X0310363Y0127113D01*
X0311577Y0127730D02*
X0312194Y0128347D01*
X0313429Y0128347D01*
X0314046Y0127730D01*
X0314046Y0127113D01*
X0313429Y0126496D01*
X0312194Y0126496D01*
X0311577Y0125878D01*
X0311577Y0125261D01*
X0312194Y0124644D01*
X0313429Y0124644D01*
X0314046Y0125261D01*
X0314059Y0124207D02*
X0315293Y0124207D01*
X0314676Y0124207D02*
X0314676Y0120504D01*
X0315293Y0120504D02*
X0314059Y0120504D01*
X0312838Y0120504D02*
X0312838Y0124207D01*
X0310369Y0120504D01*
X0310369Y0124207D01*
X0312838Y0118207D02*
X0312838Y0114504D01*
X0314052Y0116356D02*
X0316521Y0116356D01*
X0315287Y0117590D02*
X0315287Y0115121D01*
X0311610Y0116356D02*
X0309141Y0116356D01*
X0270749Y0129604D02*
X0270749Y0133307D01*
X0269515Y0132073D01*
X0268280Y0133307D01*
X0268280Y0129604D01*
X0267066Y0130221D02*
X0266449Y0130838D01*
X0264597Y0130838D01*
X0264597Y0131456D02*
X0264597Y0129604D01*
X0266449Y0129604D01*
X0267066Y0130221D01*
X0266449Y0128507D02*
X0267066Y0127890D01*
X0267066Y0127273D01*
X0266449Y0126656D01*
X0265214Y0126656D01*
X0264597Y0126038D01*
X0264597Y0125421D01*
X0265214Y0124804D01*
X0266449Y0124804D01*
X0267066Y0125421D01*
X0267079Y0124367D02*
X0268313Y0124367D01*
X0267696Y0124367D02*
X0267696Y0120664D01*
X0268313Y0120664D02*
X0267079Y0120664D01*
X0265858Y0120664D02*
X0265858Y0124367D01*
X0263389Y0120664D01*
X0263389Y0124367D01*
X0262765Y0124804D02*
X0262148Y0125421D01*
X0261531Y0124804D01*
X0260914Y0125421D01*
X0260914Y0127273D01*
X0259699Y0127273D02*
X0259082Y0127273D01*
X0259082Y0124804D01*
X0259699Y0124804D02*
X0258465Y0124804D01*
X0256627Y0125421D02*
X0256010Y0124804D01*
X0256627Y0125421D02*
X0256627Y0127890D01*
X0257244Y0127273D02*
X0256010Y0127273D01*
X0254789Y0126656D02*
X0254789Y0125421D01*
X0254171Y0124804D01*
X0252320Y0124804D01*
X0252072Y0124427D02*
X0252689Y0123810D01*
X0252689Y0121341D01*
X0252072Y0120724D01*
X0250837Y0120724D01*
X0250220Y0121341D01*
X0250220Y0123810D01*
X0250837Y0124427D01*
X0252072Y0124427D01*
X0251105Y0124804D02*
X0251105Y0128507D01*
X0251099Y0129604D02*
X0251716Y0130221D01*
X0251716Y0132690D01*
X0252333Y0132073D02*
X0251099Y0132073D01*
X0249878Y0132073D02*
X0249261Y0132073D01*
X0249261Y0129604D01*
X0249878Y0129604D02*
X0248643Y0129604D01*
X0247422Y0130221D02*
X0246805Y0129604D01*
X0244954Y0129604D01*
X0244954Y0132073D02*
X0246805Y0132073D01*
X0247422Y0131456D01*
X0247422Y0130221D01*
X0249254Y0127273D02*
X0248637Y0126656D01*
X0248637Y0124804D01*
X0249006Y0124427D02*
X0249006Y0121341D01*
X0248388Y0120724D01*
X0247154Y0120724D01*
X0246537Y0121341D01*
X0246537Y0124427D01*
X0245322Y0124427D02*
X0242854Y0124427D01*
X0244088Y0124427D02*
X0244088Y0120724D01*
X0244081Y0116576D02*
X0246550Y0116576D01*
X0247778Y0118427D02*
X0247778Y0114724D01*
X0248992Y0116576D02*
X0251461Y0116576D01*
X0250227Y0117810D02*
X0250227Y0115341D01*
X0251105Y0126656D02*
X0250488Y0127273D01*
X0249254Y0127273D01*
X0252320Y0127273D02*
X0254171Y0127273D01*
X0254789Y0126656D01*
X0255399Y0129604D02*
X0254165Y0129604D01*
X0255399Y0129604D02*
X0256016Y0130221D01*
X0256016Y0131456D01*
X0255399Y0132073D01*
X0254165Y0132073D01*
X0253548Y0131456D01*
X0253548Y0130838D01*
X0256016Y0130838D01*
X0257231Y0131456D02*
X0257231Y0129604D01*
X0257231Y0131456D02*
X0257848Y0132073D01*
X0259699Y0132073D01*
X0259699Y0129604D01*
X0259082Y0129124D02*
X0259082Y0128507D01*
X0260914Y0128987D02*
X0260914Y0132073D01*
X0262765Y0132073D01*
X0263383Y0131456D01*
X0263383Y0130221D01*
X0262765Y0129604D01*
X0260914Y0129604D01*
X0260914Y0128987D02*
X0261531Y0128370D01*
X0262148Y0128370D01*
X0263383Y0127273D02*
X0263383Y0125421D01*
X0262765Y0124804D01*
X0264597Y0127890D02*
X0265214Y0128507D01*
X0266449Y0128507D01*
X0264597Y0131456D02*
X0265214Y0132073D01*
X0266449Y0132073D01*
X0265858Y0118367D02*
X0265858Y0114664D01*
X0267072Y0116516D02*
X0269541Y0116516D01*
X0268307Y0117750D02*
X0268307Y0115281D01*
X0264630Y0116516D02*
X0262161Y0116516D01*
X0249261Y0133307D02*
X0249261Y0133924D01*
X0223639Y0133427D02*
X0223639Y0129724D01*
X0221170Y0129724D02*
X0221170Y0133427D01*
X0222405Y0132193D01*
X0223639Y0133427D01*
X0219956Y0130341D02*
X0219339Y0130958D01*
X0217487Y0130958D01*
X0217487Y0131576D02*
X0217487Y0129724D01*
X0219339Y0129724D01*
X0219956Y0130341D01*
X0219339Y0128627D02*
X0219956Y0128010D01*
X0219956Y0127393D01*
X0219339Y0126776D01*
X0218104Y0126776D01*
X0217487Y0126158D01*
X0217487Y0125541D01*
X0218104Y0124924D01*
X0219339Y0124924D01*
X0219956Y0125541D01*
X0219969Y0124487D02*
X0221203Y0124487D01*
X0220586Y0124487D02*
X0220586Y0120784D01*
X0221203Y0120784D02*
X0219969Y0120784D01*
X0218748Y0120784D02*
X0218748Y0124487D01*
X0216279Y0120784D01*
X0216279Y0124487D01*
X0215655Y0124924D02*
X0215038Y0125541D01*
X0214421Y0124924D01*
X0213804Y0125541D01*
X0213804Y0127393D01*
X0212589Y0127393D02*
X0211972Y0127393D01*
X0211972Y0124924D01*
X0212589Y0124924D02*
X0211355Y0124924D01*
X0209517Y0125541D02*
X0208900Y0124924D01*
X0209517Y0125541D02*
X0209517Y0128010D01*
X0210134Y0127393D02*
X0208900Y0127393D01*
X0207679Y0126776D02*
X0207679Y0125541D01*
X0207061Y0124924D01*
X0205210Y0124924D01*
X0204962Y0124547D02*
X0205579Y0123930D01*
X0205579Y0121461D01*
X0204962Y0120844D01*
X0203727Y0120844D01*
X0203110Y0121461D01*
X0203110Y0123930D01*
X0203727Y0124547D01*
X0204962Y0124547D01*
X0203995Y0124924D02*
X0203995Y0128627D01*
X0203989Y0129724D02*
X0204606Y0130341D01*
X0204606Y0132810D01*
X0205223Y0132193D02*
X0203989Y0132193D01*
X0202768Y0132193D02*
X0202151Y0132193D01*
X0202151Y0129724D01*
X0202768Y0129724D02*
X0201533Y0129724D01*
X0200312Y0130341D02*
X0199695Y0129724D01*
X0197844Y0129724D01*
X0197844Y0132193D02*
X0199695Y0132193D01*
X0200312Y0131576D01*
X0200312Y0130341D01*
X0202144Y0127393D02*
X0201527Y0126776D01*
X0201527Y0124924D01*
X0201896Y0124547D02*
X0201896Y0121461D01*
X0201278Y0120844D01*
X0200044Y0120844D01*
X0199427Y0121461D01*
X0199427Y0124547D01*
X0198212Y0124547D02*
X0195744Y0124547D01*
X0196978Y0124547D02*
X0196978Y0120844D01*
X0196971Y0116696D02*
X0199440Y0116696D01*
X0200668Y0118547D02*
X0200668Y0114844D01*
X0201882Y0116696D02*
X0204351Y0116696D01*
X0203117Y0117930D02*
X0203117Y0115461D01*
X0203995Y0126776D02*
X0203378Y0127393D01*
X0202144Y0127393D01*
X0205210Y0127393D02*
X0207061Y0127393D01*
X0207679Y0126776D01*
X0208289Y0129724D02*
X0207055Y0129724D01*
X0208289Y0129724D02*
X0208906Y0130341D01*
X0208906Y0131576D01*
X0208289Y0132193D01*
X0207055Y0132193D01*
X0206438Y0131576D01*
X0206438Y0130958D01*
X0208906Y0130958D01*
X0210121Y0131576D02*
X0210121Y0129724D01*
X0210121Y0131576D02*
X0210738Y0132193D01*
X0212589Y0132193D01*
X0212589Y0129724D01*
X0211972Y0129244D02*
X0211972Y0128627D01*
X0213804Y0129107D02*
X0213804Y0132193D01*
X0215655Y0132193D01*
X0216273Y0131576D01*
X0216273Y0130341D01*
X0215655Y0129724D01*
X0213804Y0129724D01*
X0213804Y0129107D02*
X0214421Y0128490D01*
X0215038Y0128490D01*
X0216273Y0127393D02*
X0216273Y0125541D01*
X0215655Y0124924D01*
X0217487Y0128010D02*
X0218104Y0128627D01*
X0219339Y0128627D01*
X0217487Y0131576D02*
X0218104Y0132193D01*
X0219339Y0132193D01*
X0218748Y0118487D02*
X0218748Y0114784D01*
X0219962Y0116636D02*
X0222431Y0116636D01*
X0221197Y0117870D02*
X0221197Y0115401D01*
X0217520Y0116636D02*
X0215051Y0116636D01*
X0202151Y0133427D02*
X0202151Y0134044D01*
X0177389Y0132687D02*
X0177389Y0128984D01*
X0174920Y0128984D02*
X0174920Y0132687D01*
X0176155Y0131453D01*
X0177389Y0132687D01*
X0173706Y0129601D02*
X0173089Y0130218D01*
X0171237Y0130218D01*
X0171237Y0130836D02*
X0171237Y0128984D01*
X0173089Y0128984D01*
X0173706Y0129601D01*
X0173089Y0127887D02*
X0173706Y0127270D01*
X0173706Y0126653D01*
X0173089Y0126036D01*
X0171854Y0126036D01*
X0171237Y0125418D01*
X0171237Y0124801D01*
X0171854Y0124184D01*
X0173089Y0124184D01*
X0173706Y0124801D01*
X0173719Y0123747D02*
X0174953Y0123747D01*
X0174336Y0123747D02*
X0174336Y0120044D01*
X0174953Y0120044D02*
X0173719Y0120044D01*
X0172498Y0120044D02*
X0172498Y0123747D01*
X0170029Y0120044D01*
X0170029Y0123747D01*
X0169405Y0124184D02*
X0170023Y0124801D01*
X0170023Y0126653D01*
X0171237Y0127270D02*
X0171854Y0127887D01*
X0173089Y0127887D01*
X0171237Y0130836D02*
X0171854Y0131453D01*
X0173089Y0131453D01*
X0170023Y0130836D02*
X0170023Y0129601D01*
X0169405Y0128984D01*
X0167554Y0128984D01*
X0167554Y0128367D02*
X0167554Y0131453D01*
X0169405Y0131453D01*
X0170023Y0130836D01*
X0168788Y0127750D02*
X0168171Y0127750D01*
X0167554Y0128367D01*
X0166339Y0128984D02*
X0166339Y0131453D01*
X0164488Y0131453D01*
X0163871Y0130836D01*
X0163871Y0128984D01*
X0162656Y0129601D02*
X0162656Y0130836D01*
X0162039Y0131453D01*
X0160805Y0131453D01*
X0160188Y0130836D01*
X0160188Y0130218D01*
X0162656Y0130218D01*
X0162656Y0129601D02*
X0162039Y0128984D01*
X0160805Y0128984D01*
X0160811Y0126653D02*
X0161429Y0126036D01*
X0161429Y0124801D01*
X0160811Y0124184D01*
X0158960Y0124184D01*
X0158712Y0123807D02*
X0159329Y0123190D01*
X0159329Y0120721D01*
X0158712Y0120104D01*
X0157477Y0120104D01*
X0156860Y0120721D01*
X0156860Y0123190D01*
X0157477Y0123807D01*
X0158712Y0123807D01*
X0157745Y0124184D02*
X0157745Y0127887D01*
X0157739Y0128984D02*
X0158356Y0129601D01*
X0158356Y0132070D01*
X0158973Y0131453D02*
X0157739Y0131453D01*
X0156518Y0131453D02*
X0155901Y0131453D01*
X0155901Y0128984D01*
X0156518Y0128984D02*
X0155283Y0128984D01*
X0154062Y0129601D02*
X0153445Y0128984D01*
X0151594Y0128984D01*
X0151594Y0131453D02*
X0153445Y0131453D01*
X0154062Y0130836D01*
X0154062Y0129601D01*
X0155894Y0126653D02*
X0155277Y0126036D01*
X0155277Y0124184D01*
X0155646Y0123807D02*
X0155646Y0120721D01*
X0155028Y0120104D01*
X0153794Y0120104D01*
X0153177Y0120721D01*
X0153177Y0123807D01*
X0151962Y0123807D02*
X0149494Y0123807D01*
X0150728Y0123807D02*
X0150728Y0120104D01*
X0150721Y0115956D02*
X0153190Y0115956D01*
X0154418Y0117807D02*
X0154418Y0114104D01*
X0155632Y0115956D02*
X0158101Y0115956D01*
X0156867Y0117190D02*
X0156867Y0114721D01*
X0162650Y0124184D02*
X0163267Y0124801D01*
X0163267Y0127270D01*
X0163884Y0126653D02*
X0162650Y0126653D01*
X0160811Y0126653D02*
X0158960Y0126653D01*
X0157745Y0126036D02*
X0157128Y0126653D01*
X0155894Y0126653D01*
X0155901Y0132687D02*
X0155901Y0133304D01*
X0165722Y0128504D02*
X0165722Y0127887D01*
X0165722Y0126653D02*
X0165722Y0124184D01*
X0166339Y0124184D02*
X0165105Y0124184D01*
X0167554Y0124801D02*
X0167554Y0126653D01*
X0166339Y0126653D02*
X0165722Y0126653D01*
X0167554Y0124801D02*
X0168171Y0124184D01*
X0168788Y0124801D01*
X0169405Y0124184D01*
X0172498Y0117747D02*
X0172498Y0114044D01*
X0173712Y0115896D02*
X0176181Y0115896D01*
X0174947Y0117130D02*
X0174947Y0114661D01*
X0171270Y0115896D02*
X0168801Y0115896D01*
X0131069Y0128514D02*
X0131069Y0132217D01*
X0129835Y0130983D01*
X0128600Y0132217D01*
X0128600Y0128514D01*
X0127386Y0129131D02*
X0126769Y0129748D01*
X0124917Y0129748D01*
X0124917Y0130366D02*
X0124917Y0128514D01*
X0126769Y0128514D01*
X0127386Y0129131D01*
X0126769Y0127417D02*
X0127386Y0126800D01*
X0127386Y0126183D01*
X0126769Y0125566D01*
X0125534Y0125566D01*
X0124917Y0124948D01*
X0124917Y0124331D01*
X0125534Y0123714D01*
X0126769Y0123714D01*
X0127386Y0124331D01*
X0127399Y0123277D02*
X0128633Y0123277D01*
X0128016Y0123277D02*
X0128016Y0119574D01*
X0128633Y0119574D02*
X0127399Y0119574D01*
X0126178Y0119574D02*
X0126178Y0123277D01*
X0123709Y0119574D01*
X0123709Y0123277D01*
X0123085Y0123714D02*
X0123703Y0124331D01*
X0123703Y0126183D01*
X0124917Y0126800D02*
X0125534Y0127417D01*
X0126769Y0127417D01*
X0124917Y0130366D02*
X0125534Y0130983D01*
X0126769Y0130983D01*
X0123703Y0130366D02*
X0123703Y0129131D01*
X0123085Y0128514D01*
X0121234Y0128514D01*
X0121234Y0127897D02*
X0121234Y0130983D01*
X0123085Y0130983D01*
X0123703Y0130366D01*
X0122468Y0127280D02*
X0121851Y0127280D01*
X0121234Y0127897D01*
X0120019Y0128514D02*
X0120019Y0130983D01*
X0118168Y0130983D01*
X0117551Y0130366D01*
X0117551Y0128514D01*
X0116336Y0129131D02*
X0116336Y0130366D01*
X0115719Y0130983D01*
X0114485Y0130983D01*
X0113868Y0130366D01*
X0113868Y0129748D01*
X0116336Y0129748D01*
X0116336Y0129131D02*
X0115719Y0128514D01*
X0114485Y0128514D01*
X0114491Y0126183D02*
X0115109Y0125566D01*
X0115109Y0124331D01*
X0114491Y0123714D01*
X0112640Y0123714D01*
X0112392Y0123337D02*
X0113009Y0122720D01*
X0113009Y0120251D01*
X0112392Y0119634D01*
X0111157Y0119634D01*
X0110540Y0120251D01*
X0110540Y0122720D01*
X0111157Y0123337D01*
X0112392Y0123337D01*
X0111425Y0123714D02*
X0111425Y0127417D01*
X0111419Y0128514D02*
X0112036Y0129131D01*
X0112036Y0131600D01*
X0112653Y0130983D02*
X0111419Y0130983D01*
X0110198Y0130983D02*
X0109581Y0130983D01*
X0109581Y0128514D01*
X0110198Y0128514D02*
X0108963Y0128514D01*
X0107742Y0129131D02*
X0107125Y0128514D01*
X0105274Y0128514D01*
X0105274Y0130983D02*
X0107125Y0130983D01*
X0107742Y0130366D01*
X0107742Y0129131D01*
X0109574Y0126183D02*
X0108957Y0125566D01*
X0108957Y0123714D01*
X0109326Y0123337D02*
X0109326Y0120251D01*
X0108708Y0119634D01*
X0107474Y0119634D01*
X0106857Y0120251D01*
X0106857Y0123337D01*
X0105642Y0123337D02*
X0103174Y0123337D01*
X0104408Y0123337D02*
X0104408Y0119634D01*
X0104401Y0115486D02*
X0106870Y0115486D01*
X0108098Y0117337D02*
X0108098Y0113634D01*
X0109312Y0115486D02*
X0111781Y0115486D01*
X0110547Y0116720D02*
X0110547Y0114251D01*
X0116330Y0123714D02*
X0116947Y0124331D01*
X0116947Y0126800D01*
X0117564Y0126183D02*
X0116330Y0126183D01*
X0114491Y0126183D02*
X0112640Y0126183D01*
X0111425Y0125566D02*
X0110808Y0126183D01*
X0109574Y0126183D01*
X0109581Y0132217D02*
X0109581Y0132834D01*
X0119402Y0128034D02*
X0119402Y0127417D01*
X0119402Y0126183D02*
X0119402Y0123714D01*
X0120019Y0123714D02*
X0118785Y0123714D01*
X0121234Y0124331D02*
X0121234Y0126183D01*
X0120019Y0126183D02*
X0119402Y0126183D01*
X0121234Y0124331D02*
X0121851Y0123714D01*
X0122468Y0124331D01*
X0123085Y0123714D01*
X0126178Y0117277D02*
X0126178Y0113574D01*
X0127392Y0115426D02*
X0129861Y0115426D01*
X0128627Y0116660D02*
X0128627Y0114191D01*
X0124950Y0115426D02*
X0122481Y0115426D01*
X0085309Y0128894D02*
X0085309Y0132597D01*
X0084075Y0131363D01*
X0082840Y0132597D01*
X0082840Y0128894D01*
X0081626Y0129511D02*
X0081009Y0130128D01*
X0079157Y0130128D01*
X0079157Y0130746D02*
X0079157Y0128894D01*
X0081009Y0128894D01*
X0081626Y0129511D01*
X0081009Y0127797D02*
X0079774Y0127797D01*
X0079157Y0127180D01*
X0077943Y0126563D02*
X0077943Y0124711D01*
X0077325Y0124094D01*
X0076708Y0124711D01*
X0076091Y0124094D01*
X0075474Y0124711D01*
X0075474Y0126563D01*
X0074259Y0126563D02*
X0073642Y0126563D01*
X0073642Y0124094D01*
X0074259Y0124094D02*
X0073025Y0124094D01*
X0071187Y0124711D02*
X0070570Y0124094D01*
X0071187Y0124711D02*
X0071187Y0127180D01*
X0071804Y0126563D02*
X0070570Y0126563D01*
X0069349Y0125946D02*
X0069349Y0124711D01*
X0068731Y0124094D01*
X0066880Y0124094D01*
X0066632Y0123717D02*
X0067249Y0123100D01*
X0067249Y0120631D01*
X0066632Y0120014D01*
X0065397Y0120014D01*
X0064780Y0120631D01*
X0064780Y0123100D01*
X0065397Y0123717D01*
X0066632Y0123717D01*
X0065665Y0124094D02*
X0065665Y0127797D01*
X0065659Y0128894D02*
X0066276Y0129511D01*
X0066276Y0131980D01*
X0066893Y0131363D02*
X0065659Y0131363D01*
X0064438Y0131363D02*
X0063821Y0131363D01*
X0063821Y0128894D01*
X0064438Y0128894D02*
X0063203Y0128894D01*
X0061982Y0129511D02*
X0061365Y0128894D01*
X0059514Y0128894D01*
X0059514Y0131363D02*
X0061365Y0131363D01*
X0061982Y0130746D01*
X0061982Y0129511D01*
X0063814Y0126563D02*
X0063197Y0125946D01*
X0063197Y0124094D01*
X0063566Y0123717D02*
X0063566Y0120631D01*
X0062948Y0120014D01*
X0061714Y0120014D01*
X0061097Y0120631D01*
X0061097Y0123717D01*
X0059882Y0123717D02*
X0057414Y0123717D01*
X0058648Y0123717D02*
X0058648Y0120014D01*
X0058641Y0115866D02*
X0061110Y0115866D01*
X0062338Y0117717D02*
X0062338Y0114014D01*
X0063552Y0115866D02*
X0066021Y0115866D01*
X0064787Y0117100D02*
X0064787Y0114631D01*
X0076721Y0115806D02*
X0079190Y0115806D01*
X0080418Y0117657D02*
X0080418Y0113954D01*
X0081632Y0115806D02*
X0084101Y0115806D01*
X0082867Y0117040D02*
X0082867Y0114571D01*
X0082873Y0119954D02*
X0081639Y0119954D01*
X0082256Y0119954D02*
X0082256Y0123657D01*
X0082873Y0123657D02*
X0081639Y0123657D01*
X0081009Y0124094D02*
X0081626Y0124711D01*
X0081009Y0124094D02*
X0079774Y0124094D01*
X0079157Y0124711D01*
X0079157Y0125328D01*
X0079774Y0125946D01*
X0081009Y0125946D01*
X0081626Y0126563D01*
X0081626Y0127180D01*
X0081009Y0127797D01*
X0079157Y0130746D02*
X0079774Y0131363D01*
X0081009Y0131363D01*
X0077943Y0130746D02*
X0077943Y0129511D01*
X0077325Y0128894D01*
X0075474Y0128894D01*
X0075474Y0128277D02*
X0075474Y0131363D01*
X0077325Y0131363D01*
X0077943Y0130746D01*
X0076708Y0127660D02*
X0076091Y0127660D01*
X0075474Y0128277D01*
X0074259Y0128894D02*
X0074259Y0131363D01*
X0072408Y0131363D01*
X0071791Y0130746D01*
X0071791Y0128894D01*
X0070576Y0129511D02*
X0070576Y0130746D01*
X0069959Y0131363D01*
X0068725Y0131363D01*
X0068108Y0130746D01*
X0068108Y0130128D01*
X0070576Y0130128D01*
X0070576Y0129511D02*
X0069959Y0128894D01*
X0068725Y0128894D01*
X0068731Y0126563D02*
X0069349Y0125946D01*
X0068731Y0126563D02*
X0066880Y0126563D01*
X0065665Y0125946D02*
X0065048Y0126563D01*
X0063814Y0126563D01*
X0063821Y0132597D02*
X0063821Y0133214D01*
X0073642Y0128414D02*
X0073642Y0127797D01*
X0077949Y0123657D02*
X0077949Y0119954D01*
X0080418Y0123657D01*
X0080418Y0119954D01*
X0040829Y0129054D02*
X0040829Y0132757D01*
X0039595Y0131523D01*
X0038360Y0132757D01*
X0038360Y0129054D01*
X0037146Y0129671D02*
X0036529Y0130288D01*
X0034677Y0130288D01*
X0034677Y0130906D02*
X0034677Y0129054D01*
X0036529Y0129054D01*
X0037146Y0129671D01*
X0036529Y0127957D02*
X0037146Y0127340D01*
X0037146Y0126723D01*
X0036529Y0126106D01*
X0035294Y0126106D01*
X0034677Y0125488D01*
X0034677Y0124871D01*
X0035294Y0124254D01*
X0036529Y0124254D01*
X0037146Y0124871D01*
X0037159Y0123817D02*
X0038393Y0123817D01*
X0037776Y0123817D02*
X0037776Y0120114D01*
X0038393Y0120114D02*
X0037159Y0120114D01*
X0035938Y0120114D02*
X0035938Y0123817D01*
X0033469Y0120114D01*
X0033469Y0123817D01*
X0032845Y0124254D02*
X0032228Y0124871D01*
X0031611Y0124254D01*
X0030994Y0124871D01*
X0030994Y0126723D01*
X0029779Y0126723D02*
X0029162Y0126723D01*
X0029162Y0124254D01*
X0029779Y0124254D02*
X0028545Y0124254D01*
X0026707Y0124871D02*
X0026707Y0127340D01*
X0027324Y0126723D02*
X0026090Y0126723D01*
X0024869Y0126106D02*
X0024869Y0124871D01*
X0024251Y0124254D01*
X0022400Y0124254D01*
X0022152Y0123877D02*
X0022769Y0123260D01*
X0022769Y0120791D01*
X0022152Y0120174D01*
X0020917Y0120174D01*
X0020300Y0120791D01*
X0020300Y0123260D01*
X0020917Y0123877D01*
X0022152Y0123877D01*
X0021185Y0124254D02*
X0021185Y0127957D01*
X0021179Y0129054D02*
X0021796Y0129671D01*
X0021796Y0132140D01*
X0022413Y0131523D02*
X0021179Y0131523D01*
X0019958Y0131523D02*
X0019341Y0131523D01*
X0019341Y0129054D01*
X0019958Y0129054D02*
X0018723Y0129054D01*
X0017502Y0129671D02*
X0016885Y0129054D01*
X0015034Y0129054D01*
X0015034Y0131523D02*
X0016885Y0131523D01*
X0017502Y0130906D01*
X0017502Y0129671D01*
X0019334Y0126723D02*
X0018717Y0126106D01*
X0018717Y0124254D01*
X0019086Y0123877D02*
X0019086Y0120791D01*
X0018468Y0120174D01*
X0017234Y0120174D01*
X0016617Y0120791D01*
X0016617Y0123877D01*
X0015402Y0123877D02*
X0012934Y0123877D01*
X0014168Y0123877D02*
X0014168Y0120174D01*
X0014161Y0116026D02*
X0016630Y0116026D01*
X0017858Y0117877D02*
X0017858Y0114174D01*
X0019072Y0116026D02*
X0021541Y0116026D01*
X0020307Y0117260D02*
X0020307Y0114791D01*
X0026090Y0124254D02*
X0026707Y0124871D01*
X0024869Y0126106D02*
X0024251Y0126723D01*
X0022400Y0126723D01*
X0021185Y0126106D02*
X0020568Y0126723D01*
X0019334Y0126723D01*
X0024245Y0129054D02*
X0025479Y0129054D01*
X0026096Y0129671D01*
X0026096Y0130906D01*
X0025479Y0131523D01*
X0024245Y0131523D01*
X0023628Y0130906D01*
X0023628Y0130288D01*
X0026096Y0130288D01*
X0027311Y0130906D02*
X0027311Y0129054D01*
X0027311Y0130906D02*
X0027928Y0131523D01*
X0029779Y0131523D01*
X0029779Y0129054D01*
X0029162Y0128574D02*
X0029162Y0127957D01*
X0030994Y0128437D02*
X0030994Y0131523D01*
X0032845Y0131523D01*
X0033463Y0130906D01*
X0033463Y0129671D01*
X0032845Y0129054D01*
X0030994Y0129054D01*
X0030994Y0128437D02*
X0031611Y0127820D01*
X0032228Y0127820D01*
X0033463Y0126723D02*
X0033463Y0124871D01*
X0032845Y0124254D01*
X0034677Y0127340D02*
X0035294Y0127957D01*
X0036529Y0127957D01*
X0034677Y0130906D02*
X0035294Y0131523D01*
X0036529Y0131523D01*
X0035938Y0117817D02*
X0035938Y0114114D01*
X0037152Y0115966D02*
X0039621Y0115966D01*
X0038387Y0117200D02*
X0038387Y0114731D01*
X0034710Y0115966D02*
X0032241Y0115966D01*
X0019341Y0132757D02*
X0019341Y0133374D01*
X0017788Y0158234D02*
X0017788Y0161937D01*
X0019002Y0160086D02*
X0021471Y0160086D01*
X0020237Y0161320D02*
X0020237Y0158851D01*
X0016560Y0160086D02*
X0014091Y0160086D01*
X0014098Y0164234D02*
X0014098Y0167937D01*
X0015332Y0167937D02*
X0012864Y0167937D01*
X0016547Y0167937D02*
X0016547Y0164851D01*
X0017164Y0164234D01*
X0018398Y0164234D01*
X0019016Y0164851D01*
X0019016Y0167937D01*
X0018647Y0168314D02*
X0018647Y0170166D01*
X0019264Y0170783D01*
X0020498Y0170783D01*
X0021115Y0170166D01*
X0022330Y0170783D02*
X0024181Y0170783D01*
X0024799Y0170166D01*
X0024799Y0168931D01*
X0024181Y0168314D01*
X0022330Y0168314D01*
X0022082Y0167937D02*
X0022699Y0167320D01*
X0022699Y0164851D01*
X0022082Y0164234D01*
X0020847Y0164234D01*
X0020230Y0164851D01*
X0020230Y0167320D01*
X0020847Y0167937D01*
X0022082Y0167937D01*
X0021115Y0168314D02*
X0021115Y0172017D01*
X0021109Y0173114D02*
X0021726Y0173731D01*
X0021726Y0176200D01*
X0022343Y0175583D02*
X0021109Y0175583D01*
X0019888Y0175583D02*
X0019271Y0175583D01*
X0019271Y0173114D01*
X0019888Y0173114D02*
X0018653Y0173114D01*
X0017432Y0173731D02*
X0016815Y0173114D01*
X0014964Y0173114D01*
X0014964Y0175583D02*
X0016815Y0175583D01*
X0017432Y0174966D01*
X0017432Y0173731D01*
X0019271Y0176817D02*
X0019271Y0177434D01*
X0023558Y0174966D02*
X0023558Y0174348D01*
X0026026Y0174348D01*
X0026026Y0173731D02*
X0026026Y0174966D01*
X0025409Y0175583D01*
X0024175Y0175583D01*
X0023558Y0174966D01*
X0024175Y0173114D02*
X0025409Y0173114D01*
X0026026Y0173731D01*
X0027241Y0173114D02*
X0027241Y0174966D01*
X0027858Y0175583D01*
X0029709Y0175583D01*
X0029709Y0173114D01*
X0029092Y0172634D02*
X0029092Y0172017D01*
X0029092Y0170783D02*
X0029092Y0168314D01*
X0029709Y0168314D02*
X0028475Y0168314D01*
X0026637Y0168931D02*
X0026637Y0171400D01*
X0027254Y0170783D02*
X0026020Y0170783D01*
X0026637Y0168931D02*
X0026020Y0168314D01*
X0029092Y0170783D02*
X0029709Y0170783D01*
X0030924Y0170783D02*
X0030924Y0168931D01*
X0031541Y0168314D01*
X0032158Y0168931D01*
X0032775Y0168314D01*
X0033393Y0168931D01*
X0033393Y0170783D01*
X0034607Y0171400D02*
X0035224Y0172017D01*
X0036459Y0172017D01*
X0037076Y0171400D01*
X0037076Y0170783D01*
X0036459Y0170166D01*
X0035224Y0170166D01*
X0034607Y0169548D01*
X0034607Y0168931D01*
X0035224Y0168314D01*
X0036459Y0168314D01*
X0037076Y0168931D01*
X0037089Y0167877D02*
X0038323Y0167877D01*
X0037706Y0167877D02*
X0037706Y0164174D01*
X0038323Y0164174D02*
X0037089Y0164174D01*
X0035868Y0164174D02*
X0035868Y0167877D01*
X0033399Y0164174D01*
X0033399Y0167877D01*
X0032158Y0171880D02*
X0031541Y0171880D01*
X0030924Y0172497D01*
X0030924Y0175583D01*
X0032775Y0175583D01*
X0033393Y0174966D01*
X0033393Y0173731D01*
X0032775Y0173114D01*
X0030924Y0173114D01*
X0034607Y0173114D02*
X0036459Y0173114D01*
X0037076Y0173731D01*
X0036459Y0174348D01*
X0034607Y0174348D01*
X0034607Y0174966D02*
X0034607Y0173114D01*
X0034607Y0174966D02*
X0035224Y0175583D01*
X0036459Y0175583D01*
X0038290Y0176817D02*
X0038290Y0173114D01*
X0040759Y0173114D02*
X0040759Y0176817D01*
X0039525Y0175583D01*
X0038290Y0176817D01*
X0035868Y0161877D02*
X0035868Y0158174D01*
X0037082Y0160026D02*
X0039551Y0160026D01*
X0038317Y0161260D02*
X0038317Y0158791D01*
X0034640Y0160026D02*
X0032171Y0160026D01*
X0057344Y0167777D02*
X0059812Y0167777D01*
X0061027Y0167777D02*
X0061027Y0164691D01*
X0061644Y0164074D01*
X0062878Y0164074D01*
X0063496Y0164691D01*
X0063496Y0167777D01*
X0063127Y0168154D02*
X0063127Y0170006D01*
X0063744Y0170623D01*
X0064978Y0170623D01*
X0065595Y0170006D01*
X0066810Y0170623D02*
X0068661Y0170623D01*
X0069279Y0170006D01*
X0069279Y0168771D01*
X0068661Y0168154D01*
X0066810Y0168154D01*
X0066562Y0167777D02*
X0067179Y0167160D01*
X0067179Y0164691D01*
X0066562Y0164074D01*
X0065327Y0164074D01*
X0064710Y0164691D01*
X0064710Y0167160D01*
X0065327Y0167777D01*
X0066562Y0167777D01*
X0065595Y0168154D02*
X0065595Y0171857D01*
X0065589Y0172954D02*
X0066206Y0173571D01*
X0066206Y0176040D01*
X0066823Y0175423D02*
X0065589Y0175423D01*
X0064368Y0175423D02*
X0063751Y0175423D01*
X0063751Y0172954D01*
X0064368Y0172954D02*
X0063133Y0172954D01*
X0061912Y0173571D02*
X0061295Y0172954D01*
X0059444Y0172954D01*
X0059444Y0175423D02*
X0061295Y0175423D01*
X0061912Y0174806D01*
X0061912Y0173571D01*
X0063751Y0176657D02*
X0063751Y0177274D01*
X0068038Y0174806D02*
X0068038Y0174188D01*
X0070506Y0174188D01*
X0070506Y0173571D02*
X0070506Y0174806D01*
X0069889Y0175423D01*
X0068655Y0175423D01*
X0068038Y0174806D01*
X0068655Y0172954D02*
X0069889Y0172954D01*
X0070506Y0173571D01*
X0071721Y0172954D02*
X0071721Y0174806D01*
X0072338Y0175423D01*
X0074189Y0175423D01*
X0074189Y0172954D01*
X0073572Y0172474D02*
X0073572Y0171857D01*
X0073572Y0170623D02*
X0073572Y0168154D01*
X0074189Y0168154D02*
X0072955Y0168154D01*
X0071117Y0168771D02*
X0070500Y0168154D01*
X0071117Y0168771D02*
X0071117Y0171240D01*
X0071734Y0170623D02*
X0070500Y0170623D01*
X0073572Y0170623D02*
X0074189Y0170623D01*
X0075404Y0170623D02*
X0075404Y0168771D01*
X0076021Y0168154D01*
X0076638Y0168771D01*
X0077255Y0168154D01*
X0077873Y0168771D01*
X0077873Y0170623D01*
X0079087Y0171240D02*
X0079704Y0171857D01*
X0080939Y0171857D01*
X0081556Y0171240D01*
X0081556Y0170623D01*
X0080939Y0170006D01*
X0079704Y0170006D01*
X0079087Y0169388D01*
X0079087Y0168771D01*
X0079704Y0168154D01*
X0080939Y0168154D01*
X0081556Y0168771D01*
X0081569Y0167717D02*
X0082803Y0167717D01*
X0082186Y0167717D02*
X0082186Y0164014D01*
X0082803Y0164014D02*
X0081569Y0164014D01*
X0080348Y0164014D02*
X0080348Y0167717D01*
X0077879Y0164014D01*
X0077879Y0167717D01*
X0076638Y0171720D02*
X0076021Y0171720D01*
X0075404Y0172337D01*
X0075404Y0175423D01*
X0077255Y0175423D01*
X0077873Y0174806D01*
X0077873Y0173571D01*
X0077255Y0172954D01*
X0075404Y0172954D01*
X0079087Y0172954D02*
X0080939Y0172954D01*
X0081556Y0173571D01*
X0080939Y0174188D01*
X0079087Y0174188D01*
X0079087Y0174806D02*
X0079087Y0172954D01*
X0079087Y0174806D02*
X0079704Y0175423D01*
X0080939Y0175423D01*
X0082770Y0176657D02*
X0082770Y0172954D01*
X0085239Y0172954D02*
X0085239Y0176657D01*
X0084005Y0175423D01*
X0082770Y0176657D01*
X0080348Y0161717D02*
X0080348Y0158014D01*
X0081562Y0159866D02*
X0084031Y0159866D01*
X0082797Y0161100D02*
X0082797Y0158631D01*
X0079120Y0159866D02*
X0076651Y0159866D01*
X0065951Y0159926D02*
X0063482Y0159926D01*
X0064717Y0161160D02*
X0064717Y0158691D01*
X0062268Y0158074D02*
X0062268Y0161777D01*
X0061040Y0159926D02*
X0058571Y0159926D01*
X0058578Y0164074D02*
X0058578Y0167777D01*
X0062088Y0204814D02*
X0062088Y0208517D01*
X0063302Y0206666D02*
X0065771Y0206666D01*
X0064537Y0207900D02*
X0064537Y0205431D01*
X0060860Y0206666D02*
X0058391Y0206666D01*
X0058398Y0210814D02*
X0058398Y0214517D01*
X0059632Y0214517D02*
X0057164Y0214517D01*
X0060847Y0214517D02*
X0060847Y0211431D01*
X0061464Y0210814D01*
X0062698Y0210814D01*
X0063316Y0211431D01*
X0063316Y0214517D01*
X0062947Y0214894D02*
X0062947Y0216746D01*
X0063564Y0217363D01*
X0064798Y0217363D01*
X0065415Y0216746D01*
X0066630Y0217363D02*
X0068481Y0217363D01*
X0069099Y0216746D01*
X0069099Y0215511D01*
X0068481Y0214894D01*
X0066630Y0214894D01*
X0066382Y0214517D02*
X0066999Y0213900D01*
X0066999Y0211431D01*
X0066382Y0210814D01*
X0065147Y0210814D01*
X0064530Y0211431D01*
X0064530Y0213900D01*
X0065147Y0214517D01*
X0066382Y0214517D01*
X0065415Y0214894D02*
X0065415Y0218597D01*
X0065409Y0219694D02*
X0066026Y0220311D01*
X0066026Y0222780D01*
X0066643Y0222163D02*
X0065409Y0222163D01*
X0064188Y0222163D02*
X0063571Y0222163D01*
X0063571Y0219694D01*
X0064188Y0219694D02*
X0062953Y0219694D01*
X0061732Y0220311D02*
X0061115Y0219694D01*
X0059264Y0219694D01*
X0059264Y0222163D02*
X0061115Y0222163D01*
X0061732Y0221546D01*
X0061732Y0220311D01*
X0063571Y0223397D02*
X0063571Y0224014D01*
X0067858Y0221546D02*
X0067858Y0220928D01*
X0070326Y0220928D01*
X0070326Y0220311D02*
X0070326Y0221546D01*
X0069709Y0222163D01*
X0068475Y0222163D01*
X0067858Y0221546D01*
X0068475Y0219694D02*
X0069709Y0219694D01*
X0070326Y0220311D01*
X0071541Y0219694D02*
X0071541Y0221546D01*
X0072158Y0222163D01*
X0074009Y0222163D01*
X0074009Y0219694D01*
X0073392Y0219214D02*
X0073392Y0218597D01*
X0073392Y0217363D02*
X0073392Y0214894D01*
X0074009Y0214894D02*
X0072775Y0214894D01*
X0070937Y0215511D02*
X0070320Y0214894D01*
X0070937Y0215511D02*
X0070937Y0217980D01*
X0071554Y0217363D02*
X0070320Y0217363D01*
X0073392Y0217363D02*
X0074009Y0217363D01*
X0075224Y0217363D02*
X0075224Y0215511D01*
X0075841Y0214894D01*
X0076458Y0215511D01*
X0077075Y0214894D01*
X0077693Y0215511D01*
X0077693Y0217363D01*
X0078907Y0217980D02*
X0079524Y0218597D01*
X0080759Y0218597D01*
X0081376Y0217980D01*
X0081376Y0217363D01*
X0080759Y0216746D01*
X0079524Y0216746D01*
X0078907Y0216128D01*
X0078907Y0215511D01*
X0079524Y0214894D01*
X0080759Y0214894D01*
X0081376Y0215511D01*
X0081389Y0214457D02*
X0082623Y0214457D01*
X0082006Y0214457D02*
X0082006Y0210754D01*
X0082623Y0210754D02*
X0081389Y0210754D01*
X0080168Y0210754D02*
X0080168Y0214457D01*
X0077699Y0210754D01*
X0077699Y0214457D01*
X0076458Y0218460D02*
X0075841Y0218460D01*
X0075224Y0219077D01*
X0075224Y0222163D01*
X0077075Y0222163D01*
X0077693Y0221546D01*
X0077693Y0220311D01*
X0077075Y0219694D01*
X0075224Y0219694D01*
X0078907Y0219694D02*
X0080759Y0219694D01*
X0081376Y0220311D01*
X0080759Y0220928D01*
X0078907Y0220928D01*
X0078907Y0221546D02*
X0078907Y0219694D01*
X0078907Y0221546D02*
X0079524Y0222163D01*
X0080759Y0222163D01*
X0082590Y0223397D02*
X0082590Y0219694D01*
X0085059Y0219694D02*
X0085059Y0223397D01*
X0083825Y0222163D01*
X0082590Y0223397D01*
X0080168Y0208457D02*
X0080168Y0204754D01*
X0081382Y0206606D02*
X0083851Y0206606D01*
X0082617Y0207840D02*
X0082617Y0205371D01*
X0078940Y0206606D02*
X0076471Y0206606D01*
X0102924Y0214137D02*
X0105392Y0214137D01*
X0106607Y0214137D02*
X0106607Y0211051D01*
X0107224Y0210434D01*
X0108458Y0210434D01*
X0109076Y0211051D01*
X0109076Y0214137D01*
X0108707Y0214514D02*
X0108707Y0216366D01*
X0109324Y0216983D01*
X0110558Y0216983D01*
X0111175Y0216366D01*
X0112390Y0216983D02*
X0114241Y0216983D01*
X0114859Y0216366D01*
X0114859Y0215131D01*
X0114241Y0214514D01*
X0112390Y0214514D01*
X0112142Y0214137D02*
X0112759Y0213520D01*
X0112759Y0211051D01*
X0112142Y0210434D01*
X0110907Y0210434D01*
X0110290Y0211051D01*
X0110290Y0213520D01*
X0110907Y0214137D01*
X0112142Y0214137D01*
X0111175Y0214514D02*
X0111175Y0218217D01*
X0111169Y0219314D02*
X0111786Y0219931D01*
X0111786Y0222400D01*
X0112403Y0221783D02*
X0111169Y0221783D01*
X0109948Y0221783D02*
X0109331Y0221783D01*
X0109331Y0219314D01*
X0109948Y0219314D02*
X0108713Y0219314D01*
X0107492Y0219931D02*
X0106875Y0219314D01*
X0105024Y0219314D01*
X0105024Y0221783D02*
X0106875Y0221783D01*
X0107492Y0221166D01*
X0107492Y0219931D01*
X0109331Y0223017D02*
X0109331Y0223634D01*
X0113618Y0221166D02*
X0113618Y0220548D01*
X0116086Y0220548D01*
X0116086Y0219931D02*
X0116086Y0221166D01*
X0115469Y0221783D01*
X0114235Y0221783D01*
X0113618Y0221166D01*
X0114235Y0219314D02*
X0115469Y0219314D01*
X0116086Y0219931D01*
X0117301Y0219314D02*
X0117301Y0221166D01*
X0117918Y0221783D01*
X0119769Y0221783D01*
X0119769Y0219314D01*
X0119152Y0218834D02*
X0119152Y0218217D01*
X0119152Y0216983D02*
X0119152Y0214514D01*
X0119769Y0214514D02*
X0118535Y0214514D01*
X0116697Y0215131D02*
X0116080Y0214514D01*
X0116697Y0215131D02*
X0116697Y0217600D01*
X0117314Y0216983D02*
X0116080Y0216983D01*
X0119152Y0216983D02*
X0119769Y0216983D01*
X0120984Y0216983D02*
X0120984Y0215131D01*
X0121601Y0214514D01*
X0122218Y0215131D01*
X0122835Y0214514D01*
X0123453Y0215131D01*
X0123453Y0216983D01*
X0124667Y0217600D02*
X0125284Y0218217D01*
X0126519Y0218217D01*
X0127136Y0217600D01*
X0127136Y0216983D01*
X0126519Y0216366D01*
X0125284Y0216366D01*
X0124667Y0215748D01*
X0124667Y0215131D01*
X0125284Y0214514D01*
X0126519Y0214514D01*
X0127136Y0215131D01*
X0127149Y0214077D02*
X0128383Y0214077D01*
X0127766Y0214077D02*
X0127766Y0210374D01*
X0128383Y0210374D02*
X0127149Y0210374D01*
X0125928Y0210374D02*
X0125928Y0214077D01*
X0123459Y0210374D01*
X0123459Y0214077D01*
X0122218Y0218080D02*
X0121601Y0218080D01*
X0120984Y0218697D01*
X0120984Y0221783D01*
X0122835Y0221783D01*
X0123453Y0221166D01*
X0123453Y0219931D01*
X0122835Y0219314D01*
X0120984Y0219314D01*
X0124667Y0219314D02*
X0124667Y0221166D01*
X0125284Y0221783D01*
X0126519Y0221783D01*
X0126519Y0220548D02*
X0124667Y0220548D01*
X0124667Y0219314D02*
X0126519Y0219314D01*
X0127136Y0219931D01*
X0126519Y0220548D01*
X0128350Y0219314D02*
X0128350Y0223017D01*
X0129585Y0221783D01*
X0130819Y0223017D01*
X0130819Y0219314D01*
X0128377Y0207460D02*
X0128377Y0204991D01*
X0129611Y0206226D02*
X0127142Y0206226D01*
X0125928Y0208077D02*
X0125928Y0204374D01*
X0124700Y0206226D02*
X0122231Y0206226D01*
X0111531Y0206286D02*
X0109062Y0206286D01*
X0110297Y0207520D02*
X0110297Y0205051D01*
X0107848Y0204434D02*
X0107848Y0208137D01*
X0106620Y0206286D02*
X0104151Y0206286D01*
X0104158Y0210434D02*
X0104158Y0214137D01*
X0107778Y0248494D02*
X0107778Y0252197D01*
X0108992Y0250346D02*
X0111461Y0250346D01*
X0110227Y0251580D02*
X0110227Y0249111D01*
X0106550Y0250346D02*
X0104081Y0250346D01*
X0104088Y0254494D02*
X0104088Y0258197D01*
X0105322Y0258197D02*
X0102854Y0258197D01*
X0106537Y0258197D02*
X0106537Y0255111D01*
X0107154Y0254494D01*
X0108388Y0254494D01*
X0109006Y0255111D01*
X0109006Y0258197D01*
X0108637Y0258574D02*
X0108637Y0260426D01*
X0109254Y0261043D01*
X0110488Y0261043D01*
X0111105Y0260426D01*
X0112320Y0261043D02*
X0114171Y0261043D01*
X0114789Y0260426D01*
X0114789Y0259191D01*
X0114171Y0258574D01*
X0112320Y0258574D01*
X0112072Y0258197D02*
X0112689Y0257580D01*
X0112689Y0255111D01*
X0112072Y0254494D01*
X0110837Y0254494D01*
X0110220Y0255111D01*
X0110220Y0257580D01*
X0110837Y0258197D01*
X0112072Y0258197D01*
X0111105Y0258574D02*
X0111105Y0262277D01*
X0111099Y0263374D02*
X0111716Y0263991D01*
X0111716Y0266460D01*
X0112333Y0265843D02*
X0111099Y0265843D01*
X0109878Y0265843D02*
X0109261Y0265843D01*
X0109261Y0263374D01*
X0109878Y0263374D02*
X0108643Y0263374D01*
X0107422Y0263991D02*
X0106805Y0263374D01*
X0104954Y0263374D01*
X0104954Y0265843D02*
X0106805Y0265843D01*
X0107422Y0265226D01*
X0107422Y0263991D01*
X0109261Y0267077D02*
X0109261Y0267694D01*
X0113548Y0265226D02*
X0113548Y0264608D01*
X0116016Y0264608D01*
X0116016Y0263991D02*
X0116016Y0265226D01*
X0115399Y0265843D01*
X0114165Y0265843D01*
X0113548Y0265226D01*
X0114165Y0263374D02*
X0115399Y0263374D01*
X0116016Y0263991D01*
X0117231Y0263374D02*
X0117231Y0265226D01*
X0117848Y0265843D01*
X0119699Y0265843D01*
X0119699Y0263374D01*
X0119082Y0262894D02*
X0119082Y0262277D01*
X0119082Y0261043D02*
X0119082Y0258574D01*
X0119699Y0258574D02*
X0118465Y0258574D01*
X0116627Y0259191D02*
X0116010Y0258574D01*
X0116627Y0259191D02*
X0116627Y0261660D01*
X0117244Y0261043D02*
X0116010Y0261043D01*
X0119082Y0261043D02*
X0119699Y0261043D01*
X0120914Y0261043D02*
X0120914Y0259191D01*
X0121531Y0258574D01*
X0122148Y0259191D01*
X0122765Y0258574D01*
X0123383Y0259191D01*
X0123383Y0261043D01*
X0124597Y0261660D02*
X0125214Y0262277D01*
X0126449Y0262277D01*
X0127066Y0261660D01*
X0127066Y0261043D01*
X0126449Y0260426D01*
X0125214Y0260426D01*
X0124597Y0259808D01*
X0124597Y0259191D01*
X0125214Y0258574D01*
X0126449Y0258574D01*
X0127066Y0259191D01*
X0127079Y0258137D02*
X0128313Y0258137D01*
X0127696Y0258137D02*
X0127696Y0254434D01*
X0128313Y0254434D02*
X0127079Y0254434D01*
X0125858Y0254434D02*
X0125858Y0258137D01*
X0123389Y0254434D01*
X0123389Y0258137D01*
X0122148Y0262140D02*
X0121531Y0262140D01*
X0120914Y0262757D01*
X0120914Y0265843D01*
X0122765Y0265843D01*
X0123383Y0265226D01*
X0123383Y0263991D01*
X0122765Y0263374D01*
X0120914Y0263374D01*
X0124597Y0263374D02*
X0124597Y0265226D01*
X0125214Y0265843D01*
X0126449Y0265843D01*
X0126449Y0264608D02*
X0124597Y0264608D01*
X0124597Y0263374D02*
X0126449Y0263374D01*
X0127066Y0263991D01*
X0126449Y0264608D01*
X0128280Y0263374D02*
X0128280Y0267077D01*
X0129515Y0265843D01*
X0130749Y0267077D01*
X0130749Y0263374D01*
X0128307Y0251520D02*
X0128307Y0249051D01*
X0129541Y0250286D02*
X0127072Y0250286D01*
X0125858Y0252137D02*
X0125858Y0248434D01*
X0124630Y0250286D02*
X0122161Y0250286D01*
X0149174Y0258667D02*
X0151642Y0258667D01*
X0152857Y0258667D02*
X0152857Y0255581D01*
X0153474Y0254964D01*
X0154708Y0254964D01*
X0155326Y0255581D01*
X0155326Y0258667D01*
X0154957Y0259044D02*
X0154957Y0260896D01*
X0155574Y0261513D01*
X0156808Y0261513D01*
X0157425Y0260896D01*
X0158640Y0261513D02*
X0160491Y0261513D01*
X0161109Y0260896D01*
X0161109Y0259661D01*
X0160491Y0259044D01*
X0158640Y0259044D01*
X0158392Y0258667D02*
X0159009Y0258050D01*
X0159009Y0255581D01*
X0158392Y0254964D01*
X0157157Y0254964D01*
X0156540Y0255581D01*
X0156540Y0258050D01*
X0157157Y0258667D01*
X0158392Y0258667D01*
X0157425Y0259044D02*
X0157425Y0262747D01*
X0157419Y0263844D02*
X0158036Y0264461D01*
X0158036Y0266930D01*
X0158653Y0266313D02*
X0157419Y0266313D01*
X0156198Y0266313D02*
X0155581Y0266313D01*
X0155581Y0263844D01*
X0156198Y0263844D02*
X0154963Y0263844D01*
X0153742Y0264461D02*
X0153125Y0263844D01*
X0151274Y0263844D01*
X0151274Y0266313D02*
X0153125Y0266313D01*
X0153742Y0265696D01*
X0153742Y0264461D01*
X0155581Y0267547D02*
X0155581Y0268164D01*
X0159868Y0265696D02*
X0159868Y0265078D01*
X0162336Y0265078D01*
X0162336Y0264461D02*
X0162336Y0265696D01*
X0161719Y0266313D01*
X0160485Y0266313D01*
X0159868Y0265696D01*
X0160485Y0263844D02*
X0161719Y0263844D01*
X0162336Y0264461D01*
X0163551Y0263844D02*
X0163551Y0265696D01*
X0164168Y0266313D01*
X0166019Y0266313D01*
X0166019Y0263844D01*
X0165402Y0263364D02*
X0165402Y0262747D01*
X0165402Y0261513D02*
X0165402Y0259044D01*
X0166019Y0259044D02*
X0164785Y0259044D01*
X0162947Y0259661D02*
X0162330Y0259044D01*
X0162947Y0259661D02*
X0162947Y0262130D01*
X0163564Y0261513D02*
X0162330Y0261513D01*
X0165402Y0261513D02*
X0166019Y0261513D01*
X0167234Y0261513D02*
X0167234Y0259661D01*
X0167851Y0259044D01*
X0168468Y0259661D01*
X0169085Y0259044D01*
X0169703Y0259661D01*
X0169703Y0261513D01*
X0170917Y0262130D02*
X0171534Y0262747D01*
X0172769Y0262747D01*
X0173386Y0262130D01*
X0173386Y0261513D01*
X0172769Y0260896D01*
X0171534Y0260896D01*
X0170917Y0260278D01*
X0170917Y0259661D01*
X0171534Y0259044D01*
X0172769Y0259044D01*
X0173386Y0259661D01*
X0173399Y0258607D02*
X0174633Y0258607D01*
X0174016Y0258607D02*
X0174016Y0254904D01*
X0174633Y0254904D02*
X0173399Y0254904D01*
X0172178Y0254904D02*
X0172178Y0258607D01*
X0169709Y0254904D01*
X0169709Y0258607D01*
X0168468Y0262610D02*
X0167851Y0262610D01*
X0167234Y0263227D01*
X0167234Y0266313D01*
X0169085Y0266313D01*
X0169703Y0265696D01*
X0169703Y0264461D01*
X0169085Y0263844D01*
X0167234Y0263844D01*
X0170917Y0263844D02*
X0172769Y0263844D01*
X0173386Y0264461D01*
X0172769Y0265078D01*
X0170917Y0265078D01*
X0170917Y0265696D02*
X0170917Y0263844D01*
X0170917Y0265696D02*
X0171534Y0266313D01*
X0172769Y0266313D01*
X0174600Y0267547D02*
X0174600Y0263844D01*
X0177069Y0263844D02*
X0177069Y0267547D01*
X0175835Y0266313D01*
X0174600Y0267547D01*
X0172178Y0252607D02*
X0172178Y0248904D01*
X0173392Y0250756D02*
X0175861Y0250756D01*
X0174627Y0251990D02*
X0174627Y0249521D01*
X0170950Y0250756D02*
X0168481Y0250756D01*
X0157781Y0250816D02*
X0155312Y0250816D01*
X0156547Y0252050D02*
X0156547Y0249581D01*
X0154098Y0248964D02*
X0154098Y0252667D01*
X0152870Y0250816D02*
X0150401Y0250816D01*
X0150408Y0254964D02*
X0150408Y0258667D01*
X0155651Y0224104D02*
X0155651Y0223487D01*
X0155651Y0222253D02*
X0155651Y0219784D01*
X0156268Y0219784D02*
X0155033Y0219784D01*
X0153812Y0220401D02*
X0153195Y0219784D01*
X0151344Y0219784D01*
X0151344Y0222253D02*
X0153195Y0222253D01*
X0153812Y0221636D01*
X0153812Y0220401D01*
X0155651Y0222253D02*
X0156268Y0222253D01*
X0157489Y0222253D02*
X0158723Y0222253D01*
X0158106Y0222870D02*
X0158106Y0220401D01*
X0157489Y0219784D01*
X0157495Y0218687D02*
X0157495Y0214984D01*
X0157227Y0214607D02*
X0156610Y0213990D01*
X0156610Y0211521D01*
X0157227Y0210904D01*
X0158462Y0210904D01*
X0159079Y0211521D01*
X0159079Y0213990D01*
X0158462Y0214607D01*
X0157227Y0214607D01*
X0158710Y0214984D02*
X0160561Y0214984D01*
X0161179Y0215601D01*
X0161179Y0216836D01*
X0160561Y0217453D01*
X0158710Y0217453D01*
X0157495Y0216836D02*
X0156878Y0217453D01*
X0155644Y0217453D01*
X0155027Y0216836D01*
X0155027Y0214984D01*
X0155396Y0214607D02*
X0155396Y0211521D01*
X0154778Y0210904D01*
X0153544Y0210904D01*
X0152927Y0211521D01*
X0152927Y0214607D01*
X0151712Y0214607D02*
X0149244Y0214607D01*
X0150478Y0214607D02*
X0150478Y0210904D01*
X0150471Y0206756D02*
X0152940Y0206756D01*
X0154168Y0208607D02*
X0154168Y0204904D01*
X0155382Y0206756D02*
X0157851Y0206756D01*
X0156617Y0207990D02*
X0156617Y0205521D01*
X0162400Y0214984D02*
X0163017Y0215601D01*
X0163017Y0218070D01*
X0163634Y0217453D02*
X0162400Y0217453D01*
X0161789Y0219784D02*
X0162406Y0220401D01*
X0162406Y0221636D01*
X0161789Y0222253D01*
X0160555Y0222253D01*
X0159938Y0221636D01*
X0159938Y0221018D01*
X0162406Y0221018D01*
X0163621Y0221636D02*
X0163621Y0219784D01*
X0161789Y0219784D02*
X0160555Y0219784D01*
X0163621Y0221636D02*
X0164238Y0222253D01*
X0166089Y0222253D01*
X0166089Y0219784D01*
X0165472Y0219304D02*
X0165472Y0218687D01*
X0165472Y0217453D02*
X0165472Y0214984D01*
X0166089Y0214984D02*
X0164855Y0214984D01*
X0167304Y0215601D02*
X0167304Y0217453D01*
X0166089Y0217453D02*
X0165472Y0217453D01*
X0167304Y0219167D02*
X0167304Y0222253D01*
X0169155Y0222253D01*
X0169773Y0221636D01*
X0169773Y0220401D01*
X0169155Y0219784D01*
X0167304Y0219784D01*
X0167304Y0219167D02*
X0167921Y0218550D01*
X0168538Y0218550D01*
X0169773Y0217453D02*
X0169773Y0215601D01*
X0169155Y0214984D01*
X0168538Y0215601D01*
X0167921Y0214984D01*
X0167304Y0215601D01*
X0169779Y0214547D02*
X0169779Y0210844D01*
X0172248Y0214547D01*
X0172248Y0210844D01*
X0173469Y0210844D02*
X0174703Y0210844D01*
X0174086Y0210844D02*
X0174086Y0214547D01*
X0174703Y0214547D02*
X0173469Y0214547D01*
X0172839Y0214984D02*
X0173456Y0215601D01*
X0172839Y0214984D02*
X0171604Y0214984D01*
X0170987Y0215601D01*
X0170987Y0216218D01*
X0171604Y0216836D01*
X0172839Y0216836D01*
X0173456Y0217453D01*
X0173456Y0218070D01*
X0172839Y0218687D01*
X0171604Y0218687D01*
X0170987Y0218070D01*
X0170987Y0219784D02*
X0172839Y0219784D01*
X0173456Y0220401D01*
X0172839Y0221018D01*
X0170987Y0221018D01*
X0170987Y0221636D02*
X0170987Y0219784D01*
X0170987Y0221636D02*
X0171604Y0222253D01*
X0172839Y0222253D01*
X0174670Y0223487D02*
X0174670Y0219784D01*
X0177139Y0219784D02*
X0177139Y0223487D01*
X0175905Y0222253D01*
X0174670Y0223487D01*
X0172248Y0208547D02*
X0172248Y0204844D01*
X0173462Y0206696D02*
X0175931Y0206696D01*
X0174697Y0207930D02*
X0174697Y0205461D01*
X0171020Y0206696D02*
X0168551Y0206696D01*
X0195494Y0215347D02*
X0197962Y0215347D01*
X0199177Y0215347D02*
X0199177Y0212261D01*
X0199794Y0211644D01*
X0201028Y0211644D01*
X0201646Y0212261D01*
X0201646Y0215347D01*
X0201277Y0215724D02*
X0201277Y0217576D01*
X0201894Y0218193D01*
X0203128Y0218193D01*
X0203745Y0217576D01*
X0204960Y0218193D02*
X0206811Y0218193D01*
X0207429Y0217576D01*
X0207429Y0216341D01*
X0206811Y0215724D01*
X0204960Y0215724D01*
X0204712Y0215347D02*
X0205329Y0214730D01*
X0205329Y0212261D01*
X0204712Y0211644D01*
X0203477Y0211644D01*
X0202860Y0212261D01*
X0202860Y0214730D01*
X0203477Y0215347D01*
X0204712Y0215347D01*
X0203745Y0215724D02*
X0203745Y0219427D01*
X0203739Y0220524D02*
X0204356Y0221141D01*
X0204356Y0223610D01*
X0204973Y0222993D02*
X0203739Y0222993D01*
X0202518Y0222993D02*
X0201901Y0222993D01*
X0201901Y0220524D01*
X0202518Y0220524D02*
X0201283Y0220524D01*
X0200062Y0221141D02*
X0199445Y0220524D01*
X0197594Y0220524D01*
X0197594Y0222993D02*
X0199445Y0222993D01*
X0200062Y0222376D01*
X0200062Y0221141D01*
X0201901Y0224227D02*
X0201901Y0224844D01*
X0206188Y0222376D02*
X0206188Y0221758D01*
X0208656Y0221758D01*
X0208656Y0221141D02*
X0208656Y0222376D01*
X0208039Y0222993D01*
X0206805Y0222993D01*
X0206188Y0222376D01*
X0206805Y0220524D02*
X0208039Y0220524D01*
X0208656Y0221141D01*
X0209871Y0220524D02*
X0209871Y0222376D01*
X0210488Y0222993D01*
X0212339Y0222993D01*
X0212339Y0220524D01*
X0211722Y0220044D02*
X0211722Y0219427D01*
X0211722Y0218193D02*
X0211722Y0215724D01*
X0212339Y0215724D02*
X0211105Y0215724D01*
X0209267Y0216341D02*
X0208650Y0215724D01*
X0209267Y0216341D02*
X0209267Y0218810D01*
X0209884Y0218193D02*
X0208650Y0218193D01*
X0211722Y0218193D02*
X0212339Y0218193D01*
X0213554Y0218193D02*
X0213554Y0216341D01*
X0214171Y0215724D01*
X0214788Y0216341D01*
X0215405Y0215724D01*
X0216023Y0216341D01*
X0216023Y0218193D01*
X0217237Y0218810D02*
X0217854Y0219427D01*
X0219089Y0219427D01*
X0219706Y0218810D01*
X0219706Y0218193D01*
X0219089Y0217576D01*
X0217854Y0217576D01*
X0217237Y0216958D01*
X0217237Y0216341D01*
X0217854Y0215724D01*
X0219089Y0215724D01*
X0219706Y0216341D01*
X0219719Y0215287D02*
X0220953Y0215287D01*
X0220336Y0215287D02*
X0220336Y0211584D01*
X0220953Y0211584D02*
X0219719Y0211584D01*
X0218498Y0211584D02*
X0218498Y0215287D01*
X0216029Y0211584D01*
X0216029Y0215287D01*
X0214788Y0219290D02*
X0214171Y0219290D01*
X0213554Y0219907D01*
X0213554Y0222993D01*
X0215405Y0222993D01*
X0216023Y0222376D01*
X0216023Y0221141D01*
X0215405Y0220524D01*
X0213554Y0220524D01*
X0217237Y0220524D02*
X0219089Y0220524D01*
X0219706Y0221141D01*
X0219089Y0221758D01*
X0217237Y0221758D01*
X0217237Y0222376D02*
X0217237Y0220524D01*
X0217237Y0222376D02*
X0217854Y0222993D01*
X0219089Y0222993D01*
X0220920Y0224227D02*
X0220920Y0220524D01*
X0223389Y0220524D02*
X0223389Y0224227D01*
X0222155Y0222993D01*
X0220920Y0224227D01*
X0218498Y0209287D02*
X0218498Y0205584D01*
X0219712Y0207436D02*
X0222181Y0207436D01*
X0220947Y0208670D02*
X0220947Y0206201D01*
X0217270Y0207436D02*
X0214801Y0207436D01*
X0204101Y0207496D02*
X0201632Y0207496D01*
X0202867Y0208730D02*
X0202867Y0206261D01*
X0200418Y0205644D02*
X0200418Y0209347D01*
X0199190Y0207496D02*
X0196721Y0207496D01*
X0196728Y0211644D02*
X0196728Y0215347D01*
X0200348Y0249704D02*
X0200348Y0253407D01*
X0201562Y0251556D02*
X0204031Y0251556D01*
X0202797Y0252790D02*
X0202797Y0250321D01*
X0199120Y0251556D02*
X0196651Y0251556D01*
X0196658Y0255704D02*
X0196658Y0259407D01*
X0197892Y0259407D02*
X0195424Y0259407D01*
X0199107Y0259407D02*
X0199107Y0256321D01*
X0199724Y0255704D01*
X0200958Y0255704D01*
X0201576Y0256321D01*
X0201576Y0259407D01*
X0201207Y0259784D02*
X0201207Y0261636D01*
X0201824Y0262253D01*
X0203058Y0262253D01*
X0203675Y0261636D01*
X0204890Y0262253D02*
X0206741Y0262253D01*
X0207359Y0261636D01*
X0207359Y0260401D01*
X0206741Y0259784D01*
X0204890Y0259784D01*
X0204642Y0259407D02*
X0205259Y0258790D01*
X0205259Y0256321D01*
X0204642Y0255704D01*
X0203407Y0255704D01*
X0202790Y0256321D01*
X0202790Y0258790D01*
X0203407Y0259407D01*
X0204642Y0259407D01*
X0203675Y0259784D02*
X0203675Y0263487D01*
X0203669Y0264584D02*
X0204286Y0265201D01*
X0204286Y0267670D01*
X0204903Y0267053D02*
X0203669Y0267053D01*
X0202448Y0267053D02*
X0201831Y0267053D01*
X0201831Y0264584D01*
X0202448Y0264584D02*
X0201213Y0264584D01*
X0199992Y0265201D02*
X0199375Y0264584D01*
X0197524Y0264584D01*
X0197524Y0267053D02*
X0199375Y0267053D01*
X0199992Y0266436D01*
X0199992Y0265201D01*
X0201831Y0268287D02*
X0201831Y0268904D01*
X0206118Y0266436D02*
X0206118Y0265818D01*
X0208586Y0265818D01*
X0208586Y0265201D02*
X0208586Y0266436D01*
X0207969Y0267053D01*
X0206735Y0267053D01*
X0206118Y0266436D01*
X0206735Y0264584D02*
X0207969Y0264584D01*
X0208586Y0265201D01*
X0209801Y0264584D02*
X0209801Y0266436D01*
X0210418Y0267053D01*
X0212269Y0267053D01*
X0212269Y0264584D01*
X0211652Y0264104D02*
X0211652Y0263487D01*
X0211652Y0262253D02*
X0211652Y0259784D01*
X0212269Y0259784D02*
X0211035Y0259784D01*
X0209197Y0260401D02*
X0208580Y0259784D01*
X0209197Y0260401D02*
X0209197Y0262870D01*
X0209814Y0262253D02*
X0208580Y0262253D01*
X0211652Y0262253D02*
X0212269Y0262253D01*
X0213484Y0262253D02*
X0213484Y0260401D01*
X0214101Y0259784D01*
X0214718Y0260401D01*
X0215335Y0259784D01*
X0215953Y0260401D01*
X0215953Y0262253D01*
X0217167Y0262870D02*
X0217784Y0263487D01*
X0219019Y0263487D01*
X0219636Y0262870D01*
X0219636Y0262253D01*
X0219019Y0261636D01*
X0217784Y0261636D01*
X0217167Y0261018D01*
X0217167Y0260401D01*
X0217784Y0259784D01*
X0219019Y0259784D01*
X0219636Y0260401D01*
X0219649Y0259347D02*
X0220883Y0259347D01*
X0220266Y0259347D02*
X0220266Y0255644D01*
X0220883Y0255644D02*
X0219649Y0255644D01*
X0218428Y0255644D02*
X0218428Y0259347D01*
X0215959Y0255644D01*
X0215959Y0259347D01*
X0214718Y0263350D02*
X0214101Y0263350D01*
X0213484Y0263967D01*
X0213484Y0267053D01*
X0215335Y0267053D01*
X0215953Y0266436D01*
X0215953Y0265201D01*
X0215335Y0264584D01*
X0213484Y0264584D01*
X0217167Y0264584D02*
X0219019Y0264584D01*
X0219636Y0265201D01*
X0219019Y0265818D01*
X0217167Y0265818D01*
X0217167Y0266436D02*
X0217167Y0264584D01*
X0217167Y0266436D02*
X0217784Y0267053D01*
X0219019Y0267053D01*
X0220850Y0268287D02*
X0220850Y0264584D01*
X0223319Y0264584D02*
X0223319Y0268287D01*
X0222085Y0267053D01*
X0220850Y0268287D01*
X0218428Y0253347D02*
X0218428Y0249644D01*
X0219642Y0251496D02*
X0222111Y0251496D01*
X0220877Y0252730D02*
X0220877Y0250261D01*
X0217200Y0251496D02*
X0214731Y0251496D01*
X0242534Y0259287D02*
X0245002Y0259287D01*
X0246217Y0259287D02*
X0246217Y0256201D01*
X0246834Y0255584D01*
X0248068Y0255584D01*
X0248686Y0256201D01*
X0248686Y0259287D01*
X0248317Y0259664D02*
X0248317Y0261516D01*
X0248934Y0262133D01*
X0250168Y0262133D01*
X0250785Y0261516D01*
X0252000Y0262133D02*
X0253851Y0262133D01*
X0254469Y0261516D01*
X0254469Y0260281D01*
X0253851Y0259664D01*
X0252000Y0259664D01*
X0251752Y0259287D02*
X0252369Y0258670D01*
X0252369Y0256201D01*
X0251752Y0255584D01*
X0250517Y0255584D01*
X0249900Y0256201D01*
X0249900Y0258670D01*
X0250517Y0259287D01*
X0251752Y0259287D01*
X0250785Y0259664D02*
X0250785Y0263367D01*
X0250779Y0264464D02*
X0251396Y0265081D01*
X0251396Y0267550D01*
X0252013Y0266933D02*
X0250779Y0266933D01*
X0249558Y0266933D02*
X0248941Y0266933D01*
X0248941Y0264464D01*
X0249558Y0264464D02*
X0248323Y0264464D01*
X0247102Y0265081D02*
X0246485Y0264464D01*
X0244634Y0264464D01*
X0244634Y0266933D02*
X0246485Y0266933D01*
X0247102Y0266316D01*
X0247102Y0265081D01*
X0248941Y0268167D02*
X0248941Y0268784D01*
X0253228Y0266316D02*
X0253228Y0265698D01*
X0255696Y0265698D01*
X0255696Y0265081D02*
X0255696Y0266316D01*
X0255079Y0266933D01*
X0253845Y0266933D01*
X0253228Y0266316D01*
X0253845Y0264464D02*
X0255079Y0264464D01*
X0255696Y0265081D01*
X0256911Y0264464D02*
X0256911Y0266316D01*
X0257528Y0266933D01*
X0259379Y0266933D01*
X0259379Y0264464D01*
X0258762Y0263984D02*
X0258762Y0263367D01*
X0258762Y0262133D02*
X0258762Y0259664D01*
X0259379Y0259664D02*
X0258145Y0259664D01*
X0256307Y0260281D02*
X0255690Y0259664D01*
X0256307Y0260281D02*
X0256307Y0262750D01*
X0256924Y0262133D02*
X0255690Y0262133D01*
X0258762Y0262133D02*
X0259379Y0262133D01*
X0260594Y0262133D02*
X0260594Y0260281D01*
X0261211Y0259664D01*
X0261828Y0260281D01*
X0262445Y0259664D01*
X0263063Y0260281D01*
X0263063Y0262133D01*
X0264277Y0262750D02*
X0264894Y0263367D01*
X0266129Y0263367D01*
X0266746Y0262750D01*
X0266746Y0262133D01*
X0266129Y0261516D01*
X0264894Y0261516D01*
X0264277Y0260898D01*
X0264277Y0260281D01*
X0264894Y0259664D01*
X0266129Y0259664D01*
X0266746Y0260281D01*
X0266759Y0259227D02*
X0267993Y0259227D01*
X0267376Y0259227D02*
X0267376Y0255524D01*
X0267993Y0255524D02*
X0266759Y0255524D01*
X0265538Y0255524D02*
X0265538Y0259227D01*
X0263069Y0255524D01*
X0263069Y0259227D01*
X0261828Y0263230D02*
X0261211Y0263230D01*
X0260594Y0263847D01*
X0260594Y0266933D01*
X0262445Y0266933D01*
X0263063Y0266316D01*
X0263063Y0265081D01*
X0262445Y0264464D01*
X0260594Y0264464D01*
X0264277Y0264464D02*
X0266129Y0264464D01*
X0266746Y0265081D01*
X0266129Y0265698D01*
X0264277Y0265698D01*
X0264277Y0266316D02*
X0264277Y0264464D01*
X0264277Y0266316D02*
X0264894Y0266933D01*
X0266129Y0266933D01*
X0267960Y0268167D02*
X0267960Y0264464D01*
X0270429Y0264464D02*
X0270429Y0268167D01*
X0269195Y0266933D01*
X0267960Y0268167D01*
X0265538Y0253227D02*
X0265538Y0249524D01*
X0266752Y0251376D02*
X0269221Y0251376D01*
X0267987Y0252610D02*
X0267987Y0250141D01*
X0264310Y0251376D02*
X0261841Y0251376D01*
X0251141Y0251436D02*
X0248672Y0251436D01*
X0249907Y0252670D02*
X0249907Y0250201D01*
X0247458Y0249584D02*
X0247458Y0253287D01*
X0246230Y0251436D02*
X0243761Y0251436D01*
X0243768Y0255584D02*
X0243768Y0259287D01*
X0249011Y0224724D02*
X0249011Y0224107D01*
X0249011Y0222873D02*
X0249011Y0220404D01*
X0249628Y0220404D02*
X0248393Y0220404D01*
X0247172Y0221021D02*
X0246555Y0220404D01*
X0244704Y0220404D01*
X0244704Y0222873D02*
X0246555Y0222873D01*
X0247172Y0222256D01*
X0247172Y0221021D01*
X0249011Y0222873D02*
X0249628Y0222873D01*
X0250849Y0222873D02*
X0252083Y0222873D01*
X0251466Y0223490D02*
X0251466Y0221021D01*
X0250849Y0220404D01*
X0250855Y0219307D02*
X0250855Y0215604D01*
X0250587Y0215227D02*
X0249970Y0214610D01*
X0249970Y0212141D01*
X0250587Y0211524D01*
X0251822Y0211524D01*
X0252439Y0212141D01*
X0252439Y0214610D01*
X0251822Y0215227D01*
X0250587Y0215227D01*
X0252070Y0215604D02*
X0253921Y0215604D01*
X0254539Y0216221D01*
X0254539Y0217456D01*
X0253921Y0218073D01*
X0252070Y0218073D01*
X0250855Y0217456D02*
X0250238Y0218073D01*
X0249004Y0218073D01*
X0248387Y0217456D01*
X0248387Y0215604D01*
X0248756Y0215227D02*
X0248756Y0212141D01*
X0248138Y0211524D01*
X0246904Y0211524D01*
X0246287Y0212141D01*
X0246287Y0215227D01*
X0245072Y0215227D02*
X0242604Y0215227D01*
X0243838Y0215227D02*
X0243838Y0211524D01*
X0243831Y0207376D02*
X0246300Y0207376D01*
X0247528Y0209227D02*
X0247528Y0205524D01*
X0248742Y0207376D02*
X0251211Y0207376D01*
X0249977Y0208610D02*
X0249977Y0206141D01*
X0255760Y0215604D02*
X0256377Y0216221D01*
X0256377Y0218690D01*
X0256994Y0218073D02*
X0255760Y0218073D01*
X0255149Y0220404D02*
X0253915Y0220404D01*
X0255149Y0220404D02*
X0255766Y0221021D01*
X0255766Y0222256D01*
X0255149Y0222873D01*
X0253915Y0222873D01*
X0253298Y0222256D01*
X0253298Y0221638D01*
X0255766Y0221638D01*
X0256981Y0222256D02*
X0256981Y0220404D01*
X0256981Y0222256D02*
X0257598Y0222873D01*
X0259449Y0222873D01*
X0259449Y0220404D01*
X0258832Y0219924D02*
X0258832Y0219307D01*
X0258832Y0218073D02*
X0258832Y0215604D01*
X0259449Y0215604D02*
X0258215Y0215604D01*
X0260664Y0216221D02*
X0260664Y0218073D01*
X0259449Y0218073D02*
X0258832Y0218073D01*
X0260664Y0219787D02*
X0261281Y0219170D01*
X0261898Y0219170D01*
X0260664Y0219787D02*
X0260664Y0222873D01*
X0262515Y0222873D01*
X0263133Y0222256D01*
X0263133Y0221021D01*
X0262515Y0220404D01*
X0260664Y0220404D01*
X0263133Y0218073D02*
X0263133Y0216221D01*
X0262515Y0215604D01*
X0261898Y0216221D01*
X0261281Y0215604D01*
X0260664Y0216221D01*
X0263139Y0215167D02*
X0263139Y0211464D01*
X0265608Y0215167D01*
X0265608Y0211464D01*
X0266829Y0211464D02*
X0268063Y0211464D01*
X0267446Y0211464D02*
X0267446Y0215167D01*
X0268063Y0215167D02*
X0266829Y0215167D01*
X0266199Y0215604D02*
X0266816Y0216221D01*
X0266199Y0215604D02*
X0264964Y0215604D01*
X0264347Y0216221D01*
X0264347Y0216838D01*
X0264964Y0217456D01*
X0266199Y0217456D01*
X0266816Y0218073D01*
X0266816Y0218690D01*
X0266199Y0219307D01*
X0264964Y0219307D01*
X0264347Y0218690D01*
X0264347Y0220404D02*
X0266199Y0220404D01*
X0266816Y0221021D01*
X0266199Y0221638D01*
X0264347Y0221638D01*
X0264347Y0222256D02*
X0264347Y0220404D01*
X0264347Y0222256D02*
X0264964Y0222873D01*
X0266199Y0222873D01*
X0268030Y0224107D02*
X0268030Y0220404D01*
X0270499Y0220404D02*
X0270499Y0224107D01*
X0269265Y0222873D01*
X0268030Y0224107D01*
X0265608Y0209167D02*
X0265608Y0205464D01*
X0266822Y0207316D02*
X0269291Y0207316D01*
X0268057Y0208550D02*
X0268057Y0206081D01*
X0264380Y0207316D02*
X0261911Y0207316D01*
X0289584Y0215067D02*
X0292052Y0215067D01*
X0293267Y0215067D02*
X0293267Y0211981D01*
X0293884Y0211364D01*
X0295118Y0211364D01*
X0295736Y0211981D01*
X0295736Y0215067D01*
X0295367Y0215444D02*
X0295367Y0217296D01*
X0295984Y0217913D01*
X0297218Y0217913D01*
X0297835Y0217296D01*
X0299050Y0217913D02*
X0300901Y0217913D01*
X0301519Y0217296D01*
X0301519Y0216061D01*
X0300901Y0215444D01*
X0299050Y0215444D01*
X0298802Y0215067D02*
X0299419Y0214450D01*
X0299419Y0211981D01*
X0298802Y0211364D01*
X0297567Y0211364D01*
X0296950Y0211981D01*
X0296950Y0214450D01*
X0297567Y0215067D01*
X0298802Y0215067D01*
X0297835Y0215444D02*
X0297835Y0219147D01*
X0297829Y0220244D02*
X0298446Y0220861D01*
X0298446Y0223330D01*
X0299063Y0222713D02*
X0297829Y0222713D01*
X0296608Y0222713D02*
X0295991Y0222713D01*
X0295991Y0220244D01*
X0296608Y0220244D02*
X0295373Y0220244D01*
X0294152Y0220861D02*
X0293535Y0220244D01*
X0291684Y0220244D01*
X0291684Y0222713D02*
X0293535Y0222713D01*
X0294152Y0222096D01*
X0294152Y0220861D01*
X0295991Y0223947D02*
X0295991Y0224564D01*
X0300278Y0222096D02*
X0300278Y0221478D01*
X0302746Y0221478D01*
X0302746Y0220861D02*
X0302746Y0222096D01*
X0302129Y0222713D01*
X0300895Y0222713D01*
X0300278Y0222096D01*
X0300895Y0220244D02*
X0302129Y0220244D01*
X0302746Y0220861D01*
X0303961Y0220244D02*
X0303961Y0222096D01*
X0304578Y0222713D01*
X0306429Y0222713D01*
X0306429Y0220244D01*
X0305812Y0219764D02*
X0305812Y0219147D01*
X0305812Y0217913D02*
X0305812Y0215444D01*
X0306429Y0215444D02*
X0305195Y0215444D01*
X0303357Y0216061D02*
X0303357Y0218530D01*
X0303974Y0217913D02*
X0302740Y0217913D01*
X0303357Y0216061D02*
X0302740Y0215444D01*
X0305812Y0217913D02*
X0306429Y0217913D01*
X0307644Y0217913D02*
X0307644Y0216061D01*
X0308261Y0215444D01*
X0308878Y0216061D01*
X0309495Y0215444D01*
X0310113Y0216061D01*
X0310113Y0217913D01*
X0311327Y0218530D02*
X0311944Y0219147D01*
X0313179Y0219147D01*
X0313796Y0218530D01*
X0313796Y0217913D01*
X0313179Y0217296D01*
X0311944Y0217296D01*
X0311327Y0216678D01*
X0311327Y0216061D01*
X0311944Y0215444D01*
X0313179Y0215444D01*
X0313796Y0216061D01*
X0313809Y0215007D02*
X0315043Y0215007D01*
X0314426Y0215007D02*
X0314426Y0211304D01*
X0315043Y0211304D02*
X0313809Y0211304D01*
X0312588Y0211304D02*
X0312588Y0215007D01*
X0310119Y0211304D01*
X0310119Y0215007D01*
X0308878Y0219010D02*
X0308261Y0219010D01*
X0307644Y0219627D01*
X0307644Y0222713D01*
X0309495Y0222713D01*
X0310113Y0222096D01*
X0310113Y0220861D01*
X0309495Y0220244D01*
X0307644Y0220244D01*
X0311327Y0220244D02*
X0313179Y0220244D01*
X0313796Y0220861D01*
X0313179Y0221478D01*
X0311327Y0221478D01*
X0311327Y0222096D02*
X0311327Y0220244D01*
X0311327Y0222096D02*
X0311944Y0222713D01*
X0313179Y0222713D01*
X0315010Y0223947D02*
X0315010Y0220244D01*
X0317479Y0220244D02*
X0317479Y0223947D01*
X0316245Y0222713D01*
X0315010Y0223947D01*
X0312588Y0209007D02*
X0312588Y0205304D01*
X0313802Y0207156D02*
X0316271Y0207156D01*
X0315037Y0208390D02*
X0315037Y0205921D01*
X0311360Y0207156D02*
X0308891Y0207156D01*
X0298191Y0207216D02*
X0295722Y0207216D01*
X0296957Y0208450D02*
X0296957Y0205981D01*
X0294508Y0205364D02*
X0294508Y0209067D01*
X0293280Y0207216D02*
X0290811Y0207216D01*
X0290818Y0211364D02*
X0290818Y0215067D01*
X0294438Y0249424D02*
X0294438Y0253127D01*
X0295652Y0251276D02*
X0298121Y0251276D01*
X0296887Y0252510D02*
X0296887Y0250041D01*
X0293210Y0251276D02*
X0290741Y0251276D01*
X0290748Y0255424D02*
X0290748Y0259127D01*
X0291982Y0259127D02*
X0289514Y0259127D01*
X0293197Y0259127D02*
X0293197Y0256041D01*
X0293814Y0255424D01*
X0295048Y0255424D01*
X0295666Y0256041D01*
X0295666Y0259127D01*
X0295297Y0259504D02*
X0295297Y0261356D01*
X0295914Y0261973D01*
X0297148Y0261973D01*
X0297765Y0261356D01*
X0298980Y0261973D02*
X0300831Y0261973D01*
X0301449Y0261356D01*
X0301449Y0260121D01*
X0300831Y0259504D01*
X0298980Y0259504D01*
X0298732Y0259127D02*
X0299349Y0258510D01*
X0299349Y0256041D01*
X0298732Y0255424D01*
X0297497Y0255424D01*
X0296880Y0256041D01*
X0296880Y0258510D01*
X0297497Y0259127D01*
X0298732Y0259127D01*
X0297765Y0259504D02*
X0297765Y0263207D01*
X0297759Y0264304D02*
X0298376Y0264921D01*
X0298376Y0267390D01*
X0298993Y0266773D02*
X0297759Y0266773D01*
X0296538Y0266773D02*
X0295921Y0266773D01*
X0295921Y0264304D01*
X0296538Y0264304D02*
X0295303Y0264304D01*
X0294082Y0264921D02*
X0293465Y0264304D01*
X0291614Y0264304D01*
X0291614Y0266773D02*
X0293465Y0266773D01*
X0294082Y0266156D01*
X0294082Y0264921D01*
X0295921Y0268007D02*
X0295921Y0268624D01*
X0300208Y0266156D02*
X0300208Y0265538D01*
X0302676Y0265538D01*
X0302676Y0264921D02*
X0302676Y0266156D01*
X0302059Y0266773D01*
X0300825Y0266773D01*
X0300208Y0266156D01*
X0300825Y0264304D02*
X0302059Y0264304D01*
X0302676Y0264921D01*
X0303891Y0264304D02*
X0303891Y0266156D01*
X0304508Y0266773D01*
X0306359Y0266773D01*
X0306359Y0264304D01*
X0305742Y0263824D02*
X0305742Y0263207D01*
X0305742Y0261973D02*
X0305742Y0259504D01*
X0306359Y0259504D02*
X0305125Y0259504D01*
X0303287Y0260121D02*
X0303287Y0262590D01*
X0303904Y0261973D02*
X0302670Y0261973D01*
X0303287Y0260121D02*
X0302670Y0259504D01*
X0305742Y0261973D02*
X0306359Y0261973D01*
X0307574Y0261973D02*
X0307574Y0260121D01*
X0308191Y0259504D01*
X0308808Y0260121D01*
X0309425Y0259504D01*
X0310043Y0260121D01*
X0310043Y0261973D01*
X0311257Y0262590D02*
X0311874Y0263207D01*
X0313109Y0263207D01*
X0313726Y0262590D01*
X0313726Y0261973D01*
X0313109Y0261356D01*
X0311874Y0261356D01*
X0311257Y0260738D01*
X0311257Y0260121D01*
X0311874Y0259504D01*
X0313109Y0259504D01*
X0313726Y0260121D01*
X0313739Y0259067D02*
X0314973Y0259067D01*
X0314356Y0259067D02*
X0314356Y0255364D01*
X0314973Y0255364D02*
X0313739Y0255364D01*
X0312518Y0255364D02*
X0312518Y0259067D01*
X0310049Y0255364D01*
X0310049Y0259067D01*
X0308808Y0263070D02*
X0308191Y0263070D01*
X0307574Y0263687D01*
X0307574Y0266773D01*
X0309425Y0266773D01*
X0310043Y0266156D01*
X0310043Y0264921D01*
X0309425Y0264304D01*
X0307574Y0264304D01*
X0311257Y0264304D02*
X0313109Y0264304D01*
X0313726Y0264921D01*
X0313109Y0265538D01*
X0311257Y0265538D01*
X0311257Y0266156D02*
X0311257Y0264304D01*
X0311257Y0266156D02*
X0311874Y0266773D01*
X0313109Y0266773D01*
X0314940Y0268007D02*
X0314940Y0264304D01*
X0317409Y0264304D02*
X0317409Y0268007D01*
X0316175Y0266773D01*
X0314940Y0268007D01*
X0312518Y0253067D02*
X0312518Y0249364D01*
X0313732Y0251216D02*
X0316201Y0251216D01*
X0314967Y0252450D02*
X0314967Y0249981D01*
X0311290Y0251216D02*
X0308821Y0251216D01*
X0339024Y0259997D02*
X0341492Y0259997D01*
X0342707Y0259997D02*
X0342707Y0256911D01*
X0343324Y0256294D01*
X0344558Y0256294D01*
X0345176Y0256911D01*
X0345176Y0259997D01*
X0344807Y0260374D02*
X0344807Y0262226D01*
X0345424Y0262843D01*
X0346658Y0262843D01*
X0347275Y0262226D01*
X0348490Y0262843D02*
X0350341Y0262843D01*
X0350959Y0262226D01*
X0350959Y0260991D01*
X0350341Y0260374D01*
X0348490Y0260374D01*
X0348242Y0259997D02*
X0348859Y0259380D01*
X0348859Y0256911D01*
X0348242Y0256294D01*
X0347007Y0256294D01*
X0346390Y0256911D01*
X0346390Y0259380D01*
X0347007Y0259997D01*
X0348242Y0259997D01*
X0347275Y0260374D02*
X0347275Y0264077D01*
X0347269Y0265174D02*
X0347886Y0265791D01*
X0347886Y0268260D01*
X0348503Y0267643D02*
X0347269Y0267643D01*
X0346048Y0267643D02*
X0345431Y0267643D01*
X0345431Y0265174D01*
X0346048Y0265174D02*
X0344813Y0265174D01*
X0343592Y0265791D02*
X0342975Y0265174D01*
X0341124Y0265174D01*
X0341124Y0267643D02*
X0342975Y0267643D01*
X0343592Y0267026D01*
X0343592Y0265791D01*
X0345431Y0268877D02*
X0345431Y0269494D01*
X0349718Y0267026D02*
X0349718Y0266408D01*
X0352186Y0266408D01*
X0352186Y0265791D02*
X0352186Y0267026D01*
X0351569Y0267643D01*
X0350335Y0267643D01*
X0349718Y0267026D01*
X0350335Y0265174D02*
X0351569Y0265174D01*
X0352186Y0265791D01*
X0353401Y0265174D02*
X0353401Y0267026D01*
X0354018Y0267643D01*
X0355869Y0267643D01*
X0355869Y0265174D01*
X0355252Y0264694D02*
X0355252Y0264077D01*
X0355252Y0262843D02*
X0355252Y0260374D01*
X0355869Y0260374D02*
X0354635Y0260374D01*
X0352797Y0260991D02*
X0352180Y0260374D01*
X0352797Y0260991D02*
X0352797Y0263460D01*
X0353414Y0262843D02*
X0352180Y0262843D01*
X0355252Y0262843D02*
X0355869Y0262843D01*
X0357084Y0262843D02*
X0357084Y0260991D01*
X0357701Y0260374D01*
X0358318Y0260991D01*
X0358935Y0260374D01*
X0359553Y0260991D01*
X0359553Y0262843D01*
X0360767Y0263460D02*
X0361384Y0264077D01*
X0362619Y0264077D01*
X0363236Y0263460D01*
X0363236Y0262843D01*
X0362619Y0262226D01*
X0361384Y0262226D01*
X0360767Y0261608D01*
X0360767Y0260991D01*
X0361384Y0260374D01*
X0362619Y0260374D01*
X0363236Y0260991D01*
X0363249Y0259937D02*
X0364483Y0259937D01*
X0363866Y0259937D02*
X0363866Y0256234D01*
X0364483Y0256234D02*
X0363249Y0256234D01*
X0362028Y0256234D02*
X0362028Y0259937D01*
X0359559Y0256234D01*
X0359559Y0259937D01*
X0362028Y0253937D02*
X0362028Y0250234D01*
X0363242Y0252086D02*
X0365711Y0252086D01*
X0364477Y0253320D02*
X0364477Y0250851D01*
X0360800Y0252086D02*
X0358331Y0252086D01*
X0347631Y0252146D02*
X0345162Y0252146D01*
X0346397Y0253380D02*
X0346397Y0250911D01*
X0343948Y0250294D02*
X0343948Y0253997D01*
X0342720Y0252146D02*
X0340251Y0252146D01*
X0340258Y0256294D02*
X0340258Y0259997D01*
X0357084Y0264557D02*
X0357084Y0267643D01*
X0358935Y0267643D01*
X0359553Y0267026D01*
X0359553Y0265791D01*
X0358935Y0265174D01*
X0357084Y0265174D01*
X0357084Y0264557D02*
X0357701Y0263940D01*
X0358318Y0263940D01*
X0360767Y0265174D02*
X0360767Y0267026D01*
X0361384Y0267643D01*
X0362619Y0267643D01*
X0362619Y0266408D02*
X0360767Y0266408D01*
X0360767Y0265174D02*
X0362619Y0265174D01*
X0363236Y0265791D01*
X0362619Y0266408D01*
X0364450Y0265174D02*
X0364450Y0268877D01*
X0365685Y0267643D01*
X0366919Y0268877D01*
X0366919Y0265174D01*
X0361888Y0299074D02*
X0361888Y0302777D01*
X0363102Y0300926D02*
X0365571Y0300926D01*
X0364337Y0302160D02*
X0364337Y0299691D01*
X0360660Y0300926D02*
X0358191Y0300926D01*
X0359419Y0305074D02*
X0359419Y0308777D01*
X0358795Y0309214D02*
X0358178Y0309831D01*
X0357561Y0309214D01*
X0356944Y0309831D01*
X0356944Y0311683D01*
X0355729Y0311683D02*
X0355112Y0311683D01*
X0355112Y0309214D01*
X0355729Y0309214D02*
X0354495Y0309214D01*
X0352657Y0309831D02*
X0352040Y0309214D01*
X0352657Y0309831D02*
X0352657Y0312300D01*
X0353274Y0311683D02*
X0352040Y0311683D01*
X0350819Y0311066D02*
X0350819Y0309831D01*
X0350201Y0309214D01*
X0348350Y0309214D01*
X0348102Y0308837D02*
X0348719Y0308220D01*
X0348719Y0305751D01*
X0348102Y0305134D01*
X0346867Y0305134D01*
X0346250Y0305751D01*
X0346250Y0308220D01*
X0346867Y0308837D01*
X0348102Y0308837D01*
X0347135Y0309214D02*
X0347135Y0312917D01*
X0347129Y0314014D02*
X0347746Y0314631D01*
X0347746Y0317100D01*
X0348363Y0316483D02*
X0347129Y0316483D01*
X0345908Y0316483D02*
X0345291Y0316483D01*
X0345291Y0314014D01*
X0345908Y0314014D02*
X0344673Y0314014D01*
X0343452Y0314631D02*
X0342835Y0314014D01*
X0340984Y0314014D01*
X0340984Y0316483D02*
X0342835Y0316483D01*
X0343452Y0315866D01*
X0343452Y0314631D01*
X0345284Y0311683D02*
X0344667Y0311066D01*
X0344667Y0309214D01*
X0345036Y0308837D02*
X0345036Y0305751D01*
X0344418Y0305134D01*
X0343184Y0305134D01*
X0342567Y0305751D01*
X0342567Y0308837D01*
X0341352Y0308837D02*
X0338884Y0308837D01*
X0340118Y0308837D02*
X0340118Y0305134D01*
X0340111Y0300986D02*
X0342580Y0300986D01*
X0343808Y0302837D02*
X0343808Y0299134D01*
X0345022Y0300986D02*
X0347491Y0300986D01*
X0346257Y0302220D02*
X0346257Y0299751D01*
X0347135Y0311066D02*
X0346518Y0311683D01*
X0345284Y0311683D01*
X0348350Y0311683D02*
X0350201Y0311683D01*
X0350819Y0311066D01*
X0351429Y0314014D02*
X0352046Y0314631D01*
X0352046Y0315866D01*
X0351429Y0316483D01*
X0350195Y0316483D01*
X0349578Y0315866D01*
X0349578Y0315248D01*
X0352046Y0315248D01*
X0353261Y0315866D02*
X0353261Y0314014D01*
X0351429Y0314014D02*
X0350195Y0314014D01*
X0353261Y0315866D02*
X0353878Y0316483D01*
X0355729Y0316483D01*
X0355729Y0314014D01*
X0355112Y0313534D02*
X0355112Y0312917D01*
X0356944Y0313397D02*
X0356944Y0316483D01*
X0358795Y0316483D01*
X0359413Y0315866D01*
X0359413Y0314631D01*
X0358795Y0314014D01*
X0356944Y0314014D01*
X0356944Y0313397D02*
X0357561Y0312780D01*
X0358178Y0312780D01*
X0359413Y0311683D02*
X0359413Y0309831D01*
X0358795Y0309214D01*
X0360627Y0309831D02*
X0361244Y0309214D01*
X0362479Y0309214D01*
X0363096Y0309831D01*
X0363109Y0308777D02*
X0364343Y0308777D01*
X0363726Y0308777D02*
X0363726Y0305074D01*
X0364343Y0305074D02*
X0363109Y0305074D01*
X0361888Y0305074D02*
X0361888Y0308777D01*
X0359419Y0305074D01*
X0360627Y0309831D02*
X0360627Y0310448D01*
X0361244Y0311066D01*
X0362479Y0311066D01*
X0363096Y0311683D01*
X0363096Y0312300D01*
X0362479Y0312917D01*
X0361244Y0312917D01*
X0360627Y0312300D01*
X0360627Y0314014D02*
X0362479Y0314014D01*
X0363096Y0314631D01*
X0362479Y0315248D01*
X0360627Y0315248D01*
X0360627Y0315866D02*
X0360627Y0314014D01*
X0360627Y0315866D02*
X0361244Y0316483D01*
X0362479Y0316483D01*
X0364310Y0317717D02*
X0365545Y0316483D01*
X0366779Y0317717D01*
X0366779Y0314014D01*
X0364310Y0314014D02*
X0364310Y0317717D01*
X0345291Y0317717D02*
X0345291Y0318334D01*
X0317269Y0316847D02*
X0317269Y0313144D01*
X0314800Y0313144D02*
X0314800Y0316847D01*
X0316035Y0315613D01*
X0317269Y0316847D01*
X0312969Y0315613D02*
X0311734Y0315613D01*
X0311117Y0314996D01*
X0311117Y0313144D01*
X0312969Y0313144D01*
X0313586Y0313761D01*
X0312969Y0314378D01*
X0311117Y0314378D01*
X0309903Y0313761D02*
X0309903Y0314996D01*
X0309285Y0315613D01*
X0307434Y0315613D01*
X0307434Y0312527D01*
X0308051Y0311910D01*
X0308668Y0311910D01*
X0309285Y0313144D02*
X0307434Y0313144D01*
X0306219Y0313144D02*
X0306219Y0315613D01*
X0304368Y0315613D01*
X0303751Y0314996D01*
X0303751Y0313144D01*
X0302536Y0313761D02*
X0302536Y0314996D01*
X0301919Y0315613D01*
X0300685Y0315613D01*
X0300068Y0314996D01*
X0300068Y0314378D01*
X0302536Y0314378D01*
X0302536Y0313761D02*
X0301919Y0313144D01*
X0300685Y0313144D01*
X0300691Y0310813D02*
X0298840Y0310813D01*
X0297625Y0310196D02*
X0297008Y0310813D01*
X0295774Y0310813D01*
X0295157Y0310196D01*
X0295157Y0308344D01*
X0295526Y0307967D02*
X0295526Y0304881D01*
X0294908Y0304264D01*
X0293674Y0304264D01*
X0293057Y0304881D01*
X0293057Y0307967D01*
X0291842Y0307967D02*
X0289374Y0307967D01*
X0290608Y0307967D02*
X0290608Y0304264D01*
X0294298Y0301967D02*
X0294298Y0298264D01*
X0295512Y0300116D02*
X0297981Y0300116D01*
X0296747Y0301350D02*
X0296747Y0298881D01*
X0293070Y0300116D02*
X0290601Y0300116D01*
X0296740Y0304881D02*
X0296740Y0307350D01*
X0297357Y0307967D01*
X0298592Y0307967D01*
X0299209Y0307350D01*
X0299209Y0304881D01*
X0298592Y0304264D01*
X0297357Y0304264D01*
X0296740Y0304881D01*
X0297625Y0308344D02*
X0297625Y0312047D01*
X0297619Y0313144D02*
X0298236Y0313761D01*
X0298236Y0316230D01*
X0298853Y0315613D02*
X0297619Y0315613D01*
X0296398Y0315613D02*
X0295781Y0315613D01*
X0295781Y0313144D01*
X0296398Y0313144D02*
X0295163Y0313144D01*
X0293942Y0313761D02*
X0293325Y0313144D01*
X0291474Y0313144D01*
X0291474Y0315613D02*
X0293325Y0315613D01*
X0293942Y0314996D01*
X0293942Y0313761D01*
X0295781Y0316847D02*
X0295781Y0317464D01*
X0300691Y0310813D02*
X0301309Y0310196D01*
X0301309Y0308961D01*
X0300691Y0308344D01*
X0298840Y0308344D01*
X0302530Y0308344D02*
X0303147Y0308961D01*
X0303147Y0311430D01*
X0303764Y0310813D02*
X0302530Y0310813D01*
X0305602Y0310813D02*
X0305602Y0308344D01*
X0306219Y0308344D02*
X0304985Y0308344D01*
X0307434Y0308961D02*
X0307434Y0310813D01*
X0306219Y0310813D02*
X0305602Y0310813D01*
X0305602Y0312047D02*
X0305602Y0312664D01*
X0309285Y0313144D02*
X0309903Y0313761D01*
X0311734Y0312047D02*
X0312969Y0312047D01*
X0313586Y0311430D01*
X0313586Y0310813D01*
X0312969Y0310196D01*
X0311734Y0310196D01*
X0311117Y0309578D01*
X0311117Y0308961D01*
X0311734Y0308344D01*
X0312969Y0308344D01*
X0313586Y0308961D01*
X0313599Y0307907D02*
X0314833Y0307907D01*
X0314216Y0307907D02*
X0314216Y0304204D01*
X0314833Y0304204D02*
X0313599Y0304204D01*
X0312378Y0304204D02*
X0312378Y0307907D01*
X0309909Y0304204D01*
X0309909Y0307907D01*
X0309285Y0308344D02*
X0308668Y0308961D01*
X0308051Y0308344D01*
X0307434Y0308961D01*
X0309285Y0308344D02*
X0309903Y0308961D01*
X0309903Y0310813D01*
X0311117Y0311430D02*
X0311734Y0312047D01*
X0312378Y0301907D02*
X0312378Y0298204D01*
X0313592Y0300056D02*
X0316061Y0300056D01*
X0314827Y0301290D02*
X0314827Y0298821D01*
X0311150Y0300056D02*
X0308681Y0300056D01*
X0270289Y0313304D02*
X0270289Y0317007D01*
X0269055Y0315773D01*
X0267820Y0317007D01*
X0267820Y0313304D01*
X0266606Y0313921D02*
X0265989Y0314538D01*
X0264137Y0314538D01*
X0264137Y0315156D02*
X0264137Y0313304D01*
X0265989Y0313304D01*
X0266606Y0313921D01*
X0265989Y0312207D02*
X0266606Y0311590D01*
X0266606Y0310973D01*
X0265989Y0310356D01*
X0264754Y0310356D01*
X0264137Y0309738D01*
X0264137Y0309121D01*
X0264754Y0308504D01*
X0265989Y0308504D01*
X0266606Y0309121D01*
X0266619Y0308067D02*
X0267853Y0308067D01*
X0267236Y0308067D02*
X0267236Y0304364D01*
X0267853Y0304364D02*
X0266619Y0304364D01*
X0265398Y0304364D02*
X0265398Y0308067D01*
X0262929Y0304364D01*
X0262929Y0308067D01*
X0262305Y0308504D02*
X0261688Y0309121D01*
X0261071Y0308504D01*
X0260454Y0309121D01*
X0260454Y0310973D01*
X0259239Y0310973D02*
X0258622Y0310973D01*
X0258622Y0308504D01*
X0259239Y0308504D02*
X0258005Y0308504D01*
X0256167Y0309121D02*
X0255550Y0308504D01*
X0256167Y0309121D02*
X0256167Y0311590D01*
X0256784Y0310973D02*
X0255550Y0310973D01*
X0254329Y0310356D02*
X0254329Y0309121D01*
X0253711Y0308504D01*
X0251860Y0308504D01*
X0251612Y0308127D02*
X0252229Y0307510D01*
X0252229Y0305041D01*
X0251612Y0304424D01*
X0250377Y0304424D01*
X0249760Y0305041D01*
X0249760Y0307510D01*
X0250377Y0308127D01*
X0251612Y0308127D01*
X0250645Y0308504D02*
X0250645Y0312207D01*
X0250639Y0313304D02*
X0251256Y0313921D01*
X0251256Y0316390D01*
X0251873Y0315773D02*
X0250639Y0315773D01*
X0249418Y0315773D02*
X0248801Y0315773D01*
X0248801Y0313304D01*
X0249418Y0313304D02*
X0248183Y0313304D01*
X0246962Y0313921D02*
X0246345Y0313304D01*
X0244494Y0313304D01*
X0244494Y0315773D02*
X0246345Y0315773D01*
X0246962Y0315156D01*
X0246962Y0313921D01*
X0248794Y0310973D02*
X0248177Y0310356D01*
X0248177Y0308504D01*
X0248546Y0308127D02*
X0248546Y0305041D01*
X0247928Y0304424D01*
X0246694Y0304424D01*
X0246077Y0305041D01*
X0246077Y0308127D01*
X0244862Y0308127D02*
X0242394Y0308127D01*
X0243628Y0308127D02*
X0243628Y0304424D01*
X0247318Y0302127D02*
X0247318Y0298424D01*
X0248532Y0300276D02*
X0251001Y0300276D01*
X0249767Y0301510D02*
X0249767Y0299041D01*
X0246090Y0300276D02*
X0243621Y0300276D01*
X0250645Y0310356D02*
X0250028Y0310973D01*
X0248794Y0310973D01*
X0251860Y0310973D02*
X0253711Y0310973D01*
X0254329Y0310356D01*
X0254939Y0313304D02*
X0253705Y0313304D01*
X0254939Y0313304D02*
X0255556Y0313921D01*
X0255556Y0315156D01*
X0254939Y0315773D01*
X0253705Y0315773D01*
X0253088Y0315156D01*
X0253088Y0314538D01*
X0255556Y0314538D01*
X0256771Y0315156D02*
X0256771Y0313304D01*
X0256771Y0315156D02*
X0257388Y0315773D01*
X0259239Y0315773D01*
X0259239Y0313304D01*
X0258622Y0312824D02*
X0258622Y0312207D01*
X0260454Y0312687D02*
X0260454Y0315773D01*
X0262305Y0315773D01*
X0262923Y0315156D01*
X0262923Y0313921D01*
X0262305Y0313304D01*
X0260454Y0313304D01*
X0260454Y0312687D02*
X0261071Y0312070D01*
X0261688Y0312070D01*
X0262923Y0310973D02*
X0262923Y0309121D01*
X0262305Y0308504D01*
X0264137Y0311590D02*
X0264754Y0312207D01*
X0265989Y0312207D01*
X0264137Y0315156D02*
X0264754Y0315773D01*
X0265989Y0315773D01*
X0265398Y0302067D02*
X0265398Y0298364D01*
X0266612Y0300216D02*
X0269081Y0300216D01*
X0267847Y0301450D02*
X0267847Y0298981D01*
X0264170Y0300216D02*
X0261701Y0300216D01*
X0248801Y0317007D02*
X0248801Y0317624D01*
X0223179Y0317127D02*
X0223179Y0313424D01*
X0220710Y0313424D02*
X0220710Y0317127D01*
X0221945Y0315893D01*
X0223179Y0317127D01*
X0218879Y0315893D02*
X0217644Y0315893D01*
X0217027Y0315276D01*
X0217027Y0313424D01*
X0218879Y0313424D01*
X0219496Y0314041D01*
X0218879Y0314658D01*
X0217027Y0314658D01*
X0215813Y0314041D02*
X0215195Y0313424D01*
X0213344Y0313424D01*
X0213344Y0312807D02*
X0213344Y0315893D01*
X0215195Y0315893D01*
X0215813Y0315276D01*
X0215813Y0314041D01*
X0214578Y0312190D02*
X0213961Y0312190D01*
X0213344Y0312807D01*
X0212129Y0313424D02*
X0212129Y0315893D01*
X0210278Y0315893D01*
X0209661Y0315276D01*
X0209661Y0313424D01*
X0208446Y0314041D02*
X0208446Y0315276D01*
X0207829Y0315893D01*
X0206595Y0315893D01*
X0205978Y0315276D01*
X0205978Y0314658D01*
X0208446Y0314658D01*
X0208446Y0314041D02*
X0207829Y0313424D01*
X0206595Y0313424D01*
X0206601Y0311093D02*
X0207219Y0310476D01*
X0207219Y0309241D01*
X0206601Y0308624D01*
X0204750Y0308624D01*
X0204502Y0308247D02*
X0205119Y0307630D01*
X0205119Y0305161D01*
X0204502Y0304544D01*
X0203267Y0304544D01*
X0202650Y0305161D01*
X0202650Y0307630D01*
X0203267Y0308247D01*
X0204502Y0308247D01*
X0203535Y0308624D02*
X0203535Y0312327D01*
X0203529Y0313424D02*
X0204146Y0314041D01*
X0204146Y0316510D01*
X0204763Y0315893D02*
X0203529Y0315893D01*
X0202308Y0315893D02*
X0201691Y0315893D01*
X0201691Y0313424D01*
X0202308Y0313424D02*
X0201073Y0313424D01*
X0199852Y0314041D02*
X0199852Y0315276D01*
X0199235Y0315893D01*
X0197384Y0315893D01*
X0197384Y0313424D02*
X0199235Y0313424D01*
X0199852Y0314041D01*
X0201684Y0311093D02*
X0201067Y0310476D01*
X0201067Y0308624D01*
X0201436Y0308247D02*
X0201436Y0305161D01*
X0200818Y0304544D01*
X0199584Y0304544D01*
X0198967Y0305161D01*
X0198967Y0308247D01*
X0197752Y0308247D02*
X0195284Y0308247D01*
X0196518Y0308247D02*
X0196518Y0304544D01*
X0200208Y0302247D02*
X0200208Y0298544D01*
X0201422Y0300396D02*
X0203891Y0300396D01*
X0202657Y0301630D02*
X0202657Y0299161D01*
X0198980Y0300396D02*
X0196511Y0300396D01*
X0203535Y0310476D02*
X0202918Y0311093D01*
X0201684Y0311093D01*
X0204750Y0311093D02*
X0206601Y0311093D01*
X0208440Y0311093D02*
X0209674Y0311093D01*
X0209057Y0311710D02*
X0209057Y0309241D01*
X0208440Y0308624D01*
X0210895Y0308624D02*
X0212129Y0308624D01*
X0211512Y0308624D02*
X0211512Y0311093D01*
X0212129Y0311093D01*
X0213344Y0311093D02*
X0213344Y0309241D01*
X0213961Y0308624D01*
X0214578Y0309241D01*
X0215195Y0308624D01*
X0215813Y0309241D01*
X0215813Y0311093D01*
X0217027Y0311710D02*
X0217644Y0312327D01*
X0218879Y0312327D01*
X0219496Y0311710D01*
X0219496Y0311093D01*
X0218879Y0310476D01*
X0217644Y0310476D01*
X0217027Y0309858D01*
X0217027Y0309241D01*
X0217644Y0308624D01*
X0218879Y0308624D01*
X0219496Y0309241D01*
X0219509Y0308187D02*
X0220743Y0308187D01*
X0220126Y0308187D02*
X0220126Y0304484D01*
X0220743Y0304484D02*
X0219509Y0304484D01*
X0218288Y0304484D02*
X0218288Y0308187D01*
X0215819Y0304484D01*
X0215819Y0308187D01*
X0211512Y0312327D02*
X0211512Y0312944D01*
X0201691Y0317127D02*
X0201691Y0317744D01*
X0218288Y0302187D02*
X0218288Y0298484D01*
X0219502Y0300336D02*
X0221971Y0300336D01*
X0220737Y0301570D02*
X0220737Y0299101D01*
X0217060Y0300336D02*
X0214591Y0300336D01*
X0175721Y0299596D02*
X0173252Y0299596D01*
X0174487Y0300830D02*
X0174487Y0298361D01*
X0172038Y0297744D02*
X0172038Y0301447D01*
X0170810Y0299596D02*
X0168341Y0299596D01*
X0169569Y0303744D02*
X0169569Y0307447D01*
X0168945Y0307884D02*
X0168328Y0308501D01*
X0167711Y0307884D01*
X0167094Y0308501D01*
X0167094Y0310353D01*
X0165879Y0310353D02*
X0165262Y0310353D01*
X0165262Y0307884D01*
X0165879Y0307884D02*
X0164645Y0307884D01*
X0162807Y0308501D02*
X0162190Y0307884D01*
X0162807Y0308501D02*
X0162807Y0310970D01*
X0163424Y0310353D02*
X0162190Y0310353D01*
X0160969Y0309736D02*
X0160969Y0308501D01*
X0160351Y0307884D01*
X0158500Y0307884D01*
X0158252Y0307507D02*
X0158869Y0306890D01*
X0158869Y0304421D01*
X0158252Y0303804D01*
X0157017Y0303804D01*
X0156400Y0304421D01*
X0156400Y0306890D01*
X0157017Y0307507D01*
X0158252Y0307507D01*
X0157285Y0307884D02*
X0157285Y0311587D01*
X0157279Y0312684D02*
X0157896Y0313301D01*
X0157896Y0315770D01*
X0158513Y0315153D02*
X0157279Y0315153D01*
X0156058Y0315153D02*
X0155441Y0315153D01*
X0155441Y0312684D01*
X0156058Y0312684D02*
X0154823Y0312684D01*
X0153602Y0313301D02*
X0153602Y0314536D01*
X0152985Y0315153D01*
X0151134Y0315153D01*
X0151134Y0312684D02*
X0152985Y0312684D01*
X0153602Y0313301D01*
X0155434Y0310353D02*
X0154817Y0309736D01*
X0154817Y0307884D01*
X0155186Y0307507D02*
X0155186Y0304421D01*
X0154568Y0303804D01*
X0153334Y0303804D01*
X0152717Y0304421D01*
X0152717Y0307507D01*
X0151502Y0307507D02*
X0149034Y0307507D01*
X0150268Y0307507D02*
X0150268Y0303804D01*
X0150261Y0299656D02*
X0152730Y0299656D01*
X0153958Y0301507D02*
X0153958Y0297804D01*
X0155172Y0299656D02*
X0157641Y0299656D01*
X0156407Y0300890D02*
X0156407Y0298421D01*
X0157285Y0309736D02*
X0156668Y0310353D01*
X0155434Y0310353D01*
X0158500Y0310353D02*
X0160351Y0310353D01*
X0160969Y0309736D01*
X0161579Y0312684D02*
X0162196Y0313301D01*
X0162196Y0314536D01*
X0161579Y0315153D01*
X0160345Y0315153D01*
X0159728Y0314536D01*
X0159728Y0313918D01*
X0162196Y0313918D01*
X0163411Y0314536D02*
X0163411Y0312684D01*
X0161579Y0312684D02*
X0160345Y0312684D01*
X0163411Y0314536D02*
X0164028Y0315153D01*
X0165879Y0315153D01*
X0165879Y0312684D01*
X0165262Y0312204D02*
X0165262Y0311587D01*
X0167094Y0312067D02*
X0167094Y0315153D01*
X0168945Y0315153D01*
X0169563Y0314536D01*
X0169563Y0313301D01*
X0168945Y0312684D01*
X0167094Y0312684D01*
X0167094Y0312067D02*
X0167711Y0311450D01*
X0168328Y0311450D01*
X0169563Y0310353D02*
X0169563Y0308501D01*
X0168945Y0307884D01*
X0170777Y0308501D02*
X0171394Y0307884D01*
X0172629Y0307884D01*
X0173246Y0308501D01*
X0173259Y0307447D02*
X0174493Y0307447D01*
X0173876Y0307447D02*
X0173876Y0303744D01*
X0174493Y0303744D02*
X0173259Y0303744D01*
X0172038Y0303744D02*
X0172038Y0307447D01*
X0169569Y0303744D01*
X0170777Y0308501D02*
X0170777Y0309118D01*
X0171394Y0309736D01*
X0172629Y0309736D01*
X0173246Y0310353D01*
X0173246Y0310970D01*
X0172629Y0311587D01*
X0171394Y0311587D01*
X0170777Y0310970D01*
X0170777Y0312684D02*
X0172629Y0312684D01*
X0173246Y0313301D01*
X0172629Y0313918D01*
X0170777Y0313918D01*
X0170777Y0314536D02*
X0170777Y0312684D01*
X0170777Y0314536D02*
X0171394Y0315153D01*
X0172629Y0315153D01*
X0174460Y0316387D02*
X0174460Y0312684D01*
X0176929Y0312684D02*
X0176929Y0316387D01*
X0175695Y0315153D01*
X0174460Y0316387D01*
X0155441Y0316387D02*
X0155441Y0317004D01*
X0130609Y0315917D02*
X0130609Y0312214D01*
X0128140Y0312214D02*
X0128140Y0315917D01*
X0129375Y0314683D01*
X0130609Y0315917D01*
X0126309Y0314683D02*
X0125074Y0314683D01*
X0124457Y0314066D01*
X0124457Y0312214D01*
X0126309Y0312214D01*
X0126926Y0312831D01*
X0126309Y0313448D01*
X0124457Y0313448D01*
X0123243Y0312831D02*
X0122625Y0312214D01*
X0120774Y0312214D01*
X0120774Y0311597D02*
X0120774Y0314683D01*
X0122625Y0314683D01*
X0123243Y0314066D01*
X0123243Y0312831D01*
X0122008Y0310980D02*
X0121391Y0310980D01*
X0120774Y0311597D01*
X0119559Y0312214D02*
X0119559Y0314683D01*
X0117708Y0314683D01*
X0117091Y0314066D01*
X0117091Y0312214D01*
X0115876Y0312831D02*
X0115876Y0314066D01*
X0115259Y0314683D01*
X0114025Y0314683D01*
X0113408Y0314066D01*
X0113408Y0313448D01*
X0115876Y0313448D01*
X0115876Y0312831D02*
X0115259Y0312214D01*
X0114025Y0312214D01*
X0114031Y0309883D02*
X0114649Y0309266D01*
X0114649Y0308031D01*
X0114031Y0307414D01*
X0112180Y0307414D01*
X0111932Y0307037D02*
X0112549Y0306420D01*
X0112549Y0303951D01*
X0111932Y0303334D01*
X0110697Y0303334D01*
X0110080Y0303951D01*
X0110080Y0306420D01*
X0110697Y0307037D01*
X0111932Y0307037D01*
X0110965Y0307414D02*
X0110965Y0311117D01*
X0110959Y0312214D02*
X0111576Y0312831D01*
X0111576Y0315300D01*
X0112193Y0314683D02*
X0110959Y0314683D01*
X0109738Y0314683D02*
X0109121Y0314683D01*
X0109121Y0312214D01*
X0109738Y0312214D02*
X0108503Y0312214D01*
X0107282Y0312831D02*
X0106665Y0312214D01*
X0104814Y0312214D01*
X0104814Y0314683D02*
X0106665Y0314683D01*
X0107282Y0314066D01*
X0107282Y0312831D01*
X0109114Y0309883D02*
X0108497Y0309266D01*
X0108497Y0307414D01*
X0108866Y0307037D02*
X0108866Y0303951D01*
X0108248Y0303334D01*
X0107014Y0303334D01*
X0106397Y0303951D01*
X0106397Y0307037D01*
X0105182Y0307037D02*
X0102714Y0307037D01*
X0103948Y0307037D02*
X0103948Y0303334D01*
X0103941Y0299186D02*
X0106410Y0299186D01*
X0107638Y0301037D02*
X0107638Y0297334D01*
X0108852Y0299186D02*
X0111321Y0299186D01*
X0110087Y0300420D02*
X0110087Y0297951D01*
X0115870Y0307414D02*
X0116487Y0308031D01*
X0116487Y0310500D01*
X0117104Y0309883D02*
X0115870Y0309883D01*
X0114031Y0309883D02*
X0112180Y0309883D01*
X0110965Y0309266D02*
X0110348Y0309883D01*
X0109114Y0309883D01*
X0109121Y0315917D02*
X0109121Y0316534D01*
X0118942Y0311734D02*
X0118942Y0311117D01*
X0118942Y0309883D02*
X0118942Y0307414D01*
X0119559Y0307414D02*
X0118325Y0307414D01*
X0120774Y0308031D02*
X0120774Y0309883D01*
X0119559Y0309883D02*
X0118942Y0309883D01*
X0120774Y0308031D02*
X0121391Y0307414D01*
X0122008Y0308031D01*
X0122625Y0307414D01*
X0123243Y0308031D01*
X0123243Y0309883D01*
X0124457Y0310500D02*
X0125074Y0311117D01*
X0126309Y0311117D01*
X0126926Y0310500D01*
X0126926Y0309883D01*
X0126309Y0309266D01*
X0125074Y0309266D01*
X0124457Y0308648D01*
X0124457Y0308031D01*
X0125074Y0307414D01*
X0126309Y0307414D01*
X0126926Y0308031D01*
X0126939Y0306977D02*
X0128173Y0306977D01*
X0127556Y0306977D02*
X0127556Y0303274D01*
X0128173Y0303274D02*
X0126939Y0303274D01*
X0125718Y0303274D02*
X0125718Y0306977D01*
X0123249Y0303274D01*
X0123249Y0306977D01*
X0125718Y0300977D02*
X0125718Y0297274D01*
X0126932Y0299126D02*
X0129401Y0299126D01*
X0128167Y0300360D02*
X0128167Y0297891D01*
X0124490Y0299126D02*
X0122021Y0299126D01*
X0084849Y0312594D02*
X0084849Y0316297D01*
X0083615Y0315063D01*
X0082380Y0316297D01*
X0082380Y0312594D01*
X0081166Y0313211D02*
X0080549Y0313828D01*
X0078697Y0313828D01*
X0078697Y0314446D02*
X0078697Y0312594D01*
X0080549Y0312594D01*
X0081166Y0313211D01*
X0080549Y0311497D02*
X0081166Y0310880D01*
X0081166Y0310263D01*
X0080549Y0309646D01*
X0079314Y0309646D01*
X0078697Y0309028D01*
X0078697Y0308411D01*
X0079314Y0307794D01*
X0080549Y0307794D01*
X0081166Y0308411D01*
X0081179Y0307357D02*
X0082413Y0307357D01*
X0081796Y0307357D02*
X0081796Y0303654D01*
X0082413Y0303654D02*
X0081179Y0303654D01*
X0079958Y0303654D02*
X0079958Y0307357D01*
X0077489Y0303654D01*
X0077489Y0307357D01*
X0076865Y0307794D02*
X0076248Y0308411D01*
X0075631Y0307794D01*
X0075014Y0308411D01*
X0075014Y0310263D01*
X0073799Y0310263D02*
X0073182Y0310263D01*
X0073182Y0307794D01*
X0073799Y0307794D02*
X0072565Y0307794D01*
X0070727Y0308411D02*
X0070110Y0307794D01*
X0070727Y0308411D02*
X0070727Y0310880D01*
X0071344Y0310263D02*
X0070110Y0310263D01*
X0068889Y0309646D02*
X0068889Y0308411D01*
X0068271Y0307794D01*
X0066420Y0307794D01*
X0066172Y0307417D02*
X0064937Y0307417D01*
X0064320Y0306800D01*
X0064320Y0304331D01*
X0064937Y0303714D01*
X0066172Y0303714D01*
X0066789Y0304331D01*
X0066789Y0306800D01*
X0066172Y0307417D01*
X0065205Y0307794D02*
X0065205Y0311497D01*
X0065199Y0312594D02*
X0065816Y0313211D01*
X0065816Y0315680D01*
X0066433Y0315063D02*
X0065199Y0315063D01*
X0063978Y0315063D02*
X0063361Y0315063D01*
X0063361Y0312594D01*
X0063978Y0312594D02*
X0062743Y0312594D01*
X0061522Y0313211D02*
X0061522Y0314446D01*
X0060905Y0315063D01*
X0059054Y0315063D01*
X0059054Y0312594D02*
X0060905Y0312594D01*
X0061522Y0313211D01*
X0063354Y0310263D02*
X0062737Y0309646D01*
X0062737Y0307794D01*
X0063106Y0307417D02*
X0063106Y0304331D01*
X0062488Y0303714D01*
X0061254Y0303714D01*
X0060637Y0304331D01*
X0060637Y0307417D01*
X0059422Y0307417D02*
X0056954Y0307417D01*
X0058188Y0307417D02*
X0058188Y0303714D01*
X0058181Y0299566D02*
X0060650Y0299566D01*
X0061878Y0301417D02*
X0061878Y0297714D01*
X0063092Y0299566D02*
X0065561Y0299566D01*
X0064327Y0300800D02*
X0064327Y0298331D01*
X0065205Y0309646D02*
X0064588Y0310263D01*
X0063354Y0310263D01*
X0066420Y0310263D02*
X0068271Y0310263D01*
X0068889Y0309646D01*
X0069499Y0312594D02*
X0068265Y0312594D01*
X0069499Y0312594D02*
X0070116Y0313211D01*
X0070116Y0314446D01*
X0069499Y0315063D01*
X0068265Y0315063D01*
X0067648Y0314446D01*
X0067648Y0313828D01*
X0070116Y0313828D01*
X0071331Y0314446D02*
X0071331Y0312594D01*
X0071331Y0314446D02*
X0071948Y0315063D01*
X0073799Y0315063D01*
X0073799Y0312594D01*
X0073182Y0312114D02*
X0073182Y0311497D01*
X0075014Y0311977D02*
X0075014Y0315063D01*
X0076865Y0315063D01*
X0077483Y0314446D01*
X0077483Y0313211D01*
X0076865Y0312594D01*
X0075014Y0312594D01*
X0075014Y0311977D02*
X0075631Y0311360D01*
X0076248Y0311360D01*
X0077483Y0310263D02*
X0077483Y0308411D01*
X0076865Y0307794D01*
X0078697Y0310880D02*
X0079314Y0311497D01*
X0080549Y0311497D01*
X0078697Y0314446D02*
X0079314Y0315063D01*
X0080549Y0315063D01*
X0079958Y0301357D02*
X0079958Y0297654D01*
X0081172Y0299506D02*
X0083641Y0299506D01*
X0082407Y0300740D02*
X0082407Y0298271D01*
X0078730Y0299506D02*
X0076261Y0299506D01*
X0063361Y0316297D02*
X0063361Y0316914D01*
X0040369Y0316457D02*
X0040369Y0312754D01*
X0037900Y0312754D02*
X0037900Y0316457D01*
X0039135Y0315223D01*
X0040369Y0316457D01*
X0036069Y0315223D02*
X0034834Y0315223D01*
X0034217Y0314606D01*
X0034217Y0312754D01*
X0036069Y0312754D01*
X0036686Y0313371D01*
X0036069Y0313988D01*
X0034217Y0313988D01*
X0033003Y0313371D02*
X0032385Y0312754D01*
X0030534Y0312754D01*
X0030534Y0312137D02*
X0030534Y0315223D01*
X0032385Y0315223D01*
X0033003Y0314606D01*
X0033003Y0313371D01*
X0031768Y0311520D02*
X0031151Y0311520D01*
X0030534Y0312137D01*
X0029319Y0312754D02*
X0029319Y0315223D01*
X0027468Y0315223D01*
X0026851Y0314606D01*
X0026851Y0312754D01*
X0025636Y0313371D02*
X0025636Y0314606D01*
X0025019Y0315223D01*
X0023785Y0315223D01*
X0023168Y0314606D01*
X0023168Y0313988D01*
X0025636Y0313988D01*
X0025636Y0313371D02*
X0025019Y0312754D01*
X0023785Y0312754D01*
X0023791Y0310423D02*
X0021940Y0310423D01*
X0020725Y0309806D02*
X0020108Y0310423D01*
X0018874Y0310423D01*
X0018257Y0309806D01*
X0018257Y0307954D01*
X0018626Y0307577D02*
X0018626Y0304491D01*
X0018008Y0303874D01*
X0016774Y0303874D01*
X0016157Y0304491D01*
X0016157Y0307577D01*
X0014942Y0307577D02*
X0012474Y0307577D01*
X0013708Y0307577D02*
X0013708Y0303874D01*
X0013701Y0299726D02*
X0016170Y0299726D01*
X0017398Y0301577D02*
X0017398Y0297874D01*
X0018612Y0299726D02*
X0021081Y0299726D01*
X0019847Y0300960D02*
X0019847Y0298491D01*
X0020457Y0303874D02*
X0019840Y0304491D01*
X0019840Y0306960D01*
X0020457Y0307577D01*
X0021692Y0307577D01*
X0022309Y0306960D01*
X0022309Y0304491D01*
X0021692Y0303874D01*
X0020457Y0303874D01*
X0020725Y0307954D02*
X0020725Y0311657D01*
X0020719Y0312754D02*
X0021336Y0313371D01*
X0021336Y0315840D01*
X0021953Y0315223D02*
X0020719Y0315223D01*
X0019498Y0315223D02*
X0018881Y0315223D01*
X0018881Y0312754D01*
X0019498Y0312754D02*
X0018263Y0312754D01*
X0017042Y0313371D02*
X0016425Y0312754D01*
X0014574Y0312754D01*
X0014574Y0315223D02*
X0016425Y0315223D01*
X0017042Y0314606D01*
X0017042Y0313371D01*
X0018881Y0316457D02*
X0018881Y0317074D01*
X0023791Y0310423D02*
X0024409Y0309806D01*
X0024409Y0308571D01*
X0023791Y0307954D01*
X0021940Y0307954D01*
X0025630Y0307954D02*
X0026247Y0308571D01*
X0026247Y0311040D01*
X0026864Y0310423D02*
X0025630Y0310423D01*
X0028702Y0310423D02*
X0028702Y0307954D01*
X0029319Y0307954D02*
X0028085Y0307954D01*
X0030534Y0308571D02*
X0030534Y0310423D01*
X0029319Y0310423D02*
X0028702Y0310423D01*
X0028702Y0311657D02*
X0028702Y0312274D01*
X0030534Y0308571D02*
X0031151Y0307954D01*
X0031768Y0308571D01*
X0032385Y0307954D01*
X0033003Y0308571D01*
X0033003Y0310423D01*
X0034217Y0311040D02*
X0034834Y0311657D01*
X0036069Y0311657D01*
X0036686Y0311040D01*
X0036686Y0310423D01*
X0036069Y0309806D01*
X0034834Y0309806D01*
X0034217Y0309188D01*
X0034217Y0308571D01*
X0034834Y0307954D01*
X0036069Y0307954D01*
X0036686Y0308571D01*
X0036699Y0307517D02*
X0037933Y0307517D01*
X0037316Y0307517D02*
X0037316Y0303814D01*
X0037933Y0303814D02*
X0036699Y0303814D01*
X0035478Y0303814D02*
X0035478Y0307517D01*
X0033009Y0303814D01*
X0033009Y0307517D01*
X0035478Y0301517D02*
X0035478Y0297814D01*
X0036692Y0299666D02*
X0039161Y0299666D01*
X0037927Y0300900D02*
X0037927Y0298431D01*
X0034250Y0299666D02*
X0031781Y0299666D01*
X0038040Y0267617D02*
X0038040Y0263914D01*
X0036826Y0264531D02*
X0036209Y0265148D01*
X0034357Y0265148D01*
X0034357Y0265766D02*
X0034357Y0263914D01*
X0036209Y0263914D01*
X0036826Y0264531D01*
X0036209Y0262817D02*
X0036826Y0262200D01*
X0036826Y0261583D01*
X0036209Y0260966D01*
X0034974Y0260966D01*
X0034357Y0260348D01*
X0034357Y0259731D01*
X0034974Y0259114D01*
X0036209Y0259114D01*
X0036826Y0259731D01*
X0036839Y0258677D02*
X0038073Y0258677D01*
X0037456Y0258677D02*
X0037456Y0254974D01*
X0038073Y0254974D02*
X0036839Y0254974D01*
X0035618Y0254974D02*
X0035618Y0258677D01*
X0033149Y0254974D01*
X0033149Y0258677D01*
X0032525Y0259114D02*
X0031908Y0259731D01*
X0031291Y0259114D01*
X0030674Y0259731D01*
X0030674Y0261583D01*
X0029459Y0261583D02*
X0028842Y0261583D01*
X0028842Y0259114D01*
X0029459Y0259114D02*
X0028225Y0259114D01*
X0026387Y0259731D02*
X0026387Y0262200D01*
X0027004Y0261583D02*
X0025770Y0261583D01*
X0024549Y0260966D02*
X0024549Y0259731D01*
X0023931Y0259114D01*
X0022080Y0259114D01*
X0021832Y0258737D02*
X0022449Y0258120D01*
X0022449Y0255651D01*
X0021832Y0255034D01*
X0020597Y0255034D01*
X0019980Y0255651D01*
X0019980Y0258120D01*
X0020597Y0258737D01*
X0021832Y0258737D01*
X0020865Y0259114D02*
X0020865Y0262817D01*
X0020859Y0263914D02*
X0021476Y0264531D01*
X0021476Y0267000D01*
X0022093Y0266383D02*
X0020859Y0266383D01*
X0019638Y0266383D02*
X0019021Y0266383D01*
X0019021Y0263914D01*
X0019638Y0263914D02*
X0018403Y0263914D01*
X0017182Y0264531D02*
X0016565Y0263914D01*
X0014714Y0263914D01*
X0014714Y0266383D02*
X0016565Y0266383D01*
X0017182Y0265766D01*
X0017182Y0264531D01*
X0019014Y0261583D02*
X0018397Y0260966D01*
X0018397Y0259114D01*
X0018766Y0258737D02*
X0018766Y0255651D01*
X0018148Y0255034D01*
X0016914Y0255034D01*
X0016297Y0255651D01*
X0016297Y0258737D01*
X0015082Y0258737D02*
X0012614Y0258737D01*
X0013848Y0258737D02*
X0013848Y0255034D01*
X0013841Y0250886D02*
X0016310Y0250886D01*
X0017538Y0252737D02*
X0017538Y0249034D01*
X0018752Y0250886D02*
X0021221Y0250886D01*
X0019987Y0252120D02*
X0019987Y0249651D01*
X0025770Y0259114D02*
X0026387Y0259731D01*
X0024549Y0260966D02*
X0023931Y0261583D01*
X0022080Y0261583D01*
X0020865Y0260966D02*
X0020248Y0261583D01*
X0019014Y0261583D01*
X0023925Y0263914D02*
X0025159Y0263914D01*
X0025776Y0264531D01*
X0025776Y0265766D01*
X0025159Y0266383D01*
X0023925Y0266383D01*
X0023308Y0265766D01*
X0023308Y0265148D01*
X0025776Y0265148D01*
X0026991Y0265766D02*
X0026991Y0263914D01*
X0026991Y0265766D02*
X0027608Y0266383D01*
X0029459Y0266383D01*
X0029459Y0263914D01*
X0028842Y0263434D02*
X0028842Y0262817D01*
X0030674Y0263297D02*
X0030674Y0266383D01*
X0032525Y0266383D01*
X0033143Y0265766D01*
X0033143Y0264531D01*
X0032525Y0263914D01*
X0030674Y0263914D01*
X0030674Y0263297D02*
X0031291Y0262680D01*
X0031908Y0262680D01*
X0033143Y0261583D02*
X0033143Y0259731D01*
X0032525Y0259114D01*
X0034357Y0262200D02*
X0034974Y0262817D01*
X0036209Y0262817D01*
X0034357Y0265766D02*
X0034974Y0266383D01*
X0036209Y0266383D01*
X0038040Y0267617D02*
X0039275Y0266383D01*
X0040509Y0267617D01*
X0040509Y0263914D01*
X0038067Y0252060D02*
X0038067Y0249591D01*
X0039301Y0250826D02*
X0036832Y0250826D01*
X0035618Y0252677D02*
X0035618Y0248974D01*
X0034390Y0250826D02*
X0031921Y0250826D01*
X0019021Y0267617D02*
X0019021Y0268234D01*
X0057094Y0258577D02*
X0059562Y0258577D01*
X0060777Y0258577D02*
X0060777Y0255491D01*
X0061394Y0254874D01*
X0062628Y0254874D01*
X0063246Y0255491D01*
X0063246Y0258577D01*
X0062877Y0258954D02*
X0062877Y0260806D01*
X0063494Y0261423D01*
X0064728Y0261423D01*
X0065345Y0260806D01*
X0066560Y0261423D02*
X0068411Y0261423D01*
X0069029Y0260806D01*
X0069029Y0259571D01*
X0068411Y0258954D01*
X0066560Y0258954D01*
X0066312Y0258577D02*
X0066929Y0257960D01*
X0066929Y0255491D01*
X0066312Y0254874D01*
X0065077Y0254874D01*
X0064460Y0255491D01*
X0064460Y0257960D01*
X0065077Y0258577D01*
X0066312Y0258577D01*
X0065345Y0258954D02*
X0065345Y0262657D01*
X0065339Y0263754D02*
X0065956Y0264371D01*
X0065956Y0266840D01*
X0066573Y0266223D02*
X0065339Y0266223D01*
X0064118Y0266223D02*
X0063501Y0266223D01*
X0063501Y0263754D01*
X0064118Y0263754D02*
X0062883Y0263754D01*
X0061662Y0264371D02*
X0061045Y0263754D01*
X0059194Y0263754D01*
X0059194Y0266223D02*
X0061045Y0266223D01*
X0061662Y0265606D01*
X0061662Y0264371D01*
X0063501Y0267457D02*
X0063501Y0268074D01*
X0067788Y0265606D02*
X0067788Y0264988D01*
X0070256Y0264988D01*
X0070256Y0264371D02*
X0070256Y0265606D01*
X0069639Y0266223D01*
X0068405Y0266223D01*
X0067788Y0265606D01*
X0068405Y0263754D02*
X0069639Y0263754D01*
X0070256Y0264371D01*
X0071471Y0263754D02*
X0071471Y0265606D01*
X0072088Y0266223D01*
X0073939Y0266223D01*
X0073939Y0263754D01*
X0073322Y0263274D02*
X0073322Y0262657D01*
X0073322Y0261423D02*
X0073322Y0258954D01*
X0073939Y0258954D02*
X0072705Y0258954D01*
X0070867Y0259571D02*
X0070250Y0258954D01*
X0070867Y0259571D02*
X0070867Y0262040D01*
X0071484Y0261423D02*
X0070250Y0261423D01*
X0073322Y0261423D02*
X0073939Y0261423D01*
X0075154Y0261423D02*
X0075154Y0259571D01*
X0075771Y0258954D01*
X0076388Y0259571D01*
X0077005Y0258954D01*
X0077623Y0259571D01*
X0077623Y0261423D01*
X0078837Y0262040D02*
X0079454Y0262657D01*
X0080689Y0262657D01*
X0081306Y0262040D01*
X0081306Y0261423D01*
X0080689Y0260806D01*
X0079454Y0260806D01*
X0078837Y0260188D01*
X0078837Y0259571D01*
X0079454Y0258954D01*
X0080689Y0258954D01*
X0081306Y0259571D01*
X0081319Y0258517D02*
X0082553Y0258517D01*
X0081936Y0258517D02*
X0081936Y0254814D01*
X0082553Y0254814D02*
X0081319Y0254814D01*
X0080098Y0254814D02*
X0080098Y0258517D01*
X0077629Y0254814D01*
X0077629Y0258517D01*
X0076388Y0262520D02*
X0075771Y0262520D01*
X0075154Y0263137D01*
X0075154Y0266223D01*
X0077005Y0266223D01*
X0077623Y0265606D01*
X0077623Y0264371D01*
X0077005Y0263754D01*
X0075154Y0263754D01*
X0078837Y0263754D02*
X0080689Y0263754D01*
X0081306Y0264371D01*
X0080689Y0264988D01*
X0078837Y0264988D01*
X0078837Y0265606D02*
X0078837Y0263754D01*
X0078837Y0265606D02*
X0079454Y0266223D01*
X0080689Y0266223D01*
X0082520Y0267457D02*
X0082520Y0263754D01*
X0084989Y0263754D02*
X0084989Y0267457D01*
X0083755Y0266223D01*
X0082520Y0267457D01*
X0080098Y0252517D02*
X0080098Y0248814D01*
X0081312Y0250666D02*
X0083781Y0250666D01*
X0082547Y0251900D02*
X0082547Y0249431D01*
X0078870Y0250666D02*
X0076401Y0250666D01*
X0065701Y0250726D02*
X0063232Y0250726D01*
X0064467Y0251960D02*
X0064467Y0249491D01*
X0062018Y0248874D02*
X0062018Y0252577D01*
X0060790Y0250726D02*
X0058321Y0250726D01*
X0058328Y0254874D02*
X0058328Y0258577D01*
X0040579Y0223557D02*
X0039345Y0222323D01*
X0038110Y0223557D01*
X0038110Y0219854D01*
X0036896Y0220471D02*
X0036279Y0221088D01*
X0034427Y0221088D01*
X0034427Y0221706D02*
X0034427Y0219854D01*
X0036279Y0219854D01*
X0036896Y0220471D01*
X0036279Y0218757D02*
X0036896Y0218140D01*
X0036896Y0217523D01*
X0036279Y0216906D01*
X0035044Y0216906D01*
X0034427Y0216288D01*
X0034427Y0215671D01*
X0035044Y0215054D01*
X0036279Y0215054D01*
X0036896Y0215671D01*
X0036909Y0214617D02*
X0038143Y0214617D01*
X0037526Y0214617D02*
X0037526Y0210914D01*
X0038143Y0210914D02*
X0036909Y0210914D01*
X0035688Y0210914D02*
X0035688Y0214617D01*
X0033219Y0210914D01*
X0033219Y0214617D01*
X0032595Y0215054D02*
X0031978Y0215671D01*
X0031361Y0215054D01*
X0030744Y0215671D01*
X0030744Y0217523D01*
X0029529Y0217523D02*
X0028912Y0217523D01*
X0028912Y0215054D01*
X0029529Y0215054D02*
X0028295Y0215054D01*
X0026457Y0215671D02*
X0026457Y0218140D01*
X0027074Y0217523D02*
X0025840Y0217523D01*
X0024619Y0216906D02*
X0024619Y0215671D01*
X0024001Y0215054D01*
X0022150Y0215054D01*
X0021902Y0214677D02*
X0022519Y0214060D01*
X0022519Y0211591D01*
X0021902Y0210974D01*
X0020667Y0210974D01*
X0020050Y0211591D01*
X0020050Y0214060D01*
X0020667Y0214677D01*
X0021902Y0214677D01*
X0020935Y0215054D02*
X0020935Y0218757D01*
X0020929Y0219854D02*
X0021546Y0220471D01*
X0021546Y0222940D01*
X0022163Y0222323D02*
X0020929Y0222323D01*
X0019708Y0222323D02*
X0019091Y0222323D01*
X0019091Y0219854D01*
X0019708Y0219854D02*
X0018473Y0219854D01*
X0017252Y0220471D02*
X0016635Y0219854D01*
X0014784Y0219854D01*
X0014784Y0222323D02*
X0016635Y0222323D01*
X0017252Y0221706D01*
X0017252Y0220471D01*
X0019084Y0217523D02*
X0018467Y0216906D01*
X0018467Y0215054D01*
X0018836Y0214677D02*
X0018836Y0211591D01*
X0018218Y0210974D01*
X0016984Y0210974D01*
X0016367Y0211591D01*
X0016367Y0214677D01*
X0015152Y0214677D02*
X0012684Y0214677D01*
X0013918Y0214677D02*
X0013918Y0210974D01*
X0013911Y0206826D02*
X0016380Y0206826D01*
X0017608Y0208677D02*
X0017608Y0204974D01*
X0018822Y0206826D02*
X0021291Y0206826D01*
X0020057Y0208060D02*
X0020057Y0205591D01*
X0025840Y0215054D02*
X0026457Y0215671D01*
X0024619Y0216906D02*
X0024001Y0217523D01*
X0022150Y0217523D01*
X0020935Y0216906D02*
X0020318Y0217523D01*
X0019084Y0217523D01*
X0023995Y0219854D02*
X0025229Y0219854D01*
X0025846Y0220471D01*
X0025846Y0221706D01*
X0025229Y0222323D01*
X0023995Y0222323D01*
X0023378Y0221706D01*
X0023378Y0221088D01*
X0025846Y0221088D01*
X0027061Y0221706D02*
X0027061Y0219854D01*
X0027061Y0221706D02*
X0027678Y0222323D01*
X0029529Y0222323D01*
X0029529Y0219854D01*
X0028912Y0219374D02*
X0028912Y0218757D01*
X0030744Y0219237D02*
X0030744Y0222323D01*
X0032595Y0222323D01*
X0033213Y0221706D01*
X0033213Y0220471D01*
X0032595Y0219854D01*
X0030744Y0219854D01*
X0030744Y0219237D02*
X0031361Y0218620D01*
X0031978Y0218620D01*
X0033213Y0217523D02*
X0033213Y0215671D01*
X0032595Y0215054D01*
X0034427Y0218140D02*
X0035044Y0218757D01*
X0036279Y0218757D01*
X0034427Y0221706D02*
X0035044Y0222323D01*
X0036279Y0222323D01*
X0040579Y0223557D02*
X0040579Y0219854D01*
X0038137Y0208000D02*
X0038137Y0205531D01*
X0039371Y0206766D02*
X0036902Y0206766D01*
X0035688Y0208617D02*
X0035688Y0204914D01*
X0034460Y0206766D02*
X0031991Y0206766D01*
X0019091Y0223557D02*
X0019091Y0224174D01*
X0103104Y0167397D02*
X0105572Y0167397D01*
X0106787Y0167397D02*
X0106787Y0164311D01*
X0107404Y0163694D01*
X0108638Y0163694D01*
X0109256Y0164311D01*
X0109256Y0167397D01*
X0108887Y0167774D02*
X0108887Y0169626D01*
X0109504Y0170243D01*
X0110738Y0170243D01*
X0111355Y0169626D01*
X0112570Y0170243D02*
X0114421Y0170243D01*
X0115039Y0169626D01*
X0115039Y0168391D01*
X0114421Y0167774D01*
X0112570Y0167774D01*
X0112322Y0167397D02*
X0112939Y0166780D01*
X0112939Y0164311D01*
X0112322Y0163694D01*
X0111087Y0163694D01*
X0110470Y0164311D01*
X0110470Y0166780D01*
X0111087Y0167397D01*
X0112322Y0167397D01*
X0111355Y0167774D02*
X0111355Y0171477D01*
X0111349Y0172574D02*
X0111966Y0173191D01*
X0111966Y0175660D01*
X0112583Y0175043D02*
X0111349Y0175043D01*
X0110128Y0175043D02*
X0109511Y0175043D01*
X0109511Y0172574D01*
X0110128Y0172574D02*
X0108893Y0172574D01*
X0107672Y0173191D02*
X0107055Y0172574D01*
X0105204Y0172574D01*
X0105204Y0175043D02*
X0107055Y0175043D01*
X0107672Y0174426D01*
X0107672Y0173191D01*
X0109511Y0176277D02*
X0109511Y0176894D01*
X0113798Y0174426D02*
X0113798Y0173808D01*
X0116266Y0173808D01*
X0116266Y0173191D02*
X0116266Y0174426D01*
X0115649Y0175043D01*
X0114415Y0175043D01*
X0113798Y0174426D01*
X0114415Y0172574D02*
X0115649Y0172574D01*
X0116266Y0173191D01*
X0117481Y0172574D02*
X0117481Y0174426D01*
X0118098Y0175043D01*
X0119949Y0175043D01*
X0119949Y0172574D01*
X0119332Y0172094D02*
X0119332Y0171477D01*
X0119332Y0170243D02*
X0119332Y0167774D01*
X0119949Y0167774D02*
X0118715Y0167774D01*
X0116877Y0168391D02*
X0116260Y0167774D01*
X0116877Y0168391D02*
X0116877Y0170860D01*
X0117494Y0170243D02*
X0116260Y0170243D01*
X0119332Y0170243D02*
X0119949Y0170243D01*
X0121164Y0170243D02*
X0121164Y0168391D01*
X0121781Y0167774D01*
X0122398Y0168391D01*
X0123015Y0167774D01*
X0123633Y0168391D01*
X0123633Y0170243D01*
X0124847Y0170860D02*
X0125464Y0171477D01*
X0126699Y0171477D01*
X0127316Y0170860D01*
X0127316Y0170243D01*
X0126699Y0169626D01*
X0125464Y0169626D01*
X0124847Y0169008D01*
X0124847Y0168391D01*
X0125464Y0167774D01*
X0126699Y0167774D01*
X0127316Y0168391D01*
X0127329Y0167337D02*
X0128563Y0167337D01*
X0127946Y0167337D02*
X0127946Y0163634D01*
X0128563Y0163634D02*
X0127329Y0163634D01*
X0126108Y0163634D02*
X0126108Y0167337D01*
X0123639Y0163634D01*
X0123639Y0167337D01*
X0122398Y0171340D02*
X0121781Y0171340D01*
X0121164Y0171957D01*
X0121164Y0175043D01*
X0123015Y0175043D01*
X0123633Y0174426D01*
X0123633Y0173191D01*
X0123015Y0172574D01*
X0121164Y0172574D01*
X0124847Y0172574D02*
X0126699Y0172574D01*
X0127316Y0173191D01*
X0126699Y0173808D01*
X0124847Y0173808D01*
X0124847Y0174426D02*
X0124847Y0172574D01*
X0124847Y0174426D02*
X0125464Y0175043D01*
X0126699Y0175043D01*
X0128530Y0176277D02*
X0128530Y0172574D01*
X0130999Y0172574D02*
X0130999Y0176277D01*
X0129765Y0175043D01*
X0128530Y0176277D01*
X0126108Y0161337D02*
X0126108Y0157634D01*
X0127322Y0159486D02*
X0129791Y0159486D01*
X0128557Y0160720D02*
X0128557Y0158251D01*
X0124880Y0159486D02*
X0122411Y0159486D01*
X0111711Y0159546D02*
X0109242Y0159546D01*
X0110477Y0160780D02*
X0110477Y0158311D01*
X0108028Y0157694D02*
X0108028Y0161397D01*
X0106800Y0159546D02*
X0104331Y0159546D01*
X0104338Y0163694D02*
X0104338Y0167397D01*
X0149424Y0167867D02*
X0151892Y0167867D01*
X0153107Y0167867D02*
X0153107Y0164781D01*
X0153724Y0164164D01*
X0154958Y0164164D01*
X0155576Y0164781D01*
X0155576Y0167867D01*
X0155207Y0168244D02*
X0155207Y0170096D01*
X0155824Y0170713D01*
X0157058Y0170713D01*
X0157675Y0170096D01*
X0158890Y0170713D02*
X0160741Y0170713D01*
X0161359Y0170096D01*
X0161359Y0168861D01*
X0160741Y0168244D01*
X0158890Y0168244D01*
X0158642Y0167867D02*
X0159259Y0167250D01*
X0159259Y0164781D01*
X0158642Y0164164D01*
X0157407Y0164164D01*
X0156790Y0164781D01*
X0156790Y0167250D01*
X0157407Y0167867D01*
X0158642Y0167867D01*
X0157675Y0168244D02*
X0157675Y0171947D01*
X0157669Y0173044D02*
X0158286Y0173661D01*
X0158286Y0176130D01*
X0158903Y0175513D02*
X0157669Y0175513D01*
X0156448Y0175513D02*
X0155831Y0175513D01*
X0155831Y0173044D01*
X0156448Y0173044D02*
X0155213Y0173044D01*
X0153992Y0173661D02*
X0153375Y0173044D01*
X0151524Y0173044D01*
X0151524Y0175513D02*
X0153375Y0175513D01*
X0153992Y0174896D01*
X0153992Y0173661D01*
X0155831Y0176747D02*
X0155831Y0177364D01*
X0160118Y0174896D02*
X0160118Y0174278D01*
X0162586Y0174278D01*
X0162586Y0173661D02*
X0162586Y0174896D01*
X0161969Y0175513D01*
X0160735Y0175513D01*
X0160118Y0174896D01*
X0160735Y0173044D02*
X0161969Y0173044D01*
X0162586Y0173661D01*
X0163801Y0173044D02*
X0163801Y0174896D01*
X0164418Y0175513D01*
X0166269Y0175513D01*
X0166269Y0173044D01*
X0165652Y0172564D02*
X0165652Y0171947D01*
X0165652Y0170713D02*
X0165652Y0168244D01*
X0166269Y0168244D02*
X0165035Y0168244D01*
X0163197Y0168861D02*
X0162580Y0168244D01*
X0163197Y0168861D02*
X0163197Y0171330D01*
X0163814Y0170713D02*
X0162580Y0170713D01*
X0165652Y0170713D02*
X0166269Y0170713D01*
X0167484Y0170713D02*
X0167484Y0168861D01*
X0168101Y0168244D01*
X0168718Y0168861D01*
X0169335Y0168244D01*
X0169953Y0168861D01*
X0169953Y0170713D01*
X0171167Y0171330D02*
X0171784Y0171947D01*
X0173019Y0171947D01*
X0173636Y0171330D01*
X0173636Y0170713D01*
X0173019Y0170096D01*
X0171784Y0170096D01*
X0171167Y0169478D01*
X0171167Y0168861D01*
X0171784Y0168244D01*
X0173019Y0168244D01*
X0173636Y0168861D01*
X0173649Y0167807D02*
X0174883Y0167807D01*
X0174266Y0167807D02*
X0174266Y0164104D01*
X0174883Y0164104D02*
X0173649Y0164104D01*
X0172428Y0164104D02*
X0172428Y0167807D01*
X0169959Y0164104D01*
X0169959Y0167807D01*
X0168718Y0171810D02*
X0168101Y0171810D01*
X0167484Y0172427D01*
X0167484Y0175513D01*
X0169335Y0175513D01*
X0169953Y0174896D01*
X0169953Y0173661D01*
X0169335Y0173044D01*
X0167484Y0173044D01*
X0171167Y0173044D02*
X0173019Y0173044D01*
X0173636Y0173661D01*
X0173019Y0174278D01*
X0171167Y0174278D01*
X0171167Y0174896D02*
X0171167Y0173044D01*
X0171167Y0174896D02*
X0171784Y0175513D01*
X0173019Y0175513D01*
X0174850Y0176747D02*
X0174850Y0173044D01*
X0177319Y0173044D02*
X0177319Y0176747D01*
X0176085Y0175513D01*
X0174850Y0176747D01*
X0172428Y0161807D02*
X0172428Y0158104D01*
X0173642Y0159956D02*
X0176111Y0159956D01*
X0174877Y0161190D02*
X0174877Y0158721D01*
X0171200Y0159956D02*
X0168731Y0159956D01*
X0158031Y0160016D02*
X0155562Y0160016D01*
X0156797Y0161250D02*
X0156797Y0158781D01*
X0154348Y0158164D02*
X0154348Y0161867D01*
X0153120Y0160016D02*
X0150651Y0160016D01*
X0150658Y0164164D02*
X0150658Y0167867D01*
X0195674Y0168607D02*
X0198142Y0168607D01*
X0199357Y0168607D02*
X0199357Y0165521D01*
X0199974Y0164904D01*
X0201208Y0164904D01*
X0201826Y0165521D01*
X0201826Y0168607D01*
X0201457Y0168984D02*
X0201457Y0170836D01*
X0202074Y0171453D01*
X0203308Y0171453D01*
X0203925Y0170836D01*
X0205140Y0171453D02*
X0206991Y0171453D01*
X0207609Y0170836D01*
X0207609Y0169601D01*
X0206991Y0168984D01*
X0205140Y0168984D01*
X0204892Y0168607D02*
X0203657Y0168607D01*
X0203040Y0167990D01*
X0203040Y0165521D01*
X0203657Y0164904D01*
X0204892Y0164904D01*
X0205509Y0165521D01*
X0205509Y0167990D01*
X0204892Y0168607D01*
X0203925Y0168984D02*
X0203925Y0172687D01*
X0203919Y0173784D02*
X0204536Y0174401D01*
X0204536Y0176870D01*
X0205153Y0176253D02*
X0203919Y0176253D01*
X0202698Y0176253D02*
X0202081Y0176253D01*
X0202081Y0173784D01*
X0202698Y0173784D02*
X0201463Y0173784D01*
X0200242Y0174401D02*
X0199625Y0173784D01*
X0197774Y0173784D01*
X0197774Y0176253D02*
X0199625Y0176253D01*
X0200242Y0175636D01*
X0200242Y0174401D01*
X0202081Y0177487D02*
X0202081Y0178104D01*
X0206368Y0175636D02*
X0206368Y0175018D01*
X0208836Y0175018D01*
X0208836Y0174401D02*
X0208836Y0175636D01*
X0208219Y0176253D01*
X0206985Y0176253D01*
X0206368Y0175636D01*
X0206985Y0173784D02*
X0208219Y0173784D01*
X0208836Y0174401D01*
X0210051Y0173784D02*
X0210051Y0175636D01*
X0210668Y0176253D01*
X0212519Y0176253D01*
X0212519Y0173784D01*
X0211902Y0173304D02*
X0211902Y0172687D01*
X0211902Y0171453D02*
X0211902Y0168984D01*
X0212519Y0168984D02*
X0211285Y0168984D01*
X0209447Y0169601D02*
X0208830Y0168984D01*
X0209447Y0169601D02*
X0209447Y0172070D01*
X0210064Y0171453D02*
X0208830Y0171453D01*
X0211902Y0171453D02*
X0212519Y0171453D01*
X0213734Y0171453D02*
X0213734Y0169601D01*
X0214351Y0168984D01*
X0214968Y0169601D01*
X0215585Y0168984D01*
X0216203Y0169601D01*
X0216203Y0171453D01*
X0217417Y0172070D02*
X0218034Y0172687D01*
X0219269Y0172687D01*
X0219886Y0172070D01*
X0219886Y0171453D01*
X0219269Y0170836D01*
X0218034Y0170836D01*
X0217417Y0170218D01*
X0217417Y0169601D01*
X0218034Y0168984D01*
X0219269Y0168984D01*
X0219886Y0169601D01*
X0219899Y0168547D02*
X0221133Y0168547D01*
X0220516Y0168547D02*
X0220516Y0164844D01*
X0221133Y0164844D02*
X0219899Y0164844D01*
X0218678Y0164844D02*
X0218678Y0168547D01*
X0216209Y0164844D01*
X0216209Y0168547D01*
X0218678Y0162547D02*
X0218678Y0158844D01*
X0219892Y0160696D02*
X0222361Y0160696D01*
X0221127Y0161930D02*
X0221127Y0159461D01*
X0217450Y0160696D02*
X0214981Y0160696D01*
X0204281Y0160756D02*
X0201812Y0160756D01*
X0203047Y0161990D02*
X0203047Y0159521D01*
X0200598Y0158904D02*
X0200598Y0162607D01*
X0199370Y0160756D02*
X0196901Y0160756D01*
X0196908Y0164904D02*
X0196908Y0168607D01*
X0213734Y0173167D02*
X0213734Y0176253D01*
X0215585Y0176253D01*
X0216203Y0175636D01*
X0216203Y0174401D01*
X0215585Y0173784D01*
X0213734Y0173784D01*
X0213734Y0173167D02*
X0214351Y0172550D01*
X0214968Y0172550D01*
X0217417Y0173784D02*
X0219269Y0173784D01*
X0219886Y0174401D01*
X0219269Y0175018D01*
X0217417Y0175018D01*
X0217417Y0175636D02*
X0217417Y0173784D01*
X0217417Y0175636D02*
X0218034Y0176253D01*
X0219269Y0176253D01*
X0221100Y0177487D02*
X0221100Y0173784D01*
X0223569Y0173784D02*
X0223569Y0177487D01*
X0222335Y0176253D01*
X0221100Y0177487D01*
X0242784Y0168487D02*
X0245252Y0168487D01*
X0246467Y0168487D02*
X0246467Y0165401D01*
X0247084Y0164784D01*
X0248318Y0164784D01*
X0248936Y0165401D01*
X0248936Y0168487D01*
X0248567Y0168864D02*
X0248567Y0170716D01*
X0249184Y0171333D01*
X0250418Y0171333D01*
X0251035Y0170716D01*
X0252250Y0171333D02*
X0254101Y0171333D01*
X0254719Y0170716D01*
X0254719Y0169481D01*
X0254101Y0168864D01*
X0252250Y0168864D01*
X0252002Y0168487D02*
X0252619Y0167870D01*
X0252619Y0165401D01*
X0252002Y0164784D01*
X0250767Y0164784D01*
X0250150Y0165401D01*
X0250150Y0167870D01*
X0250767Y0168487D01*
X0252002Y0168487D01*
X0251035Y0168864D02*
X0251035Y0172567D01*
X0251029Y0173664D02*
X0251646Y0174281D01*
X0251646Y0176750D01*
X0252263Y0176133D02*
X0251029Y0176133D01*
X0249808Y0176133D02*
X0249191Y0176133D01*
X0249191Y0173664D01*
X0249808Y0173664D02*
X0248573Y0173664D01*
X0247352Y0174281D02*
X0246735Y0173664D01*
X0244884Y0173664D01*
X0244884Y0176133D02*
X0246735Y0176133D01*
X0247352Y0175516D01*
X0247352Y0174281D01*
X0249191Y0177367D02*
X0249191Y0177984D01*
X0253478Y0175516D02*
X0253478Y0174898D01*
X0255946Y0174898D01*
X0255946Y0174281D02*
X0255946Y0175516D01*
X0255329Y0176133D01*
X0254095Y0176133D01*
X0253478Y0175516D01*
X0254095Y0173664D02*
X0255329Y0173664D01*
X0255946Y0174281D01*
X0257161Y0173664D02*
X0257161Y0175516D01*
X0257778Y0176133D01*
X0259629Y0176133D01*
X0259629Y0173664D01*
X0259012Y0173184D02*
X0259012Y0172567D01*
X0259012Y0171333D02*
X0259012Y0168864D01*
X0259629Y0168864D02*
X0258395Y0168864D01*
X0256557Y0169481D02*
X0255940Y0168864D01*
X0256557Y0169481D02*
X0256557Y0171950D01*
X0257174Y0171333D02*
X0255940Y0171333D01*
X0259012Y0171333D02*
X0259629Y0171333D01*
X0260844Y0171333D02*
X0260844Y0169481D01*
X0261461Y0168864D01*
X0262078Y0169481D01*
X0262695Y0168864D01*
X0263313Y0169481D01*
X0263313Y0171333D01*
X0264527Y0171950D02*
X0265144Y0172567D01*
X0266379Y0172567D01*
X0266996Y0171950D01*
X0266996Y0171333D01*
X0266379Y0170716D01*
X0265144Y0170716D01*
X0264527Y0170098D01*
X0264527Y0169481D01*
X0265144Y0168864D01*
X0266379Y0168864D01*
X0266996Y0169481D01*
X0267009Y0168427D02*
X0268243Y0168427D01*
X0267626Y0168427D02*
X0267626Y0164724D01*
X0268243Y0164724D02*
X0267009Y0164724D01*
X0265788Y0164724D02*
X0265788Y0168427D01*
X0263319Y0164724D01*
X0263319Y0168427D01*
X0265788Y0162427D02*
X0265788Y0158724D01*
X0267002Y0160576D02*
X0269471Y0160576D01*
X0268237Y0161810D02*
X0268237Y0159341D01*
X0264560Y0160576D02*
X0262091Y0160576D01*
X0251391Y0160636D02*
X0248922Y0160636D01*
X0250157Y0161870D02*
X0250157Y0159401D01*
X0247708Y0158784D02*
X0247708Y0162487D01*
X0246480Y0160636D02*
X0244011Y0160636D01*
X0244018Y0164784D02*
X0244018Y0168487D01*
X0260844Y0173047D02*
X0260844Y0176133D01*
X0262695Y0176133D01*
X0263313Y0175516D01*
X0263313Y0174281D01*
X0262695Y0173664D01*
X0260844Y0173664D01*
X0260844Y0173047D02*
X0261461Y0172430D01*
X0262078Y0172430D01*
X0264527Y0173664D02*
X0266379Y0173664D01*
X0266996Y0174281D01*
X0266379Y0174898D01*
X0264527Y0174898D01*
X0264527Y0175516D02*
X0264527Y0173664D01*
X0264527Y0175516D02*
X0265144Y0176133D01*
X0266379Y0176133D01*
X0268210Y0177367D02*
X0268210Y0173664D01*
X0270679Y0173664D02*
X0270679Y0177367D01*
X0269445Y0176133D01*
X0268210Y0177367D01*
X0289764Y0168327D02*
X0292232Y0168327D01*
X0293447Y0168327D02*
X0293447Y0165241D01*
X0294064Y0164624D01*
X0295298Y0164624D01*
X0295916Y0165241D01*
X0295916Y0168327D01*
X0295547Y0168704D02*
X0295547Y0170556D01*
X0296164Y0171173D01*
X0297398Y0171173D01*
X0298015Y0170556D01*
X0299230Y0171173D02*
X0301081Y0171173D01*
X0301699Y0170556D01*
X0301699Y0169321D01*
X0301081Y0168704D01*
X0299230Y0168704D01*
X0298982Y0168327D02*
X0299599Y0167710D01*
X0299599Y0165241D01*
X0298982Y0164624D01*
X0297747Y0164624D01*
X0297130Y0165241D01*
X0297130Y0167710D01*
X0297747Y0168327D01*
X0298982Y0168327D01*
X0298015Y0168704D02*
X0298015Y0172407D01*
X0298009Y0173504D02*
X0298626Y0174121D01*
X0298626Y0176590D01*
X0299243Y0175973D02*
X0298009Y0175973D01*
X0296788Y0175973D02*
X0296171Y0175973D01*
X0296171Y0173504D01*
X0296788Y0173504D02*
X0295553Y0173504D01*
X0294332Y0174121D02*
X0293715Y0173504D01*
X0291864Y0173504D01*
X0291864Y0175973D02*
X0293715Y0175973D01*
X0294332Y0175356D01*
X0294332Y0174121D01*
X0296171Y0177207D02*
X0296171Y0177824D01*
X0300458Y0175356D02*
X0300458Y0174738D01*
X0302926Y0174738D01*
X0302926Y0174121D02*
X0302926Y0175356D01*
X0302309Y0175973D01*
X0301075Y0175973D01*
X0300458Y0175356D01*
X0301075Y0173504D02*
X0302309Y0173504D01*
X0302926Y0174121D01*
X0304141Y0173504D02*
X0304141Y0175356D01*
X0304758Y0175973D01*
X0306609Y0175973D01*
X0306609Y0173504D01*
X0305992Y0173024D02*
X0305992Y0172407D01*
X0305992Y0171173D02*
X0305992Y0168704D01*
X0306609Y0168704D02*
X0305375Y0168704D01*
X0303537Y0169321D02*
X0302920Y0168704D01*
X0303537Y0169321D02*
X0303537Y0171790D01*
X0304154Y0171173D02*
X0302920Y0171173D01*
X0305992Y0171173D02*
X0306609Y0171173D01*
X0307824Y0171173D02*
X0307824Y0169321D01*
X0308441Y0168704D01*
X0309058Y0169321D01*
X0309675Y0168704D01*
X0310293Y0169321D01*
X0310293Y0171173D01*
X0311507Y0171790D02*
X0312124Y0172407D01*
X0313359Y0172407D01*
X0313976Y0171790D01*
X0313976Y0171173D01*
X0313359Y0170556D01*
X0312124Y0170556D01*
X0311507Y0169938D01*
X0311507Y0169321D01*
X0312124Y0168704D01*
X0313359Y0168704D01*
X0313976Y0169321D01*
X0313989Y0168267D02*
X0315223Y0168267D01*
X0314606Y0168267D02*
X0314606Y0164564D01*
X0315223Y0164564D02*
X0313989Y0164564D01*
X0312768Y0164564D02*
X0312768Y0168267D01*
X0310299Y0164564D01*
X0310299Y0168267D01*
X0309058Y0172270D02*
X0308441Y0172270D01*
X0307824Y0172887D01*
X0307824Y0175973D01*
X0309675Y0175973D01*
X0310293Y0175356D01*
X0310293Y0174121D01*
X0309675Y0173504D01*
X0307824Y0173504D01*
X0311507Y0173504D02*
X0313359Y0173504D01*
X0313976Y0174121D01*
X0313359Y0174738D01*
X0311507Y0174738D01*
X0311507Y0175356D02*
X0311507Y0173504D01*
X0311507Y0175356D02*
X0312124Y0175973D01*
X0313359Y0175973D01*
X0315190Y0177207D02*
X0315190Y0173504D01*
X0317659Y0173504D02*
X0317659Y0177207D01*
X0316425Y0175973D01*
X0315190Y0177207D01*
X0312768Y0162267D02*
X0312768Y0158564D01*
X0313982Y0160416D02*
X0316451Y0160416D01*
X0315217Y0161650D02*
X0315217Y0159181D01*
X0311540Y0160416D02*
X0309071Y0160416D01*
X0298371Y0160476D02*
X0295902Y0160476D01*
X0297137Y0161710D02*
X0297137Y0159241D01*
X0294688Y0158624D02*
X0294688Y0162327D01*
X0293460Y0160476D02*
X0290991Y0160476D01*
X0290998Y0164624D02*
X0290998Y0168327D01*
X0339274Y0169197D02*
X0341742Y0169197D01*
X0342957Y0169197D02*
X0342957Y0166111D01*
X0343574Y0165494D01*
X0344808Y0165494D01*
X0345426Y0166111D01*
X0345426Y0169197D01*
X0345057Y0169574D02*
X0345057Y0171426D01*
X0345674Y0172043D01*
X0346908Y0172043D01*
X0347525Y0171426D01*
X0348740Y0172043D02*
X0350591Y0172043D01*
X0351209Y0171426D01*
X0351209Y0170191D01*
X0350591Y0169574D01*
X0348740Y0169574D01*
X0348492Y0169197D02*
X0349109Y0168580D01*
X0349109Y0166111D01*
X0348492Y0165494D01*
X0347257Y0165494D01*
X0346640Y0166111D01*
X0346640Y0168580D01*
X0347257Y0169197D01*
X0348492Y0169197D01*
X0347525Y0169574D02*
X0347525Y0173277D01*
X0347519Y0174374D02*
X0348136Y0174991D01*
X0348136Y0177460D01*
X0348753Y0176843D02*
X0347519Y0176843D01*
X0346298Y0176843D02*
X0345681Y0176843D01*
X0345681Y0174374D01*
X0346298Y0174374D02*
X0345063Y0174374D01*
X0343842Y0174991D02*
X0343225Y0174374D01*
X0341374Y0174374D01*
X0341374Y0176843D02*
X0343225Y0176843D01*
X0343842Y0176226D01*
X0343842Y0174991D01*
X0345681Y0178077D02*
X0345681Y0178694D01*
X0349968Y0176226D02*
X0349968Y0175608D01*
X0352436Y0175608D01*
X0352436Y0174991D02*
X0352436Y0176226D01*
X0351819Y0176843D01*
X0350585Y0176843D01*
X0349968Y0176226D01*
X0350585Y0174374D02*
X0351819Y0174374D01*
X0352436Y0174991D01*
X0353651Y0174374D02*
X0353651Y0176226D01*
X0354268Y0176843D01*
X0356119Y0176843D01*
X0356119Y0174374D01*
X0355502Y0173894D02*
X0355502Y0173277D01*
X0355502Y0172043D02*
X0355502Y0169574D01*
X0356119Y0169574D02*
X0354885Y0169574D01*
X0353047Y0170191D02*
X0353047Y0172660D01*
X0353664Y0172043D02*
X0352430Y0172043D01*
X0353047Y0170191D02*
X0352430Y0169574D01*
X0355502Y0172043D02*
X0356119Y0172043D01*
X0357334Y0172043D02*
X0357334Y0170191D01*
X0357951Y0169574D01*
X0358568Y0170191D01*
X0359185Y0169574D01*
X0359803Y0170191D01*
X0359803Y0172043D01*
X0361017Y0172660D02*
X0361634Y0173277D01*
X0362869Y0173277D01*
X0363486Y0172660D01*
X0363486Y0172043D01*
X0362869Y0171426D01*
X0361634Y0171426D01*
X0361017Y0170808D01*
X0361017Y0170191D01*
X0361634Y0169574D01*
X0362869Y0169574D01*
X0363486Y0170191D01*
X0363499Y0169137D02*
X0364733Y0169137D01*
X0364116Y0169137D02*
X0364116Y0165434D01*
X0364733Y0165434D02*
X0363499Y0165434D01*
X0362278Y0165434D02*
X0362278Y0169137D01*
X0359809Y0165434D01*
X0359809Y0169137D01*
X0358568Y0173140D02*
X0357951Y0173140D01*
X0357334Y0173757D01*
X0357334Y0176843D01*
X0359185Y0176843D01*
X0359803Y0176226D01*
X0359803Y0174991D01*
X0359185Y0174374D01*
X0357334Y0174374D01*
X0361017Y0174374D02*
X0361017Y0176226D01*
X0361634Y0176843D01*
X0362869Y0176843D01*
X0362869Y0175608D02*
X0361017Y0175608D01*
X0361017Y0174374D02*
X0362869Y0174374D01*
X0363486Y0174991D01*
X0362869Y0175608D01*
X0364700Y0174374D02*
X0364700Y0178077D01*
X0365935Y0176843D01*
X0367169Y0178077D01*
X0367169Y0174374D01*
X0364727Y0162520D02*
X0364727Y0160051D01*
X0365961Y0161286D02*
X0363492Y0161286D01*
X0362278Y0163137D02*
X0362278Y0159434D01*
X0361050Y0161286D02*
X0358581Y0161286D01*
X0347881Y0161346D02*
X0345412Y0161346D01*
X0346647Y0162580D02*
X0346647Y0160111D01*
X0344198Y0159494D02*
X0344198Y0163197D01*
X0342970Y0161346D02*
X0340501Y0161346D01*
X0340508Y0165494D02*
X0340508Y0169197D01*
X0344018Y0206234D02*
X0344018Y0209937D01*
X0345232Y0208086D02*
X0347701Y0208086D01*
X0346467Y0209320D02*
X0346467Y0206851D01*
X0342790Y0208086D02*
X0340321Y0208086D01*
X0340328Y0212234D02*
X0340328Y0215937D01*
X0341562Y0215937D02*
X0339094Y0215937D01*
X0342777Y0215937D02*
X0342777Y0212851D01*
X0343394Y0212234D01*
X0344628Y0212234D01*
X0345246Y0212851D01*
X0345246Y0215937D01*
X0344877Y0216314D02*
X0344877Y0218166D01*
X0345494Y0218783D01*
X0346728Y0218783D01*
X0347345Y0218166D01*
X0348560Y0218783D02*
X0350411Y0218783D01*
X0351029Y0218166D01*
X0351029Y0216931D01*
X0350411Y0216314D01*
X0348560Y0216314D01*
X0348312Y0215937D02*
X0348929Y0215320D01*
X0348929Y0212851D01*
X0348312Y0212234D01*
X0347077Y0212234D01*
X0346460Y0212851D01*
X0346460Y0215320D01*
X0347077Y0215937D01*
X0348312Y0215937D01*
X0347345Y0216314D02*
X0347345Y0220017D01*
X0347339Y0221114D02*
X0347956Y0221731D01*
X0347956Y0224200D01*
X0348573Y0223583D02*
X0347339Y0223583D01*
X0346118Y0223583D02*
X0345501Y0223583D01*
X0345501Y0221114D01*
X0346118Y0221114D02*
X0344883Y0221114D01*
X0343662Y0221731D02*
X0343045Y0221114D01*
X0341194Y0221114D01*
X0341194Y0223583D02*
X0343045Y0223583D01*
X0343662Y0222966D01*
X0343662Y0221731D01*
X0345501Y0224817D02*
X0345501Y0225434D01*
X0349788Y0222966D02*
X0349788Y0222348D01*
X0352256Y0222348D01*
X0352256Y0221731D02*
X0352256Y0222966D01*
X0351639Y0223583D01*
X0350405Y0223583D01*
X0349788Y0222966D01*
X0350405Y0221114D02*
X0351639Y0221114D01*
X0352256Y0221731D01*
X0353471Y0221114D02*
X0353471Y0222966D01*
X0354088Y0223583D01*
X0355939Y0223583D01*
X0355939Y0221114D01*
X0355322Y0220634D02*
X0355322Y0220017D01*
X0355322Y0218783D02*
X0355322Y0216314D01*
X0355939Y0216314D02*
X0354705Y0216314D01*
X0352867Y0216931D02*
X0352250Y0216314D01*
X0352867Y0216931D02*
X0352867Y0219400D01*
X0353484Y0218783D02*
X0352250Y0218783D01*
X0355322Y0218783D02*
X0355939Y0218783D01*
X0357154Y0218783D02*
X0357154Y0216931D01*
X0357771Y0216314D01*
X0358388Y0216931D01*
X0359005Y0216314D01*
X0359623Y0216931D01*
X0359623Y0218783D01*
X0360837Y0219400D02*
X0361454Y0220017D01*
X0362689Y0220017D01*
X0363306Y0219400D01*
X0363306Y0218783D01*
X0362689Y0218166D01*
X0361454Y0218166D01*
X0360837Y0217548D01*
X0360837Y0216931D01*
X0361454Y0216314D01*
X0362689Y0216314D01*
X0363306Y0216931D01*
X0363319Y0215877D02*
X0364553Y0215877D01*
X0363936Y0215877D02*
X0363936Y0212174D01*
X0364553Y0212174D02*
X0363319Y0212174D01*
X0362098Y0212174D02*
X0362098Y0215877D01*
X0359629Y0212174D01*
X0359629Y0215877D01*
X0362098Y0209877D02*
X0362098Y0206174D01*
X0363312Y0208026D02*
X0365781Y0208026D01*
X0364547Y0209260D02*
X0364547Y0206791D01*
X0360870Y0208026D02*
X0358401Y0208026D01*
X0358388Y0219880D02*
X0357771Y0219880D01*
X0357154Y0220497D01*
X0357154Y0223583D01*
X0359005Y0223583D01*
X0359623Y0222966D01*
X0359623Y0221731D01*
X0359005Y0221114D01*
X0357154Y0221114D01*
X0360837Y0221114D02*
X0362689Y0221114D01*
X0363306Y0221731D01*
X0362689Y0222348D01*
X0360837Y0222348D01*
X0360837Y0222966D02*
X0360837Y0221114D01*
X0360837Y0222966D02*
X0361454Y0223583D01*
X0362689Y0223583D01*
X0364520Y0224817D02*
X0364520Y0221114D01*
X0366989Y0221114D02*
X0366989Y0224817D01*
X0365755Y0223583D01*
X0364520Y0224817D01*
X0040739Y0088237D02*
X0039505Y0087003D01*
X0038270Y0088237D01*
X0038270Y0084534D01*
X0037056Y0085151D02*
X0036439Y0085768D01*
X0034587Y0085768D01*
X0034587Y0086386D02*
X0034587Y0084534D01*
X0036439Y0084534D01*
X0037056Y0085151D01*
X0036439Y0083437D02*
X0037056Y0082820D01*
X0037056Y0082203D01*
X0036439Y0081586D01*
X0035204Y0081586D01*
X0034587Y0080968D01*
X0034587Y0080351D01*
X0035204Y0079734D01*
X0036439Y0079734D01*
X0037056Y0080351D01*
X0037069Y0079297D02*
X0038303Y0079297D01*
X0037686Y0079297D02*
X0037686Y0075594D01*
X0038303Y0075594D02*
X0037069Y0075594D01*
X0035848Y0075594D02*
X0035848Y0079297D01*
X0033379Y0075594D01*
X0033379Y0079297D01*
X0032755Y0079734D02*
X0032138Y0080351D01*
X0031521Y0079734D01*
X0030904Y0080351D01*
X0030904Y0082203D01*
X0029689Y0082203D02*
X0029072Y0082203D01*
X0029072Y0079734D01*
X0029689Y0079734D02*
X0028455Y0079734D01*
X0026617Y0080351D02*
X0026617Y0082820D01*
X0027234Y0082203D02*
X0026000Y0082203D01*
X0024779Y0081586D02*
X0024779Y0080351D01*
X0024161Y0079734D01*
X0022310Y0079734D01*
X0022062Y0079357D02*
X0022679Y0078740D01*
X0022679Y0076271D01*
X0022062Y0075654D01*
X0020827Y0075654D01*
X0020210Y0076271D01*
X0020210Y0078740D01*
X0020827Y0079357D01*
X0022062Y0079357D01*
X0021095Y0079734D02*
X0021095Y0083437D01*
X0021089Y0084534D02*
X0021706Y0085151D01*
X0021706Y0087620D01*
X0022323Y0087003D02*
X0021089Y0087003D01*
X0019868Y0087003D02*
X0019251Y0087003D01*
X0019251Y0084534D01*
X0019868Y0084534D02*
X0018633Y0084534D01*
X0017412Y0085151D02*
X0016795Y0084534D01*
X0014944Y0084534D01*
X0014944Y0087003D02*
X0016795Y0087003D01*
X0017412Y0086386D01*
X0017412Y0085151D01*
X0019244Y0082203D02*
X0018627Y0081586D01*
X0018627Y0079734D01*
X0018996Y0079357D02*
X0018996Y0076271D01*
X0018378Y0075654D01*
X0017144Y0075654D01*
X0016527Y0076271D01*
X0016527Y0079357D01*
X0015312Y0079357D02*
X0012844Y0079357D01*
X0014078Y0079357D02*
X0014078Y0075654D01*
X0014071Y0071506D02*
X0016540Y0071506D01*
X0017768Y0073357D02*
X0017768Y0069654D01*
X0018982Y0071506D02*
X0021451Y0071506D01*
X0020217Y0072740D02*
X0020217Y0070271D01*
X0026000Y0079734D02*
X0026617Y0080351D01*
X0024779Y0081586D02*
X0024161Y0082203D01*
X0022310Y0082203D01*
X0021095Y0081586D02*
X0020478Y0082203D01*
X0019244Y0082203D01*
X0024155Y0084534D02*
X0025389Y0084534D01*
X0026006Y0085151D01*
X0026006Y0086386D01*
X0025389Y0087003D01*
X0024155Y0087003D01*
X0023538Y0086386D01*
X0023538Y0085768D01*
X0026006Y0085768D01*
X0027221Y0086386D02*
X0027221Y0084534D01*
X0027221Y0086386D02*
X0027838Y0087003D01*
X0029689Y0087003D01*
X0029689Y0084534D01*
X0029072Y0084054D02*
X0029072Y0083437D01*
X0030904Y0083917D02*
X0030904Y0087003D01*
X0032755Y0087003D01*
X0033373Y0086386D01*
X0033373Y0085151D01*
X0032755Y0084534D01*
X0030904Y0084534D01*
X0030904Y0083917D02*
X0031521Y0083300D01*
X0032138Y0083300D01*
X0033373Y0082203D02*
X0033373Y0080351D01*
X0032755Y0079734D01*
X0034587Y0082820D02*
X0035204Y0083437D01*
X0036439Y0083437D01*
X0034587Y0086386D02*
X0035204Y0087003D01*
X0036439Y0087003D01*
X0040739Y0088237D02*
X0040739Y0084534D01*
X0038297Y0072680D02*
X0038297Y0070211D01*
X0039531Y0071446D02*
X0037062Y0071446D01*
X0035848Y0073297D02*
X0035848Y0069594D01*
X0034620Y0071446D02*
X0032151Y0071446D01*
X0019251Y0088237D02*
X0019251Y0088854D01*
M02*
