G75*
%MOIN*%
%OFA0B0*%
%FSLAX25Y25*%
%IPPOS*%
%LPD*%
%AMOC8*
5,1,8,0,0,1.08239X$1,22.5*
%
%ADD10C,0.01600*%
%ADD11R,0.11200X0.06000*%
%ADD12C,0.00500*%
%ADD13R,0.06000X0.11200*%
%ADD14R,0.11000X0.11000*%
%ADD15C,0.05937*%
%ADD16R,0.03962X0.03962*%
D10*
X0001800Y0001800D02*
X0001800Y0201800D01*
X0141800Y0201800D01*
X0141800Y0001800D01*
X0001800Y0001800D01*
X0011800Y0011800D02*
X0041800Y0011800D01*
X0075100Y0045100D01*
X0075100Y0060400D01*
X0083000Y0060400D02*
X0083000Y0050600D01*
X0121800Y0011800D01*
X0131800Y0011800D01*
X0131800Y0021800D02*
X0121800Y0021800D01*
X0090900Y0052700D01*
X0090900Y0060400D01*
X0098800Y0060400D02*
X0127400Y0031800D01*
X0131800Y0031800D01*
X0131800Y0041800D02*
X0114300Y0059300D01*
X0114300Y0068300D01*
X0114300Y0076200D02*
X0106200Y0076200D01*
X0101800Y0071800D01*
X0101800Y0081800D02*
X0104100Y0084100D01*
X0114300Y0084100D01*
X0114300Y0092000D02*
X0102000Y0092000D01*
X0101800Y0091800D01*
X0103700Y0099900D02*
X0114300Y0099900D01*
X0114300Y0107800D02*
X0105800Y0107800D01*
X0101800Y0111800D01*
X0101800Y0101800D02*
X0103700Y0099900D01*
X0114300Y0115700D02*
X0117900Y0115700D01*
X0131800Y0101800D01*
X0131800Y0111800D02*
X0120000Y0123600D01*
X0114300Y0123600D01*
X0114300Y0131500D02*
X0122100Y0131500D01*
X0131800Y0121800D01*
X0131800Y0131800D02*
X0124200Y0139400D01*
X0114300Y0139400D01*
X0114300Y0147300D02*
X0126300Y0147300D01*
X0131800Y0141800D01*
X0131800Y0151800D02*
X0128400Y0155200D01*
X0114300Y0155200D01*
X0114300Y0163100D02*
X0130500Y0163100D01*
X0131800Y0161800D01*
X0131000Y0171000D02*
X0114300Y0171000D01*
X0114300Y0178900D02*
X0128900Y0178900D01*
X0131800Y0181800D01*
X0131800Y0171800D02*
X0131000Y0171000D01*
X0131800Y0191800D02*
X0119300Y0191800D01*
X0114300Y0186800D01*
X0051700Y0171900D02*
X0051700Y0151400D01*
X0039300Y0149300D02*
X0039300Y0147300D01*
X0027700Y0147300D01*
X0027700Y0139400D02*
X0024200Y0139400D01*
X0011800Y0151800D01*
X0011800Y0141800D02*
X0022100Y0131500D01*
X0027700Y0131500D01*
X0027700Y0123600D02*
X0020000Y0123600D01*
X0011800Y0131800D01*
X0011800Y0121800D02*
X0017900Y0115700D01*
X0027700Y0115700D01*
X0027700Y0107800D02*
X0015800Y0107800D01*
X0011800Y0111800D01*
X0011800Y0101800D02*
X0013700Y0099900D01*
X0027700Y0099900D01*
X0027700Y0092000D02*
X0012000Y0092000D01*
X0011800Y0091800D01*
X0014100Y0084100D02*
X0027700Y0084100D01*
X0027700Y0076200D02*
X0016200Y0076200D01*
X0011800Y0071800D01*
X0018300Y0068300D02*
X0027700Y0068300D01*
X0020400Y0060400D02*
X0043500Y0060400D01*
X0051400Y0060400D02*
X0051400Y0051400D01*
X0041800Y0041800D01*
X0011800Y0041800D01*
X0011800Y0031800D02*
X0041800Y0031800D01*
X0059300Y0049300D01*
X0059300Y0060400D01*
X0067200Y0060400D02*
X0067200Y0047200D01*
X0041800Y0021800D01*
X0011800Y0021800D01*
X0011800Y0051800D02*
X0020400Y0060400D01*
X0018300Y0068300D02*
X0011800Y0061800D01*
X0011800Y0081800D02*
X0014100Y0084100D01*
X0027700Y0155200D02*
X0039300Y0155200D01*
X0039300Y0161800D01*
X0027700Y0163100D02*
X0027700Y0165900D01*
X0011800Y0181800D01*
X0011800Y0191800D02*
X0031800Y0191800D01*
X0051700Y0171900D01*
D11*
X0027700Y0163100D03*
X0027700Y0155200D03*
X0027700Y0147300D03*
X0027700Y0139400D03*
X0027700Y0131500D03*
X0027700Y0123600D03*
X0027700Y0115700D03*
X0027700Y0107800D03*
X0027700Y0099900D03*
X0027700Y0092000D03*
X0027700Y0084100D03*
X0027700Y0076200D03*
X0027700Y0068300D03*
X0114300Y0068300D03*
X0114300Y0076200D03*
X0114300Y0084100D03*
X0114300Y0092000D03*
X0114300Y0099900D03*
X0114300Y0107800D03*
X0114300Y0115700D03*
X0114300Y0123600D03*
X0114300Y0131500D03*
X0114300Y0139400D03*
X0114300Y0147300D03*
X0114300Y0155200D03*
X0114300Y0163100D03*
X0114300Y0171000D03*
X0114300Y0178900D03*
X0114300Y0186800D03*
D12*
X0114300Y0193400D02*
X0027700Y0193400D01*
X0027700Y0060400D01*
X0114300Y0060400D01*
X0114300Y0193400D01*
D13*
X0098800Y0060400D03*
X0090900Y0060400D03*
X0083000Y0060400D03*
X0075100Y0060400D03*
X0067200Y0060400D03*
X0059300Y0060400D03*
X0051400Y0060400D03*
X0043500Y0060400D03*
D14*
X0051700Y0151400D03*
D15*
X0011800Y0151800D03*
X0011800Y0141800D03*
X0011800Y0131800D03*
X0011800Y0121800D03*
X0011800Y0111800D03*
X0011800Y0101800D03*
X0011800Y0091800D03*
X0011800Y0081800D03*
X0011800Y0071800D03*
X0011800Y0061800D03*
X0011800Y0051800D03*
X0011800Y0041800D03*
X0011800Y0031800D03*
X0011800Y0021800D03*
X0011800Y0011800D03*
X0011800Y0161800D03*
X0011800Y0171800D03*
X0011800Y0181800D03*
X0011800Y0191800D03*
X0131800Y0191800D03*
X0131800Y0181800D03*
X0131800Y0171800D03*
X0131800Y0161800D03*
X0131800Y0151800D03*
X0131800Y0141800D03*
X0131800Y0131800D03*
X0131800Y0121800D03*
X0131800Y0111800D03*
X0131800Y0101800D03*
X0131800Y0091800D03*
X0131800Y0081800D03*
X0131800Y0071800D03*
X0131800Y0061800D03*
X0131800Y0051800D03*
X0131800Y0041800D03*
X0131800Y0031800D03*
X0131800Y0021800D03*
X0131800Y0011800D03*
D16*
X0101800Y0071800D03*
X0101800Y0081800D03*
X0101800Y0091800D03*
X0101800Y0101800D03*
X0101800Y0111800D03*
X0039300Y0149300D03*
X0039300Y0161800D03*
M02*
