G75*
%MOIN*%
%OFA0B0*%
%FSLAX25Y25*%
%IPPOS*%
%LPD*%
%AMOC8*
5,1,8,0,0,1.08239X$1,22.5*
%
%ADD10R,0.12000X0.06800*%
%ADD11R,0.06800X0.12000*%
%ADD12R,0.11800X0.11800*%
%ADD13C,0.06737*%
%ADD14R,0.04762X0.04762*%
D10*
X0027700Y0068300D03*
X0027700Y0076200D03*
X0027700Y0084100D03*
X0027700Y0092000D03*
X0027700Y0099900D03*
X0027700Y0107800D03*
X0027700Y0115700D03*
X0027700Y0123600D03*
X0027700Y0131500D03*
X0027700Y0139400D03*
X0027700Y0147300D03*
X0027700Y0155200D03*
X0027700Y0163100D03*
X0114300Y0163100D03*
X0114300Y0171000D03*
X0114300Y0178900D03*
X0114300Y0186800D03*
X0114300Y0155200D03*
X0114300Y0147300D03*
X0114300Y0139400D03*
X0114300Y0131500D03*
X0114300Y0123600D03*
X0114300Y0115700D03*
X0114300Y0107800D03*
X0114300Y0099900D03*
X0114300Y0092000D03*
X0114300Y0084100D03*
X0114300Y0076200D03*
X0114300Y0068300D03*
D11*
X0098800Y0060400D03*
X0090900Y0060400D03*
X0083000Y0060400D03*
X0075100Y0060400D03*
X0067200Y0060400D03*
X0059300Y0060400D03*
X0051400Y0060400D03*
X0043500Y0060400D03*
D12*
X0051700Y0151400D03*
D13*
X0011800Y0011800D03*
X0011800Y0021800D03*
X0011800Y0031800D03*
X0011800Y0041800D03*
X0011800Y0051800D03*
X0011800Y0061800D03*
X0011800Y0071800D03*
X0011800Y0081800D03*
X0011800Y0091800D03*
X0011800Y0101800D03*
X0011800Y0111800D03*
X0011800Y0121800D03*
X0011800Y0131800D03*
X0011800Y0141800D03*
X0011800Y0151800D03*
X0011800Y0161800D03*
X0011800Y0171800D03*
X0011800Y0181800D03*
X0011800Y0191800D03*
X0131800Y0191800D03*
X0131800Y0181800D03*
X0131800Y0171800D03*
X0131800Y0161800D03*
X0131800Y0151800D03*
X0131800Y0141800D03*
X0131800Y0131800D03*
X0131800Y0121800D03*
X0131800Y0111800D03*
X0131800Y0101800D03*
X0131800Y0091800D03*
X0131800Y0081800D03*
X0131800Y0071800D03*
X0131800Y0061800D03*
X0131800Y0051800D03*
X0131800Y0041800D03*
X0131800Y0031800D03*
X0131800Y0021800D03*
X0131800Y0011800D03*
D14*
X0101800Y0071800D03*
X0101800Y0081800D03*
X0101800Y0091800D03*
X0101800Y0101800D03*
X0101800Y0111800D03*
X0039300Y0149300D03*
X0039300Y0161800D03*
M02*
