G75*
%MOIN*%
%OFA0B0*%
%FSLAX25Y25*%
%IPPOS*%
%LPD*%
%AMOC8*
5,1,8,0,0,1.08239X$1,22.5*
%
%ADD10C,0.05937*%
%ADD11C,0.01600*%
%ADD12R,0.03962X0.03962*%
D10*
X0011800Y0011800D03*
X0011800Y0021800D03*
X0011800Y0031800D03*
X0011800Y0041800D03*
X0011800Y0051800D03*
X0011800Y0061800D03*
X0011800Y0071800D03*
X0011800Y0081800D03*
X0011800Y0091800D03*
X0011800Y0101800D03*
X0011800Y0111800D03*
X0011800Y0121800D03*
X0011800Y0131800D03*
X0011800Y0141800D03*
X0011800Y0151800D03*
X0011800Y0161800D03*
X0011800Y0171800D03*
X0011800Y0181800D03*
X0011800Y0191800D03*
X0131800Y0191800D03*
X0131800Y0181800D03*
X0131800Y0171800D03*
X0131800Y0161800D03*
X0131800Y0151800D03*
X0131800Y0141800D03*
X0131800Y0131800D03*
X0131800Y0121800D03*
X0131800Y0111800D03*
X0131800Y0101800D03*
X0131800Y0091800D03*
X0131800Y0081800D03*
X0131800Y0071800D03*
X0131800Y0061800D03*
X0131800Y0051800D03*
X0131800Y0041800D03*
X0131800Y0031800D03*
X0131800Y0021800D03*
X0131800Y0011800D03*
D11*
X0131800Y0051800D02*
X0111800Y0071800D01*
X0101800Y0071800D01*
X0101800Y0081800D02*
X0111800Y0081800D01*
X0131800Y0061800D01*
X0131800Y0071800D02*
X0111800Y0091800D01*
X0101800Y0091800D01*
X0101800Y0101800D02*
X0111800Y0101800D01*
X0131800Y0081800D01*
X0131800Y0091800D02*
X0111800Y0111800D01*
X0101800Y0111800D01*
X0039300Y0149300D02*
X0026800Y0161800D01*
X0011800Y0161800D01*
X0011800Y0171800D02*
X0029300Y0171800D01*
X0039300Y0161800D01*
D12*
X0039300Y0161800D03*
X0039300Y0149300D03*
X0101800Y0111800D03*
X0101800Y0101800D03*
X0101800Y0091800D03*
X0101800Y0081800D03*
X0101800Y0071800D03*
M02*
