%
M48
M72
T01C0.02362
T02C0.03937
%
T01
X101800Y71800
X101800Y81800
X101800Y91800
X101800Y101800
X101800Y111800
X39300Y149300
X39300Y161800
T02
X11800Y11800
X11800Y21800
X11800Y31800
X11800Y41800
X11800Y51800
X11800Y61800
X11800Y71800
X11800Y81800
X11800Y91800
X11800Y101800
X11800Y111800
X11800Y121800
X11800Y131800
X11800Y141800
X11800Y151800
X11800Y161800
X11800Y171800
X11800Y181800
X11800Y191800
X131800Y191800
X131800Y181800
X131800Y171800
X131800Y161800
X131800Y151800
X131800Y141800
X131800Y131800
X131800Y121800
X131800Y111800
X131800Y101800
X131800Y91800
X131800Y81800
X131800Y71800
X131800Y61800
X131800Y51800
X131800Y41800
X131800Y31800
X131800Y21800
X131800Y11800
M30
